<svg xmlns="http://www.w3.org/2000/svg" viewBox="0 0 1075.98 718"><defs><style>.cls-1{opacity:0.49;}.cls-2{fill:none;}.cls-3{fill:#fac07f;}</style></defs><g id="Layer_2" data-name="Layer 2"><g id="Layer_1-2" data-name="Layer 1"><g class="cls-1"><path class="cls-2" d="M660.46,182.41a4,4,0,0,1-1.35.7h0A4,4,0,0,0,660.46,182.41Z"/><path class="cls-2" d="M792.1,123.45h0a4.32,4.32,0,0,1-3-1.27A4.26,4.26,0,0,0,792.1,123.45Z"/><path class="cls-2" d="M812.1,291.84h-.3l.3,0a8,8,0,0,1,1.78.23A7.42,7.42,0,0,0,812.1,291.84Z"/><path class="cls-2" d="M806.34,294.38h0a7.7,7.7,0,0,1,4.3-2.4h0A7.7,7.7,0,0,0,806.34,294.38Z"/><path class="cls-2" d="M793.26,123.31h0a4.48,4.48,0,0,0,1.39-.62h0A4.24,4.24,0,0,1,793.26,123.31Z"/><path class="cls-2" d="M661.69,180.75a2,2,0,0,0,.09-.22,1.89,1.89,0,0,0,.05-.23C661.79,180.45,661.74,180.6,661.69,180.75Z"/><path class="cls-2" d="M805.34,303.43l.27.46Z"/><path class="cls-2" d="M804.31,299.55a7.68,7.68,0,0,1,1.31-4.25h0a7.73,7.73,0,0,0-.38,7.95A7.8,7.8,0,0,1,804.31,299.55Z"/><path class="cls-2" d="M692.27,408.16h0Z"/><path class="cls-2" d="M661.45,181.28l0-.05a1.21,1.21,0,0,0,.09-.2l-.13.24Z"/><path class="cls-2" d="M647.26,484.06a6.86,6.86,0,0,1,5.38-2.56,6.78,6.78,0,0,1,2,.31h0a6.78,6.78,0,0,0-2-.3A6.86,6.86,0,0,0,647.26,484.06Z"/><path class="cls-2" d="M686.86,410.38a7.58,7.58,0,0,0,5.16-2,7.58,7.58,0,0,1-5.16,2,7.89,7.89,0,0,1-2.24-.35h0A7.55,7.55,0,0,0,686.86,410.38Z"/><path class="cls-2" d="M694.52,402.79h0c0-.16,0-.31,0-.46C694.51,402.48,694.52,402.63,694.52,402.79Z"/><path class="cls-2" d="M686.85,412.72a9.93,9.93,0,0,1-3.1-.52l-27.17,67.87a9.24,9.24,0,0,1,5.26,8.19L926,501a9.55,9.55,0,0,1,.33-1.52l-7.67-3.08L695.9,407A10,10,0,0,1,686.85,412.72Z"/><path class="cls-2" d="M655.71,482.24h0a6.92,6.92,0,0,1,3.79,5.91h0A6.9,6.9,0,0,0,655.71,482.24Z"/><path class="cls-2" d="M694.49,402a7.6,7.6,0,0,0-1.36-3.64h0A7.57,7.57,0,0,1,694.49,402Z"/><path class="cls-2" d="M644,491.6l-25.81,7.71a5.77,5.77,0,0,1,.1,1.1,5.7,5.7,0,0,1-5.43,5.66l-9.4,170.37.46.07,41.78-163.28,4.11-16A9.29,9.29,0,0,1,644,491.6Z"/><path class="cls-2" d="M596.67,678.63a8.31,8.31,0,0,1,5.57-2.25l7-125.83L611.64,506a5.71,5.71,0,0,1-4.59-4.1L442.94,529.67c0,.19,0,.38,0,.58a6.72,6.72,0,0,1-1.44,4.11Z"/><path class="cls-2" d="M440.62,530.23a4.25,4.25,0,0,1-.31,1.56,4.29,4.29,0,0,0,.31-1.56c0-.06,0-.11,0-.17h0C440.6,530.12,440.62,530.17,440.62,530.23Z"/><path class="cls-2" d="M659.44,489.32a7,7,0,0,1-.84,2.51h0a7.17,7.17,0,0,0,.85-2.51Z"/><path class="cls-2" d="M493.67,264a3.32,3.32,0,0,0,.33-1.41,3.44,3.44,0,0,0-.15-1h0a3.38,3.38,0,0,1,.15,1,3.32,3.32,0,0,1-.33,1.41Z"/><path class="cls-2" d="M658.62,175.48h0a4,4,0,0,1,2.71,1.75h0A3.93,3.93,0,0,0,658.62,175.48Z"/><path class="cls-2" d="M795.51,121.9h0a4.64,4.64,0,0,0,.67-1.06A4.64,4.64,0,0,1,795.51,121.9Z"/><path class="cls-2" d="M546.57,445.35a4.19,4.19,0,0,0-2.13-.64A4.19,4.19,0,0,1,546.57,445.35Z"/><path class="cls-2" d="M686.94,395.13a7.61,7.61,0,0,1,5.45,2.34h0a7.57,7.57,0,0,0-5.45-2.34l-.43,0h0Z"/><path class="cls-2" d="M687,392.79a10,10,0,0,1,7.24,3.2l109.74-90.45a10,10,0,0,1-.16-11.68L662.58,183.64a6.24,6.24,0,0,1-3.17,1.81l7.8,60.39,19,147C686.45,392.81,686.7,392.79,687,392.79Z"/><path class="cls-2" d="M683.53,409.59h0a7.71,7.71,0,0,1-3.68-3.93h0A7.63,7.63,0,0,0,683.53,409.59Z"/><path class="cls-2" d="M611.21,503.47a3.4,3.4,0,0,1-1.83-2h0A3.4,3.4,0,0,0,611.21,503.47Z"/><path class="cls-2" d="M612.57,494.67a5.72,5.72,0,0,1,5.24,3.52l25.81-7.71a9.25,9.25,0,0,1-.25-2.12,9.43,9.43,0,0,1,.38-2.56l-93.42-34a5.76,5.76,0,0,1-.38.69l58.42,44A5.67,5.67,0,0,1,612.57,494.67Z"/><path class="cls-2" d="M662,179.37a3.5,3.5,0,0,1-.07.65c0-.08,0-.16.05-.25s0-.27,0-.4a3.79,3.79,0,0,0-.16-1.07h0A4.19,4.19,0,0,1,662,179.37Z"/><path class="cls-2" d="M612.56,497a3.36,3.36,0,0,1,1.72.5,3.26,3.26,0,0,0-1.72-.5,3.41,3.41,0,0,0-2.31.91h0A3.41,3.41,0,0,1,612.56,497Z"/><path class="cls-2" d="M679.28,402.72a7.12,7.12,0,0,1,.16-1.54,7.81,7.81,0,0,0-.17,1.54c0,.11,0,.22,0,.33h0C679.29,402.94,679.28,402.83,679.28,402.72Z"/><path class="cls-2" d="M432.32,532.28h0a4.43,4.43,0,0,0,1.32,1.53h0A4.32,4.32,0,0,1,432.32,532.28Z"/><path class="cls-2" d="M394.36,592.71l-58.12.2-60.8.22a6.55,6.55,0,0,1-6.55,6,6.45,6.45,0,0,1-3.69-1.17L207.42,667a9.7,9.7,0,0,1,2.07,2.84l22-8.9L394.81,595A9.12,9.12,0,0,1,394.36,592.71Z"/><path class="cls-2" d="M1003.09,564.2h0l0,0h0Z"/><path class="cls-2" d="M1002.54,562.2c0-.14,0-.27-.06-.41v0Z"/><path class="cls-2" d="M198.22,667.17a7.36,7.36,0,0,1,2.63-.48A7.25,7.25,0,0,1,205,668h0a7.26,7.26,0,0,0-4.18-1.35A7.34,7.34,0,0,0,198.22,667.17Z"/><path class="cls-2" d="M1002.81,563.44h0l0,.09Z"/><path class="cls-2" d="M193.52,674a7.14,7.14,0,0,1,1.52-4.41,7.23,7.23,0,0,0-1.53,4.41,6.28,6.28,0,0,0,0,.75h0A6.27,6.27,0,0,1,193.52,674Z"/><path class="cls-2" d="M1004.09,565.94l-.27-.37,0,0Z"/><path class="cls-2" d="M679.15,396.5A10,10,0,0,1,685,393L658.25,185.6H658a6.24,6.24,0,0,1-5.28-3L496,260.59a5.66,5.66,0,0,1,.37,2,5.58,5.58,0,0,1-.75,2.78Z"/><path class="cls-2" d="M271.88,595.55l-.07.06Z"/><path class="cls-2" d="M273.07,593.14a4.15,4.15,0,0,1-.95,2.13,4.15,4.15,0,0,0,.95-2.13Z"/><path class="cls-2" d="M273,591.66c0,.1,0,.2.05.31h0a2.91,2.91,0,0,0,0-.31Z"/><path class="cls-2" d="M207.32,670.72h0a7.32,7.32,0,0,0-1.41-1.93h0A7.23,7.23,0,0,1,207.32,670.72Z"/><path class="cls-2" d="M940.24,507.46a8.14,8.14,0,0,1-9.31,2.09L869.28,630a6.81,6.81,0,0,1,2.07,2.07l49.42-25.43L1001,565.33A10.61,10.61,0,0,1,1002,555Z"/><path class="cls-2" d="M928.3,502.32h0a5.82,5.82,0,0,0,2.66,4.61h0A5.85,5.85,0,0,1,928.3,502.32Z"/><path class="cls-2" d="M926,502.21,661.79,489.43a9.14,9.14,0,0,1-1.27,3.73L860.64,631.38a6.62,6.62,0,0,1,5.14-2.4,6.5,6.5,0,0,1,2.46.49l38.2-74.63L929.89,509A8.2,8.2,0,0,1,926,502.21Z"/><path class="cls-2" d="M601.39,678.8a5.85,5.85,0,0,1,.72-.07h0A5.87,5.87,0,0,0,601.39,678.8Z"/><path class="cls-2" d="M664.3,179.38a6.15,6.15,0,0,1-1,3.34l91.56,71.48,49.62,38.74a10.09,10.09,0,0,1,5.89-3.29l-18-163.86h-.17a6.66,6.66,0,0,1-5.77-3.41L664,177.33A6.34,6.34,0,0,1,664.3,179.38Z"/><polygon class="cls-2" points="603.28 678.79 603.28 678.79 603.28 678.79 603.28 678.79 603.28 678.79"/><path class="cls-2" d="M796.23,124.43a6.46,6.46,0,0,1-2.71,1.24l18,163.86c.18,0,.37,0,.56,0A10.1,10.1,0,0,1,821,295l88.23-39.46a5.93,5.93,0,0,1-.28-1.79,5.65,5.65,0,0,1,1.44-3.74Z"/><path class="cls-2" d="M865.76,631.32a4.24,4.24,0,0,0-3.18,1.41h0a4.33,4.33,0,0,1,3.19-1.41,4.28,4.28,0,0,1,1.39.26h0A4.09,4.09,0,0,0,865.76,631.32Z"/><path class="cls-2" d="M551,449a6.25,6.25,0,0,1-.23,1.68l93.42,34a9.19,9.19,0,0,1,11.34-5.07l27.17-67.87a10,10,0,0,1-5-5.38L550.79,447.52A6.24,6.24,0,0,1,551,449Z"/><path class="cls-2" d="M1005.28,567.23,1005,567l.12.12Z"/><path class="cls-2" d="M994.58,178.07h0a7.69,7.69,0,0,0,3.51,1.79A7.61,7.61,0,0,1,994.58,178.07Z"/><path class="cls-2" d="M1006.42,568.08l.39.23.41.2.1,0a7.71,7.71,0,0,1-1.09-.6l.11.08Z"/><path class="cls-2" d="M1005.93,567.75h0c-.15-.1-.29-.21-.43-.32l0,0A3.79,3.79,0,0,0,1005.93,567.75Z"/><path class="cls-2" d="M440,528.06h0a4.26,4.26,0,0,1,.36.85h0A4.26,4.26,0,0,0,440,528.06Z"/><path class="cls-2" d="M1008.14,568.88l.11,0c.26.08.53.15.8.21l.12,0,.41.08c.2,0,.4,0,.61.06l.53,0a8.31,8.31,0,0,0,4.67-1.4,8.3,8.3,0,0,1-7.76.78l0,0Z"/><path class="cls-2" d="M869.26,633.16h0a4.4,4.4,0,0,0-1-1.06h0A4.4,4.4,0,0,1,869.26,633.16Z"/><path class="cls-2" d="M812,309.68a10.07,10.07,0,0,1-7.34-3.24L694.94,396.89a10,10,0,0,1,1.92,5.92,9.71,9.71,0,0,1-.52,3.11L893.41,485l33.37,13.4a8.28,8.28,0,0,1,2.64-3.11L911,464.81,816.76,308.52A10,10,0,0,1,812,309.68Z"/><path class="cls-2" d="M168.69,618h0a5.59,5.59,0,0,1-2.21.45,5.22,5.22,0,0,1-1.38-.19,5.22,5.22,0,0,0,1.38.19A5.64,5.64,0,0,0,168.69,618Z"/><path class="cls-2" d="M267.55,588.62a4.16,4.16,0,0,0-2.48,2.29A4.16,4.16,0,0,1,267.55,588.62Z"/><path class="cls-2" d="M166.52,607.38h0a5.53,5.53,0,0,0-5.24,3.68A5.55,5.55,0,0,1,166.52,607.38Z"/><path class="cls-2" d="M170.85,619.48l2.6,4.61,23.16,41.23a9.57,9.57,0,0,1,9.91.92L215,656.17l49.35-59a6.5,6.5,0,0,1-1.64-2.77L174.31,612a8.26,8.26,0,0,1,.06,1A7.87,7.87,0,0,1,170.85,619.48Z"/><path class="cls-2" d="M169.7,617.43h0a5.56,5.56,0,0,0,2-2.59A5.56,5.56,0,0,1,169.7,617.43Z"/><path class="cls-2" d="M195.59,665.89,181,639.83l-11.12-19.78a7.83,7.83,0,0,1-9.81-2.66L3.72,708.91l187.53-33.8a9.23,9.23,0,0,1-.08-1.18A9.64,9.64,0,0,1,195.59,665.89Z"/><path class="cls-2" d="M205,680a7.29,7.29,0,0,0,1.12-1h0A7.29,7.29,0,0,1,205,680Z"/><path class="cls-2" d="M195.2,678.64h0l.3.33Z"/><path class="cls-2" d="M1007.31,172.43a1.94,1.94,0,0,1,0,.24h0c0-.08,0-.16,0-.24a7.52,7.52,0,0,0-.53-2.82h0A7.77,7.77,0,0,1,1007.31,172.43Z"/><path class="cls-2" d="M193.76,675.85h0a7,7,0,0,0,.77,1.83h0A7.79,7.79,0,0,1,193.76,675.85Z"/><path class="cls-2" d="M522.86,133.36a5.31,5.31,0,0,1,2.35.59,5.15,5.15,0,0,0-4.41-.18A5.22,5.22,0,0,1,522.86,133.36Z"/><path class="cls-2" d="M649.48,48.25a8.44,8.44,0,0,1,4.61-7.47,8.41,8.41,0,0,0-3.48,11.71h0A8.47,8.47,0,0,1,649.48,48.25Z"/><path class="cls-2" d="M272.6,590.57h0a4.1,4.1,0,0,0-1.3-1.47A4.1,4.1,0,0,1,272.6,590.57Z"/><path class="cls-2" d="M666.38,48.34a8.24,8.24,0,0,1-.72,3.37h0a8.27,8.27,0,0,0,.66-4.37A8.26,8.26,0,0,1,666.38,48.34Z"/><path class="cls-2" d="M790.65,115.14h0a4.35,4.35,0,0,0-1.93,1.51h0A4.3,4.3,0,0,1,790.65,115.14Z"/><path class="cls-2" d="M792.23,114.83a4.68,4.68,0,0,1,1.14.18,4.25,4.25,0,0,0-1.14-.18c-.15,0-.3,0-.44,0h0A3.29,3.29,0,0,1,792.23,114.83Z"/><path class="cls-2" d="M208.1,674a7.29,7.29,0,0,1-1.28,4.09h0A7.27,7.27,0,0,0,208.1,674a7.1,7.1,0,0,0-.33-2.22h0A7.41,7.41,0,0,1,208.1,674Z"/><path class="cls-2" d="M1006.26,168.55h0a7.73,7.73,0,0,0-4.29-3.44A7.68,7.68,0,0,1,1006.26,168.55Z"/><path class="cls-2" d="M518.23,141.2a5.22,5.22,0,0,0,2.72,2.37h0A5.27,5.27,0,0,1,518.23,141.2Z"/><path class="cls-2" d="M328.43,591.77l65.93-.23a9.25,9.25,0,0,1,9.26-8.69,9.12,9.12,0,0,1,3.73.82l25.2-47.78a6.93,6.93,0,0,1-2.45-2.78L275.23,590.84a5.84,5.84,0,0,1,.21,1.12Z"/><path class="cls-2" d="M544.33,418.69,677,403.32c0-.21,0-.41,0-.62a9.87,9.87,0,0,1,1.54-5.24L494.91,266.34a5.66,5.66,0,0,1-2.06,1.48L537.11,414a6.36,6.36,0,0,1,1.24-.12A6.16,6.16,0,0,1,544.33,418.69Z"/><path class="cls-2" d="M431.78,530.19a4.43,4.43,0,0,1,4.44-4.4,4.38,4.38,0,0,1,2.52.82h0a4.4,4.4,0,0,0-7,3.58,4.72,4.72,0,0,0,.12,1h0A4.72,4.72,0,0,1,431.78,530.19Z"/><path class="cls-2" d="M1062.13,579.68a5.74,5.74,0,0,0,1.75,1.2A5.74,5.74,0,0,1,1062.13,579.68Z"/><path class="cls-2" d="M865.72,639.93l-.35,0h0c.12,0,.24,0,.36,0a4.27,4.27,0,0,0,2.67-.94h0A4.31,4.31,0,0,1,865.72,639.93Z"/><path class="cls-2" d="M869.21,638.16h0l.09-.11Z"/><path class="cls-2" d="M1067.72,581.09a5.75,5.75,0,0,0,1.31-.6h0A5.49,5.49,0,0,1,1067.72,581.09Z"/><polygon class="cls-2" points="1063.89 580.88 1063.89 580.88 1063.89 580.88 1063.89 580.88"/><path class="cls-2" d="M864.05,639.58l.17,0h0Z"/><path class="cls-2" d="M598.51,689.35h0Z"/><path class="cls-2" d="M598.66,689.46a5.65,5.65,0,0,0,1.15.71h0A5.65,5.65,0,0,1,598.66,689.46Z"/><path class="cls-2" d="M602.34,690.75a6,6,0,0,1-1.42-.18h0a5.92,5.92,0,0,0,1.41.18,6,6,0,0,0,5.17-2.88h0A6,6,0,0,1,602.34,690.75Z"/><path class="cls-2" d="M1070,579.77h0a5.68,5.68,0,0,0,1.13-1.53h0A5.44,5.44,0,0,1,1070,579.77Z"/><path class="cls-2" d="M409.37,595.83l.18-.31h0Z"/><path class="cls-2" d="M679.49,404.54h0c0-.11-.06-.22-.08-.33h0C679.44,404.32,679.47,404.43,679.49,404.54Z"/><path class="cls-2" d="M1000,259.73a8.33,8.33,0,0,1-1.12-.11h0a5.8,5.8,0,0,0,1.11.11,6.68,6.68,0,0,0,2.06-.32A6.66,6.66,0,0,1,1000,259.73Z"/><path class="cls-2" d="M939.86,500.82h0a6,6,0,0,0-.49-1.41h0A6.26,6.26,0,0,1,939.86,500.82Z"/><path class="cls-2" d="M397.42,595.21h0a6.85,6.85,0,0,0,3.43,3.22A6.89,6.89,0,0,1,397.42,595.21Z"/><path class="cls-2" d="M1007,174.7a8.33,8.33,0,0,0,.22-.86h0A8.33,8.33,0,0,1,1007,174.7Z"/><path class="cls-2" d="M1066.12,570.18a6,6,0,0,1,1.65.26,5.65,5.65,0,0,0-1.66-.26,5.5,5.5,0,0,0-2.49.59A5.51,5.51,0,0,1,1066.12,570.18Z"/><path class="cls-2" d="M940,502.65a.5.5,0,0,0,0,.12A.5.5,0,0,1,940,502.65Z"/><path class="cls-2" d="M1071.48,577.14h0a4.86,4.86,0,0,0,.16-.94A5.77,5.77,0,0,1,1071.48,577.14Z"/><path class="cls-2" d="M1010.81,552.65a8.33,8.33,0,0,1,7.5,4.81h0a8.31,8.31,0,0,0-7.5-4.81,8.43,8.43,0,0,0-1,.06A8.43,8.43,0,0,1,1010.81,552.65Z"/><path class="cls-2" d="M940,502.05a4.53,4.53,0,0,1,0,.52,4.53,4.53,0,0,0,0-.52V502h0Z"/><path class="cls-2" d="M938.74,498.42h0a5.82,5.82,0,0,0-2.55-1.87h0A5.82,5.82,0,0,1,938.74,498.42Z"/><path class="cls-2" d="M442.74,528.51l164.11-27.76c0-.13,0-.27,0-.4a5.71,5.71,0,0,1,.83-2.92l-58.41-44a6.6,6.6,0,0,1-9.85,0l-5.69,4.28-91.78,68.93A6.79,6.79,0,0,1,442.74,528.51Z"/><path class="cls-2" d="M609.18,500.35a3.25,3.25,0,0,1,.37-1.49h0a3.39,3.39,0,0,0-.38,1.49Z"/><path class="cls-2" d="M540.78,446.58h0Z"/><path class="cls-2" d="M436.18,534.63a4.37,4.37,0,0,0,2.78-1,4.37,4.37,0,0,1-2.78,1,4.17,4.17,0,0,1-1.5-.29h0A4.17,4.17,0,0,0,436.18,534.63Z"/><path class="cls-2" d="M654.74,177.22a3.92,3.92,0,0,1,2.71-1.74h0A3.92,3.92,0,0,0,654.74,177.22Z"/><path class="cls-2" d="M540.87,446.46a4.59,4.59,0,0,1,1.07-1A4.59,4.59,0,0,0,540.87,446.46Z"/><path class="cls-2" d="M492.86,260.09a3.17,3.17,0,0,1,.47.5h0A3.17,3.17,0,0,0,492.86,260.09Z"/><path class="cls-2" d="M540.7,422.92a3.63,3.63,0,0,1-1.05.6h0A4,4,0,0,0,540.7,422.92Z"/><path class="cls-2" d="M544.46,420a6.14,6.14,0,0,1-4.33,5.84l3.43,16.57a7.16,7.16,0,0,1,.8-.05,6.63,6.63,0,0,1,6.07,4l126.84-41.14q-.1-.37-.18-.78L544.46,419.85Z"/><path class="cls-2" d="M991,253.66l-70.75.6a5.65,5.65,0,0,1-4.6,5L933.85,491l.23,2.81h.09a8,8,0,0,1,1.48.15l11.26-42.54,50.24-189.85A9.08,9.08,0,0,1,991,253.66Z"/><path class="cls-2" d="M546.16,452.87a4.3,4.3,0,0,1-1.85.43,4.46,4.46,0,0,1-1.47-.28,4.21,4.21,0,0,0,1.46.28A4.31,4.31,0,0,0,546.16,452.87Z"/><path class="cls-2" d="M407.29,586.29l.07,0-.07,0Z"/><path class="cls-2" d="M660,56.47a8.51,8.51,0,0,0,5.07-3.73h0A8.51,8.51,0,0,1,660,56.47Z"/><path class="cls-2" d="M993.33,252.47h0a6.7,6.7,0,0,1,2.65-4.82A6.7,6.7,0,0,0,993.33,252.47Z"/><path class="cls-2" d="M992.89,179.69l-13,12.41-60.82,58.16a5.57,5.57,0,0,1,1.16,2.83l70.74-.6a9.07,9.07,0,0,1,8.42-8.52l-.28-61.63A10,10,0,0,1,992.89,179.69Z"/><path class="cls-2" d="M992.16,171.07a7.83,7.83,0,0,0-.13,1.29,7.61,7.61,0,0,0,1.73,4.88h0a7.56,7.56,0,0,1-1.73-4.87,7.83,7.83,0,0,1,.12-1.29Z"/><path class="cls-2" d="M935.32,507.74a5.43,5.43,0,0,1-1.22.13,5.86,5.86,0,0,1-2.1-.41h0a5.65,5.65,0,0,0,2.1.41A5.43,5.43,0,0,0,935.32,507.74Z"/><path class="cls-2" d="M909.73,256.55,821.49,296a9.9,9.9,0,0,1,.66,3.62,10.11,10.11,0,0,1-4.39,8.27L930.42,494.73a7.9,7.9,0,0,1,2.49-.8L914.48,259.37A5.65,5.65,0,0,1,909.73,256.55Z"/><path class="cls-2" d="M604.42,679.08a6.06,6.06,0,0,1,1.47.77,6.06,6.06,0,0,0-1.47-.77Z"/><path class="cls-2" d="M667.18,53.83a10.81,10.81,0,0,1-8.65,5.22v4.77l.08,109.29a6.3,6.3,0,0,1,4.87,3.16l122.46-55a6.45,6.45,0,0,1-.38-2.21,6.7,6.7,0,0,1,.52-2.54Z"/><path class="cls-2" d="M788,118.25a5.44,5.44,0,0,1,.19-.57h0C788.11,117.87,788,118.05,788,118.25Z"/><path class="cls-2" d="M397,594.12a6.62,6.62,0,0,1-.28-1.42h0a6.83,6.83,0,0,0,.28,1.43Z"/><path class="cls-2" d="M657.93,492.79l-.08.1.08-.1Z"/><path class="cls-2" d="M798.48,121.36a6.84,6.84,0,0,1-1.38,2.29L911.28,249.17a5.64,5.64,0,0,1,7,.25l73.79-70.58a9.94,9.94,0,0,1-2.39-6.5,10.27,10.27,0,0,1,.19-1.85Z"/><path class="cls-2" d="M861.44,635.6a4.39,4.39,0,0,1,.48-1.91h0a4.39,4.39,0,0,0-.48,1.91c0,.08,0,.15,0,.23h0A1.81,1.81,0,0,1,861.44,635.6Z"/><path class="cls-2" d="M529.47,134.91a7.58,7.58,0,0,1,1,3.78,7.66,7.66,0,0,1-.17,1.59l71.38,21.49L652.23,177a6.28,6.28,0,0,1,5.21-3.88l-.08-114.06a10.78,10.78,0,0,1-8-4.29l-86.47,57.83Z"/><path class="cls-2" d="M526.68,142.24A5.18,5.18,0,0,1,524,143.8,5.18,5.18,0,0,0,526.68,142.24Z"/><path class="cls-2" d="M522.08,143.85h0l.11,0Z"/><path class="cls-2" d="M654.74,56.11a8.45,8.45,0,0,1-3.48-2.65h0A8.36,8.36,0,0,0,654.74,56.11Z"/><path class="cls-2" d="M523.73,143.84h0Z"/><path class="cls-2" d="M538.34,416.17a4.93,4.93,0,0,0-.54.05h0a4.71,4.71,0,0,1,.54-.05,3.8,3.8,0,0,1,3.14,1.69A3.8,3.8,0,0,0,538.34,416.17Z"/><path class="cls-2" d="M495.45,259.54,652.19,181.6a6.41,6.41,0,0,1-.42-2.28,6.06,6.06,0,0,1,.13-1.21L568.39,153,529.93,141.4a7.62,7.62,0,0,1-7.14,4.87,7,7,0,0,1-1.3-.13L492.64,257.26A5.69,5.69,0,0,1,495.45,259.54Z"/><path class="cls-2" d="M997.75,259.33h0a6.71,6.71,0,0,1-4.41-5.68h0A6.75,6.75,0,0,0,997.75,259.33Z"/><path class="cls-2" d="M538.51,423.76h0l-.21,0a3.86,3.86,0,0,1-2.1-.65h0a3.78,3.78,0,0,0,2.1.65Z"/><path class="cls-2" d="M441.23,525.71l6.76-5.08L538.7,452.5a6.62,6.62,0,0,1,3.72-9.86L539,426.08a5.37,5.37,0,0,1-.7,0,6.1,6.1,0,0,1-3.69-1.27L441.2,525.68Z"/><path class="cls-2" d="M410.05,594.46a6.92,6.92,0,0,0,.42-2.33,6.71,6.71,0,0,0-.61-2.86,6.86,6.86,0,0,1,.61,2.86,6.69,6.69,0,0,1-.43,2.33Z"/><path class="cls-2" d="M1060.51,575.73a7.71,7.71,0,0,1,.08-.84h0a4.69,4.69,0,0,0-.08.84,6,6,0,0,0,.1,1h0A6,6,0,0,1,1060.51,575.73Z"/><path class="cls-2" d="M397.23,589.38a.36.36,0,0,0,0,.11A.36.36,0,0,1,397.23,589.38Z"/><path class="cls-2" d="M1010.71,571.65a10.65,10.65,0,0,1-9.13-5.28L907,615.07l-35.07,18,0,0,186.45-55.71a8.28,8.28,0,0,1-.19-1.74,7.46,7.46,0,0,1,.15-1.43l-3.42-.92-34-9.08A10.7,10.7,0,0,1,1010.71,571.65Z"/><path class="cls-2" d="M595.06,680.68a8.9,8.9,0,0,1,.81-1.19L452.27,546l-11.54-10.73a6.75,6.75,0,0,1-4.57,1.75,6.58,6.58,0,0,1-2.58-.53l-25.2,47.78a9.23,9.23,0,0,1,4.43,7.92,9.11,9.11,0,0,1-.64,3.31Z"/><path class="cls-2" d="M397.28,589.26a6.88,6.88,0,0,1,9-3.52h0a6.73,6.73,0,0,0-2.66-.55A6.91,6.91,0,0,0,397.28,589.26Z"/><path class="cls-2" d="M859.1,635.59a6.7,6.7,0,0,1,.87-3.24l-56.6-39.1L659.86,494.12a9.23,9.23,0,0,1-7.3,3.52,8.37,8.37,0,0,1-1.67-.17L605,676.8a8.38,8.38,0,0,1,5.45,5.83l248.68-46.37C859.11,636,859.1,635.82,859.1,635.59Z"/><path class="cls-2" d="M396.7,591.53a1.09,1.09,0,0,0,0-.18,1.09,1.09,0,0,1,0,.18Z"/><path class="cls-3" d="M1014,164.79l-5.67,2.74a10,10,0,0,0-8.12-5.08L1000.07,0H998.9l.18,162.45a10,10,0,0,0-8.91,6.9l-191.4-49.13a7.06,7.06,0,0,0,.09-1,6.63,6.63,0,0,0-2.56-5.27L870.09,0H868.7L795.32,113.27a6.64,6.64,0,0,0-3.08-.78,6.77,6.77,0,0,0-1,.08L764.12,0h-1.2l18.7,77.68,8.47,35.17a6.66,6.66,0,0,0-3.46,2.69L741.74,91.85l-74-39a10.75,10.75,0,0,0-5.59-14.44L675.94,0H674.7L661,38a10.77,10.77,0,0,0-13.89,10.27,10.79,10.79,0,0,0,1.52,5.55L528.82,133.94a7.62,7.62,0,1,0-8.46,11.91L491.51,257a5.68,5.68,0,1,0-.89,11.29,5.8,5.8,0,0,0,1.11-.1L536,414.29a6.13,6.13,0,0,0-2.25,9.76l-93.4,100.83a6.75,6.75,0,0,0-10.9,5.3,6.85,6.85,0,0,0,.25,1.83L274.82,589.74a6.54,6.54,0,0,0-12.43,2.79c0,.25,0,.49,0,.73l-88.35,17.56a7.87,7.87,0,0,0-15.46,2.06,7.77,7.77,0,0,0,.81,3.5L.29,709.57a.59.59,0,0,0,.29,1.09H.69l190.77-34.39a9.51,9.51,0,0,0,1.16,2.76l-55.48,39h2l54.12-38a9.58,9.58,0,0,0,3.52,2.75L183.24,718h1.25l2.33-6,11.08-28.8a9.35,9.35,0,0,0,2.86.45,9.57,9.57,0,0,0,7.13-3.13L254.13,718H256l-47.35-38.42a9.54,9.54,0,0,0,1.81-5.55,9.33,9.33,0,0,0-.51-3.1l93.48-37.76,91.84-37.08a9.23,9.23,0,0,0,6.11,5l-1.75,9.68L380.25,718h1.19l21.07-116.73a8.43,8.43,0,0,0,1,.06,9.24,9.24,0,0,0,8.16-4.81l182.89,85.22a8.5,8.5,0,0,0-.56,3,8.23,8.23,0,0,0,.68,3.33l-58.23,30H539l56.21-28.94a8.37,8.37,0,0,0,3.8,3.33L589.93,718h1.24l9-25.22a8.31,8.31,0,0,0,9.47-3.89l60,29.11h2.68l-24.33-11.81-37.82-18.35a8.23,8.23,0,0,0,.6-3.07,8,8,0,0,0-.06-1l248.69-46.37a6.79,6.79,0,0,0,1.63,2.84L793.91,718h1.55l66.41-77a6.39,6.39,0,0,0,1.82.93L846.21,718h1.2l17.42-75.8a6.4,6.4,0,0,0,.88.07,6.64,6.64,0,0,0,4.38-1.64L950.24,718h1.68l-81-78.21a6.56,6.56,0,0,0,1.47-4.13,6.85,6.85,0,0,0-.13-1.37l46.64-13.94,139.81-41.77a8,8,0,0,0,4.5,4.54L1021.56,718h1.23l41.53-134.53a8.27,8.27,0,0,0,1.73.2,7.9,7.9,0,0,0,4.42-1.32l5.51,7.09v-1.9l-4.59-5.92a7.83,7.83,0,0,0,1.88-2.56l2.71,1v-1.25l-2.3-.86a7.73,7.73,0,0,0,.32-2.16,7.87,7.87,0,0,0-.78-3.46l2.76-1.59V569.4l-3.34,1.92a7.9,7.9,0,0,0-14,1.84L1029,565.24l-7.77-2.08a10.77,10.77,0,0,0-.29-5.44L1076,536.63v-1.25l-55.49,21.25a10.63,10.63,0,0,0-17.8-2.6L941,506.53a8.07,8.07,0,0,0,1.36-4.47c0-.11,0-.22,0-.33L1076,487.4v-1.17L942.19,500.57a8.49,8.49,0,0,0-.83-2.41L976,476.34l100-62.91V412L966.56,480.91l-25.84,16.27a8.11,8.11,0,0,0-3.93-2.9l61.49-232.39a8.68,8.68,0,0,0,1.7.18,9.09,9.09,0,0,0,8.15-5L1076,285.72v-1.27l-44.4-18.76-23-9.71a9,9,0,0,0,.44-1.86l67,3.95v-1.18L1009.09,253a9,9,0,0,0-1-4.13L1076,207.63v-1.37l-64.46,39.09-4.07,2.47a9,9,0,0,0-6.87-3.85l-.28-61.63a10,10,0,0,0,9.2-8.24l13.9,1.58,52.58,6v-1.18l-66.35-7.53c0-.17,0-.33,0-.49a9.79,9.79,0,0,0-.76-3.87L1076,136.11v-1.3ZM193.51,674a7.23,7.23,0,0,1,1.53-4.41,7.14,7.14,0,0,0-1.52,4.41,6.27,6.27,0,0,0,0,.75h0A6.28,6.28,0,0,1,193.51,674Zm79.56-80.81h0a4.15,4.15,0,0,1-.95,2.13A4.15,4.15,0,0,0,273.07,593.14Zm-1.19,2.41-.07.06Zm1.19-3.58c0-.11,0-.21-.05-.31h0a2.91,2.91,0,0,1,0,.31Zm-65.74,78.75h0a7.23,7.23,0,0,0-1.4-1.93h0A7.32,7.32,0,0,1,207.33,670.72ZM205,668a7.25,7.25,0,0,0-4.17-1.35,7.36,7.36,0,0,0-2.63.48,7.34,7.34,0,0,1,2.62-.48A7.26,7.26,0,0,1,205,668Zm4.47,1.8a9.7,9.7,0,0,0-2.07-2.84l57.78-69.07a6.45,6.45,0,0,0,3.69,1.17,6.55,6.55,0,0,0,6.55-6l60.8-.22,58.12-.2a9.12,9.12,0,0,0,.45,2.29L231.53,660.94ZM432.32,532.28h0a4.32,4.32,0,0,0,1.33,1.52h0A4.43,4.43,0,0,1,432.32,532.28Zm247-129.56a7.81,7.81,0,0,1,.17-1.54,7.12,7.12,0,0,0-.16,1.54c0,.11,0,.22,0,.33h0C679.28,402.94,679.27,402.83,679.27,402.72ZM1002.54,562.2l-.06-.37v0C1002.49,561.93,1002.52,562.06,1002.54,562.2Zm.27,1.24,0,.09,0-.09Zm.28.77h0l0,.06h0Zm1,1.73-.24-.32,0,0Zm6.64,3.37a8.38,8.38,0,0,0,4.66-1.4,8.31,8.31,0,0,1-4.67,1.4l-.53,0c-.21,0-.41,0-.61-.06l-.41-.08-.12,0c-.27-.06-.54-.13-.8-.21l-.11,0-.46-.17,0,0A8.4,8.4,0,0,0,1010.73,569.31Zm-3.41-.76-.1,0-.41-.2-.39-.23-.08-.05-.11-.08A7.71,7.71,0,0,0,1007.32,568.55Zm-1.38-.8h0a3.79,3.79,0,0,1-.4-.3l0,0C1005.65,567.54,1005.79,567.65,1005.94,567.75Zm-.66-.52-.13-.11L1005,567Zm-4.24-1.9-80.27,41.32-49.42,25.43a6.81,6.81,0,0,0-2.07-2.07l61.65-120.46a8.14,8.14,0,0,0,9.31-2.09L1002,555a10.61,10.61,0,0,0-.93,10.38ZM869.26,633.16h0a4.4,4.4,0,0,0-1-1.06h0A4.4,4.4,0,0,1,869.26,633.16ZM440,528.06h0a4.26,4.26,0,0,1,.36.85h0A4.26,4.26,0,0,0,440,528.06Zm554.54-350a7.61,7.61,0,0,0,3.51,1.8,7.69,7.69,0,0,1-3.51-1.79ZM865.77,631.32a4.33,4.33,0,0,0-3.19,1.41h0a4.24,4.24,0,0,1,3.18-1.41,4.09,4.09,0,0,1,1.4.26h0A4.28,4.28,0,0,0,865.77,631.32Zm2.47-1.85a6.5,6.5,0,0,0-2.46-.49,6.62,6.62,0,0,0-5.14,2.4L660.52,493.16a9.14,9.14,0,0,0,1.27-3.73L926,502.21a8.2,8.2,0,0,0,3.94,6.8l-23.45,45.83ZM928.3,502.32h0a5.85,5.85,0,0,0,2.66,4.61h0A5.82,5.82,0,0,1,928.3,502.32ZM601.39,678.8a5.87,5.87,0,0,1,.72-.08h0A5.85,5.85,0,0,0,601.39,678.8Zm1.89,0Zm188.9-553h.17l18,163.86a10.09,10.09,0,0,0-5.89,3.29L754.87,254.2l-91.56-71.48a6.15,6.15,0,0,0,1-3.34,6.34,6.34,0,0,0-.34-2l122.45-54.94A6.66,6.66,0,0,0,792.18,125.8ZM909.25,255.49,821,295a10.1,10.1,0,0,0-8.91-5.45c-.19,0-.38,0-.56,0l-18-163.86a6.46,6.46,0,0,0,2.71-1.24L910.41,250A5.65,5.65,0,0,0,909,253.7,5.93,5.93,0,0,0,909.25,255.49ZM682.66,411.76l-27.17,67.87a9.19,9.19,0,0,0-11.34,5.07l-93.42-34a6.49,6.49,0,0,0,.06-3.19l126.84-41.14A10,10,0,0,0,682.66,411.76Zm11.86-9c0-.16,0-.31,0-.46,0,.15,0,.3,0,.46Zm-7.66,7.59a7.58,7.58,0,0,0,5.16-2,7.59,7.59,0,0,1-7.4,1.64h0A7.89,7.89,0,0,0,686.86,410.38Zm5.41-2.22h0Zm-37.65,73.65a6.78,6.78,0,0,0-2-.31,6.86,6.86,0,0,0-5.38,2.56,6.86,6.86,0,0,1,5.38-2.56,6.78,6.78,0,0,1,2,.3Zm1.09.43h0a6.9,6.9,0,0,1,3.79,5.91h0A6.92,6.92,0,0,0,655.71,482.24Zm270.62,17.28A9.55,9.55,0,0,0,926,501L661.84,488.26a9.24,9.24,0,0,0-5.26-8.19l27.17-67.87A9.91,9.91,0,0,0,695.9,407l222.76,89.44ZM694.49,402a7.57,7.57,0,0,0-1.36-3.63h0A7.6,7.6,0,0,1,694.49,402ZM805.61,295.3h0a7.68,7.68,0,0,0-1.31,4.25,7.8,7.8,0,0,0,.92,3.7,7.73,7.73,0,0,1,.38-7.95ZM661.48,181.23l0,.05h0l.13-.24A1.21,1.21,0,0,1,661.48,181.23Zm.21-.48c0-.15.1-.3.14-.45a1.89,1.89,0,0,1-.05.23A2,2,0,0,1,661.69,180.75Zm-1.23,1.66a4,4,0,0,1-1.35.7h0A4,4,0,0,0,660.46,182.41ZM811.8,291.86h.3a7.42,7.42,0,0,1,1.78.23,8,8,0,0,0-1.78-.23Zm-1.16.12a7.7,7.7,0,0,0-4.3,2.4h0a7.7,7.7,0,0,1,4.3-2.4Zm-5,11.91-.27-.46ZM793.26,123.32h0a4.24,4.24,0,0,0,1.39-.61h0A4.48,4.48,0,0,1,793.26,123.32Zm-1.16.13a4.26,4.26,0,0,1-3-1.27,4.32,4.32,0,0,0,3,1.27ZM662,179.37c0,.13,0,.27,0,.4s0,.17-.05.25a3.5,3.5,0,0,0,.07-.65,4.19,4.19,0,0,0-.16-1.07h0A3.79,3.79,0,0,1,662,179.37Zm-2.55,6.08a6.24,6.24,0,0,0,3.17-1.81L803.77,293.86a10,10,0,0,0,.16,11.68L694.19,396a10,10,0,0,0-7.24-3.2c-.25,0-.5,0-.74,0l-19-147Zm27.53,209.68a7.57,7.57,0,0,1,5.45,2.34h0a7.61,7.61,0,0,0-5.45-2.34l-.43,0h0Zm-3.41,14.46h0a7.63,7.63,0,0,1-3.68-3.93h0A7.71,7.71,0,0,0,683.53,409.59Zm-133.2,42.22,93.42,34a9.43,9.43,0,0,0-.38,2.56,9.25,9.25,0,0,0,.25,2.12l-25.81,7.71a5.69,5.69,0,0,0-9.44-1.69L550,452.5A5.76,5.76,0,0,0,550.33,451.81ZM612.56,497a3.26,3.26,0,0,1,1.72.5,3.36,3.36,0,0,0-1.72-.5,3.41,3.41,0,0,0-2.31.91h0A3.41,3.41,0,0,1,612.56,497Zm-1.35,6.46a3.4,3.4,0,0,1-1.83-2h0A3.4,3.4,0,0,0,611.21,503.47Zm318.21-8.14a8.28,8.28,0,0,0-2.64,3.11L893.41,485,696.34,405.92a9.71,9.71,0,0,0,.52-3.11,10,10,0,0,0-1.92-5.92l109.73-90.45a10.07,10.07,0,0,0,12.09,2.08L911,464.81Zm-385-50.62a4.19,4.19,0,0,1,2.13.64A4.19,4.19,0,0,0,544.44,444.71ZM440.62,530.23a4.29,4.29,0,0,1-.31,1.56,4.25,4.25,0,0,0,.31-1.56c0-.06,0-.11,0-.17h0C440.61,530.12,440.62,530.17,440.62,530.23Zm2.32-.56L607.05,501.9a5.71,5.71,0,0,0,4.59,4.1l-2.45,44.55-7,125.83a8.31,8.31,0,0,0-5.57,2.25L441.52,534.36a6.72,6.72,0,0,0,1.44-4.11C443,530.05,443,529.86,442.94,529.67ZM603.87,676.51l-.46-.07,9.4-170.37a5.7,5.7,0,0,0,5.43-5.66,5.77,5.77,0,0,0-.1-1.1L644,491.6a9.29,9.29,0,0,0,5.81,5.59l-4.11,16ZM658.6,491.83a7,7,0,0,0,.84-2.51h0a7.17,7.17,0,0,1-.85,2.51ZM795.51,121.9a4.64,4.64,0,0,0,.67-1.06,4.64,4.64,0,0,1-.67,1.06ZM661.33,177.23a4,4,0,0,0-2.71-1.75h0a3.93,3.93,0,0,1,2.71,1.75ZM493.85,261.64h0a3.44,3.44,0,0,1,.15,1,3.32,3.32,0,0,1-.33,1.41h0a3.32,3.32,0,0,0,.33-1.41A3.38,3.38,0,0,0,493.85,261.64Zm2.12-1.05,156.75-77.94a6.24,6.24,0,0,0,5.28,3h.25L685,393a10,10,0,0,0-5.89,3.53L495.59,265.39a5.58,5.58,0,0,0,.75-2.78A5.66,5.66,0,0,0,496,260.59Zm183.53,144h0c0-.11,0-.22-.08-.33h0C679.44,404.32,679.47,404.43,679.5,404.54Zm-2.23.72L550.43,446.4a6.63,6.63,0,0,0-6.07-4,7.16,7.16,0,0,0-.8.05l-3.43-16.57a6.14,6.14,0,0,0,4.33-5.84v-.15l132.63-15.37Q677.17,404.89,677.27,405.26ZM540.7,422.92a4,4,0,0,1-1,.61h0A3.63,3.63,0,0,0,540.7,422.92Zm3.61,30.38a4.3,4.3,0,0,0,1.85-.43,4.31,4.31,0,0,1-1.86.43,4.21,4.21,0,0,1-1.46-.28A4.46,4.46,0,0,0,544.31,453.3Zm65.24,45.56a3.25,3.25,0,0,0-.37,1.49h0a3.39,3.39,0,0,1,.38-1.49ZM436.18,534.63a4.37,4.37,0,0,0,2.78-1,4.37,4.37,0,0,1-2.78,1,4.17,4.17,0,0,1-1.5-.29h0A4.17,4.17,0,0,0,436.18,534.63ZM604.42,679.08h0a6.06,6.06,0,0,1,1.47.77A6.06,6.06,0,0,0,604.42,679.08Zm53.51-186.29h0l-.08.1ZM932,507.46a5.86,5.86,0,0,0,2.1.41,5.43,5.43,0,0,0,1.22-.13,5.43,5.43,0,0,1-1.22.13,5.65,5.65,0,0,1-2.1-.41Zm-1.58-12.73L817.76,307.91a10.11,10.11,0,0,0,4.39-8.27,9.9,9.9,0,0,0-.66-3.62l88.24-39.47a5.65,5.65,0,0,0,4.75,2.82l18.43,234.56A7.9,7.9,0,0,0,930.42,494.73Zm62.91-242.26h0a6.7,6.7,0,0,1,2.65-4.82A6.7,6.7,0,0,0,993.33,252.47Zm-2.34,0-70.74.6a5.57,5.57,0,0,0-1.16-2.83l60.82-58.16,13-12.41a10,10,0,0,0,6.24,2.65l.28,61.63A9.07,9.07,0,0,0,991,252.49Zm2.78-75.26h0a7.61,7.61,0,0,1-1.73-4.88,7.83,7.83,0,0,1,.13-1.29h0a7.83,7.83,0,0,0-.12,1.29A7.56,7.56,0,0,0,993.77,177.23Zm-1.69,1.61-73.79,70.58a5.64,5.64,0,0,0-7-.25L797.1,123.65a6.84,6.84,0,0,0,1.38-2.29l191.4,49.13a10.27,10.27,0,0,0-.19,1.85A9.94,9.94,0,0,0,992.08,178.84ZM788,118.25c0-.2.12-.38.18-.57h0A5.44,5.44,0,0,0,788,118.25Zm-2,3.07-122.46,55a6.3,6.3,0,0,0-4.87-3.16l-.08-109.29V59.05a10.81,10.81,0,0,0,8.65-5.22l118.9,62.74a6.7,6.7,0,0,0-.52,2.54A6.45,6.45,0,0,0,785.94,121.32ZM660,56.47a8.51,8.51,0,0,0,5.07-3.73h0A8.51,8.51,0,0,1,660,56.47Zm-2.59,119a3.92,3.92,0,0,0-2.71,1.74,3.92,3.92,0,0,1,2.71-1.74ZM493.33,260.59a3.17,3.17,0,0,0-.47-.5,3.17,3.17,0,0,1,.47.5Zm47.54,185.87a4.59,4.59,0,0,1,1.07-1A4.59,4.59,0,0,0,540.87,446.46Zm-.1.12h0Zm-1.37,6.85a6.6,6.6,0,0,0,9.85,0l58.41,44a5.71,5.71,0,0,0-.83,2.92c0,.13,0,.27,0,.4L442.74,528.51a6.79,6.79,0,0,0-.81-1.87l91.78-68.93ZM407.29,586.29h0l.07,0ZM396.7,592.7a6.62,6.62,0,0,0,.28,1.42h0a6.83,6.83,0,0,1-.28-1.43Zm13.16-3.43a6.71,6.71,0,0,1,.61,2.86,6.92,6.92,0,0,1-.42,2.33h0a6.69,6.69,0,0,0,.43-2.33A6.86,6.86,0,0,0,409.86,589.27Zm-1.48-5,25.2-47.78a6.58,6.58,0,0,0,2.58.53,6.75,6.75,0,0,0,4.57-1.75L452.27,546l143.6,133.54a8.9,8.9,0,0,0-.81,1.19L412.17,595.45a9.11,9.11,0,0,0,.64-3.31A9.23,9.23,0,0,0,408.38,584.22ZM605,676.8l45.89-179.33a8.37,8.37,0,0,0,1.67.17,9.23,9.23,0,0,0,7.3-3.52l143.51,99.13,56.6,39.1a6.7,6.7,0,0,0-.87,3.24c0,.23,0,.45,0,.67L610.45,682.63A8.38,8.38,0,0,0,605,676.8Zm256.44-41.2a4.39,4.39,0,0,1,.48-1.91h0a4.39,4.39,0,0,0-.48,1.91,1.81,1.81,0,0,0,0,.23h0C861.46,635.75,861.44,635.68,861.44,635.6Zm131.9-382a6.71,6.71,0,0,0,4.41,5.68h0a6.75,6.75,0,0,1-4.42-5.69ZM651.26,53.46a8.45,8.45,0,0,0,3.48,2.65,8.36,8.36,0,0,1-3.48-2.65Zm6.1,5.59.08,114.06a6.28,6.28,0,0,0-5.21,3.88l-50.57-15.22-71.38-21.49a7.66,7.66,0,0,0,.17-1.59,7.58,7.58,0,0,0-1-3.78l33.38-22.32,86.47-57.83A10.78,10.78,0,0,0,657.36,59.05ZM526.68,142.24A5.18,5.18,0,0,1,524,143.8,5.18,5.18,0,0,0,526.68,142.24Zm-2.81,1.59h0Zm-1.79,0,.11,0-.11,0Zm.71,2.42a7.62,7.62,0,0,0,7.14-4.87L568.39,153l83.51,25.14a6.06,6.06,0,0,0-.13,1.21,6.41,6.41,0,0,0,.42,2.28L495.45,259.54a5.69,5.69,0,0,0-2.81-2.28l28.85-111.12A7,7,0,0,0,522.79,146.27Zm15.55,269.9a4.71,4.71,0,0,0-.54.05h0a4.93,4.93,0,0,1,.54-.05,3.8,3.8,0,0,1,3.14,1.69A3.8,3.8,0,0,0,538.34,416.17Zm-2.14,7a3.86,3.86,0,0,0,2.1.65l.21,0h0l-.21,0a3.78,3.78,0,0,1-2.1-.65Zm2.09,3a5.37,5.37,0,0,0,.7,0l3.43,16.56a6.62,6.62,0,0,0-3.72,9.86L448,520.63l-6.76,5.08,0,0,93.4-100.83A6.1,6.1,0,0,0,538.29,426.12Zm-132,159.62a6.88,6.88,0,0,0-9,3.52,6.91,6.91,0,0,1,6.32-4.07,6.73,6.73,0,0,1,2.66.55Zm-9.56,5.79h0a1.09,1.09,0,0,0,0-.18A1.09,1.09,0,0,1,396.7,591.53Zm.49-2a.36.36,0,0,1,0-.11A.36.36,0,0,0,397.19,589.49Zm663.32-13.76a4.69,4.69,0,0,1,.08-.84h0a7.71,7.71,0,0,0-.08.84,6,6,0,0,0,.1,1h0A6,6,0,0,1,1060.51,575.73Zm-2.19-1.44a7.46,7.46,0,0,0-.15,1.43,8.28,8.28,0,0,0,.19,1.74L871.91,633.17l0,0,35.07-18,94.62-48.7a10.65,10.65,0,0,0,19.32-2.08l34,9.08ZM935.65,494a8,8,0,0,0-1.48-.15h-.09l-.23-2.81-18.2-231.73a5.65,5.65,0,0,0,4.6-5l70.75-.6a9.08,9.08,0,0,0,6.15,7.93L946.91,451.44Zm70.62-325.43h0a7.68,7.68,0,0,0-4.28-3.44A7.73,7.73,0,0,1,1006.27,168.55Zm-214-53.72a4.25,4.25,0,0,1,1.14.18,4.68,4.68,0,0,0-1.14-.18,3.29,3.29,0,0,0-.44,0h0C791.93,114.86,792.08,114.83,792.23,114.83Zm-1.59.3h0a4.3,4.3,0,0,0-1.94,1.5h0A4.35,4.35,0,0,1,790.64,115.13Zm-125-63.42h0a8.27,8.27,0,0,0,.66-4.37,8.27,8.27,0,0,1-.66,4.37Zm-16.18-3.46a8.42,8.42,0,0,1,4.61-7.47,8.41,8.41,0,0,0-3.48,11.71h0A8.45,8.45,0,0,1,649.48,48.25ZM525.21,134a5.31,5.31,0,0,0-2.35-.59,5.22,5.22,0,0,0-2.06.41,5.15,5.15,0,0,1,4.41.18Zm-7,7.25a5.27,5.27,0,0,0,2.72,2.37h0A5.22,5.22,0,0,1,518.23,141.2ZM492.85,267.82a5.66,5.66,0,0,0,2.06-1.48L678.47,397.46a9.87,9.87,0,0,0-1.54,5.24c0,.21,0,.41,0,.62L544.33,418.69a6.16,6.16,0,0,0-6-4.86,6.36,6.36,0,0,0-1.24.12ZM431.78,530.19a4.4,4.4,0,0,1,7-3.58h0a4.38,4.38,0,0,0-2.52-.82,4.43,4.43,0,0,0-4.44,4.4,4.72,4.72,0,0,0,.12,1h0A4.72,4.72,0,0,1,431.78,530.19Zm-1.68,2.92a6.93,6.93,0,0,0,2.45,2.78l-25.2,47.78a9.12,9.12,0,0,0-3.73-.82,9.25,9.25,0,0,0-9.26,8.69l-65.93.23-53,.19a5.84,5.84,0,0,0-.21-1.12ZM272.6,590.57h0a4.1,4.1,0,0,0-1.3-1.47A4.1,4.1,0,0,1,272.6,590.57Zm-5.05-2a4.16,4.16,0,0,0-2.48,2.29A4.16,4.16,0,0,1,267.55,588.62Zm-4.89,5.79a6.5,6.5,0,0,0,1.64,2.77l-49.35,59-8.43,10.07a9.57,9.57,0,0,0-9.91-.92l-23.16-41.23-2.6-4.61a7.87,7.87,0,0,0,3.52-6.52,8.26,8.26,0,0,0-.06-1Zm-93,23h0a5.56,5.56,0,0,0,2-2.59A5.56,5.56,0,0,1,169.7,617.43Zm-3.23,1a5.59,5.59,0,0,0,2.21-.45h0a5.64,5.64,0,0,1-2.22.45,5.22,5.22,0,0,1-1.38-.19A5.22,5.22,0,0,0,166.47,618.46Zm.05-11.08h0a5.55,5.55,0,0,0-5.24,3.68A5.53,5.53,0,0,1,166.52,607.38ZM3.72,708.91,160,617.39a7.83,7.83,0,0,0,9.81,2.66L181,639.83l14.64,26.06a9.64,9.64,0,0,0-4.42,8,9.23,9.23,0,0,0,.08,1.18Zm190-33.06h0a7.79,7.79,0,0,0,.77,1.83h0A7,7,0,0,1,193.76,675.85Zm1.44,2.79.3.33-.3-.33ZM205,680a7.29,7.29,0,0,0,1.12-1h0A7.29,7.29,0,0,1,205,680Zm3.14-6a7.27,7.27,0,0,1-1.28,4.09h0A7.29,7.29,0,0,0,208.1,674a7.41,7.41,0,0,0-.33-2.22h0A7.1,7.1,0,0,1,208.1,674Zm189.32-78.81h0a6.89,6.89,0,0,0,3.43,3.22A6.85,6.85,0,0,1,397.42,595.21Zm11.95.62.18-.31h0Zm189.29,93.63a5.65,5.65,0,0,0,1.15.71h0A5.65,5.65,0,0,1,598.66,689.46Zm-.16-.12h0Zm3.83,1.41a5.92,5.92,0,0,1-1.41-.18h0a6,6,0,0,0,6.58-2.7h0A6,6,0,0,1,602.33,690.75Zm261.72-51.17.17,0h0Zm1.67.35c-.12,0-.24,0-.36,0h0l.35,0a4.31,4.31,0,0,0,2.67-.94h0A4.27,4.27,0,0,1,865.72,639.93Zm3.49-1.77.09-.11-.09.11Zm192.92-58.48a5.74,5.74,0,0,0,1.75,1.2A5.74,5.74,0,0,1,1062.13,579.68Zm1.76,1.2Zm3.83.21a5.49,5.49,0,0,0,1.3-.6h0A5.75,5.75,0,0,1,1067.72,581.09Zm2.23-1.32h0a5.44,5.44,0,0,0,1.12-1.53h0A5.68,5.68,0,0,1,1070,579.77Zm1.53-2.63a5.77,5.77,0,0,0,.16-.94,4.86,4.86,0,0,1-.16.94Zm-3.71-6.7a6,6,0,0,0-1.65-.26,5.51,5.51,0,0,0-2.5.59,5.5,5.5,0,0,1,2.49-.59A5.65,5.65,0,0,1,1067.77,570.44Zm-49.46-13h0a8.33,8.33,0,0,0-7.5-4.81,8.43,8.43,0,0,0-1,.06,8.43,8.43,0,0,1,1-.06A8.31,8.31,0,0,1,1018.31,557.46ZM940,502.05a4.53,4.53,0,0,1,0,.52,4.53,4.53,0,0,0,0-.52V502h0Zm-.05.72a.5.5,0,0,1,0-.12A.5.5,0,0,0,939.93,502.77Zm-.07-1.95h0a6.26,6.26,0,0,0-.49-1.4h0A6,6,0,0,1,939.86,500.82Zm-1.12-2.4h0a5.82,5.82,0,0,0-2.55-1.87h0A5.82,5.82,0,0,1,938.74,498.42Zm60.14-238.8h0a8.33,8.33,0,0,0,1.12.11,6.66,6.66,0,0,0,2-.32,6.68,6.68,0,0,1-2.06.32A5.8,5.8,0,0,1,998.88,259.62ZM1007,174.7a8.33,8.33,0,0,0,.22-.86h0A8.33,8.33,0,0,1,1007,174.7Zm.36-2.27c0,.08,0,.16,0,.24h0a1.94,1.94,0,0,0,0-.24,7.77,7.77,0,0,0-.53-2.82h0A7.52,7.52,0,0,1,1007.31,172.43Z"/></g></g></g></svg>