<svg width="217" height="312" viewBox="0 0 217 312" fill="none" xmlns="http://www.w3.org/2000/svg">
<path d="M40.081 49.0015C40.0254 49.0089 39.969 49.0089 39.9133 49.0015L32.2567 46.6493C28.6931 45.5605 26.4239 43.5678 26.0308 41.1744C25.6535 38.8736 26.9794 36.5521 29.7622 34.5954L47.9525 21.8121C48.0498 21.7447 48.1661 21.7085 48.2853 21.7085C48.4045 21.7085 48.5207 21.7447 48.618 21.8121C48.7129 21.8817 48.7837 21.978 48.8212 22.0882C48.8587 22.1983 48.8609 22.317 48.8277 22.4284L40.6208 48.6215C40.5997 48.6905 40.5648 48.7547 40.518 48.8103C40.4712 48.8659 40.4135 48.9117 40.3483 48.945C40.2659 48.9867 40.1736 49.0062 40.081 49.0015V49.0015ZM47.2502 23.6765L30.4225 35.489C28.0432 37.153 26.8483 39.156 27.1471 40.9895C27.472 42.9514 29.453 44.6206 32.5921 45.5759L39.7089 47.7638L47.2502 23.6765Z" fill="#FAC07F"/>
<path d="M72.0229 58.092C70.7778 58.0749 69.5419 57.8793 68.3545 57.5117L60.6874 55.2262C60.5433 55.1824 60.4227 55.0846 60.352 54.954C60.3149 54.8907 60.2919 54.8205 60.2847 54.7478C60.2775 54.6752 60.2861 54.6019 60.3101 54.5328L68.5117 28.3398C68.5463 28.2282 68.6159 28.1302 68.7107 28.0596C68.8054 27.9891 68.9204 27.9495 69.0394 27.9467C69.1583 27.9439 69.2752 27.9778 69.3733 28.0438C69.4715 28.1098 69.5459 28.2044 69.586 28.3141L77.3212 48.8988C78.5109 52.0368 78.2698 54.6972 76.6452 56.392C75.5656 57.5219 73.962 58.092 72.0229 58.092ZM61.5416 54.3223L68.6689 56.4485C71.8133 57.3833 74.4336 57.0905 75.8014 55.6422C77.1011 54.2915 77.2636 51.9752 76.2417 49.2942L69.0986 30.2504L61.5416 54.3223Z" fill="#FAC07F"/>
<path d="M61.8087 58.2204C61.7532 58.2299 61.6965 58.2299 61.641 58.2204L37.3663 50.8915C37.2222 50.8477 37.1016 50.7498 37.0309 50.6193C36.9623 50.4894 36.9473 50.3386 36.989 50.1981L46.9462 18.3556C47.0039 18.0115 47.4126 16.2345 49.7395 12.4083C49.8064 12.3029 49.9066 12.2218 50.0248 12.1773C50.143 12.1328 50.2729 12.1273 50.3946 12.1617L73.1181 19.0027C73.235 19.04 73.3368 19.1129 73.4084 19.2108C73.4801 19.3088 73.5179 19.4266 73.5163 19.5471C73.4272 23.4299 72.4682 25.6691 72.332 25.9927L62.3642 57.8301C62.3277 57.9456 62.2537 58.0462 62.1534 58.1167C62.0531 58.1871 61.9321 58.2236 61.8087 58.2204V58.2204ZM38.2258 50.003L61.4261 56.9826L71.2524 25.6537C71.2579 25.6287 71.2667 25.6046 71.2786 25.5818C71.2786 25.5818 72.2114 23.5583 72.3582 19.9323L50.5151 13.3533C48.3245 17.0203 48.0887 18.5354 48.0887 18.5508C48.0887 18.5662 48.0887 18.6175 48.0887 18.6432L38.2258 50.003Z" fill="#FAC07F"/>
<path d="M72.9502 20.0762C72.8736 20.0775 72.7979 20.0598 72.7301 20.0248L50.4363 13.3174C50.3488 13.3663 50.2487 13.3895 50.1481 13.3841C50.0476 13.3821 49.9495 13.3539 49.8639 13.3025C49.7782 13.251 49.7081 13.1782 49.6607 13.0914C49.5716 12.927 49.5297 12.85 49.6921 12.5316L49.7288 12.4751C49.8808 12.1926 50.169 11.7406 50.6879 10.9343C54.1729 5.57757 64.3922 -0.621443 66.588 0.0359507C68.9673 0.754975 73.2751 12.5778 73.5004 17.7599C73.5004 18.3248 73.5004 19.085 73.5004 19.4907C73.504 19.5646 73.4925 19.6385 73.4666 19.7081C73.4408 19.7777 73.4012 19.8415 73.35 19.896C73.2988 19.9504 73.2371 19.9944 73.1685 20.0253C73.0999 20.0563 73.0257 20.0735 72.9502 20.0762V20.0762ZM51.1123 12.3724L72.3842 18.7768C72.3842 18.4019 72.3842 18.0783 72.3842 17.8267C72.1222 11.9307 67.5366 1.50995 66.2631 1.11962C65.739 0.96041 63.1711 1.95164 59.7175 4.20116C56.1119 6.57394 53.0986 9.33704 51.6574 11.5301C51.4477 11.8382 51.2643 12.1207 51.1123 12.3621V12.3724Z" fill="#FAC07F"/>
<path d="M57.2549 40.7431C55.6504 40.7427 54.0648 40.403 52.6065 39.7472C51.1482 39.0915 49.8515 38.135 48.8048 36.9432C47.7582 35.7513 46.9863 34.3522 46.5419 32.8413C46.0974 31.3304 45.9909 29.7433 46.2295 28.1884C46.4682 26.6334 47.0464 25.1473 47.9247 23.8313C48.803 22.5154 49.9607 21.4007 51.3188 20.5634C52.6768 19.726 54.2033 19.1857 55.7939 18.9793C57.3846 18.7729 59.0019 18.9054 60.5355 19.3675V19.3675C63.0883 20.1369 65.2746 21.7785 66.6969 23.9938C68.1192 26.2092 68.6829 28.8512 68.2857 31.4395C67.8884 34.0277 66.5566 36.3903 64.5323 38.0977C62.508 39.805 59.9257 40.7437 57.2549 40.7431V40.7431ZM57.2549 19.9941C54.7275 19.9937 52.2935 20.9297 50.4409 22.6144C48.5883 24.2991 47.4542 26.608 47.266 29.0779C47.0777 31.5479 47.8494 33.9962 49.4261 35.9319C51.0028 37.8676 53.2681 39.1475 55.7674 39.5149C58.2668 39.8823 60.8155 39.31 62.9024 37.9129C64.9892 36.5158 66.4599 34.397 67.0194 31.9817C67.579 29.5664 67.186 27.033 65.9193 24.8897C64.6526 22.7465 62.6059 21.1518 60.1897 20.4255V20.4255C59.2437 20.1412 58.26 19.9958 57.2706 19.9941H57.2549ZM57.2549 38.3755C56.3808 38.3762 55.5116 38.2481 54.6765 37.9954C52.576 37.3599 50.7982 35.97 49.6993 34.1042C48.6004 32.2384 48.2615 30.0345 48.7506 27.9342C49.2396 25.8339 50.5206 23.9923 52.3366 22.7784C54.1527 21.5646 56.3698 21.0681 58.5436 21.3885C60.7174 21.7089 62.6874 22.8226 64.0587 24.5063C65.4301 26.19 66.1016 28.3193 65.9386 30.4677C65.7756 32.6161 64.7902 34.6248 63.1798 36.0912C61.5695 37.5577 59.4531 38.3736 57.2549 38.3755V38.3755ZM57.2549 22.3566C55.4361 22.3622 53.6794 23.0061 52.3033 24.1715C50.9271 25.337 50.0224 26.947 49.7532 28.7098C49.4839 30.4727 49.8678 32.2717 50.8354 33.781C51.803 35.2903 53.2902 36.4101 55.0276 36.9374V36.9374C56.9496 37.4982 59.0199 37.2923 60.7878 36.3644C62.5556 35.4365 63.8778 33.8618 64.4666 31.9831C65.0554 30.1044 64.8631 28.0738 63.9315 26.3334C62.9999 24.5929 61.4045 23.2836 59.4926 22.6905C58.7676 22.4716 58.0135 22.3591 57.2549 22.3566Z" fill="#FAC07F"/>
<path d="M57.2755 38.3755C55.4362 38.3784 53.6428 37.8122 52.151 36.7577C50.6592 35.7032 49.5451 34.2142 48.9674 32.5028C48.3897 30.7914 48.378 28.945 48.9338 27.2267C49.4897 25.5084 50.5848 24.0059 52.063 22.9332C53.5413 21.8606 55.3273 21.2726 57.1666 21.2529C59.0058 21.2333 60.8045 21.7832 62.3062 22.824C63.8079 23.8649 64.9361 25.3438 65.5299 27.0498C66.1238 28.7559 66.153 30.6021 65.6134 32.3254C65.0657 34.0746 63.9606 35.6059 62.4601 36.6947C60.9596 37.7835 59.1426 38.3726 57.2755 38.3755V38.3755ZM57.2755 22.3566C55.8669 22.3565 54.4858 22.7397 53.2862 23.4633C52.0866 24.187 51.1155 25.2227 50.481 26.4553C49.8466 27.6879 49.5737 29.0688 49.6928 30.4444C49.8119 31.82 50.3183 33.1361 51.1555 34.2463C51.9928 35.3565 53.1281 36.2172 54.435 36.7324C55.7419 37.2476 57.169 37.3973 58.5575 37.1646C59.9461 36.9319 61.2414 36.3261 62.2994 35.4145C63.3573 34.503 64.1363 33.3216 64.5496 32.0018C65.1418 30.1133 64.9445 28.0715 64.0011 26.3254C63.0577 24.5793 61.4453 23.2719 59.5185 22.6905C58.7851 22.4691 58.022 22.3566 57.2546 22.3566H57.2755Z" fill="#FAC07F"/>
<path d="M38.8438 72.6421C38.7494 72.6416 38.6565 72.6184 38.5733 72.5746C38.4902 72.5307 38.4193 72.4674 38.3669 72.3904C32.6441 63.7878 39.3469 56.0532 39.415 55.9556C39.4866 55.8746 39.5809 55.8159 39.6861 55.7867C39.7913 55.7575 39.9029 55.759 40.0072 55.7912L46.4323 57.7223C46.5452 57.757 46.6445 57.8249 46.7167 57.9168C46.7889 58.0086 46.8305 58.1201 46.8358 58.2359C47.3913 68.6258 39.1582 72.5394 39.0796 72.5804C39.0065 72.6174 38.926 72.6384 38.8438 72.6421V72.6421ZM40.0439 57.0084C38.9958 58.3746 34.7666 64.4503 39.043 71.3889C40.6466 70.4799 45.9921 66.8385 45.7248 58.729L40.0439 57.0084Z" fill="#FAC07F"/>
<path d="M39.966 68.4768C39.9155 68.4821 39.8645 68.4821 39.814 68.4768C39.7285 68.4514 39.6501 68.4071 39.5847 68.3475C39.5193 68.2879 39.4687 68.2144 39.4367 68.1327C37.6968 63.5463 39.2532 58.8367 40.3328 56.4383C40.3903 56.3148 40.4916 56.216 40.6179 56.1602C40.7442 56.1045 40.8869 56.0956 41.0193 56.1352L45.4267 57.4603C45.5584 57.5006 45.6708 57.5863 45.743 57.7015C45.8153 57.8166 45.8425 57.9535 45.8198 58.0869C44.562 65.0768 40.49 68.2457 40.3171 68.3587C40.2164 68.4346 40.093 68.4761 39.966 68.4768V68.4768ZM41.1713 57.3216C40.2542 59.5095 39.1589 63.2279 40.2333 66.9258C42.4972 64.5359 44.0172 61.5619 44.6144 58.354L41.1713 57.3216Z" fill="#FAC07F"/>
<path d="M46.9569 59.0319C46.9012 59.0397 46.8448 59.0397 46.7892 59.0319L38.8076 56.6283C38.7308 56.6061 38.6597 56.568 38.5991 56.5166C38.5386 56.4653 38.4899 56.4017 38.4565 56.3304C38.424 56.2584 38.4072 56.1806 38.4072 56.1019C38.4072 56.0231 38.424 55.9453 38.4565 55.8733L39.185 54.2709C39.2415 54.1465 39.3425 54.0465 39.4689 53.9898C39.5952 53.9331 39.7384 53.9235 39.8715 53.9628L47.4338 56.2431C47.5667 56.2815 47.6804 56.3667 47.753 56.4824C47.8256 56.5981 47.8519 56.7361 47.8268 56.8697L47.5124 58.5953C47.491 58.7241 47.4232 58.8411 47.3212 58.925C47.2193 59.0089 47.09 59.0541 46.9569 59.0524V59.0319ZM39.7509 55.7295L46.5114 57.7839L46.6267 57.1573L40.0182 55.1697L39.7509 55.7295Z" fill="#FAC07F"/>
<path d="M47.6907 57.4398C47.6371 57.4496 47.582 57.4496 47.5283 57.4398L39.0803 54.8718C39.0091 54.8507 38.9429 54.816 38.8855 54.7696C38.8281 54.7232 38.7807 54.6661 38.7461 54.6015C38.7115 54.537 38.6903 54.4664 38.6838 54.3937C38.6773 54.3211 38.6856 54.2479 38.7082 54.1785L39.4943 51.6567C39.5428 51.502 39.6219 51.3582 39.7273 51.2335C39.8326 51.1089 39.9621 51.0059 40.1082 50.9305C40.2543 50.8551 40.4142 50.8087 40.5787 50.7941C40.7432 50.7795 40.909 50.7969 41.0665 50.8453L48.2148 52.9921C48.5329 53.0891 48.7987 53.3058 48.954 53.5946C49.1092 53.8835 49.1412 54.2209 49.0428 54.5328L48.2515 57.0597C48.2121 57.1737 48.1363 57.2722 48.0353 57.3407C47.9343 57.4092 47.8135 57.4439 47.6907 57.4398V57.4398ZM39.9555 53.973L47.2924 56.1917L47.9161 54.199C47.921 54.1849 47.923 54.1699 47.922 54.155C47.9209 54.14 47.9169 54.1255 47.9101 54.1121C47.9032 54.0987 47.8938 54.0868 47.8822 54.077C47.8706 54.0673 47.8572 54.0598 47.8427 54.0552L40.6997 51.9033C40.6691 51.8954 40.6366 51.8996 40.6092 51.9149C40.5817 51.9303 40.5615 51.9556 40.553 51.9854L39.9555 53.973Z" fill="#FAC07F"/>
<path d="M49.1423 75.7441C49.0485 75.7437 48.9564 75.7205 48.8741 75.6765C48.7917 75.6326 48.7218 75.5693 48.6706 75.4924C42.9478 66.8898 49.6506 59.1551 49.7188 59.0576C49.7933 58.9808 49.8883 58.9262 49.993 58.8998C50.0978 58.8735 50.2079 58.8765 50.3109 58.9086L56.7412 60.8448C56.8544 60.8784 56.9538 60.9461 57.0254 61.0383C57.0969 61.1306 57.1369 61.2426 57.1395 61.3584C57.7003 71.7483 49.4672 75.6619 49.3834 75.6978C49.3075 75.7305 49.2251 75.7463 49.1423 75.7441V75.7441ZM50.3476 60.0796C49.2628 61.4457 45.0703 67.5266 49.3414 74.4704C50.9503 73.5613 56.2905 69.92 56.0233 61.8053L50.3476 60.0796Z" fill="#FAC07F"/>
<path d="M50.2687 71.5738C50.2166 71.5816 50.1636 71.5816 50.1115 71.5738C50.0264 71.5504 49.9483 71.5074 49.8836 71.4485C49.8189 71.3895 49.7695 71.3163 49.7394 71.2349C47.9995 66.6434 49.556 61.9389 50.6356 59.5404C50.6921 59.416 50.7931 59.3161 50.9195 59.2593C51.0458 59.2026 51.189 59.193 51.3221 59.2323L55.7295 60.5625C55.8611 60.6028 55.9735 60.6885 56.0457 60.8036C56.118 60.9188 56.1453 61.0557 56.1225 61.1891C54.8648 68.179 50.7875 71.3478 50.6146 71.4608C50.5158 71.5359 50.3938 71.5758 50.2687 71.5738V71.5738ZM51.4741 60.4187C50.5517 62.6117 49.4616 66.3249 50.5307 70.0228C52.7999 67.6385 54.3208 64.6646 54.9119 61.4561L51.4741 60.4187Z" fill="#FAC07F"/>
<path d="M57.2546 62.1442C57.2007 62.1517 57.146 62.1517 57.0922 62.1442L49.1106 59.7406C49.0336 59.7172 48.9625 59.6781 48.902 59.6259C48.8414 59.5737 48.7929 59.5095 48.7595 59.4375C48.7243 59.3672 48.7061 59.2899 48.7061 59.2116C48.7061 59.1332 48.7243 59.0559 48.7595 58.9856L49.488 57.3832C49.5435 57.2592 49.6435 57.1593 49.769 57.1026C49.8945 57.0458 50.0369 57.036 50.1693 57.075L57.7368 59.3554C57.8684 59.3957 57.9808 59.4813 58.053 59.5965C58.1253 59.7117 58.1525 59.8486 58.1298 59.9819L57.8154 61.7076C57.8009 61.7846 57.7701 61.8577 57.7249 61.9223C57.6798 61.9869 57.6213 62.0415 57.5533 62.0825C57.4615 62.1297 57.3581 62.1511 57.2546 62.1442V62.1442ZM50.054 58.8418L56.8092 60.8961L56.9245 60.2696L50.3107 58.2511L50.054 58.8418Z" fill="#FAC07F"/>
<path d="M58.0093 60.5417C57.9554 60.5491 57.9007 60.5491 57.8468 60.5417L49.3989 57.9737C49.2557 57.9299 49.1359 57.8326 49.0653 57.7028C48.9946 57.5731 48.979 57.4214 49.0216 57.2804L49.8129 54.7535C49.8605 54.5994 49.9393 54.4563 50.0447 54.3328C50.15 54.2092 50.2798 54.1078 50.4261 54.0345C50.7108 53.8808 51.0455 53.8421 51.3589 53.9267L58.5019 56.0786C58.82 56.1756 59.0858 56.3923 59.2411 56.6812C59.3963 56.97 59.4283 57.3074 59.33 57.6194L58.5386 60.1411C58.5045 60.2539 58.435 60.3533 58.34 60.4252C58.245 60.4971 58.1293 60.5379 58.0093 60.5417V60.5417ZM50.2689 57.0749L57.6477 59.2937L58.2713 57.2958C58.2796 57.2665 58.2761 57.2352 58.2614 57.2085C58.2468 57.1817 58.2222 57.1615 58.1927 57.152L51.0392 55.0052C51.026 54.9995 51.0117 54.9966 50.9973 54.9966C50.9829 54.9966 50.9686 54.9995 50.9554 55.0052C50.9415 55.0118 50.9293 55.0211 50.9193 55.0326C50.9094 55.0441 50.9021 55.0575 50.8977 55.072L50.2689 57.0749Z" fill="#FAC07F"/>
<path d="M14.0402 131.525L16.3147 129.491L19.3071 130.179L18.0441 127.432L19.632 124.848L16.5767 125.182L14.5591 122.902L13.9407 125.855L11.1055 127.026L13.7782 128.521L14.0402 131.525Z" fill="#FAC07F"/>
<path d="M66.0537 105.527L67.3219 106.801L67.584 105.039L69.2086 104.253L67.5787 103.468L67.3167 101.706L66.0537 102.98L64.2666 102.682L65.1104 104.253L64.2666 105.83L66.0537 105.527Z" fill="#FAC07F"/>
<path d="M91.9375 113.226L91.0938 114.797L92.8861 114.5L94.149 115.768L94.4111 114.012L96.0409 113.221L94.4111 112.435L94.149 110.678L92.8808 111.952L91.0938 111.649L91.9375 113.226Z" fill="#FAC07F"/>
<path d="M28.2161 251.361L29.4844 252.634L29.7412 250.873L31.371 250.087L29.7412 249.301L29.4791 247.54L28.2161 248.813L26.4238 248.515L27.2728 250.087L26.4291 251.664L28.2161 251.361Z" fill="#FAC07F"/>
<path d="M36.8947 160.142L36.3391 160.353C36.1819 160.414 36.0299 160.486 35.8727 160.538C35.7595 160.544 35.6471 160.561 35.5373 160.589L35.2648 160.697L34.898 160.846C34.7119 160.887 34.5365 160.966 34.3824 161.076C34.2283 161.187 34.0988 161.327 34.0018 161.488C33.8265 161.785 33.7772 162.137 33.8644 162.47C33.9516 162.802 34.1684 163.087 34.4682 163.265C34.7076 163.375 34.9689 163.432 35.2334 163.432C35.4979 163.432 35.7591 163.375 35.9985 163.265C36.1942 163.196 36.3728 163.087 36.5226 162.946C36.5855 162.905 36.6483 162.864 36.706 162.818C36.8365 162.742 36.9502 162.641 37.0402 162.521C37.1302 162.401 37.1948 162.264 37.2301 162.119L37.6388 161.873C37.8395 161.755 37.9901 161.57 38.0632 161.352C38.1363 161.135 38.1271 160.898 38.0371 160.687C37.9482 160.474 37.7825 160.301 37.5718 160.201C37.3611 160.1 37.1201 160.08 36.8947 160.142V160.142ZM35.8465 163.224C35.9513 163.148 36.0495 163.064 36.14 162.972L36.0824 163.044L35.8465 163.224Z" fill="#FAC07F"/>
<path d="M10.1362 203.607C10.3221 203.794 10.5705 203.91 10.836 203.932C11.1016 203.955 11.3666 203.883 11.5826 203.731C11.738 203.634 11.8603 203.495 11.9338 203.33C11.9575 203.275 11.975 203.219 11.9862 203.16C12.0904 203.034 12.1432 202.875 12.1345 202.712C12.1258 202.55 12.0562 202.397 11.939 202.282C11.8699 202.217 11.7875 202.167 11.6971 202.135C11.6068 202.103 11.5107 202.09 11.4149 202.097C11.3483 201.982 11.2503 201.888 11.1319 201.825H11.1057C11.052 201.776 10.9942 201.731 10.9328 201.692C10.8638 201.647 10.7842 201.62 10.7017 201.614C10.6192 201.607 10.5364 201.622 10.4611 201.656C10.3644 201.701 10.2759 201.762 10.1991 201.835L10.0995 201.923L10.0314 201.974C9.91053 202.092 9.82685 202.242 9.79034 202.405C9.73525 202.597 9.73525 202.8 9.79034 202.991C9.85452 203.22 9.97303 203.431 10.1362 203.607V203.607ZM11.5302 202.251V202.21V202.251Z" fill="#FAC07F"/>
<path d="M86.2984 104.402C86.5619 104.054 86.7524 103.657 86.8591 103.236C86.9502 103.091 86.9787 102.917 86.9384 102.751C86.8981 102.585 86.7923 102.442 86.6443 102.353C86.4963 102.264 86.3181 102.236 86.1491 102.275C85.98 102.315 85.8339 102.418 85.7429 102.564C85.135 102.877 84.5585 103.591 84.983 104.233C85.0495 104.339 85.1394 104.429 85.2461 104.497C85.3527 104.565 85.4735 104.608 85.5995 104.625C85.7255 104.641 85.8537 104.629 85.9746 104.591C86.0955 104.552 86.2061 104.488 86.2984 104.402V104.402Z" fill="#FAC07F"/>
<path d="M205.806 241.073C205.804 240.941 205.771 240.811 205.71 240.693C205.649 240.575 205.562 240.471 205.455 240.39C205.31 240.267 205.123 240.201 204.931 240.206C204.728 240.211 204.532 240.283 204.375 240.411C204.27 240.488 204.185 240.588 204.127 240.703C204.069 240.818 204.039 240.945 204.04 241.073V241.294C204.04 241.325 204.04 241.356 204.04 241.382C204.04 241.592 204.04 241.803 204.04 242.008C204.04 242.236 204.132 242.454 204.296 242.615C204.461 242.776 204.683 242.866 204.915 242.866C205.147 242.866 205.37 242.776 205.534 242.615C205.698 242.454 205.79 242.236 205.79 242.008C205.79 241.803 205.79 241.597 205.79 241.392C205.793 241.359 205.793 241.327 205.79 241.294C205.806 241.222 205.806 241.151 205.806 241.073Z" fill="#FAC07F"/>
<path d="M83.3997 309.442L83.2058 309.365L83.253 309.401L83.2058 309.37C83.1421 309.33 83.0707 309.303 82.9959 309.29C82.9211 309.278 82.8445 309.281 82.7708 309.298C82.7017 309.317 82.6362 309.346 82.5769 309.386V309.386L82.3882 309.463C82.2668 309.525 82.1638 309.617 82.0895 309.73C81.8943 309.983 81.8027 310.298 81.8327 310.613C81.8459 310.874 81.9194 311.129 82.0476 311.358C82.1624 311.548 82.3246 311.706 82.519 311.817C82.7133 311.929 82.9335 311.99 83.1586 311.995C83.421 311.978 83.6773 311.91 83.9123 311.795C84.1473 311.679 84.3561 311.518 84.5264 311.322C84.7393 311.106 84.8584 310.818 84.8584 310.518C84.8584 310.218 84.7393 309.93 84.5264 309.714C84.3777 309.579 84.1962 309.483 83.999 309.435C83.8019 309.388 83.5956 309.39 83.3997 309.442V309.442Z" fill="#FAC07F"/>
<path d="M184.639 292.232C185.352 291.549 186.415 291.267 186.877 290.322C187.034 289.993 186.756 289.438 186.321 289.618C185.31 290.029 184.282 290.337 183.454 291.071C182.626 291.806 183.868 292.967 184.639 292.232Z" fill="#FAC07F"/>
<path d="M157.016 178.523C157.141 178.415 157.258 178.298 157.367 178.174C157.529 178.015 157.62 177.799 157.619 177.574C157.619 177.349 157.527 177.134 157.364 176.975C157.284 176.896 157.188 176.834 157.083 176.792C156.978 176.749 156.866 176.728 156.752 176.728C156.523 176.728 156.303 176.818 156.141 176.977C156.031 177.08 155.889 177.198 155.784 177.316C154.93 178.03 156.172 179.242 157.016 178.523Z" fill="#FAC07F"/>
<path d="M99.1331 128.361C99.419 128.354 99.6919 128.242 99.8982 128.048C100 127.952 100.082 127.837 100.137 127.709C100.193 127.582 100.222 127.444 100.222 127.306C100.222 127.167 100.193 127.03 100.137 126.902C100.082 126.775 100 126.659 99.8982 126.564C99.9011 126.548 99.9011 126.533 99.8982 126.517C99.8935 126.357 99.8478 126.201 99.7654 126.063C99.683 125.925 99.5665 125.809 99.4265 125.726C99.2475 125.637 99.0507 125.588 98.8501 125.583C98.5935 125.562 98.3362 125.615 98.11 125.735C97.8837 125.856 97.6983 126.038 97.5766 126.261C97.4331 126.522 97.3771 126.82 97.4166 127.115C97.4561 127.409 97.5891 127.683 97.7967 127.899C97.9713 128.067 98.1815 128.196 98.4124 128.276C98.6434 128.356 98.8894 128.385 99.1331 128.361V128.361ZM99.5418 127.252C99.4947 127.313 99.4475 127.38 99.3951 127.442L99.5418 127.252Z" fill="#FAC07F"/>
<path d="M82.3309 87.1816C82.3309 87.0994 82.3309 87.0224 82.3309 86.9454C82.3309 86.9454 82.3309 86.8991 82.3309 86.8632C82.3833 86.8221 82.4304 86.7656 82.4828 86.7194C82.6296 86.5859 82.7868 86.4574 82.944 86.3291C83.1187 86.1394 83.2124 85.8913 83.2057 85.636C83.1991 85.3806 83.0926 85.1375 82.9083 84.9569C82.724 84.7762 82.4759 84.6719 82.2153 84.6654C81.9547 84.6588 81.7016 84.7507 81.5081 84.9218C81.1732 85.2769 80.9021 85.685 80.7063 86.1288C80.6058 86.4706 80.5808 86.8295 80.6329 87.1816C80.6648 87.3798 80.7678 87.5604 80.9235 87.6907C81.0791 87.8211 81.2771 87.8927 81.4819 87.8927C81.6866 87.8927 81.8847 87.8211 82.0403 87.6907C82.1959 87.5604 82.299 87.3798 82.3309 87.1816V87.1816ZM82.3885 86.8067C82.3882 86.8033 82.3882 86.7998 82.3885 86.7964V86.8067Z" fill="#FAC07F"/>
<path d="M81.2984 155.073C81.4518 155.083 81.6057 155.063 81.7505 155.012C81.8954 154.962 82.0281 154.883 82.1405 154.78C82.2528 154.677 82.3424 154.553 82.4037 154.414C82.4649 154.276 82.4965 154.127 82.4965 153.977C82.4965 153.826 82.4649 153.677 82.4037 153.539C82.3424 153.4 82.2528 153.276 82.1405 153.173C82.0281 153.07 81.8954 152.991 81.7505 152.941C81.6057 152.89 81.4518 152.87 81.2984 152.88C80.6067 152.911 79.7262 152.854 79.2388 153.394C79.0929 153.546 79.0117 153.747 79.0117 153.956C79.0117 154.165 79.0929 154.366 79.2388 154.518C79.7419 155.104 80.6067 155.042 81.2984 155.073Z" fill="#FAC07F"/>
<path d="M43.4457 129.547H43.4876C43.2675 129.542 43.3199 129.573 43.4457 129.547Z" fill="#FAC07F"/>
<path d="M43.356 131.186H43.3927H43.4189L44.0792 131.314C44.252 131.36 44.434 131.361 44.607 131.316C44.78 131.271 44.9378 131.182 45.0644 131.057C45.2524 130.869 45.3593 130.617 45.3632 130.354C45.3593 130.09 45.2524 129.839 45.0644 129.65C44.9361 129.529 44.7782 129.442 44.6058 129.397C44.4334 129.352 44.2522 129.351 44.0792 129.393L43.4608 129.517H43.5447C43.3189 129.519 43.1032 129.608 42.9436 129.765C42.784 129.921 42.6931 130.133 42.6904 130.354C42.6949 130.536 42.7581 130.712 42.8711 130.857C42.9841 131.002 43.141 131.108 43.3193 131.16C43.3193 131.16 43.3403 131.186 43.356 131.186Z" fill="#FAC07F"/>
<path d="M22.703 90.294C22.7093 90.2963 22.7162 90.297 22.7229 90.2962C22.7296 90.2954 22.736 90.293 22.7415 90.2892C22.7471 90.2854 22.7516 90.2804 22.7547 90.2745C22.7579 90.2686 22.7595 90.2621 22.7595 90.2554C22.7595 90.2488 22.7579 90.2423 22.7547 90.2364C22.7516 90.2305 22.7471 90.2255 22.7415 90.2217C22.736 90.2179 22.7296 90.2155 22.7229 90.2147C22.7162 90.2138 22.7093 90.2146 22.703 90.2169C22.6967 90.2146 22.6898 90.2138 22.6831 90.2147C22.6764 90.2155 22.67 90.2179 22.6645 90.2217C22.6589 90.2255 22.6544 90.2305 22.6513 90.2364C22.6481 90.2423 22.6465 90.2488 22.6465 90.2554C22.6465 90.2621 22.6481 90.2686 22.6513 90.2745C22.6544 90.2804 22.6589 90.2854 22.6645 90.2892C22.67 90.293 22.6764 90.2954 22.6831 90.2962C22.6898 90.297 22.6967 90.2963 22.703 90.294V90.294Z" fill="#FAC07F"/>
<path d="M43.4138 207.438C43.2675 207.561 43.1739 207.734 43.1517 207.921H42.9735C42.797 207.922 42.6279 207.991 42.5025 208.113C42.3772 208.235 42.3055 208.4 42.3027 208.573C42.3054 208.747 42.377 208.913 42.5022 209.035C42.6274 209.158 42.7965 209.228 42.9735 209.231C43.1818 209.258 43.3935 209.243 43.596 209.189C43.7985 209.134 43.9878 209.04 44.1527 208.912C44.3369 208.709 44.4386 208.447 44.4386 208.175C44.4386 207.904 44.3369 207.641 44.1527 207.438C44.0545 207.343 43.9217 207.289 43.7832 207.289C43.6448 207.289 43.5119 207.343 43.4138 207.438V207.438ZM43.1255 208.106C43.1255 208.106 43.1255 208.137 43.1255 208.147C43.1098 208.106 43.1203 208.091 43.1255 208.106ZM43.1255 208.188C43.1255 208.188 43.1255 208.224 43.1255 208.24V208.188Z" fill="#FAC07F"/>
<path d="M90.4433 73.9569C90.6634 73.9928 90.8888 74.0134 91.1089 74.0339C91.3868 74.0339 91.6534 73.9257 91.85 73.7331C92.0466 73.5404 92.157 73.2792 92.157 73.0067C92.157 72.7343 92.0466 72.473 91.85 72.2804C91.6534 72.0878 91.3868 71.9795 91.1089 71.9795L90.7735 72.0052C90.6948 71.9291 90.5973 71.8742 90.4905 71.846C90.315 71.8071 90.131 71.8313 89.9723 71.9143C89.8135 71.9973 89.6905 72.1335 89.6258 72.298C89.5098 72.5067 89.466 72.7467 89.501 72.9819C89.5359 73.2171 89.6477 73.4348 89.8197 73.6025C89.9886 73.7768 90.205 73.8998 90.4433 73.9569ZM90.9674 72.2261L91.0722 72.3596C91.0355 72.3082 90.9936 72.262 90.9516 72.2107C91.025 72.2723 90.9988 72.2774 90.9516 72.2261H90.9674Z" fill="#FAC07F"/>
<path d="M45.0173 151.601C45.3366 151.646 45.6596 151.66 45.9816 151.642C46.2012 151.642 46.4118 151.557 46.5671 151.405C46.7224 151.252 46.8096 151.046 46.8096 150.831C46.8096 150.616 46.7224 150.409 46.5671 150.257C46.4118 150.105 46.2012 150.019 45.9816 150.019C45.6596 149.999 45.3364 150.013 45.0173 150.06C44.8494 150.111 44.7025 150.214 44.5981 150.352C44.4938 150.491 44.4375 150.659 44.4375 150.831C44.4375 151.003 44.4938 151.171 44.5981 151.309C44.7025 151.448 44.8494 151.55 45.0173 151.601V151.601Z" fill="#FAC07F"/>
<path d="M24.3067 191.743C24.5102 191.727 24.7 191.637 24.8385 191.49C24.9769 191.343 25.0538 191.15 25.0538 190.95C25.0538 190.75 24.9769 190.557 24.8385 190.41C24.7 190.263 24.5102 190.172 24.3067 190.156C24.1032 190.172 23.9133 190.263 23.7749 190.41C23.6364 190.557 23.5596 190.75 23.5596 190.95C23.5596 191.15 23.6364 191.343 23.7749 191.49C23.9133 191.637 24.1032 191.727 24.3067 191.743V191.743Z" fill="#FAC07F"/>
<path d="M26.2035 155.479C26.5704 155.396 26.8743 155.006 27.1311 154.749L27.3041 154.59L27.3355 154.564L27.5556 154.344C27.7131 154.188 27.8014 153.977 27.8014 153.758C27.8014 153.539 27.7131 153.328 27.5556 153.173C27.3953 153.021 27.1811 152.936 26.9582 152.936C26.7352 152.936 26.521 153.021 26.3607 153.173L26.1354 153.388V153.419L25.9624 153.583C25.7057 153.84 25.3074 154.138 25.2235 154.498C25.1896 154.631 25.1912 154.771 25.2281 154.904C25.2649 155.037 25.3358 155.158 25.4341 155.256C25.5323 155.355 25.6546 155.427 25.7893 155.466C25.924 155.504 26.0666 155.509 26.2035 155.479V155.479Z" fill="#FAC07F"/>
<path d="M29.1224 228.824C29.3543 228.807 29.5711 228.705 29.7293 228.537C29.8874 228.37 29.9753 228.151 29.9753 227.923C29.9753 227.695 29.8874 227.475 29.7293 227.308C29.5711 227.141 29.3543 227.039 29.1224 227.021C28.8905 227.039 28.6737 227.141 28.5156 227.308C28.3574 227.475 28.2695 227.695 28.2695 227.923C28.2695 228.151 28.3574 228.37 28.5156 228.537C28.6737 228.705 28.8905 228.807 29.1224 228.824V228.824Z" fill="#FAC07F"/>
<path d="M1.82863 250.277H1.69237C1.48036 250.301 1.27443 250.361 1.08445 250.457C1.02681 250.487 1.02157 250.457 1.05301 250.457L0.916752 250.493L0.754292 250.539C0.582315 250.589 0.426449 250.682 0.301632 250.809C0.176814 250.935 0.0872303 251.091 0.0414656 251.261C-0.0042991 251.431 -0.00471031 251.61 0.0402714 251.78C0.0852531 251.95 0.17412 252.107 0.298354 252.234C0.427945 252.355 0.587274 252.442 0.761069 252.487C0.934863 252.531 1.1173 252.53 1.29089 252.485C1.46448 252.441 1.62341 252.353 1.75244 252.23C1.88146 252.108 1.97627 251.955 2.02777 251.787L2.0959 251.658L2.13783 251.52V251.438C2.22111 251.277 2.27604 251.103 2.30029 250.924C2.30029 250.878 2.30029 250.832 2.30029 250.79C2.30769 250.726 2.30099 250.66 2.28062 250.598C2.26026 250.536 2.22669 250.478 2.18213 250.43C2.13757 250.381 2.08303 250.343 2.0221 250.316C1.96117 250.29 1.89523 250.276 1.82863 250.277V250.277Z" fill="#FAC07F"/>
<path d="M1.16412 250.431C1.12597 250.435 1.08879 250.446 1.05407 250.462H1.04883C1.08593 250.447 1.12462 250.437 1.16412 250.431V250.431Z" fill="#FAC07F"/>
<path d="M42.5909 282.099C42.6652 282.152 42.7509 282.189 42.8416 282.206C42.9323 282.223 43.0257 282.22 43.1149 282.197L43.5814 282.227C44.6295 282.294 44.6295 280.538 43.5814 280.604L43.1097 280.635C43.0204 280.612 42.927 280.609 42.8364 280.626C42.7457 280.643 42.66 280.679 42.5856 280.733C42.4699 280.807 42.3749 280.908 42.3092 281.028C42.2434 281.147 42.209 281.28 42.209 281.416C42.209 281.551 42.2434 281.685 42.3092 281.804C42.3749 281.923 42.4699 282.025 42.5856 282.099H42.5909Z" fill="#FAC07F"/>
<path d="M9.30818 294.8V294.065C9.30818 293.793 9.19775 293.532 9.00119 293.339C8.80462 293.146 8.53803 293.038 8.26005 293.038C7.98457 293.046 7.72254 293.157 7.52767 293.348C7.3328 293.538 7.21983 293.795 7.21191 294.065V294.8C7.21191 295.072 7.32234 295.333 7.5189 295.526C7.71547 295.719 7.98206 295.827 8.26005 295.827C8.53803 295.827 8.80462 295.719 9.00119 295.526C9.19775 295.333 9.30818 295.072 9.30818 294.8Z" fill="#FAC07F"/>
<path d="M68.8099 305.205C68.7678 305.167 68.7222 305.132 68.6737 305.102L68.506 305.02C68.4993 304.805 68.4085 304.601 68.2524 304.45C68.0962 304.299 67.8868 304.213 67.6675 304.209H67.4945C67.2987 304.135 67.0839 304.124 66.8814 304.178C66.738 304.209 66.6024 304.267 66.4825 304.35C66.3627 304.433 66.2609 304.539 66.1833 304.661C66.1056 304.783 66.0537 304.919 66.0305 305.061C66.0072 305.203 66.0132 305.348 66.0481 305.488C66.1054 305.664 66.1991 305.827 66.3236 305.967C66.448 306.107 66.6004 306.22 66.7713 306.299C67.0745 306.49 67.4228 306.601 67.7827 306.622C68.1425 306.643 68.5018 306.572 68.8256 306.417C68.9324 306.354 69.0204 306.264 69.081 306.157C69.1416 306.05 69.1726 305.929 69.171 305.807C69.1694 305.684 69.1353 305.564 69.072 305.459C69.0086 305.353 68.9183 305.266 68.8099 305.205V305.205ZM67.5626 305.888L67.3792 305.96C67.4424 305.942 67.5038 305.917 67.5626 305.888V305.888Z" fill="#FAC07F"/>
<path d="M168.797 296.941C168.527 296.941 168.269 297.046 168.078 297.233C167.887 297.42 167.78 297.674 167.78 297.938C167.78 298.202 167.887 298.455 168.078 298.642C168.269 298.829 168.527 298.934 168.797 298.934C170.102 298.934 170.107 296.941 168.797 296.941Z" fill="#FAC07F"/>
<path d="M200.906 281.375C200.895 281.375 200.884 281.379 200.877 281.387C200.869 281.395 200.864 281.405 200.864 281.416C200.864 281.427 200.869 281.437 200.877 281.445C200.884 281.453 200.895 281.457 200.906 281.457C200.953 281.447 200.953 281.375 200.906 281.375Z" fill="#FAC07F"/>
<path d="M192.076 274.292C191.923 274.297 191.775 274.341 191.646 274.42C191.516 274.498 191.409 274.608 191.337 274.739C191.174 274.731 191.011 274.755 190.858 274.81C190.706 274.865 190.566 274.949 190.447 275.059C190.329 275.168 190.234 275.3 190.169 275.446C190.104 275.593 190.07 275.75 190.068 275.91C190.071 276.091 190.116 276.269 190.199 276.43C190.282 276.592 190.402 276.733 190.549 276.843C190.695 276.952 190.866 277.028 191.047 277.064C191.228 277.1 191.415 277.095 191.593 277.05C191.924 276.952 192.224 276.776 192.469 276.537C192.693 276.329 192.852 276.063 192.927 275.77C193.002 275.477 192.99 275.17 192.893 274.883C192.836 274.714 192.726 274.566 192.58 274.46C192.434 274.355 192.257 274.296 192.076 274.292ZM191.289 274.806C191.331 274.719 191.316 274.77 191.284 274.816L191.289 274.806Z" fill="#FAC07F"/>
<path d="M216.964 241.258C216.954 241.258 216.944 241.262 216.936 241.27C216.929 241.277 216.925 241.287 216.925 241.297C216.925 241.307 216.929 241.317 216.936 241.324C216.944 241.331 216.954 241.335 216.964 241.335C216.975 241.335 216.985 241.331 216.992 241.324C216.999 241.317 217.003 241.307 217.003 241.297C217.003 241.287 216.999 241.277 216.992 241.27C216.985 241.262 216.975 241.258 216.964 241.258Z" fill="#FAC07F"/>
<path d="M202.51 217.659C202.5 217.659 202.49 217.663 202.482 217.67C202.475 217.677 202.471 217.687 202.471 217.697C202.471 217.708 202.475 217.717 202.482 217.725C202.49 217.732 202.5 217.736 202.51 217.736C202.52 217.736 202.53 217.732 202.538 217.725C202.545 217.717 202.549 217.708 202.549 217.697C202.549 217.687 202.545 217.677 202.538 217.67C202.53 217.663 202.52 217.659 202.51 217.659V217.659Z" fill="#FAC07F"/>
<path d="M215.355 201.214C215.363 201.211 215.37 201.206 215.375 201.199C215.38 201.192 215.383 201.184 215.383 201.175C215.383 201.167 215.38 201.159 215.375 201.152C215.37 201.145 215.363 201.14 215.355 201.137C215.349 201.135 215.342 201.134 215.335 201.135C215.329 201.135 215.322 201.138 215.317 201.142C215.311 201.145 215.307 201.15 215.304 201.156C215.3 201.162 215.299 201.169 215.299 201.175C215.299 201.182 215.3 201.189 215.304 201.194C215.307 201.2 215.311 201.205 215.317 201.209C215.322 201.213 215.329 201.215 215.335 201.216C215.342 201.217 215.349 201.216 215.355 201.214Z" fill="#FAC07F"/>
<path d="M154.479 267.58C152.907 269.634 151.182 271.617 149.935 273.846C149.909 273.89 149.9 273.941 149.91 273.991C149.92 274.041 149.948 274.086 149.989 274.117C150.03 274.148 150.081 274.164 150.132 274.161C150.184 274.159 150.233 274.138 150.271 274.102C152.093 272.207 153.766 270.18 155.275 268.037C157.01 265.731 158.682 263.368 160.175 260.908C162.943 256.337 165.018 251.289 164.892 245.896H164.861C164.614 251.34 162.067 256.43 159.18 260.98C157.744 263.276 156.119 265.453 154.479 267.58Z" fill="#FAC07F"/>
<path d="M163.614 257.241C162.011 260.64 160.197 263.938 158.179 267.118C156.025 270.369 153.3 273.05 150.774 276.003C150.575 276.229 150.821 276.614 151.115 276.434C154.411 274.436 156.969 271.19 159.07 268.052C161.304 264.79 162.923 261.161 163.85 257.339C163.881 257.21 163.682 257.108 163.614 257.241Z" fill="#FAC07F"/>
<path d="M52.2178 73.3352C52.4274 75.3177 52.6859 77.2847 52.9934 79.2363C54.3747 87.9114 56.7534 96.4055 60.084 104.556C66.7396 120.991 76.9013 135.854 89.0858 148.822C95.862 156.038 103.236 163.028 111.39 168.719C111.186 168.899 110.987 169.089 110.793 169.284C109.579 170.485 108.576 171.873 107.821 173.393C105.363 170.789 101.207 170.963 98.3356 173.161C96.8676 174.319 95.6248 175.726 94.6671 177.316C93.9195 176.899 93.104 176.61 92.2564 176.464C90.7182 176.175 89.1313 176.26 87.6342 176.71C87.4769 175.247 86.3816 173.665 85.475 172.745C84.1795 171.461 82.5164 170.592 80.706 170.255C77.6455 169.633 73.7202 170.172 71.6292 172.684C70.6439 173.865 70.057 175.848 70.9636 177.219C71.0154 177.301 71.0928 177.364 71.1844 177.4C71.276 177.435 71.3768 177.44 71.4717 177.415C71.5667 177.39 71.6507 177.335 71.7112 177.259C71.7717 177.183 71.8054 177.089 71.8074 176.993C71.8388 176.192 71.6659 175.452 71.9541 174.651C72.2043 174.009 72.6283 173.446 73.1804 173.023C74.5789 172.007 76.2771 171.466 78.0175 171.482C79.9058 171.409 81.7677 171.935 83.3263 172.982C84.1024 173.524 84.7496 174.225 85.2234 175.036C85.5573 175.765 85.841 176.515 86.0724 177.28C83.7928 178.359 81.5445 180.305 81.1253 182.683C81.1023 182.762 81.1096 182.846 81.1456 182.92C81.1817 182.993 81.244 183.051 81.3208 183.083C81.3976 183.115 81.4836 183.118 81.5625 183.091C81.6414 183.065 81.7077 183.011 81.7489 182.94C82.6084 181.846 83.3578 180.727 84.4793 179.859C85.5333 179.043 86.738 178.435 88.0272 178.066C89.2721 177.694 90.5911 177.627 91.8686 177.871C92.5553 178.015 93.2161 178.259 93.8286 178.595L93.9229 178.647C92.9592 180.554 92.2831 182.589 91.9158 184.686C91.6747 186.058 91.3288 188.246 91.7952 189.904C90.0484 190.5 88.3294 191.171 86.6384 191.918C75.3792 196.874 65.8264 204.921 59.1354 215.086C52.4588 225.357 49.3302 237.601 50.8657 249.727C51.2125 252.41 51.7554 255.066 52.4903 257.672C47.5326 261.057 42.6169 264.539 37.8164 268.17L37.7011 267.39L35.5577 269.552L32.5234 269.038L33.7444 271.313C30.207 274.102 26.7482 276.963 23.4046 279.978C19.3536 283.609 15.4021 287.435 12.1267 291.79C10.0305 294.528 7.69313 298.051 7.9342 301.631C8.30628 307.414 15.879 306.643 19.9877 306.124C29.945 304.871 39.7188 301.677 49.1677 298.421C57.0287 295.735 64.7639 292.771 72.4362 289.659C79.2491 295.858 87.4612 300.624 96.5433 302.735C102.429 304.099 108.533 304.298 114.498 303.32C120.545 302.334 126.274 300.033 131.724 297.327C141.786 292.329 150.994 285.309 157.476 276.177C164.293 266.437 167.442 254.677 166.386 242.912C166.323 242.172 166.244 241.438 166.155 240.704L167.727 239.64C176.877 233.436 185.786 226.801 193.988 219.446C199.328 214.639 204.543 209.467 208.573 203.525C210.606 200.52 213.022 196.581 212.509 192.801C212.429 192.166 212.234 191.55 211.932 190.983C211.435 190.122 210.684 189.427 209.778 188.99V188.831C209.881 188.763 209.966 188.671 210.025 188.564C210.11 188.406 210.144 188.225 210.12 188.048C210.097 187.87 210.018 187.704 209.894 187.573C209.713 187.432 209.5 187.337 209.274 187.295C209.047 187.254 208.814 187.268 208.594 187.337C208.367 187.411 208.159 187.532 207.984 187.693C207.81 187.853 207.673 188.049 207.582 188.266C207.051 188.162 206.514 188.085 205.974 188.035C202.41 187.711 198.736 188.353 195.256 189.062C185.173 191.117 175.394 194.671 165.783 198.235C160.249 200.289 154.751 202.436 149.259 204.583L149.212 204.609C148.531 203.872 147.832 203.157 147.116 202.462C139.38 194.989 129.528 189.653 118.816 187.675C114.595 186.902 110.29 186.671 106.008 186.987C106.666 185.581 107.673 184.359 108.937 183.433C110.751 182.247 112.606 182.447 114.403 183.521C115.321 184.065 116.044 182.74 115.221 182.144C114.32 181.49 113.249 181.1 112.132 181.018C111.014 180.936 109.896 181.166 108.906 181.682C108.738 180.937 108.408 180.223 108.277 179.448C108.082 178.317 108.116 177.16 108.377 176.043C108.45 175.724 108.534 175.416 108.633 175.113C108.688 175.059 108.729 174.993 108.755 174.921C108.78 174.849 108.789 174.773 108.78 174.697C109.472 172.916 110.554 171.304 111.951 169.977C113.704 168.245 115.877 166.976 118.266 166.29C119.413 165.966 120.606 165.827 121.798 165.879C122.322 165.904 122.846 166.028 123.37 166.053C123.693 166.036 124.014 165.992 124.329 165.92C123.281 168.164 122.416 172.196 125.178 173.254C125.278 173.28 125.384 173.279 125.483 173.253C125.583 173.226 125.674 173.175 125.747 173.103C125.821 173.031 125.873 172.942 125.9 172.844C125.927 172.746 125.928 172.643 125.901 172.545C125.524 171.554 124.984 170.753 124.979 169.654C125.007 168.436 125.33 167.242 125.922 166.172C126.971 164.225 128.883 162.314 131.315 162.674C131.398 162.692 131.484 162.681 131.56 162.643C131.635 162.606 131.694 162.543 131.727 162.467C131.76 162.39 131.765 162.305 131.74 162.225C131.716 162.146 131.664 162.078 131.593 162.032C128.889 160.188 125.901 163.105 124.649 165.298C124.591 165.401 124.534 165.509 124.476 165.627C124.214 165.33 123.891 165.09 123.527 164.923C122.879 164.736 122.206 164.644 121.531 164.651C120.22 164.621 118.913 164.794 117.658 165.165C115.665 165.755 113.813 166.727 112.208 168.026C105.541 162.243 98.7863 156.608 92.618 150.291C86.3767 143.928 80.6686 137.082 75.5492 129.82C65.5186 115.501 58.1083 99.405 54.8433 82.2819C54.2084 78.9497 53.7449 75.5883 53.4546 72.2104L52.2178 73.3352ZM186.415 203.895C186.541 203.951 186.452 203.946 186.415 203.895V203.895ZM186.358 204.249C185.886 205.487 184.644 207.017 183.654 208.178C181.71 210.416 179.653 212.557 177.491 214.593C172.774 219.123 167.769 223.39 162.638 227.479C160.589 221.279 157.585 215.424 153.729 210.114C160.34 207.962 167.078 206.208 173.906 204.86C177.176 204.198 180.551 203.525 183.905 203.515C184.745 203.478 185.585 203.598 186.379 203.869V203.869C186.363 203.951 186.442 204.018 186.358 204.239V204.249ZM93.1683 187.937C93.16 186.695 93.2971 185.456 93.5771 184.245C94.1327 181.73 95.1752 179.343 96.6481 177.214C97.8849 175.447 99.5986 173.69 101.768 173.105C103.938 172.519 105.594 173.562 107.266 174.712C107.122 175.115 107.001 175.525 106.904 175.94C106.49 177.748 106.333 180.886 107.758 182.427C107.053 182.985 106.445 183.651 105.955 184.399C105.419 185.199 105.115 186.128 105.075 187.085C101.069 187.441 97.115 188.226 93.2836 189.427C93.2417 188.923 93.1735 188.42 93.1683 187.937ZM54.618 229.487C54.5499 230.421 54.5184 231.366 54.5132 232.301C54.4817 236.194 54.8958 240.056 55.0058 243.939C55.0058 243.968 55.0174 243.995 55.038 244.015C55.0587 244.036 55.0867 244.047 55.1159 244.047C55.145 244.047 55.173 244.036 55.1937 244.015C55.2143 243.995 55.2259 243.968 55.2259 243.939C55.3045 240.282 54.9639 236.626 54.9586 232.969C54.9288 231.08 55.0426 229.192 55.2993 227.319C55.7657 225.933 56.3002 224.556 56.8715 223.211C59.103 218.144 62.0798 213.426 65.7072 209.205C60.8439 216.698 58.6428 225.979 58.2498 234.659C58.2498 234.931 58.6585 234.926 58.6795 234.659C58.9961 228.963 60.1596 223.343 62.1331 217.977C63.2046 215.194 64.5362 212.514 66.1108 209.97C66.0269 210.248 65.9483 210.53 65.8749 210.813C65.2744 213.07 64.8038 215.36 64.4652 217.669C63.7556 222.002 63.3303 226.374 63.1917 230.76C63.1943 230.799 63.2104 230.836 63.2375 230.865C63.2645 230.893 63.3008 230.912 63.3402 230.917C63.3796 230.923 63.4197 230.915 63.4538 230.895C63.4878 230.874 63.5137 230.843 63.5271 230.807C64.4495 226.575 64.6539 222.173 65.3194 217.9C65.6601 215.712 66.0426 213.53 66.5824 211.378C66.9231 210.017 67.358 208.692 67.7773 207.356C68.1075 206.843 68.4481 206.365 68.7887 205.872C70.1723 204.485 71.6292 203.165 73.1437 201.917C70.7854 204.578 69.6849 208.532 68.8988 211.753C67.7668 216.416 67.2899 221.197 66.8392 225.958C66.8392 226.174 67.1903 226.225 67.227 226.01C67.9345 221.511 68.4795 216.996 69.5329 212.559C70.5863 208.121 72.1218 203.633 75.2976 200.233L75.4758 200.104C75.0792 201.213 74.7415 202.341 74.4644 203.484C74.0032 205.194 73.5892 206.92 73.2538 208.656C72.6144 212.009 72.169 215.373 71.8126 218.768C71.8126 218.897 72.0275 218.927 72.0484 218.799C72.6301 215.476 73.2485 212.148 73.9822 208.851C74.3491 207.192 74.7159 205.533 75.1457 203.889C75.523 202.415 76.0575 200.957 76.3458 199.462C77.4201 198.697 78.5154 197.963 79.6369 197.269C79.5688 197.387 79.5007 197.5 79.4378 197.619C78.5287 199.34 77.7933 201.145 77.2419 203.006C76.1204 206.565 75.4863 210.248 74.7264 213.894C74.7267 213.954 74.7471 214.013 74.7844 214.061C74.8217 214.109 74.8739 214.144 74.9331 214.16C74.9923 214.176 75.0553 214.173 75.1126 214.151C75.1699 214.129 75.2183 214.089 75.2505 214.038C76.2252 210.751 76.9013 207.387 77.8708 204.095C78.3745 202.264 79.0336 200.477 79.8413 198.754C80.3103 197.836 80.8647 196.963 81.4973 196.145C82.2799 195.693 83.0748 195.259 83.8818 194.845C83.2997 195.534 82.8263 196.304 82.4773 197.131C81.7514 198.765 81.1761 200.46 80.7584 202.195C79.878 205.554 79.312 208.989 78.7408 212.41C78.7335 212.463 78.7459 212.516 78.7758 212.561C78.8057 212.605 78.8509 212.638 78.9032 212.652C78.9555 212.666 79.0114 212.662 79.0605 212.639C79.1096 212.616 79.1487 212.577 79.1705 212.528C80.3077 209.482 80.7427 206.165 81.5131 203.022C81.9065 201.34 82.4232 199.689 83.0591 198.081C83.6715 196.746 84.3881 195.46 85.2025 194.234C85.2088 194.212 85.2088 194.189 85.2025 194.167C86.3764 193.592 87.5713 193.048 88.7871 192.549C88.6875 192.673 88.5984 192.791 88.5093 192.909C87.7378 193.93 87.0724 195.024 86.5231 196.175C85.3324 198.751 84.4259 201.444 83.819 204.208C82.5455 209.482 82.0791 214.88 81.2301 220.227C81.1986 220.422 81.4921 220.514 81.5445 220.309C82.7656 215.317 83.4311 210.207 84.6417 205.209C85.2667 202.468 86.1438 199.789 87.2621 197.203C87.749 196.093 88.331 195.026 89.002 194.013C89.526 193.248 90.3645 192.539 90.8729 191.738C91.3603 191.553 91.8529 191.378 92.3455 191.224C92.377 191.265 92.4189 191.301 92.4503 191.337C91.4441 192.637 90.8781 194.291 90.3541 195.811C89.6099 198.014 89.1644 200.289 88.567 202.534C88.5596 202.579 88.5695 202.625 88.5946 202.663C88.6197 202.701 88.6584 202.729 88.7032 202.741C88.748 202.753 88.7958 202.749 88.8374 202.728C88.8789 202.708 88.9114 202.674 88.9286 202.631C89.6466 200.608 90.2335 198.548 90.8729 196.504C91.4278 194.82 92.1291 193.186 92.9691 191.62C93.0332 191.61 93.0928 191.582 93.1404 191.539C93.1881 191.496 93.2215 191.44 93.2364 191.378C93.2626 191.255 93.2783 191.127 93.2941 190.998L93.3465 190.896C94.0225 190.675 94.6933 190.469 95.3746 190.279C94.8542 191.023 94.4118 191.816 94.054 192.647C93.0793 194.798 92.3109 197.033 91.7586 199.324C90.6266 203.643 90.0029 208.055 89.1906 212.415C89.1833 212.46 89.1931 212.506 89.2182 212.544C89.2434 212.583 89.282 212.611 89.3268 212.623C89.3716 212.635 89.4194 212.63 89.461 212.61C89.5026 212.59 89.5351 212.555 89.5522 212.513C90.8152 208.558 91.4651 204.408 92.4765 200.387C93.0108 198.158 93.6971 195.967 94.5309 193.828C94.8797 192.934 95.3149 192.074 95.8305 191.26C96.1607 190.747 96.6586 190.32 97.0202 189.833C97.9163 189.607 98.8125 189.406 99.7191 189.227C99.2766 189.808 98.9071 190.439 98.6186 191.106C97.9765 192.543 97.4797 194.038 97.1355 195.569C96.4018 198.564 96.0559 201.64 95.2698 204.619C95.2069 204.855 95.5842 205.035 95.6943 204.793C96.8525 202.2 97.1879 199.277 97.7906 196.535C98.0988 195.004 98.5352 193.501 99.0955 192.041C99.5997 190.971 100.211 189.953 100.919 189.001C101.58 188.882 102.245 188.78 102.911 188.692C100.678 192.216 100.128 196.689 99.52 200.705C99.5012 200.773 99.5108 200.846 99.5467 200.907C99.5826 200.968 99.6418 201.013 99.7113 201.031C99.7808 201.05 99.8549 201.04 99.9173 201.005C99.9797 200.97 100.025 200.912 100.044 200.844C101.323 196.766 101.543 192.19 104.001 188.554C104.782 188.466 105.573 188.395 106.349 188.343C106.244 193.921 106.039 199.416 105.447 204.978C105.447 205.153 105.704 205.173 105.751 205.014C107.433 199.678 106.831 193.833 106.694 188.323C107.376 188.276 108.062 188.251 108.744 188.24C109.639 191.292 110.27 194.412 110.63 197.567C110.981 200.726 110.987 203.905 111.102 207.074C111.112 207.149 111.149 207.219 111.208 207.269C111.266 207.319 111.341 207.347 111.419 207.347C111.497 207.347 111.572 207.319 111.63 207.269C111.688 207.219 111.726 207.149 111.736 207.074C112.512 200.703 111.727 194.244 109.446 188.23C109.902 188.23 110.363 188.23 110.819 188.23C111.183 189.742 111.645 191.229 112.202 192.683C112.726 194.28 113.167 195.908 113.549 197.542C114.372 201.008 114.461 204.444 114.76 207.962C114.786 208.311 115.321 208.43 115.415 208.05C116.259 204.614 115.672 200.787 114.828 197.403C114.372 195.643 113.796 193.915 113.104 192.231C112.616 190.831 111.961 189.491 111.154 188.24H111.395C112.281 188.271 113.161 188.333 114.016 188.415C117.805 196.057 120.614 204.131 120.027 212.754C120.031 212.81 120.054 212.864 120.094 212.905C120.133 212.946 120.186 212.973 120.243 212.981C120.3 212.989 120.358 212.977 120.407 212.948C120.457 212.919 120.494 212.874 120.514 212.821C121.415 208.476 120.897 204.028 119.665 199.796C118.543 195.758 116.76 191.925 114.388 188.446C115.137 188.523 115.881 188.615 116.625 188.723C117.81 190.942 119.062 193.125 120.1 195.4C121.232 197.891 121.966 200.51 123.045 203.006C123.176 203.304 123.69 203.15 123.669 202.842C123.47 200.222 122.285 197.624 121.159 195.277C120.116 193.022 118.867 190.865 117.427 188.831C118.203 188.954 118.968 189.098 119.733 189.257C120.692 191.579 121.866 193.823 122.773 196.175C123.816 198.881 124.691 201.645 125.393 204.454C126.745 210.036 127.611 215.719 127.982 221.444C127.982 221.507 128.007 221.567 128.053 221.611C128.098 221.655 128.159 221.68 128.223 221.68C128.287 221.68 128.348 221.655 128.394 221.611C128.439 221.567 128.464 221.507 128.464 221.444C128.852 215.692 128.024 209.904 126.567 204.336C125.823 201.47 124.897 198.652 123.795 195.898C122.958 193.66 121.905 191.505 120.65 189.463C121.59 189.675 122.521 189.915 123.444 190.182C124.224 191.522 125.105 192.796 125.791 194.193C126.69 196.028 127.474 197.914 128.139 199.842C128.779 201.671 129.318 203.525 129.801 205.394C130.235 207.069 130.539 208.805 131.121 210.443C131.284 210.895 132.064 210.859 132.028 210.32C131.851 208.542 131.511 206.783 131.011 205.066C130.487 203.011 129.905 201.013 129.198 199.036C128.589 197.166 127.809 195.354 126.866 193.623C126.257 192.501 125.515 191.455 124.654 190.505C125.482 190.757 126.295 191.019 127.107 191.332C127.131 191.368 127.161 191.399 127.196 191.425C128.867 192.608 130.268 194.119 131.31 195.862C132.434 197.914 133.268 200.107 133.789 202.38C134.989 207.192 135.361 212.138 135.717 217.042C135.793 219.237 135.987 221.426 136.299 223.601C136.357 223.914 136.792 223.801 136.823 223.534C137.347 218.979 136.917 214.156 136.378 209.626C135.796 204.778 134.879 199.683 132.353 195.4C131.763 194.37 131.043 193.418 130.209 192.565C131.514 193.13 132.793 193.751 134.045 194.414C136.828 197.28 138.358 201.501 139.59 205.096C141.065 209.378 142.197 213.765 142.976 218.219C143.038 218.573 143.631 218.491 143.62 218.131C143.426 213.36 141.99 208.599 140.298 204.146C139.42 201.696 138.284 199.343 136.907 197.126C136.502 196.481 136.061 195.858 135.586 195.261L136.157 195.59C136.152 195.6 136.15 195.612 136.15 195.623C136.15 195.635 136.152 195.646 136.157 195.657C136.493 196.617 137.447 197.48 138.049 198.296C138.843 199.379 139.572 200.506 140.235 201.671C141.777 204.365 143.11 207.168 144.223 210.058C145.318 212.843 146.209 215.7 146.89 218.609C147.189 219.924 147.451 221.249 147.645 222.584C147.807 223.714 147.781 224.936 148.043 226.051C148.072 226.147 148.131 226.232 148.213 226.292C148.295 226.353 148.394 226.385 148.497 226.385C148.599 226.385 148.699 226.353 148.78 226.292C148.862 226.232 148.922 226.147 148.95 226.051C149.28 224.957 149.133 223.616 149.023 222.492C148.882 221.11 148.655 219.738 148.342 218.383C147.635 215.314 146.669 212.308 145.454 209.395C144.296 206.516 142.879 203.744 141.22 201.111C140.475 199.944 139.662 198.821 138.783 197.747C138.495 197.393 138.17 196.982 137.808 196.602C138.636 197.126 139.452 197.673 140.256 198.245C141.021 198.784 141.765 199.349 142.499 199.93C143.023 201.06 143.662 202.159 144.197 203.294C145.119 205.266 145.963 207.274 146.77 209.292C147.549 211.199 148.202 213.153 148.725 215.142C149.165 216.858 149.343 218.604 149.72 220.319C149.74 220.384 149.78 220.441 149.835 220.481C149.891 220.522 149.958 220.544 150.027 220.544C150.096 220.544 150.163 220.522 150.218 220.481C150.273 220.441 150.314 220.384 150.333 220.319C150.816 218.732 150.417 216.832 150.056 215.255C149.521 213.109 148.806 211.01 147.917 208.979C147.103 207.038 146.159 205.15 145.093 203.33C144.621 202.523 144.165 201.696 143.667 200.895C144.506 201.601 145.322 202.328 146.115 203.078C146.597 203.864 147.278 204.593 147.76 205.374C148.371 206.368 148.923 207.397 149.411 208.455C150.454 210.808 151.258 213.256 151.811 215.764C152.971 220.666 153.304 225.722 152.797 230.73C152.755 231.125 153.42 231.212 153.504 230.822C154.589 225.686 154.185 220.376 152.859 215.301C152.199 212.802 151.275 210.377 150.103 208.065C149.794 207.454 149.463 206.858 149.118 206.273C150.075 207.505 151.032 208.741 151.989 209.981C152.065 210.088 152.162 210.179 152.275 210.249C152.387 210.319 152.513 210.365 152.645 210.386L152.728 210.499C152.949 211.013 153.153 211.527 153.342 212.076C153.991 213.961 154.536 215.887 155.045 217.813C155.915 221.12 156.46 224.515 157.429 227.797C157.447 227.857 157.486 227.909 157.539 227.944C157.593 227.978 157.657 227.992 157.721 227.984C157.784 227.976 157.842 227.946 157.885 227.9C157.928 227.853 157.952 227.793 157.953 227.73C158.002 226.251 157.825 224.773 157.429 223.344C156.952 221.192 156.381 219.051 155.789 216.929C155.433 215.681 155.06 214.433 154.636 213.201C157.11 216.94 159.166 220.93 160.768 225.101C161.152 226.094 161.501 227.095 161.816 228.105C160.128 229.441 158.425 230.759 156.706 232.06C138.998 245.5 119.911 257.334 99.2841 265.957C89.8876 269.891 80.2658 273.332 70.5286 276.372C68.6839 276.947 66.8357 277.511 64.984 278.062C60.5676 271.949 57.1679 265.188 54.9115 258.032C52.0046 248.744 51.9027 238.83 54.618 229.487V229.487ZM143.384 245.747C150.197 241.448 156.538 236.502 162.859 231.541C163.068 232.315 163.267 233.09 163.456 233.868C163.47 233.945 163.505 234.016 163.559 234.073C163.613 234.131 163.683 234.172 163.76 234.191C163.76 234.772 163.76 235.347 163.76 235.922C161.182 237.894 158.619 239.897 156.098 241.941C156.061 241.972 156.098 242.039 156.151 242.008C158.661 240.113 161.208 238.264 163.765 236.43C163.769 237.178 163.825 237.924 163.933 238.665C163.98 238.973 164.022 239.281 164.064 239.594C163.949 239.851 163.844 240.108 163.739 240.385L162.167 241.412C162.226 241.221 162.275 241.028 162.314 240.832C162.335 240.755 162.327 240.673 162.291 240.602C162.255 240.531 162.194 240.474 162.119 240.444C162.044 240.413 161.961 240.41 161.884 240.435C161.807 240.46 161.742 240.512 161.7 240.58C161.379 241.115 161.104 241.675 160.878 242.255C159.543 243.121 158.201 243.977 156.853 244.823C156.866 244.78 156.877 244.738 156.884 244.694C156.9 244.634 156.894 244.57 156.87 244.513C156.845 244.455 156.802 244.407 156.747 244.376C156.692 244.345 156.628 244.332 156.565 244.339C156.502 244.347 156.443 244.374 156.397 244.417C156.017 244.782 155.708 245.212 155.485 245.685L152.225 247.709C152.156 247.668 152.073 247.654 151.994 247.672C151.915 247.689 151.846 247.735 151.801 247.801L151.633 248.068C147.441 250.623 143.225 253.114 138.987 255.541C125.844 263.046 112.393 270.007 98.6343 276.424C90.2912 280.337 81.8694 284.05 73.3691 287.563C72.4205 286.68 71.5086 285.766 70.6177 284.831C76.5868 282.556 82.4983 280.137 88.3836 277.723C90.8257 276.696 93.2521 275.669 95.6733 274.611C96.9632 273.964 98.2894 273.389 99.6457 272.89C99.8659 272.823 99.7715 272.479 99.5462 272.551C96.4385 273.512 93.4251 274.749 90.396 275.941C84.6313 278.201 78.9504 280.594 73.1804 282.818L69.8998 284.066C68.5477 282.594 67.2637 281.053 66.0479 279.444C74.5622 276.937 82.9682 274.095 91.2659 270.918C101.193 267.213 110.847 262.839 120.158 257.827C131.156 251.758 141.756 245.02 151.895 237.653C155.438 235.088 158.932 232.452 162.376 229.744C162.492 230.108 162.597 230.478 162.701 230.848C156.329 235.871 150.061 241.032 143.348 245.608C143.243 245.68 143.311 245.793 143.384 245.747ZM36.0294 283.927C35.9704 283.798 35.9451 283.657 35.956 283.516C36.0559 282.947 36.2812 282.405 36.6163 281.929C37.5308 280.499 38.6028 279.171 39.8131 277.97C43.161 274.558 46.7379 271.37 50.5198 268.427C52.0047 267.246 53.5052 266.085 55.0215 264.945C57.0799 269.808 59.6793 274.435 62.7725 278.74C57.5318 280.245 52.2335 281.611 46.888 282.72C44.3861 283.276 41.8544 283.694 39.3048 283.973C38.4978 284.065 37.685 284.098 36.8731 284.071C36.6595 284.074 36.4463 284.05 36.239 283.999C36.1661 283.985 36.0955 283.961 36.0294 283.927V283.927ZM59.8115 292.9C49.3302 296.854 38.6287 300.603 27.6653 303.094C24.0588 303.998 20.3745 304.572 16.6599 304.81C14.7156 304.892 12.0009 304.948 10.5074 303.782C10.2096 303.506 9.97173 303.173 9.80787 302.804C9.64401 302.435 9.55753 302.038 9.55356 301.636C9.5202 300.154 9.86422 298.687 10.5545 297.368C12.4831 293.259 15.7218 289.762 18.8662 286.546C20.5223 284.862 22.2255 283.222 23.9759 281.626C23.9705 281.735 23.9828 281.845 24.0125 281.95C24.082 282.169 24.2212 282.36 24.4099 282.496C24.5985 282.632 24.8266 282.705 25.0607 282.705C25.3055 282.698 25.5492 282.671 25.7891 282.623C25.9792 282.576 26.1463 282.465 26.2608 282.309C26.3813 282.164 26.4494 281.983 26.4547 281.796C26.447 281.64 26.404 281.487 26.3289 281.349C26.3203 281.332 26.3097 281.317 26.2975 281.303C26.3394 281.162 26.3394 281.012 26.2975 280.871C26.2481 280.696 26.139 280.542 25.9883 280.435C25.8499 280.323 25.6752 280.263 25.4956 280.265C27.798 278.211 30.1546 276.225 32.5653 274.308L32.5077 274.421L35.5368 273.907L35.846 274.22C33.025 276.543 30.3671 279.05 27.8906 281.724C24.6309 285.211 21.3136 289.073 19.5527 293.536C18.8033 295.421 18.3159 297.537 19.0811 299.484C19.0977 299.521 19.1274 299.551 19.1647 299.568C19.202 299.586 19.2445 299.59 19.2845 299.579C19.3244 299.569 19.3592 299.544 19.3824 299.511C19.4057 299.477 19.4159 299.437 19.4112 299.396C18.7038 295.319 20.9834 291.41 23.3103 288.205C26.1822 284.204 29.6987 280.63 33.2675 277.245C34.2266 276.336 35.1856 275.443 36.1289 274.528L37.6645 276.069L38.1099 273.08L40.8665 271.745L38.1047 270.415L38.047 270.029C41.0814 267.739 44.1629 265.505 47.2444 263.312C49.131 261.97 51.0281 260.648 52.9357 259.347C53.3655 260.716 53.8441 262.077 54.3717 263.43C50.5775 266.255 46.8775 269.208 43.3663 272.351C40.3896 275.001 36.9517 277.913 35.0232 281.441C34.2423 282.869 33.7811 285.114 35.8617 285.591C37.5439 285.982 39.483 285.622 41.1547 285.396C48.2716 284.425 55.3045 282.54 62.1855 280.599L63.7577 280.142C64.6416 281.32 65.5553 282.465 66.4986 283.578C66.8759 284.03 67.2637 284.472 67.662 284.913C62.9454 286.654 58.2288 288.318 53.4651 289.823C47.868 291.59 42.1347 293.351 36.2862 294.055C33.4457 294.399 27.943 295.134 27.1779 291.318C27.1779 291.287 27.1307 291.318 27.1255 291.318C26.8949 294.589 31.1608 295.005 33.5767 295.005C39.0113 295.005 44.5507 293.398 49.7232 291.924C56.012 290.121 62.2222 287.99 68.3642 285.689C69.2482 286.651 70.1618 287.586 71.1051 288.493C67.3738 289.996 63.6057 291.463 59.801 292.894L59.8115 292.9ZM164.436 243.441C164.645 246.491 164.589 249.553 164.268 252.593C163.678 258.1 162.102 263.461 159.615 268.432C158.604 270.461 157.453 272.421 156.172 274.297C152.797 277.076 148.96 279.233 145.14 281.405C144.873 281.554 145.108 281.919 145.376 281.796C147.944 280.727 150.894 279.546 153.441 277.928C152.77 278.75 152.072 279.553 151.345 280.337C148.531 281.503 145.999 283.419 143.311 284.821C141.748 285.666 140.11 286.369 138.416 286.921C136.928 287.394 135.272 287.502 133.831 288.144C133.806 288.158 133.786 288.179 133.774 288.205C133.761 288.23 133.757 288.259 133.761 288.287C133.765 288.314 133.777 288.341 133.796 288.362C133.815 288.383 133.84 288.398 133.867 288.406C135.356 288.755 137.012 288.164 138.432 287.671C139.973 287.109 141.477 286.452 142.934 285.704C145.307 284.55 147.62 283.278 149.862 281.893C149.142 282.616 148.407 283.323 147.655 284.014C146.256 284.451 144.831 285.555 143.615 286.197C142.006 287.086 140.402 287.984 138.767 288.822C137.066 289.745 135.316 290.582 133.527 291.328C131.79 291.955 130.019 292.488 128.223 292.925C128.205 292.925 128.188 292.932 128.175 292.945C128.162 292.957 128.155 292.974 128.155 292.992C128.155 293.01 128.162 293.027 128.175 293.039C128.188 293.052 128.205 293.059 128.223 293.059C131.755 292.833 135.487 291.343 138.636 289.833C140.36 289.007 142.048 288.113 143.714 287.178L144.396 286.798C142.265 288.502 140.036 290.083 137.719 291.533C136.802 292.103 135.874 292.668 134.936 293.213C134.318 293.408 133.71 293.634 133.123 293.814C131.713 294.23 130.288 294.594 128.852 294.887C127.389 295.186 125.911 295.409 124.424 295.555C123.02 295.602 121.62 295.727 120.231 295.93C120.206 295.937 120.185 295.952 120.169 295.972C120.154 295.993 120.146 296.017 120.146 296.043C120.146 296.068 120.154 296.093 120.169 296.113C120.185 296.133 120.206 296.148 120.231 296.156C122.893 296.952 126.179 296.3 128.852 295.771C129.643 295.611 130.424 295.432 131.215 295.257C128.891 296.459 126.497 297.529 124.046 298.462C123.669 298.534 123.292 298.636 122.914 298.698C121.91 298.861 120.892 298.931 119.875 298.909C118.24 298.883 116.494 298.354 114.875 298.487C114.858 298.488 114.842 298.494 114.828 298.504C114.815 298.515 114.805 298.529 114.801 298.546C114.797 298.562 114.799 298.579 114.805 298.595C114.812 298.61 114.824 298.623 114.838 298.631C116.175 299.617 118.454 299.658 120.079 299.684H120.477C118.905 300.167 117.291 300.583 115.672 300.912C115.651 300.875 115.621 300.846 115.583 300.826C115.546 300.806 115.504 300.796 115.462 300.799C113.648 300.891 111.831 300.68 110.09 300.172C110.077 300.166 110.062 300.164 110.048 300.168C110.034 300.173 110.022 300.182 110.015 300.194C110.008 300.207 110.005 300.221 110.009 300.235C110.012 300.249 110.021 300.262 110.033 300.27C110.761 300.939 111.7 301.347 112.695 301.425C110.182 301.777 107.642 301.902 105.107 301.8C93.7028 301.286 83.0538 296.181 74.6583 288.775C76.9956 287.81 79.3277 286.827 81.6546 285.827C80.9628 287.173 80.3601 288.56 79.6055 289.869C79.5164 290.018 79.7312 290.198 79.8623 290.059C81.0362 288.76 81.7699 287.091 82.4826 285.437C83.6984 284.924 84.909 284.41 86.1196 283.855C85.8209 284.369 85.5484 284.939 85.2759 285.478C84.4898 287.019 83.7037 288.56 82.9647 290.1C82.8756 290.285 83.101 290.486 83.2582 290.326C85.1291 288.452 85.7947 285.704 87.1049 283.419L87.6813 283.167L91.0563 281.662C90.4274 282.664 89.8981 283.717 89.3479 284.744C88.2683 286.762 87.2778 288.827 86.3554 290.907C86.2768 291.092 86.5127 291.333 86.6646 291.143C87.9705 289.368 89.1023 287.477 90.0449 285.494C90.8362 283.953 91.6642 282.489 92.4765 280.984L96.2708 279.253C95.2996 280.655 94.4242 282.119 93.6504 283.634C92.4398 285.766 91.2554 287.918 89.982 290.029C89.8143 290.311 90.2388 290.542 90.4274 290.28C91.8581 288.277 93.1316 286.172 94.4365 284.117C95.579 282.289 97.0149 280.522 97.8954 278.519C99.3942 277.834 100.89 277.132 102.381 276.413C101.003 278.365 99.9654 280.625 98.823 282.664C97.1984 285.55 95.5318 288.416 93.6609 291.153C93.4932 291.4 93.881 291.667 94.0802 291.472C96.2268 288.972 98.0845 286.247 99.6195 283.347C100.977 280.902 102.539 278.421 103.623 275.823C105.255 275.049 106.881 274.263 108.502 273.465C107.931 274.333 107.454 275.258 106.93 276.1C105.804 277.97 104.693 279.834 103.398 281.601C103.026 282.114 103.87 282.561 104.242 282.083C105.566 280.348 106.79 278.543 107.91 276.675C108.796 275.358 109.592 273.986 110.295 272.567C111.579 271.935 112.863 271.298 114.136 270.651C113.654 271.226 113.214 271.832 112.8 272.366C111.589 273.969 110.465 275.632 109.43 277.348C107.334 280.769 105.29 284.235 102.984 287.527C102.801 287.789 103.209 288.092 103.424 287.866C106.113 285.031 108.01 281.626 110.012 278.319C111.023 276.655 112.05 274.996 113.156 273.393C114.031 272.13 115.252 270.954 116.133 269.639C117.511 268.941 118.884 268.232 120.257 267.523C119.283 268.823 118.418 270.214 117.553 271.555C116.117 273.779 114.77 276.064 113.324 278.288C113.02 278.755 113.764 279.166 114.079 278.719C115.572 276.598 116.94 274.415 118.323 272.228C119.555 270.276 120.944 268.427 122.207 266.506C123.354 265.9 124.502 265.299 125.645 264.688C125.121 265.387 124.597 266.1 124.114 266.742C122.542 268.797 121.091 270.908 119.686 273.054C116.896 277.279 114.379 281.67 112.15 286.202C112.126 286.255 112.123 286.315 112.141 286.371C112.16 286.426 112.198 286.472 112.249 286.502C112.301 286.531 112.361 286.541 112.419 286.529C112.477 286.517 112.529 286.485 112.564 286.439C115.452 282.453 117.883 278.134 120.556 274.01C121.882 271.955 123.26 269.937 124.717 267.975C125.456 266.984 126.211 266.013 126.986 265.053C127.51 264.431 128.076 263.836 128.558 263.194L129.968 262.444C129.675 262.901 129.413 263.363 129.161 263.753C127.741 265.952 126.483 268.258 125.126 270.487C122.06 275.535 118.868 280.481 115.598 285.381C115.483 285.555 115.756 285.766 115.892 285.601C119.528 281.172 122.819 276.482 125.739 271.57C127.137 269.29 128.503 266.991 129.837 264.673C130.487 263.548 131.409 262.526 131.933 261.35C133.303 260.6 134.666 259.845 136.021 259.085C134.926 260.831 133.956 262.68 132.877 264.411C131.305 266.912 129.633 269.362 128.034 271.853C126.436 274.344 124.89 276.742 123.428 279.233C121.966 281.724 120.435 284.194 119.393 286.844C119.366 286.916 119.482 286.957 119.518 286.896C121.059 284.4 122.443 281.816 124.036 279.346C125.629 276.876 127.348 274.4 129.035 271.945C130.723 269.49 132.264 267.148 133.789 264.698C135.036 262.69 136.493 260.559 137.384 258.325C138.521 257.683 139.658 257.041 140.79 256.389C140.539 256.933 140.298 257.477 140.03 257.981C139.27 259.429 138.458 260.852 137.661 262.274C136.047 265.104 134.297 267.862 132.583 270.635C132.426 270.892 132.809 271.093 132.982 270.867C135.02 268.212 136.864 265.42 138.5 262.511C139.312 261.093 140.072 259.634 140.78 258.166C141.157 257.39 141.623 256.548 141.996 255.695C143.211 254.99 144.434 254.281 145.664 253.569C144.873 254.935 144.149 256.363 143.374 257.678C142.032 259.968 140.638 262.233 139.255 264.508C136.488 269.048 133.49 273.476 130.969 278.16C130.959 278.178 130.952 278.198 130.949 278.219C130.946 278.24 130.948 278.261 130.953 278.281C130.959 278.301 130.968 278.32 130.981 278.337C130.995 278.353 131.011 278.367 131.029 278.378C131.048 278.388 131.069 278.395 131.09 278.398C131.111 278.4 131.133 278.399 131.153 278.394C131.174 278.388 131.193 278.379 131.21 278.366C131.227 278.353 131.242 278.337 131.252 278.319C134.486 273.989 137.316 269.352 140.161 264.77C141.566 262.511 142.907 260.215 144.228 257.909C145.171 256.255 146.272 254.514 147.079 252.722C148.096 252.122 149.109 251.516 150.119 250.903C149.636 251.931 149.18 252.958 148.677 253.949C147.603 256.029 146.45 258.058 145.292 260.112C142.96 264.221 140.408 268.155 137.756 272.053C137.646 272.217 137.908 272.423 138.039 272.269C141.056 268.598 143.784 264.707 146.199 260.631C147.399 258.623 148.494 256.548 149.553 254.468C150.286 253.019 151.156 251.484 151.78 249.912L153.965 248.572L153.845 248.793C153.017 250.364 152.204 251.941 151.382 253.512C149.744 256.727 147.915 259.845 145.905 262.849C145.737 263.091 146.13 263.399 146.319 263.168C148.556 260.367 150.489 257.344 152.084 254.149C152.949 252.526 153.766 250.878 154.61 249.239C154.882 248.726 155.16 248.176 155.443 247.647C156.862 246.76 158.275 245.865 159.683 244.961C159.374 245.608 159.064 246.25 158.75 246.892C157.702 248.998 156.596 251.068 155.433 253.102C153.08 257.21 150.491 261.221 148.232 265.392C148.208 265.432 148.201 265.48 148.212 265.525C148.224 265.57 148.254 265.609 148.295 265.633C148.336 265.657 148.385 265.664 148.431 265.652C148.477 265.641 148.517 265.612 148.541 265.572C151.369 261.65 153.969 257.576 156.329 253.369C157.487 251.314 158.603 249.26 159.641 247.159C160.14 246.132 160.616 245.105 161.066 244.078L162.874 242.902C162.518 244.032 162.177 245.161 161.795 246.25C160.888 248.762 159.84 251.247 158.76 253.713C156.533 258.648 153.656 263.194 151.02 267.913C150.92 268.088 151.177 268.309 151.313 268.139C154.809 263.938 157.497 258.992 159.772 254.072C160.851 251.73 161.8 249.327 162.649 246.882C163.173 245.341 163.797 243.667 164.221 241.998L164.31 241.936C164.357 242.414 164.399 242.927 164.436 243.441ZM210.769 195.045C210.373 196.838 209.686 198.556 208.735 200.135C205.727 205.482 201.398 210.109 196.996 214.392C189.916 221.3 182.092 227.473 174.042 233.262C171.348 235.196 168.625 237.09 165.872 238.942C165.841 238.742 165.814 238.541 165.783 238.346C165.617 237.392 165.333 236.461 164.939 235.573C168.293 233.174 171.663 230.781 174.975 228.321C181.133 223.75 187.322 219.107 192.757 213.699C192.898 213.56 192.688 213.36 192.536 213.488C186.552 218.558 180.441 223.457 174.126 228.131C170.982 230.457 167.837 232.784 164.75 235.146C164.588 234.787 164.42 234.427 164.226 234.063C164.289 234.008 164.336 233.937 164.36 233.858C164.384 233.779 164.385 233.696 164.363 233.616C164.153 232.707 163.917 231.798 163.666 230.894C168.665 226.97 173.67 223.051 178.911 219.446C179.042 219.354 178.911 219.143 178.78 219.23C173.481 222.622 168.373 226.291 163.477 230.221C163.372 229.851 163.262 229.482 163.152 229.117C167.381 225.758 171.537 222.276 175.504 218.65C178.182 216.221 180.803 213.704 183.276 211.044C184.837 209.465 186.216 207.724 187.39 205.851C188.009 204.773 188.575 203.34 187.259 202.508C185.341 201.291 182.097 201.928 180.006 202.189C172.04 203.217 164.143 205.271 156.465 207.557C155.302 207.899 154.143 208.26 152.99 208.64C152.246 207.671 151.499 206.704 150.747 205.738C159.919 202.143 169.09 198.584 178.455 195.467C183.046 193.926 187.684 192.508 192.395 191.358C196.063 190.464 199.868 189.668 203.678 189.581C205.916 189.535 209.233 189.581 210.491 191.805C210.674 192.233 210.806 192.682 210.884 193.14C210.933 193.777 210.894 194.418 210.769 195.045V195.045Z" fill="#FAC07F"/>
<path d="M197.777 199.272C196.787 197.731 194.811 197.182 193.061 197.002C189.34 196.622 185.467 197.516 181.856 198.296C178.355 199.051 174.802 199.945 171.26 200.464C171.223 200.464 171.233 200.531 171.26 200.531C174.173 200.592 176.967 199.806 179.781 199.123C183.07 198.251 186.435 197.686 189.832 197.434C193.349 197.254 198.831 198.05 197.473 202.698C196.368 206.504 192.993 209.77 190.236 212.497C186.595 216.026 182.765 219.364 178.764 222.497C175.766 224.89 172.475 227.057 169.698 229.713C169.493 229.903 169.766 230.278 170.007 230.108C177.197 224.998 184.283 219.461 190.524 213.257C193.401 210.402 196.813 207.017 198.039 203.057C198.448 201.84 198.521 200.423 197.777 199.272Z" fill="#FAC07F"/>
<path d="M199.287 194.301C199.103 194.224 198.946 194.486 199.13 194.563C200.859 195.297 201.808 196.925 202.588 198.523C202.625 198.6 202.756 198.523 202.73 198.466C202.117 196.704 201.09 195.061 199.287 194.301Z" fill="#FAC07F"/>
<path d="M37.162 74.9017C34.8635 83.1247 33.4357 91.5578 32.9014 100.068C31.7191 117.426 33.6905 134.852 38.7238 151.534C41.2812 159.962 44.5409 168.591 49.6872 175.853C49.7331 175.93 49.8083 175.986 49.8962 176.008C49.9842 176.031 50.0777 176.018 50.1562 175.973C50.2348 175.928 50.2919 175.855 50.315 175.769C50.3381 175.682 50.3253 175.591 50.2794 175.514C46.6738 168.503 43.3093 161.441 40.8462 153.943C38.204 145.868 36.3097 137.576 35.1863 129.168C32.9066 112.317 33.3311 94.8495 37.4346 78.3222C37.7175 77.1752 38.0215 76.0351 38.3464 74.9017C39.2635 71.6405 38.2573 71.0036 37.162 74.9017Z" fill="#FAC07F"/>
<path d="M73.8935 169.592C68.7262 163.943 63.8891 158.072 59.8328 151.581C55.6323 144.858 52.1214 137.744 49.3515 130.344C46.6269 123.091 44.6346 115.595 43.4033 107.961C43.2671 107.14 43.1465 106.313 43.0312 105.486C43.2863 105.427 43.5135 105.285 43.6761 105.084C43.8388 104.883 43.9273 104.633 43.9274 104.377C43.9274 104.253 43.9274 104.13 43.9274 104.002C43.9494 103.888 43.9634 103.773 43.9693 103.658C43.9797 103.584 43.9797 103.51 43.9693 103.437C43.9693 103.411 43.9693 103.39 43.9693 103.385C44.0346 103.199 44.0613 103.002 44.0479 102.805C44.0412 102.673 43.983 102.549 43.8855 102.458C43.7879 102.367 43.6584 102.317 43.5239 102.317C43.211 102.311 42.902 102.385 42.6277 102.533C41.9307 96.3389 41.7944 90.0475 42.7797 83.9101C43.5605 79.0515 44.8393 74.2905 45.9241 69.4936C46.9722 64.8713 47.9051 60.0539 47.5959 55.2775C47.5863 55.2072 47.551 55.1427 47.4965 55.0959C47.4421 55.0492 47.3721 55.0234 47.2998 55.0234C47.2274 55.0234 47.1574 55.0492 47.103 55.0959C47.0485 55.1427 47.0132 55.2072 47.0037 55.2775C46.6976 59.7719 46.037 64.2363 45.0279 68.6308C44.0584 72.9604 42.9317 77.2591 42.1089 81.6195C40.762 88.8097 40.8511 96.0873 41.6844 103.324C41.5726 103.667 41.5246 104.027 41.5429 104.387C41.5503 104.703 41.6839 105.003 41.915 105.224L41.9936 105.815C44.1326 121.336 49.4137 136.283 57.5269 149.778C61.9291 157.055 67.1383 164.199 73.6157 169.844C73.6326 169.862 73.6529 169.876 73.6754 169.886C73.698 169.896 73.7224 169.902 73.7472 169.903C73.772 169.904 73.7968 169.9 73.8201 169.892C73.8434 169.883 73.8648 169.871 73.883 169.854C73.9012 169.837 73.916 169.818 73.9264 169.795C73.9368 169.773 73.9426 169.749 73.9436 169.725C73.9446 169.701 73.9406 169.677 73.932 169.654C73.9234 169.631 73.9103 169.61 73.8935 169.592Z" fill="#FAC07F"/>
<path d="M48.7389 75.323C48.5887 82.0739 48.939 88.8265 49.787 95.5276C51.4693 108.763 55.1692 121.808 61.6466 133.585C63.4528 136.89 65.4947 140.067 67.7572 143.091C69.9583 146.013 72.369 148.972 75.1885 151.35C75.2288 151.389 75.2835 151.411 75.3405 151.411C75.3975 151.411 75.4522 151.389 75.4925 151.35C75.5328 151.31 75.5554 151.257 75.5554 151.201C75.5554 151.145 75.5328 151.091 75.4925 151.052C73.3647 148.453 71.127 145.972 69.125 143.271C67.1767 140.639 65.3799 137.902 63.7429 135.074C60.425 129.317 57.7256 123.237 55.688 116.934C51.6164 104.24 49.5659 91.0071 49.6088 77.701C49.6088 76.8998 49.6088 76.0986 49.6088 75.2974" fill="#FAC07F"/>
<path d="M53.8585 183.567C54.8379 182.402 56.1586 181.559 57.6422 181.153C59.2747 180.645 60.9923 180.454 62.6995 180.588C64.4027 180.711 65.9435 181.338 67.5995 181.615C67.6925 181.638 67.7907 181.631 67.8792 181.595C67.9678 181.559 68.0417 181.495 68.0898 181.413C68.1378 181.332 68.1574 181.237 68.1456 181.144C68.1337 181.05 68.091 180.963 68.024 180.896C66.8291 179.458 64.4656 179.068 62.6995 178.955C61.8521 178.904 61.0019 178.923 60.1578 179.011C59.8069 178.107 59.6987 177.13 59.8437 176.173C59.9887 175.216 60.3819 174.312 60.9858 173.547C62.3693 171.708 64.366 170.886 66.4203 169.952C66.7662 169.797 66.5618 169.315 66.2369 169.299C63.5694 169.155 60.9439 171.241 59.5918 173.336C58.4179 175.154 58.1034 177.332 59.0677 179.15C58.2114 179.299 57.3723 179.532 56.5627 179.843C54.9276 180.485 53.3344 181.533 52.4697 183.084C51.7308 184.404 51.3168 186.715 52.4697 187.927C52.5049 187.96 52.5481 187.983 52.5951 187.995C52.6421 188.007 52.6914 188.006 52.7382 187.994C52.785 187.981 52.8278 187.957 52.8625 187.924C52.8971 187.891 52.9225 187.85 52.9361 187.804C53.0933 187.059 52.9361 186.263 53.02 185.529C53.1351 184.818 53.4226 184.145 53.8585 183.567V183.567Z" fill="#FAC07F"/>
<path d="M29.1442 217.058C29.1926 217.104 29.2522 217.137 29.3173 217.154C29.3825 217.171 29.451 217.171 29.5162 217.155C29.5815 217.138 29.6413 217.105 29.69 217.06C29.7386 217.014 29.7745 216.957 29.7941 216.894C30.0404 215.892 29.6002 214.613 29.6002 213.56C29.618 212.307 29.8247 211.062 30.2133 209.868C31.0463 207.317 32.4541 204.982 34.3325 203.037C35.3179 201.985 36.4403 201.065 37.6708 200.3C37.9891 200.389 38.3234 200.41 38.6508 200.361C38.6879 200.351 38.7217 200.331 38.7487 200.304C38.7758 200.276 38.7952 200.243 38.8052 200.206C38.8152 200.17 38.8154 200.131 38.8058 200.094C38.7962 200.058 38.7771 200.024 38.7504 199.997C38.6927 199.93 38.6246 199.868 38.5565 199.801C39.2427 199.453 39.9624 199.173 40.7051 198.964C43.2364 198.276 45.2855 198.964 47.5756 199.991C47.6737 200.043 47.7873 200.059 47.8962 200.036C48.0051 200.014 48.1023 199.954 48.1707 199.868C48.2391 199.782 48.2742 199.675 48.2699 199.566C48.2655 199.457 48.2219 199.353 48.1469 199.272C45.3798 196.252 40.6003 197.095 37.3406 198.908C36.9015 198.649 36.4967 198.339 36.1353 197.983C35.4205 197.209 34.9159 196.271 34.6679 195.256C34.0914 193.043 34.5054 190.659 35.2548 188.538C36.9057 183.865 40.768 179.176 45.8567 177.953C47.2045 177.625 48.6126 177.614 49.9654 177.922C51.6005 178.297 52.963 179.165 54.4566 179.869C54.5492 179.912 54.654 179.922 54.7533 179.897C54.8526 179.873 54.9403 179.816 55.0018 179.736C55.0633 179.656 55.0948 179.557 55.0909 179.457C55.0871 179.357 55.0481 179.261 54.9807 179.186C53.0678 176.885 49.5985 176.002 46.6952 176.361C43.7919 176.721 41.2816 178.215 39.2273 180.162C35.3649 183.798 32.231 189.797 33.4206 195.164C33.6898 196.436 34.289 197.62 35.1605 198.6C35.4906 198.964 35.8576 199.294 36.2558 199.586C32.5256 202.153 29.8312 205.92 28.6411 210.232C28.3157 211.435 28.164 212.676 28.1904 213.92C28.2219 214.855 28.3581 216.416 29.1442 217.058Z" fill="#FAC07F"/>
<path d="M73.0448 190.618C73.9934 189.811 75.1171 189.226 76.3307 188.908C77.4575 188.615 78.6785 188.785 79.7791 188.461C79.8435 188.441 79.9007 188.403 79.944 188.352C79.9874 188.302 80.015 188.24 80.0238 188.174C80.0326 188.108 80.0222 188.042 79.9937 187.981C79.9652 187.921 79.9198 187.87 79.8629 187.835C78.7257 187.013 76.9124 187.321 75.6704 187.706C74.2999 188.117 73.0385 188.818 71.9757 189.761C70.5084 191.07 68.8313 193.679 69.5441 195.749C69.2455 195.806 68.9513 195.883 68.6636 195.98L68.5064 196.037C67.605 194.496 64.948 193.715 63.3391 193.833C61.2062 193.982 59.3982 195.302 58.0985 196.884C56.6356 198.692 55.5655 200.773 54.9541 203.001C54.3933 204.947 54.0422 207.11 54.8493 209.025C54.9436 209.251 55.3366 209.251 55.3157 208.964C55.1361 205.146 56.3327 201.388 58.6959 198.348C59.744 197.038 61.1852 195.723 62.8884 195.415C63.734 195.273 64.6036 195.378 65.3882 195.718C65.9736 196.015 66.5328 196.358 67.06 196.745C65.7918 197.567 64.8013 198.8 64.7856 200.341C64.7762 200.405 64.7915 200.472 64.8286 200.526C64.8658 200.581 64.9221 200.62 64.9868 200.636C65.0516 200.653 65.1203 200.645 65.1798 200.616C65.2393 200.586 65.2855 200.535 65.3096 200.474C66.4206 199.015 67.5631 197.721 69.4393 197.254C70.3128 197.036 71.2231 196.999 72.112 197.146C72.8352 197.259 73.5479 197.66 74.2083 197.238C74.2714 197.199 74.3205 197.141 74.3487 197.073C74.3768 197.005 74.3827 196.93 74.3655 196.858C74.1558 195.58 72.2692 195.405 70.697 195.559C70.6725 194.809 70.777 194.061 71.0062 193.345C71.4393 192.282 72.1407 191.344 73.0448 190.618V190.618Z" fill="#FAC07F"/>
<path d="M33.1736 217.181C34.233 216.503 35.4317 216.061 36.6849 215.887C38.168 215.682 39.562 216.067 41.0346 216.062C41.0805 216.058 41.1242 216.041 41.1595 216.012C41.1949 215.983 41.2201 215.944 41.2317 215.901C41.2432 215.857 41.2406 215.811 41.224 215.769C41.2075 215.727 41.1779 215.691 41.1394 215.666C39.0432 214.321 35.7573 214.762 33.6034 215.702C31.3195 216.791 29.449 218.565 28.2631 220.766C25.6428 225.291 25.1187 231.264 27.2517 236.061C28.4308 238.69 30.6267 240.919 33.5405 241.592C33.5749 241.606 33.6117 241.613 33.6489 241.613C33.6861 241.613 33.7229 241.605 33.7572 241.591C33.7915 241.577 33.8227 241.557 33.8489 241.531C33.8751 241.505 33.8958 241.474 33.9099 241.441C33.924 241.407 33.9312 241.371 33.9311 241.334C33.931 241.298 33.9235 241.262 33.9092 241.228C33.8948 241.195 33.8738 241.164 33.8474 241.138C33.821 241.113 33.7898 241.092 33.7553 241.078C29.4161 238.511 27.2045 234.253 27.2569 229.302C27.2936 224.782 29.1331 219.729 33.1736 217.181Z" fill="#FAC07F"/>
<path d="M130.901 169.792C132.206 167.985 133.553 166.12 135.901 165.643C137.861 165.242 139.863 165.884 141.524 166.891C143.443 168.099 145.028 169.754 146.136 171.708C147.388 173.845 147.645 176.033 148.038 178.385C148.096 178.729 148.562 178.667 148.683 178.385C149.521 175.909 148.51 172.92 147.278 170.737C145.979 168.481 144.065 166.625 141.749 165.376C139.774 164.323 137.326 163.722 135.125 164.42C134.044 164.767 133.067 165.373 132.285 166.182C131.338 167.122 130.712 168.325 130.492 169.628C130.483 169.678 130.491 169.73 130.515 169.775C130.54 169.82 130.58 169.855 130.628 169.874C130.676 169.894 130.73 169.896 130.78 169.881C130.829 169.866 130.872 169.835 130.901 169.792V169.792Z" fill="#FAC07F"/>
<path d="M67.6779 9.94311C68.0919 11.2014 68.4745 12.4648 68.8465 13.7385C69.1191 14.6733 69.1924 16.0805 70.1043 16.63C70.1817 16.6734 70.2733 16.6853 70.3595 16.6632C70.4457 16.6411 70.5196 16.5868 70.5655 16.5119C71.2048 15.6645 70.6127 14.2521 70.3663 13.3277C70.0257 12.0488 69.5698 10.8008 69.1243 9.55279C68.6788 8.30477 68.2177 7.06188 67.7617 5.819C67.3971 4.6016 66.9507 3.40918 66.4254 2.24956C66.38 2.1806 66.3134 2.12762 66.2352 2.09835C66.157 2.06908 66.0713 2.06504 65.9906 2.08682C65.9099 2.1086 65.8384 2.15506 65.7865 2.21943C65.7346 2.28381 65.7051 2.36273 65.7021 2.44472C65.7819 3.71317 66.0412 4.9646 66.4725 6.1631C66.8341 7.4368 67.2639 8.68996 67.6779 9.94311Z" fill="#FAC07F"/>
<path d="M64.0729 19.3572C65.3097 19.7065 66.557 20.0249 67.7833 20.4101C69.3555 20.898 70.5871 21.807 70.3093 23.5738C70.0578 25.1813 69.6123 26.8094 69.2612 28.3912C68.4342 31.8479 67.3946 35.2523 66.1482 38.586C65.5403 40.2603 64.9062 41.9243 64.2616 43.5832C63.9524 44.3793 63.6432 45.1753 63.3602 45.9817C63.2187 46.3823 63.0615 46.7828 62.9357 47.1886C62.8522 47.6628 62.7437 48.1325 62.6108 48.5958C62.4903 48.8834 62.899 49.0272 63.0929 48.868C64.3455 47.8408 64.8433 45.7865 65.4198 44.3382C66.1482 42.479 66.8715 40.6198 67.5632 38.7452C69.0001 34.9509 70.1818 31.0684 71.1007 27.1227C71.7138 24.3596 72.8406 21.2318 69.6805 19.5678C68.4018 18.99 67.0552 18.5691 65.6713 18.3146C64.0258 17.914 62.4221 17.4929 60.7975 17.0307C60.7204 17.0139 60.6399 17.0216 60.5675 17.0526C60.4952 17.0837 60.4348 17.1365 60.3951 17.2034C60.3554 17.2703 60.3385 17.3479 60.3468 17.4248C60.3551 17.5018 60.3881 17.5742 60.4412 17.6316C61.3164 18.6639 62.8152 19.0028 64.0729 19.3572Z" fill="#FAC07F"/>
<path d="M30.2548 42.1144C30.346 42.1648 30.4491 42.1908 30.5538 42.1899C30.6584 42.1889 30.761 42.1611 30.8512 42.109C30.9415 42.057 31.0162 41.9827 31.0679 41.8935C31.1195 41.8043 31.1464 41.7034 31.1458 41.6008C31.1458 40.892 30.7055 40.2808 30.7265 39.5464C30.7823 38.8444 31.0304 38.1702 31.4445 37.5948C32.4088 36.1156 33.9338 35.0268 35.375 33.9997C36.8162 32.9725 38.467 32.0326 40.0025 31.026C41.1376 30.383 42.1173 29.507 42.8744 28.458C42.9949 28.2731 42.7329 28.0934 42.5756 28.2321C41.3965 29.2592 39.8557 30.045 38.5194 30.8616C36.743 31.8887 35.0218 33.0046 33.3626 34.2051C32.021 35.2323 30.6269 36.4187 29.8985 37.9543C29.3115 39.1612 29.0128 41.1899 30.2548 42.1144Z" fill="#FAC07F"/>
<path d="M69.7013 54.8204C68.8394 54.6987 67.9939 54.4834 67.1805 54.1784C66.7552 54.0615 66.3543 53.872 65.9962 53.6186C65.5874 53.2283 65.797 52.7866 65.9228 52.2165C66.4424 50.201 67.0918 48.2197 67.8671 46.2846C68.3911 44.7746 69.5022 42.3043 68.8733 40.7121C68.8625 40.6556 68.8338 40.6038 68.7912 40.5643C68.7485 40.5247 68.6942 40.4994 68.636 40.492C68.5778 40.4846 68.5187 40.4955 68.4672 40.523C68.4156 40.5506 68.3743 40.5934 68.3492 40.6454C67.7203 41.5493 67.5893 42.8846 67.2225 43.9169C66.8137 45.0777 66.3682 46.2281 65.928 47.3785C65.4878 48.529 65.0476 49.7 64.7069 50.8915C64.4816 51.6824 63.816 53.331 64.2353 54.1117C64.5864 54.7639 65.7079 55.3392 66.3578 55.6525C67.2647 56.059 68.2266 56.3357 69.2139 56.4742C70.9591 56.7464 73.375 57.0751 74.8424 55.9092C75.1516 55.6627 74.942 55.2056 74.6223 55.0978C73.113 54.5893 71.3207 55.0464 69.7013 54.8204Z" fill="#FAC07F"/>
<path d="M50.635 29.1975C52.6579 28.7352 54.424 27.2715 56.1587 26.2238C57.1126 25.6296 58.1153 25.1143 59.1563 24.683C59.8271 24.416 60.9382 24.3697 61.3207 23.7072C61.342 23.6697 61.3504 23.6265 61.3448 23.584C61.3391 23.5415 61.3197 23.5018 61.2893 23.471C60.6866 22.906 59.7171 23.3528 59.0358 23.5993C58.8786 23.6558 58.7161 23.7175 58.5589 23.7842C58.7645 23.6333 58.9622 23.4721 59.1511 23.3015C59.324 23.1423 59.1511 22.906 58.931 22.9368C57.4269 23.1628 56.1063 24.1746 54.8276 24.9193C53.6484 25.6023 52.0762 26.1467 51.1591 27.1534C51.1515 27.1628 51.1466 27.1741 51.145 27.186C51.1434 27.1979 51.1451 27.21 51.1499 27.2211C51.1548 27.2321 51.1626 27.2417 51.1725 27.2487C51.1824 27.2558 51.1941 27.2601 51.2063 27.2612C52.0203 27.3005 52.8285 27.1078 53.5331 26.7066C52.4661 27.4003 51.4614 28.1821 50.5302 29.0434C50.522 29.0602 50.5184 29.0789 50.5198 29.0975C50.5212 29.1161 50.5275 29.134 50.538 29.1496C50.5486 29.1651 50.5631 29.1777 50.5801 29.1861C50.5971 29.1945 50.616 29.1984 50.635 29.1975V29.1975Z" fill="#FAC07F"/>
</svg>
