<svg width="315" height="462" viewBox="0 0 315 462" fill="none" xmlns="http://www.w3.org/2000/svg">
<g clip-path="url(#clip0)">
<path d="M58.1813 72.5599C58.1005 72.5709 58.0186 72.5709 57.9379 72.5599L46.8234 69.0768C41.6504 67.4645 38.3564 64.5138 37.7858 60.9698C37.2381 57.5627 39.1628 54.1253 43.2023 51.2277L69.6076 32.2987C69.7489 32.1989 69.9177 32.1453 70.0907 32.1453C70.2637 32.1453 70.4325 32.1989 70.5738 32.2987C70.7114 32.4018 70.8143 32.5444 70.8687 32.7075C70.923 32.8705 70.9263 33.0463 70.8781 33.2113L58.9649 71.9972C58.9343 72.0994 58.8835 72.1945 58.8156 72.2768C58.7476 72.359 58.6639 72.4269 58.5693 72.4763C58.4496 72.538 58.3158 72.5669 58.1813 72.5599V72.5599ZM68.5882 35.0594L44.1608 52.551C40.7071 55.0151 38.9726 57.981 39.4062 60.696C39.8779 63.6012 42.7535 66.0728 47.3103 67.4874L57.6412 70.7271L68.5882 35.0594Z" fill="#FAC07F"/>
<path d="M104.549 86.0208C102.741 85.9954 100.947 85.7059 99.2236 85.1615L88.094 81.7772C87.8848 81.7124 87.7098 81.5675 87.6071 81.3741C87.5532 81.2805 87.5199 81.1764 87.5095 81.0689C87.499 80.9614 87.5115 80.8528 87.5463 80.7505L99.4518 41.9647C99.5021 41.7995 99.6032 41.6543 99.7407 41.5498C99.8782 41.4453 100.045 41.3868 100.218 41.3826C100.391 41.3784 100.56 41.4287 100.703 41.5263C100.845 41.624 100.953 41.7641 101.011 41.9267L112.24 72.4078C113.967 77.0545 113.617 80.9939 111.259 83.5035C109.691 85.1767 107.364 86.0208 104.549 86.0208ZM89.334 80.4387L99.6801 83.5872C104.245 84.9713 108.048 84.5378 110.034 82.3932C111.92 80.3931 112.156 76.9632 110.673 72.9934L100.304 44.7938L89.334 80.4387Z" fill="#FAC07F"/>
<path d="M89.7224 86.2111C89.6419 86.2252 89.5595 86.2252 89.479 86.2111L54.2415 75.3587C54.0323 75.2939 53.8573 75.149 53.7546 74.9556C53.655 74.7633 53.6332 74.54 53.6937 74.332L68.1478 27.1806C68.2315 26.6711 68.8249 24.0397 72.2026 18.3739C72.2997 18.2179 72.4451 18.0978 72.6168 18.0319C72.7884 17.966 72.9768 17.958 73.1535 18.0089L106.139 28.1388C106.309 28.194 106.457 28.302 106.561 28.447C106.665 28.592 106.72 28.7665 106.717 28.945C106.588 34.6944 105.196 38.0102 104.998 38.4893L90.5288 85.6331C90.4758 85.8042 90.3683 85.9532 90.2228 86.0576C90.0772 86.1619 89.9015 86.2158 89.7224 86.2111V86.2111ZM55.4891 74.043L89.1671 84.3783L103.431 37.9874C103.439 37.9504 103.452 37.9146 103.469 37.8809C103.469 37.8809 104.823 34.8845 105.036 29.5154L73.3285 19.7733C70.1486 25.2033 69.8062 27.4468 69.8062 27.4696C69.8062 27.4924 69.8062 27.5685 69.8062 27.6065L55.4891 74.043Z" fill="#FAC07F"/>
<path d="M105.895 29.7282C105.784 29.7301 105.674 29.7039 105.576 29.6521L73.2137 19.7199C73.0866 19.7924 72.9414 19.8268 72.7953 19.8188C72.6495 19.8158 72.5071 19.7741 72.3828 19.6979C72.2584 19.6217 72.1566 19.5138 72.0878 19.3853C71.9585 19.142 71.8976 19.0279 72.1334 18.5564L72.1867 18.4727C72.4073 18.0544 72.8257 17.3852 73.5789 16.1912C78.6378 8.25911 93.4722 -0.920204 96.6597 0.053244C100.114 1.11795 106.367 18.6248 106.694 26.2983C106.694 27.1349 106.694 28.2604 106.694 28.8612C106.699 28.9707 106.682 29.0801 106.645 29.1832C106.607 29.2862 106.55 29.3807 106.476 29.4614C106.401 29.542 106.312 29.6071 106.212 29.6529C106.112 29.6987 106.005 29.7243 105.895 29.7282V29.7282ZM74.1951 18.3206L105.074 27.8041C105.074 27.2489 105.074 26.7698 105.074 26.3972C104.693 17.6666 98.0367 2.2359 96.1881 1.65791C95.4273 1.42216 91.6997 2.88993 86.6864 6.22095C81.4525 9.73449 77.0783 13.826 74.9862 17.0734C74.6819 17.5297 74.4157 17.948 74.1951 18.3054V18.3206Z" fill="#FAC07F"/>
<path d="M83.1114 60.331C80.7823 60.3304 78.4807 59.8275 76.3638 58.8564C74.2469 57.8853 72.3645 56.469 70.8452 54.7042C69.3259 52.9394 68.2054 50.8676 67.5602 48.6303C66.9151 46.393 66.7604 44.0429 67.1068 41.7404C67.4532 39.4379 68.2926 37.2372 69.5675 35.2886C70.8425 33.34 72.523 31.6894 74.4944 30.4495C76.4658 29.2095 78.6817 28.4095 80.9906 28.1039C83.2996 27.7983 85.6474 27.9944 87.8736 28.6787V28.6787C91.5793 29.8179 94.753 32.2488 96.8175 35.5292C98.8821 38.8097 99.7005 42.7219 99.1238 46.5545C98.5472 50.3871 96.6139 53.8856 93.6753 56.4138C90.7368 58.942 86.9883 60.332 83.1114 60.331V60.331ZM83.1114 29.6066C79.4427 29.6059 75.9094 30.9919 73.2201 33.4866C70.5309 35.9813 68.8845 39.4002 68.6113 43.0576C68.3381 46.715 69.4583 50.3404 71.7471 53.2067C74.0359 56.073 77.3241 57.9683 80.9522 58.5123C84.5803 59.0564 88.28 58.209 91.3093 56.1401C94.3386 54.0713 96.4735 50.934 97.2857 47.3574C98.098 43.7808 97.5275 40.0295 95.6888 36.8558C93.85 33.6822 90.879 31.3208 87.3715 30.2454V30.2454C85.9984 29.8244 84.5705 29.6091 83.1342 29.6066H83.1114ZM83.1114 56.8251C81.8426 56.8262 80.5809 56.6365 79.3685 56.2623C76.3195 55.3213 73.7388 53.2632 72.1436 50.5003C70.5484 47.7375 70.0564 44.4741 70.7664 41.364C71.4764 38.2539 73.3358 35.527 75.972 33.7295C78.6082 31.932 81.8266 31.1969 84.9821 31.6713C88.1376 32.1458 90.9972 33.7948 92.9879 36.288C94.9786 38.7812 95.9533 41.9343 95.7167 45.1156C95.4802 48.2968 94.0497 51.2712 91.7121 53.4427C89.3745 55.6142 86.3024 56.8223 83.1114 56.8251V56.8251ZM83.1114 33.1049C80.4712 33.1132 77.9212 34.0666 75.9236 35.7924C73.9259 37.5182 72.6127 39.9022 72.2218 42.5125C71.8309 45.1229 72.3882 47.7868 73.7928 50.0218C75.1973 52.2567 77.3562 53.9148 79.8782 54.6957V54.6957C82.6683 55.5261 85.6735 55.2212 88.2397 53.8472C90.806 52.4731 92.7253 50.1414 93.58 47.3594C94.4347 44.5775 94.1556 41.5707 92.8033 38.9935C91.451 36.4164 89.1351 34.4776 86.3598 33.5992C85.3073 33.2751 84.2126 33.1085 83.1114 33.1049Z" fill="#FAC07F"/>
<path d="M83.1413 56.825C80.4712 56.8293 77.868 55.9909 75.7025 54.4295C73.5369 52.868 71.9197 50.6631 71.0811 48.1289C70.2425 45.5948 70.2255 42.8607 71.0324 40.3162C71.8392 37.7718 73.4289 35.5469 75.5747 33.9586C77.7206 32.3702 80.3132 31.4995 82.9831 31.4705C85.653 31.4414 88.2639 32.2556 90.4438 33.7969C92.6237 35.3382 94.2614 37.528 95.1234 40.0543C95.9855 42.5806 96.0279 45.3144 95.2447 47.8662C94.4496 50.4564 92.8454 52.7239 90.6673 54.3362C88.4891 55.9484 85.8515 56.8207 83.1413 56.825V56.825ZM83.1413 33.1048C81.0964 33.1047 79.0917 33.672 77.3503 34.7435C75.6089 35.8151 74.1992 37.3488 73.2783 39.174C72.3573 40.9991 71.9612 43.044 72.1341 45.0809C72.307 47.1178 73.042 49.0667 74.2574 50.7107C75.4728 52.3546 77.1208 53.629 79.0179 54.392C80.915 55.1549 82.9867 55.3765 85.0023 55.0319C87.0178 54.6874 88.8982 53.7903 90.4339 52.4405C91.9696 51.0908 93.1004 49.3414 93.7004 47.3871C94.5601 44.5906 94.2737 41.5672 92.9042 38.9816C91.5347 36.3961 89.1942 34.46 86.3973 33.5991C85.3326 33.2713 84.2249 33.1047 83.1109 33.1048H83.1413Z" fill="#FAC07F"/>
<path d="M56.3867 107.566C56.2496 107.565 56.1148 107.531 55.9941 107.466C55.8734 107.401 55.7705 107.307 55.6944 107.193C47.3871 94.4548 57.117 83.0016 57.2159 82.8571C57.3199 82.7371 57.4566 82.6502 57.6094 82.607C57.7621 82.5637 57.9241 82.5661 58.0756 82.6137L67.4022 85.4732C67.5661 85.5246 67.7103 85.6251 67.8151 85.7611C67.9199 85.8972 67.9803 86.0622 67.988 86.2337C68.7944 101.619 56.8432 107.414 56.729 107.475C56.6228 107.529 56.5061 107.561 56.3867 107.566V107.566ZM58.1288 84.4161C56.6073 86.4391 50.4681 95.4359 56.6758 105.71C59.0037 104.364 66.7632 98.9722 66.3752 86.9638L58.1288 84.4161Z" fill="#FAC07F"/>
<path d="M58.014 101.398C57.9406 101.406 57.8667 101.406 57.7934 101.398C57.6693 101.361 57.5555 101.295 57.4605 101.207C57.3656 101.119 57.2921 101.01 57.2456 100.889C54.72 94.0974 56.9794 87.1236 58.5465 83.572C58.6299 83.3891 58.777 83.2428 58.9604 83.1603C59.1437 83.0777 59.3508 83.0646 59.5431 83.1233L65.9409 85.0854C66.132 85.1451 66.2951 85.272 66.4 85.4425C66.5048 85.613 66.5444 85.8158 66.5114 86.0132C64.6857 96.3637 58.7747 101.056 58.5237 101.223C58.3774 101.336 58.1984 101.397 58.014 101.398V101.398ZM59.7637 84.8801C58.4324 88.1198 56.8424 93.6259 58.4019 99.1015C61.6883 95.5628 63.8948 91.159 64.7617 86.4087L59.7637 84.8801Z" fill="#FAC07F"/>
<path d="M68.1627 87.4125C68.082 87.4242 68 87.4242 67.9193 87.4125L56.3332 83.8534C56.2216 83.8205 56.1184 83.7641 56.0305 83.688C55.9426 83.6119 55.872 83.5179 55.8235 83.4123C55.7763 83.3057 55.752 83.1904 55.752 83.0738C55.752 82.9573 55.7763 82.842 55.8235 82.7354L56.8809 80.3626C56.963 80.1784 57.1096 80.0304 57.293 79.9464C57.4765 79.8624 57.6843 79.8481 57.8775 79.9063L68.855 83.283C69.048 83.3398 69.2131 83.4661 69.3184 83.6374C69.4238 83.8087 69.4619 84.013 69.4255 84.2108L68.9691 86.7661C68.9381 86.9568 68.8397 87.13 68.6917 87.2542C68.5437 87.3785 68.3559 87.4454 68.1627 87.4429V87.4125ZM57.7025 82.5225L67.5161 85.5645L67.6834 84.6367L58.0905 81.6935L57.7025 82.5225Z" fill="#FAC07F"/>
<path d="M69.2271 85.0549C69.1492 85.0696 69.0692 85.0696 68.9913 85.0549L56.7282 81.2524C56.6248 81.2212 56.5286 81.1697 56.4453 81.101C56.362 81.0323 56.2932 80.9477 56.243 80.8522C56.1927 80.7566 56.162 80.652 56.1525 80.5445C56.1431 80.4369 56.1552 80.3286 56.188 80.2257L57.3291 76.4916C57.3994 76.2625 57.5143 76.0495 57.6672 75.8649C57.8202 75.6804 58.0081 75.5279 58.2202 75.4162C58.4323 75.3045 58.6644 75.2359 58.9032 75.2142C59.1419 75.1926 59.3826 75.2183 59.6114 75.29L69.9879 78.4689C70.4496 78.6126 70.8355 78.9335 71.0608 79.3612C71.2862 79.7889 71.3326 80.2886 71.1898 80.7505L70.0411 84.4922C69.984 84.661 69.874 84.8069 69.7273 84.9083C69.5807 85.0096 69.4053 85.0611 69.2271 85.0549V85.0549ZM57.9986 79.9215L68.649 83.2069L69.5543 80.2561C69.5614 80.2352 69.5643 80.213 69.5628 80.1909C69.5613 80.1688 69.5554 80.1472 69.5455 80.1274C69.5356 80.1076 69.5219 80.09 69.5051 80.0755C69.4883 80.061 69.4688 80.0501 69.4478 80.0432L59.0789 76.8567C59.0345 76.845 58.9873 76.8512 58.9474 76.8739C58.9076 76.8967 58.8783 76.9342 58.8658 76.9784L57.9986 79.9215Z" fill="#FAC07F"/>
<path d="M71.3352 112.159C71.1991 112.159 71.0653 112.124 70.9458 112.059C70.8263 111.994 70.7248 111.901 70.6505 111.787C62.3432 99.0482 72.0731 87.595 72.172 87.4505C72.2802 87.3369 72.4181 87.2559 72.5701 87.2169C72.7221 87.1779 72.882 87.1824 73.0316 87.23L82.3659 90.0971C82.5302 90.1467 82.6745 90.247 82.7783 90.3836C82.8822 90.5202 82.9402 90.6861 82.9441 90.8576C83.7581 106.243 71.8068 112.038 71.6851 112.091C71.5749 112.139 71.4554 112.163 71.3352 112.159V112.159ZM73.0849 88.9639C71.5101 90.9869 65.4242 99.9913 71.6242 110.273C73.9597 108.927 81.7117 103.535 81.3237 91.5192L73.0849 88.9639Z" fill="#FAC07F"/>
<path d="M72.971 105.984C72.8953 105.996 72.8184 105.996 72.7428 105.984C72.6193 105.95 72.5059 105.886 72.4119 105.799C72.318 105.711 72.2463 105.603 72.2026 105.482C69.677 98.6834 71.9364 91.7172 73.5035 88.1656C73.5856 87.9814 73.7322 87.8334 73.9156 87.7494C74.0991 87.6654 74.3069 87.6511 74.5001 87.7093L80.8979 89.679C81.089 89.7387 81.2521 89.8656 81.357 90.0361C81.4619 90.2067 81.5015 90.4094 81.4685 90.6068C79.6427 100.957 73.7241 105.65 73.4731 105.817C73.3296 105.928 73.1525 105.987 72.971 105.984V105.984ZM74.7207 89.4661C73.3818 92.7134 71.7995 98.2119 73.3514 103.688C76.6453 100.157 78.8531 95.7533 79.7111 91.0023L74.7207 89.4661Z" fill="#FAC07F"/>
<path d="M83.1114 92.0212C83.0331 92.0324 82.9537 92.0324 82.8755 92.0212L71.2894 88.4621C71.1776 88.4275 71.0744 88.3696 70.9865 88.2923C70.8987 88.215 70.8282 88.1199 70.7797 88.0134C70.7287 87.9092 70.7021 87.7948 70.7021 87.6788C70.7021 87.5628 70.7287 87.4483 70.7797 87.3441L71.8372 84.9714C71.9179 84.7877 72.063 84.6399 72.2452 84.5558C72.4273 84.4718 72.634 84.4573 72.8261 84.515L83.8112 87.8917C84.0024 87.9514 84.1655 88.0782 84.2703 88.2488C84.3752 88.4193 84.4148 88.6221 84.3818 88.8195L83.9254 91.3748C83.9043 91.4888 83.8596 91.5971 83.7941 91.6927C83.7285 91.7883 83.6437 91.8692 83.545 91.93C83.4117 91.9999 83.2616 92.0315 83.1114 92.0212V92.0212ZM72.6588 87.1312L82.4647 90.1732L82.6321 89.2454L73.0315 86.2566L72.6588 87.1312Z" fill="#FAC07F"/>
<path d="M84.2068 89.6486C84.1286 89.6595 84.0492 89.6595 83.971 89.6486L71.7079 85.846C71.5 85.7811 71.326 85.637 71.2235 85.4449C71.121 85.2528 71.0983 85.0281 71.1601 84.8194L72.3089 81.0777C72.3779 80.8495 72.4924 80.6375 72.6453 80.4546C72.7982 80.2716 72.9865 80.1214 73.1989 80.013C73.6122 79.7854 74.0981 79.728 74.553 79.8532L84.9219 83.0398C85.3837 83.1834 85.7696 83.5043 85.9949 83.932C86.2202 84.3598 86.2666 84.8594 86.1239 85.3213L84.9752 89.0554C84.9257 89.2224 84.8248 89.3697 84.6869 89.4761C84.549 89.5826 84.381 89.643 84.2068 89.6486V89.6486ZM72.9707 84.5152L83.6819 87.8005L84.5872 84.8422C84.5992 84.7988 84.5941 84.7525 84.5728 84.7128C84.5516 84.6732 84.5159 84.6432 84.4731 84.6292L74.089 81.4503C74.0698 81.4419 74.0491 81.4376 74.0281 81.4376C74.0072 81.4376 73.9865 81.4419 73.9673 81.4503C73.9472 81.46 73.9294 81.4739 73.915 81.4909C73.9005 81.5079 73.8899 81.5278 73.8836 81.5492L72.9707 84.5152Z" fill="#FAC07F"/>
<path d="M20.3803 194.758L23.6819 191.747L28.0257 192.766L26.1923 188.697L28.4974 184.872L24.0623 185.366L21.1334 181.989L20.2357 186.362L16.1201 188.096L19.9999 190.309L20.3803 194.758Z" fill="#FAC07F"/>
<path d="M95.8842 156.261L97.7252 158.147L98.1055 155.539L100.464 154.375L98.0979 153.212L97.7176 150.603L95.8842 152.489L93.29 152.048L94.5148 154.375L93.29 156.71L95.8842 156.261Z" fill="#FAC07F"/>
<path d="M133.457 167.661L132.232 169.988L134.834 169.547L136.668 171.426L137.048 168.825L139.414 167.654L137.048 166.49L136.668 163.889L134.827 165.775L132.232 165.327L133.457 167.661Z" fill="#FAC07F"/>
<path d="M40.9582 372.207L42.7992 374.093L43.1719 371.485L45.5378 370.321L43.1719 369.157L42.7916 366.549L40.9582 368.435L38.3564 367.994L39.5888 370.321L38.3641 372.656L40.9582 372.207Z" fill="#FAC07F"/>
<path d="M53.5566 237.134L52.7502 237.445C52.522 237.537 52.3014 237.643 52.0732 237.719C51.9088 237.728 51.7457 237.754 51.5863 237.795L51.1907 237.955L50.6582 238.175C50.3881 238.237 50.1335 238.353 49.9098 238.517C49.6862 238.68 49.4982 238.888 49.3573 239.126C49.1028 239.566 49.0312 240.088 49.1578 240.58C49.2845 241.072 49.5992 241.495 50.0344 241.757C50.3818 241.921 50.7611 242.005 51.1451 242.005C51.529 242.005 51.9083 241.921 52.2557 241.757C52.5398 241.656 52.799 241.495 53.0165 241.286C53.1078 241.225 53.1991 241.164 53.2827 241.096C53.4722 240.983 53.6372 240.833 53.7678 240.656C53.8985 240.478 53.9922 240.276 54.0435 240.061L54.6369 239.696C54.9281 239.522 55.1467 239.248 55.2529 238.926C55.359 238.603 55.3456 238.253 55.215 237.94C55.0859 237.625 54.8455 237.369 54.5396 237.22C54.2337 237.072 53.8838 237.041 53.5566 237.134V237.134ZM52.0351 241.697C52.1872 241.584 52.3297 241.46 52.4611 241.324L52.3775 241.43L52.0351 241.697Z" fill="#FAC07F"/>
<path d="M14.7125 301.495C14.9823 301.772 15.3429 301.943 15.7283 301.977C16.1138 302.01 16.4984 301.904 16.8121 301.678C17.0376 301.535 17.2151 301.329 17.3218 301.084C17.3562 301.004 17.3817 300.92 17.3979 300.833C17.5491 300.646 17.6258 300.41 17.6132 300.17C17.6006 299.93 17.4995 299.703 17.3294 299.533C17.229 299.436 17.1094 299.362 16.9783 299.315C16.8472 299.268 16.7076 299.249 16.5687 299.259C16.472 299.089 16.3297 298.95 16.1579 298.856H16.1198C16.0418 298.783 15.9579 298.717 15.8688 298.658C15.7686 298.592 15.6531 298.552 15.5333 298.543C15.4136 298.534 15.2934 298.555 15.1841 298.605C15.0437 298.673 14.9152 298.762 14.8037 298.871L14.6592 299.001L14.5603 299.077C14.3848 299.252 14.2634 299.473 14.2104 299.715C14.1304 299.999 14.1304 300.299 14.2104 300.582C14.3035 300.922 14.4756 301.235 14.7125 301.495V301.495ZM16.736 299.487V299.426V299.487Z" fill="#FAC07F"/>
<path d="M125.272 154.596C125.654 154.08 125.931 153.493 126.086 152.869C126.218 152.655 126.259 152.396 126.201 152.151C126.142 151.905 125.989 151.693 125.774 151.561C125.559 151.429 125.301 151.388 125.055 151.446C124.81 151.505 124.598 151.658 124.466 151.873C123.583 152.337 122.746 153.394 123.362 154.345C123.459 154.502 123.589 154.636 123.744 154.736C123.899 154.836 124.074 154.901 124.257 154.925C124.44 154.949 124.626 154.932 124.802 154.875C124.977 154.818 125.138 154.723 125.272 154.596V154.596Z" fill="#FAC07F"/>
<path d="M298.751 356.974C298.748 356.778 298.7 356.585 298.612 356.41C298.523 356.235 298.397 356.082 298.242 355.963C298.031 355.78 297.76 355.683 297.481 355.689C297.185 355.697 296.901 355.804 296.674 355.993C296.522 356.107 296.398 356.255 296.314 356.425C296.229 356.596 296.186 356.784 296.188 356.974V357.301C296.188 357.347 296.188 357.392 296.188 357.43C296.188 357.742 296.188 358.054 296.188 358.358C296.188 358.695 296.321 359.018 296.56 359.256C296.798 359.494 297.121 359.628 297.458 359.628C297.795 359.628 298.118 359.494 298.356 359.256C298.595 359.018 298.728 358.695 298.728 358.358C298.728 358.054 298.728 357.75 298.728 357.446C298.732 357.397 298.732 357.349 298.728 357.301C298.751 357.195 298.751 357.088 298.751 356.974Z" fill="#FAC07F"/>
<path d="M121.065 458.213L120.783 458.099L120.852 458.152L120.783 458.106C120.691 458.046 120.587 458.006 120.479 457.988C120.37 457.969 120.259 457.974 120.152 458C120.052 458.027 119.957 458.071 119.871 458.129V458.129L119.597 458.243C119.42 458.335 119.271 458.472 119.163 458.639C118.88 459.013 118.747 459.479 118.79 459.947C118.809 460.333 118.916 460.71 119.102 461.05C119.269 461.331 119.504 461.565 119.786 461.73C120.069 461.895 120.388 461.985 120.715 461.993C121.096 461.968 121.468 461.867 121.809 461.696C122.15 461.525 122.453 461.287 122.701 460.996C123.01 460.677 123.182 460.25 123.182 459.806C123.182 459.362 123.01 458.935 122.701 458.616C122.485 458.415 122.221 458.273 121.935 458.203C121.649 458.132 121.349 458.136 121.065 458.213V458.213Z" fill="#FAC07F"/>
<path d="M268.025 432.728C269.06 431.717 270.604 431.298 271.273 429.899C271.502 429.412 271.098 428.591 270.467 428.857C268.999 429.465 267.508 429.922 266.306 431.009C265.104 432.097 266.907 433.816 268.025 432.728Z" fill="#FAC07F"/>
<path d="M227.926 264.352C228.107 264.191 228.277 264.019 228.435 263.835C228.67 263.599 228.802 263.279 228.801 262.946C228.801 262.613 228.667 262.294 228.431 262.059C228.315 261.943 228.176 261.851 228.023 261.788C227.871 261.725 227.707 261.693 227.542 261.693C227.209 261.694 226.89 261.827 226.655 262.063C226.495 262.215 226.29 262.39 226.138 262.565C224.898 263.622 226.701 265.417 227.926 264.352Z" fill="#FAC07F"/>
<path d="M143.902 190.073C144.317 190.063 144.713 189.897 145.013 189.609C145.161 189.467 145.279 189.297 145.36 189.108C145.441 188.919 145.482 188.716 145.482 188.511C145.482 188.305 145.441 188.102 145.36 187.913C145.279 187.724 145.161 187.554 145.013 187.412C145.017 187.389 145.017 187.366 145.013 187.343C145.006 187.106 144.94 186.875 144.82 186.67C144.7 186.466 144.531 186.294 144.328 186.172C144.068 186.04 143.783 185.968 143.491 185.959C143.119 185.928 142.745 186.006 142.417 186.185C142.088 186.363 141.819 186.634 141.643 186.963C141.434 187.35 141.353 187.792 141.41 188.227C141.468 188.663 141.661 189.069 141.962 189.389C142.216 189.638 142.521 189.829 142.856 189.947C143.191 190.065 143.548 190.108 143.902 190.073V190.073ZM144.495 188.431C144.427 188.522 144.359 188.621 144.282 188.712L144.495 188.431Z" fill="#FAC07F"/>
<path d="M119.513 129.096C119.513 128.974 119.513 128.86 119.513 128.746C119.513 128.746 119.513 128.678 119.513 128.624C119.589 128.564 119.657 128.48 119.734 128.411C119.947 128.214 120.175 128.024 120.403 127.833C120.657 127.553 120.793 127.185 120.783 126.807C120.773 126.429 120.619 126.069 120.351 125.802C120.084 125.534 119.723 125.38 119.345 125.37C118.967 125.36 118.599 125.496 118.319 125.75C117.832 126.275 117.439 126.88 117.155 127.537C117.009 128.043 116.973 128.575 117.048 129.096C117.094 129.389 117.244 129.657 117.47 129.85C117.696 130.043 117.983 130.149 118.281 130.149C118.578 130.149 118.865 130.043 119.091 129.85C119.317 129.657 119.467 129.389 119.513 129.096V129.096ZM119.597 128.541C119.596 128.536 119.596 128.531 119.597 128.525V128.541Z" fill="#FAC07F"/>
<path d="M118.014 229.627C118.236 229.643 118.46 229.612 118.67 229.537C118.88 229.463 119.073 229.345 119.236 229.193C119.399 229.041 119.529 228.857 119.618 228.652C119.707 228.448 119.753 228.227 119.753 228.004C119.753 227.781 119.707 227.56 119.618 227.355C119.529 227.151 119.399 226.967 119.236 226.814C119.073 226.662 118.88 226.545 118.67 226.47C118.46 226.395 118.236 226.365 118.014 226.38C117.01 226.426 115.732 226.342 115.024 227.141C114.812 227.366 114.694 227.664 114.694 227.973C114.694 228.283 114.812 228.58 115.024 228.806C115.754 229.673 117.01 229.582 118.014 229.627Z" fill="#FAC07F"/>
<path d="M63.0661 191.83H63.127C62.8074 191.823 62.8835 191.868 63.0661 191.83Z" fill="#FAC07F"/>
<path d="M62.9368 194.256H62.9901H63.0281L63.9867 194.446C64.2374 194.514 64.5018 194.515 64.7529 194.448C65.004 194.382 65.2331 194.25 65.4169 194.066C65.6897 193.787 65.8449 193.414 65.8505 193.024C65.8449 192.634 65.6897 192.261 65.4169 191.982C65.2305 191.802 65.0014 191.673 64.7511 191.607C64.5009 191.54 64.2377 191.538 63.9867 191.602L63.089 191.784H63.2107C62.8831 191.788 62.57 191.92 62.3383 192.152C62.1066 192.384 61.9747 192.697 61.9707 193.024C61.9772 193.294 62.069 193.555 62.233 193.769C62.397 193.984 62.6248 194.141 62.8836 194.218C62.8836 194.218 62.914 194.256 62.9368 194.256Z" fill="#FAC07F"/>
<path d="M32.9561 133.705C32.9653 133.708 32.9752 133.709 32.9849 133.708C32.9946 133.707 33.0039 133.703 33.012 133.697C33.02 133.692 33.0266 133.684 33.0312 133.676C33.0357 133.667 33.0381 133.657 33.0381 133.648C33.0381 133.638 33.0357 133.628 33.0312 133.619C33.0266 133.611 33.02 133.603 33.012 133.598C33.0039 133.592 32.9946 133.588 32.9849 133.587C32.9752 133.586 32.9653 133.587 32.9561 133.59C32.9469 133.587 32.937 133.586 32.9272 133.587C32.9175 133.588 32.9082 133.592 32.9001 133.598C32.8921 133.603 32.8855 133.611 32.8809 133.619C32.8764 133.628 32.874 133.638 32.874 133.648C32.874 133.657 32.8764 133.667 32.8809 133.676C32.8855 133.684 32.8921 133.692 32.9001 133.697C32.9082 133.703 32.9175 133.707 32.9272 133.708C32.937 133.709 32.9469 133.708 32.9561 133.705V133.705Z" fill="#FAC07F"/>
<path d="M63.02 307.168C62.8077 307.35 62.6719 307.606 62.6396 307.883H62.381C62.1246 307.885 61.8792 307.987 61.6973 308.168C61.5153 308.348 61.4112 308.593 61.4072 308.849C61.4112 309.106 61.515 309.351 61.6968 309.533C61.8785 309.715 62.1239 309.819 62.381 309.823C62.6833 309.862 62.9906 309.841 63.2846 309.76C63.5785 309.679 63.8533 309.54 64.0926 309.351C64.36 309.05 64.5077 308.662 64.5077 308.26C64.5077 307.857 64.36 307.469 64.0926 307.168C63.9501 307.027 63.7573 306.947 63.5563 306.947C63.3553 306.947 63.1625 307.027 63.02 307.168V307.168ZM62.6016 308.157C62.6016 308.157 62.6016 308.203 62.6016 308.218C62.5788 308.157 62.594 308.134 62.6016 308.157ZM62.6016 308.279C62.6016 308.279 62.6016 308.332 62.6016 308.355V308.279Z" fill="#FAC07F"/>
<path d="M131.289 109.513C131.609 109.566 131.936 109.597 132.255 109.627C132.659 109.627 133.046 109.467 133.331 109.181C133.617 108.896 133.777 108.509 133.777 108.106C133.777 107.703 133.617 107.316 133.331 107.03C133.046 106.745 132.659 106.585 132.255 106.585L131.768 106.623C131.654 106.51 131.513 106.429 131.358 106.387C131.103 106.33 130.836 106.365 130.605 106.488C130.375 106.611 130.196 106.813 130.102 107.056C129.934 107.366 129.871 107.721 129.921 108.069C129.972 108.417 130.134 108.74 130.384 108.988C130.629 109.246 130.943 109.428 131.289 109.513ZM132.05 106.95L132.202 107.148C132.149 107.072 132.088 107.003 132.027 106.927C132.134 107.018 132.096 107.026 132.027 106.95H132.05Z" fill="#FAC07F"/>
<path d="M65.3476 224.486C65.811 224.552 66.2799 224.573 66.7473 224.547C67.0661 224.547 67.3718 224.421 67.5972 224.195C67.8227 223.97 67.9493 223.664 67.9493 223.346C67.9493 223.027 67.8227 222.721 67.5972 222.496C67.3718 222.271 67.0661 222.144 66.7473 222.144C66.2799 222.114 65.8107 222.135 65.3476 222.205C65.1038 222.28 64.8905 222.431 64.7391 222.637C64.5876 222.842 64.5059 223.09 64.5059 223.346C64.5059 223.601 64.5876 223.849 64.7391 224.054C64.8905 224.26 65.1038 224.411 65.3476 224.486V224.486Z" fill="#FAC07F"/>
<path d="M35.2837 283.928C35.5791 283.904 35.8547 283.77 36.0557 283.552C36.2567 283.334 36.3682 283.049 36.3682 282.753C36.3682 282.456 36.2567 282.171 36.0557 281.953C35.8547 281.736 35.5791 281.601 35.2837 281.578C34.9883 281.601 34.7127 281.736 34.5118 281.953C34.3108 282.171 34.1992 282.456 34.1992 282.753C34.1992 283.049 34.3108 283.334 34.5118 283.552C34.7127 283.77 34.9883 283.904 35.2837 283.928V283.928Z" fill="#FAC07F"/>
<path d="M38.0369 230.228C38.5695 230.106 39.0107 229.528 39.3835 229.148L39.6345 228.912L39.6801 228.874L39.9997 228.547C40.2282 228.317 40.3564 228.005 40.3564 227.68C40.3564 227.356 40.2282 227.044 39.9997 226.813C39.767 226.589 39.456 226.463 39.1324 226.463C38.8088 226.463 38.4978 226.589 38.2652 226.813L37.9381 227.133V227.179L37.687 227.422C37.3142 227.802 36.7361 228.243 36.6144 228.776C36.5652 228.973 36.5675 229.18 36.621 229.377C36.6745 229.574 36.7774 229.753 36.92 229.899C37.0626 230.044 37.2401 230.151 37.4356 230.209C37.6311 230.266 37.8381 230.273 38.0369 230.228V230.228Z" fill="#FAC07F"/>
<path d="M42.2752 338.836C42.6118 338.81 42.9265 338.659 43.1561 338.411C43.3856 338.164 43.5132 337.839 43.5132 337.501C43.5132 337.164 43.3856 336.839 43.1561 336.591C42.9265 336.344 42.6118 336.192 42.2752 336.167C41.9385 336.192 41.6238 336.344 41.3943 336.591C41.1647 336.839 41.0371 337.164 41.0371 337.501C41.0371 337.839 41.1647 338.164 41.3943 338.411C41.6238 338.659 41.9385 338.81 42.2752 338.836V338.836Z" fill="#FAC07F"/>
<path d="M2.65528 370.603H2.45748C2.14973 370.638 1.8508 370.728 1.57503 370.869C1.49134 370.914 1.48374 370.869 1.52938 370.869L1.33159 370.922L1.09576 370.99C0.846116 371.065 0.619858 371.203 0.438672 371.39C0.257485 371.577 0.127444 371.808 0.0610111 372.06C-0.00542158 372.312 -0.00601849 372.576 0.0592776 372.829C0.124574 373.081 0.253574 373.312 0.433914 373.5C0.62203 373.68 0.853313 373.809 1.1056 373.875C1.35788 373.94 1.6227 373.939 1.87469 373.873C2.12668 373.806 2.35738 373.676 2.54468 373.495C2.73198 373.314 2.8696 373.088 2.94436 372.838L3.04326 372.648L3.10411 372.443V372.321C3.22501 372.083 3.30475 371.826 3.33994 371.561C3.33994 371.492 3.33994 371.424 3.33994 371.363C3.35069 371.267 3.34096 371.17 3.3114 371.078C3.28183 370.986 3.23311 370.901 3.16843 370.829C3.10375 370.757 3.02458 370.7 2.93613 370.661C2.84768 370.622 2.75196 370.602 2.65528 370.603V370.603Z" fill="#FAC07F"/>
<path d="M1.68885 370.831C1.63346 370.837 1.57949 370.852 1.52909 370.876H1.52148C1.57535 370.855 1.6315 370.839 1.68885 370.831V370.831Z" fill="#FAC07F"/>
<path d="M61.8258 417.723C61.9338 417.802 62.0582 417.857 62.1898 417.882C62.3214 417.907 62.457 417.902 62.5866 417.868L63.2636 417.913C64.7851 418.012 64.7851 415.411 63.2636 415.51L62.579 415.556C62.4494 415.522 62.3138 415.517 62.1822 415.542C62.0506 415.567 61.9262 415.621 61.8182 415.7C61.6503 415.81 61.5124 415.96 61.4169 416.137C61.3215 416.313 61.2715 416.511 61.2715 416.712C61.2715 416.912 61.3215 417.11 61.4169 417.287C61.5124 417.463 61.6503 417.613 61.8182 417.723H61.8258Z" fill="#FAC07F"/>
<path d="M13.5107 436.53V435.443C13.5107 435.039 13.3504 434.653 13.0651 434.367C12.7798 434.082 12.3928 433.922 11.9893 433.922C11.5894 433.933 11.209 434.097 10.9261 434.38C10.6432 434.663 10.4793 435.043 10.4678 435.443V436.53C10.4678 436.934 10.6281 437.321 10.9134 437.606C11.1987 437.891 11.5857 438.051 11.9893 438.051C12.3928 438.051 12.7798 437.891 13.0651 437.606C13.3504 437.321 13.5107 436.934 13.5107 436.53Z" fill="#FAC07F"/>
<path d="M99.8859 451.938C99.8247 451.882 99.7585 451.831 99.6881 451.786L99.4446 451.665C99.4349 451.346 99.3031 451.044 99.0765 450.82C98.8499 450.597 98.5459 450.469 98.2275 450.463H97.9764C97.6922 450.353 97.3803 450.337 97.0863 450.417C96.8783 450.463 96.6815 450.55 96.5074 450.672C96.3334 450.795 96.1857 450.952 96.073 451.132C95.9603 451.313 95.8849 451.514 95.8512 451.725C95.8175 451.935 95.8262 452.15 95.8768 452.357C95.9599 452.618 96.096 452.86 96.2766 453.067C96.4573 453.273 96.6785 453.441 96.9266 453.558C97.3667 453.841 97.8723 454.006 98.3947 454.037C98.9171 454.067 99.4385 453.963 99.9087 453.733C100.064 453.639 100.191 453.506 100.279 453.348C100.367 453.189 100.412 453.01 100.41 452.829C100.408 452.648 100.358 452.47 100.266 452.314C100.174 452.158 100.043 452.028 99.8859 451.938V451.938ZM98.0753 452.95L97.8091 453.056C97.9008 453.029 97.9899 452.993 98.0753 452.95V452.95Z" fill="#FAC07F"/>
<path d="M245.028 439.702C244.636 439.702 244.261 439.858 243.984 440.134C243.707 440.411 243.552 440.786 243.552 441.178C243.552 441.569 243.707 441.944 243.984 442.221C244.261 442.498 244.636 442.653 245.028 442.653C246.922 442.653 246.929 439.702 245.028 439.702Z" fill="#FAC07F"/>
<path d="M291.638 416.651C291.622 416.651 291.606 416.657 291.595 416.669C291.584 416.68 291.577 416.696 291.577 416.712C291.577 416.728 291.584 416.743 291.595 416.755C291.606 416.766 291.622 416.773 291.638 416.773C291.706 416.757 291.706 416.651 291.638 416.651Z" fill="#FAC07F"/>
<path d="M278.82 406.164C278.599 406.171 278.384 406.236 278.196 406.352C278.008 406.468 277.853 406.631 277.747 406.825C277.511 406.813 277.275 406.848 277.053 406.93C276.831 407.011 276.628 407.137 276.456 407.299C276.284 407.461 276.147 407.656 276.052 407.873C275.958 408.089 275.908 408.323 275.906 408.559C275.91 408.827 275.975 409.091 276.096 409.33C276.217 409.569 276.39 409.778 276.603 409.94C276.817 410.103 277.064 410.215 277.326 410.268C277.589 410.321 277.86 410.314 278.12 410.247C278.6 410.102 279.036 409.841 279.39 409.487C279.716 409.18 279.946 408.786 280.056 408.352C280.165 407.919 280.148 407.463 280.007 407.038C279.923 406.788 279.765 406.569 279.552 406.413C279.34 406.256 279.084 406.169 278.82 406.164ZM277.679 406.924C277.74 406.795 277.717 406.871 277.671 406.939L277.679 406.924Z" fill="#FAC07F"/>
<path d="M314.947 357.248C314.932 357.248 314.917 357.254 314.906 357.265C314.896 357.275 314.89 357.29 314.89 357.305C314.89 357.32 314.896 357.335 314.906 357.345C314.917 357.356 314.932 357.362 314.947 357.362C314.962 357.362 314.976 357.356 314.987 357.345C314.998 357.335 315.004 357.32 315.004 357.305C315.004 357.29 314.998 357.275 314.987 357.265C314.976 357.254 314.962 357.248 314.947 357.248Z" fill="#FAC07F"/>
<path d="M293.966 322.302C293.951 322.302 293.937 322.309 293.926 322.319C293.915 322.33 293.909 322.344 293.909 322.36C293.909 322.375 293.915 322.389 293.926 322.4C293.937 322.411 293.951 322.417 293.966 322.417C293.981 322.417 293.996 322.411 294.007 322.4C294.017 322.389 294.023 322.375 294.023 322.36C294.023 322.344 294.017 322.33 294.007 322.319C293.996 322.309 293.981 322.302 293.966 322.302V322.302Z" fill="#FAC07F"/>
<path d="M312.611 297.951C312.623 297.947 312.633 297.939 312.64 297.929C312.647 297.919 312.651 297.906 312.651 297.894C312.651 297.882 312.647 297.87 312.64 297.859C312.633 297.849 312.623 297.841 312.611 297.837C312.602 297.834 312.592 297.833 312.582 297.834C312.573 297.835 312.563 297.839 312.555 297.844C312.547 297.85 312.541 297.857 312.536 297.866C312.532 297.875 312.529 297.884 312.529 297.894C312.529 297.904 312.532 297.914 312.536 297.922C312.541 297.931 312.547 297.938 312.555 297.944C312.563 297.95 312.573 297.953 312.582 297.954C312.592 297.956 312.602 297.955 312.611 297.951Z" fill="#FAC07F"/>
<path d="M224.244 396.224C221.962 399.266 219.459 402.201 217.648 405.502C217.611 405.567 217.598 405.644 217.612 405.718C217.626 405.791 217.667 405.858 217.726 405.904C217.786 405.95 217.86 405.974 217.935 405.97C218.01 405.966 218.081 405.935 218.135 405.882C220.78 403.076 223.209 400.074 225.4 396.901C227.918 393.486 230.345 389.988 232.513 386.345C236.53 379.576 239.543 372.101 239.36 364.115H239.314C238.957 372.177 235.26 379.713 231.068 386.451C228.983 389.851 226.625 393.075 224.244 396.224Z" fill="#FAC07F"/>
<path d="M237.504 380.915C235.178 385.947 232.543 390.832 229.615 395.539C226.488 400.353 222.532 404.323 218.865 408.696C218.576 409.031 218.934 409.601 219.36 409.335C224.145 406.377 227.857 401.57 230.908 396.924C234.15 392.093 236.5 386.72 237.846 381.059C237.891 380.869 237.602 380.717 237.504 380.915Z" fill="#FAC07F"/>
<path d="M75.8007 108.593C76.105 111.528 76.4803 114.441 76.9266 117.331C78.9317 130.177 82.3847 142.754 87.2195 154.824C96.8809 179.16 111.632 201.169 129.319 220.372C139.155 231.057 149.859 241.408 161.696 249.834C161.399 250.1 161.11 250.382 160.829 250.671C159.068 252.449 157.61 254.504 156.515 256.755C152.947 252.899 146.915 253.157 142.746 256.412C140.615 258.126 138.811 260.21 137.421 262.565C136.335 261.946 135.152 261.519 133.921 261.302C131.688 260.875 129.385 261 127.212 261.667C126.983 259.5 125.393 257.158 124.077 255.796C122.197 253.894 119.783 252.608 117.155 252.108C112.712 251.188 107.014 251.986 103.979 255.705C102.548 257.454 101.696 260.39 103.012 262.42C103.088 262.542 103.2 262.636 103.333 262.688C103.466 262.741 103.612 262.749 103.75 262.711C103.888 262.673 104.01 262.592 104.098 262.479C104.185 262.367 104.234 262.229 104.237 262.086C104.283 260.899 104.032 259.804 104.45 258.618C104.813 257.667 105.429 256.834 106.23 256.207C108.26 254.703 110.726 253.902 113.252 253.926C115.993 253.817 118.696 254.596 120.958 256.146C122.085 256.95 123.024 257.988 123.712 259.188C124.197 260.267 124.609 261.378 124.945 262.512C121.635 264.109 118.372 266.991 117.763 270.512C117.73 270.628 117.74 270.753 117.793 270.862C117.845 270.971 117.936 271.057 118.047 271.104C118.159 271.151 118.283 271.155 118.398 271.116C118.512 271.077 118.609 270.998 118.668 270.892C119.916 269.273 121.004 267.615 122.632 266.329C124.162 265.122 125.911 264.221 127.782 263.675C129.589 263.124 131.504 263.025 133.358 263.386C134.355 263.599 135.314 263.96 136.204 264.459L136.341 264.535C134.941 267.359 133.96 270.372 133.427 273.478C133.077 275.509 132.575 278.748 133.252 281.205C130.716 282.087 128.221 283.081 125.766 284.186C109.422 291.525 95.5552 303.441 85.8425 318.493C76.1507 333.703 71.6091 351.833 73.838 369.789C74.3414 373.762 75.1296 377.694 76.1963 381.554C68.9997 386.565 61.864 391.722 54.8956 397.098L54.7282 395.943L51.6168 399.144L47.2121 398.384L48.9846 401.753C43.8496 405.882 38.8287 410.118 33.9752 414.583C28.0947 419.959 22.3587 425.625 17.6041 432.074C14.5611 436.128 11.1682 441.345 11.5181 446.645C12.0583 455.209 23.051 454.068 29.0152 453.3C43.4693 451.444 57.6571 446.714 71.3732 441.892C82.7843 437.915 94.0129 433.527 105.15 428.918C115.04 438.097 126.961 445.155 140.144 448.281C148.688 450.301 157.548 450.595 166.207 449.148C174.986 447.687 183.301 444.28 191.213 440.272C205.819 432.873 219.185 422.477 228.596 408.955C238.49 394.532 243.062 377.119 241.528 359.697C241.437 358.602 241.323 357.514 241.193 356.427L243.476 354.852C256.758 345.665 269.691 335.84 281.596 324.949C289.348 317.831 296.918 310.173 302.768 301.374C305.719 296.925 309.226 291.091 308.481 285.494C308.365 284.554 308.082 283.642 307.644 282.802C306.922 281.527 305.833 280.498 304.518 279.851V279.615C304.667 279.515 304.79 279.379 304.875 279.22C305 278.986 305.048 278.719 305.014 278.456C304.98 278.193 304.865 277.947 304.685 277.752C304.423 277.544 304.114 277.403 303.785 277.342C303.456 277.281 303.117 277.301 302.798 277.402C302.469 277.513 302.167 277.693 301.914 277.93C301.66 278.168 301.461 278.457 301.33 278.779C300.558 278.624 299.778 278.51 298.995 278.437C293.821 277.958 288.489 278.908 283.437 279.958C268.801 283 254.605 288.262 240.653 293.54C232.62 296.582 224.64 299.761 216.667 302.94L216.599 302.978C215.61 301.888 214.595 300.828 213.556 299.799C202.327 288.734 188.025 280.832 172.476 277.904C166.349 276.76 160.099 276.417 153.883 276.885C154.838 274.803 156.3 272.993 158.136 271.623C160.768 269.866 163.461 270.162 166.07 271.752C167.402 272.558 168.451 270.596 167.257 269.714C165.95 268.746 164.395 268.168 162.773 268.046C161.15 267.925 159.527 268.266 158.09 269.029C157.847 267.926 157.367 266.869 157.177 265.721C156.894 264.047 156.943 262.334 157.322 260.679C157.428 260.207 157.55 259.751 157.694 259.302C157.773 259.222 157.834 259.125 157.87 259.018C157.907 258.912 157.92 258.798 157.908 258.686C158.912 256.048 160.483 253.662 162.51 251.697C165.055 249.132 168.209 247.253 171.677 246.237C173.342 245.757 175.073 245.552 176.804 245.628C177.565 245.666 178.326 245.849 179.087 245.887C179.555 245.862 180.021 245.796 180.479 245.689C178.957 249.013 177.702 254.983 181.711 256.549C181.856 256.587 182.009 256.587 182.154 256.548C182.299 256.508 182.431 256.432 182.537 256.326C182.644 256.22 182.72 256.087 182.759 255.943C182.799 255.798 182.799 255.645 182.761 255.5C182.213 254.032 181.43 252.846 181.422 251.218C181.463 249.415 181.932 247.648 182.791 246.062C184.313 243.18 187.09 240.35 190.619 240.883C190.739 240.91 190.865 240.894 190.974 240.838C191.084 240.782 191.17 240.689 191.218 240.576C191.266 240.463 191.272 240.336 191.237 240.219C191.201 240.101 191.125 240 191.023 239.932C187.097 237.202 182.761 241.522 180.943 244.769C180.859 244.921 180.775 245.081 180.692 245.256C180.311 244.816 179.842 244.46 179.315 244.214C178.374 243.936 177.397 243.8 176.416 243.811C174.514 243.766 172.616 244.022 170.794 244.571C167.902 245.445 165.213 246.885 162.883 248.807C153.206 240.244 143.4 231.901 134.446 222.547C125.386 213.124 117.1 202.987 109.669 192.233C95.1084 171.03 84.3515 147.196 79.6121 121.841C78.6904 116.907 78.0175 111.929 77.5961 106.927L75.8007 108.593ZM270.604 301.921C270.786 302.005 270.657 301.997 270.604 301.921V301.921ZM270.52 302.446C269.835 304.279 268.032 306.545 266.595 308.264C263.773 311.577 260.787 314.747 257.648 317.762C250.802 324.47 243.537 330.79 236.089 336.844C233.114 327.664 228.753 318.993 223.156 311.131C232.752 307.945 242.533 305.346 252.445 303.351C257.192 302.37 262.091 301.374 266.96 301.358C268.179 301.303 269.398 301.482 270.55 301.883V301.883C270.528 302.005 270.642 302.104 270.52 302.431V302.446ZM135.245 278.292C135.233 276.453 135.432 274.618 135.838 272.824C136.645 269.101 138.158 265.566 140.296 262.413C142.092 259.797 144.579 257.196 147.729 256.329C150.878 255.462 153.282 257.006 155.709 258.709C155.5 259.305 155.325 259.912 155.184 260.527C154.583 263.204 154.355 267.85 156.424 270.132C155.401 270.959 154.517 271.945 153.807 273.052C153.028 274.238 152.587 275.613 152.529 277.03C146.714 277.557 140.974 278.72 135.412 280.498C135.352 279.752 135.253 279.007 135.245 278.292ZM79.2849 339.817C79.186 341.201 79.1404 342.601 79.1328 343.985C79.0871 349.749 79.6881 355.468 79.8479 361.218C79.8479 361.26 79.8647 361.301 79.8947 361.331C79.9246 361.361 79.9653 361.377 80.0076 361.377C80.05 361.377 80.0906 361.361 80.1206 361.331C80.1506 361.301 80.1674 361.26 80.1674 361.218C80.2815 355.803 79.787 350.388 79.7794 344.973C79.7361 342.176 79.9013 339.38 80.2739 336.608C80.951 334.554 81.7269 332.516 82.5561 330.524C85.7954 323.022 90.1166 316.034 95.3822 309.785C88.3225 320.881 85.1274 334.623 84.5569 347.475C84.5569 347.878 85.1503 347.871 85.1807 347.475C85.6402 339.042 87.3291 330.72 90.194 322.774C91.7494 318.653 93.6823 314.684 95.968 310.918C95.8463 311.329 95.7322 311.747 95.6257 312.165C94.7539 315.508 94.0707 318.898 93.5793 322.318C92.5492 328.734 91.9318 335.209 91.7307 341.703C91.7344 341.761 91.7578 341.815 91.7971 341.858C91.8364 341.9 91.889 341.928 91.9462 341.936C92.0034 341.944 92.0616 341.932 92.111 341.902C92.1605 341.872 92.1981 341.826 92.2175 341.772C93.5564 335.505 93.8531 328.988 94.8193 322.66C95.3138 319.42 95.8691 316.188 96.6527 313.002C97.1471 310.986 97.7786 309.024 98.3871 307.047C98.8664 306.286 99.3609 305.579 99.8554 304.849C101.864 302.796 103.979 300.841 106.177 298.993C102.754 302.933 101.156 308.788 100.015 313.557C98.3719 320.462 97.6797 327.543 97.0254 334.592C97.0254 334.912 97.5351 334.988 97.5884 334.669C98.6154 328.006 99.4065 321.322 100.936 314.751C102.465 308.18 104.694 301.533 109.304 296.499L109.562 296.309C108.987 297.95 108.497 299.62 108.094 301.313C107.425 303.845 106.824 306.4 106.337 308.971C105.409 313.937 104.762 318.918 104.245 323.945C104.245 324.135 104.557 324.181 104.587 323.991C105.432 319.071 106.329 314.142 107.394 309.26C107.927 306.804 108.459 304.347 109.083 301.913C109.631 299.731 110.407 297.571 110.825 295.358C112.385 294.225 113.975 293.137 115.603 292.111C115.504 292.285 115.405 292.453 115.314 292.628C113.994 295.177 112.926 297.849 112.126 300.605C110.498 305.876 109.578 311.329 108.475 316.728C108.475 316.817 108.505 316.904 108.559 316.975C108.613 317.046 108.689 317.097 108.775 317.121C108.861 317.146 108.952 317.141 109.035 317.108C109.118 317.076 109.189 317.017 109.235 316.941C110.65 312.074 111.632 307.093 113.039 302.218C113.77 299.506 114.727 296.86 115.899 294.308C116.58 292.95 117.385 291.656 118.303 290.445C119.439 289.776 120.593 289.134 121.765 288.521C120.92 289.541 120.232 290.682 119.726 291.905C118.672 294.325 117.837 296.835 117.231 299.404C115.953 304.378 115.131 309.465 114.302 314.53C114.291 314.608 114.309 314.688 114.353 314.754C114.396 314.82 114.462 314.868 114.538 314.889C114.614 314.91 114.695 314.903 114.766 314.87C114.837 314.836 114.894 314.777 114.926 314.705C116.576 310.195 117.208 305.283 118.326 300.628C118.897 298.139 119.647 295.694 120.57 293.312C121.459 291.336 122.5 289.432 123.682 287.616C123.691 287.584 123.691 287.549 123.682 287.517C125.386 286.665 127.12 285.859 128.885 285.122C128.741 285.304 128.611 285.479 128.482 285.654C127.362 287.166 126.396 288.786 125.599 290.491C123.87 294.304 122.554 298.292 121.673 302.385C119.825 310.195 119.148 318.188 117.915 326.105C117.87 326.394 118.296 326.531 118.372 326.227C120.144 318.835 121.11 311.268 122.868 303.868C123.775 299.809 125.048 295.841 126.671 292.012C127.378 290.369 128.223 288.789 129.197 287.289C129.958 286.156 131.175 285.106 131.913 283.92C132.62 283.646 133.336 283.388 134.051 283.159C134.096 283.22 134.157 283.273 134.203 283.327C132.742 285.251 131.921 287.7 131.16 289.951C130.08 293.213 129.433 296.582 128.566 299.906C128.555 299.972 128.569 300.04 128.606 300.097C128.642 300.154 128.698 300.195 128.763 300.213C128.828 300.231 128.898 300.224 128.958 300.194C129.019 300.164 129.066 300.113 129.091 300.05C130.133 297.054 130.985 294.004 131.913 290.977C132.719 288.484 133.737 286.064 134.956 283.745C135.049 283.731 135.135 283.689 135.205 283.626C135.274 283.562 135.322 283.479 135.344 283.388C135.382 283.205 135.405 283.015 135.428 282.825L135.504 282.673C136.485 282.346 137.459 282.041 138.448 281.76C137.692 282.861 137.05 284.036 136.531 285.266C135.116 288.451 134 291.761 133.199 295.153C131.555 301.548 130.65 308.081 129.471 314.538C129.46 314.604 129.475 314.673 129.511 314.729C129.548 314.786 129.604 314.827 129.669 314.845C129.734 314.863 129.803 314.856 129.863 314.826C129.924 314.796 129.971 314.745 129.996 314.682C131.829 308.826 132.773 302.682 134.241 296.727C135.016 293.427 136.013 290.182 137.223 287.015C137.729 285.69 138.361 284.417 139.11 283.213C139.589 282.452 140.312 281.821 140.836 281.098C142.137 280.764 143.438 280.467 144.754 280.201C144.112 281.061 143.576 281.996 143.157 282.984C142.225 285.112 141.504 287.325 141.004 289.593C139.939 294.027 139.437 298.582 138.296 302.993C138.204 303.343 138.752 303.609 138.912 303.252C140.593 299.411 141.08 295.084 141.955 291.023C142.402 288.757 143.036 286.531 143.849 284.369C144.581 282.784 145.468 281.276 146.496 279.866C147.455 279.691 148.421 279.539 149.387 279.41C146.146 284.627 145.348 291.251 144.465 297.198C144.438 297.299 144.452 297.407 144.504 297.497C144.556 297.588 144.642 297.654 144.743 297.681C144.844 297.708 144.951 297.695 145.042 297.643C145.133 297.59 145.199 297.505 145.226 297.404C147.082 291.365 147.402 284.589 150.97 279.205C152.103 279.075 153.252 278.969 154.378 278.893C154.226 287.152 153.929 295.289 153.069 303.526C153.069 303.784 153.442 303.815 153.51 303.579C155.952 295.677 155.078 287.023 154.88 278.863C155.869 278.794 156.865 278.756 157.854 278.741C159.154 283.259 160.07 287.879 160.593 292.552C161.103 297.229 161.11 301.936 161.278 306.629C161.292 306.74 161.347 306.843 161.431 306.918C161.516 306.992 161.625 307.033 161.738 307.033C161.851 307.033 161.96 306.992 162.044 306.918C162.129 306.843 162.184 306.74 162.198 306.629C163.325 297.196 162.185 287.63 158.874 278.726C159.535 278.726 160.205 278.726 160.867 278.726C161.395 280.964 162.066 283.166 162.875 285.319C163.636 287.684 164.275 290.095 164.83 292.514C166.025 297.647 166.154 302.735 166.588 307.944C166.626 308.461 167.402 308.636 167.538 308.074C168.763 302.986 167.911 297.32 166.686 292.308C166.025 289.702 165.188 287.144 164.184 284.65C163.475 282.576 162.525 280.593 161.354 278.741H161.704C162.989 278.786 164.267 278.878 165.507 278.999C171.007 290.316 175.085 302.271 174.233 315.04C174.239 315.123 174.273 315.202 174.33 315.263C174.387 315.324 174.464 315.364 174.547 315.376C174.63 315.387 174.714 315.37 174.786 315.327C174.857 315.284 174.912 315.217 174.941 315.139C176.249 308.705 175.496 302.119 173.708 295.852C172.079 289.873 169.492 284.197 166.047 279.045C167.135 279.159 168.216 279.296 169.296 279.456C171.015 282.741 172.833 285.973 174.34 289.342C175.983 293.031 177.048 296.909 178.615 300.605C178.805 301.047 179.551 300.818 179.52 300.362C179.231 296.483 177.512 292.635 175.876 289.16C174.362 285.822 172.549 282.627 170.46 279.615C171.586 279.798 172.696 280.011 173.807 280.247C175.199 283.684 176.903 287.008 178.219 290.491C179.734 294.496 181.004 298.59 182.023 302.75C183.985 311.015 185.243 319.431 185.781 327.908C185.781 328 185.818 328.089 185.884 328.155C185.949 328.221 186.038 328.257 186.131 328.257C186.224 328.257 186.313 328.221 186.378 328.155C186.444 328.089 186.481 328 186.481 327.908C187.044 319.39 185.842 310.819 183.727 302.575C182.647 298.33 181.303 294.157 179.703 290.08C178.488 286.766 176.96 283.575 175.138 280.551C176.503 280.865 177.854 281.22 179.193 281.616C180.327 283.6 181.605 285.487 182.601 287.555C183.906 290.272 185.044 293.066 186.009 295.921C186.937 298.628 187.721 301.374 188.421 304.142C189.052 306.621 189.493 309.192 190.338 311.618C190.574 312.287 191.707 312.234 191.654 311.435C191.398 308.803 190.904 306.199 190.178 303.655C189.417 300.613 188.573 297.655 187.546 294.727C186.662 291.958 185.529 289.275 184.161 286.711C183.277 285.05 182.2 283.501 180.95 282.095C182.152 282.467 183.331 282.855 184.511 283.319C184.545 283.372 184.589 283.418 184.64 283.456C187.065 285.208 189.099 287.446 190.612 290.027C192.243 293.066 193.454 296.312 194.21 299.678C195.952 306.804 196.492 314.127 197.01 321.39C197.119 324.64 197.401 327.882 197.854 331.102C197.938 331.566 198.569 331.398 198.615 331.003C199.375 324.257 198.752 317.116 197.968 310.408C197.124 303.229 195.792 295.685 192.126 289.342C191.27 287.817 190.224 286.407 189.014 285.144C190.908 285.981 192.765 286.901 194.583 287.882C198.622 292.126 200.844 298.377 202.631 303.701C204.772 310.04 206.416 316.537 207.546 323.132C207.637 323.656 208.497 323.535 208.482 323.002C208.2 315.937 206.116 308.887 203.658 302.294C202.385 298.666 200.736 295.182 198.736 291.898C198.149 290.943 197.509 290.021 196.819 289.137L197.649 289.624C197.641 289.639 197.637 289.656 197.637 289.673C197.637 289.69 197.641 289.707 197.649 289.723C198.135 291.145 199.52 292.422 200.395 293.632C201.547 295.235 202.606 296.903 203.567 298.628C205.805 302.617 207.741 306.768 209.356 311.047C210.946 315.171 212.24 319.402 213.229 323.71C213.662 325.656 214.043 327.619 214.324 329.596C214.56 331.269 214.522 333.079 214.902 334.729C214.943 334.872 215.03 334.998 215.148 335.087C215.267 335.176 215.412 335.225 215.56 335.225C215.709 335.225 215.853 335.176 215.972 335.087C216.091 334.998 216.177 334.872 216.218 334.729C216.698 333.109 216.485 331.125 216.325 329.459C216.12 327.413 215.79 325.381 215.336 323.375C214.309 318.83 212.907 314.379 211.144 310.066C209.463 305.803 207.406 301.698 204.997 297.799C203.917 296.071 202.735 294.408 201.46 292.818C201.042 292.293 200.57 291.685 200.045 291.122C201.247 291.898 202.431 292.709 203.598 293.556C204.708 294.354 205.789 295.191 206.854 296.05C207.614 297.723 208.542 299.351 209.318 301.031C210.657 303.952 211.882 306.925 213.054 309.914C214.185 312.737 215.133 315.631 215.891 318.576C216.53 321.116 216.789 323.702 217.337 326.242C217.365 326.338 217.424 326.422 217.504 326.482C217.584 326.542 217.681 326.575 217.782 326.575C217.882 326.575 217.979 326.542 218.059 326.482C218.14 326.422 218.198 326.338 218.227 326.242C218.927 323.892 218.348 321.078 217.823 318.743C217.047 315.565 216.009 312.457 214.72 309.45C213.537 306.575 212.167 303.781 210.619 301.085C209.935 299.891 209.273 298.666 208.55 297.48C209.767 298.524 210.951 299.602 212.103 300.712C212.803 301.875 213.792 302.955 214.491 304.111C215.379 305.584 216.179 307.108 216.888 308.674C218.401 312.159 219.568 315.784 220.372 319.496C222.055 326.756 222.538 334.242 221.802 341.658C221.741 342.243 222.707 342.372 222.829 341.794C224.404 334.189 223.818 326.326 221.893 318.812C220.934 315.111 219.593 311.52 217.892 308.096C217.443 307.191 216.964 306.309 216.462 305.442C217.851 307.267 219.241 309.098 220.631 310.933C220.741 311.092 220.881 311.227 221.045 311.33C221.208 311.434 221.391 311.503 221.582 311.534L221.703 311.701C222.023 312.462 222.319 313.222 222.593 314.036C223.537 316.827 224.328 319.679 225.066 322.531C226.329 327.428 227.12 332.455 228.527 337.315C228.553 337.404 228.61 337.481 228.687 337.532C228.765 337.583 228.858 337.604 228.95 337.592C229.042 337.58 229.127 337.536 229.189 337.467C229.251 337.398 229.286 337.309 229.288 337.216C229.358 335.026 229.102 332.837 228.527 330.721C227.835 327.535 227.006 324.364 226.146 321.223C225.629 319.375 225.089 317.527 224.472 315.701C228.064 321.238 231.048 327.146 233.373 333.322C233.931 334.793 234.438 336.276 234.894 337.771C232.445 339.749 229.972 341.701 227.477 343.627C201.772 363.53 174.066 381.052 144.123 393.821C130.483 399.646 116.516 404.742 102.381 409.244C99.7032 410.096 97.0203 410.93 94.3324 411.746C87.9215 402.694 82.9864 392.683 79.711 382.086C75.4913 368.333 75.3434 353.653 79.2849 339.817V339.817ZM208.139 363.895C218.029 357.529 227.234 350.206 236.408 342.859C236.713 344.005 237.002 345.153 237.276 346.304C237.295 346.418 237.347 346.524 237.426 346.609C237.504 346.694 237.605 346.754 237.717 346.783C237.717 347.643 237.717 348.494 237.717 349.346C233.974 352.267 230.254 355.233 226.595 358.259C226.542 358.305 226.595 358.404 226.671 358.358C230.315 355.552 234.012 352.814 237.724 350.099C237.73 351.206 237.812 352.311 237.968 353.407C238.036 353.864 238.097 354.32 238.158 354.784C237.991 355.164 237.839 355.544 237.686 355.955L235.404 357.476C235.49 357.194 235.561 356.907 235.617 356.617C235.648 356.503 235.636 356.382 235.584 356.276C235.532 356.17 235.444 356.087 235.335 356.042C235.226 355.996 235.105 355.992 234.993 356.029C234.881 356.066 234.787 356.142 234.727 356.244C234.261 357.036 233.861 357.865 233.533 358.723C231.595 360.006 229.648 361.274 227.69 362.526C227.71 362.464 227.725 362.4 227.736 362.336C227.758 362.246 227.751 362.152 227.715 362.067C227.679 361.982 227.616 361.911 227.536 361.865C227.457 361.819 227.364 361.8 227.272 361.81C227.181 361.821 227.095 361.861 227.028 361.925C226.477 362.466 226.028 363.102 225.705 363.804L220.973 366.8C220.872 366.739 220.752 366.719 220.637 366.745C220.523 366.77 220.422 366.839 220.357 366.937L220.113 367.332C214.027 371.115 207.908 374.803 201.757 378.398C182.677 389.511 163.152 399.819 143.18 409.32C131.069 415.115 118.843 420.613 106.504 425.815C105.127 424.507 103.804 423.153 102.51 421.769C111.175 418.4 119.756 414.818 128.299 411.244C131.845 409.723 135.367 408.202 138.881 406.635C140.754 405.678 142.679 404.827 144.648 404.088C144.967 403.989 144.83 403.479 144.503 403.586C139.992 405.008 135.618 406.841 131.221 408.605C122.853 411.951 114.606 415.495 106.23 418.788L101.468 420.636C99.5054 418.456 97.6416 416.174 95.8767 413.792C108.236 410.08 120.438 405.872 132.484 401.167C146.894 395.681 160.908 389.204 174.423 381.782C190.389 372.796 205.776 362.819 220.494 351.909C225.636 348.112 230.708 344.208 235.708 340.197C235.876 340.737 236.028 341.285 236.18 341.832C226.93 349.27 217.831 356.913 208.086 363.689C207.934 363.796 208.033 363.963 208.139 363.895ZM52.3015 420.431C52.2158 420.24 52.1792 420.031 52.195 419.822C52.34 418.979 52.6671 418.177 53.1535 417.472C54.4809 415.354 56.037 413.388 57.794 411.609C62.6538 406.558 67.8461 401.837 73.3359 397.479C75.4914 395.73 77.6696 394.011 79.8707 392.322C82.8587 399.524 86.632 406.375 91.1221 412.75C83.5147 414.978 75.8236 417.001 68.064 418.644C64.4321 419.467 60.7571 420.086 57.0561 420.499C55.8847 420.635 54.7048 420.683 53.5263 420.644C53.2161 420.648 52.9067 420.612 52.6058 420.537C52.4999 420.516 52.3975 420.48 52.3015 420.431V420.431ZM86.8239 433.717C71.6091 439.573 56.0747 445.124 40.16 448.813C34.9247 450.151 29.5767 451.001 24.1845 451.353C21.3621 451.475 17.4215 451.558 15.2534 449.832C14.8212 449.422 14.4758 448.929 14.238 448.383C14.0001 447.837 13.8746 447.249 13.8688 446.653C13.8204 444.459 14.3198 442.286 15.3218 440.333C18.1214 434.249 22.8227 429.07 27.3872 424.309C29.7911 421.815 32.2635 419.386 34.8044 417.024C34.7966 417.185 34.8146 417.347 34.8577 417.503C34.9585 417.827 35.1606 418.111 35.4344 418.312C35.7082 418.513 36.0393 418.621 36.3791 418.621C36.7345 418.611 37.0883 418.57 37.4366 418.499C37.7125 418.43 37.9551 418.266 38.1212 418.035C38.2962 417.82 38.3951 417.552 38.4027 417.275C38.3915 417.043 38.3292 416.817 38.2201 416.613C38.2076 416.589 38.1923 416.566 38.1745 416.545C38.2354 416.336 38.2354 416.114 38.1745 415.906C38.1028 415.646 37.9445 415.418 37.7257 415.259C37.5248 415.093 37.2712 415.004 37.0106 415.008C40.3528 411.966 43.7736 409.026 47.273 406.187L47.1893 406.354L51.5864 405.593L52.0352 406.057C47.9402 409.497 44.0821 413.209 40.4872 417.168C35.7553 422.332 30.9399 428.051 28.3838 434.66C27.2959 437.451 26.5884 440.584 27.6991 443.467C27.7233 443.522 27.7663 443.566 27.8205 443.592C27.8747 443.618 27.9363 443.623 27.9943 443.608C28.0523 443.592 28.1028 443.556 28.1365 443.507C28.1703 443.457 28.1851 443.397 28.1784 443.337C27.1514 437.299 30.4606 431.511 33.8383 426.766C38.0071 420.841 43.1117 415.548 48.2924 410.537C49.6845 409.191 51.0767 407.867 52.446 406.514L54.675 408.795L55.3216 404.369L59.3231 402.392L55.314 400.422L55.2303 399.852C59.635 396.46 64.1082 393.151 68.5813 389.904C71.32 387.917 74.0739 385.96 76.843 384.033C77.4668 386.061 78.1616 388.076 78.9274 390.079C73.4196 394.262 68.0488 398.635 62.9518 403.289C58.6308 407.213 53.6404 411.525 50.8408 416.75C49.7073 418.864 49.0379 422.188 52.058 422.895C54.5 423.473 57.3147 422.94 59.7415 422.606C70.0724 421.169 80.2815 418.377 90.27 415.503L92.5523 414.826C93.8354 416.57 95.1616 418.266 96.5309 419.914C97.0787 420.583 97.6416 421.237 98.2198 421.891C91.3731 424.469 84.5264 426.933 77.6113 429.161C69.4866 431.778 61.1641 434.386 52.6742 435.428C48.551 435.938 40.5632 437.025 39.4525 431.374C39.4525 431.329 39.3841 431.374 39.3765 431.374C39.0417 436.219 45.2342 436.835 48.7412 436.835C56.6301 436.835 64.6711 434.455 72.1796 432.272C81.3085 429.603 90.3233 426.446 99.2392 423.039C100.522 424.464 101.849 425.848 103.218 427.192C97.8014 429.417 92.3316 431.59 86.8087 433.709L86.8239 433.717ZM238.698 360.48C239.001 364.996 238.92 369.53 238.455 374.032C237.597 382.186 235.31 390.125 231.699 397.486C230.232 400.491 228.562 403.393 226.701 406.171C221.802 410.286 216.234 413.48 210.688 416.697C210.3 416.917 210.642 417.457 211.03 417.275C214.758 415.693 219.041 413.944 222.738 411.548C221.764 412.765 220.75 413.954 219.695 415.115C215.61 416.841 211.935 419.678 208.033 421.754C205.764 423.006 203.386 424.047 200.927 424.865C198.767 425.564 196.363 425.724 194.271 426.675C194.235 426.696 194.207 426.728 194.189 426.765C194.171 426.803 194.164 426.845 194.17 426.886C194.175 426.927 194.193 426.966 194.22 426.997C194.248 427.029 194.284 427.051 194.324 427.062C196.485 427.58 198.889 426.705 200.95 425.975C203.187 425.142 205.37 424.169 207.485 423.062C210.931 421.353 214.288 419.47 217.542 417.419C216.497 418.489 215.43 419.536 214.339 420.56C212.308 421.207 210.239 422.842 208.474 423.792C206.138 425.108 203.811 426.439 201.437 427.678C198.967 429.046 196.428 430.285 193.83 431.39C191.309 432.318 188.738 433.107 186.131 433.755C186.105 433.755 186.08 433.765 186.061 433.784C186.043 433.802 186.032 433.828 186.032 433.854C186.032 433.88 186.043 433.905 186.061 433.924C186.08 433.942 186.105 433.953 186.131 433.953C191.258 433.618 196.675 431.413 201.247 429.177C203.75 427.952 206.199 426.629 208.619 425.245L209.607 424.682C206.515 427.205 203.279 429.546 199.916 431.694C198.584 432.538 197.238 433.375 195.876 434.181C194.978 434.47 194.096 434.804 193.244 435.071C191.198 435.687 189.128 436.227 187.044 436.66C184.92 437.103 182.774 437.433 180.616 437.649C178.578 437.718 176.546 437.903 174.53 438.204C174.494 438.215 174.462 438.237 174.44 438.267C174.418 438.297 174.406 438.334 174.406 438.371C174.406 438.409 174.418 438.445 174.44 438.475C174.462 438.505 174.494 438.528 174.53 438.538C178.394 439.717 183.164 438.751 187.044 437.968C188.193 437.732 189.326 437.466 190.475 437.208C187.1 438.988 183.625 440.572 180.068 441.953C179.52 442.06 178.972 442.212 178.425 442.303C176.967 442.544 175.49 442.648 174.012 442.615C171.639 442.577 169.106 441.793 166.755 441.991C166.73 441.992 166.706 442.001 166.687 442.016C166.668 442.032 166.654 442.053 166.648 442.078C166.642 442.102 166.644 442.127 166.654 442.15C166.663 442.173 166.68 442.192 166.702 442.204C168.642 443.664 171.951 443.725 174.309 443.763H174.887C172.605 444.478 170.262 445.094 167.911 445.581C167.881 445.527 167.837 445.483 167.783 445.453C167.729 445.424 167.668 445.41 167.607 445.413C164.974 445.551 162.337 445.237 159.809 444.486C159.79 444.476 159.768 444.474 159.748 444.48C159.728 444.487 159.71 444.5 159.7 444.519C159.689 444.537 159.686 444.559 159.691 444.58C159.695 444.6 159.708 444.618 159.726 444.63C160.783 445.622 162.145 446.225 163.59 446.341C159.943 446.862 156.256 447.048 152.575 446.896C136.021 446.136 120.563 438.577 108.376 427.61C111.769 426.18 115.154 424.725 118.532 423.245C117.527 425.237 116.653 427.291 115.557 429.23C115.428 429.45 115.74 429.717 115.93 429.511C117.634 427.587 118.699 425.116 119.734 422.667C121.498 421.906 123.256 421.146 125.013 420.324C124.579 421.085 124.184 421.929 123.788 422.728C122.647 425.009 121.506 427.291 120.433 429.572C120.304 429.846 120.631 430.142 120.859 429.907C123.575 427.131 124.541 423.062 126.443 419.678L127.28 419.305L132.179 417.077C131.266 418.56 130.498 420.119 129.699 421.64C128.132 424.629 126.694 427.686 125.355 430.766C125.241 431.04 125.584 431.397 125.804 431.116C127.7 428.488 129.343 425.687 130.711 422.75C131.86 420.469 133.062 418.301 134.241 416.073L139.749 413.51C138.339 415.586 137.068 417.753 135.945 419.997C134.188 423.153 132.468 426.34 130.62 429.466C130.376 429.884 130.992 430.226 131.266 429.838C133.343 426.872 135.192 423.754 137.086 420.712C138.744 418.005 140.829 415.389 142.107 412.423C144.283 411.409 146.453 410.369 148.619 409.305C146.618 412.195 145.112 415.541 143.453 418.56C141.095 422.834 138.676 427.078 135.96 431.131C135.717 431.496 136.28 431.892 136.569 431.603C139.685 427.901 142.381 423.866 144.61 419.571C146.58 415.951 148.847 412.278 150.422 408.43C152.79 407.284 155.151 406.121 157.504 404.939C156.675 406.225 155.983 407.593 155.222 408.841C153.586 411.609 151.974 414.37 150.095 416.986C149.555 417.746 150.779 418.408 151.319 417.701C153.241 415.131 155.019 412.458 156.645 409.692C157.93 407.742 159.087 405.71 160.106 403.608C161.97 402.673 163.834 401.73 165.682 400.772C164.982 401.623 164.343 402.521 163.742 403.312C161.985 405.685 160.353 408.147 158.851 410.689C155.808 415.754 152.841 420.887 149.494 425.762C149.227 426.15 149.821 426.599 150.133 426.264C154.035 422.066 156.789 417.024 159.695 412.126C161.163 409.662 162.655 407.206 164.26 404.833C165.53 402.962 167.303 401.22 168.581 399.274C170.581 398.239 172.575 397.19 174.568 396.14C173.153 398.064 171.898 400.125 170.642 402.11C168.558 405.403 166.603 408.787 164.503 412.08C164.062 412.772 165.142 413.381 165.599 412.719C167.767 409.578 169.752 406.346 171.761 403.106C173.548 400.217 175.564 397.479 177.398 394.634C179.064 393.737 180.73 392.847 182.388 391.942C181.627 392.977 180.867 394.034 180.167 394.984C177.885 398.026 175.777 401.152 173.739 404.331C169.689 410.586 166.035 417.088 162.799 423.8C162.764 423.879 162.76 423.967 162.787 424.049C162.813 424.131 162.869 424.2 162.943 424.243C163.018 424.286 163.105 424.301 163.189 424.284C163.274 424.266 163.349 424.219 163.4 424.15C167.592 418.248 171.122 411.852 175.001 405.745C176.926 402.703 178.927 399.715 181.042 396.81C182.114 395.342 183.21 393.904 184.336 392.482C185.096 391.562 185.918 390.68 186.618 389.729L188.664 388.619C188.238 389.296 187.858 389.98 187.493 390.558C185.431 393.813 183.605 397.228 181.635 400.528C177.185 408.004 172.552 415.328 167.805 422.583C167.637 422.842 168.033 423.153 168.231 422.91C173.509 416.352 178.287 409.406 182.525 402.133C184.554 398.756 186.537 395.352 188.474 391.919C189.417 390.254 190.756 388.741 191.517 386.999C193.505 385.889 195.483 384.771 197.451 383.645C195.861 386.231 194.454 388.969 192.886 391.532C190.604 395.235 188.177 398.863 185.857 402.551C183.537 406.24 181.293 409.791 179.17 413.48C177.048 417.168 174.826 420.826 173.313 424.75C173.274 424.857 173.442 424.918 173.495 424.827C175.732 421.13 177.74 417.305 180.053 413.647C182.365 409.989 184.861 406.323 187.31 402.688C189.76 399.053 191.996 395.585 194.21 391.957C196.021 388.984 198.135 385.828 199.429 382.52C201.08 381.569 202.73 380.618 204.374 379.652C204.008 380.459 203.658 381.265 203.271 382.01C202.167 384.155 200.988 386.261 199.832 388.368C197.489 392.558 194.948 396.642 192.46 400.749C192.232 401.129 192.787 401.426 193.039 401.091C195.997 397.16 198.674 393.026 201.049 388.718C202.228 386.619 203.331 384.459 204.358 382.284C204.906 381.135 205.583 379.888 206.123 378.626C207.888 377.581 209.663 376.532 211.448 375.477C210.3 377.5 209.25 379.614 208.124 381.561C206.177 384.953 204.153 388.307 202.145 391.676C198.128 398.399 193.776 404.954 190.117 411.89C190.102 411.917 190.092 411.947 190.088 411.978C190.084 412.009 190.086 412.04 190.094 412.07C190.102 412.1 190.116 412.128 190.135 412.153C190.154 412.177 190.178 412.198 190.205 412.214C190.232 412.229 190.261 412.239 190.292 412.243C190.323 412.247 190.355 412.245 190.385 412.237C190.415 412.229 190.443 412.215 190.467 412.196C190.492 412.177 190.513 412.153 190.528 412.126C195.222 405.715 199.33 398.848 203.461 392.064C205.499 388.718 207.447 385.318 209.364 381.904C210.733 379.455 212.331 376.877 213.502 374.222C214.978 373.335 216.449 372.438 217.915 371.53C217.215 373.051 216.553 374.572 215.823 376.04C214.263 379.12 212.59 382.124 210.908 385.166C207.523 391.25 203.818 397.076 199.969 402.848C199.809 403.091 200.189 403.395 200.38 403.167C204.76 397.732 208.719 391.971 212.224 385.934C213.967 382.961 215.556 379.888 217.093 376.808C218.158 374.664 219.421 372.39 220.326 370.062L223.499 368.078L223.324 368.405C222.122 370.732 220.942 373.066 219.748 375.394C217.371 380.154 214.716 384.77 211.798 389.22C211.555 389.577 212.126 390.033 212.399 389.691C215.647 385.544 218.452 381.068 220.768 376.337C222.023 373.933 223.21 371.492 224.434 369.066C224.83 368.306 225.233 367.492 225.644 366.709C227.703 365.396 229.754 364.07 231.798 362.731C231.349 363.689 230.901 364.64 230.444 365.591C228.923 368.709 227.318 371.774 225.629 374.785C222.213 380.869 218.455 386.809 215.176 392.984C215.141 393.044 215.131 393.115 215.148 393.182C215.165 393.249 215.208 393.306 215.267 393.342C215.327 393.377 215.398 393.387 215.465 393.37C215.532 393.353 215.59 393.31 215.625 393.25C219.729 387.444 223.503 381.411 226.93 375.181C228.611 372.139 230.231 369.097 231.737 365.986C232.463 364.465 233.152 362.944 233.807 361.423L236.431 359.682C235.914 361.355 235.419 363.028 234.864 364.64C233.548 368.359 232.027 372.04 230.459 375.69C227.226 382.999 223.05 389.729 219.223 396.718C219.079 396.977 219.451 397.304 219.649 397.053C224.723 390.832 228.626 383.508 231.928 376.223C233.495 372.755 234.872 369.196 236.104 365.575C236.865 363.294 237.77 360.815 238.386 358.343L238.516 358.252C238.584 358.959 238.645 359.72 238.698 360.48ZM305.955 288.818C305.38 291.471 304.384 294.016 303.004 296.354C298.637 304.271 292.353 311.123 285.963 317.466C275.685 327.695 264.328 336.836 252.643 345.407C248.732 348.271 244.779 351.075 240.783 353.818C240.737 353.521 240.699 353.225 240.653 352.936C240.412 351.523 240.001 350.144 239.429 348.829C244.297 345.278 249.189 341.734 253.997 338.091C262.935 331.322 271.92 324.447 279.809 316.439C280.014 316.234 279.71 315.937 279.489 316.127C270.801 323.634 261.931 330.889 252.764 337.809C248.2 341.254 243.635 344.7 239.155 348.198C238.919 347.666 238.675 347.133 238.394 346.593C238.485 346.512 238.552 346.408 238.587 346.291C238.622 346.174 238.624 346.049 238.592 345.932C238.287 344.586 237.945 343.239 237.58 341.901C244.837 336.091 252.102 330.288 259.71 324.949C259.9 324.812 259.71 324.501 259.52 324.63C251.828 329.651 244.412 335.084 237.306 340.905C237.154 340.357 236.994 339.81 236.834 339.27C242.974 334.296 249.006 329.14 254.765 323.77C258.652 320.173 262.456 316.447 266.047 312.507C268.312 310.17 270.315 307.592 272.019 304.819C272.916 303.222 273.738 301.1 271.828 299.868C269.044 298.065 264.335 299.008 261.3 299.396C249.737 300.917 238.272 303.959 227.127 307.344C225.438 307.851 223.757 308.385 222.084 308.948C221.003 307.513 219.918 306.081 218.828 304.651C232.141 299.328 245.454 294.057 259.048 289.441C265.712 287.16 272.445 285.061 279.284 283.357C284.609 282.034 290.132 280.855 295.662 280.726C298.911 280.657 303.726 280.726 305.552 284.019C305.818 284.654 306.01 285.317 306.123 285.996C306.194 286.94 306.137 287.889 305.955 288.818V288.818Z" fill="#FAC07F"/>
<path d="M287.096 295.077C285.658 292.795 282.79 291.981 280.25 291.715C274.848 291.152 269.226 292.476 263.985 293.632C258.903 294.749 253.745 296.073 248.603 296.841C248.549 296.841 248.565 296.94 248.603 296.94C252.832 297.031 256.887 295.867 260.972 294.856C265.746 293.565 270.632 292.727 275.563 292.354C280.668 292.088 288.625 293.267 286.655 300.149C285.05 305.784 280.151 310.621 276.149 314.66C270.864 319.886 265.305 324.828 259.497 329.467C255.145 333.011 250.368 336.22 246.336 340.152C246.039 340.433 246.435 340.988 246.785 340.737C257.222 333.17 267.507 324.972 276.568 315.785C280.744 311.557 285.696 306.545 287.477 300.681C288.07 298.879 288.176 296.78 287.096 295.077Z" fill="#FAC07F"/>
<path d="M289.287 287.715C289.021 287.601 288.793 287.988 289.059 288.102C291.57 289.19 292.946 291.601 294.08 293.966C294.133 294.08 294.323 293.966 294.285 293.882C293.395 291.274 291.904 288.84 289.287 287.715Z" fill="#FAC07F"/>
<path d="M53.9446 110.912C50.608 123.089 48.5354 135.576 47.7598 148.177C46.0436 173.88 48.9053 199.684 56.2116 224.387C59.924 236.867 64.6558 249.644 72.1263 260.397C72.1929 260.511 72.302 260.594 72.4297 260.628C72.5574 260.661 72.6932 260.643 72.8072 260.576C72.9212 260.51 73.004 260.4 73.0376 260.273C73.0711 260.145 73.0525 260.009 72.986 259.895C67.7521 249.515 62.8681 239.058 59.2926 227.954C55.4572 215.997 52.7074 203.718 51.0766 191.267C47.7674 166.315 48.3836 140.45 54.3402 115.977C54.751 114.279 55.1922 112.591 55.6639 110.912C56.9952 106.083 55.5346 105.14 53.9446 110.912Z" fill="#FAC07F"/>
<path d="M107.265 251.127C99.764 242.761 92.7423 234.069 86.8542 224.456C80.7567 214.501 75.6602 203.968 71.6394 193.009C67.6843 182.27 64.7924 171.169 63.005 159.866C62.8072 158.649 62.6322 157.425 62.4649 156.2C62.8351 156.113 63.1649 155.903 63.401 155.605C63.6371 155.307 63.7656 154.938 63.7657 154.558C63.7657 154.375 63.7657 154.193 63.7657 154.002C63.7977 153.834 63.818 153.664 63.8266 153.493C63.8417 153.384 63.8417 153.274 63.8266 153.166C63.8266 153.128 63.8266 153.097 63.8266 153.09C63.9213 152.814 63.9601 152.522 63.9407 152.231C63.9309 152.035 63.8465 151.852 63.7049 151.717C63.5632 151.583 63.3753 151.508 63.18 151.508C62.7258 151.499 62.2773 151.609 61.8791 151.827C60.8673 142.656 60.6695 133.34 62.0997 124.251C63.2332 117.057 65.0894 110.007 66.6642 102.904C68.1856 96.0595 69.5398 88.926 69.0909 81.8532C69.077 81.7491 69.0258 81.6536 68.9467 81.5844C68.8677 81.5152 68.7662 81.4771 68.6611 81.4771C68.556 81.4771 68.4545 81.5152 68.3755 81.5844C68.2964 81.6536 68.2452 81.7491 68.2313 81.8532C67.7869 88.5084 66.8281 95.1192 65.3633 101.626C63.9559 108.037 62.3203 114.403 61.126 120.86C59.1709 131.507 59.3002 142.283 60.5098 152.999C60.3474 153.507 60.2779 154.04 60.3044 154.573C60.3151 155.041 60.509 155.486 60.8445 155.812L60.9586 156.687C64.0636 179.671 71.7297 201.804 83.507 221.786C89.8972 232.563 97.4589 243.141 106.862 251.499C106.886 251.526 106.916 251.547 106.948 251.562C106.981 251.577 107.017 251.586 107.053 251.587C107.089 251.589 107.125 251.583 107.158 251.571C107.192 251.558 107.223 251.539 107.25 251.515C107.276 251.49 107.298 251.461 107.313 251.428C107.328 251.395 107.336 251.36 107.338 251.324C107.339 251.288 107.333 251.252 107.321 251.218C107.308 251.184 107.289 251.153 107.265 251.127Z" fill="#FAC07F"/>
<path d="M70.7493 111.536C70.5313 121.532 71.0398 131.531 72.2707 141.454C74.7127 161.052 80.0836 180.369 89.4863 197.808C92.1081 202.703 95.0722 207.407 98.3565 211.885C101.552 216.212 105.051 220.592 109.144 224.114C109.202 224.172 109.282 224.205 109.364 224.205C109.447 224.205 109.527 224.172 109.585 224.114C109.644 224.055 109.676 223.976 109.676 223.893C109.676 223.81 109.644 223.731 109.585 223.672C106.496 219.824 103.248 216.151 100.342 212.151C97.5139 208.253 94.9056 204.201 92.5293 200.013C87.713 191.488 83.7945 182.486 80.8367 173.152C74.9263 154.355 71.9498 134.76 72.0121 115.057C72.0121 113.871 72.0121 112.684 72.0121 111.498" fill="#FAC07F"/>
<path d="M78.1819 271.82C79.6037 270.095 81.5208 268.847 83.6744 268.246C86.0442 267.494 88.5374 267.21 91.0156 267.409C93.488 267.592 95.7246 268.52 98.1285 268.93C98.2635 268.965 98.4061 268.954 98.5346 268.9C98.6631 268.846 98.7704 268.752 98.8402 268.631C98.91 268.511 98.9384 268.371 98.9212 268.232C98.904 268.094 98.842 267.965 98.7447 267.866C97.0102 265.736 93.5793 265.158 91.0156 264.991C89.7855 264.916 88.5514 264.944 87.326 265.074C86.8166 263.736 86.6596 262.289 86.8701 260.872C87.0806 259.455 87.6514 258.116 88.528 256.983C90.5363 254.26 93.4347 253.043 96.4168 251.659C96.9189 251.431 96.6222 250.716 96.1506 250.693C92.2784 250.48 88.4671 253.568 86.5044 256.671C84.8003 259.363 84.3439 262.588 85.7437 265.28C84.5006 265.501 83.2825 265.845 82.1073 266.306C79.7338 267.257 77.4211 268.809 76.1659 271.105C75.0933 273.06 74.4923 276.482 76.1659 278.277C76.217 278.325 76.2797 278.36 76.3479 278.377C76.4162 278.394 76.4877 278.394 76.5557 278.376C76.6237 278.357 76.6858 278.322 76.7361 278.272C76.7864 278.223 76.8232 278.162 76.843 278.094C77.0712 276.992 76.843 275.813 76.9647 274.725C77.1317 273.673 77.5492 272.677 78.1819 271.82V271.82Z" fill="#FAC07F"/>
<path d="M42.3048 321.413C42.375 321.481 42.4615 321.53 42.5561 321.555C42.6507 321.58 42.7501 321.58 42.8448 321.556C42.9395 321.532 43.0264 321.483 43.097 321.415C43.1677 321.348 43.2197 321.263 43.2481 321.17C43.6057 319.687 42.9667 317.793 42.9667 316.234C42.9926 314.377 43.2925 312.535 43.8567 310.766C45.0659 306.989 47.1095 303.532 49.8362 300.651C51.2666 299.093 52.8959 297.73 54.6821 296.598C55.1442 296.73 55.6294 296.761 56.1047 296.689C56.1586 296.673 56.2075 296.644 56.2468 296.604C56.2861 296.563 56.3143 296.514 56.3289 296.459C56.3434 296.405 56.3437 296.348 56.3297 296.294C56.3158 296.239 56.288 296.189 56.2492 296.149C56.1655 296.05 56.0666 295.959 55.9677 295.86C56.9639 295.345 58.0087 294.929 59.0868 294.62C62.7611 293.601 65.7356 294.62 69.0601 296.141C69.2025 296.218 69.3673 296.241 69.5254 296.208C69.6835 296.174 69.8247 296.086 69.9239 295.959C70.0232 295.831 70.0742 295.673 70.0678 295.511C70.0615 295.35 69.9983 295.196 69.8893 295.077C65.8726 290.605 58.9346 291.852 54.2028 294.537C53.5654 294.154 52.9777 293.694 52.4531 293.168C51.4156 292.021 50.6831 290.633 50.323 289.129C49.4862 285.852 50.0872 282.323 51.1751 279.182C53.5714 272.261 59.1781 265.318 66.5648 263.508C68.5213 263.022 70.5653 263.006 72.5291 263.462C74.9026 264.017 76.8805 265.303 79.0486 266.345C79.1831 266.408 79.3351 266.423 79.4793 266.387C79.6234 266.351 79.7508 266.266 79.84 266.148C79.9293 266.029 79.9749 265.883 79.9693 265.735C79.9638 265.587 79.9073 265.445 79.8093 265.333C77.0326 261.926 71.9965 260.618 67.782 261.15C63.5675 261.683 59.9236 263.896 56.9415 266.778C51.3348 272.162 46.7856 281.045 48.5125 288.992C48.9032 290.877 49.773 292.629 51.0381 294.08C51.5173 294.62 52.05 295.109 52.6281 295.54C47.2132 299.342 43.3021 304.92 41.5745 311.306C41.1022 313.086 40.882 314.924 40.9203 316.766C40.9659 318.15 41.1637 320.462 42.3048 321.413Z" fill="#FAC07F"/>
<path d="M106.032 282.262C107.409 281.067 109.04 280.2 110.802 279.729C112.437 279.296 114.21 279.547 115.808 279.068C115.901 279.038 115.984 278.982 116.047 278.907C116.11 278.831 116.15 278.74 116.163 278.642C116.176 278.545 116.16 278.446 116.119 278.357C116.078 278.268 116.012 278.193 115.929 278.14C114.278 276.923 111.646 277.379 109.843 277.95C107.854 278.558 106.023 279.597 104.48 280.992C102.35 282.931 99.9157 286.795 100.95 289.859C100.517 289.944 100.09 290.058 99.6722 290.202L99.444 290.285C98.1355 288.004 94.2786 286.848 91.9431 287.023C88.8469 287.243 86.2223 289.198 84.3357 291.54C82.2122 294.216 80.6589 297.299 79.7713 300.598C78.9573 303.48 78.4476 306.682 79.6191 309.518C79.756 309.853 80.3266 309.853 80.2962 309.427C80.0355 303.774 81.7724 298.209 85.2029 293.708C86.7244 291.768 88.8165 289.821 91.2889 289.365C92.5163 289.154 93.7786 289.31 94.9176 289.814C95.7674 290.252 96.5791 290.761 97.3444 291.335C95.5034 292.552 94.0656 294.377 94.0428 296.658C94.0292 296.754 94.0514 296.852 94.1053 296.933C94.1592 297.014 94.2409 297.072 94.3349 297.096C94.4289 297.121 94.5286 297.11 94.615 297.065C94.7014 297.021 94.7685 296.947 94.8035 296.856C96.4163 294.696 98.0747 292.78 100.798 292.088C102.066 291.765 103.388 291.711 104.678 291.928C105.728 292.095 106.762 292.688 107.721 292.065C107.813 292.006 107.884 291.921 107.925 291.82C107.966 291.719 107.974 291.608 107.949 291.502C107.645 289.608 104.906 289.35 102.624 289.578C102.588 288.468 102.74 287.36 103.073 286.3C103.701 284.725 104.72 283.336 106.032 282.262V282.262Z" fill="#FAC07F"/>
<path d="M48.1555 321.595C49.6933 320.59 51.4334 319.936 53.2524 319.679C55.4053 319.375 57.4289 319.945 59.5666 319.937C59.6332 319.933 59.6966 319.907 59.7479 319.864C59.7992 319.821 59.8359 319.764 59.8527 319.699C59.8694 319.634 59.8656 319.566 59.8415 319.504C59.8175 319.442 59.7746 319.388 59.7187 319.352C56.6758 317.359 51.9059 318.013 48.7793 319.405C45.4641 321.018 42.7488 323.644 41.0273 326.904C37.2236 333.604 36.4629 342.448 39.5591 349.551C41.2708 353.445 44.4583 356.746 48.688 357.742C48.738 357.763 48.7914 357.773 48.8454 357.773C48.8994 357.773 48.9528 357.762 49.0026 357.741C49.0524 357.72 49.0977 357.69 49.1357 357.651C49.1737 357.613 49.2038 357.568 49.2243 357.518C49.2448 357.468 49.2552 357.414 49.255 357.36C49.2549 357.306 49.244 357.253 49.2232 357.203C49.2023 357.153 49.1719 357.108 49.1336 357.07C49.0953 357.032 49.0499 357.002 48.9999 356.982C42.701 353.179 39.4906 346.874 39.5667 339.543C39.62 332.851 42.2902 325.367 48.1555 321.595Z" fill="#FAC07F"/>
<path d="M190.018 251.423C191.912 248.746 193.868 245.986 197.276 245.278C200.121 244.685 203.027 245.636 205.438 247.126C208.225 248.916 210.524 251.366 212.133 254.26C213.951 257.424 214.324 260.663 214.894 264.147C214.978 264.656 215.655 264.565 215.83 264.147C217.047 260.481 215.579 256.055 213.791 252.823C211.906 249.482 209.127 246.733 205.766 244.883C202.898 243.324 199.345 242.434 196.15 243.468C194.58 243.982 193.163 244.879 192.027 246.077C190.653 247.468 189.744 249.251 189.425 251.18C189.411 251.254 189.422 251.331 189.458 251.397C189.494 251.464 189.552 251.516 189.622 251.545C189.692 251.573 189.769 251.577 189.842 251.555C189.914 251.533 189.976 251.486 190.018 251.423V251.423Z" fill="#FAC07F"/>
<path d="M98.242 14.7234C98.843 16.5866 99.3983 18.4575 99.9385 20.3435C100.334 21.7277 100.441 23.8115 101.764 24.6252C101.877 24.6894 102.01 24.707 102.135 24.6743C102.26 24.6416 102.367 24.5612 102.434 24.4503C103.362 23.1954 102.502 21.1041 102.145 19.7351C101.65 17.8415 100.988 15.9935 100.342 14.1454C99.695 12.2974 99.0256 10.457 98.3637 8.61654C97.8344 6.81385 97.1864 5.04816 96.4238 3.33102C96.358 3.22891 96.2613 3.15047 96.1478 3.10712C96.0343 3.06378 95.9099 3.0578 95.7928 3.09005C95.6756 3.1223 95.5718 3.19109 95.4965 3.28642C95.4212 3.38174 95.3783 3.49861 95.374 3.62001C95.4899 5.49829 95.8662 7.35137 96.4923 9.12608C97.0172 11.0121 97.641 12.8678 98.242 14.7234Z" fill="#FAC07F"/>
<path d="M93.0086 28.6635C94.804 29.1807 96.6145 29.6522 98.3946 30.2226C100.677 30.945 102.465 32.2911 102.061 34.9073C101.696 37.2877 101.05 39.6985 100.54 42.0408C99.3394 47.1593 97.8304 52.2005 96.0211 57.1369C95.1387 59.6161 94.2182 62.0802 93.2825 64.5366C92.8336 65.7154 92.3848 66.8942 91.974 68.0882C91.7686 68.6814 91.5404 69.2746 91.3578 69.8754C91.2365 70.5776 91.0791 71.2731 90.8861 71.9592C90.7112 72.385 91.3045 72.598 91.586 72.3622C93.4042 70.8412 94.1269 67.7992 94.9637 65.6546C96.0211 62.9015 97.071 60.1485 98.0751 57.3726C100.161 51.7542 101.876 46.0051 103.21 40.1624C104.1 36.0709 105.736 31.4394 101.149 28.9753C99.2924 28.1198 97.3377 27.4966 95.3289 27.1197C92.9401 26.5265 90.6123 25.9029 88.254 25.2184C88.1421 25.1936 88.0251 25.2049 87.9201 25.2509C87.8151 25.2969 87.7274 25.3751 87.6698 25.4742C87.6122 25.5733 87.5876 25.6881 87.5997 25.8021C87.6117 25.9161 87.6597 26.0233 87.7367 26.1082C89.0071 27.6368 91.1828 28.1388 93.0086 28.6635Z" fill="#FAC07F"/>
<path d="M43.9176 62.3615C44.05 62.4361 44.1996 62.4747 44.3515 62.4733C44.5035 62.4719 44.6524 62.4307 44.7833 62.3536C44.9143 62.2766 45.0227 62.1666 45.0978 62.0345C45.1728 61.9024 45.2118 61.7529 45.2109 61.601C45.2109 60.5515 44.5718 59.6465 44.6023 58.559C44.6833 57.5195 45.0434 56.5211 45.6445 55.6691C47.0443 53.4788 49.258 51.8665 51.35 50.3455C53.4421 48.8245 55.8384 47.4328 58.0674 45.9422C59.7151 44.9901 61.1373 43.693 62.2362 42.1396C62.4112 41.8659 62.0308 41.5997 61.8026 41.805C60.091 43.326 57.8544 44.4896 55.9145 45.6988C53.3359 47.2196 50.8374 48.8721 48.4288 50.6497C46.4813 52.1707 44.4577 53.9275 43.4003 56.2014C42.5483 57.9886 42.1146 60.9926 43.9176 62.3615Z" fill="#FAC07F"/>
<path d="M101.179 81.1765C99.9281 80.9962 98.7009 80.6774 97.5202 80.2259C96.9028 80.0527 96.3208 79.7721 95.8009 79.3969C95.2075 78.8189 95.5118 78.1649 95.6944 77.3207C96.4487 74.3361 97.3913 71.4023 98.5167 68.5369C99.2775 66.301 100.89 62.643 99.9774 60.2854C99.9618 60.2016 99.9201 60.125 99.8582 60.0664C99.7963 60.0079 99.7175 59.9704 99.633 59.9594C99.5485 59.9484 99.4627 59.9645 99.3879 60.0053C99.3131 60.0461 99.2531 60.1095 99.2166 60.1865C98.3037 61.525 98.1136 63.5023 97.581 65.0309C96.9877 66.7497 96.341 68.4532 95.702 70.1568C95.063 71.8603 94.424 73.5942 93.9295 75.3586C93.6024 76.5298 92.6362 78.971 93.2448 80.127C93.7545 81.0928 95.3825 81.9446 96.3258 82.4085C97.6424 83.0105 99.0387 83.4203 100.472 83.6253C103.005 84.0284 106.512 84.5151 108.642 82.7888C109.091 82.4237 108.787 81.7469 108.323 81.5872C106.132 80.8343 103.53 81.5111 101.179 81.1765Z" fill="#FAC07F"/>
<path d="M73.5036 43.2348C76.4401 42.5504 79.0038 40.3829 81.5218 38.8315C82.9065 37.9517 84.362 37.1885 85.8732 36.55C86.847 36.1545 88.4598 36.0861 89.0151 35.105C89.046 35.0495 89.0582 34.9856 89.05 34.9226C89.0417 34.8596 89.0135 34.8009 88.9695 34.7552C88.0946 33.9186 86.6872 34.5803 85.6983 34.9453C85.47 35.029 85.2342 35.1202 85.006 35.2191C85.3045 34.9956 85.5914 34.757 85.8656 34.5042C86.1167 34.2685 85.8656 33.9186 85.5461 33.9643C83.3628 34.2989 81.4457 35.7971 79.5895 36.8998C77.8779 37.9113 75.5956 38.7174 74.2643 40.208C74.2533 40.222 74.2463 40.2387 74.2439 40.2563C74.2416 40.2739 74.244 40.2919 74.2511 40.3082C74.2581 40.3246 74.2694 40.3387 74.2837 40.3492C74.2981 40.3597 74.3151 40.3661 74.3328 40.3677C75.5144 40.4258 76.6876 40.1406 77.7105 39.5464C76.1616 40.5736 74.7032 41.7313 73.3514 43.0067C73.3396 43.0316 73.3344 43.0592 73.3363 43.0868C73.3383 43.1143 73.3474 43.1409 73.3628 43.1639C73.3781 43.1869 73.3991 43.2055 73.4238 43.2179C73.4485 43.2304 73.476 43.2362 73.5036 43.2348V43.2348Z" fill="#FAC07F"/>
</g>
<defs>
<clipPath id="clip0">
<rect width="315" height="462" fill="white"/>
</clipPath>
</defs>
</svg>
