<svg width="396" height="548" viewBox="0 0 396 548" fill="none" xmlns="http://www.w3.org/2000/svg">
<path opacity="0.7" d="M12.0121 191.178C12.0121 191.178 -16.8534 264.81 23.7069 338.971C64.2672 413.132 147.806 452.291 214.667 485.783C281.527 519.276 350.962 502.961 383.956 448.11C416.95 393.259 371.7 354.092 371.639 275.86C371.579 197.629 383.489 176.876 340.623 110.83C297.757 44.7834 192.53 30.1065 112.981 79.1292C33.4323 128.152 12.0121 191.178 12.0121 191.178Z" fill="white"/>
<g opacity="0.42">
<path opacity="0.42" d="M21.4619 190.538C51.3034 136.25 126.352 72.9172 229.316 99.3101C332.28 125.703 401.853 181.475 390.452 278.634C379.051 375.792 319.152 456.447 190.121 458.802C61.0894 461.157 -43.9563 309.532 21.4619 190.538Z" fill="#F8BE7D"/>
</g>
<path d="M22.4199 251.882L106.348 235.328L135.654 374.332L46.4486 393.242L22.4199 251.882Z" stroke="#1A2E35" stroke-linecap="round" stroke-linejoin="round"/>
<path d="M107.92 443.647L129.28 408.661L150.657 443.647C145.207 446.847 139.696 449.731 134.583 453.204C130.86 455.721 127.958 455.977 124.132 453.281C119.062 449.723 113.474 446.898 107.92 443.647ZM128.399 414.284L127.811 414.139L110.96 441.787L111.487 442.222C116.799 440.012 122.119 437.819 127.397 435.558C127.653 435.417 127.873 435.22 128.039 434.982C128.205 434.743 128.314 434.47 128.356 434.184C128.451 427.553 128.399 420.915 128.399 414.284ZM130.731 414.182L130.135 414.284C130.135 420.974 130.135 427.664 130.204 434.354C130.204 434.858 131.068 435.523 131.741 435.814C134.402 437.008 137.114 438.092 139.808 439.227C142.253 440.234 144.697 441.224 147.141 442.222L147.539 441.77C141.959 432.571 136.365 423.375 130.757 414.182H130.731ZM130.247 436.991V453.486L146.727 443.852L130.247 436.991ZM111.815 443.818L128.286 453.426V437.025L111.815 443.818Z" fill="#2F2F2F"/>
<path d="M149.62 449.091C142.926 458.418 136.224 467.736 129.297 477.378L109 449.151L109.215 448.784C109.76 449.057 110.338 449.296 110.865 449.637C116.445 452.888 122.094 456.122 127.587 459.45C128.088 459.814 128.693 460.009 129.314 460.009C129.936 460.009 130.541 459.814 131.042 459.45C136.526 456.174 142.054 452.982 147.565 449.765C148.143 449.424 148.748 449.142 149.335 448.835L149.62 449.091ZM115.391 454.143L114.933 454.595L127.932 472.668C128.372 469.488 128.528 466.276 128.399 463.068C128.383 462.74 128.298 462.419 128.149 462.125C128 461.831 127.791 461.571 127.535 461.362C123.536 458.862 119.459 456.515 115.391 454.143ZM143.617 454.638L143.229 454.16C139.1 456.558 134.972 458.947 130.86 461.362C130.601 461.515 130.264 461.805 130.256 462.036C130.256 465.534 130.256 469.033 130.256 472.532H130.757L143.617 454.638Z" fill="#2F2F2F"/>
<path d="M62.039 262.429C62.7131 262.253 63.3965 262.113 64.0861 262.011C66.2108 261.849 67.4459 261.158 67.5409 258.649C67.5059 257.521 67.9099 256.422 68.6699 255.579C69.4298 254.736 70.4879 254.213 71.6263 254.118C72.8086 253.927 74.0215 254.131 75.0739 254.696C76.1262 255.262 76.9583 256.157 77.4392 257.241C78.0092 258.333 78.3979 259.178 79.944 258.794C80.3931 258.683 81.0754 259.502 81.6714 259.895C81.2223 260.484 80.8854 261.422 80.3154 261.601C79.1752 261.934 78.8816 262.403 78.8384 263.564C78.7678 265.067 78.4498 266.548 77.8969 267.95C77.681 268.522 76.6273 268.803 75.9536 269.179C75.6081 268.462 74.9257 267.711 74.9776 267.02C75.2229 265.522 75.5927 264.046 76.0831 262.608C74.399 262.891 72.7322 263.267 71.0908 263.735C70.7022 263.871 70.5035 264.852 70.4171 265.441C69.9766 268.658 68.9574 270.092 66.5649 270.655C65.3466 270.964 64.0567 270.833 62.9275 270.285C61.7984 269.738 60.9044 268.81 60.4066 267.668C59.8452 266.568 59.3961 265.962 57.9968 266.26C57.6386 266.319 57.2713 266.239 56.9708 266.038C56.6703 265.837 56.4594 265.529 56.3818 265.179C56.3043 264.828 56.3658 264.462 56.5539 264.155C56.7419 263.848 57.042 263.624 57.3922 263.53C59.0678 263.282 59.0678 262.216 59.1197 260.97C59.1232 260.084 59.3237 259.21 59.707 258.41C60.0352 257.847 60.8903 257.557 61.5122 257.181C61.9181 257.821 62.6177 258.436 62.6609 259.093C62.5948 260.226 62.3859 261.347 62.039 262.429V262.429ZM62.9632 265.424L62.6436 266.107C63.5074 266.491 64.3711 267.216 65.2348 267.173C66.5822 267.114 66.9622 265.953 66.9622 264.614L62.9632 265.424ZM75.1503 259.579C74.4939 258.154 73.6215 257.224 72.3 257.872C71.514 258.231 71.0563 259.314 70.4517 260.074L70.9267 260.509L75.1503 259.579Z" stroke="black" stroke-miterlimit="10"/>
<path d="M163.993 476.721L180.222 481.619L168.13 467.608C174.755 460.073 178.676 450.857 178.788 441.292" stroke="#1A2E35" stroke-width="2" stroke-linecap="round" stroke-linejoin="round"/>
<path d="M144.334 482.891C149.754 481.174 154.868 478.632 159.493 475.356" stroke="#1A2E35" stroke-width="2" stroke-linecap="round" stroke-linejoin="round"/>
<path d="M81.8184 453.136C86.5947 475.868 111.988 489.837 138.573 484.401" stroke="#1A2E35" stroke-width="2" stroke-linecap="round" stroke-linejoin="round"/>
<path d="M85.6966 427.519C84.6745 429.44 83.8081 431.437 83.1055 433.492" stroke="#1A2E35" stroke-width="2" stroke-linecap="round" stroke-linejoin="round"/>
<path d="M178.045 433.407C173.278 410.701 147.876 396.715 121.299 402.15C109.24 404.498 98.3743 410.892 90.542 420.249" stroke="#1A2E35" stroke-width="2" stroke-linecap="round" stroke-linejoin="round"/>
<path d="M213.475 89.8212L197.824 83.3958L208.439 98.4823C201.115 105.351 196.347 114.149 195.268 123.664" stroke="#1A2E35" stroke-width="2" stroke-linecap="round" stroke-linejoin="round"/>
<path d="M233.643 85.5376C228.071 86.7286 222.721 88.7697 217.785 91.5876" stroke="#1A2E35" stroke-width="2" stroke-linecap="round" stroke-linejoin="round"/>
<path d="M292.963 121.104C290.433 98.0642 266.508 81.6977 239.525 84.5904" stroke="#1A2E35" stroke-width="2" stroke-linecap="round" stroke-linejoin="round"/>
<path d="M286.615 146.225C287.818 144.42 288.872 142.522 289.768 140.551" stroke="#1A2E35" stroke-width="2" stroke-linecap="round" stroke-linejoin="round"/>
<path d="M195.259 131.582C197.799 154.622 221.724 170.988 248.698 168.095C260.929 166.907 272.369 161.577 281.078 153.009" stroke="#1A2E35" stroke-width="2" stroke-linecap="round" stroke-linejoin="round"/>
<path d="M247.817 134.219C250.641 134.791 253.5 135.354 256.35 135.925C256.691 135.979 257.017 136.099 257.311 136.279C257.604 136.459 257.858 136.695 258.057 136.974C258.257 137.252 258.398 137.567 258.473 137.899C258.547 138.232 258.554 138.577 258.492 138.912C258.135 140.953 257.674 142.975 257.11 144.971C256.901 145.531 256.494 145.998 255.964 146.285C255.433 146.572 254.816 146.66 254.225 146.532C249.302 145.483 244.388 144.373 239.456 143.341C235.319 142.487 231.155 141.634 227.01 140.781C224.513 140.269 223.252 139.339 223.987 136.514C224.401 134.893 224.652 133.238 225.144 131.642C225.346 131.046 225.771 130.549 226.33 130.251C226.89 129.954 227.544 129.877 228.158 130.038C230.819 130.575 233.462 131.147 236.122 131.693C236.476 131.745 236.834 131.774 237.193 131.778C237.374 131.07 237.348 130.72 236.467 130.473C232.388 129.438 228.458 127.896 224.772 125.882C223.77 125.266 222.862 124.51 222.078 123.638C220.834 122.324 221.214 121.18 222.846 120.421C224.701 119.648 226.709 119.298 228.72 119.397C232.175 119.397 235.69 119.696 239.352 119.875C239.611 118.706 239.913 117.357 240.216 116.001C240.967 112.587 241.667 109.174 242.479 105.761C242.53 105.385 242.663 105.025 242.869 104.705C243.075 104.385 243.349 104.112 243.671 103.907C243.994 103.702 244.358 103.568 244.738 103.516C245.119 103.463 245.506 103.492 245.873 103.602C247.799 103.935 249.717 104.387 251.617 104.873C252.212 105.077 252.718 105.474 253.054 106C253.39 106.525 253.535 107.148 253.465 107.766C252.653 111.623 251.79 115.446 250.952 119.337C250.736 120.344 250.537 121.359 250.365 122.213C253.543 123.45 256.601 124.585 259.598 125.839C261.453 126.56 263.136 127.656 264.538 129.056C265.86 130.439 265.445 131.83 263.614 132.555C261.435 133.33 259.12 133.661 256.808 133.528C254.13 133.459 251.453 133.169 248.784 132.982C248.516 132.982 248.248 132.982 247.963 132.982L247.817 134.219ZM238.255 133.442C237.922 133.473 237.587 133.473 237.253 133.442C234.239 132.794 231.207 132.12 228.219 131.454C227.842 131.341 227.435 131.374 227.082 131.547C226.729 131.719 226.456 132.019 226.319 132.384C225.93 134.151 225.541 135.917 225.222 137.7C225.168 137.869 225.153 138.048 225.179 138.224C225.205 138.399 225.271 138.566 225.371 138.713C225.472 138.86 225.604 138.983 225.759 139.072C225.914 139.161 226.088 139.214 226.267 139.228C228.987 139.765 231.708 140.312 234.42 140.883C241.036 142.291 247.644 143.725 254.286 145.15C254.471 145.216 254.669 145.239 254.865 145.218C255.06 145.197 255.248 145.132 255.415 145.028C255.581 144.925 255.722 144.785 255.825 144.62C255.929 144.454 255.993 144.268 256.013 144.075C256.393 142.445 256.73 140.806 257.093 139.177C257.317 138.127 257.093 137.632 256.039 137.393C252.74 136.651 249.423 135.96 246.141 135.251L248.093 126.129L240.216 124.423L238.255 133.442ZM248.343 131.591C252.082 132.225 255.887 132.386 259.667 132.069C260.898 131.885 262.116 131.62 263.312 131.275C263.994 131.096 264.098 130.669 263.579 130.149C263.389 129.961 263.191 129.765 262.983 129.594C260.697 127.875 258.141 126.537 255.417 125.635C251.521 124.222 247.518 123.115 243.446 122.324C238.01 121.103 232.429 120.638 226.863 120.941C225.407 120.966 223.983 121.37 222.734 122.11C223.448 123.412 224.591 124.432 225.973 125.003C227.818 125.966 229.719 126.821 231.665 127.563C233.591 128.305 235.586 128.869 237.711 129.551C238.169 127.444 238.618 125.489 238.998 123.527C239.11 122.955 239.214 122.844 239.862 122.989C241.978 123.484 244.111 123.843 246.236 124.278C247.445 124.534 248.637 124.841 249.803 125.131L248.343 131.591ZM252.092 107.237C251.798 106.973 251.401 106.316 250.874 106.171C249.078 105.684 247.246 105.368 245.415 105.01C245.048 104.959 244.674 105.044 244.367 105.249C244.059 105.454 243.839 105.764 243.748 106.119C242.798 110.528 241.842 114.937 240.881 119.346C240.725 120.062 240.881 120.387 241.684 120.523C243.818 120.916 245.942 121.377 248.05 121.846C248.836 122.042 249.017 121.769 249.147 121.146C249.76 118.296 250.399 115.463 251.004 112.613C251.366 110.975 251.686 109.302 252.092 107.237Z" fill="#2F2F2F"/>
<path d="M246.728 116.624C246.4 116.801 246.048 116.934 245.683 117.016C245.562 117.016 245.277 116.666 245.268 116.47C245.26 116.274 245.545 115.822 245.622 115.839C246.003 115.944 246.371 116.089 246.719 116.274L246.728 116.624Z" fill="#2F2F2F"/>
<path opacity="0.2" d="M262.526 388.412C262.526 388.412 258.838 432.468 264.167 443.152C269.496 453.835 272.174 526.862 269.781 536.052C269.781 536.052 286.943 540.319 293.741 534.251C300.538 528.184 311.015 534.021 328.177 528.073C345.339 522.126 332.971 390.946 332.971 390.946L333.498 343.221L305.116 318.253L262.526 388.412Z" fill="black" fill-opacity="0.7"/>
<path d="M285.406 409.6C285.297 409.916 285.123 410.206 284.896 410.453C281.234 413.866 265.592 417.689 252.153 420.428C241.019 422.707 231.423 424.251 231.423 424.251C231.423 424.251 224.056 363.734 224.056 357.377C224.056 351.02 212.18 248.034 212.18 248.034L240.682 246.813L278.539 245.201C278.539 245.201 278.773 247.948 279.153 252.761C281.528 283.403 290.156 397.517 285.406 409.6Z" fill="#5AE4A7"/>
<path opacity="0.2" d="M285.406 409.6L252.152 416.358L239.594 418.918C236.191 415.616 233.591 415.556 233.591 415.556L232.598 406.297L230.974 391.151L216.662 257.872C219.789 255.756 221.3 251.123 221.3 251.123L240.449 250.44L273.633 249.245L279.109 252.744C281.527 283.403 290.156 397.517 285.406 409.6Z" fill="black" fill-opacity="0.7"/>
<path d="M285.406 409.6L252.152 416.358L239.594 418.918C236.191 415.616 233.591 415.556 233.591 415.556L232.598 406.297L230.974 391.151L216.662 257.872C219.789 255.756 221.3 251.123 221.3 251.123L240.449 250.44L273.633 249.245L279.109 252.744C281.527 283.403 290.156 397.517 285.406 409.6Z" stroke="#1A2E35" stroke-linecap="round" stroke-linejoin="round"/>
<path d="M235.353 370.364L246.452 370.347L246.46 373.778L243.368 374.853L236.26 375.629L235.353 370.364Z" fill="#5AE4A7" stroke="#1A2E35" stroke-linecap="round" stroke-linejoin="round"/>
<path d="M236.036 377.421L244.189 377.148L246.279 378.129L246.176 382.678L236.658 382.789L236.036 377.421Z" fill="#5AE4A7" stroke="#1A2E35" stroke-linecap="round" stroke-linejoin="round"/>
<path d="M237.339 384.691L246.659 384.034L246.547 387.482L242.047 389.052L237.288 388.787L237.339 384.691Z" fill="#5AE4A7" stroke="#1A2E35" stroke-linecap="round" stroke-linejoin="round"/>
<path d="M237.901 390.503L245.415 390.878L246.098 392.79L245.009 394.889L238.281 395.307L237.124 392.064L237.901 390.503Z" fill="#5AE4A7" stroke="#1A2E35" stroke-linecap="round" stroke-linejoin="round"/>
<path d="M246.573 397.158C246.927 398.148 247.29 399.138 247.644 400.136C247.813 400.444 247.906 400.787 247.915 401.137C247.924 401.487 247.849 401.835 247.695 402.15C247.501 402.366 247.253 402.53 246.977 402.625C246.7 402.721 246.404 402.745 246.115 402.696C245.536 402.645 244.966 402.458 244.387 402.432C242.66 402.355 241.028 403.772 239.309 403.464C238.635 401.63 236.942 398.933 239.24 398.106C239.585 397.978 246.815 397.833 246.573 397.158Z" fill="#5AE4A7" stroke="#1A2E35" stroke-linecap="round" stroke-linejoin="round"/>
<path d="M246.538 405.538C246.704 406.246 246.822 406.965 246.892 407.688C246.979 408.618 246.892 409.719 246.124 410.248C245.686 410.492 245.192 410.622 244.69 410.624L238.704 411.161C238.616 410.046 238.596 408.926 238.644 407.808C238.998 406.485 238.747 406.587 240.026 406.05C242.047 405.197 244.465 406.553 246.538 405.538Z" fill="#5AE4A7" stroke="#1A2E35" stroke-linecap="round" stroke-linejoin="round"/>
<path d="M224.781 260.893C224.781 260.893 227.044 282.448 227.139 286.706" stroke="#1A2E35" stroke-linecap="round" stroke-linejoin="round"/>
<path d="M229.644 261.098L230.706 272.976" stroke="#1A2E35" stroke-linecap="round" stroke-linejoin="round"/>
<path d="M246.503 256.609L247.877 270.527L249.786 270.706L249.164 256.737L246.503 256.609Z" fill="#5AE4A7" stroke="#1A2E35" stroke-linecap="round" stroke-linejoin="round"/>
<path opacity="0.2" d="M285.405 409.6C285.296 409.916 285.123 410.206 284.896 410.453C281.234 413.866 265.592 417.689 252.152 420.428V411.238L232.597 406.28L229.644 405.538L230.974 391.134L236.035 336.095L240.449 250.44L240.639 246.796L278.496 245.184C278.496 245.184 278.729 247.931 279.109 252.744C281.527 283.403 290.156 397.517 285.405 409.6Z" fill="black" fill-opacity="0.7"/>
<path d="M285.406 409.6C285.297 409.916 285.123 410.206 284.896 410.453C281.234 413.866 265.592 417.689 252.153 420.428C241.019 422.707 231.423 424.251 231.423 424.251C231.423 424.251 224.056 363.734 224.056 357.377C224.056 351.02 212.18 248.034 212.18 248.034L240.682 246.813L278.539 245.201C278.539 245.201 278.773 247.948 279.153 252.761C281.528 283.403 290.156 397.517 285.406 409.6Z" stroke="#1A2E35" stroke-linecap="round" stroke-linejoin="round"/>
<path d="M305.461 546.923C305.703 544.764 302.265 513.806 302.205 510.444C302.006 501.211 299.415 489.154 299.415 489.154C295.727 479.853 292.859 458.435 283.004 444.645C273.149 430.856 273.175 414.711 271.543 400.956C269.91 387.2 270.308 388.403 270.679 376.21C270.981 367.042 270.568 357.864 269.444 348.759C268.632 340.661 266.991 326.41 269.444 319.746C271.897 313.082 278.323 311.588 285.345 318.21C292.367 324.832 295.286 352.138 295.286 355.551C295.286 358.964 295.286 369.426 297.748 373.471C297.748 373.471 311.671 366.431 311.671 364.494C311.671 362.557 311.265 345.38 313.312 344.458L305.124 318.27L320.671 312.826C323.593 315.415 326.119 318.41 328.168 321.717C329.92 324.46 331.387 327.37 332.547 330.404C339.103 347.573 349.632 359.553 351.8 364.494C353.967 369.434 351.8 408.661 351.8 415.957C351.8 423.253 347.04 456.916 347.161 462.522C347.256 466.575 350.055 481.824 352.836 493.497C353.916 497.994 360.152 530.599 361.067 533.193L305.461 546.923Z" fill="white"/>
<path opacity="0.4" d="M317.709 342.751C317.605 344.953 320.3 362.48 320.3 362.48C322.148 366.84 312.086 381.731 312.086 381.731C309.909 382.951 308.959 390.434 308.959 390.434C302.153 388.941 286.554 373.445 286.554 373.445C286.554 373.445 284.68 379.794 282.633 395.512C280.586 411.23 293.688 448.57 299.277 474.358C304.865 500.145 302.231 510.444 302.231 510.444C302.006 501.211 299.415 489.154 299.415 489.154C295.727 479.853 292.859 458.435 283.004 444.645C273.149 430.856 273.175 414.711 271.543 400.956C269.91 387.2 270.308 388.403 270.679 376.21C270.981 367.042 270.568 357.864 269.444 348.759C268.632 340.661 266.991 326.41 269.444 319.746C271.897 313.082 278.323 311.588 285.345 318.21C292.367 324.832 295.286 352.138 295.286 355.551C295.286 358.964 295.286 369.426 297.748 373.471C297.748 373.471 311.671 366.431 311.671 364.494C311.671 362.557 311.265 345.38 313.312 344.458L305.124 318.27L320.671 312.826C323.593 315.415 326.119 318.41 328.168 321.717C323.124 331.658 317.769 341.377 317.709 342.751Z" fill="#5AE4A7"/>
<path opacity="0.4" d="M343.819 465.253C344.501 459.126 346.54 444.534 347.835 435.429C346.255 442.537 343.715 446.138 343.715 446.138C343.715 446.138 348.129 393.95 348.561 390.801C348.993 387.652 353.449 373.325 351.808 364.468C353.985 369.392 351.808 408.635 351.808 415.931C351.808 423.227 347.049 456.89 347.17 462.496C347.265 466.55 351.705 492.653 354.486 504.309C348.483 495.724 343.137 471.422 343.819 465.253Z" fill="#5AE4A7"/>
<path d="M361.076 533.168C357.802 523.858 347.3 468.12 347.17 462.497C347.041 456.873 351.808 423.244 351.808 415.923C351.808 408.602 353.976 369.392 351.808 364.46C349.64 359.528 339.112 347.547 332.556 330.37C330.076 323.657 326.003 317.629 320.68 312.792L305.133 318.253L313.312 344.458C311.265 345.38 311.671 362.548 311.671 364.494C311.671 366.439 297.748 373.471 297.748 373.471C295.286 369.418 295.286 358.905 295.286 355.551C295.286 352.198 292.419 324.926 285.397 318.287C278.375 311.648 271.949 313.167 269.487 319.823C267.025 326.479 268.623 340.704 269.487 348.836C270.612 357.941 271.022 367.119 270.714 376.287C270.308 388.489 269.902 387.277 271.577 401.033C273.253 414.788 273.218 430.967 283.047 444.731C292.877 458.495 295.744 479.93 299.458 489.231C299.458 489.231 306.42 538.911 305.504 547" stroke="#1A2E35" stroke-linecap="round" stroke-linejoin="round"/>
<path d="M297.748 373.47C297.748 373.47 300.201 384.794 305.729 390.46" stroke="#1A2E35" stroke-linecap="round" stroke-linejoin="round"/>
<path d="M299.242 378.59C299.242 378.59 309.607 381.722 313.925 381.918" stroke="#1A2E35" stroke-linecap="round" stroke-linejoin="round"/>
<path d="M311.671 364.459C311.671 364.459 319.039 361.097 323.763 363.12" stroke="#1A2E35" stroke-linecap="round" stroke-linejoin="round"/>
<path d="M313.312 344.458C313.312 344.458 319.039 343.937 320.274 341.104" stroke="#1A2E35" stroke-linecap="round" stroke-linejoin="round"/>
<path d="M284.896 447.538C284.896 447.538 295.908 461.037 299.182 467.915" stroke="#1A2E35" stroke-linecap="round" stroke-linejoin="round"/>
<path d="M348.941 388.412C347.093 399.13 344.623 428.467 343.819 433.723" stroke="#1A2E35" stroke-linecap="round" stroke-linejoin="round"/>
<path d="M352.465 368.18C352.767 377.891 350.375 382.951 350.375 382.951" stroke="#1A2E35" stroke-linecap="round" stroke-linejoin="round"/>
<path d="M267.795 232.239L343.716 252.002C343.716 252.002 317.018 331.991 311.559 341.898L302.516 411.622C302.516 411.622 254.027 409.523 231.734 402.859C231.734 402.859 245.822 330.233 246.582 320.565C247.342 310.897 267.795 232.239 267.795 232.239Z" fill="#5AE4A7"/>
<path opacity="0.2" d="M251.47 316.299L268.191 245.644C268.191 245.644 275.395 242.112 278.176 238.895L332.59 254.169C332.59 254.169 332.755 259.434 335.864 262.813L308.398 340.917L301.738 398.507C301.738 398.507 292.885 399.215 292.039 405.683C292.039 405.683 263.346 407.219 244.102 402.202C244.102 402.202 241.831 395.213 238.367 390.801L251.47 316.299Z" fill="black" fill-opacity="0.7"/>
<path d="M251.47 316.299L268.191 245.644C268.191 245.644 275.395 242.112 278.176 238.895L332.59 254.169C332.59 254.169 332.755 259.434 335.864 262.813L308.398 340.917L301.738 398.507C301.738 398.507 292.885 399.215 292.039 405.683C292.039 405.683 263.346 407.219 244.102 402.202C244.102 402.202 241.831 395.213 238.367 390.801L251.47 316.299Z" stroke="#1A2E35" stroke-linecap="round" stroke-linejoin="round"/>
<path d="M265.393 319.951C265.393 319.951 270.325 301.528 287.72 304.856C305.116 308.184 295.287 330.805 295.287 330.805C295.287 330.805 295.399 349.117 281.277 346.591C269.047 344.458 262.526 337.794 265.393 319.951Z" fill="#5AE4A7" stroke="#1A2E35" stroke-linecap="round" stroke-linejoin="round"/>
<path d="M274.816 252.343C274.816 252.343 269.556 273.386 268.191 277.43" stroke="#1A2E35" stroke-linecap="round" stroke-linejoin="round"/>
<path d="M279.316 254.16L276.25 265.697" stroke="#1A2E35" stroke-linecap="round" stroke-linejoin="round"/>
<path d="M317.709 262.258L328.177 265.893L327.028 269.136H323.755L316.793 267.515L317.709 262.258Z" fill="#5AE4A7" stroke="#1A2E35" stroke-linecap="round" stroke-linejoin="round"/>
<path d="M315.973 269.136L323.755 271.56L325.387 273.181L323.755 277.43L314.746 274.393L315.973 269.136Z" fill="#5AE4A7" stroke="#1A2E35" stroke-linecap="round" stroke-linejoin="round"/>
<path d="M314.746 276.415L323.755 278.864L322.485 282.081H317.709L313.312 280.263L314.746 276.415Z" fill="#5AE4A7" stroke="#1A2E35" stroke-linecap="round" stroke-linejoin="round"/>
<path d="M313.312 282.081L320.274 284.914V286.936L318.529 288.557L312.051 286.731V283.293L313.312 282.081Z" fill="#5AE4A7" stroke="#1A2E35" stroke-linecap="round" stroke-linejoin="round"/>
<path d="M319.281 291.211C319.281 292.269 319.281 293.319 319.281 294.368C319.333 294.716 319.302 295.07 319.191 295.403C319.08 295.737 318.892 296.04 318.642 296.288C318.385 296.429 318.097 296.503 317.804 296.503C317.511 296.503 317.222 296.429 316.966 296.288C316.439 296.049 315.973 295.674 315.429 295.435C313.813 294.787 311.81 295.597 310.298 294.744C310.298 292.79 309.599 289.684 312.026 289.624C312.371 289.684 319.281 291.937 319.281 291.211Z" fill="#5AE4A7" stroke="#1A2E35" stroke-linecap="round" stroke-linejoin="round"/>
<path d="M316.37 299.105C316.291 299.827 316.161 300.542 315.981 301.246C315.748 302.151 315.307 303.166 314.392 303.405C313.894 303.493 313.382 303.452 312.906 303.286L307.093 301.792C307.382 300.712 307.742 299.651 308.173 298.618C308.95 297.483 308.682 297.5 310.064 297.415C312.25 297.304 314.098 299.378 316.37 299.105Z" fill="#5AE4A7" stroke="#1A2E35" stroke-linecap="round" stroke-linejoin="round"/>
<path d="M296.72 255.577L293.239 269.136L294.984 269.947L299.182 256.593L296.72 255.577Z" fill="#5AE4A7" stroke="#1A2E35" stroke-linecap="round" stroke-linejoin="round"/>
<path d="M253.008 346.591L263.752 349.339L262.889 352.658L259.624 352.931L252.55 351.907L253.008 346.591Z" fill="#5AE4A7" stroke="#1A2E35" stroke-linecap="round" stroke-linejoin="round"/>
<path d="M251.876 353.588L259.84 355.355L261.61 356.831L260.341 361.2L251.107 358.939L251.876 353.588Z" fill="#5AE4A7" stroke="#1A2E35" stroke-linecap="round" stroke-linejoin="round"/>
<path d="M251.28 360.953L260.47 362.634L259.485 365.945L254.726 366.346L250.183 364.903L251.28 360.953Z" fill="#5AE4A7" stroke="#1A2E35" stroke-linecap="round" stroke-linejoin="round"/>
<path d="M250.347 366.721L257.524 368.948L257.697 370.962L256.108 372.728L249.492 371.457L249.189 368.035L250.347 366.721Z" fill="#5AE4A7" stroke="#1A2E35" stroke-linecap="round" stroke-linejoin="round"/>
<path d="M257.041 375.314C257.136 376.363 257.231 377.413 257.317 378.462C257.402 378.803 257.404 379.158 257.323 379.499C257.242 379.84 257.08 380.158 256.851 380.425C256.607 380.585 256.327 380.682 256.035 380.706C255.744 380.73 255.451 380.68 255.184 380.562C254.64 380.374 254.139 380.041 253.586 379.87C251.91 379.367 249.993 380.34 248.404 379.614C248.222 377.669 247.272 374.64 249.699 374.401C250.071 374.367 257.093 376.03 257.041 375.314Z" fill="#5AE4A7" stroke="#1A2E35" stroke-linecap="round" stroke-linejoin="round"/>
<path d="M254.873 383.42C254.856 384.144 254.787 384.865 254.666 385.579C254.511 386.509 254.156 387.55 253.267 387.874C252.78 387.998 252.268 387.998 251.781 387.874L245.865 386.91C246.062 385.808 246.33 384.719 246.668 383.651C247.342 382.456 247.074 382.499 248.447 382.294C250.607 382.004 252.61 383.881 254.873 383.42Z" fill="#5AE4A7" stroke="#1A2E35" stroke-linecap="round" stroke-linejoin="round"/>
<path d="M297.748 393.344C297.748 393.344 300.201 366.166 300.201 363.478" stroke="#1A2E35" stroke-linecap="round" stroke-linejoin="round"/>
<path d="M292.833 392.132C292.833 392.132 293.853 378.01 294.06 375.561" stroke="#1A2E35" stroke-linecap="round" stroke-linejoin="round"/>
<path d="M273.624 381.935L270.308 397.995H273.624L276.043 381.935H273.624Z" fill="#5AE4A7" stroke="#1A2E35" stroke-linecap="round" stroke-linejoin="round"/>
<path opacity="0.2" d="M311.775 341.514C304.597 340.029 298.188 337.853 293.447 334.687C293.447 334.687 296.902 344.441 309.063 361.072L302.516 411.614C302.516 411.614 270.869 410.248 246.953 406.204C254.303 385.724 267.639 346.992 266.075 339.312C263.933 328.766 271.5 316.316 271.5 316.316C295.425 312.049 318.624 294.198 334.551 279.094C326.441 302.825 315.368 334.517 311.775 341.514Z" fill="black" fill-opacity="0.7"/>
<path d="M267.795 232.239L343.716 252.002C343.716 252.002 317.018 331.991 311.559 341.898L302.516 411.622C302.516 411.622 254.027 409.523 231.734 402.859C231.734 402.859 245.822 330.233 246.582 320.565C247.342 310.897 267.795 232.239 267.795 232.239Z" stroke="#1A2E35" stroke-linecap="round" stroke-linejoin="round"/>
<path d="M309.875 391.459L299.182 467.915C296.798 462.915 290.311 454.382 286.951 450.115C285.716 448.519 284.896 447.555 284.896 447.555L283.004 444.645C273.175 430.89 273.175 414.711 271.543 400.956C269.91 387.2 270.308 388.404 270.679 376.21C270.981 367.042 270.568 357.864 269.444 348.759C268.632 340.661 266.991 326.411 269.444 319.746C270.644 316.495 272.812 314.473 275.49 314.038C278.167 313.602 281.735 314.84 285.31 318.21C292.341 324.849 295.209 352.121 295.209 355.483C295.209 358.845 295.209 369.358 297.67 373.402C297.748 373.471 304.347 385.793 309.875 391.459Z" fill="white"/>
<path opacity="0.4" d="M282.184 439.176C284.421 442 285.941 446.07 286.951 450.098C285.716 448.502 284.896 447.538 284.896 447.538L283.004 444.645C273.175 430.89 273.175 414.711 271.543 400.956C269.91 387.201 270.308 388.404 270.679 376.21C270.981 367.042 270.568 357.864 269.444 348.759C268.632 340.661 266.991 326.411 269.444 319.746C270.644 316.495 272.812 314.473 275.49 314.038C280.672 315.497 285.855 320.702 287.642 329.611C290.709 344.561 276.742 332.478 273.503 345.149C270.264 357.821 274.972 361.243 276.906 364.434C278.841 367.626 276.371 374.674 273.503 384.112C270.636 393.549 276.043 431.436 282.184 439.176Z" fill="#5AE4A7"/>
<path d="M309.875 391.458C304.347 385.792 297.783 373.445 297.783 373.445C295.321 369.392 295.321 358.879 295.321 355.525C295.321 352.172 292.454 324.9 285.431 318.261C278.409 311.622 271.983 313.141 269.522 319.797C267.06 326.453 268.658 340.678 269.522 348.81C270.646 357.915 271.056 367.093 270.748 376.261C270.342 388.463 269.936 387.251 271.612 401.007C273.288 414.762 273.253 430.941 283.082 444.705L284.974 447.589C284.974 447.589 295.986 461.089 299.26 467.966" stroke="#1A2E35" stroke-linecap="round" stroke-linejoin="round"/>
<path d="M273.633 359.101C273.633 359.101 283.005 354.305 287.721 354.698" stroke="#1A2E35" stroke-linecap="round" stroke-linejoin="round"/>
<path opacity="0.2" d="M150.855 161.849C150.855 161.849 127.103 136.02 125.462 134.398C123.821 132.777 122.594 105.266 118.094 93.1322C113.594 80.9981 111.383 9.78069 111.383 9.78069C111.383 9.78069 107.065 4.52429 94.9725 7.35728C82.8804 10.1903 71.0129 4.91681 57.4956 12.6051C43.9784 20.2935 70.1923 130.362 70.1923 130.362L96.7863 214.098L150.855 161.849Z" fill="black" fill-opacity="0.7"/>
<path d="M167.18 162.028C167.18 162.028 156.539 229.193 145.474 238.093C139.066 243.213 129.064 245.559 120.211 245.235C113.793 245.013 107.954 243.417 104.517 240.525C96.3288 233.638 84.8586 230.003 79.1407 225.549C73.4229 221.095 73.4056 205.368 69.7176 191.963C66.0295 178.557 60.7003 178.207 59.4825 164.861C58.2646 151.516 53.3328 110.651 44.4278 99.3186C35.5229 87.9866 35.3156 79.078 31.6621 67.5498C28.0085 56.0215 1 14.2946 1 14.2946L66.7118 1C66.7118 1 73.1724 27.4527 80.0908 48.9646C83.373 59.2044 86.7588 68.3348 89.5918 73.0195C95.0375 82.0814 99.7564 91.5508 103.705 101.341C111.133 109.021 115.201 126.087 116.436 140.994L134.013 150.688C147.521 154.34 167.18 162.028 167.18 162.028Z" fill="white"/>
<path opacity="0.4" d="M167.18 162.028C167.18 162.028 156.539 229.193 145.474 238.093C139.066 243.212 129.064 245.559 120.211 245.235C99.1964 240.115 93.5476 228.544 90.6973 225.745C86.9142 222.016 81.9306 199.293 84.6513 186.032C87.372 172.772 85.4114 167.899 83.1571 161.44C78.1648 147.113 93.4094 139.407 94.9814 133.989C96.5534 128.57 95.9919 98.2519 89.1513 88.3876C85.5064 83.1483 76.1091 56.0983 80.0736 48.9646C83.3557 59.2043 86.7415 68.3348 89.5745 73.0195C95.0203 82.0813 99.7391 91.5508 103.688 101.341C111.116 109.021 115.184 126.087 116.419 140.994L133.996 150.688C147.521 154.34 167.18 162.028 167.18 162.028Z" fill="#5AE4A7"/>
<path d="M86.9403 157.318C86.9403 157.318 83.2349 161.627 79.9614 161.627" stroke="#1A2E35" stroke-linecap="round" stroke-linejoin="round"/>
<path d="M94.9989 171.867C94.9989 171.867 91.0085 180.238 84.6343 182.056" stroke="#1A2E35" stroke-linecap="round" stroke-linejoin="round"/>
<path d="M87.9424 220.899C87.9424 220.899 96.951 217.05 98.3848 210.582" stroke="#1A2E35" stroke-linecap="round" stroke-linejoin="round"/>
<path d="M134.013 150.696C134.013 150.696 131.759 153.529 131.759 155.756" stroke="#1A2E35" stroke-linecap="round" stroke-linejoin="round"/>
<path d="M66.7118 1C66.7118 1 80.7732 58.4449 89.5918 73.0195C95.0375 82.0814 99.7564 91.5508 103.705 101.341C111.133 109.021 115.201 126.087 116.436 141.003L134.013 150.696C147.521 154.34 167.18 162.028 167.18 162.028C167.18 162.028 156.539 229.193 145.474 238.093C134.41 246.993 112.722 247.394 104.517 240.525C96.3115 233.655 84.8586 230.003 79.1667 225.549C73.4747 221.095 73.4056 205.368 69.7176 191.963C66.0295 178.557 60.7003 178.207 59.4825 164.861C58.2646 151.516 53.3328 110.651 44.4278 99.3186C35.5229 87.9866 35.3156 79.078 31.6621 67.5498C28.0085 56.0215 1 14.2946 1 14.2946" stroke="#1A2E35" stroke-linecap="round" stroke-linejoin="round"/>
<path d="M192.081 157.677L83.3901 322.963L109.051 325.788L186.985 328.988L194.965 181.971L192.081 157.677Z" fill="#1A2E35" stroke="#1A2E35" stroke-linecap="round" stroke-linejoin="round"/>
<path d="M192.081 157.668L182.036 326.163L83.3901 322.963L91.1809 193.857L93.5993 153.768L136.578 155.475L192.081 157.668Z" fill="#757575"/>
<path opacity="0.4" d="M87.9419 321.478C93.3805 320.073 98.973 319.33 104.594 319.268C114.691 319.021 121.135 320.915 129.435 316.862C137.735 312.809 143.09 320.105 151.028 316.06C158.966 312.015 162.628 305.513 167.197 305.658C171.766 305.803 178.598 233.357 180.783 220.899C182.968 208.44 187.641 173.676 189.248 166.628L180.222 323.68L87.9419 321.478Z" fill="white"/>
<path opacity="0.4" d="M149.439 220.899L153.222 216.777C153.222 216.777 150.873 215.207 149.439 216.777C148.005 218.347 149.439 220.899 149.439 220.899Z" fill="white"/>
<path opacity="0.2" d="M131.145 217.647C116.462 224.619 100.569 200.189 94.9983 196.827C93.6239 195.972 92.3444 194.976 91.1807 193.857L93.5991 153.751L136.578 155.458C136.301 161.431 136.396 168.027 137.744 171.85C140.629 180.11 145.811 210.684 131.145 217.647Z" fill="black" fill-opacity="0.7"/>
<path opacity="0.4" d="M148.411 185.17C146.606 181.988 148.826 210.582 148.826 210.582C148.826 210.582 152.099 191.638 148.411 185.17Z" fill="white"/>
<path d="M192.081 157.668L182.036 326.163L83.3901 322.963L91.1809 193.857L93.5993 153.768L136.578 155.475L192.081 157.668Z" stroke="#1A2E35" stroke-linecap="round" stroke-linejoin="round"/>
<path opacity="0.4" d="M187.097 327.059L183.496 326.163L192.081 171.867L193.601 182.056L187.097 327.059Z" fill="white"/>
<path d="M129.176 176.509C129.299 175.341 129.507 174.183 129.798 173.045C129.84 172.884 129.895 172.727 129.962 172.575C130.204 172.012 130.412 171.44 130.688 170.869C130.964 170.297 131.422 169.631 131.811 169.017C131.966 168.778 132.148 168.548 132.329 168.317C132.51 168.087 132.908 167.6 133.193 167.276C133.896 166.483 134.7 165.783 135.585 165.194C136.095 164.878 136.57 164.503 137.105 164.238C137.724 163.871 138.389 163.584 139.083 163.385C139.195 163.366 139.303 163.329 139.403 163.274C139.91 163.003 140.469 162.837 141.044 162.788C141.113 162.796 141.182 162.796 141.251 162.788C142.27 162.473 143.338 162.343 144.404 162.404C145.987 162.41 147.565 162.602 149.102 162.976C149.298 163.007 149.49 163.062 149.672 163.138C150.4 163.364 151.108 163.65 151.789 163.991C152.489 164.338 153.157 164.747 153.784 165.211C154.164 165.535 154.587 165.809 154.967 166.133C156.035 167.031 156.966 168.077 157.731 169.239C158.085 169.768 158.336 170.365 158.681 170.945C159.027 171.526 159.234 172.422 159.631 173.104C159.663 173.166 159.686 173.232 159.7 173.301C160.102 174.814 160.311 176.37 160.322 177.934C160.239 179.414 160.028 180.884 159.692 182.329C159.636 182.557 159.558 182.78 159.458 182.994C159.225 183.574 159.009 184.163 158.724 184.701C158.399 185.33 158.033 185.937 157.627 186.518C157.265 187.039 156.833 187.517 156.427 188.003C155.668 188.912 154.781 189.708 153.792 190.367C153.29 190.723 152.768 191.05 152.229 191.348C151.621 191.713 150.967 192 150.286 192.201C150.217 192.215 150.15 192.238 150.087 192.27C149.487 192.574 148.833 192.759 148.161 192.816C148.051 192.834 147.944 192.866 147.841 192.91C147.352 193.088 146.835 193.184 146.313 193.191C145.403 193.238 144.492 193.238 143.583 193.191C142.417 193.072 141.26 192.841 140.128 192.628C139.831 192.555 139.541 192.452 139.265 192.321L137.943 191.775L137.788 191.715C137.157 191.348 136.518 191.015 135.913 190.614C135.403 190.251 134.913 189.861 134.445 189.445C133.493 188.691 132.668 187.793 132.001 186.783C131.69 186.288 131.301 185.836 131.042 185.315C130.669 184.689 130.379 184.018 130.178 183.318C130.146 183.169 130.09 183.025 130.014 182.892C129.791 182.508 129.658 182.079 129.626 181.637C129.616 181.469 129.584 181.303 129.531 181.143C129.225 180.204 129.102 179.217 129.168 178.233C129.133 177.618 129.159 177.047 129.176 176.509ZM137.494 179.649C137.466 180.373 137.571 181.096 137.805 181.783C137.852 181.913 137.922 182.035 138.012 182.141C138.333 182.649 138.791 183.06 139.334 183.327C139.45 183.381 139.56 183.447 139.662 183.523C140.232 183.916 140.928 184.089 141.618 184.01C142.308 183.932 142.946 183.607 143.411 183.097C143.782 182.704 144.05 182.747 144.317 183.233C144.341 183.265 144.361 183.3 144.378 183.336C144.517 183.625 144.717 183.882 144.964 184.089C145.211 184.297 145.5 184.45 145.812 184.539L146.174 184.658C146.726 184.853 147.326 184.869 147.886 184.703C148.447 184.537 148.94 184.198 149.292 183.737C149.698 183.315 150.03 182.831 150.277 182.303C150.323 182.166 150.42 182.053 150.549 181.986C150.678 181.919 150.828 181.904 150.968 181.945C151.383 182.03 151.832 182.158 152.22 182.269C152.35 182.269 152.471 182.388 152.609 182.422C152.734 182.447 152.862 182.446 152.986 182.421C153.11 182.395 153.228 182.345 153.332 182.273C153.436 182.201 153.524 182.11 153.592 182.003C153.659 181.897 153.704 181.778 153.723 181.655C153.853 181.194 153.723 180.921 153.127 180.741C152.808 180.639 152.471 180.571 152.16 180.451C151.95 180.373 151.757 180.257 151.59 180.11C151.491 180.02 151.425 179.899 151.403 179.768C151.381 179.636 151.404 179.502 151.469 179.385C151.518 179.268 151.604 179.17 151.715 179.106C151.826 179.043 151.955 179.018 152.082 179.035C152.41 179.086 152.739 179.171 153.067 179.248C153.294 179.317 153.525 179.374 153.758 179.419C154.003 179.435 154.246 179.366 154.443 179.222C154.641 179.078 154.781 178.87 154.838 178.634C154.88 178.5 154.87 178.355 154.809 178.229C154.748 178.102 154.641 178.003 154.509 177.951C154.328 177.866 154.138 177.815 153.957 177.738C153.559 177.567 153.145 177.422 152.765 177.217C152.668 177.173 152.581 177.109 152.512 177.029C152.443 176.949 152.392 176.855 152.363 176.753C152.334 176.652 152.328 176.545 152.345 176.441C152.362 176.337 152.402 176.238 152.462 176.151L152.6 175.895C152.893 175.405 153.073 174.857 153.127 174.29C153.148 174.073 153.091 173.855 152.965 173.675C152.839 173.494 152.654 173.364 152.44 173.306C152.227 173.248 151.999 173.266 151.798 173.357C151.597 173.448 151.434 173.606 151.339 173.804C151.253 173.958 151.184 174.12 151.098 174.282C151.052 174.429 150.973 174.565 150.867 174.678C150.762 174.792 150.632 174.881 150.487 174.938C150.342 174.995 150.185 175.02 150.03 175.01C149.874 174.999 149.722 174.955 149.586 174.879C149.102 174.709 148.601 174.563 148.109 174.401L147.004 174.009C146.621 173.835 146.225 173.69 145.82 173.574C144.801 173.278 143.798 172.93 142.815 172.533C142.365 172.396 142.244 172.166 142.296 171.679C142.296 171.415 142.4 171.159 142.443 170.903C142.472 170.773 142.459 170.637 142.407 170.515C142.354 170.393 142.264 170.29 142.149 170.22C141.951 170.092 141.744 169.964 141.536 169.853C141.445 169.781 141.336 169.733 141.22 169.713C141.105 169.694 140.986 169.704 140.876 169.743C140.765 169.781 140.666 169.846 140.588 169.933C140.511 170.02 140.456 170.124 140.431 170.237C140.31 170.553 140.241 170.877 140.146 171.193C140.07 171.483 139.975 171.768 139.861 172.046C139.829 172.143 139.779 172.232 139.712 172.31C139.646 172.387 139.564 172.451 139.473 172.497C139.381 172.543 139.281 172.57 139.179 172.578C139.076 172.586 138.974 172.573 138.876 172.541C138.677 172.49 138.487 172.37 138.289 172.311C137.96 172.201 137.622 172.121 137.278 172.072C137.082 172.067 136.891 172.128 136.735 172.245C136.579 172.362 136.468 172.527 136.42 172.715C136.371 172.902 136.389 173.1 136.47 173.276C136.55 173.453 136.689 173.597 136.864 173.685L137.252 173.838C137.641 173.992 138.038 174.137 138.418 174.308C138.54 174.347 138.648 174.421 138.726 174.522C138.805 174.622 138.851 174.744 138.859 174.871C138.852 174.997 138.809 175.12 138.734 175.223C138.659 175.326 138.555 175.405 138.435 175.451C138.288 175.531 138.12 175.567 137.952 175.553C137.705 175.517 137.466 175.442 137.244 175.331C136.915 175.145 136.55 175.031 136.173 174.999C136.003 174.98 135.833 175.023 135.694 175.121C135.556 175.219 135.458 175.364 135.421 175.528C135.364 175.653 135.335 175.789 135.337 175.926C135.339 176.063 135.372 176.198 135.433 176.321C135.494 176.444 135.582 176.552 135.691 176.638C135.799 176.724 135.925 176.784 136.06 176.816C136.414 176.944 136.786 177.03 137.149 177.14C137.269 177.162 137.384 177.208 137.485 177.276C137.586 177.345 137.671 177.433 137.735 177.537C137.798 177.64 137.839 177.755 137.854 177.875C137.869 177.995 137.858 178.117 137.822 178.233C137.822 178.386 137.745 178.531 137.71 178.676C137.641 179.001 137.563 179.325 137.494 179.649Z" fill="white"/>
<path d="M127.077 199.395C127.25 198.354 127.414 197.228 127.63 196.118C127.774 195.555 127.947 195 128.148 194.454C128.295 194.019 128.468 193.601 128.623 193.166C128.671 193.035 128.725 192.907 128.787 192.782C128.904 192.526 129.119 192.327 129.385 192.228C129.65 192.128 129.945 192.137 130.204 192.253C130.601 192.389 131.007 192.509 131.404 192.637L132.596 193.021L134.635 193.678C134.906 193.751 135.171 193.842 135.429 193.951C136.145 194.269 136.891 194.512 137.658 194.676C137.797 194.703 137.933 194.743 138.064 194.796C139.031 195.214 140.05 195.47 141.044 195.794C142.037 196.118 142.961 196.502 143.954 196.741C144.291 196.827 144.602 196.997 144.939 197.108C145.276 197.219 145.803 197.407 146.295 197.552L147.763 198.038L149.275 198.542L151.002 199.113C151.521 199.276 152.047 199.429 152.566 199.6C152.919 199.689 153.265 199.803 153.602 199.941C154.257 200.224 154.936 200.447 155.632 200.607C155.957 200.686 156.274 200.792 156.582 200.922C156.805 200.997 156.996 201.142 157.127 201.334C157.258 201.527 157.322 201.757 157.307 201.989C157.319 203.029 157.4 204.066 157.549 205.095C157.592 205.453 157.601 205.812 157.618 206.17C157.636 206.335 157.636 206.501 157.618 206.665C157.615 206.736 157.595 206.804 157.561 206.866C157.526 206.928 157.478 206.981 157.42 207.022C157.362 207.063 157.295 207.091 157.225 207.103C157.155 207.115 157.082 207.111 157.014 207.092C156.862 207.069 156.716 207.02 156.582 206.947C156.039 206.656 155.457 206.441 154.855 206.307C154.414 206.187 153.991 206.034 153.533 205.897L151.745 205.291L150.363 204.822C149.923 204.668 149.499 204.498 149.059 204.361C148.884 204.303 148.7 204.274 148.515 204.276C148.092 204.276 147.945 204.464 148.005 204.882C148.066 205.3 148.143 205.735 148.161 206.153C148.181 207.139 148.071 208.123 147.832 209.08C147.796 209.257 147.738 209.429 147.66 209.592C147.179 210.626 146.46 211.535 145.561 212.246C145.069 212.604 144.516 212.826 144.006 213.15C143.959 213.18 143.906 213.201 143.851 213.21C142.641 213.611 141.369 213.799 140.094 213.765C139.118 213.654 138.142 213.568 137.174 213.432C136.786 213.366 136.406 213.257 136.043 213.108C135.49 212.911 134.946 212.681 134.402 212.468C133.702 212.092 133.027 211.673 132.381 211.213C131.957 210.872 131.517 210.531 131.128 210.181C130.196 209.339 129.4 208.361 128.77 207.28C128.399 206.682 128.2 206.017 127.837 205.419C127.801 205.361 127.775 205.298 127.76 205.232C127.369 204.077 127.148 202.873 127.103 201.656C127.077 200.948 127.06 200.248 127.077 199.395ZM139.169 207.928C139.67 207.928 140.163 207.928 140.655 207.979C141.343 207.944 142.005 207.706 142.555 207.297C142.631 207.258 142.694 207.199 142.737 207.126C143.072 206.683 143.3 206.169 143.402 205.624C143.448 204.76 143.343 203.893 143.091 203.064C143.038 202.881 142.941 202.714 142.809 202.576C142.676 202.438 142.512 202.333 142.331 202.271C141.57 201.963 140.793 201.682 140.016 201.417C139.454 201.221 138.876 201.05 138.288 200.863C137.848 200.718 137.425 200.555 136.975 200.419C136.526 200.282 135.887 200.061 135.343 199.89L132.985 199.148C132.864 199.112 132.74 199.09 132.614 199.079C132.474 199.054 132.329 199.077 132.204 199.146C132.08 199.214 131.983 199.324 131.931 199.455C131.863 199.606 131.819 199.768 131.802 199.933C131.616 201.326 131.888 202.741 132.579 203.969C133.242 205.03 134.125 205.94 135.17 206.64C135.262 206.701 135.361 206.752 135.464 206.793C135.801 206.955 136.129 207.143 136.483 207.28C136.875 207.458 137.283 207.601 137.701 207.706C138.211 207.834 138.703 207.868 139.178 207.928H139.169Z" fill="white"/>
<path d="M121.187 265.16C121.333 264.375 121.463 263.521 121.662 262.685C121.779 262.32 121.929 261.966 122.111 261.627C122.18 261.482 122.275 261.362 122.344 261.226C122.888 260.274 123.666 259.472 124.607 258.896C125.296 258.529 126.012 258.212 126.749 257.949C126.893 257.897 127.045 257.865 127.198 257.855C128.866 257.613 130.565 257.679 132.208 258.052C132.7 258.18 133.192 258.282 133.685 258.393C134.206 258.506 134.703 258.708 135.153 258.99C135.2 259.019 135.249 259.045 135.3 259.067C136.074 259.356 136.808 259.74 137.485 260.21C137.942 260.489 138.371 260.812 138.763 261.175C139.199 261.566 139.611 261.982 139.998 262.421C140.589 263.138 141.11 263.91 141.553 264.725C141.95 265.407 142.071 266.184 142.417 266.875C142.485 267.04 142.523 267.217 142.529 267.395C142.74 269.076 142.629 270.781 142.201 272.421C142.025 273.076 141.755 273.703 141.398 274.282C140.995 274.938 140.474 275.517 139.86 275.988C139.279 276.443 138.633 276.811 137.943 277.08C137.237 277.341 136.499 277.511 135.749 277.584C134.439 277.748 133.111 277.676 131.828 277.371L129.504 276.799C129.302 276.747 129.105 276.676 128.917 276.586C128.416 276.355 127.915 276.15 127.448 275.877C126.835 275.519 126.257 275.101 125.669 274.7C125.548 274.614 125.436 274.503 125.306 274.418C124.383 273.763 123.599 272.933 123 271.978C122.62 271.389 122.283 270.766 121.929 270.152C121.9 270.104 121.876 270.052 121.86 269.998C121.476 269.02 121.249 267.99 121.187 266.943C121.221 266.388 121.187 265.808 121.187 265.16ZM130.61 263.453C129.72 263.421 128.83 263.493 127.958 263.666C127.65 263.737 127.358 263.861 127.094 264.033C126.82 264.218 126.588 264.458 126.414 264.737C126.24 265.017 126.127 265.329 126.084 265.655C125.935 266.498 126.085 267.365 126.507 268.112C127.05 269.104 127.888 269.909 128.908 270.416C128.986 270.451 129.059 270.497 129.124 270.553C129.561 270.881 130.065 271.111 130.601 271.227C130.912 271.312 131.223 271.397 131.525 271.5C132.987 271.98 134.563 272.01 136.043 271.585C136.297 271.518 136.533 271.395 136.733 271.227C137.259 270.799 137.599 270.188 137.684 269.52C137.79 268.658 137.598 267.786 137.139 267.046C136.59 266.102 135.769 265.342 134.781 264.861C134.692 264.823 134.608 264.774 134.531 264.716C134.049 264.353 133.486 264.107 132.89 263.999L131.914 263.726C131.508 263.683 131.059 263.59 130.61 263.487V263.453Z" fill="white"/>
<path d="M118.397 301.477C118.457 300.811 118.518 300.154 118.57 299.488C118.621 298.823 118.863 298.686 119.485 298.789C119.689 298.835 119.888 298.897 120.081 298.976L121.809 299.565L123.208 300.018L124.883 300.572L126.352 301.067C126.784 301.212 127.215 301.366 127.665 301.502C128.114 301.639 128.736 301.827 129.254 302.023C130.392 302.462 131.6 302.699 132.821 302.723C133.187 302.73 133.547 302.629 133.855 302.433C134.163 302.237 134.404 301.954 134.548 301.622C134.963 300.78 135.093 299.829 134.92 298.908C134.904 298.614 134.783 298.335 134.58 298.119C134.376 297.904 134.102 297.766 133.806 297.731C133.104 297.585 132.421 297.365 131.767 297.074C131.389 296.927 131.003 296.801 130.61 296.698C130.335 296.644 130.064 296.573 129.798 296.485C128.747 296.063 127.671 295.704 126.576 295.41C125.911 295.213 125.263 294.949 124.598 294.718L122.811 294.113C122.379 293.968 121.947 293.84 121.489 293.703C121.031 293.566 120.573 293.438 120.142 293.251C119.903 293.139 119.687 292.986 119.502 292.798C119.406 292.715 119.332 292.608 119.288 292.489C119.244 292.37 119.232 292.241 119.252 292.116C119.373 290.793 119.494 289.471 119.623 288.148C119.643 288.01 119.681 287.875 119.736 287.747C119.776 287.642 119.85 287.554 119.948 287.497C120.045 287.439 120.159 287.416 120.271 287.431C120.468 287.45 120.662 287.49 120.85 287.551C120.997 287.593 121.126 287.67 121.273 287.721C122.603 288.148 123.942 288.575 125.272 288.993C126.602 289.411 127.673 289.846 128.891 290.196C129.755 290.46 130.558 290.759 131.396 291.049L134.851 292.201C135.714 292.491 136.526 292.816 137.399 293.055C137.864 293.161 138.303 293.361 138.686 293.643C138.881 293.781 139.041 293.961 139.155 294.17C139.269 294.378 139.333 294.61 139.342 294.846C139.373 295.495 139.474 296.139 139.644 296.766C139.728 297.09 139.768 297.423 139.765 297.756C139.765 298.934 139.765 300.111 139.705 301.289C139.652 302.325 139.499 303.354 139.247 304.361C139.139 304.747 138.991 305.122 138.807 305.479C138.746 305.632 138.634 305.769 138.565 305.914C138.115 306.784 137.41 307.5 136.544 307.97C136.397 308.053 136.241 308.116 136.077 308.158C135.818 308.252 135.568 308.371 135.3 308.448C135.021 308.55 134.731 308.621 134.436 308.662C133.136 308.746 131.83 308.645 130.558 308.363C129.798 308.22 129.056 307.994 128.347 307.689C127.993 307.535 127.596 307.467 127.224 307.347L125.644 306.81L124.123 306.323C123.683 306.187 123.26 306.033 122.811 305.888C122.361 305.743 121.731 305.496 121.178 305.359C120.368 305.136 119.577 304.85 118.811 304.506C118.311 304.301 118.207 304.062 118.25 303.525C118.293 302.987 118.371 302.202 118.431 301.536L118.397 301.477Z" fill="white"/>
<path d="M140.249 236.744C140.318 235.942 140.395 235.14 140.456 234.346C140.508 233.758 140.344 233.553 139.782 233.374C139.221 233.195 138.677 232.973 138.115 232.793C137.554 232.614 137.174 232.52 136.707 232.375L135.636 232.017C135.04 231.821 134.444 231.607 133.848 231.42C133.252 231.232 132.7 231.138 132.121 230.95C131.777 230.846 131.416 230.812 131.058 230.848C130.701 230.885 130.354 230.992 130.039 231.164C129.835 231.279 129.663 231.444 129.539 231.641C129.094 232.357 128.894 233.195 128.968 234.031L129.15 235.934C129.154 235.988 129.154 236.042 129.15 236.096C129.202 236.71 128.977 236.949 128.355 237.017C127.388 237.069 126.42 237.094 125.453 237.111C125.365 237.124 125.275 237.12 125.188 237.097C125.102 237.075 125.021 237.035 124.951 236.981C124.881 236.927 124.822 236.859 124.779 236.781C124.736 236.704 124.71 236.619 124.702 236.531C124.262 235.098 124.104 233.594 124.235 232.102C124.365 231.112 124.468 230.123 124.598 229.133C124.654 228.608 124.844 228.106 125.151 227.674C125.22 227.587 125.278 227.492 125.324 227.392C125.73 226.628 126.351 225.997 127.111 225.574C127.845 225.196 128.659 224.995 129.487 224.986C130.495 224.895 131.511 224.991 132.484 225.267C133.054 225.404 133.633 225.523 134.211 225.668C134.79 225.813 135.204 225.975 135.697 226.129L137.286 226.658L138.798 227.162L140.439 227.682L141.708 228.1C142.137 228.275 142.575 228.426 143.021 228.553C143.74 228.734 144.445 228.968 145.129 229.252C145.474 229.397 145.846 229.483 146.208 229.602L147.806 230.114L149.231 230.583C149.49 230.669 149.75 230.728 150 230.805C150.236 230.858 150.448 230.986 150.602 231.169C150.757 231.353 150.846 231.582 150.855 231.821C150.855 232.171 150.855 232.52 150.855 232.862C150.924 233.715 151.019 234.628 151.097 235.507C151.118 235.791 151.118 236.076 151.097 236.36C151.097 236.923 150.7 237.137 150.233 236.855C149.767 236.629 149.278 236.451 148.774 236.326C148.307 236.19 147.849 236.028 147.383 235.857C147.055 235.737 146.744 235.592 146.407 235.481C146.209 235.415 146.003 235.378 145.794 235.37C145.637 235.354 145.48 235.399 145.357 235.497C145.234 235.594 145.155 235.736 145.137 235.891C145.137 236.096 145.137 236.309 145.085 236.514C144.982 237.785 144.887 239.074 144.783 240.32C144.764 240.527 144.717 240.73 144.645 240.926C144.612 241.056 144.529 241.169 144.412 241.239C144.296 241.31 144.156 241.332 144.023 241.301C143.954 241.309 143.885 241.309 143.816 241.301C142.734 241.011 141.672 240.651 140.637 240.226C140.033 239.927 139.894 239.705 139.972 239.048C140.05 238.391 140.119 237.504 140.188 236.736L140.249 236.744Z" fill="white"/>
<path d="M144.058 253.785C143.95 254.835 143.754 255.874 143.471 256.891C143.393 257.172 143.286 257.444 143.151 257.702C143.013 258 142.84 258.291 142.685 258.555C142.653 258.652 142.597 258.74 142.522 258.809C142.446 258.879 142.355 258.929 142.255 258.955C142.155 258.98 142.05 258.981 141.95 258.955C141.85 258.93 141.758 258.881 141.683 258.811C141.297 258.512 140.869 258.271 140.413 258.094C140.275 258.026 140.145 257.932 140.016 257.855L139.1 257.352C138.996 257.292 138.876 257.25 138.763 257.19C138.603 257.118 138.473 256.994 138.395 256.838C138.316 256.683 138.294 256.506 138.331 256.336C138.418 255.931 138.543 255.534 138.703 255.15C139.258 253.94 139.374 252.578 139.031 251.293C139.028 251.254 139.028 251.214 139.031 251.174C138.834 250.119 138.301 249.153 137.511 248.418C136.922 247.886 136.269 247.428 135.567 247.052C135.346 246.933 135.107 246.85 134.859 246.805C134.186 246.66 133.52 246.515 132.838 246.395C131.899 246.208 130.929 246.24 130.005 246.489C129.552 246.587 129.13 246.794 128.778 247.092C128.425 247.39 128.153 247.769 127.984 248.196C127.519 249.347 127.388 250.602 127.604 251.822C127.69 252.3 127.734 252.787 127.777 253.265C127.82 253.742 127.647 253.998 127.138 254.041C126.887 254.054 126.636 254.054 126.386 254.041L124.08 254.007C123.972 254.024 123.862 254.018 123.756 253.991C123.65 253.963 123.552 253.914 123.466 253.846C123.381 253.779 123.311 253.694 123.26 253.599C123.21 253.503 123.18 253.398 123.173 253.29C123.156 253.139 123.121 252.99 123.069 252.846C122.769 252.054 122.636 251.209 122.681 250.363C122.677 248.825 122.848 247.29 123.19 245.79C123.266 245.323 123.459 244.883 123.752 244.51C123.8 244.457 123.838 244.396 123.864 244.33C124.125 243.716 124.506 243.159 124.987 242.692C125.332 242.328 125.708 241.994 126.11 241.694C126.808 241.209 127.577 240.832 128.39 240.576C128.457 240.548 128.526 240.528 128.597 240.516C130.616 240.067 132.716 240.129 134.704 240.695C135.127 240.84 135.567 240.951 135.999 241.062C136.478 241.169 136.932 241.363 137.338 241.634C137.395 241.677 137.455 241.714 137.519 241.745C138.2 242.006 138.833 242.375 139.394 242.837C139.899 243.205 140.378 243.607 140.828 244.04C141.262 244.475 141.66 244.943 142.019 245.44C142.396 245.986 142.736 246.556 143.039 247.146C143.373 247.949 143.661 248.769 143.902 249.604C143.979 249.798 144.025 250.002 144.041 250.21C144.164 251.398 144.17 252.596 144.058 253.785Z" fill="white"/>
<path d="M120.332 279.999C120.375 279.487 120.418 278.975 120.47 278.463C120.475 278.311 120.492 278.16 120.522 278.01C120.617 277.422 120.936 277.2 121.506 277.405C122.585 277.697 123.647 278.05 124.685 278.463C125.065 278.603 125.455 278.718 125.851 278.804L127.129 279.214L129.003 279.837L130.429 280.332L131.75 280.758L133.478 281.33C133.97 281.492 134.471 281.637 134.963 281.791L136.276 282.226C136.846 282.414 137.425 282.593 138.003 282.789C138.798 283.071 139.593 283.344 140.361 283.642C140.845 283.839 140.949 284.095 140.897 284.607L140.534 288.583C140.538 288.651 140.538 288.72 140.534 288.788C140.465 289.163 140.275 289.334 139.895 289.291C139.597 289.264 139.305 289.189 139.031 289.069C138.493 288.829 137.936 288.635 137.364 288.489C136.846 288.344 136.328 288.148 135.818 287.977L134.583 287.568C133.987 287.363 133.391 287.167 132.787 286.979L131.145 286.458C130.765 286.339 130.385 286.194 129.997 286.066L128.321 285.511L127.095 285.11L125.298 284.513L124.184 284.146L122.353 283.54C121.93 283.403 121.489 283.275 121.083 283.113C120.901 283.038 120.735 282.931 120.591 282.798C120.453 282.689 120.347 282.547 120.283 282.385C120.22 282.223 120.201 282.048 120.228 281.876C120.297 281.245 120.34 280.605 120.401 279.973L120.332 279.999Z" fill="white"/>
<path d="M126.058 216.035C126.118 215.403 126.179 214.763 126.231 214.132C126.282 213.5 126.498 213.33 127.094 213.406C127.428 213.447 127.754 213.537 128.062 213.671C128.843 214.014 129.656 214.283 130.489 214.473C130.721 214.525 130.947 214.603 131.162 214.703C131.883 215.012 132.628 215.26 133.391 215.446C133.755 215.545 134.112 215.664 134.462 215.804L136.008 216.325L137.597 216.854L138.029 217.024L142.27 218.364L143.54 218.791C144.11 218.978 144.671 219.192 145.267 219.345C146.407 219.644 146.666 219.985 146.554 221.146C146.442 222.306 146.373 223.245 146.269 224.295C146.252 224.515 146.209 224.733 146.139 224.943C146.105 225.058 146.031 225.157 145.93 225.223C145.828 225.289 145.707 225.316 145.587 225.301C145.418 225.289 145.25 225.263 145.086 225.225C144.359 225.066 143.651 224.837 142.969 224.542C142.589 224.371 142.175 224.278 141.778 224.141L139.955 223.535L138.634 223.117C138.189 222.998 137.75 222.856 137.321 222.69C136.715 222.432 136.088 222.227 135.446 222.076C135.084 221.982 134.73 221.846 134.367 221.726L132.458 221.086L131.275 220.685C130.826 220.523 130.411 220.361 129.927 220.216L128.096 219.61L126.74 219.166C126.049 218.953 125.876 218.688 125.876 217.98C125.876 217.272 125.989 216.683 126.049 216.035H126.058Z" fill="white"/>
<path d="M152.358 228.015C152.067 227.978 151.779 227.924 151.495 227.853C151.246 227.769 151.011 227.652 150.795 227.503C150.49 227.298 150.201 227.07 149.931 226.821C149.372 226.25 148.989 225.533 148.826 224.755C148.72 224.38 148.695 223.987 148.753 223.602C148.811 223.217 148.951 222.848 149.163 222.52C149.24 222.392 149.335 222.264 149.405 222.127C149.629 221.702 149.974 221.351 150.398 221.116C150.821 220.881 151.304 220.773 151.788 220.805C152.166 220.799 152.54 220.874 152.885 221.027C153.75 221.355 154.481 221.954 154.967 222.733C155.148 223.013 155.284 223.318 155.373 223.638C155.54 224.109 155.613 224.607 155.589 225.105C155.529 225.784 155.294 226.436 154.906 227C154.7 227.34 154.403 227.619 154.049 227.807C153.695 227.995 153.296 228.084 152.894 228.066L152.35 228.024L152.358 228.015Z" fill="white"/>
<path d="M146.269 284.82L147.306 285.042C147.629 285.128 147.926 285.292 148.169 285.52C148.599 285.854 148.974 286.251 149.283 286.697C149.373 286.821 149.451 286.952 149.517 287.09C149.787 287.701 149.899 288.369 149.842 289.034C149.784 289.698 149.56 290.338 149.188 290.895C148.907 291.29 148.509 291.588 148.048 291.749C147.549 291.975 146.991 292.043 146.45 291.945C146.122 291.868 145.82 291.715 145.5 291.621C144.814 291.352 144.216 290.9 143.773 290.315C143.411 289.82 143.173 289.247 143.078 288.643C142.984 288.04 143.035 287.422 143.229 286.842C143.49 286.117 143.989 285.499 144.645 285.084C144.834 284.968 145.046 284.892 145.267 284.863C145.604 284.82 145.941 284.837 146.269 284.82Z" fill="white"/>
<path d="M140.171 178.165C140.309 177.499 140.421 176.825 140.586 176.168C140.75 175.511 141.13 175.272 141.829 175.408C141.993 175.446 142.152 175.5 142.304 175.57L143.945 176.228C144.049 176.266 144.15 176.312 144.248 176.364C144.315 176.396 144.375 176.442 144.423 176.498C144.471 176.554 144.507 176.62 144.528 176.69C144.549 176.761 144.555 176.835 144.546 176.909C144.536 176.982 144.511 177.052 144.472 177.115C144.216 177.622 143.997 178.147 143.816 178.685C143.548 179.283 143.132 179.805 142.607 180.204C142.318 180.404 141.966 180.496 141.615 180.463C141.263 180.43 140.935 180.275 140.689 180.025C140.513 179.855 140.376 179.65 140.286 179.423C140.197 179.196 140.158 178.954 140.171 178.711V178.173V178.165Z" fill="white"/>
<path d="M145.768 179.086C145.855 178.779 146.001 178.233 146.183 177.61C146.201 177.534 146.234 177.463 146.281 177.401C146.328 177.338 146.387 177.286 146.455 177.247C146.522 177.208 146.598 177.183 146.676 177.173C146.754 177.164 146.833 177.17 146.908 177.192C147.735 177.36 148.523 177.679 149.232 178.13C149.304 178.171 149.368 178.226 149.418 178.291C149.469 178.356 149.505 178.431 149.525 178.511C149.546 178.591 149.549 178.674 149.536 178.755C149.522 178.837 149.492 178.914 149.448 178.984C149.258 179.385 149.076 179.786 148.895 180.187C148.616 180.738 148.152 181.175 147.582 181.424C147.337 181.519 147.068 181.532 146.815 181.461C146.563 181.39 146.34 181.239 146.183 181.032C145.971 180.759 145.824 180.442 145.752 180.105C145.68 179.769 145.686 179.42 145.768 179.086V179.086Z" fill="white"/>
<path d="M131.145 217.647C129.789 218.36 128.28 218.744 126.743 218.766C125.206 218.789 123.687 218.449 122.309 217.775C120.34 216.845 118.475 215.164 116.808 212.195C112.722 204.916 101.649 188.302 99.6109 183.506C97.5725 178.711 93.0639 165.262 88.5553 159.614C84.0467 153.965 81.5937 145.449 81.5937 145.449L79.9526 62.9163C82.4056 74.8626 89.1685 88.4047 89.1685 88.4047C95.0558 91.419 100.061 95.8762 103.705 101.349C104.76 102.462 105.705 103.67 106.529 104.959C113.214 115.199 116.453 133.588 116.808 147.872C117.222 164.085 122.543 171.347 131.145 185.503C139.748 199.659 136.734 214.499 131.145 217.647Z" fill="white"/>
<path opacity="0.4" d="M131.145 217.647C129.783 218.342 128.276 218.714 126.743 218.737C125.21 218.759 123.692 218.43 122.309 217.775C127.008 216.512 133.175 214.123 131.759 210.582C129.53 204.976 123.018 213.287 119.744 210.582C116.471 207.877 104.595 192.321 112.143 185.477C119.692 178.634 117.283 167.165 112.143 163.931C107.004 160.697 110.33 153 111.962 140.892C112.955 133.562 109.449 116.999 106.529 104.968C113.214 115.207 116.453 133.596 116.808 147.881C117.222 164.094 122.543 171.355 131.145 185.512C139.748 199.668 136.734 214.703 131.145 217.647Z" fill="#5AE4A7"/>
<path d="M79.9526 62.865C82.4142 74.8114 89.1685 88.3534 89.1685 88.3534C95.0575 91.3692 100.063 95.8296 103.705 101.307C112.342 110.207 116.402 131.65 116.808 147.829C117.214 164.008 122.543 171.295 131.145 185.46C139.748 199.625 137.355 214.268 131.145 217.613C126.827 219.951 120.91 219.448 116.808 212.16C112.705 204.873 101.623 188.302 99.6109 183.506C97.5984 178.711 93.0553 165.262 88.5553 159.613C84.0553 153.965 81.5937 145.457 81.5937 145.457" stroke="#1A2E35" stroke-linecap="round" stroke-linejoin="round"/>
<path d="M106.529 182.056C106.529 182.056 113.214 181.467 116.281 178.967" stroke="#1A2E35" stroke-linecap="round" stroke-linejoin="round"/>
<path d="M79.1665 147.113C79.1665 147.113 77.8709 150.227 84.6943 153.231" stroke="#1A2E35" stroke-linecap="round" stroke-linejoin="round"/>
</svg>
