<svg width="63" height="98" viewBox="0 0 63 98" fill="none" xmlns="http://www.w3.org/2000/svg">
<path d="M11.6365 15.3917C11.6203 15.394 11.6039 15.394 11.5878 15.3917L9.36488 14.6528C8.33028 14.3108 7.67147 13.6849 7.55736 12.9331C7.44782 12.2104 7.83275 11.4813 8.64066 10.8666L13.9217 6.8514C13.95 6.83022 13.9837 6.81885 14.0183 6.81885C14.0529 6.81885 14.0867 6.83022 14.115 6.8514C14.1425 6.87326 14.1631 6.90351 14.1739 6.9381C14.1848 6.9727 14.1855 7.00998 14.1758 7.04498L11.7932 15.2723C11.7871 15.294 11.7769 15.3141 11.7633 15.3316C11.7497 15.349 11.733 15.3634 11.7141 15.3739C11.6901 15.387 11.6633 15.3931 11.6365 15.3917V15.3917ZM13.7178 7.43699L8.83236 11.1473C8.14161 11.67 7.79471 12.2992 7.88144 12.8751C7.97577 13.4913 8.55089 14.0156 9.46226 14.3157L11.5284 15.0029L13.7178 7.43699Z" fill="#FAC07F"/>
<path d="M20.9096 18.2471C20.5481 18.2417 20.1893 18.1803 19.8445 18.0648L17.6186 17.3469C17.5768 17.3332 17.5418 17.3024 17.5212 17.2614C17.5105 17.2416 17.5038 17.2195 17.5017 17.1967C17.4996 17.1739 17.5021 17.1508 17.5091 17.1291L19.8902 8.90185C19.9002 8.86681 19.9204 8.83601 19.9479 8.81384C19.9754 8.79168 20.0088 8.77927 20.0434 8.77837C20.0779 8.77748 20.1118 8.78815 20.1403 8.80887C20.1688 8.82959 20.1904 8.8593 20.2021 8.89379L22.4478 15.3595C22.7932 16.3451 22.7232 17.1808 22.2515 17.7131C21.9381 18.068 21.4725 18.2471 20.9096 18.2471ZM17.8666 17.063L19.9358 17.7309C20.8487 18.0245 21.6094 17.9325 22.0066 17.4776C22.3839 17.0533 22.431 16.3258 22.1344 15.4837L20.0606 9.50196L17.8666 17.063Z" fill="#FAC07F"/>
<path d="M17.9439 18.2876C17.9278 18.2906 17.9113 18.2906 17.8952 18.2876L10.8477 15.9856C10.8059 15.9718 10.7709 15.9411 10.7503 15.9001C10.7304 15.8593 10.7261 15.8119 10.7382 15.7678L13.629 5.766C13.6457 5.65792 13.7644 5.09975 14.4399 3.89792C14.4594 3.86482 14.4884 3.83935 14.5228 3.82538C14.5571 3.8114 14.5948 3.80969 14.6301 3.82049L21.2273 5.96927C21.2612 5.98096 21.2907 6.00387 21.3115 6.03463C21.3324 6.0654 21.3433 6.10241 21.3429 6.14027C21.317 7.35984 21.0386 8.06319 20.999 8.16482L18.1052 18.165C18.0946 18.2013 18.0731 18.2329 18.044 18.2551C18.0148 18.2772 17.9797 18.2886 17.9439 18.2876V18.2876ZM11.0972 15.7065L17.8328 17.8988L20.6856 8.05835C20.6872 8.05051 20.6898 8.04292 20.6932 8.03577C20.6932 8.03577 20.964 7.40017 21.0066 6.26125L14.6651 4.19475C14.0291 5.34657 13.9607 5.82247 13.9607 5.8273C13.9607 5.83214 13.9607 5.84828 13.9607 5.85634L11.0972 15.7065Z" fill="#FAC07F"/>
<path d="M21.1788 6.30591C21.1566 6.30631 21.1346 6.30076 21.1149 6.28978L14.6425 4.18294C14.6171 4.19832 14.5881 4.2056 14.5589 4.20392C14.5297 4.20328 14.5012 4.19443 14.4764 4.17827C14.4515 4.16211 14.4311 4.13923 14.4174 4.11196C14.3915 4.06034 14.3793 4.03614 14.4265 3.93612L14.4371 3.91838C14.4813 3.82965 14.5649 3.68769 14.7156 3.43442C15.7274 1.75186 18.6943 -0.195269 19.3318 0.0112202C20.0225 0.237068 21.2732 3.95064 21.3386 5.57836C21.3386 5.75581 21.3386 5.99456 21.3386 6.122C21.3396 6.14523 21.3363 6.16844 21.3288 6.19029C21.3213 6.21215 21.3098 6.2322 21.2949 6.24931C21.2801 6.26641 21.2621 6.28022 21.2422 6.28994C21.2223 6.29965 21.2008 6.30508 21.1788 6.30591V6.30591ZM14.8388 3.88612L21.0145 5.89777C21.0145 5.78001 21.0145 5.67838 21.0145 5.59933C20.9384 3.74738 19.6071 0.474207 19.2374 0.351604C19.0853 0.301595 18.3397 0.612942 17.3371 1.31952C16.2903 2.06482 15.4155 2.93272 14.9971 3.62155C14.9362 3.71834 14.8829 3.80707 14.8388 3.88289V3.88612Z" fill="#FAC07F"/>
<path d="M16.6217 12.7979C16.1559 12.7978 15.6956 12.6911 15.2722 12.4851C14.8488 12.2791 14.4723 11.9787 14.1685 11.6043C13.8646 11.23 13.6405 10.7905 13.5115 10.3159C13.3824 9.84134 13.3515 9.34283 13.4208 8.85442C13.4901 8.36601 13.6579 7.8992 13.9129 7.48586C14.1679 7.07253 14.504 6.7224 14.8983 6.45938C15.2926 6.19636 15.7357 6.02665 16.1975 5.96182C16.6593 5.897 17.1289 5.9386 17.5741 6.08377V6.08377C18.3153 6.32542 18.95 6.84105 19.3629 7.5369C19.7758 8.23275 19.9395 9.06262 19.8242 9.8756C19.7089 10.6886 19.3222 11.4307 18.7345 11.967C18.1468 12.5032 17.3971 12.7981 16.6217 12.7979V12.7979ZM16.6217 6.28058C15.8879 6.28044 15.1813 6.57444 14.6434 7.10362C14.1056 7.63279 13.7763 8.35801 13.7217 9.13383C13.667 9.90964 13.8911 10.6787 14.3488 11.2867C14.8066 11.8947 15.4642 12.2967 16.1899 12.4121C16.9155 12.5275 17.6554 12.3478 18.2613 11.9089C18.8671 11.4701 19.2941 10.8046 19.4566 10.0459C19.619 9.28725 19.5049 8.49151 19.1372 7.81831C18.7694 7.1451 18.1752 6.64421 17.4737 6.41609V6.41609C17.1991 6.32678 16.9135 6.28111 16.6263 6.28058H16.6217ZM16.6217 12.0542C16.3679 12.0544 16.1156 12.0142 15.8731 11.9348C15.2633 11.7352 14.7472 11.2986 14.4281 10.7126C14.1091 10.1265 14.0107 9.4343 14.1527 8.77459C14.2947 8.11487 14.6666 7.53642 15.1938 7.15514C15.7211 6.77386 16.3647 6.61791 16.9958 6.71856C17.6269 6.8192 18.1989 7.169 18.597 7.69785C18.9951 8.22671 19.1901 8.89556 19.1428 9.57037C19.0954 10.2452 18.8094 10.8761 18.3418 11.3367C17.8743 11.7973 17.2599 12.0536 16.6217 12.0542V12.0542ZM16.6217 7.02265C16.0936 7.0244 15.5837 7.22664 15.1841 7.59272C14.7846 7.9588 14.5219 8.4645 14.4438 9.01821C14.3656 9.57192 14.4771 10.137 14.758 10.6111C15.0389 11.0852 15.4707 11.4369 15.9751 11.6025V11.6025C16.5331 11.7787 17.1341 11.714 17.6474 11.4225C18.1606 11.1311 18.5445 10.6364 18.7154 10.0463C18.8864 9.45623 18.8305 8.81842 18.5601 8.27175C18.2896 7.72508 17.8264 7.31382 17.2714 7.12751C17.0609 7.05876 16.8419 7.02342 16.6217 7.02265Z" fill="#FAC07F"/>
<path d="M16.6283 12.0537C16.0942 12.0546 15.5736 11.8768 15.1405 11.5455C14.7074 11.2143 14.3839 10.7466 14.2162 10.2091C14.0485 9.67151 14.0451 9.09155 14.2065 8.55183C14.3678 8.0121 14.6858 7.54015 15.1149 7.20323C15.5441 6.86631 16.0626 6.68161 16.5966 6.67545C17.1306 6.66929 17.6528 6.84199 18.0888 7.16894C18.5247 7.49588 18.8523 7.96039 19.0247 8.49627C19.1971 9.03214 19.2056 9.61205 19.0489 10.1533C18.8899 10.7028 18.5691 11.1838 18.1335 11.5257C17.6978 11.8677 17.1703 12.0528 16.6283 12.0537V12.0537ZM16.6283 7.02213C16.2193 7.0221 15.8183 7.14243 15.4701 7.36973C15.1218 7.59703 14.8398 7.92237 14.6557 8.30953C14.4715 8.69668 14.3922 9.13044 14.4268 9.56251C14.4614 9.99458 14.6084 10.408 14.8515 10.7567C15.0946 11.1054 15.4242 11.3757 15.8036 11.5376C16.183 11.6994 16.5973 11.7464 17.0005 11.6733C17.4036 11.6002 17.7796 11.41 18.0868 11.1236C18.3939 10.8373 18.6201 10.4662 18.7401 10.0517C18.912 9.4585 18.8547 8.81717 18.5808 8.26873C18.3069 7.72028 17.8388 7.3096 17.2795 7.12698C17.0665 7.05744 16.845 7.0221 16.6222 7.02213H16.6283Z" fill="#FAC07F"/>
<path d="M11.277 22.817C11.2495 22.8168 11.2226 22.8095 11.1984 22.7958C11.1743 22.782 11.1537 22.7621 11.1385 22.7379C9.47704 20.0358 11.423 17.6064 11.4428 17.5757C11.4636 17.5503 11.4909 17.5318 11.5215 17.5226C11.552 17.5135 11.5844 17.514 11.6147 17.5241L13.4801 18.1306C13.5128 18.1415 13.5417 18.1629 13.5626 18.1917C13.5836 18.2206 13.5957 18.2556 13.5972 18.292C13.7585 21.5554 11.3682 22.7847 11.3454 22.7976C11.3242 22.8092 11.3008 22.8158 11.277 22.817V22.817ZM11.6254 17.9064C11.3211 18.3355 10.0932 20.2439 11.3348 22.4233C11.8003 22.1378 13.3523 20.9941 13.2747 18.4468L11.6254 17.9064Z" fill="#FAC07F"/>
<path d="M11.6032 21.5087C11.5885 21.5104 11.5737 21.5104 11.5591 21.5087C11.5342 21.5007 11.5115 21.4868 11.4925 21.4681C11.4735 21.4494 11.4588 21.4263 11.4495 21.4006C10.9444 19.96 11.3963 18.4807 11.7097 17.7274C11.7264 17.6886 11.7558 17.6575 11.7925 17.64C11.8291 17.6225 11.8705 17.6197 11.909 17.6322L13.1886 18.0484C13.2268 18.061 13.2594 18.088 13.2804 18.1241C13.3014 18.1603 13.3093 18.2033 13.3027 18.2452C12.9375 20.4408 11.7553 21.4361 11.7051 21.4716C11.6759 21.4954 11.6401 21.5085 11.6032 21.5087V21.5087ZM11.9531 18.0048C11.6869 18.692 11.3689 19.86 11.6808 21.0215C12.338 20.2709 12.7794 19.3367 12.9527 18.3291L11.9531 18.0048Z" fill="#FAC07F"/>
<path d="M13.6325 18.5421C13.6164 18.5446 13.6 18.5446 13.5839 18.5421L11.2666 17.7871C11.2443 17.7801 11.2237 17.7682 11.2061 17.752C11.1885 17.7359 11.1744 17.716 11.1647 17.6935C11.1553 17.6709 11.1504 17.6465 11.1504 17.6218C11.1504 17.597 11.1553 17.5726 11.1647 17.55L11.3762 17.0466C11.3926 17.0076 11.4219 16.9762 11.4586 16.9584C11.4953 16.9405 11.5369 16.9375 11.5755 16.9499L13.771 17.6661C13.8096 17.6782 13.8426 17.705 13.8637 17.7413C13.8848 17.7776 13.8924 17.821 13.8851 17.8629L13.7938 18.405C13.7876 18.4454 13.7679 18.4822 13.7383 18.5085C13.7087 18.5349 13.6712 18.5491 13.6325 18.5485V18.5421ZM11.5405 17.5048L13.5032 18.1501L13.5367 17.9533L11.6181 17.329L11.5405 17.5048Z" fill="#FAC07F"/>
<path d="M13.845 18.0421C13.8294 18.0452 13.8135 18.0452 13.7979 18.0421L11.3452 17.2355C11.3246 17.2289 11.3053 17.218 11.2887 17.2034C11.272 17.1888 11.2583 17.1709 11.2482 17.1506C11.2382 17.1304 11.232 17.1082 11.2301 17.0854C11.2282 17.0625 11.2306 17.0396 11.2372 17.0177L11.4654 16.2257C11.4795 16.1771 11.5025 16.1319 11.5331 16.0927C11.5636 16.0536 11.6012 16.0212 11.6437 15.9975C11.6861 15.9739 11.7325 15.9593 11.7802 15.9547C11.828 15.9501 11.8761 15.9556 11.9219 15.9708L13.9972 16.6451C14.0895 16.6756 14.1667 16.7436 14.2118 16.8344C14.2568 16.9251 14.2661 17.0311 14.2376 17.1291L14.0078 17.9227C13.9964 17.9586 13.9744 17.9895 13.9451 18.011C13.9157 18.0325 13.8807 18.0434 13.845 18.0421V18.0421ZM11.5993 16.9532L13.7294 17.6501L13.9105 17.0242C13.9119 17.0198 13.9125 17.015 13.9122 17.0104C13.9119 17.0057 13.9107 17.0011 13.9087 16.9969C13.9067 16.9927 13.904 16.9889 13.9006 16.9859C13.8973 16.9828 13.8934 16.9805 13.8892 16.979L11.8154 16.3031C11.8065 16.3006 11.7971 16.3019 11.7891 16.3068C11.7811 16.3116 11.7753 16.3195 11.7728 16.3289L11.5993 16.9532Z" fill="#FAC07F"/>
<path d="M14.2666 23.7915C14.2394 23.7914 14.2127 23.7841 14.1888 23.7703C14.1649 23.7565 14.1446 23.7366 14.1297 23.7125C12.4682 21.0104 14.4142 18.5809 14.434 18.5502C14.4556 18.5261 14.4832 18.509 14.5136 18.5007C14.544 18.4924 14.576 18.4934 14.6059 18.5035L16.4728 19.1116C16.5056 19.1222 16.5345 19.1434 16.5553 19.1724C16.576 19.2014 16.5876 19.2366 16.5884 19.2729C16.7512 22.5364 14.361 23.7657 14.3366 23.777C14.3146 23.7872 14.2907 23.7922 14.2666 23.7915V23.7915ZM14.6166 18.8713C14.3016 19.3004 13.0844 21.2104 14.3245 23.3914C14.7916 23.1059 16.3419 21.9621 16.2643 19.4133L14.6166 18.8713Z" fill="#FAC07F"/>
<path d="M14.5944 22.4816C14.5793 22.4841 14.5639 22.4841 14.5487 22.4816C14.5241 22.4743 14.5014 22.4608 14.4826 22.4423C14.4638 22.4237 14.4494 22.4007 14.4407 22.3752C13.9356 20.933 14.3875 19.4553 14.7009 18.7019C14.7173 18.6628 14.7466 18.6314 14.7833 18.6136C14.82 18.5958 14.8616 18.5928 14.9002 18.6051L16.1798 19.0229C16.218 19.0356 16.2506 19.0625 16.2716 19.0987C16.2926 19.1349 16.3005 19.1779 16.2939 19.2198C15.9287 21.4153 14.745 22.4107 14.6948 22.4462C14.6661 22.4697 14.6307 22.4823 14.5944 22.4816V22.4816ZM14.9443 18.9778C14.6766 19.6666 14.3601 20.833 14.6705 21.9945C15.3292 21.2456 15.7708 20.3114 15.9424 19.3036L14.9443 18.9778Z" fill="#FAC07F"/>
<path d="M16.6215 19.5195C16.6058 19.5219 16.59 19.5219 16.5743 19.5195L14.2571 18.7646C14.2347 18.7572 14.2141 18.7449 14.1965 18.7285C14.179 18.7121 14.1649 18.692 14.1552 18.6694C14.145 18.6473 14.1396 18.623 14.1396 18.5984C14.1396 18.5738 14.145 18.5495 14.1552 18.5274L14.3667 18.0241C14.3828 17.9851 14.4118 17.9538 14.4482 17.936C14.4847 17.9181 14.526 17.9151 14.5644 17.9273L16.7615 18.6436C16.7997 18.6562 16.8323 18.6831 16.8533 18.7193C16.8743 18.7555 16.8822 18.7985 16.8756 18.8404L16.7843 19.3824C16.7801 19.4066 16.7711 19.4296 16.758 19.4498C16.7449 19.4701 16.728 19.4873 16.7082 19.5002C16.6816 19.515 16.6515 19.5217 16.6215 19.5195V19.5195ZM14.531 18.4822L16.4922 19.1275L16.5256 18.9307L14.6055 18.2967L14.531 18.4822Z" fill="#FAC07F"/>
<path d="M16.8418 19.0164C16.8261 19.0187 16.8102 19.0187 16.7946 19.0164L14.342 18.2098C14.3004 18.196 14.2656 18.1654 14.2451 18.1247C14.2246 18.0839 14.22 18.0363 14.2324 17.992L14.4622 17.1983C14.476 17.1499 14.4989 17.1049 14.5295 17.0661C14.56 17.0273 14.5977 16.9955 14.6402 16.9725C14.7228 16.9242 14.82 16.912 14.911 16.9386L16.9848 17.6145C17.0771 17.645 17.1543 17.713 17.1994 17.8038C17.2444 17.8945 17.2537 18.0005 17.2252 18.0985L16.9954 18.8905C16.9855 18.926 16.9654 18.9572 16.9378 18.9798C16.9102 19.0024 16.8766 19.0152 16.8418 19.0164V19.0164ZM14.5945 17.9275L16.7368 18.6244L16.9178 17.9968C16.9202 17.9876 16.9192 17.9778 16.915 17.9694C16.9107 17.961 16.9036 17.9546 16.895 17.9517L14.8182 17.2773C14.8143 17.2756 14.8102 17.2747 14.806 17.2747C14.8018 17.2747 14.7977 17.2756 14.7938 17.2773C14.7898 17.2794 14.7863 17.2823 14.7834 17.286C14.7805 17.2896 14.7784 17.2938 14.7771 17.2983L14.5945 17.9275Z" fill="#FAC07F"/>
<path d="M4.07664 41.3126L4.73696 40.6737L5.60573 40.8899L5.23905 40.0268L5.70006 39.2154L4.81304 39.3203L4.22727 38.604L4.04773 39.5316L3.22461 39.8994L4.00057 40.3688L4.07664 41.3126Z" fill="#FAC07F"/>
<path d="M19.177 33.1465L19.5452 33.5466L19.6213 32.9933L20.093 32.7464L19.6198 32.4996L19.5437 31.9463L19.177 32.3464L18.6582 32.2528L18.9032 32.7464L18.6582 33.2417L19.177 33.1465Z" fill="#FAC07F"/>
<path d="M26.6912 35.5648L26.4463 36.0584L26.9666 35.9649L27.3333 36.3633L27.4094 35.8116L27.8826 35.5632L27.4094 35.3164L27.3333 34.7646L26.9651 35.1647L26.4463 35.0695L26.6912 35.5648Z" fill="#FAC07F"/>
<path d="M8.19222 78.9532L8.56042 79.3532L8.63497 78.7999L9.10815 78.5531L8.63497 78.3063L8.5589 77.7529L8.19222 78.153L7.67188 78.0594L7.91836 78.5531L7.6734 79.0483L8.19222 78.9532Z" fill="#FAC07F"/>
<path d="M10.7113 50.3012L10.55 50.3673C10.5044 50.3867 10.4603 50.4092 10.4146 50.4254C10.3818 50.4273 10.3491 50.4328 10.3173 50.4415L10.2381 50.4754L10.1316 50.5222C10.0776 50.5353 10.0267 50.5599 9.98196 50.5946C9.93723 50.6293 9.89963 50.6732 9.87146 50.7238C9.82057 50.8171 9.80625 50.9279 9.83157 51.0322C9.85689 51.1366 9.91984 51.2263 10.0069 51.282C10.0764 51.3166 10.1522 51.3346 10.229 51.3346C10.3058 51.3346 10.3817 51.3166 10.4511 51.282C10.508 51.2604 10.5598 51.2263 10.6033 51.182C10.6216 51.1691 10.6398 51.1562 10.6565 51.1416C10.6944 51.1177 10.7274 51.086 10.7536 51.0483C10.7797 51.0106 10.7984 50.9677 10.8087 50.9222L10.9274 50.8448C10.9856 50.8078 11.0294 50.7497 11.0506 50.6813C11.0718 50.6129 11.0691 50.5387 11.043 50.4722C11.0172 50.4054 10.9691 50.3511 10.9079 50.3196C10.8467 50.2881 10.7768 50.2815 10.7113 50.3012V50.3012ZM10.407 51.2691C10.4374 51.2453 10.4659 51.2188 10.4922 51.19L10.4755 51.2126L10.407 51.2691Z" fill="#FAC07F"/>
<path d="M2.94249 63.9538C2.99647 64.0126 3.06858 64.0488 3.14567 64.0559C3.22275 64.063 3.29968 64.0405 3.36242 63.9925C3.40752 63.9623 3.44303 63.9185 3.46436 63.8667C3.47124 63.8495 3.47634 63.8317 3.47957 63.8134C3.50983 63.7738 3.52517 63.7236 3.52264 63.6727C3.52011 63.6218 3.49989 63.5736 3.46588 63.5376C3.44581 63.5171 3.42188 63.5013 3.39566 63.4913C3.36944 63.4813 3.34152 63.4773 3.31373 63.4795C3.29439 63.4434 3.26594 63.4138 3.23157 63.394H3.22397C3.20837 63.3785 3.19157 63.3645 3.17376 63.352C3.15371 63.338 3.13063 63.3296 3.10667 63.3276C3.08271 63.3256 3.05867 63.3302 3.03682 63.3408C3.00873 63.3551 2.98304 63.3741 2.96075 63.3972L2.93184 63.4246L2.91206 63.4408C2.87697 63.4779 2.85267 63.5249 2.84207 63.5763C2.82608 63.6364 2.82608 63.7001 2.84207 63.7602C2.86071 63.8322 2.89511 63.8985 2.94249 63.9538V63.9538ZM3.3472 63.5279V63.515V63.5279Z" fill="#FAC07F"/>
<path d="M25.0542 32.7932C25.1307 32.6837 25.186 32.5592 25.217 32.427C25.2434 32.3814 25.2517 32.3266 25.24 32.2746C25.2283 32.2225 25.1976 32.1775 25.1546 32.1495C25.1116 32.1215 25.0599 32.1127 25.0108 32.1251C24.9618 32.1375 24.9193 32.1701 24.8929 32.2157C24.7164 32.3141 24.5491 32.5383 24.6723 32.74C24.6916 32.7733 24.7177 32.8017 24.7487 32.8229C24.7796 32.8442 24.8147 32.8579 24.8513 32.863C24.8879 32.8681 24.9251 32.8645 24.9602 32.8524C24.9953 32.8403 25.0274 32.8201 25.0542 32.7932V32.7932Z" fill="#FAC07F"/>
<path d="M59.75 75.7219C59.7493 75.6803 59.7398 75.6395 59.7221 75.6023C59.7045 75.5652 59.6792 75.5327 59.6481 75.5073C59.6059 75.4687 59.5517 75.448 59.496 75.4493C59.4369 75.451 59.3801 75.4737 59.3347 75.5138C59.3042 75.5379 59.2794 75.5693 59.2625 75.6055C59.2456 75.6417 59.237 75.6815 59.2373 75.7219V75.7913C59.2373 75.8009 59.2373 75.8106 59.2373 75.8187C59.2373 75.8848 59.2373 75.951 59.2373 76.0155C59.2373 76.087 59.2641 76.1555 59.3117 76.206C59.3594 76.2565 59.424 76.2849 59.4914 76.2849C59.5588 76.2849 59.6234 76.2565 59.6711 76.206C59.7187 76.1555 59.7455 76.087 59.7455 76.0155C59.7455 75.951 59.7455 75.8864 59.7455 75.8219C59.7462 75.8117 59.7462 75.8015 59.7455 75.7913C59.75 75.7687 59.75 75.7461 59.75 75.7219Z" fill="#FAC07F"/>
<path d="M24.2124 97.1966L24.1561 97.1724L24.1698 97.1837L24.1561 97.174C24.1376 97.1613 24.1169 97.1528 24.0952 97.1489C24.0735 97.145 24.0512 97.1459 24.0298 97.1514C24.0098 97.1572 23.9907 97.1665 23.9735 97.1789V97.1789L23.9188 97.2031C23.8835 97.2226 23.8536 97.2515 23.832 97.2869C23.7754 97.3663 23.7488 97.4653 23.7575 97.5644C23.7613 97.6464 23.7826 97.7264 23.8199 97.7983C23.8532 97.858 23.9003 97.9076 23.9567 97.9426C24.0131 97.9776 24.0771 97.9968 24.1424 97.9984C24.2186 97.9932 24.293 97.9718 24.3612 97.9355C24.4294 97.8992 24.4901 97.8487 24.5395 97.787C24.6013 97.7193 24.6359 97.6288 24.6359 97.5346C24.6359 97.4403 24.6013 97.3498 24.5395 97.2821C24.4963 97.2396 24.4436 97.2094 24.3864 97.1944C24.3292 97.1795 24.2693 97.1802 24.2124 97.1966V97.1966Z" fill="#FAC07F"/>
<path d="M53.605 91.7911C53.8119 91.5765 54.1208 91.4878 54.2547 91.191C54.3003 91.0878 54.2197 90.9135 54.0934 90.97C53.7997 91.099 53.5015 91.1958 53.2611 91.4265C53.0207 91.6572 53.3813 92.0218 53.605 91.7911Z" fill="#FAC07F"/>
<path d="M45.5855 56.0747C45.6217 56.0406 45.6558 56.004 45.6874 55.965C45.7344 55.915 45.7608 55.8472 45.7606 55.7765C45.7605 55.7059 45.7339 55.6382 45.6867 55.5884C45.6633 55.5637 45.6356 55.5441 45.6051 55.5308C45.5746 55.5175 45.5419 55.5107 45.5089 55.5107C45.4423 55.5109 45.3784 55.5391 45.3314 55.5892C45.2995 55.6214 45.2584 55.6585 45.2279 55.6956C44.9799 55.9199 45.3405 56.3006 45.5855 56.0747Z" fill="#FAC07F"/>
<path d="M28.7802 40.3185C28.8632 40.3162 28.9425 40.2811 29.0024 40.2201C29.032 40.19 29.0557 40.1538 29.0718 40.1137C29.088 40.0737 29.0963 40.0305 29.0963 39.987C29.0963 39.9434 29.088 39.9003 29.0718 39.8602C29.0557 39.8202 29.032 39.784 29.0024 39.7539C29.0032 39.7491 29.0032 39.7441 29.0024 39.7393C29.001 39.6891 28.9877 39.64 28.9638 39.5966C28.9399 39.5532 28.9061 39.5168 28.8654 39.4909C28.8135 39.463 28.7563 39.4475 28.6981 39.4457C28.6236 39.4392 28.5489 39.4558 28.4832 39.4936C28.4175 39.5315 28.3637 39.5888 28.3283 39.6587C28.2867 39.7407 28.2704 39.8346 28.2819 39.9269C28.2934 40.0193 28.332 40.1055 28.3922 40.1733C28.4429 40.2261 28.504 40.2665 28.571 40.2916C28.638 40.3167 28.7095 40.3259 28.7802 40.3185V40.3185ZM28.8989 39.97C28.8852 39.9894 28.8715 40.0104 28.8563 40.0297L28.8989 39.97Z" fill="#FAC07F"/>
<path d="M23.902 27.3842C23.902 27.3584 23.902 27.3342 23.902 27.31C23.902 27.31 23.902 27.2955 23.902 27.2842C23.9172 27.2713 23.9309 27.2535 23.9461 27.239C23.9887 27.1971 24.0344 27.1568 24.08 27.1164C24.1307 27.0569 24.1579 26.9789 24.156 26.8987C24.1541 26.8185 24.1232 26.7421 24.0696 26.6854C24.0161 26.6287 23.9441 26.5959 23.8685 26.5939C23.7928 26.5918 23.7193 26.6206 23.6631 26.6744C23.5659 26.7859 23.4872 26.9141 23.4303 27.0535C23.4012 27.1609 23.3939 27.2736 23.409 27.3842C23.4183 27.4465 23.4482 27.5032 23.4934 27.5441C23.5386 27.5851 23.5961 27.6076 23.6555 27.6076C23.715 27.6076 23.7725 27.5851 23.8176 27.5441C23.8628 27.5032 23.8928 27.4465 23.902 27.3842V27.3842ZM23.9187 27.2664C23.9186 27.2654 23.9186 27.2643 23.9187 27.2632V27.2664Z" fill="#FAC07F"/>
<path d="M23.6024 48.7092C23.6469 48.7124 23.6916 48.7059 23.7336 48.6901C23.7757 48.6742 23.8142 48.6494 23.8468 48.6171C23.8794 48.5848 23.9055 48.5457 23.9232 48.5023C23.941 48.4589 23.9502 48.4121 23.9502 48.3648C23.9502 48.3174 23.941 48.2706 23.9232 48.2272C23.9055 48.1838 23.8794 48.1447 23.8468 48.1124C23.8142 48.0801 23.7757 48.0553 23.7336 48.0395C23.6916 48.0236 23.6469 48.0171 23.6024 48.0203C23.4015 48.03 23.1459 48.0123 23.0044 48.1817C22.9621 48.2295 22.9385 48.2927 22.9385 48.3583C22.9385 48.4239 22.9621 48.4871 23.0044 48.5349C23.1505 48.7188 23.4015 48.6995 23.6024 48.7092Z" fill="#FAC07F"/>
<path d="M12.6136 40.6916H12.6258C12.5619 40.6899 12.5771 40.7 12.6136 40.6916Z" fill="#FAC07F"/>
<path d="M12.5868 41.2057H12.5974H12.605L12.7967 41.246C12.8469 41.2605 12.8998 41.2606 12.95 41.2464C13.0002 41.2323 13.046 41.2043 13.0828 41.1654C13.1374 41.1062 13.1684 41.0271 13.1695 40.9443C13.1684 40.8616 13.1374 40.7825 13.0828 40.7233C13.0455 40.6852 12.9997 40.6578 12.9496 40.6437C12.8996 40.6295 12.847 40.6292 12.7967 40.6427L12.6172 40.6814H12.6416C12.576 40.6822 12.5134 40.7102 12.4671 40.7593C12.4207 40.8085 12.3943 40.8749 12.3936 40.9443C12.3948 41.0016 12.4132 41.057 12.446 41.1025C12.4788 41.148 12.5244 41.1813 12.5761 41.1976C12.5761 41.1976 12.5822 41.2057 12.5868 41.2057Z" fill="#FAC07F"/>
<path d="M6.59063 28.3614C6.59247 28.3622 6.59445 28.3624 6.59639 28.3621C6.59834 28.3619 6.6002 28.3611 6.60181 28.3599C6.60342 28.3588 6.60474 28.3572 6.60565 28.3553C6.60656 28.3535 6.60703 28.3514 6.60703 28.3493C6.60703 28.3473 6.60656 28.3452 6.60565 28.3434C6.60474 28.3415 6.60342 28.3399 6.60181 28.3387C6.6002 28.3375 6.59834 28.3368 6.59639 28.3365C6.59445 28.3363 6.59247 28.3365 6.59063 28.3372C6.58879 28.3365 6.58681 28.3363 6.58486 28.3365C6.58291 28.3368 6.58105 28.3375 6.57944 28.3387C6.57783 28.3399 6.57651 28.3415 6.5756 28.3434C6.57469 28.3452 6.57422 28.3473 6.57422 28.3493C6.57422 28.3514 6.57469 28.3535 6.5756 28.3553C6.57651 28.3572 6.57783 28.3588 6.57944 28.3599C6.58105 28.3611 6.58291 28.3619 6.58486 28.3621C6.58681 28.3624 6.58879 28.3622 6.59063 28.3614V28.3614Z" fill="#FAC07F"/>
<path d="M12.6038 65.1573C12.5613 65.1959 12.5342 65.25 12.5277 65.3089H12.476C12.4247 65.3093 12.3757 65.331 12.3393 65.3693C12.3029 65.4076 12.282 65.4594 12.2812 65.5138C12.282 65.5683 12.3028 65.6203 12.3392 65.6589C12.3755 65.6974 12.4246 65.7194 12.476 65.7203C12.5365 65.7287 12.5979 65.7242 12.6567 65.707C12.7155 65.6898 12.7705 65.6603 12.8183 65.6202C12.8718 65.5565 12.9013 65.4741 12.9013 65.3888C12.9013 65.3034 12.8718 65.221 12.8183 65.1573C12.7898 65.1272 12.7513 65.1104 12.7111 65.1104C12.6709 65.1104 12.6323 65.1272 12.6038 65.1573V65.1573ZM12.5201 65.367C12.5201 65.367 12.5201 65.3767 12.5201 65.3799C12.5156 65.367 12.5186 65.3621 12.5201 65.367ZM12.5201 65.3928C12.5201 65.3928 12.5201 65.4041 12.5201 65.4089V65.3928Z" fill="#FAC07F"/>
<path d="M26.2574 23.2298C26.3213 23.241 26.3868 23.2475 26.4507 23.254C26.5314 23.254 26.6088 23.22 26.6658 23.1595C26.7229 23.0989 26.755 23.0169 26.755 22.9313C26.755 22.8457 26.7229 22.7637 26.6658 22.7032C26.6088 22.6427 26.5314 22.6087 26.4507 22.6087L26.3533 22.6167C26.3305 22.5928 26.3021 22.5756 26.2711 22.5667C26.2202 22.5545 26.1668 22.5621 26.1207 22.5882C26.0746 22.6142 26.0389 22.657 26.0201 22.7087C25.9864 22.7743 25.9737 22.8496 25.9839 22.9235C25.994 22.9974 26.0265 23.0658 26.0764 23.1184C26.1254 23.1732 26.1883 23.2118 26.2574 23.2298ZM26.4096 22.6861L26.44 22.7281C26.4294 22.7119 26.4172 22.6974 26.405 22.6813C26.4263 22.7006 26.4187 22.7022 26.405 22.6861H26.4096Z" fill="#FAC07F"/>
<path d="M13.0697 47.6183C13.1624 47.6323 13.2562 47.6366 13.3497 47.6312C13.4134 47.6312 13.4746 47.6043 13.5196 47.5565C13.5647 47.5087 13.5901 47.4439 13.5901 47.3763C13.5901 47.3087 13.5647 47.2439 13.5196 47.1961C13.4746 47.1483 13.4134 47.1214 13.3497 47.1214C13.2562 47.1152 13.1623 47.1195 13.0697 47.1343C13.0209 47.1503 12.9783 47.1824 12.948 47.226C12.9177 47.2695 12.9014 47.3222 12.9014 47.3763C12.9014 47.4304 12.9177 47.4831 12.948 47.5267C12.9783 47.5702 13.0209 47.6023 13.0697 47.6183V47.6183Z" fill="#FAC07F"/>
<path d="M7.05675 60.227C7.11582 60.2219 7.17094 60.1935 7.21114 60.1473C7.25133 60.1011 7.27365 60.0406 7.27365 59.9778C7.27365 59.9149 7.25133 59.8544 7.21114 59.8082C7.17094 59.762 7.11582 59.7336 7.05675 59.7285C6.99767 59.7336 6.94255 59.762 6.90235 59.8082C6.86216 59.8544 6.83984 59.9149 6.83984 59.9778C6.83984 60.0406 6.86216 60.1011 6.90235 60.1473C6.94255 60.1935 6.99767 60.2219 7.05675 60.227V60.227Z" fill="#FAC07F"/>
<path d="M7.607 48.8363C7.7135 48.8105 7.80175 48.6879 7.8763 48.6072L7.92651 48.5572L7.93564 48.5491L7.99954 48.4798C8.04525 48.4308 8.0709 48.3647 8.0709 48.2959C8.0709 48.227 8.04525 48.1609 7.99954 48.112C7.95301 48.0643 7.89082 48.0376 7.82609 48.0376C7.76137 48.0376 7.69917 48.0643 7.65264 48.112L7.58722 48.1797V48.1894L7.53701 48.241C7.46246 48.3217 7.34683 48.4152 7.32248 48.5282C7.31265 48.5701 7.31311 48.614 7.32381 48.6557C7.33451 48.6975 7.3551 48.7356 7.38362 48.7664C7.41213 48.7973 7.44763 48.82 7.48674 48.8322C7.52584 48.8444 7.56724 48.8458 7.607 48.8363V48.8363Z" fill="#FAC07F"/>
<path d="M8.45464 71.8743C8.52198 71.8689 8.5849 71.8368 8.63082 71.7843C8.67674 71.7318 8.70225 71.6628 8.70225 71.5912C8.70225 71.5196 8.67674 71.4507 8.63082 71.3982C8.5849 71.3457 8.52198 71.3135 8.45464 71.3081C8.3873 71.3135 8.32438 71.3457 8.27846 71.3982C8.23254 71.4507 8.20703 71.5196 8.20703 71.5912C8.20703 71.6628 8.23254 71.7318 8.27846 71.7843C8.32438 71.8368 8.3873 71.8689 8.45464 71.8743V71.8743Z" fill="#FAC07F"/>
<path d="M0.53086 78.6128H0.491302C0.42975 78.6202 0.369965 78.6394 0.31481 78.6693C0.298073 78.6789 0.296552 78.6693 0.305681 78.6693L0.266122 78.6806L0.218956 78.6951C0.169028 78.7109 0.123776 78.7401 0.087539 78.7798C0.0513017 78.8195 0.0252934 78.8685 0.0120069 78.9219C-0.00127963 78.9753 -0.00139901 79.0315 0.0116602 79.085C0.0247194 79.1385 0.0505194 79.1875 0.0865875 79.2274C0.124211 79.2657 0.170467 79.293 0.220924 79.3069C0.27138 79.3207 0.324346 79.3206 0.374743 79.3065C0.42514 79.2924 0.47128 79.2648 0.50874 79.2264C0.5462 79.188 0.573725 79.14 0.588677 79.0871L0.608456 79.0467L0.620628 79.0032V78.9774C0.644807 78.9268 0.660754 78.8723 0.667794 78.8161C0.667794 78.8015 0.667794 78.787 0.667794 78.7741C0.669943 78.7537 0.667997 78.7331 0.662084 78.7136C0.656172 78.6941 0.646427 78.6761 0.63349 78.6609C0.620554 78.6456 0.60472 78.6335 0.587031 78.6252C0.569341 78.6169 0.550198 78.6127 0.53086 78.6128V78.6128Z" fill="#FAC07F"/>
<path d="M0.337184 78.6611C0.326106 78.6625 0.315312 78.666 0.305232 78.6712H0.303711C0.314484 78.6665 0.325714 78.6631 0.337184 78.6611V78.6611Z" fill="#FAC07F"/>
<path d="M12.3648 88.6082C12.3864 88.625 12.4112 88.6365 12.4376 88.6418C12.4639 88.6471 12.491 88.6461 12.5169 88.6389L12.6523 88.6485C12.9566 88.6695 12.9566 88.1178 12.6523 88.1388L12.5154 88.1484C12.4895 88.1412 12.4624 88.1402 12.436 88.1455C12.4097 88.1508 12.3848 88.1623 12.3633 88.1791C12.3297 88.2024 12.3021 88.2343 12.283 88.2717C12.2639 88.3092 12.2539 88.3511 12.2539 88.3937C12.2539 88.4362 12.2639 88.4781 12.283 88.5156C12.3021 88.553 12.3297 88.5849 12.3633 88.6082H12.3648Z" fill="#FAC07F"/>
<path d="M2.70234 92.5978V92.3671C2.70234 92.2815 2.67028 92.1994 2.61322 92.1389C2.55615 92.0784 2.47875 92.0444 2.39805 92.0444C2.31807 92.0469 2.242 92.0816 2.18542 92.1416C2.12884 92.2016 2.09605 92.2823 2.09375 92.3671V92.5978C2.09375 92.6833 2.12581 92.7654 2.18288 92.8259C2.23994 92.8864 2.31734 92.9204 2.39805 92.9204C2.47875 92.9204 2.55615 92.8864 2.61322 92.8259C2.67028 92.7654 2.70234 92.6833 2.70234 92.5978Z" fill="#FAC07F"/>
<path d="M19.977 95.866C19.9648 95.854 19.9515 95.8432 19.9374 95.8337L19.8887 95.8079C19.8868 95.7404 19.8604 95.6763 19.8151 95.6288C19.7698 95.5814 19.709 95.5542 19.6453 95.553H19.5951C19.5382 95.5298 19.4759 95.5264 19.4171 95.5434C19.3755 95.553 19.3361 95.5714 19.3013 95.5975C19.2665 95.6235 19.2369 95.6567 19.2144 95.695C19.1919 95.7333 19.1768 95.7761 19.17 95.8207C19.1633 95.8653 19.165 95.9108 19.1752 95.9547C19.1918 96.0102 19.219 96.0615 19.2551 96.1053C19.2913 96.1491 19.3355 96.1847 19.3851 96.2096C19.4731 96.2696 19.5743 96.3046 19.6787 96.3111C19.7832 96.3176 19.8875 96.2954 19.9815 96.2467C20.0125 96.2267 20.0381 96.1986 20.0557 96.1649C20.0733 96.1313 20.0823 96.0934 20.0818 96.055C20.0814 96.0165 20.0714 95.9789 20.0531 95.9457C20.0347 95.9126 20.0085 95.8851 19.977 95.866V95.866ZM19.6149 96.0805L19.5616 96.1031C19.58 96.0973 19.5978 96.0897 19.6149 96.0805V96.0805Z" fill="#FAC07F"/>
<path d="M49.0051 93.2705C48.9268 93.2705 48.8518 93.3035 48.7964 93.3622C48.7411 93.4209 48.71 93.5005 48.71 93.5835C48.71 93.6665 48.7411 93.7461 48.7964 93.8048C48.8518 93.8635 48.9268 93.8964 49.0051 93.8964C49.384 93.8964 49.3855 93.2705 49.0051 93.2705Z" fill="#FAC07F"/>
<path d="M58.3276 88.3809C58.3244 88.3809 58.3213 88.3822 58.319 88.3846C58.3167 88.3871 58.3154 88.3903 58.3154 88.3938C58.3154 88.3972 58.3167 88.4005 58.319 88.4029C58.3213 88.4053 58.3244 88.4067 58.3276 88.4067C58.3413 88.4034 58.3413 88.3809 58.3276 88.3809Z" fill="#FAC07F"/>
<path d="M55.7644 86.1558C55.7202 86.1573 55.6772 86.1711 55.6395 86.1957C55.6019 86.2204 55.571 86.2549 55.5498 86.2961C55.5026 86.2935 55.4554 86.301 55.411 86.3183C55.3666 86.3356 55.326 86.3622 55.2916 86.3966C55.2572 86.431 55.2297 86.4724 55.2108 86.5183C55.1919 86.5643 55.182 86.6138 55.1816 86.6639C55.1825 86.7207 55.1955 86.7766 55.2196 86.8274C55.2438 86.8781 55.2785 86.9224 55.3211 86.9569C55.3637 86.9913 55.4131 87.0151 55.4657 87.0264C55.5182 87.0377 55.5725 87.0362 55.6244 87.022C55.7203 86.9913 55.8076 86.9359 55.8785 86.8607C55.9435 86.7956 55.9897 86.7121 56.0115 86.62C56.0333 86.528 56.0299 86.4313 56.0017 86.3413C55.9851 86.2881 55.9533 86.2418 55.9108 86.2086C55.8683 86.1754 55.8172 86.1569 55.7644 86.1558ZM55.5361 86.3171C55.5483 86.2897 55.5438 86.3058 55.5346 86.3203L55.5361 86.3171Z" fill="#FAC07F"/>
<path d="M62.989 75.7798C62.9859 75.7798 62.983 75.7811 62.9809 75.7835C62.9787 75.7858 62.9775 75.789 62.9775 75.7924C62.9775 75.7957 62.9787 75.7989 62.9809 75.8013C62.983 75.8036 62.9859 75.805 62.989 75.805C62.992 75.805 62.9949 75.8036 62.997 75.8013C62.9992 75.7989 63.0004 75.7957 63.0004 75.7924C63.0004 75.789 62.9992 75.7858 62.997 75.7835C62.9949 75.7811 62.992 75.7798 62.989 75.7798Z" fill="#FAC07F"/>
<path d="M58.7936 68.3672C58.7906 68.3672 58.7877 68.3685 58.7856 68.3709C58.7834 68.3732 58.7822 68.3764 58.7822 68.3798C58.7822 68.3831 58.7834 68.3863 58.7856 68.3887C58.7877 68.391 58.7906 68.3923 58.7936 68.3923C58.7967 68.3923 58.7996 68.391 58.8017 68.3887C58.8038 68.3863 58.805 68.3831 58.805 68.3798C58.805 68.3764 58.8038 68.3732 58.8017 68.3709C58.7996 68.3685 58.7967 68.3672 58.7936 68.3672V68.3672Z" fill="#FAC07F"/>
<path d="M62.5223 63.2018C62.5246 63.2008 62.5266 63.1992 62.528 63.197C62.5294 63.1949 62.5302 63.1923 62.5302 63.1897C62.5302 63.187 62.5294 63.1845 62.528 63.1823C62.5266 63.1801 62.5246 63.1785 62.5223 63.1776C62.5204 63.1768 62.5184 63.1766 62.5165 63.1769C62.5145 63.1771 62.5127 63.1779 62.5111 63.1791C62.5095 63.1803 62.5082 63.1818 62.5072 63.1837C62.5063 63.1855 62.5059 63.1876 62.5059 63.1897C62.5059 63.1917 62.5063 63.1938 62.5072 63.1956C62.5082 63.1975 62.5095 63.1991 62.5111 63.2003C62.5127 63.2015 62.5145 63.2022 62.5165 63.2025C62.5184 63.2027 62.5204 63.2025 62.5223 63.2018Z" fill="#FAC07F"/>
<path d="M44.848 84.0477C44.3916 84.693 43.891 85.3157 43.5289 86.0158C43.5214 86.0297 43.5188 86.0459 43.5216 86.0616C43.5245 86.0772 43.5326 86.0913 43.5445 86.1011C43.5563 86.1109 43.5712 86.1159 43.5862 86.115C43.6012 86.1142 43.6155 86.1076 43.6263 86.0965C44.1553 85.5012 44.641 84.8644 45.0793 84.1913C45.5829 83.467 46.0683 82.7249 46.5019 81.9522C47.3052 80.5165 47.9077 78.9307 47.8712 77.2368H47.8621C47.7906 78.9468 47.0511 80.5455 46.2128 81.9748C45.7959 82.6959 45.3243 83.3799 44.848 84.0477Z" fill="#FAC07F"/>
<path d="M47.5005 80.8004C47.0353 81.8679 46.5084 82.904 45.9227 83.9026C45.2974 84.9237 44.5062 85.7658 43.7729 86.6934C43.7151 86.7644 43.7866 86.8854 43.8718 86.8289C44.8288 86.2014 45.5713 85.1819 46.1814 84.1962C46.8299 83.1714 47.2998 82.0317 47.569 80.8311C47.5781 80.7907 47.5203 80.7585 47.5005 80.8004Z" fill="#FAC07F"/>
<path d="M15.1603 23.0349C15.2212 23.6576 15.2963 24.2755 15.3855 24.8885C15.7865 27.6134 16.4771 30.2814 17.4441 32.8415C19.3764 38.0038 22.3265 42.6724 25.864 46.7457C27.8312 49.0122 29.972 51.2078 32.3394 52.9952C32.2801 53.0517 32.2222 53.1114 32.166 53.1727C31.8137 53.5499 31.5223 53.9859 31.3033 54.4632C30.5897 53.6453 29.3832 53.7002 28.5494 54.3906C28.1232 54.7541 27.7624 55.1963 27.4843 55.6957C27.2673 55.5645 27.0305 55.4739 26.7845 55.4279C26.3379 55.3372 25.8772 55.3638 25.4425 55.5053C25.3969 55.0456 25.0789 54.5487 24.8157 54.26C24.4395 53.8565 23.9567 53.5836 23.4311 53.4776C22.5426 53.2824 21.403 53.4517 20.7959 54.2406C20.5099 54.6116 20.3395 55.2343 20.6027 55.665C20.6177 55.6908 20.6402 55.7108 20.6668 55.7219C20.6934 55.733 20.7226 55.7347 20.7502 55.7267C20.7778 55.7187 20.8022 55.7015 20.8197 55.6775C20.8373 55.6536 20.8471 55.6244 20.8476 55.5941C20.8568 55.3424 20.8066 55.1101 20.8902 54.8584C20.9629 54.6568 21.086 54.4801 21.2463 54.3471C21.6523 54.0281 22.1453 53.8582 22.6506 53.8631C23.1988 53.84 23.7394 54.0052 24.1919 54.3342C24.4172 54.5046 24.6051 54.7248 24.7426 54.9794C24.8396 55.2083 24.9219 55.4438 24.9891 55.6844C24.3273 56.0232 23.6746 56.6346 23.5528 57.3815C23.5462 57.4061 23.5483 57.4325 23.5588 57.4557C23.5692 57.4788 23.5873 57.4971 23.6096 57.507C23.6319 57.5169 23.6569 57.5178 23.6798 57.5096C23.7027 57.5013 23.7219 57.4844 23.7339 57.4621C23.9834 57.1185 24.201 56.7669 24.5266 56.4942C24.8326 56.2381 25.1823 56.0469 25.5566 55.9312C25.918 55.8143 26.301 55.7933 26.6719 55.8699C26.8713 55.915 27.0631 55.9917 27.2409 56.0974L27.2683 56.1135C26.9885 56.7127 26.7922 57.3517 26.6856 58.0106C26.6156 58.4414 26.5152 59.1286 26.6506 59.6496C26.1434 59.8368 25.6444 60.0476 25.1534 60.282C21.8846 61.8388 19.1112 64.3664 17.1687 67.5591C15.2303 70.7855 14.322 74.6314 14.7678 78.4401C14.8685 79.2829 15.0261 80.1169 15.2395 80.9358C13.8001 81.9989 12.373 83.0926 10.9793 84.2331L10.9458 83.9879L10.3236 84.6671L9.44262 84.5058L9.79712 85.2204C8.77012 86.0964 7.76594 86.9949 6.79524 87.9419C5.61913 89.0824 4.47193 90.2842 3.52101 91.6522C2.91242 92.5121 2.23383 93.6187 2.30382 94.7431C2.41185 96.5596 4.61039 96.3176 5.80323 96.1546C8.69405 95.761 11.5316 94.7576 14.2748 93.7349C16.5571 92.8912 18.8028 91.9603 21.0302 90.9827C23.0082 92.9299 25.3923 94.4269 28.029 95.0899C29.7377 95.5185 31.5099 95.581 33.2416 95.2739C34.9974 94.9641 36.6604 94.2414 38.2427 93.3912C41.164 91.8216 43.8372 89.6164 45.7193 86.7481C47.6982 83.6886 48.6126 79.995 48.3058 76.2994C48.2876 76.0671 48.2647 75.8364 48.2389 75.6058L48.6953 75.2718C51.3518 73.3231 53.9384 71.2388 56.3195 68.9287C57.8699 67.4188 59.3837 65.7943 60.5538 63.9278C61.1441 62.9841 61.8455 61.7468 61.6964 60.5595C61.6732 60.3601 61.6165 60.1666 61.529 59.9884C61.3846 59.7179 61.1667 59.4998 60.9037 59.3625V59.3125C60.9336 59.2911 60.9582 59.2623 60.9752 59.2286C61.0001 59.1789 61.0099 59.1223 61.003 59.0665C60.9962 59.0107 60.9732 58.9585 60.9372 58.9172C60.8849 58.873 60.8231 58.8431 60.7573 58.8301C60.6915 58.8172 60.6237 58.8216 60.5598 58.843C60.494 58.8664 60.4336 58.9046 60.3829 58.955C60.3322 59.0054 60.2924 59.0668 60.2662 59.135C60.1118 59.1023 59.9559 59.078 59.7991 59.0624C58.7645 58.9608 57.6979 59.1625 56.6877 59.3851C53.7603 60.0304 50.9213 61.1467 48.1309 62.2662C46.5242 62.9115 44.9281 63.5858 43.3336 64.2602L43.3199 64.2682C43.1221 64.037 42.9193 63.8122 42.7113 63.5939C40.4656 61.2467 37.6052 59.5706 34.4953 58.9495C33.2699 58.7067 32.0199 58.634 30.7768 58.7333C30.9678 58.2916 31.2602 57.9078 31.6273 57.617C32.1538 57.2444 32.6924 57.3073 33.2143 57.6444C33.4805 57.8154 33.6905 57.3992 33.4516 57.2121C33.1901 57.0068 32.8792 56.8841 32.5547 56.8584C32.2302 56.8327 31.9055 56.905 31.6182 57.0669C31.5695 56.833 31.4737 56.6088 31.4356 56.3652C31.3789 56.0101 31.3888 55.6467 31.4645 55.2956C31.4858 55.1956 31.5102 55.0988 31.5391 55.0036C31.5549 54.9866 31.5669 54.966 31.5743 54.9434C31.5816 54.9208 31.5842 54.8967 31.5817 54.873C31.7826 54.3134 32.0968 53.8073 32.5022 53.3904C33.0112 52.8462 33.6419 52.4477 34.3356 52.2322C34.6685 52.1305 35.0149 52.0869 35.3611 52.1031C35.5132 52.1112 35.6654 52.1499 35.8175 52.158C35.9113 52.1526 36.0045 52.1386 36.0959 52.116C35.7916 52.821 35.5406 54.0873 36.3424 54.4197C36.3715 54.4277 36.402 54.4276 36.431 54.4193C36.46 54.411 36.4864 54.3948 36.5077 54.3722C36.5289 54.3497 36.5442 54.3217 36.5521 54.291C36.5599 54.2602 36.56 54.2278 36.5524 54.197C36.4428 53.8857 36.2861 53.634 36.2846 53.2888C36.2927 52.9063 36.3866 52.5314 36.5585 52.1951C36.8628 51.5837 37.4181 50.9835 38.1241 51.0965C38.1481 51.1022 38.1732 51.0988 38.195 51.0869C38.2169 51.075 38.2342 51.0553 38.2437 51.0313C38.2533 51.0073 38.2547 50.9805 38.2476 50.9556C38.2404 50.9306 38.2253 50.9091 38.2047 50.8948C37.4196 50.3157 36.5524 51.232 36.1887 51.9208C36.172 51.9531 36.1553 51.987 36.1385 52.0241C36.0624 51.9307 35.9686 51.8554 35.8632 51.8031C35.675 51.7441 35.4796 51.7153 35.2835 51.7176C34.903 51.708 34.5235 51.7624 34.1591 51.8789C33.5806 52.0641 33.0427 52.3696 32.5767 52.7774C30.6414 50.961 28.6802 49.1913 26.8894 47.2071C25.0775 45.2082 23.4203 43.0579 21.934 40.7769C19.0219 36.2793 16.8705 31.2235 15.9226 25.8451C15.7383 24.7985 15.6037 23.7426 15.5194 22.6816L15.1603 23.0349ZM54.1209 64.044C54.1574 64.0617 54.1316 64.0601 54.1209 64.044V64.044ZM54.1042 64.1553C53.9673 64.5441 53.6067 65.0248 53.3191 65.3894C52.7548 66.0923 52.1576 66.7647 51.5299 67.4043C50.1605 68.8271 48.7075 70.1677 47.218 71.4518C46.623 69.5046 45.7507 67.6653 44.6315 65.9976C46.5506 65.3217 48.5068 64.7706 50.4892 64.3473C51.4386 64.1392 52.4184 63.9278 53.3921 63.9246C53.636 63.913 53.8798 63.9508 54.1103 64.0359V64.0359C54.1057 64.0617 54.1285 64.0827 54.1042 64.1521V64.1553ZM27.0492 59.0318C27.0468 58.6416 27.0866 58.2524 27.1679 57.8719C27.3292 57.0821 27.6318 56.3324 28.0595 55.6634C28.4185 55.1085 28.9161 54.5568 29.546 54.3729C30.1759 54.189 30.6566 54.5164 31.142 54.8778C31.1003 55.0042 31.0653 55.1329 31.037 55.2634C30.9168 55.8312 30.8712 56.8169 31.285 57.3008C31.0804 57.4763 30.9037 57.6854 30.7616 57.9203C30.6059 58.1718 30.5175 58.4634 30.506 58.764C29.343 58.8759 28.195 59.1226 27.0827 59.4996C27.0705 59.3415 27.0507 59.1834 27.0492 59.0318ZM15.8572 72.0825C15.8374 72.3761 15.8283 72.673 15.8268 72.9666C15.8176 74.1894 15.9378 75.4025 15.9698 76.6221C15.9698 76.6311 15.9731 76.6397 15.9791 76.646C15.9851 76.6524 15.9933 76.6559 16.0017 76.6559C16.0102 76.6559 16.0183 76.6524 16.0243 76.646C16.0303 76.6397 16.0337 76.6311 16.0337 76.6221C16.0565 75.4735 15.9576 74.3249 15.9561 73.1763C15.9474 72.583 15.9805 71.9898 16.055 71.4018C16.1904 70.9662 16.3456 70.5339 16.5114 70.1112C17.1593 68.5199 18.0235 67.0377 19.0766 65.712C17.6647 68.0657 17.0257 70.9807 16.9116 73.707C16.9116 73.7925 17.0302 73.7909 17.0363 73.707C17.1282 71.918 17.466 70.1529 18.039 68.4674C18.3501 67.5931 18.7366 66.7512 19.1938 65.9524C19.1695 66.0395 19.1466 66.1282 19.1253 66.217C18.951 66.9261 18.8143 67.6451 18.7161 68.3706C18.51 69.7315 18.3866 71.105 18.3463 72.4826C18.3471 72.4948 18.3518 72.5064 18.3596 72.5154C18.3675 72.5244 18.378 72.5302 18.3894 72.5319C18.4009 72.5336 18.4125 72.5311 18.4224 72.5247C18.4323 72.5184 18.4398 72.5087 18.4437 72.4971C18.7115 71.1679 18.7708 69.7853 18.9641 68.4432C19.0629 67.7559 19.174 67.0703 19.3307 66.3944C19.4296 65.9669 19.5559 65.5507 19.6776 65.1313C19.7735 64.97 19.8724 64.8199 19.9713 64.6651C20.3729 64.2295 20.7959 63.8149 21.2356 63.4229C20.551 64.2585 20.2314 65.5007 20.0032 66.5122C19.6746 67.977 19.5361 69.4788 19.4053 70.9743C19.4053 71.042 19.5072 71.0582 19.5179 70.9904C19.7233 69.5772 19.8815 68.1592 20.1873 66.7654C20.4931 65.3716 20.9389 63.9617 21.861 62.8938L21.9127 62.8534C21.7975 63.2016 21.6995 63.5559 21.619 63.9149C21.4851 64.4521 21.3649 64.9942 21.2676 65.5394C21.082 66.5928 20.9526 67.6495 20.8492 68.7158C20.8492 68.7561 20.9115 68.7658 20.9176 68.7255C21.0865 67.6817 21.2661 66.6364 21.4791 65.6007C21.5856 65.0797 21.6921 64.5586 21.8168 64.0424C21.9264 63.5794 22.0816 63.1212 22.1652 62.6518C22.4772 62.4114 22.7951 62.1807 23.1207 61.963C23.101 62.0001 23.0812 62.0356 23.0629 62.0727C22.799 62.6134 22.5855 63.1802 22.4254 63.7649C22.0998 64.8828 21.9157 66.0395 21.6951 67.1849C21.6952 67.2038 21.7011 67.2222 21.7119 67.2372C21.7228 67.2523 21.7379 67.2632 21.7551 67.2683C21.7723 67.2734 21.7906 67.2724 21.8072 67.2655C21.8239 67.2586 21.8379 67.2462 21.8473 67.23C22.1303 66.1976 22.3265 65.141 22.608 64.1069C22.7542 63.5317 22.9456 62.9705 23.1801 62.4292C23.3162 62.1409 23.4772 61.8666 23.6609 61.6097C23.8881 61.4677 24.1188 61.3317 24.3531 61.2015C24.1841 61.4179 24.0467 61.6598 23.9454 61.9194C23.7346 62.4328 23.5676 62.9651 23.4463 63.51C23.1907 64.565 23.0264 65.6443 22.8606 66.7187C22.8585 66.7352 22.8621 66.7521 22.8707 66.766C22.8794 66.78 22.8925 66.7902 22.9077 66.7947C22.9229 66.7992 22.9391 66.7978 22.9534 66.7906C22.9677 66.7835 22.979 66.7711 22.9853 66.7558C23.3155 65.7991 23.4418 64.757 23.6654 63.7697C23.7797 63.2417 23.9297 62.723 24.1143 62.2178C24.2921 61.7987 24.5001 61.3948 24.7366 61.0096C24.7384 61.0027 24.7384 60.9954 24.7366 60.9886C25.0774 60.8079 25.4243 60.6369 25.7772 60.4804C25.7483 60.5192 25.7225 60.5563 25.6966 60.5934C25.4726 60.9141 25.2794 61.2578 25.12 61.6194C24.7743 62.4283 24.5111 63.2741 24.3349 64.1424C23.9652 65.7991 23.8297 67.4946 23.5833 69.1739C23.5741 69.2352 23.6593 69.2643 23.6746 69.1998C24.0291 67.6317 24.2223 66.0266 24.5738 64.457C24.7552 63.596 25.0098 62.7542 25.3345 61.942C25.4759 61.5935 25.6448 61.2584 25.8396 60.9402C25.9918 60.6998 26.2352 60.4772 26.3828 60.2255C26.5243 60.1675 26.6673 60.1126 26.8103 60.0642C26.8195 60.0771 26.8316 60.0884 26.8408 60.0997C26.5486 60.5079 26.3843 61.0273 26.2322 61.5048C26.0161 62.1969 25.8868 62.9115 25.7133 63.6165C25.7112 63.6306 25.7141 63.6451 25.7214 63.6571C25.7287 63.6691 25.7399 63.6779 25.7529 63.6817C25.7659 63.6855 25.7798 63.6841 25.7918 63.6777C25.8039 63.6713 25.8133 63.6604 25.8183 63.6471C26.0268 63.0115 26.1972 62.3646 26.3828 61.7226C26.5439 61.1937 26.7475 60.6804 26.9914 60.1884C27.01 60.1854 27.0273 60.1766 27.0411 60.1631C27.0549 60.1496 27.0647 60.132 27.069 60.1126C27.0766 60.0739 27.0812 60.0336 27.0857 59.9933L27.1009 59.961C27.2972 59.8916 27.492 59.8271 27.6898 59.7674C27.5387 60.001 27.4102 60.2501 27.3063 60.5111C27.0234 61.1867 26.8003 61.8888 26.6399 62.6082C26.3113 63.9649 26.1302 65.3507 25.8944 66.7203C25.8923 66.7344 25.8951 66.7489 25.9024 66.7609C25.9097 66.7729 25.9209 66.7817 25.9339 66.7855C25.9469 66.7893 25.9608 66.7878 25.9729 66.7815C25.985 66.7751 25.9944 66.7642 25.9994 66.7509C26.3661 65.5088 26.5547 64.2053 26.8484 62.9422C27.0035 62.2421 27.2027 61.5539 27.4448 60.8821C27.5461 60.6011 27.6724 60.331 27.8221 60.0755C27.918 59.9142 28.0625 59.7803 28.1675 59.6271C28.4277 59.5561 28.6878 59.4932 28.9511 59.4367C28.8226 59.6192 28.7153 59.8174 28.6315 60.0271C28.4451 60.4784 28.3009 60.9479 28.201 61.429C27.988 62.3695 27.8875 63.3358 27.6593 64.2714C27.6411 64.3457 27.7506 64.4021 27.7826 64.3263C28.1188 63.5116 28.2162 62.5937 28.3912 61.7323C28.4806 61.2515 28.6073 60.7794 28.77 60.3207C28.9164 59.9847 29.0938 59.6648 29.2995 59.3657C29.4912 59.3286 29.6844 59.2963 29.8776 59.2689C29.2295 60.3756 29.0697 61.7807 28.8932 63.0422C28.8878 63.0636 28.8906 63.0864 28.901 63.1056C28.9114 63.1248 28.9286 63.1389 28.9488 63.1446C28.969 63.1504 28.9905 63.1474 29.0086 63.1364C29.0267 63.1254 29.0399 63.1071 29.0454 63.0857C29.4166 61.8049 29.4805 60.3675 30.1941 59.2254C30.4208 59.1979 30.6506 59.1754 30.8757 59.1592C30.8453 60.9112 30.786 62.6373 30.614 64.3844C30.614 64.4392 30.6886 64.4457 30.7023 64.3957C31.1907 62.7195 31.0157 60.8837 30.9762 59.1528C31.1739 59.1383 31.3733 59.1302 31.5711 59.127C31.831 60.0854 32.0142 61.0654 32.1188 62.0565C32.2207 63.0486 32.2222 64.0472 32.2557 65.0426C32.2586 65.0663 32.2695 65.0881 32.2865 65.1039C32.3034 65.1197 32.3252 65.1284 32.3478 65.1284C32.3703 65.1284 32.3921 65.1197 32.4091 65.1039C32.426 65.0881 32.4369 65.0663 32.4398 65.0426C32.6652 63.0416 32.4373 61.0126 31.7749 59.1237C31.9073 59.1237 32.0412 59.1237 32.1736 59.1237C32.2792 59.5985 32.4134 60.0657 32.5752 60.5224C32.7274 61.0241 32.8552 61.5355 32.9662 62.0485C33.2051 63.1374 33.231 64.2166 33.3177 65.3216C33.3253 65.4313 33.4805 65.4684 33.5079 65.3491C33.7529 64.2698 33.5824 63.068 33.3375 62.0049C33.2051 61.4521 33.0379 60.9094 32.8369 60.3804C32.6952 59.9405 32.5053 59.5198 32.2709 59.127H32.3409C32.5981 59.1366 32.8537 59.156 33.1017 59.1818C34.2017 61.5822 35.0172 64.1182 34.8468 66.8267C34.848 66.8444 34.8549 66.8612 34.8663 66.8741C34.8777 66.8871 34.893 66.8955 34.9095 66.898C34.9261 66.9004 34.943 66.8968 34.9573 66.8876C34.9716 66.8785 34.9826 66.8644 34.9883 66.8477C35.25 65.483 35.0994 64.0859 34.7418 62.7567C34.416 61.4884 33.8985 60.2844 33.2097 59.1915C33.4273 59.2157 33.6433 59.2447 33.8594 59.2786C34.2032 59.9755 34.5668 60.6611 34.8681 61.3758C35.1967 62.1582 35.4097 62.9809 35.7232 63.7649C35.7612 63.8585 35.9103 63.8101 35.9042 63.7133C35.8464 62.8906 35.5026 62.0743 35.1754 61.337C34.8726 60.629 34.51 59.9514 34.0921 59.3125C34.3173 59.3512 34.5395 59.3964 34.7616 59.4464C35.04 60.1755 35.3808 60.8805 35.6441 61.6194C35.947 62.4691 36.201 63.3375 36.4048 64.2198C36.7973 65.9729 37.0487 67.7581 37.1564 69.5563C37.1564 69.576 37.1638 69.5948 37.1769 69.6087C37.19 69.6227 37.2078 69.6305 37.2264 69.6305C37.245 69.6305 37.2628 69.6227 37.2759 69.6087C37.289 69.5948 37.2964 69.576 37.2964 69.5563C37.409 67.7495 37.1686 65.9314 36.7456 64.1827C36.5296 63.2823 36.2608 62.3971 35.9407 61.5322C35.6978 60.8292 35.3921 60.1523 35.0279 59.5109C35.3007 59.5776 35.571 59.6529 35.8388 59.7367C36.0655 60.1578 36.3211 60.5579 36.5204 60.9967C36.7814 61.573 37.009 62.1656 37.2021 62.7712C37.3877 63.3455 37.5444 63.9278 37.6844 64.515C37.8106 65.0409 37.8989 65.5862 38.0678 66.1008C38.1149 66.2428 38.3416 66.2315 38.331 66.0621C38.2797 65.5037 38.1809 64.9513 38.0358 64.4118C37.8837 63.7665 37.7148 63.139 37.5094 62.5179C37.3327 61.9306 37.1061 61.3615 36.8323 60.8176C36.6557 60.4654 36.4401 60.1366 36.1903 59.8384C36.4307 59.9174 36.6665 59.9997 36.9023 60.0981C36.9093 60.1093 36.9181 60.1191 36.9282 60.1271C37.4133 60.4988 37.82 60.9734 38.1226 61.5209C38.4489 62.1656 38.691 62.8543 38.8422 63.5681C39.1906 65.0797 39.2987 66.6332 39.4021 68.1738C39.4241 68.8631 39.4804 69.5508 39.571 70.2338C39.5877 70.3322 39.714 70.2967 39.7231 70.2128C39.8753 68.7819 39.7505 67.2672 39.5938 65.8443C39.4249 64.3215 39.1587 62.7212 38.4253 61.3758C38.2541 61.0523 38.045 60.7531 37.803 60.4853C38.1819 60.6627 38.5531 60.8579 38.9168 61.066C39.7247 61.9662 40.1689 63.2922 40.5265 64.4215C40.9547 65.7662 41.2833 67.1443 41.5094 68.5432C41.5276 68.6545 41.6996 68.6287 41.6965 68.5158C41.6402 67.0171 41.2233 65.5217 40.7319 64.123C40.4772 63.3535 40.1473 62.6144 39.7475 61.9178C39.6299 61.7153 39.5019 61.5198 39.3641 61.3322L39.5299 61.4354C39.5284 61.4387 39.5277 61.4423 39.5277 61.4459C39.5277 61.4496 39.5284 61.4531 39.5299 61.4564C39.6273 61.7581 39.9042 62.0291 40.0792 62.2856C40.3096 62.6258 40.5214 62.9796 40.7136 63.3455C41.1613 64.1916 41.5483 65.0722 41.8715 65.9798C42.1894 66.8545 42.4482 67.7521 42.6459 68.6658C42.7326 69.0788 42.8087 69.495 42.865 69.9144C42.9122 70.2693 42.9046 70.6533 42.9806 71.0033C42.9889 71.0336 43.0061 71.0602 43.0299 71.0792C43.0536 71.0982 43.0825 71.1084 43.1123 71.1084C43.142 71.1084 43.1709 71.0982 43.1946 71.0792C43.2184 71.0602 43.2357 71.0336 43.2439 71.0033C43.3397 70.6597 43.2971 70.2387 43.2652 69.8854C43.2242 69.4513 43.1582 69.0203 43.0674 68.5948C42.8621 67.6308 42.5817 66.6865 42.229 65.7717C41.8928 64.8675 41.4814 63.9967 40.9997 63.1696C40.7835 62.8031 40.5473 62.4502 40.2922 62.113C40.2085 62.0017 40.1142 61.8726 40.0092 61.7532C40.2496 61.9178 40.4864 62.0899 40.7197 62.2695C40.9419 62.4389 41.1579 62.6163 41.3709 62.7986C41.5231 63.1535 41.7087 63.4987 41.8639 63.8552C42.1317 64.4747 42.3766 65.1055 42.6109 65.7395C42.8372 66.3384 43.0267 66.9521 43.1784 67.5769C43.3062 68.1157 43.358 68.6642 43.4675 69.203C43.4732 69.2234 43.4849 69.2412 43.501 69.2539C43.517 69.2666 43.5365 69.2735 43.5565 69.2735C43.5765 69.2735 43.596 69.2666 43.6121 69.2539C43.6281 69.2412 43.6399 69.2234 43.6455 69.203C43.7855 68.7045 43.6699 68.1076 43.5649 67.6124C43.4097 66.9382 43.202 66.2789 42.9441 65.641C42.7076 65.0312 42.4336 64.4384 42.124 63.8665C41.9871 63.6133 41.8547 63.3535 41.7102 63.1019C41.9536 63.3234 42.1905 63.552 42.4207 63.7875C42.5607 64.0343 42.7585 64.2634 42.8985 64.5086C43.0759 64.821 43.236 65.1442 43.3778 65.4765C43.6805 66.2156 43.9139 66.9845 44.0746 67.7721C44.4112 69.312 44.5079 70.8999 44.3606 72.4729C44.3485 72.5971 44.5417 72.6246 44.566 72.502C44.881 70.8888 44.7638 69.2207 44.3789 67.6269C44.1871 66.8419 43.9189 66.0801 43.5786 65.3539C43.4888 65.1619 43.393 64.9748 43.2925 64.7909C43.5705 65.1781 43.8484 65.5663 44.1263 65.9556C44.1483 65.9893 44.1765 66.018 44.2092 66.0399C44.2418 66.0618 44.2784 66.0765 44.3165 66.0831L44.3408 66.1186C44.4047 66.2799 44.4641 66.4412 44.5189 66.6138C44.7075 67.2058 44.8658 67.8108 45.0133 68.4157C45.2659 69.4546 45.4241 70.521 45.7056 71.5518C45.7107 71.5707 45.7221 71.587 45.7376 71.5978C45.7531 71.6086 45.7718 71.6132 45.7902 71.6106C45.8086 71.6081 45.8255 71.5987 45.8379 71.584C45.8503 71.5694 45.8574 71.5505 45.8578 71.5308C45.8719 71.0661 45.8206 70.6018 45.7056 70.1532C45.5672 69.4772 45.4013 68.8045 45.2294 68.1383C45.1259 67.7463 45.0179 67.3543 44.8947 66.9671C45.613 68.1416 46.2098 69.3948 46.6748 70.7049C46.7864 71.0168 46.8878 71.3313 46.9791 71.6486C46.4892 72.068 45.9947 72.4821 45.4957 72.8908C40.3546 77.1125 34.8133 80.8293 28.8248 83.5378C26.0968 84.7736 23.3033 85.8544 20.4764 86.8094C19.9408 86.9901 19.4043 87.167 18.8667 87.3401C17.5845 85.42 16.5975 83.2965 15.9424 81.0487C15.0985 78.1313 15.0689 75.0173 15.8572 72.0825V72.0825ZM41.628 77.1899C43.606 75.8397 45.447 74.2862 47.2819 72.7278C47.3427 72.9709 47.4005 73.2145 47.4553 73.4586C47.4593 73.4827 47.4697 73.5052 47.4853 73.5232C47.501 73.5412 47.5212 73.5541 47.5436 73.5602C47.5436 73.7425 47.5436 73.9232 47.5436 74.1039C46.795 74.7233 46.051 75.3525 45.3192 75.9945C45.3085 76.0042 45.3192 76.0252 45.3344 76.0155C46.0632 75.4202 46.8026 74.8395 47.5451 74.2636C47.5463 74.4984 47.5625 74.7329 47.5938 74.9653C47.6075 75.0621 47.6196 75.1589 47.6318 75.2573C47.5983 75.338 47.5679 75.4186 47.5375 75.5057L47.081 75.8284C47.0983 75.7685 47.1125 75.7076 47.1236 75.6461C47.1297 75.622 47.1274 75.5963 47.117 75.5739C47.1066 75.5514 47.0889 75.5337 47.0672 75.5241C47.0455 75.5144 47.0212 75.5135 46.9988 75.5214C46.9765 75.5293 46.9576 75.5455 46.9456 75.567C46.8524 75.735 46.7725 75.9109 46.7068 76.0929C46.3193 76.365 45.9298 76.6339 45.5383 76.8995C45.5422 76.8863 45.5452 76.8729 45.5474 76.8592C45.5518 76.8402 45.5503 76.8202 45.5431 76.8022C45.5359 76.7842 45.5234 76.7692 45.5075 76.7594C45.4915 76.7495 45.473 76.7455 45.4547 76.7478C45.4364 76.7501 45.4192 76.7586 45.4059 76.7721C45.2955 76.8868 45.2058 77.0218 45.1411 77.1706L44.1948 77.8062C44.1747 77.7932 44.1506 77.789 44.1277 77.7945C44.1047 77.7999 44.0846 77.8145 44.0715 77.8352L44.0229 77.9191C42.8057 78.7214 41.5819 79.5038 40.3515 80.2663C36.5356 82.6237 32.6305 84.8101 28.6361 86.8255C26.2139 88.0548 23.7689 89.2211 21.301 90.3246C21.0257 90.0471 20.7609 89.7599 20.5023 89.4663C22.2352 88.7517 23.9515 87.9919 25.6601 87.2337C26.3691 86.911 27.0735 86.5884 27.7765 86.2561C28.1509 86.0529 28.536 85.8725 28.9298 85.7157C28.9937 85.6947 28.9663 85.5866 28.9008 85.6092C27.9986 85.9109 27.1238 86.2996 26.2443 86.6739C24.5707 87.3837 22.9214 88.1355 21.2463 88.834L20.2938 89.226C19.9013 88.7635 19.5285 88.2796 19.1755 87.7741C21.6474 86.9869 24.0879 86.0942 26.4969 85.0962C29.3791 83.9325 32.1818 82.5585 34.8848 80.9842C38.078 79.0781 41.1554 76.9617 44.0989 74.6475C45.1275 73.842 46.1418 73.0139 47.1419 72.1632C47.1754 72.2777 47.2058 72.3939 47.2362 72.51C45.3861 74.0877 43.5664 75.709 41.6174 77.1464C41.587 77.1689 41.6067 77.2044 41.628 77.1899ZM10.4605 89.1824C10.4434 89.142 10.436 89.0976 10.4392 89.0534C10.4682 88.8744 10.5336 88.7043 10.6309 88.5549C10.8964 88.1055 11.2076 87.6884 11.559 87.3111C12.531 86.2397 13.5694 85.2383 14.6674 84.3138C15.0985 83.9428 15.5341 83.5782 15.9743 83.22C16.5719 84.7477 17.3266 86.2008 18.2246 87.5531C16.7031 88.0258 15.1649 88.4549 13.613 88.8033C12.8866 88.9779 12.1516 89.1093 11.4114 89.1969C11.1771 89.2257 10.9412 89.2359 10.7054 89.2276C10.6434 89.2285 10.5815 89.2209 10.5213 89.205C10.5002 89.2005 10.4797 89.1929 10.4605 89.1824V89.1824ZM17.365 92.0007C14.322 93.2428 11.2151 94.4205 8.0322 95.2029C6.98514 95.4867 5.91554 95.6671 4.83709 95.7417C4.27262 95.7675 3.48449 95.7852 3.05087 95.419C2.96443 95.3321 2.89536 95.2276 2.84779 95.1117C2.80022 94.9959 2.77511 94.8711 2.77396 94.7447C2.76428 94.2792 2.86415 93.8185 3.06456 93.4042C3.62447 92.1136 4.56475 91.015 5.47763 90.0051C5.95842 89.476 6.4529 88.9609 6.96108 88.4597C6.95951 88.494 6.96311 88.5283 6.97173 88.5613C6.99189 88.6302 7.03232 88.6903 7.08708 88.733C7.14184 88.7757 7.20806 88.7986 7.27603 88.7985C7.3471 88.7964 7.41786 88.7878 7.48751 88.7727C7.5427 88.7581 7.59122 88.7232 7.62445 88.6743C7.65943 88.6285 7.67922 88.5718 7.68074 88.5129C7.6785 88.4639 7.66603 88.4159 7.64422 88.3726C7.64172 88.3674 7.63866 88.3625 7.6351 88.3581C7.64727 88.3138 7.64727 88.2668 7.6351 88.2226C7.62076 88.1674 7.58909 88.119 7.54533 88.0854C7.50515 88.0502 7.45444 88.0313 7.40231 88.0322C8.07075 87.3869 8.75491 86.7632 9.45479 86.1609L9.43805 86.1964L10.3175 86.0351L10.4072 86.1335C9.58824 86.8631 8.81661 87.6505 8.09763 88.4904C7.15126 89.5857 6.18817 90.7988 5.67695 92.2007C5.45938 92.7927 5.31788 93.4574 5.54002 94.0688C5.54485 94.0804 5.55346 94.0899 5.5643 94.0954C5.57513 94.1009 5.58746 94.1021 5.59906 94.0988C5.61066 94.0954 5.62075 94.0878 5.6275 94.0773C5.63425 94.0668 5.63722 94.054 5.63587 94.0414C5.43047 92.7605 6.09231 91.5328 6.76785 90.5262C7.60162 89.2695 8.62254 88.1467 9.65867 87.0837C9.9371 86.7981 10.2155 86.5174 10.4894 86.2303L10.9352 86.7142L11.0645 85.7754L11.8648 85.3559L11.063 84.9381L11.0463 84.8171C11.9272 84.0976 12.8218 83.3959 13.7165 82.707C14.2642 82.2855 14.815 81.8703 15.3688 81.4617C15.4936 81.8918 15.6325 82.3193 15.7857 82.7441C14.6841 83.6314 13.61 84.559 12.5906 85.5463C11.7264 86.3787 10.7283 87.2934 10.1684 88.4016C9.94166 88.8501 9.80777 89.5551 10.4118 89.7051C10.9002 89.8277 11.4631 89.7148 11.9485 89.6438C14.0147 89.3389 16.0565 88.7469 18.0542 88.1371L18.5107 87.9935C18.7673 88.3635 19.0325 88.7232 19.3064 89.0727C19.4159 89.2147 19.5285 89.3534 19.6442 89.4922C18.2748 90.039 16.9055 90.5617 15.5225 91.0344C13.8975 91.5893 12.233 92.1426 10.535 92.3636C9.7104 92.4717 8.11284 92.7024 7.8907 91.5038C7.8907 91.4941 7.87701 91.5038 7.87549 91.5038C7.80854 92.5314 9.04703 92.6621 9.74843 92.6621C11.3262 92.6621 12.9344 92.1572 14.4361 91.6942C16.2619 91.1279 18.0649 90.4585 19.848 89.7357C20.1047 90.038 20.3699 90.3315 20.6438 90.6165C19.5605 91.0887 18.4665 91.5495 17.3619 91.9991L17.365 92.0007ZM47.7398 76.4656C47.8005 77.4236 47.7842 78.3853 47.6912 79.3403C47.5196 81.0699 47.0623 82.7539 46.3401 84.3154C46.0465 84.9528 45.7126 85.5683 45.3405 86.1577C44.3606 87.0304 43.2469 87.708 42.1377 88.3903C42.0601 88.4371 42.1286 88.5517 42.2062 88.5129C42.9517 88.1774 43.8083 87.8064 44.5478 87.2982C44.353 87.5563 44.1502 87.8085 43.9392 88.0548C43.1221 88.421 42.3873 89.0227 41.6067 89.4631C41.153 89.7286 40.6774 89.9494 40.1857 90.1229C39.7536 90.2713 39.2728 90.3052 38.8544 90.5068C38.8472 90.5114 38.8415 90.5181 38.8379 90.5261C38.8343 90.534 38.833 90.543 38.8341 90.5517C38.8353 90.5605 38.8388 90.5687 38.8443 90.5753C38.8498 90.582 38.857 90.5868 38.865 90.5891C39.2971 90.6988 39.7779 90.5133 40.1902 90.3584C40.6377 90.1817 41.0742 89.9754 41.4972 89.7406C42.1864 89.378 42.8577 88.9785 43.5086 88.5436C43.2996 88.7705 43.0861 88.9926 42.8681 89.2098C42.4618 89.347 42.048 89.6938 41.695 89.8955C41.2279 90.1745 40.7623 90.4568 40.2876 90.7198C39.7936 91.0099 39.2858 91.2726 38.7661 91.507C38.2619 91.7039 37.7479 91.8714 37.2264 92.0087C37.2212 92.0087 37.2161 92.0109 37.2124 92.0149C37.2087 92.0188 37.2066 92.0241 37.2066 92.0297C37.2066 92.0353 37.2087 92.0406 37.2124 92.0445C37.2161 92.0485 37.2212 92.0507 37.2264 92.0507C38.2519 91.9797 39.3352 91.5119 40.2496 91.0376C40.7502 90.7779 41.2401 90.4972 41.7239 90.2036L41.9217 90.0842C41.3032 90.6193 40.656 91.1159 39.9833 91.5716C39.7171 91.7506 39.4478 91.9281 39.1754 92.0991C38.9959 92.1604 38.8194 92.2314 38.649 92.2878C38.2397 92.4185 37.8259 92.533 37.409 92.625C36.9842 92.719 36.5551 92.789 36.1233 92.8347C35.7158 92.8494 35.3094 92.8887 34.9061 92.9525C34.899 92.9548 34.8927 92.9595 34.8882 92.9659C34.8838 92.9723 34.8814 92.98 34.8814 92.9879C34.8814 92.9959 34.8838 93.0036 34.8882 93.01C34.8927 93.0164 34.899 93.0211 34.9061 93.0234C35.6791 93.2735 36.633 93.0686 37.409 92.9025C37.6387 92.8524 37.8654 92.796 38.0952 92.7411C37.4202 93.1188 36.7252 93.4549 36.0138 93.7478C35.9042 93.7703 35.7947 93.8026 35.6851 93.822C35.3936 93.873 35.0981 93.8952 34.8027 93.8881C34.328 93.88 33.8213 93.7139 33.3512 93.7558C33.3462 93.756 33.3414 93.7579 33.3376 93.7612C33.3337 93.7645 33.331 93.769 33.3298 93.7741C33.3286 93.7793 33.329 93.7846 33.3309 93.7895C33.3328 93.7943 33.3362 93.7984 33.3405 93.801C33.7285 94.1107 34.3904 94.1236 34.862 94.1317H34.9776C34.5212 94.2833 34.0526 94.414 33.5824 94.5173C33.5765 94.5059 33.5676 94.4965 33.5568 94.4902C33.5461 94.484 33.5339 94.481 33.5216 94.4818C32.995 94.5109 32.4675 94.4444 31.9621 94.285C31.9583 94.283 31.9539 94.2826 31.9498 94.2839C31.9457 94.2852 31.9423 94.2881 31.9401 94.292C31.938 94.2959 31.9374 94.3005 31.9383 94.3049C31.9393 94.3093 31.9418 94.3131 31.9453 94.3156C32.1568 94.5259 32.4293 94.6539 32.7182 94.6786C31.9888 94.789 31.2514 94.8284 30.5151 94.7963C27.2044 94.635 24.1127 93.0315 21.6753 90.7053C22.3539 90.402 23.031 90.0933 23.7065 89.7793C23.5057 90.202 23.3307 90.6375 23.1116 91.0489C23.0857 91.0957 23.1481 91.1521 23.1862 91.1086C23.527 90.7004 23.74 90.1761 23.9469 89.6567C24.2999 89.4954 24.6514 89.3341 25.0028 89.1598C24.9161 89.3212 24.837 89.5002 24.7579 89.6696C24.5296 90.1536 24.3014 90.6375 24.0869 91.1215C24.061 91.1796 24.1264 91.2425 24.1721 91.1925C24.7153 90.6036 24.9085 89.7406 25.2889 89.0227L25.4562 88.9437L26.436 88.471C26.2535 88.7856 26.0998 89.1163 25.94 89.4389C25.6266 90.0729 25.3391 90.7214 25.0713 91.3747C25.0485 91.4328 25.1169 91.5086 25.161 91.449C25.5402 90.8916 25.8687 90.2974 26.1424 89.6744C26.3721 89.1905 26.6125 88.7307 26.8484 88.2581L27.9499 87.7144C27.668 88.1548 27.4138 88.6145 27.1892 89.0905C26.8377 89.7599 26.4939 90.4359 26.1241 91.0989C26.0755 91.1876 26.1987 91.2602 26.2535 91.1779C26.6688 90.5488 27.0386 89.8874 27.4174 89.2421C27.7491 88.6678 28.166 88.1129 28.4216 87.4837C28.8567 87.2686 29.2909 87.0482 29.724 86.8223C29.3238 87.4353 29.0226 88.1451 28.6909 88.7856C28.2192 89.6922 27.7354 90.5924 27.1922 91.4522C27.1435 91.5296 27.2561 91.6135 27.3139 91.5522C27.9371 90.767 28.4765 89.9111 28.9221 89.0001C29.3162 88.2322 29.7696 87.4531 30.0846 86.6368C30.5582 86.3937 31.0304 86.1469 31.5011 85.8963C31.3352 86.169 31.1968 86.4593 31.0446 86.7239C30.7175 87.3111 30.3949 87.8967 30.0191 88.4516C29.9111 88.613 30.1561 88.7533 30.2641 88.6033C30.6484 88.0583 31.004 87.4912 31.3291 86.9046C31.5863 86.4909 31.8175 86.0598 32.0214 85.614C32.3942 85.4156 32.7669 85.2156 33.1367 85.0123C32.9967 85.193 32.8689 85.3833 32.7487 85.5511C32.3973 86.0544 32.0708 86.5767 31.7704 87.1159C31.1618 88.1903 30.5684 89.2792 29.8989 90.3133C29.8457 90.3955 29.9644 90.4907 30.0267 90.4197C30.8073 89.5293 31.358 88.4597 31.9392 87.4208C32.2329 86.8981 32.5311 86.3771 32.8521 85.8738C33.1062 85.4769 33.4607 85.1075 33.7163 84.6945C34.1165 84.4751 34.5151 84.2525 34.9137 84.0299C34.6308 84.438 34.3797 84.8752 34.1287 85.2962C33.7118 85.9947 33.3208 86.7126 32.9008 87.4111C32.8126 87.5579 33.0286 87.687 33.1199 87.5466C33.5535 86.8804 33.9506 86.1948 34.3523 85.5076C34.7099 84.8945 35.1131 84.3138 35.4797 83.7105C35.8129 83.5201 36.1461 83.3314 36.4778 83.1394C36.3257 83.3588 36.1735 83.583 36.0336 83.7847C35.5771 84.4299 35.1557 85.093 34.7479 85.7673C33.938 87.0941 33.2073 88.4734 32.56 89.8971C32.5531 89.9138 32.5522 89.9326 32.5575 89.9499C32.5628 89.9673 32.574 89.9819 32.5889 89.9911C32.6037 90.0003 32.6212 90.0033 32.6381 89.9997C32.6549 89.996 32.6699 89.9859 32.6802 89.9713C33.5185 88.7194 34.2245 87.3627 35.0005 86.0673C35.3854 85.4221 35.7856 84.7881 36.2085 84.1718C36.4231 83.8605 36.6421 83.5556 36.8673 83.2539C37.0195 83.0587 37.1838 82.8716 37.3238 82.6699L37.7331 82.4344C37.6478 82.578 37.5718 82.7232 37.4987 82.8458C37.0864 83.5362 36.7213 84.2606 36.3272 84.9607C35.4371 86.5465 34.5106 88.1 33.5611 89.6389C33.5277 89.6938 33.6068 89.7599 33.6464 89.7083C34.7019 88.3171 35.6576 86.8439 36.5052 85.3011C36.9109 84.5848 37.3075 83.8626 37.695 83.1346C37.8837 82.7813 38.1515 82.4602 38.3036 82.0908C38.7012 81.8553 39.0968 81.6181 39.4904 81.3794C39.1724 81.9279 38.8909 82.5086 38.5775 83.0523C38.121 83.8379 37.6357 84.6074 37.1716 85.3898C36.7076 86.1722 36.2587 86.9256 35.8342 87.708C35.4097 88.4904 34.9655 89.2663 34.6627 90.0987C34.6551 90.1213 34.6886 90.1342 34.6992 90.1148C35.1465 89.3308 35.5482 88.5194 36.0107 87.7434C36.4733 86.9675 36.9723 86.1899 37.4622 85.4188C37.9521 84.6477 38.3995 83.9121 38.8422 83.1426C39.2043 82.5119 39.6273 81.8424 39.8859 81.1406C40.2161 80.939 40.5463 80.7373 40.8749 80.5325C40.8019 80.7035 40.7319 80.8745 40.6543 81.0326C40.4337 81.4875 40.1979 81.9343 39.9666 82.3812C39.498 83.2701 38.9898 84.1363 38.4923 85.0075C38.4466 85.0881 38.5577 85.151 38.6079 85.0801C39.1996 84.2463 39.7349 83.3692 40.21 82.4554C40.4459 82.0101 40.6665 81.552 40.8719 81.0906C40.9814 80.847 41.1168 80.5825 41.2249 80.3147C41.5778 80.0931 41.9329 79.8705 42.2899 79.6468C42.0601 80.0759 41.8502 80.5244 41.625 80.9374C41.2355 81.6569 40.8308 82.3683 40.4291 83.0829C39.6258 84.509 38.7555 85.8996 38.0237 87.3708C38.0206 87.3765 38.0186 87.3828 38.0178 87.3894C38.017 87.3959 38.0174 87.4026 38.019 87.4089C38.0206 87.4153 38.0234 87.4213 38.0272 87.4265C38.031 87.4317 38.0358 87.4361 38.0412 87.4394C38.0465 87.4426 38.0525 87.4448 38.0587 87.4456C38.0648 87.4465 38.0711 87.446 38.0771 87.4443C38.0831 87.4426 38.0887 87.4396 38.0937 87.4356C38.0986 87.4315 38.1027 87.4265 38.1058 87.4208C39.0446 86.0609 39.8662 84.6042 40.6923 83.1652C41.1001 82.4554 41.4896 81.7343 41.873 81.01C42.1469 80.4905 42.4664 79.9436 42.7007 79.3806C42.9959 79.1924 43.29 79.0021 43.5832 78.8096C43.4432 79.1322 43.3108 79.4548 43.1647 79.7662C42.8528 80.4195 42.5181 81.0567 42.1819 81.702C41.5048 82.9926 40.7638 84.2283 39.994 85.4527C39.962 85.5043 40.0381 85.5689 40.0761 85.5205C40.9521 84.3675 41.7441 83.1454 42.4451 81.865C42.7935 81.2342 43.1115 80.5825 43.4188 79.9291C43.6318 79.4742 43.8844 78.9919 44.0655 78.4982L44.6999 78.0772L44.6649 78.1465C44.4245 78.6402 44.1887 79.1354 43.9498 79.6291C43.4744 80.6388 42.9435 81.6181 42.3599 82.5619C42.3112 82.6377 42.4253 82.7345 42.4801 82.6619C43.1296 81.7821 43.6906 80.8327 44.1537 79.8291C44.4048 79.3193 44.6421 78.8015 44.8871 78.2869C44.9662 78.1256 45.0468 77.953 45.129 77.7868C45.5408 77.5083 45.9511 77.227 46.3599 76.9431C46.2701 77.1464 46.1803 77.348 46.089 77.5497C45.7847 78.2111 45.4637 78.8612 45.1259 79.5C44.4428 80.7906 43.6912 82.0505 43.0354 83.3604C43.0284 83.373 43.0263 83.3881 43.0297 83.4023C43.0332 83.4165 43.0418 83.4287 43.0537 83.4362C43.0656 83.4437 43.0798 83.4459 43.0932 83.4422C43.1066 83.4386 43.1181 83.4295 43.1252 83.4169C43.946 82.1852 44.7009 80.9055 45.3861 79.5839C45.7224 78.9386 46.0464 78.2933 46.3477 77.6335C46.4927 77.3109 46.6307 76.9883 46.7615 76.6656L47.2864 76.2962C47.183 76.6511 47.0841 77.006 46.973 77.348C46.7098 78.1369 46.4055 78.9177 46.0921 79.692C45.4454 81.2423 44.6102 82.6699 43.8448 84.1525C43.8159 84.2073 43.8905 84.2767 43.9301 84.2235C44.9449 82.9039 45.7254 81.3504 46.3857 79.8049C46.6991 79.0693 46.9745 78.3143 47.221 77.5464C47.3732 77.0625 47.5542 76.5366 47.6775 76.0123L47.7033 75.9929C47.717 76.143 47.7292 76.3043 47.7398 76.4656ZM61.1913 61.2644C61.0763 61.8273 60.877 62.3671 60.6009 62.8631C59.7276 64.5425 58.4709 65.996 57.1928 67.3414C55.1373 69.5111 52.8657 71.4502 50.5287 73.2682C49.7467 73.8759 48.956 74.4706 48.1567 75.0524C48.1476 74.9895 48.14 74.9266 48.1309 74.8653C48.0826 74.5655 48.0004 74.273 47.8859 73.9942C48.8597 73.2408 49.838 72.4891 50.7995 71.7163C52.5873 70.2806 54.3842 68.8223 55.9619 67.1236C56.003 67.08 55.9422 67.0171 55.898 67.0574C54.1605 68.6497 52.3864 70.1886 50.5531 71.6567C49.6402 72.3874 48.7273 73.1182 47.8311 73.8603C47.784 73.7474 47.7353 73.6344 47.679 73.5199C47.6973 73.5027 47.7107 73.4805 47.7177 73.4557C47.7246 73.4309 47.725 73.4045 47.7185 73.3795C47.6577 73.094 47.5892 72.8085 47.5162 72.5246C48.9677 71.2921 50.4207 70.0612 51.9422 68.9287C51.9802 68.8997 51.9422 68.8336 51.9041 68.861C50.3658 69.9262 48.8827 71.0786 47.4614 72.3132C47.431 72.1971 47.399 72.0809 47.3671 71.9664C48.5949 70.9114 49.8014 69.8176 50.9532 68.6787C51.7307 67.9157 52.4914 67.1252 53.2096 66.2896C53.6626 65.7937 54.0631 65.2468 54.4039 64.6586C54.5835 64.3198 54.7478 63.8698 54.3659 63.6084C53.809 63.2261 52.8672 63.4261 52.2602 63.5084C49.9475 63.831 47.6546 64.4763 45.4257 65.1942C45.0879 65.3017 44.7516 65.4152 44.4169 65.5346C44.2009 65.2302 43.9838 64.9264 43.7657 64.6231C46.4283 63.4939 49.0909 62.3759 51.8098 61.3967C53.1426 60.9128 54.4891 60.4675 55.8569 60.1062C56.922 59.8255 58.0266 59.5754 59.1327 59.548C59.7824 59.5335 60.7455 59.548 61.1106 60.2465C61.1639 60.3812 61.2022 60.5219 61.2247 60.666C61.2389 60.8661 61.2277 61.0674 61.1913 61.2644V61.2644Z" fill="#FAC07F"/>
<path d="M57.419 62.592C57.1315 62.108 56.5579 61.9354 56.0497 61.879C54.9695 61.7596 53.8451 62.0403 52.7968 62.2855C51.7804 62.5226 50.7489 62.8033 49.7203 62.9663C49.7097 62.9663 49.7127 62.9872 49.7203 62.9872C50.5663 63.0066 51.3772 62.7598 52.1943 62.5452C53.1491 62.2713 54.1262 62.0936 55.1125 62.0145C56.1334 61.958 57.7249 62.2081 57.3308 63.668C57.0098 64.8634 56.0299 65.8894 55.2296 66.746C54.1725 67.8545 53.0608 68.9029 51.8991 69.8869C51.0288 70.6386 50.0733 71.3194 49.2669 72.1534C49.2076 72.2131 49.2867 72.3309 49.3567 72.2776C51.4442 70.6725 53.5012 68.9335 55.3133 66.9847C56.1486 66.0878 57.1391 65.0247 57.4951 63.7809C57.6138 63.3986 57.6351 62.9533 57.419 62.592Z" fill="#FAC07F"/>
<path d="M57.8575 61.0303C57.8042 61.0061 57.7586 61.0884 57.8118 61.1126C58.3139 61.3432 58.5893 61.8546 58.816 62.3563C58.8267 62.3805 58.8647 62.3563 58.8571 62.3386C58.6791 61.7852 58.3809 61.269 57.8575 61.0303Z" fill="#FAC07F"/>
<path d="M10.7887 23.5266C10.1214 26.1094 9.70689 28.7583 9.55176 31.4313C9.20852 36.8835 9.78086 42.357 11.2421 47.5971C11.9846 50.2443 12.931 52.9545 14.4251 55.2356C14.4384 55.2597 14.4602 55.2773 14.4858 55.2844C14.5113 55.2915 14.5384 55.2876 14.5612 55.2735C14.584 55.2594 14.6006 55.2362 14.6073 55.2091C14.614 55.1821 14.6103 55.1533 14.597 55.1291C13.5502 52.9271 12.5734 50.7089 11.8583 48.3537C11.0912 45.8173 10.5413 43.2127 10.2151 40.5716C9.55328 35.2787 9.67652 29.7923 10.8678 24.601C10.95 24.2407 11.0383 23.8826 11.1326 23.5266C11.3988 22.5022 11.1067 22.3022 10.7887 23.5266Z" fill="#FAC07F"/>
<path d="M21.453 53.2695C19.9528 51.495 18.5485 49.6511 17.3708 47.612C16.1513 45.5005 15.132 43.266 14.3279 40.9415C13.5369 38.6635 12.9585 36.3088 12.601 33.9112C12.5614 33.6531 12.5264 33.3933 12.493 33.1336C12.567 33.1151 12.633 33.0706 12.6802 33.0073C12.7274 32.9441 12.7531 32.8658 12.7531 32.7852C12.7531 32.7464 12.7531 32.7077 12.7531 32.6674C12.7595 32.6317 12.7636 32.5956 12.7653 32.5593C12.7683 32.5363 12.7683 32.5129 12.7653 32.4899C12.7653 32.4819 12.7653 32.4754 12.7653 32.4738C12.7843 32.4153 12.792 32.3533 12.7881 32.2915C12.7862 32.2501 12.7693 32.2112 12.741 32.1826C12.7126 32.1541 12.6751 32.1382 12.636 32.1383C12.5452 32.1363 12.4555 32.1597 12.3758 32.206C12.1735 30.2605 12.1339 28.2843 12.4199 26.3566C12.6466 24.8305 13.0179 23.3351 13.3328 21.8283C13.6371 20.3765 13.908 18.8633 13.8182 17.363C13.8154 17.3409 13.8052 17.3207 13.7893 17.306C13.7735 17.2913 13.7532 17.2832 13.7322 17.2832C13.7112 17.2832 13.6909 17.2913 13.6751 17.306C13.6593 17.3207 13.649 17.3409 13.6463 17.363C13.5574 18.7747 13.3656 20.177 13.0727 21.5573C12.7912 22.9172 12.4641 24.2675 12.2252 25.6371C11.8342 27.8956 11.86 30.1815 12.102 32.4544C12.0695 32.5622 12.0556 32.6754 12.0609 32.7884C12.063 32.8876 12.1018 32.9821 12.1689 33.0513L12.1917 33.2368C12.8127 38.1123 14.3459 42.8071 16.7014 47.0458C17.9794 49.3317 19.4918 51.5757 21.3723 53.3486C21.3772 53.3542 21.3831 53.3587 21.3897 53.3619C21.3962 53.3651 21.4033 53.3669 21.4105 53.3672C21.4177 53.3675 21.4249 53.3663 21.4317 53.3636C21.4384 53.361 21.4446 53.357 21.4499 53.3518C21.4552 53.3466 21.4595 53.3403 21.4625 53.3334C21.4655 53.3265 21.4672 53.319 21.4675 53.3113C21.4678 53.3037 21.4667 53.296 21.4642 53.2889C21.4617 53.2817 21.4579 53.2751 21.453 53.2695Z" fill="#FAC07F"/>
<path d="M14.1504 23.6589C14.1068 25.7794 14.2085 27.9004 14.4547 30.0053C14.9431 34.1625 16.0173 38.26 17.8978 41.959C18.4222 42.9974 19.015 43.9952 19.6719 44.9451C20.3109 45.863 21.0108 46.7922 21.8294 47.5391C21.8411 47.5515 21.8569 47.5585 21.8735 47.5585C21.89 47.5585 21.9059 47.5515 21.9176 47.5391C21.9293 47.5267 21.9359 47.5098 21.9359 47.4923C21.9359 47.4747 21.9293 47.4579 21.9176 47.4455C21.2999 46.6292 20.6502 45.8501 20.069 45.0015C19.5034 44.1748 18.9817 43.3152 18.5064 42.4269C17.5432 40.6185 16.7595 38.709 16.1679 36.7291C14.9858 32.7419 14.3905 28.5853 14.403 24.4059C14.403 24.1542 14.403 23.9025 14.403 23.6509" fill="#FAC07F"/>
<path d="M15.636 57.659C15.9203 57.293 16.3038 57.0283 16.7345 56.9008C17.2084 56.7413 17.7071 56.6811 18.2027 56.7233C18.6972 56.762 19.1445 56.9588 19.6253 57.0459C19.6523 57.0533 19.6808 57.051 19.7065 57.0396C19.7322 57.0282 19.7537 57.0081 19.7676 56.9825C19.7816 56.957 19.7873 56.9272 19.7838 56.8979C19.7804 56.8686 19.768 56.8413 19.7486 56.8201C19.4017 56.3684 18.7155 56.2458 18.2027 56.2103C17.9567 56.1945 17.7099 56.2004 17.4648 56.2281C17.3629 55.9441 17.3315 55.6371 17.3736 55.3366C17.4157 55.036 17.5299 54.752 17.7052 54.5116C18.1069 53.9341 18.6866 53.676 19.283 53.3824C19.3834 53.334 19.3241 53.1823 19.2297 53.1775C18.4553 53.1323 17.693 53.7873 17.3005 54.4455C16.9597 55.0165 16.8684 55.7005 17.1483 56.2716C16.8997 56.3186 16.6561 56.3915 16.4211 56.4894C15.9464 56.691 15.4838 57.0201 15.2328 57.5073C15.0183 57.9219 14.8981 58.6478 15.2328 59.0286C15.243 59.0388 15.2555 59.0462 15.2692 59.0498C15.2828 59.0535 15.2971 59.0534 15.3107 59.0495C15.3243 59.0456 15.3368 59.0381 15.3468 59.0276C15.3569 59.0172 15.3643 59.0042 15.3682 58.9898C15.4139 58.7559 15.3682 58.5059 15.3925 58.2752C15.426 58.0521 15.5094 57.8407 15.636 57.659V57.659Z" fill="#FAC07F"/>
<path d="M8.46136 68.1789C8.47539 68.1933 8.4927 68.2037 8.51161 68.209C8.53053 68.2143 8.55041 68.2144 8.56935 68.2092C8.5883 68.204 8.60567 68.1938 8.6198 68.1794C8.63392 68.1651 8.64433 68.1471 8.65002 68.1273C8.72153 67.8127 8.59372 67.411 8.59372 67.0803C8.59891 66.6865 8.6589 66.2956 8.77174 65.9204C9.01358 65.1192 9.42229 64.3859 9.96762 63.7749C10.2537 63.4444 10.5796 63.1553 10.9368 62.915C11.0292 62.9431 11.1263 62.9497 11.2213 62.9344C11.2321 62.931 11.2419 62.9248 11.2498 62.9163C11.2576 62.9078 11.2633 62.8972 11.2662 62.8857C11.2691 62.8742 11.2691 62.8621 11.2663 62.8506C11.2635 62.839 11.258 62.8285 11.2502 62.8198C11.2335 62.7989 11.2137 62.7795 11.1939 62.7585C11.3932 62.6493 11.6021 62.5612 11.8177 62.4956C12.5526 62.2794 13.1475 62.4956 13.8124 62.8182C13.8409 62.8344 13.8739 62.8394 13.9055 62.8323C13.9371 62.8252 13.9653 62.8065 13.9852 62.7795C14.005 62.7524 14.0152 62.7188 14.014 62.6846C14.0127 62.6503 14 62.6177 13.9783 62.5924C13.1749 61.6438 11.7873 61.9084 10.841 62.4778C10.7135 62.3967 10.5959 62.2992 10.491 62.1875C10.2835 61.9443 10.137 61.6498 10.065 61.3309C9.89764 60.6356 10.0178 59.8871 10.2354 59.2208C10.7147 57.7528 11.836 56.2799 13.3134 55.896C13.7047 55.7928 14.1135 55.7895 14.5062 55.8863C14.9809 56.0041 15.3765 56.2767 15.8101 56.4977C15.837 56.5111 15.8674 56.5142 15.8962 56.5066C15.9251 56.499 15.9505 56.4812 15.9684 56.456C15.9862 56.4308 15.9954 56.3999 15.9943 56.3684C15.9931 56.337 15.9818 56.3069 15.9623 56.2832C15.4069 55.5605 14.3997 55.283 13.5568 55.3959C12.7139 55.5088 11.9851 55.9783 11.3887 56.5897C10.2674 57.7318 9.35751 59.616 9.70289 61.3018C9.78102 61.7016 9.95499 62.0733 10.208 62.3811C10.3038 62.4955 10.4104 62.5992 10.526 62.6908C9.44304 63.4972 8.66081 64.6805 8.31529 66.0349C8.22083 66.4127 8.17678 66.8025 8.18445 67.1932C8.19357 67.4868 8.23313 67.9772 8.46136 68.1789Z" fill="#FAC07F"/>
<path d="M21.2064 59.8739C21.4818 59.6203 21.808 59.4366 22.1604 59.3367C22.4875 59.2447 22.842 59.298 23.1615 59.1963C23.1802 59.19 23.1968 59.1781 23.2094 59.1622C23.222 59.1462 23.23 59.1268 23.2326 59.1061C23.2351 59.0855 23.2321 59.0645 23.2238 59.0456C23.2155 59.0268 23.2024 59.0108 23.1859 58.9995C22.8557 58.7414 22.3293 58.8382 21.9687 58.9592C21.5708 59.0882 21.2046 59.3085 20.896 59.6045C20.47 60.0158 19.9831 60.8354 20.1901 61.4855C20.1034 61.5034 20.018 61.5276 19.9344 61.5581L19.8888 61.5758C19.6271 61.0918 18.8557 60.8466 18.3886 60.8837C17.7694 60.9305 17.2445 61.3451 16.8671 61.842C16.4424 62.4097 16.1318 63.0636 15.9543 63.7633C15.7915 64.3747 15.6895 65.0539 15.9238 65.6556C15.9512 65.7266 16.0653 65.7266 16.0592 65.6362C16.0071 64.4371 16.3545 63.2567 17.0406 62.3017C17.3449 61.8904 17.7633 61.4774 18.2578 61.3806C18.5033 61.3358 18.7557 61.369 18.9835 61.4758C19.1535 61.5689 19.3158 61.6768 19.4689 61.7984C19.1007 62.0565 18.8131 62.4437 18.8086 62.9277C18.8058 62.9481 18.8103 62.9688 18.8211 62.9859C18.8318 63.0031 18.8482 63.0154 18.867 63.0206C18.8858 63.0258 18.9057 63.0234 18.923 63.014C18.9403 63.0046 18.9537 62.9888 18.9607 62.9696C19.2833 62.5115 19.6149 62.1049 20.1596 61.9581C20.4132 61.8897 20.6775 61.8781 20.9356 61.9243C21.1455 61.9597 21.3525 62.0856 21.5442 61.9533C21.5625 61.9409 21.5768 61.9227 21.5849 61.9013C21.5931 61.8799 21.5948 61.8564 21.5898 61.8339C21.529 61.4322 20.9812 61.3774 20.5248 61.4258C20.5177 61.1903 20.548 60.9553 20.6146 60.7305C20.7403 60.3964 20.9439 60.1017 21.2064 59.8739V59.8739Z" fill="#FAC07F"/>
<path d="M9.63071 68.2174C9.93826 68.0043 10.2863 67.8655 10.6501 67.8109C11.0807 67.7464 11.4854 67.8674 11.9129 67.8658C11.9263 67.8647 11.9389 67.8593 11.9492 67.8502C11.9595 67.8412 11.9668 67.8289 11.9701 67.8152C11.9735 67.8015 11.9727 67.787 11.9679 67.7738C11.9631 67.7606 11.9545 67.7493 11.9434 67.7415C11.3348 67.3189 10.3808 67.4576 9.75547 67.7528C9.09242 68.0949 8.54938 68.6521 8.20508 69.3434C7.44434 70.7647 7.29219 72.6408 7.91143 74.1475C8.25376 74.9735 8.89127 75.6736 9.73721 75.8849C9.7472 75.8893 9.7579 75.8915 9.7687 75.8915C9.77949 75.8914 9.79018 75.8891 9.80014 75.8847C9.8101 75.8803 9.81914 75.8738 9.82675 75.8657C9.83435 75.8576 9.84038 75.848 9.84447 75.8374C9.84857 75.8268 9.85066 75.8154 9.85062 75.804C9.85058 75.7925 9.84841 75.7812 9.84425 75.7706C9.84008 75.7601 9.83399 75.7505 9.82633 75.7424C9.81867 75.7344 9.80958 75.728 9.79959 75.7236C8.5398 74.917 7.89774 73.5797 7.91295 72.0246C7.9236 70.605 8.45764 69.0176 9.63071 68.2174Z" fill="#FAC07F"/>
<path d="M38.0037 53.3321C38.3825 52.7643 38.7735 52.1787 39.4551 52.0287C40.0242 51.9029 40.6054 52.1045 41.0877 52.4207C41.6449 52.8002 42.1049 53.3201 42.4266 53.9339C42.7902 54.605 42.8648 55.2922 42.9789 56.031C42.9956 56.1391 43.131 56.1197 43.166 56.031C43.4095 55.2535 43.1158 54.3146 42.7583 53.629C42.3812 52.9203 41.8254 52.3371 41.1531 51.9448C40.5795 51.6141 39.869 51.4253 39.23 51.6447C38.916 51.7537 38.6326 51.9439 38.4053 52.1981C38.1306 52.4932 37.9488 52.8714 37.885 53.2805C37.8821 53.2963 37.8845 53.3126 37.8917 53.3266C37.8988 53.3407 37.9104 53.3518 37.9244 53.3578C37.9384 53.3639 37.9539 53.3647 37.9683 53.36C37.9828 53.3553 37.9953 53.3455 38.0037 53.3321V53.3321Z" fill="#FAC07F"/>
<path d="M19.6488 3.12339C19.769 3.51862 19.8801 3.91547 19.9881 4.31554C20.0672 4.60914 20.0885 5.05116 20.3532 5.22377C20.3757 5.23738 20.4023 5.24112 20.4273 5.23419C20.4524 5.22725 20.4738 5.21019 20.4871 5.18667C20.6727 4.92049 20.5008 4.47686 20.4293 4.18649C20.3304 3.7848 20.198 3.39279 20.0687 3.00079C19.9394 2.60878 19.8055 2.21839 19.6731 1.82799C19.5673 1.44561 19.4377 1.07107 19.2852 0.706824C19.272 0.685164 19.2527 0.668525 19.23 0.659331C19.2073 0.650137 19.1824 0.648868 19.1589 0.655709C19.1355 0.662549 19.1148 0.677143 19.0997 0.697363C19.0846 0.717583 19.076 0.742374 19.0752 0.768126C19.0984 1.16655 19.1736 1.55963 19.2989 1.93608C19.4038 2.33615 19.5286 2.72977 19.6488 3.12339Z" fill="#FAC07F"/>
<path d="M18.6019 6.08018C18.961 6.18988 19.3231 6.2899 19.6791 6.41089C20.1356 6.56414 20.4931 6.84968 20.4125 7.40462C20.3394 7.90955 20.2101 8.42093 20.1082 8.91779C19.8681 10.0035 19.5663 11.0729 19.2044 12.12C19.0279 12.6459 18.8438 13.1686 18.6567 13.6896C18.5669 13.9397 18.4772 14.1897 18.395 14.443C18.3539 14.5688 18.3083 14.6946 18.2718 14.8221C18.2475 14.971 18.216 15.1186 18.1774 15.2641C18.1424 15.3544 18.2611 15.3996 18.3174 15.3496C18.681 15.027 18.8256 14.3817 18.9929 13.9268C19.2044 13.3428 19.4144 12.7588 19.6152 12.17C20.0324 10.9782 20.3755 9.7587 20.6422 8.51934C20.8202 7.65144 21.1474 6.669 20.2299 6.14633C19.8587 5.96486 19.4677 5.83265 19.066 5.75271C18.5882 5.62688 18.1226 5.49459 17.651 5.34941C17.6286 5.34413 17.6052 5.34655 17.5842 5.3563C17.5632 5.36606 17.5457 5.38264 17.5342 5.40366C17.5226 5.42468 17.5177 5.44904 17.5201 5.47322C17.5225 5.4974 17.5321 5.52014 17.5475 5.53815C17.8016 5.8624 18.2368 5.96887 18.6019 6.08018Z" fill="#FAC07F"/>
<path d="M8.78313 13.2285C8.8096 13.2443 8.83953 13.2525 8.86992 13.2522C8.9003 13.2519 8.93009 13.2431 8.95628 13.2268C8.98247 13.2105 9.00416 13.1871 9.01916 13.1591C9.03417 13.1311 9.04197 13.0994 9.04178 13.0671C9.04178 12.8445 8.91398 12.6525 8.92006 12.4219C8.93627 12.2014 9.00828 11.9896 9.12851 11.8088C9.40846 11.3442 9.85121 11.0022 10.2696 10.6796C10.688 10.357 11.1673 10.0618 11.6131 9.74557C11.9426 9.54362 12.2271 9.26846 12.4469 8.93897C12.4819 8.8809 12.4058 8.82444 12.3601 8.86799C12.0178 9.19063 11.5705 9.43745 11.1825 9.69395C10.6668 10.0165 10.1671 10.3671 9.68537 10.7441C9.29587 11.0668 8.89116 11.4394 8.67967 11.9218C8.50926 12.3009 8.42254 12.9381 8.78313 13.2285Z" fill="#FAC07F"/>
<path d="M20.2357 17.2191C19.9854 17.1808 19.74 17.1132 19.5038 17.0174C19.3804 16.9807 19.264 16.9212 19.16 16.8416C19.0413 16.719 19.1022 16.5803 19.1387 16.4012C19.2895 15.7681 19.4781 15.1458 19.7032 14.5379C19.8553 14.0637 20.1779 13.2877 19.9953 12.7876C19.9922 12.7699 19.9838 12.7536 19.9714 12.7412C19.9591 12.7288 19.9433 12.7208 19.9264 12.7185C19.9095 12.7162 19.8923 12.7196 19.8774 12.7282C19.8624 12.7369 19.8504 12.7503 19.8431 12.7667C19.6606 13.0506 19.6225 13.47 19.516 13.7943C19.3973 14.1588 19.268 14.5202 19.1402 14.8816C19.0124 15.2429 18.8846 15.6107 18.7857 15.985C18.7203 16.2334 18.527 16.7513 18.6488 16.9965C18.7507 17.2013 19.0763 17.382 19.265 17.4804C19.5283 17.6081 19.8075 17.695 20.0942 17.7385C20.6008 17.824 21.3022 17.9273 21.7282 17.5611C21.818 17.4836 21.7572 17.3401 21.6643 17.3062C21.2262 17.1465 20.7058 17.2901 20.2357 17.2191Z" fill="#FAC07F"/>
<path d="M14.7005 9.17096C15.2878 9.02577 15.8006 8.56601 16.3042 8.23692C16.5811 8.05029 16.8722 7.88841 17.1745 7.75296C17.3692 7.66907 17.6918 7.65455 17.8028 7.44645C17.809 7.43468 17.8114 7.42111 17.8098 7.40775C17.8082 7.39439 17.8025 7.38195 17.7937 7.37225C17.6187 7.19479 17.3373 7.33514 17.1395 7.41258C17.0938 7.43032 17.0466 7.44968 17.001 7.47065C17.0607 7.42323 17.1181 7.37262 17.1729 7.31901C17.2231 7.269 17.1729 7.19479 17.109 7.20447C16.6724 7.27545 16.289 7.59325 15.9177 7.82717C15.5754 8.04172 15.1189 8.21272 14.8527 8.52891C14.8505 8.53187 14.8491 8.53541 14.8486 8.53915C14.8481 8.54289 14.8486 8.54669 14.85 8.55016C14.8514 8.55363 14.8537 8.55663 14.8566 8.55886C14.8594 8.56108 14.8628 8.56243 14.8664 8.56278C15.1027 8.57511 15.3373 8.5146 15.5419 8.38856C15.2321 8.60646 14.9405 8.85202 14.6701 9.12256C14.6677 9.12785 14.6667 9.13371 14.6671 9.13955C14.6675 9.1454 14.6693 9.15104 14.6724 9.15591C14.6754 9.16079 14.6796 9.16474 14.6846 9.16738C14.6895 9.17001 14.695 9.17125 14.7005 9.17096V9.17096Z" fill="#FAC07F"/>
</svg>
