<svg width="378" height="486" viewBox="0 0 378 486" fill="none" xmlns="http://www.w3.org/2000/svg">
<path opacity="0.7" d="M11.5105 169.582C11.5105 169.582 -16.0397 234.853 22.6723 300.593C61.3843 366.333 141.117 401.045 204.93 430.735C268.744 460.424 335.015 445.961 366.505 397.339C397.996 348.716 354.807 313.997 354.75 244.649C354.692 175.301 366.06 156.905 325.147 98.3582C284.234 39.8116 183.802 26.8013 107.878 70.2573C31.9546 113.713 11.5105 169.582 11.5105 169.582Z" fill="white"/>
<g opacity="0.42">
<path opacity="0.42" d="M20.5297 169.015C49.0114 120.892 120.64 64.7507 218.912 88.1466C317.184 111.543 383.587 160.982 372.705 247.107C361.823 333.233 304.654 404.729 181.503 406.817C58.3514 408.905 -41.9075 274.497 20.5297 169.015Z" fill="#F8BE7D"/>
</g>
<path d="M21.4438 223.394L101.547 208.719L129.518 331.939L44.3776 348.701L21.4438 223.394Z" stroke="#1A2E35" stroke-linecap="round" stroke-linejoin="round"/>
<path d="M103.048 393.383L123.434 362.37L143.837 393.383C138.636 396.219 133.376 398.776 128.496 401.855C124.943 404.086 122.173 404.313 118.521 401.923C113.682 398.769 108.348 396.265 103.048 393.383ZM122.593 367.355L122.033 367.226L105.95 391.734L106.452 392.12C111.522 390.161 116.6 388.217 121.637 386.212C121.882 386.088 122.092 385.913 122.25 385.702C122.409 385.49 122.512 385.248 122.552 384.994C122.643 379.117 122.593 373.232 122.593 367.355ZM124.819 367.264L124.25 367.355C124.25 373.285 124.25 379.215 124.316 385.146C124.316 385.592 125.141 386.182 125.784 386.439C128.323 387.498 130.911 388.459 133.483 389.465C135.816 390.357 138.149 391.235 140.482 392.12L140.861 391.719C135.536 383.565 130.197 375.413 124.844 367.264H124.819ZM124.358 387.483V402.104L140.086 393.564L124.358 387.483ZM106.766 393.534L122.486 402.051V387.513L106.766 393.534Z" fill="#2F2F2F"/>
<path d="M142.848 398.209C136.459 406.476 130.062 414.737 123.451 423.284L104.078 398.262L104.284 397.937C104.804 398.179 105.356 398.39 105.859 398.693C111.184 401.575 116.575 404.442 121.818 407.392C122.296 407.714 122.874 407.887 123.467 407.887C124.06 407.887 124.638 407.714 125.116 407.392C130.351 404.487 135.626 401.658 140.886 398.806C141.438 398.504 142.015 398.254 142.576 397.982L142.848 398.209ZM110.178 402.687L109.741 403.088L122.148 419.109C122.568 416.289 122.717 413.442 122.593 410.599C122.578 410.308 122.497 410.023 122.355 409.763C122.213 409.502 122.013 409.272 121.769 409.086C117.952 406.87 114.061 404.79 110.178 402.687ZM137.119 403.126L136.748 402.702C132.807 404.827 128.867 406.945 124.943 409.086C124.695 409.222 124.374 409.479 124.366 409.684C124.366 412.785 124.366 415.886 124.366 418.988H124.844L137.119 403.126Z" fill="#2F2F2F"/>
<path d="M59.2578 232.743C59.9011 232.587 60.5533 232.463 61.2115 232.372C63.2394 232.229 64.4183 231.616 64.509 229.392C64.4755 228.392 64.8611 227.418 65.5865 226.671C66.3118 225.924 67.3216 225.46 68.4082 225.376C69.5366 225.207 70.6942 225.387 71.6986 225.888C72.703 226.39 73.4972 227.183 73.9561 228.144C74.5002 229.112 74.8712 229.861 76.3468 229.521C76.7755 229.422 77.4267 230.149 77.9955 230.496C77.5668 231.018 77.2453 231.85 76.7013 232.009C75.6131 232.304 75.3328 232.72 75.2916 233.749C75.2242 235.081 74.9207 236.394 74.3931 237.637C74.187 238.144 73.1812 238.393 72.5382 238.726C72.2085 238.091 71.5573 237.425 71.6067 236.813C71.8409 235.485 72.1938 234.177 72.6619 232.902C71.0545 233.152 69.4637 233.486 67.8971 233.9C67.5261 234.021 67.3365 234.891 67.2541 235.413C66.8337 238.265 65.8609 239.536 63.5774 240.035C62.4146 240.309 61.1835 240.192 60.1058 239.707C59.0281 239.222 58.1749 238.399 57.6997 237.387C57.1639 236.412 56.7352 235.875 55.3998 236.139C55.0579 236.191 54.7073 236.121 54.4205 235.942C54.1337 235.764 53.9324 235.491 53.8584 235.181C53.7843 234.87 53.8431 234.545 54.0225 234.273C54.202 234.001 54.4884 233.803 54.8227 233.719C56.422 233.499 56.422 232.554 56.4714 231.45C56.4748 230.665 56.6662 229.89 57.032 229.18C57.3453 228.681 58.1614 228.424 58.7549 228.091C59.1424 228.658 59.8101 229.203 59.8513 229.785C59.7883 230.79 59.5889 231.784 59.2578 232.743V232.743ZM60.1398 235.398L59.8348 236.003C60.6592 236.344 61.4836 236.987 62.3079 236.949C63.5939 236.896 63.9566 235.867 63.9566 234.679L60.1398 235.398ZM71.7716 230.217C71.1451 228.953 70.3125 228.129 69.0512 228.704C68.301 229.021 67.8641 229.982 67.2871 230.655L67.7405 231.041L71.7716 230.217Z" stroke="black" stroke-miterlimit="10"/>
<path d="M156.565 422.702L172.055 427.043L160.514 414.623C166.837 407.944 170.58 399.775 170.687 391.295" stroke="#1A2E35" stroke-width="2" stroke-linecap="round" stroke-linejoin="round"/>
<path d="M137.803 428.17C142.975 426.649 147.856 424.395 152.27 421.491" stroke="#1A2E35" stroke-width="2" stroke-linecap="round" stroke-linejoin="round"/>
<path d="M78.1357 401.794C82.6945 421.945 106.931 434.328 132.305 429.509" stroke="#1A2E35" stroke-width="2" stroke-linecap="round" stroke-linejoin="round"/>
<path d="M81.8373 379.087C80.8618 380.789 80.0349 382.559 79.3643 384.382" stroke="#1A2E35" stroke-width="2" stroke-linecap="round" stroke-linejoin="round"/>
<path d="M169.978 384.306C165.427 364.178 141.183 351.78 115.817 356.598C104.308 358.679 93.9373 364.347 86.4619 372.642" stroke="#1A2E35" stroke-width="2" stroke-linecap="round" stroke-linejoin="round"/>
<path d="M203.793 79.7354L188.855 74.0396L198.987 87.413C191.996 93.5021 187.445 101.301 186.415 109.735" stroke="#1A2E35" stroke-width="2" stroke-linecap="round" stroke-linejoin="round"/>
<path d="M223.042 75.938C217.724 76.9937 212.618 78.8031 207.907 81.301" stroke="#1A2E35" stroke-width="2" stroke-linecap="round" stroke-linejoin="round"/>
<path d="M279.659 107.465C277.244 87.0423 254.409 72.5342 228.656 75.0985" stroke="#1A2E35" stroke-width="2" stroke-linecap="round" stroke-linejoin="round"/>
<path d="M273.6 129.734C274.748 128.134 275.754 126.452 276.609 124.704" stroke="#1A2E35" stroke-width="2" stroke-linecap="round" stroke-linejoin="round"/>
<path d="M186.407 116.754C188.831 137.177 211.666 151.685 237.41 149.121C249.085 148.067 260.003 143.343 268.316 135.748" stroke="#1A2E35" stroke-width="2" stroke-linecap="round" stroke-linejoin="round"/>
<path d="M236.57 119.091C239.265 119.598 241.994 120.097 244.714 120.604C245.04 120.652 245.351 120.758 245.631 120.918C245.911 121.077 246.153 121.287 246.343 121.533C246.534 121.78 246.669 122.059 246.74 122.354C246.811 122.649 246.818 122.954 246.759 123.252C246.418 125.061 245.978 126.854 245.44 128.622C245.24 129.119 244.851 129.533 244.345 129.787C243.839 130.042 243.25 130.119 242.686 130.006C237.987 129.076 233.297 128.093 228.59 127.177C224.641 126.421 220.668 125.665 216.711 124.908C214.328 124.454 213.125 123.63 213.825 121.126C214.221 119.689 214.46 118.221 214.93 116.807C215.123 116.279 215.528 115.839 216.062 115.574C216.597 115.31 217.22 115.243 217.807 115.385C220.346 115.861 222.869 116.368 225.408 116.852C225.746 116.899 226.088 116.924 226.43 116.928C226.603 116.3 226.578 115.99 225.737 115.771C221.844 114.854 218.093 113.486 214.576 111.701C213.619 111.155 212.752 110.485 212.004 109.712C210.816 108.547 211.179 107.533 212.737 106.86C214.508 106.175 216.424 105.865 218.343 105.952C221.64 105.952 224.996 106.217 228.491 106.376C228.738 105.34 229.027 104.145 229.315 102.942C230.032 99.9162 230.7 96.8906 231.475 93.8649C231.524 93.5317 231.651 93.2122 231.847 92.9285C232.044 92.6448 232.305 92.4036 232.613 92.2217C232.921 92.0397 233.269 91.9213 233.632 91.8746C233.994 91.8279 234.364 91.854 234.715 91.9512C236.553 92.2462 238.383 92.6471 240.197 93.0782C240.764 93.2585 241.248 93.6106 241.569 94.0766C241.889 94.5426 242.028 95.0948 241.961 95.6425C241.186 99.0615 240.362 102.45 239.562 105.899C239.356 106.792 239.166 107.692 239.001 108.449C242.035 109.545 244.953 110.551 247.814 111.663C249.585 112.302 251.191 113.273 252.529 114.515C253.79 115.74 253.395 116.973 251.647 117.616C249.568 118.304 247.358 118.597 245.151 118.479C242.596 118.418 240.04 118.161 237.493 117.995C237.237 117.995 236.982 117.995 236.71 117.995L236.57 119.091ZM227.444 118.403C227.126 118.43 226.806 118.43 226.488 118.403C223.611 117.828 220.717 117.231 217.865 116.641C217.505 116.54 217.117 116.569 216.78 116.723C216.443 116.876 216.182 117.141 216.051 117.465C215.68 119.031 215.309 120.597 215.004 122.178C214.953 122.327 214.939 122.486 214.964 122.641C214.988 122.797 215.051 122.945 215.147 123.075C215.243 123.206 215.37 123.314 215.518 123.393C215.666 123.472 215.831 123.519 216.002 123.532C218.598 124.008 221.195 124.492 223.784 124.999C230.098 126.247 236.405 127.518 242.744 128.781C242.921 128.839 243.11 128.86 243.296 128.841C243.483 128.823 243.663 128.765 243.822 128.673C243.981 128.581 244.115 128.458 244.214 128.311C244.312 128.165 244.374 127.999 244.393 127.828C244.755 126.383 245.077 124.931 245.423 123.486C245.638 122.556 245.423 122.117 244.417 121.905C241.268 121.247 238.103 120.634 234.97 120.007L236.833 111.921L229.315 110.408L227.444 118.403ZM237.072 116.762C240.641 117.324 244.272 117.466 247.88 117.185C249.055 117.023 250.218 116.788 251.359 116.482C252.01 116.323 252.109 115.945 251.614 115.483C251.433 115.317 251.243 115.143 251.045 114.992C248.863 113.468 246.424 112.282 243.824 111.482C240.105 110.23 236.285 109.249 232.398 108.547C227.21 107.465 221.883 107.053 216.571 107.322C215.181 107.344 213.822 107.701 212.63 108.358C213.311 109.511 214.402 110.416 215.721 110.922C217.482 111.776 219.296 112.533 221.154 113.191C222.992 113.849 224.897 114.349 226.925 114.954C227.361 113.085 227.79 111.353 228.153 109.613C228.26 109.107 228.359 109.008 228.977 109.137C230.997 109.576 233.033 109.893 235.061 110.279C236.215 110.506 237.353 110.778 238.466 111.036L237.072 116.762ZM240.65 95.1735C240.37 94.939 239.991 94.3566 239.488 94.228C237.773 93.7968 236.025 93.5169 234.278 93.1993C233.927 93.154 233.571 93.2294 233.277 93.411C232.983 93.5925 232.773 93.8674 232.687 94.1826C231.78 98.0907 230.868 101.999 229.95 105.907C229.802 106.542 229.95 106.83 230.717 106.951C232.753 107.299 234.781 107.707 236.792 108.123C237.542 108.297 237.715 108.055 237.839 107.503C238.424 104.977 239.034 102.465 239.611 99.9389C239.958 98.4866 240.263 97.004 240.65 95.1735Z" fill="#2F2F2F"/>
<path d="M235.531 103.494C235.217 103.652 234.881 103.769 234.533 103.842C234.418 103.842 234.146 103.532 234.137 103.358C234.129 103.184 234.401 102.783 234.475 102.798C234.839 102.891 235.19 103.021 235.522 103.184L235.531 103.494Z" fill="#2F2F2F"/>
<path opacity="0.2" d="M250.608 344.42C250.608 344.42 247.088 383.474 252.175 392.944C257.261 402.414 259.816 467.148 257.533 475.295C257.533 475.295 273.913 479.077 280.401 473.699C286.888 468.321 296.888 473.495 313.268 468.222C329.648 462.95 317.843 346.667 317.843 346.667L318.346 304.36L291.258 282.228L250.608 344.42Z" fill="black" fill-opacity="0.7"/>
<path d="M272.446 363.202C272.342 363.482 272.176 363.739 271.96 363.958C268.464 366.984 253.535 370.373 240.708 372.801C230.082 374.82 220.923 376.19 220.923 376.19C220.923 376.19 213.892 322.545 213.892 316.909C213.892 311.274 202.557 219.982 202.557 219.982L229.761 218.901L265.892 217.471C265.892 217.471 266.115 219.907 266.478 224.173C268.745 251.336 276.98 352.491 272.446 363.202Z" fill="#5AE4A7"/>
<path opacity="0.2" d="M272.445 363.202L240.707 369.193L228.721 371.462C225.473 368.535 222.992 368.482 222.992 368.482L222.044 360.275L220.494 346.848L206.834 228.704C209.819 226.828 211.261 222.72 211.261 222.72L229.537 222.115L261.209 221.056L266.436 224.158C268.744 251.336 276.979 352.491 272.445 363.202Z" fill="black" fill-opacity="0.7"/>
<path d="M272.445 363.202L240.707 369.193L228.721 371.462C225.473 368.535 222.992 368.482 222.992 368.482L222.044 360.275L220.494 346.848L206.834 228.704C209.819 226.828 211.261 222.72 211.261 222.72L229.537 222.115L261.209 221.056L266.436 224.158C268.744 251.336 276.979 352.491 272.445 363.202Z" stroke="#1A2E35" stroke-linecap="round" stroke-linejoin="round"/>
<path d="M224.674 328.422L235.267 328.407L235.275 331.448L232.324 332.401L225.539 333.089L224.674 328.422Z" fill="#5AE4A7" stroke="#1A2E35" stroke-linecap="round" stroke-linejoin="round"/>
<path d="M225.325 334.677L233.107 334.435L235.102 335.305L235.003 339.337L225.919 339.435L225.325 334.677Z" fill="#5AE4A7" stroke="#1A2E35" stroke-linecap="round" stroke-linejoin="round"/>
<path d="M226.569 341.122L235.464 340.54L235.357 343.595L231.062 344.987L226.52 344.753L226.569 341.122Z" fill="#5AE4A7" stroke="#1A2E35" stroke-linecap="round" stroke-linejoin="round"/>
<path d="M227.106 346.273L234.278 346.606L234.929 348.301L233.89 350.161L227.468 350.532L226.364 347.658L227.106 346.273Z" fill="#5AE4A7" stroke="#1A2E35" stroke-linecap="round" stroke-linejoin="round"/>
<path d="M235.382 352.173C235.72 353.051 236.066 353.928 236.404 354.813C236.566 355.086 236.655 355.39 236.664 355.7C236.672 356.011 236.6 356.318 236.454 356.598C236.268 356.79 236.032 356.935 235.768 357.019C235.504 357.104 235.221 357.126 234.945 357.082C234.393 357.037 233.849 356.871 233.297 356.848C231.648 356.78 230.09 358.036 228.449 357.763C227.806 356.137 226.191 353.747 228.383 353.013C228.713 352.899 235.613 352.771 235.382 352.173Z" fill="#5AE4A7" stroke="#1A2E35" stroke-linecap="round" stroke-linejoin="round"/>
<path d="M235.349 359.601C235.507 360.229 235.62 360.866 235.687 361.507C235.77 362.332 235.687 363.308 234.954 363.777C234.536 363.993 234.065 364.108 233.585 364.11L227.872 364.586C227.788 363.597 227.769 362.604 227.815 361.613C228.153 360.441 227.913 360.532 229.134 360.055C231.063 359.299 233.371 360.501 235.349 359.601Z" fill="#5AE4A7" stroke="#1A2E35" stroke-linecap="round" stroke-linejoin="round"/>
<path d="M214.584 231.381C214.584 231.381 216.744 250.488 216.834 254.263" stroke="#1A2E35" stroke-linecap="round" stroke-linejoin="round"/>
<path d="M219.225 231.563L220.239 242.092" stroke="#1A2E35" stroke-linecap="round" stroke-linejoin="round"/>
<path d="M235.316 227.584L236.627 239.921L238.449 240.08L237.855 227.697L235.316 227.584Z" fill="#5AE4A7" stroke="#1A2E35" stroke-linecap="round" stroke-linejoin="round"/>
<path opacity="0.2" d="M272.445 363.202C272.341 363.482 272.176 363.739 271.959 363.958C268.464 366.984 253.535 370.373 240.707 372.801V364.654L222.044 360.259L219.225 359.601L220.494 346.833L225.325 298.044L229.537 222.115L229.719 218.885L265.85 217.456C265.85 217.456 266.073 219.891 266.436 224.158C268.744 251.336 276.979 352.491 272.445 363.202Z" fill="black" fill-opacity="0.7"/>
<path d="M272.446 363.202C272.342 363.482 272.176 363.739 271.96 363.958C268.464 366.984 253.535 370.373 240.708 372.801C230.082 374.82 220.923 376.19 220.923 376.19C220.923 376.19 213.892 322.545 213.892 316.909C213.892 311.274 202.557 219.982 202.557 219.982L229.761 218.901L265.892 217.471C265.892 217.471 266.115 219.907 266.478 224.173C268.745 251.336 276.98 352.491 272.446 363.202Z" stroke="#1A2E35" stroke-linecap="round" stroke-linejoin="round"/>
<path d="M291.587 484.932C291.818 483.018 288.537 455.575 288.479 452.595C288.289 444.411 285.816 433.722 285.816 433.722C282.296 425.477 279.559 406.491 270.154 394.268C260.748 382.044 260.772 367.733 259.214 355.539C257.656 343.346 258.035 344.412 258.39 333.603C258.678 325.476 258.284 317.341 257.211 309.269C256.436 302.091 254.87 289.459 257.211 283.551C259.552 277.644 265.685 276.32 272.388 282.19C279.09 288.06 281.876 312.265 281.876 315.29C281.876 318.316 281.876 327.59 284.225 331.175C284.225 331.175 297.514 324.935 297.514 323.218C297.514 321.501 297.127 306.274 299.08 305.457L291.265 282.243L306.104 277.417C308.893 279.712 311.303 282.367 313.259 285.299C314.932 287.73 316.332 290.31 317.439 292.999C323.696 308.218 333.745 318.838 335.814 323.218C337.883 327.597 335.814 362.37 335.814 368.837C335.814 375.304 331.272 405.145 331.387 410.115C331.478 413.708 334.149 427.225 336.803 437.573C337.834 441.559 343.785 470.461 344.659 472.761L291.587 484.932Z" fill="white"/>
<path opacity="0.4" d="M303.276 303.944C303.177 305.896 305.749 321.433 305.749 321.433C307.514 325.298 297.91 338.497 297.91 338.497C295.832 339.579 294.926 346.213 294.926 346.213C288.43 344.889 273.542 331.152 273.542 331.152C273.542 331.152 271.753 336.78 269.799 350.713C267.845 364.647 280.351 397.747 285.684 420.606C291.018 443.465 288.504 452.595 288.504 452.595C288.289 444.411 285.816 433.722 285.816 433.722C282.296 425.477 279.559 406.491 270.154 394.268C260.748 382.044 260.772 367.733 259.214 355.539C257.656 343.346 258.035 344.412 258.39 333.603C258.678 325.476 258.284 317.341 257.211 309.269C256.436 302.091 254.87 289.459 257.211 283.551C259.552 277.644 265.685 276.32 272.388 282.19C279.09 288.06 281.876 312.265 281.876 315.29C281.876 318.316 281.876 327.59 284.225 331.175C284.225 331.175 297.514 324.935 297.514 323.218C297.514 321.501 297.127 306.274 299.08 305.457L291.265 282.243L306.104 277.417C308.893 279.712 311.303 282.367 313.259 285.299C308.445 294.111 303.334 302.726 303.276 303.944Z" fill="#5AE4A7"/>
<path opacity="0.4" d="M328.197 412.535C328.848 407.104 330.794 394.17 332.03 386.099C330.522 392.399 328.098 395.592 328.098 395.592C328.098 395.592 332.311 349.329 332.723 346.538C333.135 343.747 337.389 331.047 335.822 323.195C337.9 327.56 335.822 362.347 335.822 368.814C335.822 375.282 331.28 405.122 331.396 410.092C331.486 413.685 335.723 436.824 338.378 447.156C332.649 439.547 327.546 418.004 328.197 412.535Z" fill="#5AE4A7"/>
<path d="M344.668 472.739C341.543 464.486 331.519 415.077 331.396 410.092C331.272 405.107 335.822 375.297 335.822 368.807C335.822 362.317 337.892 327.56 335.822 323.188C333.753 318.816 323.704 308.195 317.447 292.969C315.08 287.018 311.193 281.675 306.112 277.387L291.274 282.228L299.081 305.457C297.127 306.274 297.514 321.493 297.514 323.218C297.514 324.943 284.226 331.175 284.226 331.175C281.876 327.582 281.876 318.263 281.876 315.291C281.876 312.318 279.139 288.143 272.437 282.258C265.735 276.373 259.602 277.72 257.252 283.62C254.903 289.52 256.428 302.129 257.252 309.338C258.326 317.409 258.717 325.545 258.423 333.672C258.036 344.488 257.648 343.414 259.247 355.608C260.847 367.801 260.814 382.143 270.195 394.344C279.576 406.545 282.313 425.546 285.858 433.791C285.858 433.791 292.502 477.829 291.628 485" stroke="#1A2E35" stroke-linecap="round" stroke-linejoin="round"/>
<path d="M284.226 331.175C284.226 331.175 286.567 341.213 291.843 346.236" stroke="#1A2E35" stroke-linecap="round" stroke-linejoin="round"/>
<path d="M285.652 335.714C285.652 335.714 295.544 338.49 299.666 338.664" stroke="#1A2E35" stroke-linecap="round" stroke-linejoin="round"/>
<path d="M297.515 323.187C297.515 323.187 304.546 320.207 309.056 322" stroke="#1A2E35" stroke-linecap="round" stroke-linejoin="round"/>
<path d="M299.081 305.457C299.081 305.457 304.546 304.996 305.725 302.484" stroke="#1A2E35" stroke-linecap="round" stroke-linejoin="round"/>
<path d="M271.959 396.832C271.959 396.832 282.47 408.799 285.594 414.895" stroke="#1A2E35" stroke-linecap="round" stroke-linejoin="round"/>
<path d="M333.086 344.42C331.322 353.921 328.964 379.926 328.197 384.586" stroke="#1A2E35" stroke-linecap="round" stroke-linejoin="round"/>
<path d="M336.449 326.486C336.738 335.094 334.454 339.579 334.454 339.579" stroke="#1A2E35" stroke-linecap="round" stroke-linejoin="round"/>
<path d="M255.637 205.981L328.099 223.5C328.099 223.5 302.618 294.406 297.408 303.188L288.777 364.995C288.777 364.995 242.497 363.134 221.22 357.226C221.22 357.226 234.666 292.848 235.391 284.278C236.116 275.707 255.637 205.981 255.637 205.981Z" fill="#5AE4A7"/>
<path opacity="0.2" d="M240.056 280.496L256.016 217.864C256.016 217.864 262.891 214.733 265.546 211.881L317.48 225.421C317.48 225.421 317.637 230.088 320.605 233.083L294.39 302.318L288.034 353.369C288.034 353.369 279.584 353.996 278.777 359.73C278.777 359.73 251.391 361.092 233.025 356.644C233.025 356.644 230.856 350.449 227.551 346.538L240.056 280.496Z" fill="black" fill-opacity="0.7"/>
<path d="M240.056 280.496L256.016 217.864C256.016 217.864 262.891 214.733 265.546 211.881L317.48 225.421C317.48 225.421 317.637 230.088 320.605 233.083L294.39 302.318L288.034 353.369C288.034 353.369 279.584 353.996 278.777 359.73C278.777 359.73 251.391 361.092 233.025 356.644C233.025 356.644 230.856 350.449 227.551 346.538L240.056 280.496Z" stroke="#1A2E35" stroke-linecap="round" stroke-linejoin="round"/>
<path d="M253.345 283.733C253.345 283.733 258.052 267.402 274.655 270.352C291.258 273.302 281.876 293.355 281.876 293.355C281.876 293.355 281.983 309.587 268.505 307.348C256.832 305.457 250.608 299.55 253.345 283.733Z" fill="#5AE4A7" stroke="#1A2E35" stroke-linecap="round" stroke-linejoin="round"/>
<path d="M262.338 223.802C262.338 223.802 257.318 242.455 256.016 246.041" stroke="#1A2E35" stroke-linecap="round" stroke-linejoin="round"/>
<path d="M266.634 225.413L263.707 235.64" stroke="#1A2E35" stroke-linecap="round" stroke-linejoin="round"/>
<path d="M303.277 232.592L313.268 235.814L312.172 238.688H309.047L302.403 237.251L303.277 232.592Z" fill="#5AE4A7" stroke="#1A2E35" stroke-linecap="round" stroke-linejoin="round"/>
<path d="M301.62 238.688L309.047 240.837L310.605 242.274L309.047 246.041L300.449 243.348L301.62 238.688Z" fill="#5AE4A7" stroke="#1A2E35" stroke-linecap="round" stroke-linejoin="round"/>
<path d="M300.449 245.141L309.047 247.312L307.835 250.163H303.277L299.081 248.552L300.449 245.141Z" fill="#5AE4A7" stroke="#1A2E35" stroke-linecap="round" stroke-linejoin="round"/>
<path d="M299.081 250.163L305.725 252.674V254.467L304.06 255.904L297.877 254.286V251.237L299.081 250.163Z" fill="#5AE4A7" stroke="#1A2E35" stroke-linecap="round" stroke-linejoin="round"/>
<path d="M304.777 258.257C304.777 259.195 304.777 260.125 304.777 261.056C304.827 261.363 304.797 261.677 304.692 261.973C304.586 262.268 304.406 262.537 304.167 262.757C303.922 262.882 303.647 262.947 303.367 262.947C303.087 262.947 302.812 262.882 302.568 262.757C302.065 262.546 301.62 262.213 301.1 262.001C299.559 261.426 297.646 262.145 296.204 261.388C296.204 259.656 295.536 256.903 297.852 256.85C298.182 256.903 304.777 258.9 304.777 258.257Z" fill="#5AE4A7" stroke="#1A2E35" stroke-linecap="round" stroke-linejoin="round"/>
<path d="M301.999 265.254C301.924 265.894 301.8 266.528 301.628 267.152C301.405 267.954 300.985 268.854 300.111 269.066C299.636 269.144 299.148 269.107 298.693 268.96L293.145 267.636C293.42 266.679 293.764 265.739 294.175 264.823C294.917 263.817 294.662 263.832 295.981 263.756C298.066 263.658 299.831 265.496 301.999 265.254Z" fill="#5AE4A7" stroke="#1A2E35" stroke-linecap="round" stroke-linejoin="round"/>
<path d="M283.245 226.669L279.922 238.689L281.588 239.407L285.594 227.569L283.245 226.669Z" fill="#5AE4A7" stroke="#1A2E35" stroke-linecap="round" stroke-linejoin="round"/>
<path d="M241.524 307.348L251.779 309.784L250.955 312.726L247.838 312.969L241.087 312.061L241.524 307.348Z" fill="#5AE4A7" stroke="#1A2E35" stroke-linecap="round" stroke-linejoin="round"/>
<path d="M240.444 313.551L248.045 315.117L249.735 316.425L248.523 320.298L239.71 318.293L240.444 313.551Z" fill="#5AE4A7" stroke="#1A2E35" stroke-linecap="round" stroke-linejoin="round"/>
<path d="M239.875 320.079L248.646 321.569L247.706 324.504L243.164 324.859L238.828 323.581L239.875 320.079Z" fill="#5AE4A7" stroke="#1A2E35" stroke-linecap="round" stroke-linejoin="round"/>
<path d="M238.985 325.192L245.835 327.166L246 328.952L244.483 330.517L238.168 329.39L237.88 326.357L238.985 325.192Z" fill="#5AE4A7" stroke="#1A2E35" stroke-linecap="round" stroke-linejoin="round"/>
<path d="M245.373 332.809C245.464 333.739 245.555 334.67 245.637 335.6C245.718 335.902 245.72 336.217 245.642 336.519C245.565 336.822 245.411 337.103 245.192 337.34C244.96 337.482 244.692 337.568 244.413 337.589C244.135 337.61 243.856 337.566 243.601 337.461C243.082 337.295 242.603 337 242.076 336.848C240.477 336.402 238.646 337.264 237.13 336.621C236.957 334.897 236.05 332.212 238.366 332C238.721 331.969 245.423 333.444 245.373 332.809Z" fill="#5AE4A7" stroke="#1A2E35" stroke-linecap="round" stroke-linejoin="round"/>
<path d="M243.305 339.995C243.288 340.637 243.222 341.276 243.107 341.909C242.958 342.733 242.62 343.656 241.771 343.944C241.306 344.053 240.818 344.053 240.353 343.944L234.707 343.089C234.895 342.112 235.151 341.146 235.473 340.199C236.116 339.14 235.861 339.178 237.171 338.997C239.232 338.739 241.145 340.404 243.305 339.995Z" fill="#5AE4A7" stroke="#1A2E35" stroke-linecap="round" stroke-linejoin="round"/>
<path d="M284.226 348.792C284.226 348.792 286.567 324.7 286.567 322.318" stroke="#1A2E35" stroke-linecap="round" stroke-linejoin="round"/>
<path d="M279.535 347.718C279.535 347.718 280.508 335.199 280.706 333.028" stroke="#1A2E35" stroke-linecap="round" stroke-linejoin="round"/>
<path d="M261.201 338.679L258.036 352.915H261.201L263.509 338.679H261.201Z" fill="#5AE4A7" stroke="#1A2E35" stroke-linecap="round" stroke-linejoin="round"/>
<path opacity="0.2" d="M297.613 302.847C290.762 301.531 284.646 299.602 280.12 296.796C280.12 296.796 283.417 305.442 295.024 320.184L288.776 364.987C288.776 364.987 258.571 363.777 235.745 360.191C242.76 342.037 255.488 307.704 253.996 300.896C251.952 291.547 259.173 280.51 259.173 280.51C282.008 276.728 304.15 260.904 319.351 247.516C311.611 268.552 301.042 296.645 297.613 302.847Z" fill="black" fill-opacity="0.7"/>
<path d="M255.637 205.981L328.099 223.5C328.099 223.5 302.618 294.406 297.408 303.188L288.777 364.995C288.777 364.995 242.497 363.134 221.22 357.226C221.22 357.226 234.666 292.848 235.391 284.278C236.116 275.707 255.637 205.981 255.637 205.981Z" stroke="#1A2E35" stroke-linecap="round" stroke-linejoin="round"/>
<path d="M295.799 347.121L285.594 414.896C283.319 410.463 277.128 402.899 273.921 399.117C272.742 397.702 271.959 396.847 271.959 396.847L270.154 394.268C260.772 382.075 260.772 367.733 259.214 355.54C257.656 343.346 258.035 344.413 258.39 333.604C258.678 325.477 258.284 317.341 257.211 309.27C256.436 302.091 254.87 289.459 257.211 283.552C258.357 280.67 260.426 278.877 262.982 278.491C265.537 278.105 268.942 279.202 272.355 282.19C279.065 288.075 281.802 312.25 281.802 315.23C281.802 318.211 281.802 327.53 284.151 331.115C284.225 331.175 290.523 342.098 295.799 347.121Z" fill="white"/>
<path opacity="0.4" d="M269.37 389.42C271.505 391.923 272.956 395.531 273.921 399.102C272.742 397.687 271.959 396.832 271.959 396.832L270.154 394.268C260.772 382.075 260.772 367.733 259.214 355.54C257.656 343.346 258.035 344.413 258.39 333.604C258.678 325.477 258.284 317.341 257.211 309.27C256.436 302.091 254.87 289.459 257.211 283.552C258.357 280.67 260.426 278.877 262.982 278.491C267.928 279.785 272.874 284.399 274.58 292.296C277.507 305.548 264.177 294.837 261.086 306.07C257.994 317.303 262.487 320.336 264.334 323.165C266.18 325.994 263.822 332.242 261.086 340.608C258.349 348.974 263.509 382.559 269.37 389.42Z" fill="#5AE4A7"/>
<path d="M295.8 347.12C290.524 342.098 284.259 331.153 284.259 331.153C281.909 327.56 281.909 318.241 281.909 315.268C281.909 312.295 279.172 288.12 272.47 282.235C265.768 276.35 259.635 277.697 257.286 283.597C254.936 289.497 256.461 302.106 257.286 309.315C258.359 317.386 258.75 325.522 258.456 333.649C258.069 344.465 257.681 343.391 259.281 355.585C260.88 367.778 260.847 382.12 270.228 394.321L272.034 396.877C272.034 396.877 282.544 408.844 285.668 414.941" stroke="#1A2E35" stroke-linecap="round" stroke-linejoin="round"/>
<path d="M261.21 318.437C261.21 318.437 270.154 314.186 274.655 314.534" stroke="#1A2E35" stroke-linecap="round" stroke-linejoin="round"/>
<path opacity="0.2" d="M144.026 143.584C144.026 143.584 121.357 120.688 119.79 119.25C118.224 117.813 117.053 93.4265 112.758 82.6703C108.464 71.914 106.353 8.78361 106.353 8.78361C106.353 8.78361 102.231 4.12409 90.6903 6.63539C79.1492 9.14669 67.8225 4.47204 54.9213 11.2873C42.02 18.1026 67.0394 115.673 67.0394 115.673L92.4214 189.9L144.026 143.584Z" fill="black" fill-opacity="0.7"/>
<path d="M159.607 143.743C159.607 143.743 149.451 203.281 138.891 211.17C132.774 215.708 123.228 217.789 114.778 217.501C108.653 217.305 103.081 215.89 99.7997 213.326C91.9848 207.222 81.0372 203.999 75.58 200.051C70.1227 196.102 70.1062 182.161 66.5862 170.278C63.0662 158.395 57.9798 158.085 56.8175 146.254C55.6552 134.424 50.948 98.1994 42.4489 88.1542C33.9497 78.109 33.7519 70.212 30.2648 59.9928C26.7778 49.7737 1 12.785 1 12.785L63.7174 1C63.7174 1 69.8836 24.4489 76.4868 43.5181C79.6193 52.5951 82.8508 60.6887 85.5547 64.8415C90.7524 72.8743 95.2562 81.2685 99.0248 89.9469C106.114 96.7546 109.997 111.883 111.176 125.097L127.952 133.69C140.845 136.928 159.607 143.743 159.607 143.743Z" fill="white"/>
<path opacity="0.4" d="M159.607 143.743C159.607 143.743 149.451 203.281 138.891 211.17C132.774 215.708 123.228 217.789 114.778 217.501C94.7218 212.963 89.3304 202.706 86.61 200.225C82.9993 196.919 78.2428 176.776 80.8395 165.021C83.4362 153.266 81.5649 148.947 79.4134 143.221C74.6486 130.521 89.1985 123.691 90.6989 118.887C92.1992 114.084 91.6634 87.2086 85.1344 78.4645C81.6556 73.8201 72.6866 49.8417 76.4704 43.5181C79.603 52.5951 82.8345 60.6887 85.5384 64.8414C90.736 72.8743 95.2398 81.2684 99.0084 89.9468C106.098 96.7546 109.981 111.883 111.16 125.097L127.935 133.69C140.845 136.928 159.607 143.743 159.607 143.743Z" fill="#5AE4A7"/>
<path d="M83.0241 139.568C83.0241 139.568 79.4876 143.388 76.3633 143.388" stroke="#1A2E35" stroke-linecap="round" stroke-linejoin="round"/>
<path d="M90.7156 152.465C90.7156 152.465 86.907 159.885 80.8232 161.496" stroke="#1A2E35" stroke-linecap="round" stroke-linejoin="round"/>
<path d="M83.9805 195.928C83.9805 195.928 92.5786 192.517 93.947 186.783" stroke="#1A2E35" stroke-linecap="round" stroke-linejoin="round"/>
<path d="M127.952 133.698C127.952 133.698 125.8 136.209 125.8 138.183" stroke="#1A2E35" stroke-linecap="round" stroke-linejoin="round"/>
<path d="M63.7174 1C63.7174 1 77.138 51.9219 85.5547 64.8415C90.7524 72.8743 95.2562 81.2685 99.0248 89.9469C106.114 96.7546 109.997 111.883 111.176 125.105L127.952 133.698C140.845 136.928 159.607 143.743 159.607 143.743C159.607 143.743 149.451 203.281 138.891 211.17C128.331 219.059 107.631 219.415 99.7997 213.326C91.9683 207.237 81.0372 203.999 75.6047 200.051C70.1722 196.102 70.1062 182.161 66.5862 170.278C63.0662 158.395 57.9798 158.085 56.8175 146.254C55.6552 134.424 50.948 98.1994 42.4489 88.1542C33.9497 78.109 33.7519 70.212 30.2648 59.9928C26.7778 49.7737 1 12.785 1 12.785" stroke="#1A2E35" stroke-linecap="round" stroke-linejoin="round"/>
<path d="M183.373 139.885L79.6357 286.403L104.128 288.907L178.51 291.743L186.127 161.421L183.373 139.885Z" fill="#1A2E35" stroke="#1A2E35" stroke-linecap="round" stroke-linejoin="round"/>
<path d="M183.373 139.878L173.786 289.239L79.6357 286.403L87.0715 171.957L89.3797 136.421L130.4 137.934L183.373 139.878Z" fill="#757575"/>
<path opacity="0.4" d="M83.98 285.087C89.1708 283.841 94.5085 283.183 99.8737 283.128C109.51 282.909 115.66 284.588 123.582 280.995C131.504 277.402 136.615 283.869 144.191 280.284C151.767 276.698 155.262 270.934 159.623 271.063C163.984 271.192 170.505 206.972 172.591 195.928C174.676 184.885 179.136 154.068 180.669 147.82L172.055 287.039L83.98 285.087Z" fill="white"/>
<path opacity="0.4" d="M142.675 195.928L146.285 192.275C146.285 192.275 144.043 190.883 142.675 192.275C141.306 193.667 142.675 195.928 142.675 195.928Z" fill="white"/>
<path opacity="0.2" d="M125.214 193.046C111.2 199.226 96.0321 177.57 90.715 174.59C89.4032 173.832 88.182 172.95 87.0713 171.958L89.3795 136.406L130.4 137.919C130.136 143.214 130.227 149.061 131.513 152.45C134.266 159.772 139.212 186.874 125.214 193.046Z" fill="black" fill-opacity="0.7"/>
<path opacity="0.4" d="M141.694 164.257C139.971 161.436 142.089 186.783 142.089 186.783C142.089 186.783 145.214 169.991 141.694 164.257Z" fill="white"/>
<path d="M183.373 139.878L173.786 289.239L79.6357 286.403L87.0715 171.957L89.3797 136.421L130.4 137.934L183.373 139.878Z" stroke="#1A2E35" stroke-linecap="round" stroke-linejoin="round"/>
<path opacity="0.4" d="M178.617 290.034L175.18 289.24L183.374 152.465L184.825 161.496L178.617 290.034Z" fill="white"/>
<path d="M123.335 156.58C123.453 155.544 123.651 154.518 123.929 153.508C123.969 153.366 124.021 153.227 124.086 153.092C124.316 152.593 124.514 152.086 124.778 151.58C125.042 151.073 125.479 150.483 125.85 149.938C125.998 149.726 126.171 149.522 126.344 149.318C126.517 149.114 126.897 148.683 127.169 148.395C127.84 147.692 128.607 147.072 129.452 146.549C129.939 146.27 130.392 145.937 130.903 145.702C131.494 145.376 132.128 145.122 132.791 144.946C132.898 144.929 133.001 144.896 133.096 144.848C133.58 144.607 134.113 144.46 134.662 144.416C134.728 144.424 134.794 144.424 134.86 144.416C135.832 144.137 136.852 144.022 137.869 144.076C139.38 144.081 140.886 144.251 142.353 144.583C142.54 144.611 142.723 144.659 142.897 144.726C143.592 144.927 144.268 145.18 144.917 145.483C145.586 145.791 146.223 146.153 146.821 146.565C147.184 146.852 147.588 147.094 147.951 147.382C148.971 148.177 149.859 149.105 150.589 150.135C150.927 150.604 151.166 151.133 151.496 151.648C151.825 152.162 152.023 152.956 152.402 153.561C152.433 153.616 152.455 153.675 152.468 153.735C152.851 155.077 153.051 156.456 153.062 157.843C152.982 159.155 152.781 160.458 152.46 161.738C152.407 161.941 152.332 162.139 152.237 162.328C152.015 162.843 151.809 163.365 151.537 163.841C151.226 164.398 150.877 164.937 150.49 165.452C150.144 165.914 149.731 166.337 149.344 166.768C148.62 167.574 147.773 168.28 146.83 168.864C146.351 169.179 145.852 169.47 145.338 169.734C144.757 170.057 144.133 170.311 143.483 170.49C143.417 170.502 143.353 170.523 143.293 170.55C142.721 170.82 142.096 170.985 141.455 171.035C141.35 171.051 141.247 171.079 141.15 171.118C140.682 171.276 140.189 171.361 139.691 171.367C138.823 171.409 137.953 171.409 137.086 171.367C135.973 171.262 134.868 171.057 133.788 170.868C133.504 170.804 133.228 170.712 132.964 170.596L131.703 170.112L131.554 170.059C130.952 169.734 130.342 169.439 129.765 169.083C129.278 168.761 128.811 168.415 128.364 168.047C127.455 167.378 126.668 166.582 126.031 165.687C125.734 165.248 125.363 164.847 125.116 164.386C124.76 163.83 124.483 163.236 124.292 162.616C124.26 162.483 124.208 162.356 124.135 162.237C123.922 161.897 123.795 161.517 123.764 161.126C123.755 160.976 123.725 160.829 123.673 160.687C123.381 159.855 123.264 158.98 123.327 158.107C123.294 157.563 123.319 157.056 123.335 156.58ZM131.274 159.363C131.247 160.005 131.348 160.646 131.571 161.254C131.615 161.37 131.682 161.478 131.769 161.572C132.075 162.023 132.512 162.386 133.03 162.623C133.141 162.671 133.246 162.729 133.343 162.797C133.887 163.145 134.551 163.299 135.21 163.229C135.869 163.16 136.477 162.871 136.921 162.419C137.275 162.071 137.531 162.109 137.786 162.54C137.809 162.569 137.828 162.599 137.844 162.631C137.977 162.887 138.168 163.115 138.403 163.299C138.639 163.483 138.915 163.619 139.213 163.697L139.559 163.803C140.085 163.976 140.657 163.99 141.193 163.843C141.728 163.696 142.198 163.396 142.535 162.986C142.922 162.613 143.239 162.183 143.475 161.716C143.518 161.594 143.611 161.494 143.734 161.434C143.857 161.375 144.001 161.362 144.134 161.398C144.53 161.474 144.958 161.587 145.329 161.685C145.453 161.685 145.568 161.791 145.7 161.821C145.819 161.843 145.941 161.843 146.06 161.82C146.179 161.797 146.291 161.753 146.39 161.689C146.489 161.625 146.574 161.544 146.638 161.45C146.702 161.356 146.745 161.25 146.764 161.141C146.887 160.732 146.764 160.49 146.195 160.331C145.89 160.241 145.568 160.18 145.272 160.074C145.072 160.005 144.887 159.902 144.728 159.772C144.633 159.692 144.57 159.585 144.549 159.468C144.528 159.352 144.551 159.232 144.612 159.129C144.659 159.025 144.741 158.938 144.847 158.882C144.953 158.826 145.076 158.803 145.197 158.818C145.511 158.864 145.824 158.94 146.137 159.008C146.354 159.069 146.574 159.119 146.797 159.159C147.03 159.174 147.262 159.112 147.451 158.984C147.64 158.857 147.773 158.672 147.827 158.463C147.868 158.344 147.858 158.216 147.8 158.104C147.742 157.992 147.64 157.904 147.514 157.858C147.341 157.782 147.159 157.737 146.986 157.669C146.607 157.517 146.211 157.389 145.849 157.207C145.756 157.168 145.674 157.112 145.608 157.04C145.541 156.969 145.493 156.886 145.465 156.796C145.438 156.706 145.432 156.612 145.449 156.519C145.465 156.427 145.503 156.339 145.56 156.262L145.692 156.035C145.972 155.601 146.143 155.115 146.195 154.613C146.215 154.42 146.16 154.226 146.04 154.067C145.92 153.907 145.743 153.792 145.539 153.74C145.335 153.689 145.118 153.705 144.926 153.785C144.734 153.866 144.579 154.006 144.488 154.182C144.406 154.318 144.34 154.462 144.258 154.605C144.214 154.736 144.139 154.856 144.038 154.957C143.937 155.057 143.813 155.136 143.674 155.187C143.536 155.238 143.387 155.259 143.238 155.25C143.09 155.241 142.945 155.202 142.815 155.135C142.353 154.983 141.875 154.855 141.405 154.711L140.35 154.363C139.985 154.209 139.607 154.08 139.221 153.977C138.248 153.715 137.29 153.407 136.352 153.055C135.923 152.934 135.808 152.729 135.857 152.298C135.857 152.064 135.956 151.837 135.998 151.61C136.025 151.495 136.013 151.375 135.963 151.266C135.912 151.158 135.827 151.066 135.717 151.005C135.528 150.891 135.33 150.778 135.132 150.679C135.045 150.615 134.941 150.573 134.831 150.556C134.72 150.538 134.607 150.547 134.502 150.581C134.396 150.615 134.302 150.673 134.227 150.75C134.153 150.827 134.101 150.92 134.077 151.02C133.961 151.3 133.895 151.587 133.805 151.867C133.732 152.124 133.642 152.377 133.533 152.623C133.503 152.709 133.455 152.789 133.391 152.857C133.328 152.926 133.25 152.982 133.163 153.023C133.075 153.063 132.98 153.088 132.882 153.095C132.784 153.102 132.686 153.09 132.593 153.062C132.403 153.017 132.222 152.911 132.032 152.858C131.719 152.761 131.396 152.69 131.068 152.646C130.881 152.642 130.698 152.696 130.55 152.8C130.401 152.903 130.295 153.05 130.249 153.216C130.203 153.382 130.219 153.558 130.296 153.714C130.373 153.87 130.506 153.998 130.672 154.076L131.043 154.212C131.414 154.348 131.793 154.477 132.156 154.628C132.273 154.663 132.375 154.729 132.45 154.818C132.525 154.907 132.569 155.015 132.576 155.127C132.57 155.24 132.529 155.348 132.457 155.439C132.386 155.531 132.287 155.601 132.173 155.642C132.032 155.712 131.871 155.744 131.711 155.732C131.476 155.7 131.247 155.634 131.035 155.536C130.722 155.37 130.373 155.269 130.013 155.241C129.851 155.224 129.689 155.263 129.556 155.349C129.424 155.436 129.331 155.564 129.296 155.71C129.241 155.82 129.214 155.941 129.216 156.062C129.218 156.184 129.249 156.304 129.307 156.413C129.365 156.522 129.449 156.618 129.553 156.694C129.656 156.77 129.777 156.824 129.906 156.852C130.244 156.965 130.598 157.041 130.944 157.139C131.059 157.158 131.169 157.199 131.265 157.26C131.362 157.32 131.443 157.399 131.504 157.49C131.564 157.582 131.603 157.684 131.618 157.791C131.632 157.897 131.622 158.005 131.587 158.107C131.587 158.244 131.513 158.372 131.48 158.501C131.414 158.788 131.34 159.076 131.274 159.363Z" fill="white"/>
<path d="M121.332 176.867C121.497 175.944 121.653 174.945 121.859 173.962C121.997 173.463 122.162 172.97 122.354 172.487C122.494 172.101 122.659 171.73 122.807 171.345C122.853 171.229 122.905 171.115 122.964 171.004C123.076 170.778 123.281 170.601 123.534 170.513C123.788 170.425 124.069 170.433 124.316 170.535C124.695 170.656 125.083 170.762 125.462 170.876L126.6 171.216L128.545 171.799C128.804 171.863 129.057 171.944 129.303 172.041C129.986 172.323 130.699 172.538 131.43 172.684C131.563 172.707 131.693 172.743 131.818 172.789C132.741 173.16 133.714 173.387 134.662 173.674C135.61 173.962 136.492 174.302 137.44 174.514C137.761 174.59 138.058 174.741 138.38 174.839C138.701 174.938 139.204 175.104 139.674 175.233L141.075 175.664L142.518 176.11L144.167 176.617C144.661 176.761 145.164 176.897 145.659 177.048C145.996 177.127 146.326 177.228 146.648 177.351C147.273 177.601 147.921 177.799 148.585 177.941C148.895 178.011 149.199 178.105 149.492 178.221C149.705 178.287 149.887 178.415 150.013 178.586C150.138 178.757 150.198 178.961 150.184 179.166C150.195 180.087 150.273 181.007 150.415 181.919C150.457 182.237 150.465 182.555 150.481 182.872C150.498 183.018 150.498 183.165 150.481 183.311C150.478 183.374 150.459 183.435 150.426 183.489C150.393 183.544 150.347 183.592 150.292 183.628C150.237 183.664 150.173 183.689 150.106 183.699C150.039 183.71 149.97 183.707 149.904 183.689C149.76 183.67 149.62 183.626 149.492 183.561C148.974 183.303 148.419 183.112 147.843 182.994C147.423 182.888 147.019 182.751 146.582 182.63L144.876 182.093L143.557 181.677C143.136 181.541 142.732 181.39 142.312 181.269C142.144 181.217 141.969 181.192 141.792 181.193C141.389 181.193 141.248 181.36 141.306 181.73C141.364 182.101 141.438 182.487 141.454 182.857C141.474 183.731 141.369 184.603 141.141 185.452C141.106 185.609 141.051 185.761 140.976 185.906C140.517 186.822 139.831 187.628 138.973 188.258C138.503 188.576 137.976 188.773 137.489 189.06C137.444 189.087 137.394 189.105 137.341 189.113C136.186 189.469 134.972 189.635 133.755 189.605C132.823 189.506 131.892 189.431 130.969 189.31C130.598 189.251 130.236 189.155 129.889 189.022C129.361 188.848 128.842 188.644 128.322 188.455C127.654 188.122 127.01 187.751 126.393 187.343C125.989 187.04 125.569 186.738 125.198 186.428C124.308 185.682 123.549 184.814 122.948 183.856C122.593 183.326 122.404 182.736 122.057 182.207C122.023 182.155 121.998 182.099 121.983 182.04C121.61 181.017 121.399 179.95 121.357 178.871C121.332 178.243 121.315 177.623 121.332 176.867ZM132.873 184.431C133.351 184.431 133.821 184.431 134.291 184.476C134.948 184.445 135.579 184.234 136.104 183.871C136.177 183.837 136.237 183.784 136.278 183.72C136.598 183.327 136.815 182.871 136.912 182.388C136.957 181.622 136.857 180.854 136.615 180.119C136.565 179.957 136.473 179.809 136.346 179.686C136.22 179.564 136.064 179.471 135.89 179.416C135.165 179.143 134.423 178.894 133.681 178.659C133.145 178.485 132.593 178.334 132.032 178.168C131.612 178.039 131.208 177.895 130.779 177.774C130.35 177.653 129.74 177.457 129.221 177.305L126.97 176.647C126.855 176.616 126.736 176.596 126.616 176.587C126.482 176.564 126.344 176.585 126.225 176.646C126.106 176.706 126.014 176.803 125.965 176.92C125.9 177.054 125.858 177.197 125.841 177.343C125.663 178.578 125.924 179.832 126.583 180.921C127.216 181.862 128.059 182.669 129.056 183.289C129.144 183.343 129.238 183.388 129.336 183.425C129.658 183.568 129.971 183.735 130.309 183.856C130.683 184.014 131.072 184.141 131.471 184.234C131.958 184.348 132.428 184.378 132.881 184.431H132.873Z" fill="white"/>
<path d="M115.71 235.163C115.85 234.468 115.974 233.711 116.163 232.97C116.275 232.646 116.418 232.332 116.592 232.032C116.658 231.903 116.749 231.797 116.815 231.676C117.334 230.832 118.077 230.122 118.974 229.611C119.632 229.285 120.316 229.005 121.019 228.772C121.157 228.725 121.301 228.697 121.448 228.689C123.039 228.473 124.661 228.532 126.229 228.862C126.699 228.976 127.169 229.067 127.638 229.165C128.136 229.265 128.61 229.444 129.04 229.695C129.085 229.72 129.132 229.743 129.18 229.763C129.919 230.018 130.62 230.359 131.266 230.776C131.702 231.023 132.111 231.309 132.486 231.631C132.901 231.978 133.295 232.347 133.665 232.735C134.228 233.371 134.725 234.055 135.148 234.778C135.528 235.383 135.643 236.071 135.973 236.684C136.038 236.83 136.075 236.987 136.08 237.145C136.281 238.635 136.175 240.147 135.767 241.6C135.599 242.181 135.341 242.737 135 243.249C134.616 243.832 134.118 244.344 133.533 244.762C132.978 245.166 132.361 245.492 131.703 245.731C131.029 245.962 130.325 246.112 129.609 246.177C128.359 246.322 127.091 246.258 125.866 245.988L123.649 245.481C123.455 245.435 123.268 245.372 123.088 245.292C122.61 245.088 122.132 244.906 121.687 244.664C121.101 244.346 120.549 243.976 119.988 243.62C119.873 243.544 119.766 243.446 119.642 243.371C118.76 242.789 118.012 242.054 117.441 241.207C117.078 240.685 116.757 240.133 116.419 239.588C116.391 239.546 116.368 239.5 116.353 239.452C115.987 238.586 115.77 237.672 115.71 236.744C115.743 236.253 115.71 235.738 115.71 235.163ZM124.704 233.651C123.855 233.622 123.006 233.686 122.173 233.84C121.879 233.902 121.6 234.012 121.349 234.165C121.087 234.329 120.865 234.541 120.699 234.789C120.533 235.037 120.425 235.314 120.384 235.602C120.242 236.349 120.385 237.118 120.788 237.781C121.307 238.66 122.106 239.373 123.08 239.823C123.154 239.854 123.224 239.895 123.286 239.944C123.703 240.235 124.184 240.438 124.696 240.542C124.992 240.617 125.289 240.693 125.578 240.784C126.973 241.209 128.477 241.236 129.889 240.859C130.132 240.8 130.357 240.691 130.548 240.542C131.05 240.162 131.374 239.621 131.455 239.029C131.557 238.265 131.374 237.492 130.936 236.835C130.412 235.999 129.628 235.325 128.685 234.899C128.6 234.865 128.52 234.822 128.446 234.77C127.986 234.448 127.449 234.23 126.88 234.135L125.949 233.893C125.561 233.855 125.132 233.772 124.704 233.681V233.651Z" fill="white"/>
<path d="M113.047 267.357C113.105 266.767 113.162 266.184 113.212 265.594C113.261 265.004 113.492 264.883 114.086 264.974C114.28 265.014 114.47 265.07 114.655 265.14L116.303 265.662L117.639 266.063L119.238 266.555L120.639 266.994C121.052 267.122 121.464 267.258 121.892 267.379C122.321 267.5 122.915 267.667 123.409 267.841C124.495 268.23 125.648 268.44 126.814 268.461C127.163 268.467 127.507 268.378 127.801 268.204C128.094 268.03 128.325 267.78 128.463 267.485C128.858 266.739 128.982 265.896 128.817 265.08C128.802 264.819 128.687 264.571 128.492 264.38C128.298 264.19 128.036 264.068 127.754 264.036C127.084 263.907 126.432 263.712 125.808 263.454C125.447 263.323 125.078 263.212 124.703 263.121C124.441 263.073 124.182 263.01 123.929 262.932C122.925 262.558 121.899 262.239 120.854 261.978C120.219 261.805 119.601 261.57 118.966 261.366L117.26 260.829C116.847 260.7 116.435 260.587 115.998 260.466C115.561 260.345 115.124 260.231 114.712 260.065C114.485 259.965 114.278 259.83 114.102 259.664C114.01 259.59 113.939 259.495 113.898 259.39C113.856 259.284 113.844 259.17 113.863 259.059C113.979 257.886 114.094 256.714 114.218 255.541C114.237 255.419 114.273 255.3 114.325 255.186C114.363 255.093 114.434 255.015 114.527 254.964C114.62 254.913 114.729 254.893 114.836 254.906C115.024 254.922 115.209 254.958 115.388 255.012C115.528 255.05 115.652 255.118 115.792 255.163C117.062 255.541 118.339 255.92 119.609 256.29C120.878 256.661 121.901 257.047 123.063 257.357C123.887 257.591 124.654 257.856 125.454 258.113L128.751 259.134C129.575 259.392 130.35 259.679 131.183 259.891C131.627 259.985 132.046 260.163 132.411 260.413C132.597 260.535 132.751 260.694 132.859 260.879C132.968 261.064 133.029 261.269 133.038 261.479C133.067 262.054 133.164 262.625 133.326 263.181C133.406 263.468 133.445 263.763 133.442 264.059C133.442 265.102 133.442 266.146 133.384 267.19C133.334 268.109 133.187 269.021 132.947 269.913C132.844 270.256 132.703 270.588 132.527 270.904C132.469 271.04 132.362 271.161 132.296 271.29C131.866 272.061 131.194 272.696 130.367 273.113C130.227 273.186 130.078 273.242 129.922 273.279C129.674 273.363 129.435 273.468 129.18 273.537C128.913 273.627 128.637 273.69 128.355 273.726C127.114 273.8 125.868 273.711 124.654 273.461C123.928 273.335 123.221 273.134 122.544 272.863C122.206 272.727 121.826 272.667 121.472 272.561L119.963 272.084L118.513 271.653C118.092 271.532 117.688 271.396 117.26 271.267C116.831 271.139 116.229 270.919 115.701 270.798C114.928 270.6 114.173 270.347 113.443 270.042C112.965 269.86 112.866 269.649 112.907 269.172C112.948 268.695 113.022 268 113.08 267.41L113.047 267.357Z" fill="white"/>
<path d="M133.903 209.975C133.969 209.264 134.043 208.553 134.101 207.849C134.15 207.327 133.994 207.146 133.458 206.987C132.922 206.828 132.403 206.631 131.867 206.472C131.331 206.314 130.968 206.23 130.523 206.102L129.501 205.784C128.932 205.61 128.363 205.421 127.795 205.255C127.226 205.088 126.698 205.005 126.146 204.839C125.818 204.747 125.473 204.716 125.132 204.748C124.79 204.781 124.46 204.876 124.159 205.028C123.964 205.13 123.8 205.276 123.681 205.451C123.256 206.085 123.066 206.828 123.137 207.569L123.31 209.256C123.314 209.304 123.314 209.352 123.31 209.4C123.36 209.944 123.145 210.156 122.552 210.217C121.628 210.262 120.705 210.285 119.782 210.3C119.698 210.312 119.612 210.307 119.529 210.287C119.447 210.268 119.37 210.233 119.303 210.184C119.235 210.136 119.18 210.076 119.139 210.007C119.098 209.939 119.073 209.863 119.065 209.786C118.645 208.515 118.494 207.182 118.619 205.86C118.743 204.982 118.842 204.105 118.966 203.227C119.019 202.762 119.2 202.317 119.493 201.934C119.559 201.857 119.614 201.773 119.658 201.684C120.046 201.008 120.638 200.448 121.365 200.073C122.065 199.738 122.842 199.559 123.632 199.551C124.594 199.471 125.564 199.556 126.492 199.801C127.036 199.922 127.588 200.028 128.141 200.156C128.693 200.285 129.089 200.429 129.559 200.565L131.076 201.034L132.518 201.48L134.084 201.942L135.296 202.312C135.705 202.467 136.124 202.601 136.549 202.713C137.235 202.874 137.908 203.081 138.561 203.333C138.89 203.462 139.245 203.538 139.591 203.643L141.116 204.097L142.476 204.513C142.724 204.589 142.971 204.642 143.21 204.71C143.435 204.757 143.637 204.87 143.785 205.033C143.933 205.196 144.017 205.399 144.026 205.61C144.026 205.92 144.026 206.23 144.026 206.533C144.092 207.289 144.183 208.099 144.257 208.878C144.277 209.13 144.277 209.382 144.257 209.634C144.257 210.134 143.878 210.323 143.433 210.073C142.988 209.872 142.521 209.715 142.04 209.604C141.594 209.483 141.157 209.339 140.712 209.188C140.399 209.082 140.102 208.953 139.781 208.855C139.592 208.796 139.395 208.763 139.195 208.757C139.046 208.742 138.896 208.782 138.778 208.869C138.661 208.955 138.586 209.081 138.569 209.218C138.569 209.4 138.569 209.589 138.52 209.77C138.421 210.897 138.33 212.04 138.231 213.144C138.212 213.328 138.168 213.508 138.099 213.681C138.068 213.797 137.988 213.897 137.877 213.959C137.766 214.022 137.632 214.041 137.506 214.014C137.44 214.021 137.373 214.021 137.308 214.014C136.275 213.756 135.262 213.438 134.274 213.061C133.697 212.796 133.565 212.599 133.639 212.017C133.713 211.435 133.779 210.648 133.845 209.967L133.903 209.975Z" fill="white"/>
<path d="M137.539 225.081C137.436 226.011 137.249 226.932 136.978 227.834C136.905 228.083 136.803 228.324 136.673 228.553C136.541 228.817 136.377 229.074 136.228 229.309C136.198 229.395 136.144 229.472 136.073 229.534C136.001 229.596 135.913 229.641 135.818 229.663C135.723 229.686 135.623 229.686 135.527 229.664C135.432 229.642 135.344 229.598 135.272 229.536C134.904 229.271 134.496 229.057 134.06 228.9C133.928 228.84 133.805 228.757 133.681 228.689L132.807 228.242C132.708 228.189 132.593 228.152 132.486 228.099C132.333 228.035 132.209 227.925 132.134 227.787C132.059 227.65 132.038 227.493 132.073 227.342C132.156 226.983 132.275 226.631 132.428 226.291C132.958 225.218 133.068 224.011 132.741 222.872C132.738 222.837 132.738 222.801 132.741 222.766C132.553 221.831 132.045 220.975 131.29 220.323C130.728 219.852 130.105 219.445 129.435 219.112C129.224 219.007 128.996 218.933 128.759 218.893C128.116 218.765 127.482 218.636 126.83 218.53C125.934 218.364 125.008 218.393 124.127 218.613C123.694 218.7 123.292 218.884 122.955 219.148C122.619 219.411 122.358 219.748 122.198 220.126C121.754 221.146 121.629 222.259 121.835 223.341C121.917 223.764 121.958 224.196 122 224.619C122.041 225.043 121.876 225.27 121.39 225.308C121.151 225.319 120.911 225.319 120.672 225.308L118.471 225.277C118.368 225.292 118.263 225.287 118.162 225.263C118.061 225.238 117.967 225.195 117.886 225.135C117.804 225.075 117.737 225 117.689 224.915C117.641 224.831 117.613 224.737 117.606 224.642C117.59 224.508 117.556 224.376 117.507 224.249C117.22 223.546 117.094 222.797 117.136 222.047C117.132 220.683 117.296 219.323 117.622 217.993C117.695 217.58 117.879 217.189 118.158 216.858C118.204 216.812 118.241 216.758 118.265 216.699C118.514 216.155 118.878 215.661 119.337 215.247C119.666 214.925 120.025 214.629 120.409 214.362C121.075 213.932 121.809 213.598 122.585 213.371C122.649 213.347 122.715 213.329 122.783 213.318C124.709 212.92 126.714 212.975 128.611 213.477C129.015 213.606 129.435 213.704 129.848 213.802C130.304 213.897 130.738 214.069 131.125 214.309C131.179 214.347 131.237 214.38 131.298 214.408C131.948 214.639 132.553 214.966 133.087 215.376C133.569 215.702 134.027 216.059 134.456 216.442C134.87 216.827 135.251 217.242 135.593 217.683C135.953 218.167 136.278 218.673 136.566 219.196C136.885 219.907 137.16 220.634 137.391 221.374C137.463 221.546 137.508 221.727 137.522 221.911C137.641 222.965 137.646 224.026 137.539 225.081Z" fill="white"/>
<path d="M114.894 248.317C114.935 247.864 114.976 247.41 115.026 246.956C115.03 246.821 115.047 246.687 115.075 246.555C115.166 246.033 115.471 245.836 116.015 246.018C117.045 246.277 118.058 246.59 119.049 246.956C119.411 247.081 119.783 247.182 120.161 247.259L121.382 247.622L123.17 248.174L124.531 248.613L125.792 248.991L127.441 249.498C127.91 249.641 128.389 249.77 128.858 249.906L130.112 250.292C130.656 250.458 131.208 250.617 131.76 250.791C132.519 251.041 133.277 251.283 134.011 251.547C134.472 251.721 134.571 251.948 134.522 252.402L134.176 255.927C134.18 255.987 134.18 256.048 134.176 256.109C134.11 256.441 133.928 256.593 133.566 256.555C133.281 256.531 133.003 256.464 132.741 256.358C132.228 256.145 131.696 255.973 131.15 255.844C130.656 255.715 130.161 255.541 129.675 255.39L128.496 255.027C127.927 254.845 127.358 254.671 126.781 254.505L125.215 254.044C124.852 253.938 124.489 253.809 124.118 253.696L122.519 253.204L121.349 252.848L119.634 252.319L118.57 251.994L116.823 251.457C116.419 251.336 115.998 251.222 115.611 251.078C115.438 251.011 115.278 250.917 115.141 250.799C115.01 250.703 114.909 250.577 114.848 250.433C114.787 250.289 114.769 250.134 114.795 249.982C114.861 249.422 114.902 248.855 114.96 248.295L114.894 248.317Z" fill="white"/>
<path d="M120.359 191.617C120.417 191.057 120.475 190.49 120.524 189.93C120.573 189.37 120.78 189.219 121.348 189.287C121.667 189.323 121.978 189.402 122.272 189.521C123.017 189.826 123.793 190.064 124.588 190.232C124.81 190.279 125.026 190.347 125.231 190.437C125.919 190.71 126.63 190.93 127.358 191.095C127.705 191.182 128.046 191.289 128.38 191.412L129.856 191.874L131.373 192.343L131.785 192.494L135.832 193.682L137.044 194.06C137.588 194.226 138.124 194.415 138.693 194.552C139.781 194.816 140.028 195.119 139.921 196.148C139.814 197.176 139.748 198.008 139.649 198.939C139.634 199.134 139.592 199.327 139.526 199.514C139.493 199.616 139.422 199.703 139.326 199.762C139.229 199.82 139.113 199.845 138.998 199.831C138.837 199.82 138.677 199.798 138.52 199.763C137.827 199.622 137.15 199.42 136.5 199.158C136.137 199.007 135.742 198.924 135.363 198.803L133.623 198.266L132.362 197.895C131.937 197.789 131.519 197.663 131.109 197.517C130.531 197.288 129.932 197.106 129.32 196.972C128.974 196.889 128.636 196.768 128.29 196.662L126.468 196.095L125.338 195.739C124.91 195.595 124.514 195.452 124.052 195.323L122.305 194.786L121.01 194.393C120.351 194.204 120.186 193.969 120.186 193.341C120.186 192.713 120.293 192.192 120.351 191.617H120.359Z" fill="white"/>
<path d="M145.461 202.237C145.184 202.204 144.908 202.156 144.637 202.093C144.4 202.019 144.175 201.914 143.969 201.783C143.678 201.601 143.402 201.399 143.145 201.178C142.611 200.672 142.245 200.037 142.09 199.347C141.989 199.015 141.965 198.666 142.02 198.325C142.076 197.983 142.209 197.657 142.411 197.365C142.485 197.252 142.576 197.139 142.642 197.018C142.857 196.641 143.186 196.329 143.59 196.121C143.994 195.913 144.455 195.817 144.917 195.845C145.278 195.84 145.635 195.907 145.964 196.042C146.789 196.333 147.487 196.864 147.951 197.555C148.123 197.802 148.254 198.073 148.338 198.356C148.498 198.774 148.567 199.216 148.544 199.657C148.487 200.259 148.263 200.837 147.893 201.337C147.696 201.639 147.413 201.886 147.075 202.052C146.737 202.219 146.356 202.298 145.972 202.282L145.453 202.244L145.461 202.237Z" fill="white"/>
<path d="M139.649 252.591L140.639 252.788C140.947 252.864 141.231 253.01 141.463 253.211C141.873 253.508 142.232 253.86 142.526 254.255C142.611 254.365 142.686 254.481 142.749 254.603C143.007 255.145 143.114 255.737 143.059 256.326C143.005 256.916 142.79 257.483 142.436 257.977C142.168 258.327 141.787 258.591 141.348 258.733C140.871 258.933 140.338 258.994 139.823 258.907C139.509 258.839 139.221 258.703 138.916 258.62C138.26 258.381 137.69 257.981 137.267 257.462C136.922 257.023 136.694 256.516 136.604 255.98C136.514 255.445 136.563 254.898 136.748 254.384C136.997 253.741 137.473 253.193 138.1 252.826C138.28 252.722 138.482 252.655 138.693 252.629C139.015 252.591 139.336 252.606 139.649 252.591Z" fill="white"/>
<path d="M133.829 158.047C133.961 157.457 134.068 156.859 134.225 156.277C134.381 155.694 134.744 155.483 135.412 155.604C135.568 155.637 135.72 155.685 135.865 155.747L137.432 156.33C137.531 156.364 137.627 156.404 137.72 156.451C137.784 156.479 137.841 156.52 137.887 156.569C137.933 156.619 137.968 156.677 137.988 156.74C138.008 156.803 138.014 156.869 138.004 156.933C137.995 156.998 137.971 157.061 137.934 157.116C137.69 157.566 137.48 158.031 137.308 158.508C137.052 159.038 136.655 159.501 136.154 159.855C135.878 160.032 135.542 160.113 135.207 160.084C134.872 160.055 134.558 159.917 134.324 159.696C134.156 159.545 134.024 159.363 133.939 159.162C133.854 158.962 133.816 158.746 133.829 158.531V158.054V158.047Z" fill="white"/>
<path d="M139.171 158.864C139.254 158.592 139.394 158.107 139.567 157.555C139.584 157.488 139.616 157.425 139.661 157.37C139.705 157.314 139.762 157.268 139.827 157.233C139.891 157.199 139.963 157.176 140.038 157.168C140.112 157.16 140.188 157.165 140.26 157.185C141.048 157.334 141.8 157.616 142.477 158.017C142.546 158.053 142.607 158.101 142.655 158.159C142.703 158.217 142.738 158.283 142.757 158.354C142.777 158.425 142.78 158.499 142.767 158.571C142.755 158.643 142.726 158.712 142.683 158.773C142.502 159.129 142.329 159.484 142.156 159.84C141.89 160.328 141.447 160.716 140.903 160.936C140.669 161.021 140.412 161.032 140.171 160.969C139.93 160.906 139.718 160.773 139.567 160.588C139.365 160.346 139.225 160.066 139.156 159.767C139.088 159.469 139.093 159.16 139.171 158.864V158.864Z" fill="white"/>
<path d="M125.215 193.046C123.92 193.678 122.48 194.018 121.013 194.038C119.547 194.058 118.096 193.757 116.782 193.16C114.902 192.335 113.121 190.845 111.53 188.213C107.631 181.761 97.0629 167.033 95.1174 162.782C93.1719 158.531 88.8688 146.61 84.5656 141.602C80.2625 136.595 77.9213 129.046 77.9213 129.046L76.355 55.8855C78.6962 66.4753 85.1509 78.4796 85.1509 78.4796C90.7699 81.1517 95.5471 85.1028 99.0249 89.9544C100.031 90.9406 100.934 92.0119 101.721 93.1541C108.101 102.231 111.192 118.532 111.53 131.194C111.926 145.566 117.004 152.003 125.215 164.552C133.426 177.101 130.548 190.255 125.215 193.046Z" fill="white"/>
<path opacity="0.4" d="M125.215 193.046C123.914 193.662 122.476 193.992 121.012 194.012C119.549 194.032 118.101 193.74 116.781 193.16C121.266 192.04 127.152 189.922 125.8 186.783C123.673 181.814 117.457 189.181 114.333 186.783C111.209 184.385 99.8736 170.596 107.079 164.529C114.283 158.463 111.984 148.297 107.079 145.43C102.174 142.563 105.347 135.74 106.905 125.007C107.853 118.509 104.507 103.827 101.72 93.1616C108.101 102.239 111.192 118.539 111.53 131.202C111.926 145.574 117.004 152.011 125.215 164.56C133.425 177.109 130.548 190.437 125.215 193.046Z" fill="#5AE4A7"/>
<path d="M76.355 55.8401C78.7044 66.4299 85.1509 78.4342 85.1509 78.4342C90.7715 81.1075 95.549 85.0615 99.0249 89.9166C107.269 97.806 111.143 116.815 111.53 131.156C111.918 145.498 117.004 151.958 125.215 164.514C133.426 177.071 131.142 190.051 125.215 193.016C121.093 195.089 115.446 194.642 111.53 188.183C107.615 181.723 97.0382 167.033 95.1174 162.782C93.1967 158.531 88.8605 146.61 84.5656 141.602C80.2707 136.595 77.9213 129.054 77.9213 129.054" stroke="#1A2E35" stroke-linecap="round" stroke-linejoin="round"/>
<path d="M101.72 161.496C101.72 161.496 108.101 160.974 111.027 158.758" stroke="#1A2E35" stroke-linecap="round" stroke-linejoin="round"/>
<path d="M75.6044 130.521C75.6044 130.521 74.3679 133.282 80.8803 135.944" stroke="#1A2E35" stroke-linecap="round" stroke-linejoin="round"/>
</svg>
