<svg width="193" height="300" viewBox="0 0 193 300" fill="none" xmlns="http://www.w3.org/2000/svg">
<g clip-path="url(#clip0)">
<path d="M35.648 47.1168C35.5985 47.1239 35.5484 47.1239 35.4989 47.1168L28.6891 44.8551C25.5196 43.8081 23.5013 41.892 23.1518 39.5908C22.8162 37.3784 23.9954 35.1463 26.4704 33.2647L42.6489 20.9732C42.7355 20.9084 42.8389 20.8735 42.9449 20.8735C43.0509 20.8735 43.1543 20.9084 43.2409 20.9732C43.3252 21.0401 43.3883 21.1327 43.4216 21.2386C43.4549 21.3445 43.4569 21.4586 43.4273 21.5658L36.1281 46.7514C36.1094 46.8178 36.0783 46.8795 36.0367 46.9329C35.995 46.9864 35.9437 47.0304 35.8857 47.0625C35.8124 47.1026 35.7304 47.1213 35.648 47.1168V47.1168ZM42.0244 22.7658L27.0577 34.124C24.9416 35.724 23.8789 37.65 24.1446 39.413C24.4336 41.2994 26.1954 42.9044 28.9874 43.8229L35.3171 45.9267L42.0244 22.7658Z" fill="#FAC07F"/>
<path d="M64.0574 55.8576C62.95 55.8411 61.8508 55.6531 60.7947 55.2996L53.9756 53.102C53.8474 53.0599 53.7402 52.9658 53.6773 52.8403C53.6443 52.7795 53.6239 52.7119 53.6174 52.6421C53.611 52.5722 53.6187 52.5018 53.64 52.4353L60.9345 27.2497C60.9653 27.1425 61.0272 27.0482 61.1115 26.9803C61.1958 26.9125 61.2981 26.8745 61.4039 26.8717C61.5097 26.869 61.6136 26.9017 61.7009 26.9651C61.7881 27.0285 61.8543 27.1195 61.89 27.2251L68.7697 47.018C69.8278 50.0353 69.6134 52.5934 68.1685 54.223C67.2083 55.3095 65.782 55.8576 64.0574 55.8576ZM54.7353 52.2329L61.0744 54.2774C63.871 55.1761 66.2015 54.8946 67.418 53.502C68.574 52.2032 68.7185 49.976 67.8096 47.3982L61.4566 29.0868L54.7353 52.2329Z" fill="#FAC07F"/>
<path d="M54.9722 55.981C54.9229 55.9901 54.8724 55.9901 54.8231 55.981L33.2331 48.934C33.105 48.8919 32.9977 48.7978 32.9348 48.6722C32.8738 48.5473 32.8605 48.4023 32.8975 48.2673L41.7535 17.6495C41.8048 17.3186 42.1684 15.6099 44.2379 11.9309C44.2974 11.8296 44.3865 11.7516 44.4916 11.7088C44.5968 11.666 44.7123 11.6608 44.8205 11.6938L65.0308 18.2717C65.1348 18.3075 65.2253 18.3776 65.289 18.4718C65.3528 18.566 65.3864 18.6793 65.385 18.7952C65.3058 22.5286 64.4528 24.6817 64.3316 24.9928L55.4663 55.6057C55.4338 55.7167 55.368 55.8135 55.2788 55.8813C55.1896 55.949 55.082 55.984 54.9722 55.981V55.981ZM33.9975 48.0796L54.632 54.7908L63.3715 24.6669C63.3764 24.6429 63.3842 24.6196 63.3948 24.5978C63.3948 24.5978 64.2244 22.652 64.3549 19.1656L44.9277 12.8395C42.9794 16.3655 42.7696 17.8223 42.7696 17.8371C42.7696 17.852 42.7696 17.9013 42.7696 17.926L33.9975 48.0796Z" fill="#FAC07F"/>
<path d="M64.8823 19.304C64.8141 19.3053 64.7468 19.2883 64.6865 19.2547L44.8584 12.8052C44.7806 12.8522 44.6916 12.8745 44.6021 12.8694C44.5127 12.8674 44.4255 12.8403 44.3493 12.7909C44.2731 12.7414 44.2108 12.6713 44.1686 12.5879C44.0893 12.4299 44.0521 12.3558 44.1966 12.0496L44.2292 11.9953C44.3643 11.7237 44.6207 11.2891 45.0822 10.5138C48.1817 5.36307 57.2708 -0.597522 59.2238 0.0345867C61.3399 0.725956 65.1713 12.094 65.3717 17.0768C65.3717 17.6201 65.3717 18.3509 65.3717 18.7411C65.3748 18.8122 65.3646 18.8832 65.3416 18.9501C65.3187 19.017 65.2834 19.0784 65.2379 19.1308C65.1924 19.1831 65.1375 19.2254 65.0765 19.2551C65.0154 19.2849 64.9494 19.3015 64.8823 19.304V19.304ZM45.4597 11.8965L64.3789 18.0546C64.3789 17.6941 64.3789 17.383 64.3789 17.141C64.1458 11.4718 60.0674 1.45189 58.9348 1.07658C58.4687 0.92349 56.1848 1.87659 53.1131 4.03959C49.9063 6.32111 47.2262 8.97794 45.9444 11.0866C45.758 11.3829 45.5949 11.6545 45.4597 11.8866V11.8965Z" fill="#FAC07F"/>
<path d="M50.9222 39.1758C49.4951 39.1755 48.0849 38.8488 46.7879 38.2183C45.4909 37.5877 44.3376 36.668 43.4067 35.5221C42.4758 34.3761 41.7893 33.0308 41.394 31.578C40.9987 30.1252 40.9039 28.5991 41.1162 27.104C41.3284 25.6089 41.8427 24.1798 42.6239 22.9145C43.405 21.6492 44.4347 20.5774 45.6426 19.7722C46.8504 18.9671 48.2081 18.4475 49.6228 18.2491C51.0375 18.0507 52.476 18.178 53.84 18.6224V18.6224C56.1104 19.3621 58.0549 20.9406 59.3199 23.0708C60.5848 25.2009 61.0863 27.7413 60.733 30.2301C60.3797 32.7188 59.1951 34.9905 57.3947 36.6322C55.5943 38.2739 53.2975 39.1764 50.9222 39.1758V39.1758ZM50.9222 19.2249C48.6743 19.2245 46.5095 20.1245 44.8618 21.7444C43.2141 23.3643 42.2054 25.5844 42.038 27.9593C41.8706 30.3342 42.5569 32.6884 43.9593 34.5497C45.3616 36.4109 47.3763 37.6416 49.5992 37.9949C51.8222 38.3481 54.089 37.7979 55.945 36.4545C57.8011 35.1111 59.1091 33.0739 59.6068 30.7514C60.1044 28.429 59.7549 25.993 58.6283 23.9322C57.5017 21.8714 55.6814 20.338 53.5323 19.6397V19.6397C52.691 19.3663 51.8161 19.2265 50.9361 19.2249H50.9222ZM50.9222 36.8993C50.1448 36.9 49.3717 36.7768 48.6289 36.5338C46.7608 35.9228 45.1796 34.5863 44.2022 32.7923C43.2248 30.9982 42.9234 28.8791 43.3584 26.8596C43.7934 24.8401 44.9326 23.0693 46.5479 21.9021C48.1631 20.7349 50.1349 20.2575 52.0683 20.5656C54.0017 20.8737 55.7538 21.9445 56.9735 23.5635C58.1932 25.1824 58.7904 27.2299 58.6454 29.2957C58.5005 31.3614 57.6241 33.2928 56.1918 34.7029C54.7596 36.1129 52.8773 36.8975 50.9222 36.8993V36.8993ZM50.9222 21.4965C49.3045 21.5019 47.7422 22.121 46.5182 23.2416C45.2942 24.3623 44.4896 25.9104 44.2501 27.6054C44.0106 29.3004 44.3521 31.0303 45.2127 32.4815C46.0732 33.9328 47.396 35.0095 48.9412 35.5165V35.5165C50.6507 36.0558 52.492 35.8577 54.0643 34.9655C55.6366 34.0733 56.8126 32.5592 57.3363 30.7527C57.86 28.9463 57.6889 26.9938 56.8604 25.3203C56.0318 23.6468 54.6129 22.3879 52.9124 21.8175C52.2676 21.6071 51.5969 21.4989 50.9222 21.4965Z" fill="#FAC07F"/>
<path d="M50.9406 36.8995C49.3047 36.9023 47.7096 36.3579 46.3828 35.344C45.056 34.33 44.0651 32.8983 43.5513 31.2527C43.0376 29.6072 43.0271 27.8318 43.5215 26.1796C44.0159 24.5273 44.9898 23.0826 46.3046 22.0512C47.6194 21.0198 49.2078 20.4544 50.8437 20.4355C52.4795 20.4167 54.0792 20.9454 55.4149 21.9462C56.7505 22.9471 57.7539 24.369 58.282 26.0095C58.8102 27.6499 58.8362 29.4251 58.3563 31.0821C57.8692 32.7641 56.8863 34.2365 55.5518 35.2834C54.2172 36.3303 52.6012 36.8967 50.9406 36.8995V36.8995ZM50.9406 21.4968C49.6877 21.4967 48.4594 21.8651 47.3925 22.5609C46.3255 23.2567 45.4618 24.2527 44.8975 25.4378C44.3333 26.623 44.0906 27.9508 44.1965 29.2735C44.3024 30.5961 44.7528 31.8617 45.4975 32.9292C46.2421 33.9967 47.2519 34.8242 48.4142 35.3196C49.5765 35.8151 50.8459 35.9589 52.0808 35.7352C53.3158 35.5115 54.4679 34.9289 55.4088 34.0525C56.3497 33.176 57.0426 32.04 57.4101 30.771C57.9369 28.9551 57.7614 26.9918 56.9223 25.3129C56.0832 23.634 54.6492 22.3768 52.9355 21.8178C52.2832 21.6049 51.6045 21.4967 50.922 21.4968H50.9406Z" fill="#FAC07F"/>
<path d="M34.5473 69.8482C34.4633 69.8478 34.3807 69.8255 34.3067 69.7833C34.2327 69.7411 34.1697 69.6803 34.1231 69.6062C29.0332 61.3345 34.9947 53.8973 35.0553 53.8035C35.119 53.7256 35.2028 53.6692 35.2964 53.6411C35.39 53.613 35.4892 53.6145 35.582 53.6455L41.2965 55.5023C41.3969 55.5356 41.4852 55.6009 41.5494 55.6893C41.6136 55.7776 41.6506 55.8847 41.6554 55.9961C42.1494 65.9864 34.8269 69.7494 34.757 69.789C34.6919 69.8245 34.6204 69.8447 34.5473 69.8482V69.8482ZM35.6147 54.8159C34.6824 56.1295 30.921 61.9715 34.7244 68.6433C36.1507 67.7692 40.9049 64.2679 40.6672 56.4702L35.6147 54.8159Z" fill="#FAC07F"/>
<path d="M35.5456 65.843C35.5007 65.8481 35.4554 65.8481 35.4105 65.843C35.3344 65.8185 35.2647 65.776 35.2065 65.7187C35.1484 65.6613 35.1033 65.5907 35.0749 65.5121C33.5274 61.1022 34.9117 56.5737 35.8719 54.2675C35.923 54.1487 36.0132 54.0537 36.1255 54.0001C36.2378 53.9465 36.3647 53.938 36.4825 53.9761L40.4024 55.2502C40.5196 55.289 40.6195 55.3713 40.6837 55.4821C40.748 55.5928 40.7722 55.7245 40.752 55.8527C39.6334 62.5738 36.0117 65.6208 35.8579 65.7294C35.7683 65.8024 35.6586 65.8423 35.5456 65.843V65.843ZM36.6177 55.1169C35.802 57.2206 34.8278 60.796 35.7833 64.3516C37.7969 62.0537 39.1488 59.1941 39.68 56.1095L36.6177 55.1169Z" fill="#FAC07F"/>
<path d="M41.7632 56.7613C41.7138 56.7689 41.6635 56.7689 41.6141 56.7613L34.5153 54.4501C34.447 54.4288 34.3837 54.3922 34.3299 54.3428C34.276 54.2934 34.2327 54.2323 34.203 54.1637C34.1741 54.0945 34.1592 54.0196 34.1592 53.944C34.1592 53.8683 34.1741 53.7934 34.203 53.7242L34.8509 52.1834C34.9012 52.0638 34.991 51.9677 35.1034 51.9131C35.2158 51.8586 35.3431 51.8494 35.4615 51.8871L42.1874 54.0798C42.3056 54.1167 42.4068 54.1987 42.4713 54.3099C42.5359 54.4212 42.5593 54.5538 42.537 54.6822L42.2573 56.3415C42.2383 56.4654 42.178 56.5778 42.0873 56.6585C41.9966 56.7392 41.8816 56.7827 41.7632 56.781V56.7613ZM35.3543 53.5859L41.367 55.5613L41.4696 54.9588L35.592 53.0476L35.3543 53.5859Z" fill="#FAC07F"/>
<path d="M42.416 55.2303C42.3683 55.2398 42.3193 55.2398 42.2715 55.2303L34.7579 52.7612C34.6946 52.7409 34.6357 52.7075 34.5846 52.6629C34.5336 52.6183 34.4914 52.5633 34.4606 52.5013C34.4298 52.4392 34.411 52.3713 34.4052 52.3015C34.3994 52.2316 34.4068 52.1613 34.427 52.0945L35.1261 49.6698C35.1692 49.521 35.2396 49.3827 35.3333 49.2628C35.427 49.143 35.5421 49.0439 35.6721 48.9714C35.8021 48.8989 35.9443 48.8543 36.0905 48.8403C36.2368 48.8262 36.3843 48.8429 36.5245 48.8895L42.8821 50.9537C43.165 51.047 43.4015 51.2554 43.5395 51.5331C43.6776 51.8109 43.706 52.1353 43.6186 52.4352L42.9147 54.8649C42.8797 54.9745 42.8123 55.0693 42.7225 55.1351C42.6326 55.2009 42.5252 55.2343 42.416 55.2303V55.2303ZM35.5363 51.897L42.0618 54.0303L42.6164 52.1142C42.6208 52.1006 42.6226 52.0862 42.6217 52.0719C42.6207 52.0575 42.6171 52.0435 42.6111 52.0307C42.605 52.0178 42.5966 52.0063 42.5863 51.997C42.576 51.9876 42.5641 51.9804 42.5512 51.976L36.1982 49.9068C36.171 49.8992 36.1421 49.9032 36.1177 49.918C36.0933 49.9328 36.0753 49.9571 36.0677 49.9858L35.5363 51.897Z" fill="#FAC07F"/>
<path d="M43.7067 72.8306C43.6233 72.8303 43.5413 72.8079 43.4681 72.7657C43.3949 72.7235 43.3327 72.6626 43.2872 72.5887C38.1973 64.3169 44.1588 56.8797 44.2194 56.7859C44.2857 56.7121 44.3702 56.6596 44.4633 56.6342C44.5565 56.6089 44.6544 56.6118 44.7461 56.6427L50.4652 58.5045C50.5658 58.5367 50.6543 58.6018 50.7179 58.6905C50.7815 58.7792 50.817 58.8869 50.8194 58.9983C51.3182 68.9886 43.9957 72.7516 43.9211 72.7862C43.8536 72.8176 43.7804 72.8328 43.7067 72.8306V72.8306ZM44.7787 57.7687C43.8139 59.0823 40.085 64.9293 43.8838 71.6059C45.3147 70.7318 50.0643 67.2305 49.8266 59.4279L44.7787 57.7687Z" fill="#FAC07F"/>
<path d="M44.7087 68.8209C44.6624 68.8283 44.6152 68.8283 44.5689 68.8209C44.4932 68.7984 44.4237 68.757 44.3662 68.7004C44.3086 68.6437 44.2647 68.5733 44.2379 68.495C42.6905 64.0801 44.0748 59.5565 45.035 57.2503C45.0853 57.1307 45.1751 57.0346 45.2875 56.98C45.3999 56.9255 45.5272 56.9162 45.6456 56.954L49.5655 58.2331C49.6826 58.2718 49.7825 58.3542 49.8468 58.4649C49.9111 58.5757 49.9353 58.7073 49.9151 58.8355C48.7964 65.5566 45.1702 68.6036 45.0163 68.7122C44.9284 68.7844 44.8199 68.8228 44.7087 68.8209V68.8209ZM45.7807 58.0948C44.9604 60.2035 43.9909 63.7739 44.9418 67.3295C46.9599 65.0369 48.3127 62.1774 48.8384 59.0923L45.7807 58.0948Z" fill="#FAC07F"/>
<path d="M50.9224 59.7542C50.8745 59.7614 50.8259 59.7614 50.778 59.7542L43.6792 57.443C43.6107 57.4206 43.5474 57.383 43.4936 57.3328C43.4398 57.2826 43.3966 57.2208 43.3669 57.1517C43.3356 57.084 43.3193 57.0097 43.3193 56.9344C43.3193 56.8591 43.3356 56.7847 43.3669 56.7171L44.0148 55.1763C44.0642 55.0571 44.1531 54.9611 44.2647 54.9065C44.3764 54.8519 44.503 54.8425 44.6207 54.88L51.3513 57.0727C51.4684 57.1114 51.5683 57.1938 51.6325 57.3045C51.6968 57.4153 51.7211 57.5469 51.7008 57.6751L51.4212 59.3344C51.4083 59.4084 51.3809 59.4788 51.3407 59.5409C51.3006 59.603 51.2486 59.6554 51.1881 59.6949C51.1064 59.7403 51.0145 59.7609 50.9224 59.7542V59.7542ZM44.5182 56.5788L50.5263 58.5542L50.6288 57.9517L44.7466 56.0109L44.5182 56.5788Z" fill="#FAC07F"/>
<path d="M51.5927 58.2133C51.5448 58.2204 51.4962 58.2204 51.4483 58.2133L43.9346 55.7441C43.8073 55.702 43.7007 55.6084 43.6379 55.4837C43.5751 55.3589 43.5612 55.213 43.5991 55.0774L44.3029 52.6478C44.3452 52.4996 44.4153 52.362 44.509 52.2432C44.6027 52.1244 44.7181 52.0268 44.8482 51.9564C45.1014 51.8086 45.3991 51.7714 45.6779 51.8527L52.0309 53.9219C52.3138 54.0151 52.5502 54.2235 52.6883 54.5013C52.8264 54.779 52.8548 55.1035 52.7673 55.4034L52.0635 57.8281C52.0332 57.9366 51.9714 58.0322 51.8869 58.1013C51.8024 58.1705 51.6995 58.2097 51.5927 58.2133V58.2133ZM44.7084 54.8799L51.2711 57.0133L51.8258 55.0923C51.8332 55.0641 51.83 55.034 51.817 55.0083C51.804 54.9825 51.7821 54.9631 51.7559 54.954L45.3936 52.8898C45.3818 52.8843 45.3691 52.8815 45.3563 52.8815C45.3434 52.8815 45.3307 52.8843 45.319 52.8898C45.3067 52.8961 45.2958 52.905 45.2869 52.9161C45.2781 52.9272 45.2715 52.9401 45.2677 52.954L44.7084 54.8799Z" fill="#FAC07F"/>
<path d="M12.4871 126.466L14.51 124.511L17.1715 125.172L16.0482 122.53L17.4605 120.046L14.7431 120.367L12.9486 118.175L12.3986 121.014L9.87695 122.14L12.2541 123.577L12.4871 126.466Z" fill="#FAC07F"/>
<path d="M58.7476 101.469L59.8756 102.693L60.1087 100.999L61.5536 100.244L60.104 99.4883L59.8709 97.7944L58.7476 99.0191L57.1582 98.7327L57.9086 100.244L57.1582 101.76L58.7476 101.469Z" fill="#FAC07F"/>
<path d="M81.769 108.871L81.0186 110.382L82.6126 110.096L83.7359 111.315L83.969 109.626L85.4186 108.866L83.969 108.11L83.7359 106.421L82.608 107.646L81.0186 107.355L81.769 108.871Z" fill="#FAC07F"/>
<path d="M25.0951 241.693L26.223 242.917L26.4514 241.224L27.901 240.468L26.4514 239.712L26.2184 238.019L25.0951 239.243L23.501 238.957L24.2561 240.468L23.5056 241.984L25.0951 241.693Z" fill="#FAC07F"/>
<path d="M32.8136 153.983L32.3196 154.185C32.1797 154.245 32.0446 154.314 31.9047 154.363C31.804 154.369 31.7041 154.386 31.6064 154.412L31.3641 154.516L31.0378 154.659C30.8723 154.699 30.7163 154.775 30.5793 154.881C30.4422 154.987 30.327 155.122 30.2407 155.277C30.0848 155.562 30.041 155.901 30.1185 156.221C30.1961 156.54 30.3889 156.815 30.6556 156.985C30.8685 157.091 31.1008 157.146 31.3361 157.146C31.5714 157.146 31.8037 157.091 32.0166 156.985C32.1906 156.919 32.3495 156.815 32.4827 156.679C32.5386 156.64 32.5946 156.6 32.6458 156.556C32.7619 156.482 32.863 156.385 32.9431 156.27C33.0231 156.154 33.0805 156.023 33.112 155.884L33.4755 155.647C33.654 155.534 33.7879 155.356 33.853 155.146C33.918 154.937 33.9098 154.71 33.8298 154.506C33.7506 154.302 33.6033 154.136 33.4159 154.039C33.2285 153.943 33.0141 153.923 32.8136 153.983V153.983ZM31.8814 156.946C31.9746 156.873 32.0619 156.792 32.1425 156.704L32.0912 156.773L31.8814 156.946Z" fill="#FAC07F"/>
<path d="M9.0143 195.776C9.17966 195.956 9.40056 196.067 9.63672 196.089C9.87288 196.111 10.1086 196.042 10.3007 195.895C10.4389 195.802 10.5477 195.668 10.613 195.509C10.6341 195.457 10.6497 195.402 10.6596 195.346C10.7523 195.225 10.7993 195.072 10.7916 194.916C10.7838 194.76 10.7219 194.612 10.6177 194.502C10.5562 194.439 10.4829 194.391 10.4026 194.36C10.3223 194.33 10.2367 194.317 10.1516 194.324C10.0923 194.214 10.0052 194.123 9.8999 194.063H9.87659C9.82881 194.015 9.77736 193.972 9.72278 193.934C9.66138 193.891 9.59065 193.865 9.51725 193.859C9.44386 193.853 9.37022 193.867 9.30328 193.9C9.21723 193.943 9.13851 194.002 9.07023 194.072L8.98167 194.156L8.92108 194.206C8.81356 194.319 8.73914 194.463 8.70667 194.621C8.65767 194.805 8.65767 194.999 8.70667 195.184C8.76375 195.404 8.86915 195.607 9.0143 195.776V195.776ZM10.2541 194.472V194.433V194.472Z" fill="#FAC07F"/>
<path d="M76.753 100.387C76.9873 100.051 77.1568 99.6705 77.2517 99.2656C77.3327 99.1261 77.358 98.9583 77.3222 98.799C77.2863 98.6397 77.1922 98.502 77.0606 98.4162C76.9289 98.3304 76.7705 98.3036 76.6202 98.3415C76.4698 98.3795 76.3399 98.4792 76.2589 98.6187C75.7182 98.9199 75.2055 99.6064 75.583 100.224C75.6422 100.326 75.7222 100.413 75.817 100.478C75.9119 100.543 76.0193 100.585 76.1314 100.6C76.2435 100.616 76.3574 100.605 76.465 100.568C76.5725 100.531 76.6709 100.469 76.753 100.387V100.387Z" fill="#FAC07F"/>
<path d="M183.044 231.802C183.042 231.674 183.013 231.549 182.959 231.435C182.905 231.322 182.827 231.222 182.732 231.145C182.603 231.026 182.437 230.963 182.266 230.967C182.085 230.972 181.911 231.042 181.772 231.165C181.678 231.238 181.603 231.334 181.551 231.445C181.499 231.556 181.473 231.678 181.474 231.802V232.014C181.474 232.044 181.474 232.073 181.474 232.098C181.474 232.3 181.474 232.503 181.474 232.7C181.474 232.919 181.556 233.129 181.702 233.284C181.848 233.438 182.046 233.525 182.252 233.525C182.458 233.525 182.656 233.438 182.802 233.284C182.948 233.129 183.03 232.919 183.03 232.7C183.03 232.503 183.03 232.305 183.03 232.108C183.033 232.077 183.033 232.045 183.03 232.014C183.044 231.945 183.044 231.876 183.044 231.802Z" fill="#FAC07F"/>
<path d="M74.176 297.541L74.0035 297.467L74.0455 297.501L74.0035 297.471C73.9469 297.433 73.8834 297.406 73.8168 297.395C73.7503 297.383 73.6822 297.385 73.6166 297.402C73.5552 297.42 73.4969 297.448 73.4442 297.486V297.486L73.2764 297.56C73.1683 297.62 73.0768 297.709 73.0107 297.817C72.8371 298.06 72.7556 298.363 72.7823 298.667C72.794 298.917 72.8594 299.162 72.9734 299.383C73.0755 299.565 73.2198 299.717 73.3927 299.824C73.5655 299.932 73.7613 299.99 73.9616 299.995C74.1949 299.979 74.4229 299.914 74.6319 299.803C74.8409 299.691 75.0266 299.537 75.1781 299.348C75.3675 299.141 75.4733 298.864 75.4733 298.575C75.4733 298.287 75.3675 298.01 75.1781 297.802C75.0458 297.672 74.8844 297.58 74.709 297.534C74.5337 297.488 74.3502 297.49 74.176 297.541V297.541Z" fill="#FAC07F"/>
<path d="M164.218 280.992C164.852 280.335 165.798 280.064 166.208 279.155C166.348 278.839 166.101 278.306 165.714 278.478C164.814 278.874 163.901 279.17 163.164 279.876C162.428 280.582 163.533 281.698 164.218 280.992Z" fill="#FAC07F"/>
<path d="M139.65 171.657C139.761 171.553 139.865 171.441 139.962 171.321C140.106 171.168 140.187 170.961 140.186 170.744C140.186 170.528 140.104 170.321 139.96 170.168C139.888 170.093 139.803 170.033 139.71 169.992C139.616 169.951 139.516 169.93 139.415 169.931C139.211 169.931 139.015 170.017 138.871 170.171C138.773 170.269 138.648 170.383 138.554 170.497C137.795 171.183 138.899 172.349 139.65 171.657Z" fill="#FAC07F"/>
<path d="M88.1684 123.425C88.4228 123.417 88.6655 123.31 88.8489 123.123C88.9399 123.031 89.0123 122.92 89.0617 122.798C89.1112 122.675 89.1367 122.543 89.1367 122.41C89.1367 122.276 89.1112 122.144 89.0617 122.022C89.0123 121.899 88.9399 121.788 88.8489 121.696C88.8515 121.681 88.8515 121.666 88.8489 121.652C88.8448 121.498 88.8042 121.348 88.7309 121.215C88.6576 121.082 88.5539 120.97 88.4295 120.891C88.2702 120.806 88.0952 120.758 87.9167 120.753C87.6885 120.733 87.4597 120.784 87.2585 120.899C87.0572 121.015 86.8924 121.191 86.7841 121.405C86.6565 121.656 86.6067 121.943 86.6418 122.226C86.677 122.509 86.7952 122.773 86.9799 122.98C87.1352 123.142 87.3221 123.266 87.5275 123.342C87.7329 123.419 87.9517 123.447 88.1684 123.425V123.425ZM88.532 122.358C88.49 122.417 88.4481 122.481 88.4015 122.541L88.532 122.358Z" fill="#FAC07F"/>
<path d="M73.2251 83.8285C73.2251 83.7495 73.2251 83.6754 73.2251 83.6013C73.2251 83.6013 73.2251 83.5569 73.2251 83.5223C73.2717 83.4828 73.3137 83.4285 73.3603 83.384C73.4908 83.2556 73.6306 83.1322 73.7705 83.0087C73.9258 82.8264 74.0091 82.5878 74.0032 82.3423C73.9973 82.0967 73.9026 81.863 73.7387 81.6893C73.5747 81.5156 73.3541 81.4153 73.1223 81.409C72.8906 81.4027 72.6654 81.491 72.4933 81.6556C72.1955 81.997 71.9544 82.3894 71.7802 82.8161C71.6909 83.1448 71.6686 83.4899 71.7149 83.8285C71.7433 84.0191 71.8349 84.1927 71.9734 84.318C72.1118 84.4434 72.2879 84.5123 72.47 84.5123C72.6521 84.5123 72.8282 84.4434 72.9667 84.318C73.1051 84.1927 73.1968 84.0191 73.2251 83.8285V83.8285ZM73.2764 83.468C73.2761 83.4647 73.2761 83.4614 73.2764 83.4581V83.468Z" fill="#FAC07F"/>
<path d="M72.3072 149.109C72.4436 149.119 72.5805 149.099 72.7094 149.05C72.8382 149.002 72.9562 148.926 73.0562 148.827C73.1561 148.728 73.2358 148.608 73.2903 148.475C73.3447 148.343 73.3728 148.199 73.3728 148.054C73.3728 147.909 73.3447 147.766 73.2903 147.633C73.2358 147.5 73.1561 147.381 73.0562 147.282C72.9562 147.183 72.8382 147.107 72.7094 147.059C72.5805 147.01 72.4436 146.99 72.3072 147C71.692 147.03 70.9089 146.975 70.4754 147.494C70.3457 147.64 70.2734 147.834 70.2734 148.035C70.2734 148.236 70.3457 148.429 70.4754 148.575C70.9229 149.138 71.692 149.079 72.3072 149.109Z" fill="#FAC07F"/>
<path d="M38.6397 124.565H38.677C38.4812 124.56 38.5278 124.59 38.6397 124.565Z" fill="#FAC07F"/>
<path d="M38.5607 126.14H38.5933H38.6166L39.2039 126.264C39.3576 126.308 39.5195 126.309 39.6734 126.265C39.8273 126.222 39.9676 126.136 40.0802 126.017C40.2474 125.836 40.3425 125.594 40.3459 125.34C40.3425 125.087 40.2474 124.845 40.0802 124.664C39.966 124.547 39.8257 124.463 39.6723 124.42C39.519 124.377 39.3577 124.376 39.2039 124.417L38.6539 124.535H38.7285C38.5278 124.538 38.3359 124.624 38.194 124.774C38.052 124.924 37.9712 125.128 37.9688 125.34C37.9727 125.516 38.029 125.685 38.1294 125.824C38.2299 125.964 38.3695 126.066 38.5281 126.116C38.5281 126.116 38.5467 126.14 38.5607 126.14Z" fill="#FAC07F"/>
<path d="M20.1919 86.8212C20.1975 86.8234 20.2036 86.8241 20.2095 86.8233C20.2155 86.8225 20.2212 86.8202 20.2261 86.8166C20.2311 86.8129 20.2351 86.8081 20.2379 86.8024C20.2407 86.7968 20.2421 86.7905 20.2421 86.7841C20.2421 86.7778 20.2407 86.7715 20.2379 86.7658C20.2351 86.7602 20.2311 86.7553 20.2261 86.7517C20.2212 86.7481 20.2155 86.7457 20.2095 86.7449C20.2036 86.7441 20.1975 86.7449 20.1919 86.7471C20.1862 86.7449 20.1802 86.7441 20.1742 86.7449C20.1682 86.7457 20.1625 86.7481 20.1576 86.7517C20.1527 86.7553 20.1486 86.7602 20.1458 86.7658C20.1431 86.7715 20.1416 86.7778 20.1416 86.7841C20.1416 86.7905 20.1431 86.7968 20.1458 86.8024C20.1486 86.8081 20.1527 86.8129 20.1576 86.8166C20.1625 86.8202 20.1682 86.8225 20.1742 86.8233C20.1802 86.8241 20.1862 86.8234 20.1919 86.8212V86.8212Z" fill="#FAC07F"/>
<path d="M38.6122 199.46C38.4821 199.578 38.3989 199.744 38.3791 199.924H38.2206C38.0636 199.925 37.9132 199.992 37.8017 200.109C37.6902 200.226 37.6265 200.385 37.624 200.551C37.6264 200.718 37.6901 200.878 37.8014 200.996C37.9128 201.114 38.0632 201.181 38.2206 201.183C38.4059 201.209 38.5941 201.195 38.7743 201.143C38.9544 201.09 39.1227 201 39.2694 200.877C39.4332 200.682 39.5237 200.43 39.5237 200.169C39.5237 199.907 39.4332 199.655 39.2694 199.46C39.182 199.368 39.0639 199.316 38.9408 199.316C38.8176 199.316 38.6995 199.368 38.6122 199.46V199.46ZM38.3558 200.102C38.3558 200.102 38.3558 200.132 38.3558 200.141C38.3418 200.102 38.3511 200.087 38.3558 200.102ZM38.3558 200.181C38.3558 200.181 38.3558 200.216 38.3558 200.23V200.181Z" fill="#FAC07F"/>
<path d="M80.4403 71.1125C80.6361 71.1471 80.8365 71.1669 81.0323 71.1866C81.2795 71.1866 81.5166 71.0826 81.6914 70.8973C81.8663 70.7121 81.9645 70.4609 81.9645 70.1989C81.9645 69.937 81.8663 69.6858 81.6914 69.5005C81.5166 69.3153 81.2795 69.2113 81.0323 69.2113L80.734 69.236C80.664 69.1627 80.5772 69.11 80.4823 69.0829C80.3262 69.0454 80.1626 69.0687 80.0214 69.1485C79.8802 69.2283 79.7708 69.3593 79.7132 69.5174C79.6101 69.7182 79.5711 69.9489 79.6022 70.175C79.6333 70.4012 79.7328 70.6106 79.8856 70.7718C80.0359 70.9394 80.2284 71.0577 80.4403 71.1125ZM80.9064 69.4483L80.9996 69.5767C80.967 69.5273 80.9297 69.4829 80.8924 69.4335C80.9577 69.4928 80.9344 69.4977 80.8924 69.4483H80.9064Z" fill="#FAC07F"/>
<path d="M40.0382 145.77C40.3221 145.813 40.6094 145.826 40.8958 145.81C41.0911 145.81 41.2784 145.728 41.4165 145.581C41.5547 145.435 41.6322 145.236 41.6322 145.029C41.6322 144.823 41.5547 144.624 41.4165 144.478C41.2784 144.331 41.0911 144.249 40.8958 144.249C40.6094 144.23 40.3219 144.243 40.0382 144.289C39.8888 144.338 39.7581 144.436 39.6653 144.569C39.5725 144.703 39.5225 144.864 39.5225 145.029C39.5225 145.195 39.5725 145.356 39.6653 145.49C39.7581 145.623 39.8888 145.721 40.0382 145.77V145.77Z" fill="#FAC07F"/>
<path d="M21.6176 184.369C21.7986 184.353 21.9675 184.266 22.0906 184.125C22.2137 183.983 22.2821 183.798 22.2821 183.606C22.2821 183.413 22.2137 183.228 22.0906 183.087C21.9675 182.945 21.7986 182.858 21.6176 182.843C21.4366 182.858 21.2678 182.945 21.1446 183.087C21.0215 183.228 20.9531 183.413 20.9531 183.606C20.9531 183.798 21.0215 183.983 21.1446 184.125C21.2678 184.266 21.4366 184.353 21.6176 184.369V184.369Z" fill="#FAC07F"/>
<path d="M23.3053 149.499C23.6316 149.42 23.9019 149.044 24.1303 148.797L24.2841 148.644L24.3121 148.62L24.5079 148.407C24.6479 148.258 24.7265 148.055 24.7265 147.844C24.7265 147.634 24.6479 147.431 24.5079 147.281C24.3653 147.135 24.1748 147.054 23.9765 147.054C23.7782 147.054 23.5877 147.135 23.4452 147.281L23.2447 147.489V147.518L23.0909 147.676C22.8625 147.923 22.5083 148.21 22.4337 148.555C22.4036 148.684 22.405 148.818 22.4378 148.946C22.4706 149.074 22.5336 149.19 22.621 149.285C22.7084 149.379 22.8171 149.449 22.9369 149.486C23.0567 149.524 23.1835 149.528 23.3053 149.499V149.499Z" fill="#FAC07F"/>
<path d="M25.9011 220.023C26.1074 220.007 26.3002 219.908 26.4409 219.748C26.5815 219.587 26.6597 219.376 26.6597 219.157C26.6597 218.938 26.5815 218.726 26.4409 218.566C26.3002 218.405 26.1074 218.307 25.9011 218.29C25.6948 218.307 25.5021 218.405 25.3614 218.566C25.2207 218.726 25.1426 218.938 25.1426 219.157C25.1426 219.376 25.2207 219.587 25.3614 219.748C25.5021 219.908 25.6948 220.007 25.9011 220.023V220.023Z" fill="#FAC07F"/>
<path d="M1.62616 240.651H1.50497C1.31641 240.674 1.13326 240.732 0.964293 240.824C0.913022 240.853 0.908361 240.824 0.936327 240.824L0.81514 240.858L0.670647 240.903C0.517691 240.951 0.379064 241.041 0.268051 241.162C0.157038 241.284 0.0773622 241.434 0.036659 241.597C-0.00404414 241.761 -0.00440987 241.933 0.0355969 242.096C0.0756037 242.26 0.154642 242.41 0.265136 242.532C0.380394 242.649 0.522101 242.733 0.676675 242.776C0.831248 242.818 0.993506 242.818 1.1479 242.774C1.30229 242.731 1.44364 242.647 1.5584 242.529C1.67316 242.412 1.75748 242.265 1.80328 242.103L1.86388 241.979L1.90116 241.846V241.767C1.97524 241.612 2.02409 241.445 2.04566 241.273C2.04566 241.229 2.04566 241.184 2.04566 241.145C2.05224 241.082 2.04628 241.019 2.02817 240.959C2.01005 240.9 1.9802 240.845 1.94057 240.798C1.90094 240.751 1.85243 240.714 1.79824 240.689C1.74405 240.663 1.6854 240.65 1.62616 240.651V240.651Z" fill="#FAC07F"/>
<path d="M1.03516 240.799C1.00122 240.803 0.968156 240.813 0.937278 240.829H0.932617C0.96562 240.815 1.00002 240.805 1.03516 240.799V240.799Z" fill="#FAC07F"/>
<path d="M37.8807 271.249C37.9468 271.3 38.023 271.336 38.1037 271.352C38.1843 271.368 38.2674 271.365 38.3468 271.343L38.7616 271.372C39.6938 271.437 39.6938 269.748 38.7616 269.812L38.3421 269.841C38.2627 269.819 38.1797 269.816 38.099 269.832C38.0184 269.849 37.9422 269.884 37.876 269.935C37.7731 270.007 37.6886 270.104 37.6301 270.219C37.5716 270.334 37.541 270.462 37.541 270.592C37.541 270.722 37.5716 270.851 37.6301 270.965C37.6886 271.08 37.7731 271.178 37.876 271.249H37.8807Z" fill="#FAC07F"/>
<path d="M8.27848 283.461V282.755C8.27848 282.493 8.18027 282.242 8.00544 282.057C7.83062 281.872 7.59351 281.768 7.34627 281.768C7.10126 281.775 6.86822 281.881 6.6949 282.065C6.52157 282.249 6.4211 282.496 6.41406 282.755V283.461C6.41406 283.723 6.51228 283.975 6.6871 284.16C6.86192 284.345 7.09903 284.449 7.34627 284.449C7.59351 284.449 7.83062 284.345 8.00544 284.16C8.18027 283.975 8.27848 283.723 8.27848 283.461Z" fill="#FAC07F"/>
<path d="M61.1992 293.467C61.1618 293.43 61.1212 293.397 61.078 293.368L60.9289 293.289C60.9229 293.082 60.8422 292.886 60.7033 292.741C60.5645 292.595 60.3782 292.512 60.1831 292.508H60.0293C59.8551 292.437 59.6641 292.427 59.484 292.479C59.3565 292.508 59.2359 292.565 59.1293 292.645C59.0226 292.724 58.9321 292.826 58.8631 292.943C58.794 293.06 58.7478 293.191 58.7272 293.328C58.7065 293.464 58.7119 293.604 58.7429 293.738C58.7938 293.908 58.8772 294.065 58.9879 294.199C59.0985 294.333 59.2341 294.442 59.3861 294.518C59.6557 294.702 59.9655 294.809 60.2856 294.829C60.6056 294.849 60.9251 294.781 61.2132 294.632C61.3082 294.571 61.3865 294.485 61.4403 294.382C61.4942 294.279 61.5218 294.163 61.5204 294.045C61.519 293.927 61.4886 293.812 61.4323 293.711C61.376 293.609 61.2956 293.525 61.1992 293.467V293.467ZM60.0899 294.123L59.9268 294.192C59.983 294.175 60.0376 294.151 60.0899 294.123V294.123Z" fill="#FAC07F"/>
<path d="M150.128 285.521C149.888 285.521 149.658 285.621 149.488 285.801C149.319 285.981 149.224 286.224 149.224 286.479C149.224 286.733 149.319 286.976 149.488 287.156C149.658 287.336 149.888 287.437 150.128 287.437C151.288 287.437 151.293 285.521 150.128 285.521Z" fill="#FAC07F"/>
<path d="M178.686 270.553C178.676 270.553 178.666 270.557 178.659 270.564C178.652 270.572 178.648 270.582 178.648 270.592C178.648 270.603 178.652 270.613 178.659 270.62C178.666 270.628 178.676 270.632 178.686 270.632C178.728 270.622 178.728 270.553 178.686 270.553Z" fill="#FAC07F"/>
<path d="M170.832 263.743C170.697 263.748 170.565 263.79 170.45 263.865C170.334 263.94 170.24 264.046 170.175 264.172C170.03 264.164 169.886 264.187 169.75 264.24C169.614 264.293 169.489 264.375 169.384 264.48C169.278 264.585 169.194 264.712 169.136 264.853C169.078 264.993 169.048 265.145 169.047 265.298C169.049 265.472 169.089 265.643 169.163 265.799C169.237 265.954 169.344 266.089 169.474 266.195C169.605 266.301 169.756 266.373 169.917 266.408C170.078 266.442 170.244 266.438 170.403 266.395C170.697 266.3 170.965 266.131 171.182 265.901C171.381 265.701 171.522 265.446 171.589 265.164C171.656 264.882 171.646 264.586 171.559 264.311C171.508 264.148 171.411 264.006 171.281 263.904C171.151 263.803 170.994 263.746 170.832 263.743ZM170.133 264.237C170.17 264.153 170.156 264.202 170.128 264.246L170.133 264.237Z" fill="#FAC07F"/>
<path d="M192.968 231.979C192.958 231.979 192.949 231.983 192.943 231.99C192.936 231.997 192.933 232.006 192.933 232.016C192.933 232.026 192.936 232.035 192.943 232.042C192.949 232.049 192.958 232.053 192.968 232.053C192.977 232.053 192.986 232.049 192.992 232.042C192.999 232.035 193.003 232.026 193.003 232.016C193.003 232.006 192.999 231.997 192.992 231.99C192.986 231.983 192.977 231.979 192.968 231.979Z" fill="#FAC07F"/>
<path d="M180.112 209.287C180.103 209.287 180.094 209.291 180.087 209.298C180.081 209.305 180.077 209.314 180.077 209.324C180.077 209.334 180.081 209.343 180.087 209.35C180.094 209.357 180.103 209.361 180.112 209.361C180.121 209.361 180.13 209.357 180.137 209.35C180.143 209.343 180.147 209.334 180.147 209.324C180.147 209.314 180.143 209.305 180.137 209.298C180.13 209.291 180.121 209.287 180.112 209.287V209.287Z" fill="#FAC07F"/>
<path d="M191.537 193.475C191.544 193.472 191.55 193.467 191.554 193.46C191.559 193.454 191.561 193.446 191.561 193.438C191.561 193.43 191.559 193.422 191.554 193.415C191.55 193.409 191.544 193.404 191.537 193.401C191.531 193.399 191.525 193.398 191.519 193.399C191.513 193.4 191.507 193.402 191.502 193.406C191.497 193.409 191.493 193.414 191.491 193.42C191.488 193.425 191.486 193.432 191.486 193.438C191.486 193.444 191.488 193.451 191.491 193.456C191.493 193.462 191.497 193.467 191.502 193.47C191.507 193.474 191.513 193.476 191.519 193.477C191.525 193.478 191.531 193.477 191.537 193.475Z" fill="#FAC07F"/>
<path d="M137.394 257.288C135.996 259.264 134.462 261.17 133.353 263.313C133.33 263.355 133.322 263.405 133.331 263.453C133.339 263.501 133.364 263.544 133.401 263.574C133.437 263.604 133.482 263.619 133.528 263.617C133.574 263.614 133.618 263.594 133.651 263.56C135.272 261.738 136.76 259.788 138.102 257.728C139.645 255.51 141.132 253.239 142.461 250.873C144.922 246.478 146.767 241.624 146.656 236.438H146.628C146.408 241.673 144.143 246.567 141.575 250.942C140.298 253.15 138.853 255.244 137.394 257.288Z" fill="#FAC07F"/>
<path d="M145.518 247.347C144.093 250.615 142.478 253.787 140.684 256.844C138.769 259.97 136.345 262.548 134.098 265.387C133.921 265.604 134.14 265.975 134.401 265.802C137.333 263.881 139.608 260.76 141.477 257.743C143.463 254.605 144.903 251.116 145.728 247.441C145.756 247.318 145.578 247.219 145.518 247.347Z" fill="#FAC07F"/>
<path d="M46.4422 70.5146C46.6286 72.4208 46.8586 74.3122 47.132 76.1888C48.3605 84.5302 50.4761 92.6975 53.4384 100.535C59.3579 116.338 68.3957 130.629 79.2326 143.099C85.2594 150.037 91.8175 156.758 99.0701 162.23C98.8883 162.403 98.7112 162.585 98.5387 162.773C97.4597 163.928 96.5669 165.262 95.8959 166.724C93.7099 164.22 90.0136 164.388 87.4594 166.501C86.1538 167.614 85.0485 168.968 84.1967 170.497C83.5317 170.095 82.8064 169.818 82.0526 169.677C80.6845 169.399 79.2731 169.481 77.9415 169.914C77.8017 168.506 76.8275 166.985 76.0212 166.101C74.8689 164.866 73.3898 164.031 71.7796 163.706C69.0576 163.109 65.5665 163.627 63.7067 166.042C62.8304 167.178 62.3084 169.084 63.1147 170.403C63.1608 170.482 63.2296 170.543 63.3111 170.577C63.3925 170.611 63.4822 170.616 63.5666 170.591C63.6511 170.567 63.7258 170.514 63.7796 170.441C63.8334 170.368 63.8634 170.278 63.8652 170.185C63.8931 169.415 63.7393 168.704 63.9957 167.934C64.2182 167.316 64.5953 166.775 65.0864 166.368C66.3302 165.392 67.8406 164.872 69.3885 164.887C71.0679 164.816 72.7239 165.322 74.1102 166.329C74.8004 166.85 75.376 167.524 75.7974 168.304C76.0944 169.005 76.3467 169.726 76.5525 170.462C74.525 171.499 72.5254 173.371 72.1525 175.657C72.1321 175.733 72.1386 175.813 72.1706 175.884C72.2027 175.955 72.2581 176.011 72.3264 176.041C72.3948 176.072 72.4712 176.075 72.5414 176.049C72.6116 176.024 72.6705 175.972 72.7072 175.904C73.4716 174.852 74.1381 173.776 75.1356 172.941C76.0731 172.157 77.1445 171.572 78.2911 171.218C79.3983 170.86 80.5715 170.795 81.7077 171.03C82.3184 171.168 82.9061 171.403 83.4509 171.726L83.5348 171.776C82.6776 173.61 82.0763 175.566 81.7496 177.583C81.5352 178.902 81.2276 181.005 81.6424 182.6C80.0887 183.173 78.5599 183.819 77.0559 184.536C67.0419 189.302 58.5457 197.039 52.5948 206.813C46.6566 216.69 43.8739 228.463 45.2396 240.122C45.548 242.702 46.0309 245.255 46.6846 247.762C42.2752 251.016 37.9031 254.365 33.6336 257.856L33.5311 257.105L31.6247 259.184L28.926 258.691L30.012 260.878C26.8658 263.56 23.7895 266.31 20.8157 269.209C17.2127 272.701 13.6983 276.38 10.7852 280.567C8.92074 283.2 6.84191 286.587 7.05632 290.029C7.38725 295.59 14.1225 294.849 17.7767 294.35C26.6327 293.145 35.3256 290.074 43.7294 286.943C50.721 284.36 57.6007 281.511 64.4245 278.518C70.4839 284.479 77.7877 289.061 85.8653 291.091C91.0998 292.403 96.5288 292.594 101.834 291.654C107.213 290.706 112.307 288.494 117.155 285.891C126.104 281.086 134.294 274.335 140.059 265.555C146.122 256.189 148.923 244.882 147.983 233.569C147.927 232.858 147.857 232.152 147.778 231.446L149.176 230.423C157.315 224.458 165.238 218.078 172.533 211.006C177.282 206.384 181.92 201.411 185.505 195.697C187.313 192.808 189.462 189.02 189.005 185.386C188.934 184.775 188.76 184.183 188.492 183.637C188.05 182.809 187.382 182.142 186.577 181.721V181.568C186.668 181.503 186.743 181.415 186.796 181.312C186.872 181.159 186.902 180.986 186.881 180.815C186.86 180.644 186.79 180.485 186.679 180.358C186.519 180.223 186.33 180.131 186.128 180.092C185.926 180.052 185.719 180.066 185.523 180.131C185.321 180.203 185.136 180.32 184.981 180.474C184.826 180.628 184.704 180.816 184.624 181.025C184.151 180.925 183.673 180.851 183.193 180.803C180.023 180.492 176.756 181.109 173.661 181.791C164.693 183.766 155.995 187.183 147.447 190.61C142.525 192.586 137.636 194.65 132.751 196.714L132.709 196.739C132.103 196.031 131.481 195.343 130.844 194.675C123.965 187.489 115.202 182.358 105.675 180.457C101.921 179.714 98.0914 179.491 94.2832 179.795C94.8681 178.443 95.764 177.268 96.8887 176.378C98.5014 175.237 100.151 175.43 101.75 176.462C102.566 176.986 103.209 175.711 102.477 175.139C101.676 174.51 100.724 174.135 99.7297 174.056C98.7357 173.977 97.7409 174.199 96.8607 174.694C96.7116 173.978 96.4179 173.292 96.3014 172.546C96.1277 171.459 96.1578 170.346 96.39 169.272C96.4552 168.966 96.5298 168.669 96.6183 168.378C96.6667 168.326 96.7035 168.263 96.7261 168.194C96.7487 168.124 96.7565 168.051 96.7489 167.978C97.3643 166.265 98.3269 164.716 99.5688 163.44C101.128 161.774 103.06 160.554 105.185 159.894C106.205 159.583 107.266 159.449 108.327 159.499C108.793 159.523 109.259 159.642 109.725 159.667C110.013 159.65 110.298 159.607 110.578 159.538C109.646 161.696 108.877 165.573 111.333 166.59C111.422 166.615 111.516 166.615 111.605 166.589C111.693 166.564 111.774 166.514 111.84 166.445C111.905 166.376 111.951 166.29 111.975 166.196C112 166.102 112 166.003 111.977 165.909C111.641 164.956 111.161 164.185 111.156 163.128C111.181 161.958 111.469 160.81 111.995 159.78C112.927 157.909 114.629 156.072 116.791 156.417C116.865 156.435 116.942 156.424 117.009 156.388C117.076 156.351 117.129 156.291 117.158 156.218C117.187 156.144 117.192 156.062 117.17 155.986C117.148 155.91 117.101 155.844 117.038 155.8C114.633 154.027 111.977 156.832 110.863 158.941C110.811 159.04 110.76 159.143 110.709 159.257C110.476 158.971 110.188 158.74 109.865 158.58C109.289 158.4 108.69 158.312 108.089 158.319C106.924 158.289 105.761 158.456 104.645 158.812C102.873 159.379 101.225 160.314 99.7972 161.563C93.8683 156.002 87.8602 150.585 82.3742 144.511C76.8232 138.392 71.7464 131.809 67.1932 124.827C58.2719 111.058 51.6812 95.5817 48.7774 79.1172C48.2126 75.9132 47.8004 72.681 47.5422 69.4331L46.4422 70.5146ZM165.798 196.052C165.909 196.107 165.83 196.102 165.798 196.052V196.052ZM165.746 196.393C165.327 197.583 164.222 199.055 163.341 200.171C161.612 202.323 159.783 204.381 157.86 206.339C153.665 210.695 149.214 214.798 144.65 218.729C142.828 212.769 140.156 207.138 136.727 202.033C142.606 199.964 148.599 198.277 154.672 196.981C157.58 196.344 160.582 195.697 163.565 195.687C164.312 195.651 165.059 195.767 165.765 196.028V196.028C165.751 196.107 165.821 196.171 165.746 196.383V196.393ZM82.8636 180.709C82.8562 179.515 82.9782 178.323 83.2272 177.158C83.7213 174.741 84.6485 172.446 85.9585 170.398C87.0585 168.699 88.5827 167.01 90.5124 166.447C92.4421 165.884 93.9149 166.887 95.4018 167.993C95.2741 168.38 95.1667 168.774 95.0802 169.173C94.712 170.911 94.5722 173.929 95.84 175.41C95.2131 175.947 94.6717 176.588 94.2366 177.307C93.7595 178.076 93.4888 178.969 93.4535 179.889C89.8906 180.232 86.3738 180.987 82.9661 182.141C82.9289 181.657 82.8683 181.173 82.8636 180.709ZM48.5769 220.66C48.5163 221.559 48.4884 222.468 48.4837 223.367C48.4557 227.11 48.824 230.823 48.9219 234.557C48.9219 234.584 48.9322 234.611 48.9505 234.63C48.9689 234.65 48.9938 234.661 49.0197 234.661C49.0457 234.661 49.0706 234.65 49.0889 234.63C49.1073 234.611 49.1176 234.584 49.1176 234.557C49.1875 231.041 48.8846 227.525 48.8799 224.009C48.8533 222.192 48.9546 220.377 49.1829 218.576C49.5977 217.243 50.0731 215.919 50.5812 214.626C52.5659 209.754 55.2135 205.217 58.4397 201.159C54.1143 208.364 52.1566 217.287 51.807 225.633C51.807 225.895 52.1706 225.89 52.1892 225.633C52.4708 220.157 53.5056 214.753 55.2609 209.593C56.2139 206.917 57.3981 204.34 58.7986 201.895C58.724 202.161 58.6541 202.433 58.5889 202.704C58.0548 204.875 57.6362 207.076 57.335 209.297C56.7039 213.463 56.3256 217.668 56.2024 221.885C56.2047 221.922 56.2191 221.958 56.2431 221.985C56.2672 222.013 56.2995 222.031 56.3345 222.036C56.3695 222.041 56.4052 222.033 56.4355 222.014C56.4657 221.995 56.4888 221.965 56.5007 221.929C57.3211 217.86 57.5028 213.628 58.0948 209.519C58.3978 207.416 58.738 205.317 59.2181 203.248C59.5211 201.939 59.9079 200.665 60.2808 199.381C60.5745 198.887 60.8774 198.428 61.1804 197.954C62.4109 196.62 63.7067 195.351 65.0537 194.151C62.9563 196.709 61.9774 200.512 61.2783 203.608C60.2715 208.092 59.8473 212.69 59.4465 217.268C59.4465 217.475 59.7588 217.524 59.7914 217.317C60.4207 212.991 60.9054 208.65 61.8423 204.383C62.7791 200.117 64.1448 195.801 66.9694 192.531L67.1279 192.408C66.7751 193.474 66.4748 194.559 66.2283 195.657C65.8181 197.302 65.4499 198.961 65.1516 200.63C64.583 203.855 64.1868 207.09 63.8698 210.354C63.8698 210.477 64.0609 210.507 64.0796 210.384C64.597 207.188 65.147 203.988 65.7995 200.818C66.1258 199.223 66.452 197.628 66.8343 196.048C67.1699 194.63 67.6453 193.228 67.9016 191.791C68.8571 191.055 69.8313 190.349 70.8288 189.682C70.7682 189.796 70.7076 189.904 70.6517 190.018C69.8431 191.673 69.189 193.408 68.6987 195.198C67.7012 198.62 67.1372 202.161 66.4614 205.667C66.4617 205.725 66.4798 205.782 66.5129 205.828C66.5461 205.874 66.5925 205.907 66.6452 205.923C66.6979 205.939 66.7539 205.936 66.8048 205.914C66.8558 205.893 66.8988 205.855 66.9275 205.806C67.7944 202.645 68.3957 199.411 69.258 196.245C69.706 194.484 70.2922 192.766 71.0106 191.109C71.4277 190.227 71.9207 189.387 72.4834 188.601C73.1795 188.166 73.8864 187.749 74.6042 187.351C74.0865 188.013 73.6654 188.754 73.3551 189.549C72.7094 191.12 72.1978 192.75 71.8262 194.418C71.0432 197.648 70.5398 200.951 70.0317 204.24C70.0253 204.291 70.0363 204.343 70.0629 204.385C70.0895 204.428 70.1297 204.459 70.1762 204.473C70.2228 204.487 70.2725 204.482 70.3161 204.461C70.3598 204.439 70.3945 204.401 70.4139 204.354C71.4254 201.425 71.8123 198.235 72.4974 195.213C72.8474 193.596 73.3069 192.009 73.8724 190.462C74.4172 189.179 75.0545 187.943 75.7788 186.763C75.7844 186.742 75.7844 186.72 75.7788 186.699C76.8229 186.146 77.8856 185.623 78.967 185.144C78.8784 185.262 78.7992 185.376 78.7199 185.489C78.0337 186.471 77.4419 187.523 76.9534 188.63C75.8944 191.107 75.0881 193.696 74.5483 196.354C73.4157 201.425 73.0008 206.616 72.2457 211.756C72.2178 211.944 72.4788 212.033 72.5254 211.835C73.6114 207.035 74.2034 202.122 75.2801 197.317C75.8359 194.681 76.616 192.104 77.6106 189.618C78.0436 188.551 78.5613 187.525 79.1581 186.551C79.6242 185.815 80.3699 185.134 80.8221 184.363C81.2555 184.186 81.6937 184.018 82.1318 183.87C82.1598 183.909 82.1971 183.944 82.225 183.978C81.3301 185.228 80.8267 186.818 80.3606 188.28C79.6987 190.398 79.3026 192.586 78.7712 194.744C78.7647 194.787 78.7734 194.831 78.7957 194.868C78.8181 194.905 78.8525 194.932 78.8923 194.943C78.9322 194.955 78.9747 194.951 79.0117 194.931C79.0487 194.912 79.0776 194.878 79.0928 194.838C79.7314 192.892 80.2534 190.912 80.8221 188.946C81.3156 187.327 81.9394 185.756 82.6865 184.25C82.7434 184.241 82.7965 184.214 82.8388 184.172C82.8812 184.131 82.9109 184.077 82.9242 184.018C82.9475 183.899 82.9615 183.776 82.9755 183.652L83.0221 183.554C83.6233 183.341 84.22 183.144 84.8259 182.961C84.3631 183.676 83.9695 184.439 83.6513 185.238C82.7845 187.306 82.101 189.455 81.6098 191.657C80.603 195.811 80.0483 200.053 79.3259 204.245C79.3193 204.288 79.3281 204.333 79.3504 204.37C79.3728 204.406 79.4072 204.433 79.447 204.445C79.4868 204.456 79.5293 204.452 79.5663 204.433C79.6033 204.413 79.6322 204.38 79.6475 204.339C80.7708 200.537 81.3488 196.546 82.2483 192.68C82.7235 190.537 83.3339 188.43 84.0755 186.373C84.3857 185.513 84.7728 184.686 85.2314 183.904C85.5251 183.41 85.9679 183 86.2895 182.531C87.0865 182.314 87.8835 182.121 88.6899 181.949C88.2964 182.507 87.9677 183.114 87.7111 183.756C87.14 185.137 86.6982 186.575 86.392 188.047C85.7395 190.926 85.4318 193.885 84.7327 196.749C84.6767 196.976 85.0123 197.149 85.1102 196.917C86.1403 194.423 86.4386 191.613 86.9746 188.976C87.2488 187.504 87.637 186.059 88.1352 184.655C88.5837 183.626 89.1271 182.647 89.7573 181.731C90.3446 181.618 90.9365 181.519 91.5285 181.435C89.5429 184.823 89.0535 189.124 88.5128 192.986C88.4961 193.051 88.5047 193.121 88.5366 193.18C88.5685 193.239 88.6211 193.282 88.6829 193.299C88.7447 193.317 88.8106 193.308 88.8661 193.274C88.9216 193.24 88.9622 193.185 88.9789 193.119C90.1162 189.198 90.312 184.798 92.498 181.302C93.1925 181.218 93.8963 181.149 94.5861 181.099C94.4929 186.462 94.3111 191.746 93.7844 197.094C93.7844 197.262 94.0128 197.282 94.0548 197.129C95.551 191.998 95.015 186.378 94.8938 181.079C95.4997 181.035 96.1103 181.01 96.7162 181C97.5126 183.934 98.0739 186.934 98.3942 189.968C98.7065 193.006 98.7112 196.062 98.8137 199.109C98.8225 199.182 98.856 199.249 98.9079 199.297C98.9598 199.345 99.0266 199.372 99.0957 199.372C99.1648 199.372 99.2316 199.345 99.2835 199.297C99.3354 199.249 99.3689 199.182 99.3777 199.109C100.068 192.984 99.3699 186.773 97.3408 180.991C97.7463 180.991 98.1565 180.991 98.562 180.991C98.8857 182.444 99.2967 183.874 99.7925 185.272C100.259 186.808 100.65 188.373 100.99 189.944C101.722 193.277 101.801 196.581 102.067 199.964C102.09 200.299 102.566 200.413 102.65 200.048C103.4 196.744 102.878 193.065 102.128 189.81C101.722 188.118 101.21 186.457 100.594 184.837C100.16 183.491 99.5782 182.203 98.8603 181H99.0747C99.8624 181.03 100.645 181.089 101.405 181.168C104.775 188.517 107.274 196.28 106.751 204.571C106.755 204.625 106.776 204.677 106.811 204.716C106.846 204.756 106.893 204.782 106.944 204.789C106.994 204.797 107.046 204.786 107.09 204.758C107.134 204.73 107.167 204.686 107.185 204.635C107.987 200.458 107.525 196.181 106.43 192.112C105.432 188.229 103.847 184.544 101.736 181.198C102.403 181.272 103.065 181.361 103.726 181.465C104.78 183.598 105.894 185.697 106.817 187.884C107.824 190.28 108.476 192.798 109.436 195.198C109.553 195.485 110.01 195.336 109.991 195.04C109.814 192.522 108.76 190.023 107.758 187.766C106.83 185.598 105.72 183.524 104.44 181.568C105.129 181.687 105.81 181.825 106.49 181.978C107.343 184.21 108.388 186.368 109.194 188.63C110.122 191.231 110.9 193.89 111.524 196.591C112.727 201.957 113.497 207.422 113.827 212.927C113.827 212.987 113.85 213.045 113.89 213.087C113.93 213.13 113.984 213.154 114.041 213.154C114.098 213.154 114.153 213.13 114.193 213.087C114.233 213.045 114.256 212.987 114.256 212.927C114.601 207.396 113.864 201.83 112.568 196.477C111.907 193.721 111.083 191.011 110.103 188.363C109.359 186.211 108.422 184.139 107.306 182.176C108.142 182.38 108.97 182.61 109.79 182.867C110.485 184.156 111.268 185.381 111.879 186.724C112.678 188.488 113.375 190.302 113.967 192.156C114.535 193.914 115.016 195.697 115.444 197.495C115.831 199.104 116.102 200.774 116.619 202.349C116.763 202.783 117.458 202.749 117.425 202.23C117.268 200.521 116.966 198.83 116.521 197.178C116.055 195.203 115.538 193.282 114.908 191.381C114.367 189.583 113.673 187.841 112.834 186.176C112.293 185.098 111.633 184.091 110.867 183.178C111.604 183.42 112.326 183.672 113.049 183.973C113.07 184.008 113.097 184.038 113.128 184.062C114.614 185.2 115.86 186.653 116.787 188.329C117.786 190.302 118.528 192.41 118.991 194.596C120.059 199.223 120.39 203.979 120.707 208.695C120.774 210.805 120.947 212.91 121.224 215.001C121.275 215.302 121.662 215.194 121.69 214.937C122.156 210.556 121.774 205.919 121.294 201.564C120.777 196.902 119.961 192.003 117.714 187.884C117.19 186.894 116.549 185.978 115.808 185.158C116.968 185.702 118.106 186.299 119.22 186.936C121.695 189.692 123.056 193.751 124.151 197.208C125.463 201.325 126.47 205.543 127.162 209.826C127.218 210.166 127.745 210.087 127.736 209.742C127.563 205.154 126.286 200.576 124.78 196.294C124 193.939 122.99 191.676 121.765 189.544C121.405 188.924 121.012 188.325 120.59 187.751L121.098 188.067C121.094 188.077 121.091 188.088 121.091 188.099C121.091 188.11 121.094 188.121 121.098 188.131C121.396 189.055 122.245 189.884 122.781 190.67C123.487 191.711 124.136 192.794 124.724 193.914C126.096 196.504 127.281 199.2 128.272 201.979C129.245 204.656 130.038 207.404 130.644 210.201C130.91 211.465 131.143 212.739 131.315 214.023C131.46 215.11 131.436 216.285 131.669 217.357C131.695 217.449 131.748 217.531 131.82 217.589C131.893 217.647 131.982 217.678 132.073 217.678C132.164 217.678 132.252 217.647 132.325 217.589C132.398 217.531 132.451 217.449 132.476 217.357C132.769 216.305 132.639 215.016 132.541 213.934C132.416 212.605 132.213 211.286 131.935 209.984C131.306 207.033 130.447 204.142 129.367 201.341C128.337 198.573 127.076 195.908 125.601 193.376C124.939 192.254 124.215 191.174 123.433 190.141C123.177 189.801 122.888 189.405 122.566 189.04C123.303 189.544 124.028 190.071 124.743 190.62C125.424 191.139 126.086 191.682 126.738 192.24C127.204 193.327 127.773 194.383 128.248 195.475C129.069 197.371 129.819 199.302 130.537 201.243C131.23 203.076 131.811 204.955 132.275 206.867C132.667 208.517 132.825 210.196 133.161 211.845C133.178 211.908 133.214 211.962 133.263 212.001C133.313 212.04 133.372 212.061 133.434 212.061C133.495 212.061 133.555 212.04 133.604 212.001C133.653 211.962 133.689 211.908 133.706 211.845C134.135 210.319 133.781 208.492 133.459 206.976C132.984 204.912 132.348 202.894 131.558 200.941C130.833 199.075 129.994 197.26 129.045 195.509C128.626 194.734 128.22 193.939 127.777 193.168C128.523 193.847 129.249 194.546 129.954 195.267C130.383 196.023 130.989 196.724 131.418 197.475C131.961 198.431 132.452 199.421 132.886 200.438C133.813 202.7 134.528 205.054 135.021 207.465C136.052 212.179 136.348 217.04 135.897 221.855C135.86 222.236 136.452 222.32 136.526 221.944C137.491 217.006 137.132 211.9 135.953 207.021C135.365 204.618 134.544 202.286 133.501 200.062C133.226 199.475 132.933 198.902 132.625 198.339C133.476 199.524 134.328 200.713 135.179 201.904C135.247 202.008 135.333 202.095 135.433 202.162C135.533 202.229 135.645 202.274 135.762 202.295L135.836 202.403C136.032 202.897 136.214 203.391 136.382 203.919C136.96 205.732 137.444 207.584 137.897 209.435C138.67 212.616 139.155 215.88 140.017 219.036C140.033 219.093 140.068 219.143 140.115 219.177C140.163 219.21 140.22 219.223 140.276 219.216C140.333 219.208 140.385 219.179 140.423 219.134C140.461 219.089 140.482 219.032 140.483 218.971C140.527 217.549 140.37 216.127 140.017 214.754C139.593 212.685 139.085 210.626 138.558 208.586C138.242 207.386 137.911 206.186 137.533 205.001C139.734 208.596 141.562 212.432 142.986 216.443C143.328 217.398 143.639 218.361 143.919 219.332C142.418 220.616 140.903 221.883 139.374 223.134C123.624 236.058 106.649 247.436 88.303 255.728C79.9458 259.51 71.3881 262.819 62.7279 265.743C61.0872 266.296 59.4434 266.837 57.7965 267.367C53.8685 261.489 50.8448 254.989 48.838 248.108C46.2526 239.177 46.1619 229.644 48.5769 220.66V220.66ZM127.526 236.295C133.585 232.162 139.225 227.406 144.846 222.636C145.033 223.38 145.21 224.125 145.378 224.873C145.39 224.947 145.422 225.015 145.47 225.07C145.517 225.126 145.579 225.165 145.648 225.184C145.648 225.742 145.648 226.295 145.648 226.848C143.355 228.744 141.075 230.67 138.833 232.636C138.801 232.665 138.833 232.73 138.88 232.7C141.113 230.878 143.378 229.1 145.653 227.337C145.656 228.056 145.706 228.774 145.802 229.485C145.844 229.781 145.881 230.078 145.918 230.379C145.816 230.626 145.722 230.873 145.629 231.139L144.231 232.127C144.284 231.944 144.327 231.757 144.361 231.569C144.38 231.495 144.373 231.417 144.341 231.348C144.309 231.279 144.255 231.225 144.189 231.196C144.122 231.166 144.048 231.163 143.979 231.187C143.911 231.212 143.853 231.261 143.816 231.327C143.53 231.841 143.286 232.38 143.084 232.937C141.897 233.77 140.704 234.593 139.505 235.406C139.517 235.366 139.526 235.325 139.533 235.283C139.546 235.225 139.542 235.163 139.52 235.108C139.498 235.053 139.459 235.007 139.41 234.977C139.361 234.947 139.305 234.935 139.249 234.942C139.192 234.949 139.14 234.975 139.099 235.016C138.761 235.367 138.486 235.78 138.288 236.236L135.389 238.182C135.327 238.142 135.254 238.129 135.183 238.146C135.113 238.162 135.051 238.207 135.011 238.27L134.862 238.527C131.133 240.983 127.384 243.378 123.615 245.713C111.925 252.929 99.9619 259.622 87.7251 265.792C80.3047 269.555 72.8144 273.125 65.2542 276.503C64.4105 275.654 63.5995 274.775 62.8071 273.876C68.116 271.688 73.3737 269.362 78.6081 267.041C80.7801 266.054 82.9382 265.066 85.0916 264.049C86.2388 263.427 87.4183 262.874 88.6247 262.394C88.8204 262.33 88.7365 261.999 88.5361 262.068C85.7721 262.992 83.092 264.182 80.3979 265.328C75.2708 267.501 70.2182 269.802 65.0864 271.94L62.1686 273.14C60.966 271.725 59.824 270.243 58.7427 268.696C66.3153 266.286 73.7916 263.553 81.1716 260.498C90.0012 256.936 98.5872 252.73 106.868 247.91C116.65 242.075 126.078 235.597 135.095 228.512C138.246 226.046 141.354 223.511 144.417 220.907C144.52 221.258 144.613 221.613 144.706 221.969C139.039 226.799 133.464 231.762 127.493 236.162C127.4 236.231 127.461 236.34 127.526 236.295ZM32.0442 273.007C31.9917 272.883 31.9693 272.747 31.9789 272.612C32.0678 272.064 32.2682 271.543 32.5662 271.086C33.3795 269.71 34.333 268.433 35.4095 267.278C38.3871 263.998 41.5683 260.933 44.932 258.103C46.2526 256.967 47.5872 255.851 48.9358 254.755C50.7666 259.431 53.0784 263.88 55.8295 268.019C51.1685 269.466 46.4562 270.78 41.7019 271.846C39.4766 272.381 37.225 272.783 34.9573 273.051C34.2396 273.139 33.5167 273.171 32.7946 273.145C32.6046 273.148 32.415 273.125 32.2306 273.076C32.1658 273.062 32.103 273.039 32.0442 273.007V273.007ZM53.196 281.634C43.8739 285.437 34.3561 289.042 24.6052 291.437C21.3975 292.306 18.1208 292.858 14.817 293.086C13.0877 293.165 10.6733 293.22 9.34489 292.099C9.08007 291.832 8.8685 291.512 8.72276 291.158C8.57703 290.803 8.50011 290.421 8.49658 290.034C8.46691 288.609 8.77288 287.199 9.38684 285.931C11.1021 281.98 13.9826 278.617 16.7793 275.525C18.2522 273.906 19.767 272.329 21.3238 270.794C21.319 270.899 21.33 271.004 21.3564 271.106C21.4182 271.316 21.542 271.5 21.7098 271.631C21.8776 271.762 22.0804 271.832 22.2886 271.832C22.5063 271.825 22.7231 271.799 22.9365 271.753C23.1056 271.708 23.2542 271.601 23.356 271.451C23.4632 271.311 23.5238 271.138 23.5285 270.957C23.5216 270.807 23.4834 270.661 23.4166 270.528C23.4089 270.512 23.3995 270.497 23.3886 270.483C23.4259 270.348 23.4259 270.204 23.3886 270.069C23.3447 269.9 23.2477 269.751 23.1136 269.649C22.9905 269.541 22.8352 269.483 22.6755 269.486C24.7232 267.51 26.8192 265.601 28.9632 263.757L28.912 263.866L31.6061 263.372L31.8811 263.673C29.3721 265.907 27.0082 268.317 24.8056 270.888C21.9064 274.241 18.956 277.955 17.3899 282.247C16.7233 284.059 16.2899 286.094 16.9704 287.965C16.9852 288.001 17.0116 288.03 17.0448 288.047C17.0779 288.063 17.1157 288.067 17.1513 288.057C17.1868 288.047 17.2177 288.023 17.2384 287.991C17.2591 287.959 17.2682 287.92 17.264 287.881C16.6348 283.96 18.6623 280.202 20.7318 277.121C23.2861 273.274 26.4136 269.836 29.5878 266.582C30.4408 265.708 31.2938 264.849 32.1328 263.97L33.4984 265.451L33.8946 262.577L36.3463 261.293L33.89 260.014L33.8387 259.644C36.5374 257.441 39.2781 255.293 42.0188 253.184C43.6968 251.894 45.3841 250.623 47.0807 249.372C47.4629 250.689 47.8887 251.997 48.3579 253.298C44.9833 256.014 41.6926 258.854 38.5697 261.876C35.9222 264.424 32.8645 267.224 31.1493 270.617C30.4548 271.99 30.0446 274.148 31.895 274.607C33.3912 274.982 35.1158 274.637 36.6027 274.419C42.9324 273.486 49.1875 271.673 55.3075 269.807L56.7058 269.367C57.492 270.5 58.3045 271.601 59.1435 272.671C59.4791 273.106 59.824 273.53 60.1783 273.955C55.9833 275.629 51.7884 277.229 47.5515 278.676C42.5735 280.375 37.4743 282.069 32.2726 282.745C29.7463 283.076 24.8522 283.782 24.1717 280.113C24.1717 280.084 24.1297 280.113 24.1251 280.113C23.92 283.259 27.7141 283.659 29.8628 283.659C34.6963 283.659 39.6231 282.113 44.2235 280.696C49.8168 278.963 55.3401 276.913 60.8029 274.701C61.589 275.626 62.4016 276.525 63.2406 277.397C59.9219 278.842 56.5706 280.253 53.1867 281.629L53.196 281.634ZM146.249 234.078C146.435 237.01 146.385 239.954 146.1 242.878C145.575 248.173 144.174 253.328 141.961 258.108C141.062 260.059 140.039 261.943 138.899 263.747C135.897 266.419 132.485 268.493 129.087 270.582C128.85 270.725 129.059 271.076 129.297 270.957C131.581 269.93 134.205 268.794 136.47 267.239C135.874 268.029 135.252 268.801 134.606 269.555C132.103 270.676 129.852 272.518 127.461 273.866C126.071 274.679 124.613 275.355 123.107 275.886C121.783 276.34 120.31 276.444 119.029 277.061C119.007 277.075 118.989 277.096 118.978 277.12C118.967 277.144 118.963 277.172 118.967 277.199C118.97 277.225 118.981 277.251 118.998 277.271C119.015 277.291 119.037 277.306 119.061 277.313C120.385 277.649 121.858 277.081 123.121 276.607C124.492 276.066 125.829 275.434 127.125 274.716C129.236 273.606 131.293 272.383 133.287 271.051C132.647 271.746 131.993 272.426 131.325 273.091C130.08 273.511 128.812 274.572 127.731 275.19C126.3 276.044 124.874 276.908 123.419 277.713C121.906 278.601 120.35 279.405 118.758 280.123C117.214 280.726 115.639 281.238 114.041 281.659C114.025 281.659 114.01 281.666 113.999 281.678C113.987 281.69 113.981 281.706 113.981 281.723C113.981 281.74 113.987 281.756 113.999 281.768C114.01 281.78 114.025 281.787 114.041 281.787C117.183 281.57 120.502 280.138 123.303 278.686C124.836 277.891 126.337 277.032 127.819 276.133L128.425 275.767C126.531 277.405 124.548 278.926 122.487 280.321C121.671 280.869 120.846 281.412 120.012 281.935C119.462 282.123 118.921 282.34 118.399 282.513C117.146 282.913 115.878 283.264 114.601 283.545C113.299 283.833 111.985 284.047 110.662 284.187C109.414 284.232 108.169 284.353 106.933 284.548C106.911 284.555 106.892 284.569 106.878 284.589C106.865 284.608 106.857 284.632 106.857 284.656C106.857 284.681 106.865 284.704 106.878 284.724C106.892 284.744 106.911 284.758 106.933 284.765C109.301 285.531 112.224 284.903 114.601 284.395C115.304 284.242 115.999 284.069 116.703 283.901C114.635 285.057 112.506 286.086 110.326 286.982C109.991 287.052 109.655 287.15 109.32 287.21C108.426 287.366 107.521 287.434 106.616 287.412C105.162 287.387 103.61 286.879 102.17 287.007C102.154 287.008 102.14 287.013 102.128 287.023C102.116 287.034 102.108 287.048 102.104 287.063C102.1 287.079 102.102 287.095 102.108 287.11C102.113 287.125 102.124 287.137 102.137 287.145C103.326 288.094 105.353 288.133 106.798 288.158H107.152C105.754 288.622 104.318 289.022 102.878 289.338C102.86 289.303 102.833 289.275 102.8 289.255C102.767 289.236 102.729 289.227 102.692 289.229C101.078 289.319 99.4626 289.115 97.9141 288.627C97.9025 288.621 97.889 288.62 97.8765 288.624C97.8641 288.628 97.8535 288.636 97.847 288.648C97.8404 288.66 97.8384 288.674 97.8414 288.688C97.8443 288.701 97.852 288.713 97.8629 288.721C98.5105 289.365 99.3454 289.756 100.231 289.832C97.996 290.17 95.7369 290.291 93.4815 290.192C83.339 289.699 73.8678 284.79 66.4008 277.669C68.4796 276.74 70.5538 275.795 72.6233 274.834C72.008 276.128 71.472 277.461 70.8008 278.721C70.7216 278.864 70.9127 279.037 71.0292 278.903C72.0733 277.654 72.7258 276.049 73.3597 274.459C74.4411 273.965 75.5178 273.471 76.5945 272.938C76.3288 273.432 76.0864 273.98 75.8441 274.498C75.1449 275.98 74.4457 277.461 73.7885 278.943C73.7093 279.121 73.9097 279.313 74.0496 279.16C75.7135 277.358 76.3055 274.716 77.4708 272.518L77.9835 272.276L80.9852 270.829C80.4259 271.792 79.9551 272.804 79.4657 273.792C78.5055 275.733 77.6246 277.718 76.8042 279.718C76.7343 279.896 76.9441 280.128 77.0792 279.945C78.2407 278.239 79.2473 276.42 80.0856 274.513C80.7894 273.032 81.5259 271.624 82.2483 270.177L85.6229 268.513C84.7592 269.861 83.9806 271.268 83.2924 272.725C82.2157 274.775 81.1623 276.844 80.0297 278.874C79.8805 279.145 80.2581 279.367 80.4259 279.116C81.6983 277.19 82.831 275.165 83.9916 273.19C85.0077 271.432 86.2848 269.733 87.0679 267.807C88.4009 267.148 89.7309 266.473 91.0577 265.782C89.8319 267.659 88.909 269.832 87.8929 271.792C86.4479 274.567 84.9657 277.323 83.3017 279.955C83.1526 280.192 83.4975 280.449 83.6746 280.261C85.5838 277.858 87.2361 275.238 88.6013 272.449C89.8086 270.098 91.1976 267.713 92.1624 265.214C93.6135 264.47 95.06 263.715 96.5018 262.947C95.9938 263.782 95.5696 264.671 95.1035 265.481C94.1014 267.278 93.1132 269.071 91.962 270.77C91.631 271.264 92.3815 271.693 92.7124 271.234C93.8897 269.566 94.979 267.83 95.9751 266.034C96.7628 264.768 97.4713 263.448 98.0959 262.083C99.2379 261.476 100.38 260.863 101.512 260.241C101.084 260.794 100.692 261.377 100.324 261.891C99.2474 263.431 98.2471 265.03 97.3268 266.681C95.4624 269.97 93.6446 273.303 91.5937 276.469C91.4306 276.721 91.7942 277.012 91.9853 276.795C94.3764 274.069 96.0637 270.794 97.8442 267.614C98.7438 266.014 99.6574 264.419 100.641 262.878C101.419 261.663 102.505 260.533 103.288 259.268C104.514 258.597 105.735 257.915 106.957 257.234C106.09 258.483 105.321 259.821 104.551 261.11C103.274 263.249 102.076 265.446 100.79 267.585C100.52 268.034 101.182 268.429 101.461 267.999C102.79 265.96 104.006 263.861 105.237 261.757C106.332 259.881 107.567 258.103 108.69 256.256C109.711 255.673 110.732 255.095 111.748 254.508C111.282 255.179 110.816 255.866 110.387 256.483C108.989 258.458 107.698 260.488 106.449 262.552C103.967 266.614 101.729 270.836 99.7459 275.195C99.7247 275.246 99.722 275.303 99.7383 275.356C99.7546 275.409 99.7887 275.454 99.8343 275.482C99.8798 275.51 99.9335 275.52 99.9851 275.509C100.037 275.497 100.083 275.466 100.114 275.422C102.682 271.59 104.845 267.436 107.222 263.471C108.401 261.496 109.627 259.555 110.923 257.668C111.58 256.715 112.252 255.782 112.941 254.858C113.407 254.261 113.911 253.688 114.34 253.071L115.593 252.35C115.332 252.789 115.099 253.234 114.876 253.609C113.613 255.723 112.494 257.94 111.287 260.083C108.56 264.938 105.721 269.693 102.813 274.404C102.71 274.572 102.953 274.775 103.074 274.617C106.308 270.358 109.235 265.848 111.832 261.125C113.075 258.933 114.29 256.722 115.477 254.493C116.055 253.411 116.875 252.429 117.341 251.298C118.559 250.577 119.771 249.851 120.977 249.12C120.003 250.799 119.141 252.577 118.18 254.241C116.782 256.646 115.295 259.002 113.874 261.397C112.452 263.792 111.077 266.098 109.776 268.493C108.476 270.888 107.115 273.264 106.187 275.812C106.164 275.881 106.267 275.92 106.299 275.861C107.67 273.461 108.9 270.977 110.317 268.602C111.734 266.226 113.263 263.846 114.764 261.486C116.265 259.125 117.635 256.873 118.991 254.518C120.101 252.587 121.396 250.537 122.189 248.389C123.2 247.772 124.212 247.155 125.219 246.527C124.995 247.051 124.78 247.574 124.543 248.058C123.867 249.451 123.144 250.819 122.436 252.187C121 254.908 119.444 257.56 117.919 260.226C117.78 260.473 118.12 260.666 118.274 260.449C120.086 257.896 121.726 255.211 123.182 252.414C123.904 251.051 124.58 249.648 125.209 248.236C125.545 247.49 125.96 246.68 126.291 245.861C127.372 245.183 128.46 244.501 129.553 243.816C128.85 245.13 128.206 246.503 127.516 247.767C126.323 249.969 125.083 252.147 123.853 254.335C121.392 258.7 118.726 262.957 116.484 267.461C116.474 267.479 116.468 267.498 116.466 267.518C116.463 267.538 116.465 267.558 116.47 267.578C116.474 267.597 116.483 267.616 116.495 267.632C116.506 267.648 116.521 267.661 116.537 267.671C116.554 267.681 116.572 267.688 116.591 267.69C116.61 267.693 116.629 267.691 116.647 267.686C116.666 267.681 116.683 267.672 116.698 267.659C116.713 267.647 116.726 267.632 116.735 267.614C119.611 263.451 122.128 258.992 124.659 254.587C125.908 252.414 127.102 250.206 128.276 247.989C129.115 246.399 130.094 244.725 130.812 243.001C131.716 242.425 132.617 241.843 133.515 241.253C133.086 242.241 132.681 243.229 132.233 244.182C131.278 246.182 130.252 248.132 129.222 250.108C127.148 254.058 124.878 257.841 122.52 261.589C122.422 261.747 122.655 261.945 122.771 261.797C125.455 258.267 127.881 254.526 130.029 250.606C131.096 248.676 132.07 246.681 133.012 244.68C133.664 243.288 134.438 241.811 134.993 240.3L136.936 239.011L136.829 239.224C136.093 240.735 135.37 242.251 134.639 243.762C133.182 246.853 131.556 249.851 129.768 252.74C129.619 252.972 129.968 253.268 130.136 253.046C132.126 250.353 133.844 247.446 135.263 244.374C136.032 242.814 136.759 241.229 137.51 239.653C137.752 239.159 137.999 238.631 138.251 238.122C139.512 237.27 140.769 236.409 142.022 235.54C141.747 236.162 141.472 236.779 141.192 237.396C140.26 239.421 139.276 241.411 138.242 243.367C136.149 247.318 133.846 251.174 131.837 255.184C131.816 255.223 131.809 255.269 131.82 255.313C131.83 255.356 131.857 255.394 131.893 255.416C131.93 255.439 131.973 255.446 132.014 255.435C132.055 255.424 132.091 255.396 132.112 255.357C134.627 251.587 136.939 247.669 139.039 243.624C140.069 241.648 141.061 239.673 141.984 237.653C142.429 236.666 142.851 235.678 143.252 234.69L144.86 233.559C144.543 234.646 144.24 235.732 143.9 236.779C143.094 239.194 142.161 241.584 141.201 243.955C139.22 248.7 136.661 253.071 134.317 257.609C134.228 257.777 134.457 257.989 134.578 257.826C137.687 253.787 140.078 249.031 142.101 244.3C143.061 242.048 143.905 239.737 144.66 237.387C145.126 235.905 145.681 234.295 146.058 232.69L146.137 232.631C146.179 233.09 146.217 233.584 146.249 234.078ZM187.458 187.544C187.105 189.267 186.495 190.919 185.649 192.438C182.974 197.578 179.124 202.028 175.208 206.146C168.911 212.789 161.952 218.724 154.793 224.29C152.397 226.15 149.975 227.971 147.526 229.752C147.498 229.559 147.475 229.367 147.447 229.179C147.299 228.261 147.047 227.366 146.697 226.512C149.68 224.206 152.677 221.905 155.623 219.539C161.099 215.144 166.604 210.68 171.437 205.48C171.563 205.346 171.377 205.154 171.242 205.277C165.919 210.151 160.484 214.863 154.867 219.357C152.071 221.594 149.274 223.831 146.529 226.102C146.384 225.757 146.235 225.411 146.063 225.06C146.119 225.008 146.16 224.94 146.181 224.864C146.203 224.788 146.204 224.707 146.184 224.631C145.997 223.757 145.788 222.883 145.564 222.013C150.011 218.241 154.462 214.473 159.123 211.006C159.24 210.917 159.123 210.714 159.006 210.798C154.294 214.059 149.75 217.587 145.396 221.367C145.303 221.011 145.205 220.655 145.107 220.305C148.869 217.075 152.565 213.727 156.093 210.24C158.475 207.905 160.806 205.485 163.006 202.927C164.394 201.409 165.621 199.735 166.665 197.934C167.215 196.897 167.718 195.519 166.548 194.719C164.842 193.549 161.957 194.161 160.097 194.413C153.012 195.401 145.988 197.376 139.16 199.574C138.125 199.903 137.095 200.25 136.069 200.616C135.408 199.684 134.743 198.754 134.075 197.825C142.231 194.369 150.388 190.946 158.717 187.949C162.801 186.467 166.926 185.104 171.116 183.998C174.379 183.139 177.763 182.373 181.151 182.289C183.141 182.245 186.092 182.289 187.21 184.428C187.374 184.84 187.491 185.271 187.56 185.712C187.604 186.324 187.569 186.941 187.458 187.544V187.544Z" fill="#FAC07F"/>
<path d="M175.903 191.608C175.022 190.126 173.265 189.598 171.708 189.425C168.399 189.06 164.954 189.919 161.743 190.67C158.629 191.396 155.469 192.255 152.318 192.754C152.285 192.754 152.295 192.818 152.318 192.818C154.91 192.877 157.394 192.122 159.897 191.465C162.822 190.626 165.815 190.082 168.837 189.84C171.964 189.667 176.84 190.433 175.633 194.902C174.649 198.561 171.647 201.702 169.196 204.324C165.957 207.718 162.551 210.927 158.993 213.939C156.327 216.241 153.399 218.324 150.929 220.878C150.747 221.06 150.99 221.421 151.204 221.258C157.599 216.344 163.901 211.021 169.452 205.055C172.011 202.309 175.045 199.055 176.136 195.248C176.5 194.077 176.565 192.714 175.903 191.608Z" fill="#FAC07F"/>
<path d="M177.246 186.828C177.083 186.754 176.943 187.006 177.106 187.08C178.644 187.786 179.488 189.351 180.182 190.887C180.215 190.961 180.331 190.887 180.308 190.833C179.763 189.139 178.849 187.559 177.246 186.828Z" fill="#FAC07F"/>
<path d="M33.0514 72.0212C31.0071 79.9278 29.7372 88.0366 29.262 96.2191C28.2105 112.91 29.9638 129.665 34.4404 145.706C36.715 153.81 39.6142 162.107 44.1913 169.089C44.2321 169.163 44.299 169.217 44.3772 169.239C44.4555 169.261 44.5387 169.249 44.6085 169.206C44.6784 169.162 44.7291 169.091 44.7497 169.009C44.7702 168.926 44.7588 168.838 44.718 168.764C41.5112 162.023 38.5189 155.232 36.3282 148.022C33.9782 140.258 32.2934 132.285 31.2942 124.2C29.2667 107.997 29.6442 91.2017 33.2938 75.3101C33.5455 74.2072 33.8159 73.1109 34.1048 72.0212C34.9205 68.8853 34.0256 68.273 33.0514 72.0212Z" fill="#FAC07F"/>
<path d="M65.7207 163.069C61.1249 157.637 56.8228 151.993 53.2151 145.751C49.4792 139.287 46.3566 132.447 43.893 125.33C41.4698 118.357 39.6979 111.149 38.6028 103.809C38.4816 103.019 38.3744 102.224 38.2718 101.429C38.4986 101.372 38.7008 101.236 38.8454 101.042C38.9901 100.849 39.0688 100.609 39.0689 100.362C39.0689 100.244 39.0689 100.125 39.0689 100.002C39.0884 99.8924 39.1009 99.7819 39.1062 99.6708C39.1154 99.6004 39.1154 99.5289 39.1062 99.4584C39.1062 99.4338 39.1062 99.414 39.1062 99.4091C39.1642 99.2298 39.188 99.0401 39.1761 98.851C39.1701 98.7244 39.1183 98.605 39.0316 98.5177C38.9448 98.4304 38.8297 98.3817 38.71 98.3819C38.4317 98.3759 38.1569 98.4474 37.9129 98.5893C37.293 92.6336 37.1718 86.5842 38.0481 80.6828C38.7426 76.0112 39.8799 71.4333 40.8447 66.8209C41.7769 62.3764 42.6066 57.7442 42.3316 53.1515C42.3231 53.0839 42.2917 53.0219 42.2433 52.9769C42.1948 52.932 42.1326 52.9072 42.0682 52.9072C42.0039 52.9072 41.9417 52.932 41.8932 52.9769C41.8448 53.0219 41.8134 53.0839 41.8049 53.1515C41.5326 57.473 40.9452 61.7658 40.0477 65.9912C39.1854 70.1543 38.1833 74.2877 37.4515 78.4803C36.2536 85.394 36.3328 92.3917 37.0739 99.3498C36.9745 99.6798 36.9319 100.026 36.9481 100.372C36.9546 100.676 37.0735 100.965 37.279 101.177L37.3489 101.745C39.2514 116.67 43.9484 131.042 51.1643 144.017C55.0796 151.015 59.7126 157.884 65.4737 163.311C65.4887 163.329 65.5067 163.342 65.5268 163.352C65.5469 163.362 65.5685 163.368 65.5906 163.368C65.6127 163.369 65.6347 163.366 65.6554 163.358C65.6762 163.349 65.6952 163.337 65.7114 163.321C65.7276 163.305 65.7407 163.286 65.75 163.265C65.7592 163.244 65.7644 163.221 65.7653 163.197C65.7662 163.174 65.7627 163.151 65.755 163.129C65.7474 163.107 65.7357 163.087 65.7207 163.069Z" fill="#FAC07F"/>
<path d="M43.3474 72.4261C43.2139 78.9173 43.5254 85.4102 44.2797 91.8535C45.7759 104.58 49.0666 117.123 54.8276 128.447C56.434 131.625 58.2501 134.68 60.2624 137.588C62.22 140.398 64.3641 143.242 66.8718 145.528C66.9076 145.566 66.9562 145.588 67.0069 145.588C67.0576 145.588 67.1062 145.566 67.1421 145.528C67.1779 145.491 67.1981 145.439 67.1981 145.385C67.1981 145.332 67.1779 145.28 67.1421 145.242C65.2497 142.743 63.2594 140.358 61.4789 137.76C59.7461 135.23 58.148 132.598 56.692 129.879C53.7411 124.343 51.3402 118.498 49.528 112.437C45.9067 100.231 44.083 87.5069 44.1212 74.7125C44.1212 73.9421 44.1212 73.1718 44.1212 72.4014" fill="#FAC07F"/>
<path d="M47.9019 176.507C48.773 175.386 49.9476 174.576 51.2671 174.186C52.7191 173.698 54.2467 173.513 55.7651 173.643C57.2799 173.761 58.6502 174.364 60.1231 174.63C60.2059 174.653 60.2932 174.646 60.3719 174.611C60.4507 174.576 60.5164 174.514 60.5592 174.436C60.6019 174.358 60.6194 174.267 60.6088 174.177C60.5982 174.087 60.5603 174.004 60.5007 173.939C59.438 172.556 57.3358 172.181 55.7651 172.072C55.0114 172.024 54.2553 172.042 53.5044 172.126C53.1924 171.257 53.0962 170.317 53.2251 169.397C53.3541 168.477 53.7038 167.608 54.2409 166.872C55.4714 165.104 57.2473 164.314 59.0744 163.415C59.382 163.267 59.2002 162.803 58.9113 162.788C56.5388 162.65 54.2036 164.655 53.0011 166.67C51.957 168.418 51.6773 170.512 52.535 172.26C51.7733 172.403 51.027 172.627 50.307 172.926C48.8527 173.544 47.4358 174.551 46.6667 176.043C46.0095 177.312 45.6413 179.534 46.6667 180.699C46.698 180.731 46.7364 180.753 46.7782 180.765C46.82 180.776 46.8638 180.775 46.9055 180.763C46.9471 180.752 46.9852 180.729 47.016 180.697C47.0469 180.665 47.0694 180.625 47.0815 180.581C47.2214 179.865 47.0815 179.099 47.1561 178.393C47.2584 177.71 47.5142 177.063 47.9019 176.507V176.507Z" fill="#FAC07F"/>
<path d="M25.9203 208.709C25.9633 208.754 26.0163 208.785 26.0742 208.802C26.1322 208.818 26.1931 208.818 26.2511 208.802C26.3091 208.786 26.3624 208.755 26.4056 208.711C26.4489 208.667 26.4808 208.612 26.4982 208.551C26.7173 207.588 26.3258 206.359 26.3258 205.346C26.3417 204.141 26.5254 202.944 26.8711 201.796C27.612 199.343 28.8641 197.098 30.5347 195.228C31.4112 194.216 32.4094 193.331 33.5038 192.596C33.7869 192.682 34.0842 192.702 34.3754 192.655C34.4084 192.645 34.4384 192.626 34.4625 192.599C34.4865 192.573 34.5039 192.541 34.5128 192.506C34.5217 192.471 34.5218 192.434 34.5133 192.398C34.5047 192.363 34.4878 192.331 34.464 192.304C34.4127 192.24 34.3521 192.181 34.2915 192.117C34.9018 191.782 35.542 191.512 36.2025 191.312C38.4538 190.65 40.2763 191.312 42.3132 192.299C42.4004 192.349 42.5014 192.364 42.5983 192.342C42.6951 192.321 42.7816 192.263 42.8424 192.181C42.9033 192.098 42.9345 191.995 42.9306 191.89C42.9267 191.785 42.888 191.685 42.8212 191.608C40.3602 188.704 36.1093 189.514 33.2101 191.257C32.8196 191.009 32.4595 190.71 32.1381 190.368C31.5024 189.624 31.0536 188.722 30.833 187.746C30.3203 185.618 30.6885 183.326 31.355 181.287C32.8233 176.793 36.2585 172.284 40.7843 171.109C41.9831 170.793 43.2354 170.783 44.4386 171.079C45.8928 171.44 47.1047 172.274 48.4331 172.951C48.5155 172.992 48.6087 173.001 48.697 172.978C48.7853 172.955 48.8633 172.9 48.918 172.823C48.9727 172.746 49.0007 172.651 48.9973 172.555C48.9938 172.459 48.9592 172.366 48.8992 172.294C47.1979 170.082 44.1123 169.232 41.5301 169.578C38.9479 169.924 36.7152 171.361 34.8881 173.232C31.4529 176.729 28.6656 182.497 29.7237 187.657C29.963 188.881 30.496 190.019 31.2711 190.961C31.5647 191.311 31.8911 191.629 32.2453 191.909C28.9276 194.378 26.5313 198 25.4728 202.146C25.1834 203.303 25.0485 204.496 25.0719 205.692C25.0999 206.591 25.2211 208.092 25.9203 208.709Z" fill="#FAC07F"/>
<path d="M64.9663 183.287C65.8099 182.511 66.8094 181.949 67.8888 181.643C68.8909 181.361 69.9769 181.524 70.9557 181.213C71.013 181.194 71.0639 181.157 71.1024 181.109C71.141 181.06 71.1656 181 71.1734 180.937C71.1812 180.874 71.1719 180.81 71.1466 180.752C71.1213 180.694 71.0809 180.645 71.0303 180.611C70.0189 179.82 68.4061 180.117 67.3015 180.487C66.0826 180.882 64.9607 181.557 64.0154 182.462C62.7103 183.722 61.2188 186.23 61.8527 188.221C61.5872 188.275 61.3255 188.35 61.0697 188.443L60.9298 188.497C60.1281 187.016 57.765 186.265 56.334 186.379C54.437 186.522 52.8289 187.791 51.673 189.312C50.3719 191.05 49.4202 193.051 48.8764 195.194C48.3776 197.065 48.0653 199.144 48.7831 200.986C48.867 201.204 49.2166 201.204 49.198 200.927C49.0382 197.256 50.1025 193.643 52.2043 190.719C53.1366 189.46 54.4183 188.196 55.9332 187.9C56.6852 187.763 57.4587 187.864 58.1565 188.191C58.6772 188.476 59.1745 188.806 59.6434 189.179C58.5154 189.969 57.6345 191.154 57.6205 192.635C57.6122 192.698 57.6258 192.761 57.6588 192.814C57.6918 192.866 57.7419 192.904 57.7995 192.92C57.8571 192.936 57.9182 192.929 57.9711 192.9C58.0241 192.871 58.0652 192.823 58.0866 192.764C59.0747 191.361 60.0908 190.117 61.7595 189.668C62.5364 189.458 63.3461 189.423 64.1366 189.564C64.7799 189.672 65.4138 190.058 66.001 189.653C66.0572 189.615 66.1009 189.559 66.1259 189.494C66.151 189.428 66.1562 189.356 66.1409 189.287C65.9544 188.058 64.2765 187.89 62.8781 188.038C62.8563 187.317 62.9493 186.598 63.1531 185.909C63.5383 184.887 64.1622 183.985 64.9663 183.287V183.287Z" fill="#FAC07F"/>
<path d="M29.5042 208.828C30.4464 208.176 31.5126 207.751 32.6271 207.584C33.9462 207.386 35.186 207.756 36.4958 207.752C36.5366 207.748 36.5754 207.732 36.6069 207.704C36.6383 207.676 36.6607 207.639 36.671 207.597C36.6813 207.555 36.6789 207.511 36.6642 207.47C36.6495 207.43 36.6232 207.395 36.589 207.371C34.7246 206.077 31.8021 206.502 29.8864 207.406C27.8551 208.453 26.1915 210.159 25.1368 212.275C22.8063 216.626 22.3401 222.369 24.2372 226.981C25.2859 229.51 27.2389 231.653 29.8305 232.3C29.8611 232.313 29.8938 232.32 29.9269 232.32C29.96 232.32 29.9927 232.313 30.0232 232.299C30.0537 232.286 30.0814 232.266 30.1048 232.241C30.1281 232.216 30.1465 232.187 30.1591 232.154C30.1716 232.122 30.178 232.087 30.1779 232.052C30.1778 232.017 30.1711 231.983 30.1584 231.95C30.1456 231.918 30.1269 231.888 30.1035 231.864C30.08 231.839 30.0522 231.82 30.0216 231.806C26.1622 229.337 24.1952 225.243 24.2419 220.483C24.2745 216.137 25.9105 211.278 29.5042 208.828Z" fill="#FAC07F"/>
<path d="M116.424 163.262C117.584 161.523 118.782 159.731 120.87 159.272C122.614 158.886 124.394 159.504 125.872 160.472C127.579 161.633 128.988 163.225 129.974 165.104C131.087 167.158 131.316 169.262 131.665 171.524C131.717 171.855 132.132 171.795 132.239 171.524C132.985 169.143 132.085 166.269 130.99 164.17C129.834 162.001 128.132 160.216 126.072 159.015C124.315 158.002 122.138 157.425 120.181 158.096C119.219 158.43 118.351 159.012 117.654 159.79C116.813 160.694 116.256 161.851 116.06 163.104C116.052 163.152 116.059 163.202 116.081 163.245C116.103 163.288 116.138 163.322 116.181 163.34C116.224 163.359 116.271 163.361 116.316 163.347C116.36 163.333 116.398 163.303 116.424 163.262V163.262Z" fill="#FAC07F"/>
<path d="M60.1928 9.56058C60.561 10.7705 60.9012 11.9853 61.2322 13.21C61.4745 14.1088 61.5398 15.4619 62.3508 15.9903C62.4196 16.032 62.5011 16.0434 62.5778 16.0222C62.6545 16.001 62.7202 15.9487 62.761 15.8767C63.3296 15.0619 62.8029 13.7039 62.5839 12.815C62.2809 11.5853 61.8754 10.3853 61.4792 9.18527C61.083 7.98525 60.6728 6.79017 60.2673 5.59509C59.943 4.42451 59.546 3.27795 59.0788 2.16293C59.0384 2.09662 58.9792 2.04569 58.9096 2.01754C58.8401 1.9894 58.7639 1.98551 58.6921 2.00645C58.6203 2.0274 58.5567 2.07207 58.5106 2.13397C58.4644 2.19587 58.4382 2.27176 58.4355 2.35059C58.5065 3.57025 58.7371 4.77355 59.1207 5.92596C59.4423 7.15067 59.8245 8.35562 60.1928 9.56058Z" fill="#FAC07F"/>
<path d="M56.9858 18.6126C58.0858 18.9484 59.1951 19.2546 60.2858 19.625C61.6841 20.0941 62.7795 20.9682 62.5324 22.667C62.3087 24.2127 61.9125 25.7782 61.6002 27.2992C60.8647 30.6229 59.9401 33.8964 58.8316 37.1018C58.2909 38.7117 57.7269 40.3117 57.1536 41.9068C56.8786 42.6723 56.6036 43.4377 56.3519 44.213C56.226 44.5982 56.0862 44.9834 55.9744 45.3735C55.9 45.8295 55.8036 46.2812 55.6854 46.7267C55.5782 47.0032 55.9417 47.1415 56.1142 46.9884C57.2282 46.0007 57.671 44.0254 58.1837 42.6328C58.8316 40.8451 59.4748 39.0574 60.0901 37.2549C61.3681 33.6065 62.419 29.8734 63.2363 26.0794C63.7816 23.4226 64.7837 20.4151 61.9731 18.8151C60.8359 18.2596 59.6382 17.8549 58.4074 17.6101C56.9438 17.2249 55.5176 16.82 54.0726 16.3755C54.0041 16.3594 53.9324 16.3668 53.8681 16.3966C53.8037 16.4265 53.75 16.4773 53.7147 16.5416C53.6794 16.606 53.6644 16.6805 53.6717 16.7546C53.6791 16.8286 53.7085 16.8982 53.7557 16.9533C54.5341 17.9459 55.8671 18.2719 56.9858 18.6126Z" fill="#FAC07F"/>
<path d="M26.9083 40.4943C26.9894 40.5428 27.0811 40.5678 27.1742 40.5669C27.2672 40.566 27.3585 40.5392 27.4387 40.4892C27.519 40.4392 27.5854 40.3677 27.6314 40.2819C27.6774 40.1962 27.7012 40.0991 27.7007 40.0005C27.7007 39.319 27.3091 38.7313 27.3278 38.0251C27.3774 37.3501 27.598 36.7018 27.9663 36.1486C28.824 34.7263 30.1803 33.6794 31.4621 32.6917C32.7439 31.704 34.2122 30.8003 35.5778 29.8324C36.5874 29.2142 37.4588 28.3719 38.1321 27.3632C38.2393 27.1854 38.0062 27.0126 37.8664 27.1459C36.8177 28.1336 35.4473 28.8892 34.2588 29.6744C32.6789 30.6619 31.148 31.7349 29.6723 32.8892C28.4791 33.8769 27.2392 35.0177 26.5913 36.4942C26.0693 37.6548 25.8036 39.6054 26.9083 40.4943Z" fill="#FAC07F"/>
<path d="M61.9919 52.7121C61.2253 52.5951 60.4734 52.388 59.75 52.0948C59.3717 51.9824 59.0151 51.8002 58.6966 51.5566C58.333 51.1812 58.5194 50.7565 58.6313 50.2084C59.0934 48.2703 59.671 46.3652 60.3605 44.5046C60.8267 43.0527 61.8148 40.6774 61.2555 39.1465C61.2459 39.0921 61.2204 39.0423 61.1824 39.0043C61.1445 38.9663 61.0962 38.9419 61.0445 38.9348C60.9927 38.9277 60.9401 38.9381 60.8943 38.9646C60.8484 38.9911 60.8117 39.0323 60.7894 39.0823C60.23 39.9514 60.1135 41.2354 59.7872 42.228C59.4237 43.3441 59.0275 44.4503 58.636 45.5565C58.2444 46.6626 57.8529 47.7886 57.5499 48.9343C57.3495 49.6948 56.7576 51.28 57.1304 52.0306C57.4427 52.6578 58.4402 53.2109 59.0182 53.5121C59.8248 53.903 60.6803 54.1691 61.5584 54.3023C63.1106 54.564 65.2593 54.8801 66.5644 53.7591C66.8394 53.522 66.653 53.0825 66.3686 52.9788C65.0263 52.4899 63.4322 52.9294 61.9919 52.7121Z" fill="#FAC07F"/>
<path d="M45.0353 28.0747C46.8345 27.6303 48.4053 26.2228 49.9481 25.2154C50.7965 24.6441 51.6883 24.1486 52.6142 23.7339C53.2108 23.4771 54.199 23.4327 54.5392 22.7956C54.5581 22.7596 54.5656 22.7181 54.5606 22.6772C54.5555 22.6363 54.5383 22.5982 54.5112 22.5685C53.9752 22.0252 53.1129 22.4549 52.507 22.6919C52.3672 22.7462 52.2227 22.8055 52.0828 22.8697C52.2657 22.7246 52.4415 22.5696 52.6095 22.4055C52.7634 22.2524 52.6095 22.0252 52.4138 22.0549C51.0761 22.2722 49.9015 23.245 48.7642 23.9611C47.7154 24.6179 46.3171 25.1413 45.5014 26.1093C45.4947 26.1183 45.4904 26.1292 45.4889 26.1406C45.4875 26.1521 45.489 26.1637 45.4933 26.1743C45.4976 26.185 45.5045 26.1941 45.5133 26.2009C45.5222 26.2077 45.5325 26.2119 45.5434 26.213C46.2674 26.2507 46.9862 26.0655 47.6129 25.6796C46.6639 26.3467 45.7704 27.0984 44.9421 27.9266C44.9348 27.9428 44.9317 27.9607 44.9329 27.9786C44.9341 27.9965 44.9397 28.0137 44.9491 28.0287C44.9585 28.0436 44.9713 28.0557 44.9865 28.0638C45.0016 28.0718 45.0184 28.0756 45.0353 28.0747V28.0747Z" fill="#FAC07F"/>
</g>
<defs>
<clipPath id="clip0">
<rect width="193" height="300" fill="white"/>
</clipPath>
</defs>
</svg>
