<svg xmlns="http://www.w3.org/2000/svg" viewBox="0 0 414.07 607.49"><defs><style>.cls-1{fill:#fac07f;}</style></defs><title>MAIN ILLUSTRATION A</title><g id="Layer_2" data-name="Layer 2"><g id="Layer_1-2" data-name="Layer 1"><path class="cls-1" d="M76.48,95.41a1.19,1.19,0,0,1-.32,0L61.55,90.83c-6.8-2.12-11.13-6-11.88-10.66-.72-4.48,1.81-9,7.12-12.81L91.5,42.47a1.1,1.1,0,0,1,1.27,0,1.11,1.11,0,0,1,.4,1.2l-15.66,51a1.05,1.05,0,0,1-.52.63A1,1,0,0,1,76.48,95.41ZM90.16,46.1l-32.11,23c-4.54,3.24-6.82,7.14-6.25,10.71.62,3.82,4.4,7.07,10.39,8.93L75.77,93Z"/><path class="cls-1" d="M137.43,113.11a24.37,24.37,0,0,1-7-1.13l-14.63-4.45a1.09,1.09,0,0,1-.64-.53,1,1,0,0,1-.08-.82l15.65-51a1.08,1.08,0,0,1,2.05-.05l14.76,40.08c2.27,6.11,1.81,11.29-1.29,14.59C144.19,112,141.13,113.11,137.43,113.11Zm-20-7.34,13.6,4.14c6,1.82,11,1.25,13.61-1.57,2.48-2.63,2.79-7.14.84-12.36L131.85,58.9Z"/><path class="cls-1" d="M117.94,113.36a.93.93,0,0,1-.32,0L71.3,99.09a1.09,1.09,0,0,1-.64-.53,1.11,1.11,0,0,1-.08-.82l19-62c.11-.67.89-4.13,5.33-11.58a1.11,1.11,0,0,1,1.25-.48L139.52,37a1.1,1.1,0,0,1,.76,1.06c-.17,7.56-2,11.92-2.26,12.55L119,112.6A1.08,1.08,0,0,1,117.94,113.36Zm-45-16,44.27,13.59,18.75-61a.58.58,0,0,1,.05-.14s1.78-3.94,2.06-11L96.39,26c-4.18,7.14-4.63,10.09-4.63,10.12s0,.13,0,.18ZM90.68,36h0Z"/><path class="cls-1" d="M139.2,39.09h0a.87.87,0,0,1-.42-.1L96.24,25.93a1,1,0,0,1-.55.13,1.08,1.08,0,0,1-.93-.57c-.17-.32-.25-.47.06-1.09h0l.07-.11c.29-.55.84-1.43,1.83-3,6.65-10.43,26.15-22.5,30.34-21.22,4.54,1.4,12.76,24.42,13.19,34.51,0,1.1,0,2.58,0,3.37h0v0A1.09,1.09,0,0,1,139.2,39.09Zm-41.67-15,40.59,12.47c0-.73,0-1.36,0-1.85-.5-11.48-9.25-31.77-11.68-32.53-1-.31-5.9,1.62-12.49,6-6.88,4.62-12.63,10-15.38,14.27C98.17,23.05,97.82,23.6,97.53,24.07Z"/><path class="cls-1" d="M109.25,79.33a21.28,21.28,0,1,1,6.26-41.62h0a21.28,21.28,0,0,1-6.26,41.62Zm0-40.4a19.11,19.11,0,1,0,5.6.84h0A19.11,19.11,0,0,0,109.28,38.93Zm0,35.79a16.63,16.63,0,0,1-4.92-.74h0a16.63,16.63,0,1,1,4.92.74Zm0-31.19A14.52,14.52,0,0,0,105,71.92h0a14.51,14.51,0,0,0,8.52-27.74A14.67,14.67,0,0,0,109.25,43.53Z"/><path class="cls-1" d="M109.29,74.72A16.67,16.67,0,1,1,125.2,62.94h0a16.67,16.67,0,0,1-15.91,11.78Zm0-31.19a14.52,14.52,0,1,0,13.88,18.78h0a14.51,14.51,0,0,0-9.6-18.13A14.67,14.67,0,0,0,109.25,43.53Z"/><path class="cls-1" d="M74.12,141.44a1.1,1.1,0,0,1-.91-.49c-10.92-16.75,1.87-31.81,2-32a1.07,1.07,0,0,1,1.13-.32l12.26,3.76a1.1,1.1,0,0,1,.77,1c1.06,20.23-14.65,27.85-14.8,27.93A1.09,1.09,0,0,1,74.12,141.44ZM76.41,111c-2,2.66-10.07,14.49-1.91,28,3.06-1.77,13.26-8.86,12.75-24.65Z"/><path class="cls-1" d="M76.26,133.33a1.35,1.35,0,0,1-.29,0,1.12,1.12,0,0,1-.72-.67c-3.32-8.93-.35-18.1,1.71-22.77a1.09,1.09,0,0,1,1.31-.59l8.41,2.58a1.09,1.09,0,0,1,.75,1.22c-2.4,13.61-10.17,19.78-10.5,20A1.11,1.11,0,0,1,76.26,133.33Zm2.3-21.72c-1.75,4.26-3.84,11.5-1.79,18.7a33.32,33.32,0,0,0,8.36-16.69Z"/><path class="cls-1" d="M89.6,114.94a1.12,1.12,0,0,1-.32,0l-15.23-4.68a1.07,1.07,0,0,1-.67-.58,1.1,1.1,0,0,1,0-.89l1.39-3.12a1.09,1.09,0,0,1,1.31-.6l14.43,4.44a1.07,1.07,0,0,1,.75,1.22l-.6,3.36a1.06,1.06,0,0,1-1.06.89Zm-13.75-6.43,12.9,4,.22-1.22-12.61-3.87Z"/><path class="cls-1" d="M91,111.84a.84.84,0,0,1-.31,0l-16.12-5a1.07,1.07,0,0,1-.71-1.35l1.5-4.91a2.39,2.39,0,0,1,3-1.58L92,103.18a2.4,2.4,0,0,1,1.58,3l-1.51,4.92A1.09,1.09,0,0,1,91,111.84Zm-14.76-6.75,14,4.32,1.19-3.88a.22.22,0,0,0-.14-.28l-13.63-4.19a.23.23,0,0,0-.28.16Z"/><path class="cls-1" d="M93.77,147.48a1.08,1.08,0,0,1-.9-.49c-10.92-16.75,1.87-31.81,2-32A1.1,1.1,0,0,1,96,114.7l12.27,3.77a1.07,1.07,0,0,1,.76,1c1.07,20.23-14.64,27.85-14.8,27.92A1.07,1.07,0,0,1,93.77,147.48Zm2.3-30.5C94,119.64,86,131.48,94.15,145c3.07-1.77,13.26-8.86,12.75-24.66Z"/><path class="cls-1" d="M95.92,139.36a1,1,0,0,1-.3,0,1.06,1.06,0,0,1-.71-.66c-3.32-8.94-.35-18.1,1.71-22.77a1.09,1.09,0,0,1,1.31-.6l8.41,2.59a1.09,1.09,0,0,1,.75,1.22c-2.4,13.61-10.18,19.78-10.51,20A1.05,1.05,0,0,1,95.92,139.36Zm2.3-21.72c-1.76,4.27-3.84,11.5-1.8,18.7a33.07,33.07,0,0,0,8.36-16.68Z"/><path class="cls-1" d="M109.25,121a1.1,1.1,0,0,1-.31,0l-15.23-4.68a1.09,1.09,0,0,1-.67-.59,1,1,0,0,1,0-.88l1.39-3.12a1.08,1.08,0,0,1,1.3-.6l14.44,4.44a1.09,1.09,0,0,1,.75,1.22l-.6,3.36a1.09,1.09,0,0,1-.5.73A1.07,1.07,0,0,1,109.25,121Zm-13.74-6.43,12.89,4,.22-1.22L96,113.42Z"/><path class="cls-1" d="M110.69,117.88a1.12,1.12,0,0,1-.31,0l-16.12-5a1.09,1.09,0,0,1-.72-1.35l1.51-4.92a2.33,2.33,0,0,1,1.17-1.4A2.38,2.38,0,0,1,98,105l13.63,4.19a2.4,2.4,0,0,1,1.58,3l-1.51,4.91A1.09,1.09,0,0,1,110.69,117.88Zm-14.77-6.75L110,115.45l1.19-3.89a.23.23,0,0,0-.15-.28L97.39,107.1a.2.2,0,0,0-.16,0,.21.21,0,0,0-.11.13Z"/><polygon class="cls-1" points="26.79 256.09 31.13 252.13 36.84 253.47 34.43 248.12 37.46 243.09 31.63 243.74 27.78 239.3 26.6 245.05 21.19 247.33 26.29 250.24 26.79 256.09"/><polygon class="cls-1" points="126.04 205.47 128.46 207.95 128.96 204.52 132.06 202.99 128.95 201.46 128.45 198.03 126.04 200.51 122.63 199.93 124.24 202.99 122.63 206.06 126.04 205.47"/><polygon class="cls-1" points="175.43 220.46 173.82 223.52 177.24 222.94 179.65 225.41 180.15 221.99 183.26 220.45 180.15 218.92 179.65 215.5 177.23 217.98 173.82 217.39 175.43 220.46"/><polygon class="cls-1" points="53.84 489.42 56.26 491.9 56.75 488.47 59.86 486.94 56.75 485.41 56.25 481.98 53.84 484.46 50.42 483.88 52.04 486.94 50.43 490.01 53.84 489.42"/><path class="cls-1" d="M70.4,311.81l-1.06.41c-.3.12-.59.26-.89.36a3.29,3.29,0,0,0-.64.1l-.52.21-.7.29a2.68,2.68,0,0,0-1.71,1.25,2.55,2.55,0,0,0,.89,3.46,3.43,3.43,0,0,0,2.92,0,2.81,2.81,0,0,0,1-.62c.12-.08.24-.16.35-.25a2.17,2.17,0,0,0,1-1.36l.78-.48a1.86,1.86,0,0,0,.76-2.31A1.82,1.82,0,0,0,70.4,311.81Zm-2,6a4.47,4.47,0,0,0,.56-.49l-.11.14Z"/><path class="cls-1" d="M19.34,396.44a2.12,2.12,0,0,0,2.76.24,1.75,1.75,0,0,0,.67-.78,1.59,1.59,0,0,0,.1-.33,1.28,1.28,0,0,0-.09-1.71,1.3,1.3,0,0,0-1-.36,1.38,1.38,0,0,0-.54-.53l-.05,0a2.5,2.5,0,0,0-.33-.26.93.93,0,0,0-.9-.07,1.88,1.88,0,0,0-.5.35l-.19.17-.13.1a1.7,1.7,0,0,0-.46.84,2.1,2.1,0,0,0,0,1.14A2.94,2.94,0,0,0,19.34,396.44ZM22,393.8h0l0-.08Z"/><path class="cls-1" d="M164.67,203.28a6.41,6.41,0,0,0,1.07-2.27,1.25,1.25,0,0,0-2.13-1.31c-1.16.61-2.26,2-1.45,3.25A1.63,1.63,0,0,0,164.67,203.28Z"/><path class="cls-1" d="M392.71,469.39a1.72,1.72,0,0,0-.67-1.33,1.48,1.48,0,0,0-1-.36,1.73,1.73,0,0,0-1.06.4,1.59,1.59,0,0,0-.64,1.29v.43c0,.06,0,.12,0,.17,0,.41,0,.82,0,1.22a1.67,1.67,0,0,0,3.34,0c0-.4,0-.8,0-1.2a1.23,1.23,0,0,0,0-.19C392.71,469.68,392.71,469.54,392.71,469.39Z"/><path class="cls-1" d="M159.14,602.51l-.37-.15.09.07-.09-.06a1.06,1.06,0,0,0-.83-.14,1.24,1.24,0,0,0-.37.17h0l-.36.15a1.51,1.51,0,0,0-.57.52,2.47,2.47,0,0,0-.49,1.72,3.36,3.36,0,0,0,.41,1.45,2.53,2.53,0,0,0,2.12,1.24,3.74,3.74,0,0,0,2.61-1.31,2.25,2.25,0,0,0,0-3.13A2.28,2.28,0,0,0,159.14,602.51Z"/><path class="cls-1" d="M352.32,569c1.36-1.33,3.39-1.88,4.27-3.72.3-.64-.23-1.72-1.06-1.37-1.93.8-3.89,1.4-5.47,2.83S350.85,570.43,352.32,569Z"/><path class="cls-1" d="M299.61,347.6a7.15,7.15,0,0,0,.67-.68,1.65,1.65,0,0,0-2.34-2.33c-.21.2-.48.43-.68.66C295.63,346.64,298,349,299.61,347.6Z"/><path class="cls-1" d="M189.16,249.93a2.19,2.19,0,0,0,1.46-.61,2,2,0,0,0,0-2.89.25.25,0,0,0,0-.09,1.86,1.86,0,0,0-.9-1.54,2.6,2.6,0,0,0-1.1-.28,2.52,2.52,0,0,0-2.43,1.32,2.75,2.75,0,0,0,.42,3.19A3.19,3.19,0,0,0,189.16,249.93Zm.78-2.16h0l0,0c-.09.12-.18.25-.28.37Z"/><path class="cls-1" d="M157.1,169.75c0-.16,0-.31,0-.46v0h0s0-.09,0-.16h0l0,0c.1-.08.19-.19.29-.28.28-.26.58-.51.88-.76a1.94,1.94,0,0,0-2.74-2.74A8.34,8.34,0,0,0,154,167.7a4.88,4.88,0,0,0-.14,2.05A1.64,1.64,0,0,0,157.1,169.75Zm.11-.73h0s0,0,0,0A.1.1,0,0,1,157.21,169Z"/><path class="cls-1" d="M155.13,301.94a2.14,2.14,0,1,0,0-4.27c-1.32.06-3-.05-3.93,1a1.6,1.6,0,0,0,0,2.19C152.16,302,153.81,301.88,155.13,301.94Z"/><path class="cls-1" d="M82.9,252.24l.08,0C82.56,252.23,82.66,252.29,82.9,252.24Z"/><path class="cls-1" d="M82.73,255.43h0l.07,0h.05l1.26.25a1.94,1.94,0,0,0,1.88-.5,2,2,0,0,0,.57-1.37,2,2,0,0,0-.57-1.37,2,2,0,0,0-1.88-.5l-1.18.24h.16a1.65,1.65,0,0,0-1.63,1.63,1.68,1.68,0,0,0,1.2,1.57S82.7,255.43,82.73,255.43Z"/><path class="cls-1" d="M43.32,175.81a.08.08,0,1,0,0-.15A.08.08,0,1,0,43.32,175.81Z"/><path class="cls-1" d="M82.84,403.9a1.46,1.46,0,0,0-.5.94H82a1.29,1.29,0,0,0-1.28,1.27A1.3,1.3,0,0,0,82,407.39a3,3,0,0,0,2.25-.62,2.16,2.16,0,0,0,0-2.87A1,1,0,0,0,82.84,403.9Zm-.55,1.3s0,.06,0,.08h0l0,0C82.26,405.2,82.28,405.17,82.29,405.2Zm0,.16v0s0,.07,0,.1Z"/><path class="cls-1" d="M172.58,144c.42.07.85.11,1.27.15a2,2,0,0,0,2-2,2,2,0,0,0-2-2l-.64.05a1.22,1.22,0,0,0-.54-.31,1.43,1.43,0,0,0-1.65.88,2.14,2.14,0,0,0,.37,2.54A2.44,2.44,0,0,0,172.58,144Zm1-3.37.2.26c-.07-.1-.15-.19-.23-.29C173.69,140.72,173.64,140.73,173.55,140.63Z"/><path class="cls-1" d="M85.9,295.18a9.39,9.39,0,0,0,1.84.08,1.58,1.58,0,0,0,0-3.16,8.67,8.67,0,0,0-1.84.08A1.57,1.57,0,0,0,85.9,295.18Z"/><path class="cls-1" d="M46.38,373.34a1.55,1.55,0,0,0,0-3.09A1.55,1.55,0,0,0,46.38,373.34Z"/><path class="cls-1" d="M50,302.73c.7-.16,1.28-.92,1.77-1.42l.33-.31.06-.05.42-.43a1.62,1.62,0,0,0,0-2.28,1.64,1.64,0,0,0-2.28,0l-.43.42,0,.06-.33.32c-.49.5-1.25,1.08-1.41,1.78A1.57,1.57,0,0,0,50,302.73Z"/><path class="cls-1" d="M55.57,445.54a1.76,1.76,0,0,0,0-3.51A1.76,1.76,0,0,0,55.57,445.54Z"/><path class="cls-1" d="M3.49,487.31H3.23a3.39,3.39,0,0,0-1.16.35c-.11.06-.12,0-.06,0l-.26.07-.31.09a2,2,0,0,0-.87,3.3,2,2,0,0,0,3.3-.87L4,490l.08-.27,0-.16a3.12,3.12,0,0,0,.31-1c0-.09,0-.18,0-.26A.9.9,0,0,0,3.49,487.31Z"/><path class="cls-1" d="M2.22,487.61a.67.67,0,0,0-.21.06H2A1,1,0,0,1,2.22,487.61Z"/><path class="cls-1" d="M81.27,549.27a1.18,1.18,0,0,0,1,.19l.89.06c2,.13,2-3.29,0-3.16l-.9.06a1.18,1.18,0,0,0-1,.19,1.59,1.59,0,0,0,0,2.66Z"/><path class="cls-1" d="M17.76,574v-1.43a2,2,0,0,0-2-2,2.06,2.06,0,0,0-2,2V574a2,2,0,0,0,4,0Z"/><path class="cls-1" d="M131.3,594.26l0,0a1.79,1.79,0,0,0-.26-.2l-.32-.16a1.63,1.63,0,0,0-1.6-1.58h-.33a1.88,1.88,0,0,0-1.17-.06,2.1,2.1,0,0,0-1.59,2.55,2.63,2.63,0,0,0,1.38,1.58,4,4,0,0,0,3.92.23A1.37,1.37,0,0,0,131.3,594.26Zm-2.38,1.33,0,0-.35.14A2.1,2.1,0,0,0,128.92,595.59Z"/><path class="cls-1" d="M322.09,578.17a1.94,1.94,0,0,0,0,3.88C324.58,582.05,324.59,578.17,322.09,578.17Z"/><path class="cls-1" d="M383.36,547.86a.08.08,0,0,0,0,.16C383.45,548,383.45,547.86,383.36,547.86Z"/><path class="cls-1" d="M366.51,534.07a1.67,1.67,0,0,0-1.41.87,2.3,2.3,0,0,0-2.42,2.28,2.33,2.33,0,0,0,2.91,2.22,4,4,0,0,0,1.67-1,3.09,3.09,0,0,0,.81-3.22A1.68,1.68,0,0,0,366.51,534.07Zm-1.5,1Zm0,0h0C365.09,534.9,365.06,535,365,535.09Zm-.06.14h0v0Z"/><path class="cls-1" d="M414,469.75a.07.07,0,1,0,0,.15A.07.07,0,1,0,414,469.75Z"/><path class="cls-1" d="M386.42,423.8a.07.07,0,0,0,0,.15A.07.07,0,0,0,386.42,423.8Z"/><path class="cls-1" d="M410.93,391.78a.08.08,0,0,0,0-.15A.08.08,0,1,0,410.93,391.78Z"/><path class="cls-1" d="M294.77,521c-3,4-6.29,7.86-8.67,12.2a.41.41,0,0,0,.64.5,100.41,100.41,0,0,0,9.55-11.81c3.31-4.49,6.5-9.09,9.35-13.88,5.28-8.9,9.24-18.73,9-29.23a0,0,0,0,0-.06,0c-.47,10.6-5.33,20.51-10.84,29.37C301,512.62,297.9,516.86,294.77,521Z"/><path class="cls-1" d="M312.2,500.87a177.07,177.07,0,0,1-10.37,19.23c-4.11,6.33-9.31,11.55-14.13,17.3-.38.44.09,1.19.65.84,6.29-3.89,11.17-10.21,15.18-16.32a64,64,0,0,0,9.12-20.86C312.71,500.81,312.33,500.61,312.2,500.87Z"/><path class="cls-1" d="M99.64,142.79q.6,5.79,1.48,11.49a226.58,226.58,0,0,0,13.53,49.3c12.7,32,32.09,60.94,55.34,86.19,12.93,14.05,27,27.66,42.56,38.74-.39.35-.77.72-1.14,1.1a30.07,30.07,0,0,0-5.67,8c-4.69-5.07-12.62-4.73-18.1-.45a29.87,29.87,0,0,0-7,8.09,14.3,14.3,0,0,0-4.6-1.66,18.31,18.31,0,0,0-8.82.48c-.3-2.85-2.39-5.93-4.12-7.72A17.36,17.36,0,0,0,154,331.5c-5.84-1.21-13.33-.16-17.32,4.73-1.88,2.3-3,6.16-1.27,8.83a.87.87,0,0,0,1.61-.44c.06-1.56-.27-3,.28-4.56a7.36,7.36,0,0,1,2.34-3.17,15.27,15.27,0,0,1,9.23-3A16.74,16.74,0,0,1,159,336.81a12.62,12.62,0,0,1,3.62,4,34.78,34.78,0,0,1,1.62,4.37c-4.35,2.1-8.64,5.89-9.44,10.52a.65.65,0,0,0,1.19.5c1.64-2.13,3.07-4.31,5.21-6a19.93,19.93,0,0,1,6.77-3.49,15.17,15.17,0,0,1,7.33-.38,13.34,13.34,0,0,1,3.74,1.41l.18.1a42.82,42.82,0,0,0-3.83,11.76c-.46,2.67-1.12,6.93-.23,10.16q-5,1.74-9.84,3.92a121.88,121.88,0,0,0-52.48,45.11c-12.74,20-18.71,43.84-15.78,67.45a110,110,0,0,0,3.1,15.47c-9.46,6.59-18.84,13.37-28,20.44l-.22-1.52-4.09,4.21-5.79-1,2.33,4.43c-6.75,5.43-13.35,11-19.73,16.87-7.73,7.07-15.27,14.52-21.52,23-4,5.33-8.46,12.19-8,19.16.71,11.26,15.16,9.76,23,8.75,19-2.44,37.65-8.66,55.68-15,15-5.23,29.76-11,44.4-17.06,13,12.07,28.67,21.35,46,25.46a86.7,86.7,0,0,0,34.26,1.14c11.54-1.92,22.47-6.4,32.87-11.67,19.2-9.73,36.77-23.4,49.14-41.18a99.15,99.15,0,0,0,17-64.77c-.12-1.44-.27-2.87-.44-4.3l3-2.07c17.46-12.08,34.46-25,50.11-39.32,10.19-9.36,20.14-19.43,27.83-31,3.88-5.85,8.49-13.52,7.51-20.88a10.43,10.43,0,0,0-1.1-3.54,9.59,9.59,0,0,0-4.11-3.88v-.31h0a1.46,1.46,0,0,0,.47-.52,1.68,1.68,0,0,0-.25-1.93,2.68,2.68,0,0,0-2.48-.46,3.17,3.17,0,0,0-1.93,1.81,29.9,29.9,0,0,0-3.07-.45c-6.8-.63-13.81.62-20.45,2-19.24,4-37.9,10.92-56.24,17.86-10.56,4-21.05,8.18-31.53,12.36l-.09.05q-1.95-2.15-4-4.18c-14.76-14.55-33.56-24.94-54-28.79a94.41,94.41,0,0,0-24.44-1.34,18,18,0,0,1,5.59-6.92c3.46-2.31,7-1.92,10.43.17,1.75,1.06,3.13-1.52,1.56-2.68a11.32,11.32,0,0,0-12.05-.9c-.32-1.45-.95-2.84-1.2-4.35a17,17,0,0,1,.19-6.63c.14-.62.3-1.22.49-1.81a1,1,0,0,0,.28-.81,25.38,25.38,0,0,1,6.05-9.19,28.1,28.1,0,0,1,12.05-7.18,21,21,0,0,1,6.74-.8c1,.05,2,.29,3,.34a10.61,10.61,0,0,0,1.83-.26c-2,4.37-3.65,12.22,1.62,14.28a1.13,1.13,0,0,0,1.38-1.38c-.72-1.93-1.75-3.49-1.76-5.63a14.94,14.94,0,0,1,1.8-6.78c2-3.79,5.65-7.51,10.29-6.81a.69.69,0,0,0,.53-1.25c-5.16-3.59-10.86,2.09-13.25,6.36-.11.2-.22.41-.33.64a5.44,5.44,0,0,0-1.81-1.37,12.94,12.94,0,0,0-3.81-.53,23.67,23.67,0,0,0-7.39,1,29.93,29.93,0,0,0-10.4,5.57c-12.72-11.26-25.61-22.23-37.38-34.53a320,320,0,0,1-32.57-39.86c-19.14-27.88-33.28-59.22-39.51-92.56A196.82,196.82,0,0,1,102,140.6M355.71,397c.24.11.07.1,0,0Zm-.11.69c-.9,2.41-3.27,5.39-5.16,7.65a171.4,171.4,0,0,1-11.76,12.49c-9,8.82-18.55,17.13-28.34,25.09a124.49,124.49,0,0,0-17-33.81,326.81,326.81,0,0,1,38.5-10.23c6.24-1.29,12.68-2.6,19.08-2.62a12.62,12.62,0,0,1,4.72.69l0,0C355.61,397.11,355.76,397.24,355.6,397.67ZM177.78,365.93a31.62,31.62,0,0,1,.78-7.19,39.18,39.18,0,0,1,5.86-13.69c2.36-3.44,5.63-6.86,9.77-8s7.3.89,10.49,3.13a22.43,22.43,0,0,0-.69,2.39c-.79,3.52-1.09,9.63,1.63,12.63a16.15,16.15,0,0,0-3.44,3.84,10.29,10.29,0,0,0-1.68,5.23A105.06,105.06,0,0,0,178,368.83C177.92,367.85,177.79,366.87,177.78,365.93Zm-73.56,80.9c-.13,1.82-.19,3.66-.2,5.48-.06,7.58.73,15.1.94,22.66a.21.21,0,1,0,.42,0c.15-7.12-.5-14.24-.51-21.36a74,74,0,0,1,.65-11c.89-2.7,1.91-5.38,3-8a110,110,0,0,1,16.86-27.27c-9.28,14.59-13.48,32.66-14.23,49.56,0,.53.78.52.82,0a114.09,114.09,0,0,1,6.59-32.48,94.06,94.06,0,0,1,7.59-15.59c-.16.54-.31,1.09-.45,1.64a121.33,121.33,0,0,0-2.69,13.35,199.87,199.87,0,0,0-2.43,25.49.33.33,0,0,0,.64.09c1.76-8.24,2.15-16.81,3.42-25.13.65-4.26,1.38-8.51,2.41-12.7.65-2.65,1.48-5.23,2.28-7.83.63-1,1.28-1.93,1.93-2.89,2.64-2.7,5.42-5.27,8.31-7.7-4.5,5.18-6.6,12.88-8.1,19.15-2.16,9.08-3.07,18.39-3.93,27.66,0,.42.67.52.74.1,1.35-8.76,2.39-17.55,4.4-26.19s4.94-17.38,11-24l.34-.25a66,66,0,0,0-1.93,6.58c-.88,3.33-1.67,6.69-2.31,10.07-1.22,6.53-2.07,13.08-2.75,19.69,0,.25.41.31.45.06,1.11-6.47,2.29-12.95,3.69-19.37.7-3.23,1.4-6.46,2.22-9.66.72-2.87,1.74-5.71,2.29-8.62,2.05-1.49,4.14-2.92,6.28-4.27-.13.23-.26.45-.38.68a58,58,0,0,0-4.19,10.49c-2.14,6.93-3.35,14.1-4.8,21.2a.54.54,0,0,0,1,.28c1.86-6.4,3.15-12.95,5-19.36a66.2,66.2,0,0,1,3.76-10.4,32.51,32.51,0,0,1,3.16-5.08q2.24-1.32,4.55-2.53a17.41,17.41,0,0,0-2.68,4.45,58.19,58.19,0,0,0-3.28,9.86c-1.68,6.54-2.76,13.23-3.85,19.89a.43.43,0,0,0,.82.23c2.17-5.93,3-12.39,4.47-18.51a69.85,69.85,0,0,1,2.95-9.62,55.39,55.39,0,0,1,4.09-7.49.24.24,0,0,0,0-.13c2.24-1.12,4.52-2.18,6.84-3.15-.19.24-.36.47-.53.7a37.09,37.09,0,0,0-3.79,6.36,77.29,77.29,0,0,0-5.16,15.64c-2.43,10.27-3.32,20.78-4.94,31.19-.06.38.5.56.6.16,2.33-9.72,3.6-19.67,5.91-29.4a90.57,90.57,0,0,1,5-15.59,41.58,41.58,0,0,1,3.32-6.21c1-1.49,2.6-2.87,3.57-4.43.93-.36,1.87-.7,2.81-1,.06.08.14.15.2.22-1.92,2.53-3,5.75-4,8.71-1.42,4.29-2.27,8.72-3.41,13.09a.36.36,0,0,0,.69.19c1.37-3.94,2.49-7.95,3.71-11.93a60.23,60.23,0,0,1,4-9.51.62.62,0,0,0,.51-.47c.05-.24.08-.49.11-.74l.1-.2c1.29-.43,2.57-.83,3.87-1.2a26.09,26.09,0,0,0-2.52,4.61,73.93,73.93,0,0,0-4.38,13c-2.16,8.41-3.35,17-4.9,25.49a.36.36,0,0,0,.69.19c2.41-7.7,3.65-15.78,5.58-23.61a99.62,99.62,0,0,1,3.92-12.77,29.28,29.28,0,0,1,2.48-5c.63-1,1.58-1.83,2.27-2.78,1.71-.44,3.42-.83,5.15-1.18a17.59,17.59,0,0,0-2.1,3.66,46.69,46.69,0,0,0-2.83,8.69c-1.4,5.83-2.06,11.82-3.56,17.62-.12.46.6.81.81.34,2.21-5.05,2.85-10.74,4-16.08a55.27,55.27,0,0,1,2.49-8.75,34.84,34.84,0,0,1,3.48-5.92c1.26-.23,2.53-.43,3.8-.6-4.26,6.86-5.31,15.57-6.47,23.39a.51.51,0,0,0,1,.27c2.44-7.94,2.86-16.85,7.55-23.93,1.49-.17,3-.31,4.48-.41-.2,10.86-.59,21.56-1.72,32.39,0,.34.49.38.58.07,3.21-10.39,2.06-21.77,1.8-32.5,1.3-.09,2.61-.14,3.91-.16a109.91,109.91,0,0,1,3.6,18.16c.67,6.15.68,12.34.9,18.51a.61.61,0,0,0,1.21,0,78.55,78.55,0,0,0-4.37-36.69c.87,0,1.75,0,2.62,0a71,71,0,0,0,2.64,8.67c1,3.11,1.84,6.28,2.57,9.46,1.57,6.75,1.74,13.44,2.31,20.29.05.68,1.07.91,1.25.17,1.61-6.69.49-14.14-1.12-20.73a79,79,0,0,0-3.29-10.07,36.77,36.77,0,0,0-3.72-7.77h.46c1.69.06,3.37.18,5,.34,7.23,14.88,12.59,30.6,11.47,47.39a.48.48,0,0,0,.93.13c1.72-8.46.73-17.12-1.62-25.36a75.48,75.48,0,0,0-10.07-22.1c1.43.15,2.85.33,4.27.54,2.26,4.32,4.65,8.57,6.63,13,2.16,4.85,3.56,9.95,5.62,14.81.25.58,1.23.28,1.19-.32-.38-5.1-2.64-10.16-4.79-14.73a80,80,0,0,0-7.12-12.55c1.48.24,2.94.52,4.4.83,1.83,4.52,4.07,8.89,5.8,13.47a139.24,139.24,0,0,1,5,16.12,197.41,197.41,0,0,1,4.94,33.08.46.46,0,0,0,.92,0c.74-11.2-.84-22.47-3.62-33.31a138.49,138.49,0,0,0-5.29-16.43,72.9,72.9,0,0,0-6-12.53q2.69.62,5.33,1.4c1.49,2.61,3.17,5.09,4.48,7.81a97.72,97.72,0,0,1,4.48,11c1.22,3.56,2.25,7.17,3.17,10.81.83,3.26,1.41,6.64,2.52,9.83.31.88,1.8.81,1.73-.24a57.68,57.68,0,0,0-1.94-10.23c-1-4-2.11-7.89-3.46-11.74A63.17,63.17,0,0,0,242.08,377a31.19,31.19,0,0,0-4.22-6.07c1.58.49,3.13,1,4.68,1.61a.72.72,0,0,0,.17.18,28.32,28.32,0,0,1,7.85,8.64,50,50,0,0,1,4.73,12.69c2.29,9.37,3,19,3.68,28.55a121.08,121.08,0,0,0,1.11,12.77c.11.61.94.39,1-.13,1-8.87.18-18.26-.85-27.08-1.11-9.44-2.86-19.36-7.68-27.7a27.28,27.28,0,0,0-4.09-5.52c2.49,1.1,4.93,2.31,7.32,3.6,5.31,5.58,8.23,13.8,10.58,20.8a169.2,169.2,0,0,1,6.46,25.55c.12.69,1.25.53,1.23-.17-.37-9.29-3.11-18.56-6.34-27.23a72.43,72.43,0,0,0-6.47-13.67,40.09,40.09,0,0,0-2.52-3.63l1.09.64a.15.15,0,0,0,0,.13c.64,1.87,2.46,3.55,3.61,5.14a68.06,68.06,0,0,1,4.17,6.57A120.06,120.06,0,0,1,275.2,409a122.54,122.54,0,0,1,5.09,16.65c.57,2.56,1.07,5.14,1.44,7.74.31,2.2.26,4.58.76,6.75a.9.9,0,0,0,1.73,0c.63-2.13.35-4.74.14-6.93a66,66,0,0,0-1.3-8,110.7,110.7,0,0,0-5.51-17.5,101.7,101.7,0,0,0-8.08-16.13,68.59,68.59,0,0,0-4.65-6.55c-.55-.69-1.17-1.49-1.86-2.23q2.37,1.53,4.67,3.2c1.46,1.05,2.88,2.15,4.28,3.28,1,2.2,2.22,4.34,3.24,6.55,1.76,3.84,3.37,7.75,4.91,11.68a93,93,0,0,1,3.73,11.39c.84,3.34,1.18,6.74,1.9,10.08a.61.61,0,0,0,1.17,0c.92-3.09.16-6.79-.53-9.86a77.89,77.89,0,0,0-4.08-12.22,93.72,93.72,0,0,0-5.39-11c-.9-1.57-1.77-3.18-2.72-4.74q2.4,2.06,4.67,4.25c.92,1.53,2.22,2.95,3.14,4.47a57.85,57.85,0,0,1,3.15,6,76.17,76.17,0,0,1,4.58,14.23,89.78,89.78,0,0,1,1.88,29.14c-.08.77,1.19.94,1.35.18,2.07-10,1.3-20.34-1.23-30.22a72.58,72.58,0,0,0-5.26-14.09c-.59-1.19-1.22-2.35-1.88-3.49q2.74,3.6,5.48,7.22a1.89,1.89,0,0,0,1.25.79l.16.22c.42,1,.81,2,1.17,3.07,1.24,3.67,2.28,7.42,3.25,11.17,1.66,6.44,2.7,13.05,4.55,19.44a.51.51,0,0,0,1-.13,29,29,0,0,0-1-8.54c-.91-4.19-2-8.36-3.13-12.49-.68-2.43-1.39-4.86-2.2-7.26a120.77,120.77,0,0,1,11.7,23.17q1.1,2.9,2,5.85-4.83,3.9-9.75,7.7c-33.79,26.17-70.21,49.21-109.57,66-17.93,7.66-36.29,14.36-54.87,20.28q-5.28,1.68-10.58,3.29a138,138,0,0,1-19.22-39A98,98,0,0,1,104.22,446.83ZM273.6,478.49c13-8.37,25.1-18,37.16-27.66q.6,2.26,1.14,4.53a.79.79,0,0,0,.58.63c0,1.13,0,2.25,0,3.37-4.92,3.84-9.81,7.74-14.62,11.72-.07.06,0,.19.1.13,4.79-3.69,9.65-7.29,14.53-10.86a32.07,32.07,0,0,0,.32,4.35c.09.6.17,1.2.25,1.81-.22.5-.42,1-.62,1.54l-3,2a11,11,0,0,0,.28-1.13.64.64,0,0,0-1.17-.49,21.76,21.76,0,0,0-1.57,3.26q-3.82,2.53-7.68,5a1.83,1.83,0,0,0,.06-.25.56.56,0,0,0-.93-.54,8.36,8.36,0,0,0-1.74,2.47l-6.22,3.94a.6.6,0,0,0-.81.18l-.32.52q-12,7.46-24.13,14.55-37.62,21.92-77,40.66Q164.33,549.65,140,559.91c-1.81-1.72-3.55-3.5-5.25-5.32,11.39-4.43,22.67-9.14,33.9-13.84,4.66-2,9.29-4,13.91-6.06a73,73,0,0,1,7.58-3.35c.42-.13.24-.8-.19-.66-5.93,1.87-11.68,4.28-17.46,6.6-11,4.4-21.84,9.06-32.85,13.39l-6.26,2.43q-3.87-4.3-7.35-9,24.37-7.32,48.12-16.6a438.93,438.93,0,0,0,55.13-25.49,576.61,576.61,0,0,0,60.56-39.28q10.14-7.49,20-15.4c.22.71.42,1.43.62,2.15-12.16,9.78-24.12,19.83-36.93,28.74C273.33,478.36,273.46,478.58,273.6,478.49ZM68.75,552.83a1.65,1.65,0,0,1-.14-.8,7.75,7.75,0,0,1,1.26-3.09,44.88,44.88,0,0,1,6.1-7.71A206.73,206.73,0,0,1,96.4,522.65q4.25-3.45,8.59-6.78a139.46,139.46,0,0,0,14.79,26.86c-10,2.93-20.11,5.59-30.31,7.75A131.44,131.44,0,0,1,75,552.92a31.27,31.27,0,0,1-4.64.19,4.72,4.72,0,0,1-1.21-.14A1.53,1.53,0,0,1,68.75,552.83Zm0,0Zm45.38,17.47c-20,7.7-40.42,15-61.34,19.85a115,115,0,0,1-21,3.34c-3.71.16-8.89.27-11.74-2a5.84,5.84,0,0,1-1.82-4.18A17.37,17.37,0,0,1,20.14,579C23.82,571,30,564.19,36,557.93q4.74-4.92,9.75-9.58a2,2,0,0,0,.07.63,2.09,2.09,0,0,0,2,1.47,8,8,0,0,0,1.39-.16,1.58,1.58,0,0,0,.9-.61,1.66,1.66,0,0,0,.37-1,2.06,2.06,0,0,0-.24-.87.47.47,0,0,0-.06-.09,1.5,1.5,0,0,0,0-.84,1.56,1.56,0,0,0-.59-.85,1.44,1.44,0,0,0-.94-.33q6.59-6,13.49-11.6l-.11.22,5.78-1,.59.61a156.27,156.27,0,0,0-15.18,14.61c-6.22,6.79-12.55,14.31-15.91,23-1.43,3.67-2.36,7.79-.9,11.58a.33.33,0,0,0,.63-.17c-1.35-7.94,3-15.55,7.44-21.79,5.48-7.79,12.19-14.75,19-21.34,1.83-1.77,3.66-3.51,5.46-5.29l2.93,3,.85-5.82,5.26-2.6-5.27-2.59-.11-.75c5.79-4.46,11.67-8.81,17.55-13.08q5.4-3.92,10.86-7.72,1.23,4,2.74,7.95c-7.24,5.5-14.3,11.25-21,17.37-5.68,5.16-12.24,10.83-15.92,17.7-1.49,2.78-2.37,7.15,1.6,8.08,3.21.76,6.91.06,10.1-.38,13.58-1.89,27-5.56,40.13-9.34l3-.89q2.53,3.44,5.23,6.69c.72.88,1.46,1.74,2.22,2.6-9,3.39-18,6.63-27.09,9.56-10.68,3.44-21.62,6.87-32.78,8.24-5.42.67-15.92,2.1-17.38-5.33,0-.06-.09,0-.1,0-.44,6.37,7.7,7.18,12.31,7.18,10.37,0,20.94-3.13,30.81-6,12-3.51,23.85-7.66,35.57-12.14q2.53,2.81,5.23,5.46Q125,566.11,114.11,570.29ZM313.77,474a105,105,0,0,1-.32,17.82,91.86,91.86,0,0,1-8.88,30.84A97.22,97.22,0,0,1,298,534.08c-6.44,5.41-13.76,9.61-21.05,13.84-.51.29-.06,1,.45.76,4.9-2.08,10.53-4.38,15.39-7.53q-1.92,2.4-4,4.69c-5.37,2.27-10.2,6-15.33,8.73a55.79,55.79,0,0,1-9.34,4.09c-2.84.92-6,1.13-8.75,2.38a.28.28,0,0,0,.07.51c2.84.68,6-.47,8.71-1.43a74.92,74.92,0,0,0,8.59-3.83,149,149,0,0,0,13.22-7.42q-2.06,2.11-4.21,4.13c-2.67.85-5.39,3-7.71,4.25-3.07,1.73-6.13,3.48-9.25,5.11a107.52,107.52,0,0,1-10,4.88,96.87,96.87,0,0,1-10.12,3.11.13.13,0,0,0,0,.26c6.74-.44,13.86-3.34,19.87-6.28,3.29-1.61,6.51-3.35,9.69-5.17l1.3-.74a135.7,135.7,0,0,1-12.74,9.22c-1.75,1.11-3.52,2.21-5.31,3.27-1.18.38-2.34.82-3.46,1.17-2.69.81-5.41,1.52-8.15,2.09a80.57,80.57,0,0,1-8.45,1.3,70.49,70.49,0,0,0-8,.73.23.23,0,0,0,0,.44c5.08,1.55,11.35.28,16.45-.75,1.51-.31,3-.66,4.51-1a130.57,130.57,0,0,1-13.68,6.24c-.72.14-1.44.34-2.16.46a31.27,31.27,0,0,1-5.8.41c-3.12-.05-6.45-1.08-9.54-.82a.15.15,0,0,0-.07.28c2.55,1.92,6.9,2,10,2.05h.76c-3,.94-6.08,1.75-9.17,2.39a.43.43,0,0,0-.4-.22,30.39,30.39,0,0,1-10.25-1.22.11.11,0,0,0-.11.19,8.41,8.41,0,0,0,5.08,2.25,79.39,79.39,0,0,1-14.48.73c-21.76-1-42.08-10.94-58.1-25.36q6.69-2.82,13.35-5.74c-1.32,2.62-2.47,5.32-3.91,7.87-.17.29.24.64.49.37,2.24-2.53,3.64-5.78,5-9,2.32-1,4.63-2,6.94-3.08-.57,1-1.09,2.11-1.61,3.16-1.5,3-3,6-4.41,9-.17.36.26.75.56.44,3.57-3.65,4.84-9,7.34-13.45l1.1-.49,6.44-2.93c-1.2,1.95-2.21,4-3.26,6-2.06,3.93-3.95,7.95-5.71,12-.15.36.3.83.59.46a67.61,67.61,0,0,0,6.45-11c1.51-3,3.09-5.85,4.64-8.78l7.24-3.37a74.71,74.71,0,0,0-5,8.53c-2.31,4.15-4.57,8.34-7,12.45-.32.55.49,1,.85.49,2.73-3.9,5.16-8,7.65-12,2.18-3.56,4.92-7,6.6-10.9q4.29-2,8.56-4.1c-2.63,3.8-4.61,8.2-6.79,12.17-3.1,5.62-6.28,11.2-9.85,16.53-.32.48.42,1,.8.62a86.24,86.24,0,0,0,10.57-15.82c2.59-4.76,5.57-9.59,7.64-14.65q4.67-2.26,9.31-4.59c-1.09,1.69-2,3.49-3,5.13-2.15,3.64-4.27,7.27-6.74,10.71-.71,1,.9,1.87,1.61.94a114.29,114.29,0,0,0,7-10.53,70.21,70.21,0,0,0,4.55-8c2.45-1.23,4.9-2.47,7.33-3.73-.92,1.12-1.76,2.3-2.55,3.34a112.34,112.34,0,0,0-6.43,9.7c-4,6.66-7.9,13.41-12.3,19.82-.35.51.43,1.1.84.66,5.13-5.52,8.75-12.15,12.57-18.59,1.93-3.24,3.89-6.47,6-9.59,1.67-2.46,4-4.75,5.68-7.31,2.63-1.36,5.25-2.74,7.87-4.12-1.86,2.53-3.51,5.24-5.16,7.85-2.74,4.33-5.31,8.78-8.07,13.11-.58.91.84,1.71,1.44.84,2.85-4.13,5.46-8.38,8.1-12.64,2.35-3.8,5-7.4,7.41-11.14,2.19-1.18,4.38-2.35,6.56-3.54-1,1.36-2,2.75-2.92,4-3,4-5.77,8.11-8.45,12.29A234.62,234.62,0,0,0,214,557.26a.46.46,0,0,0,.79.46c5.51-7.76,10.15-16.17,15.25-24.2,2.53-4,5.16-7.93,7.94-11.75,1.41-1.93,2.85-3.82,4.33-5.69,1-1.21,2.08-2.37,3-3.62L248,511c-.56.89-1.06,1.79-1.54,2.55-2.71,4.28-5.11,8.77-7.7,13.11-5.85,9.83-11.94,19.46-18.18,29-.22.34.3.75.56.43a221.23,221.23,0,0,0,18.79-27.32q4-6.66,7.82-13.43c1.24-2.19,3-4.18,4-6.47q3.92-2.19,7.8-4.41c-2.09,3.4-3.94,7-6,10.37-3,4.87-6.19,9.64-9.24,14.49s-6,9.52-8.79,14.37-5.71,9.66-7.7,14.82c-.05.14.17.22.24.1,2.94-4.86,5.58-9.89,8.62-14.7s6.32-9.63,9.54-14.41,6.16-9.34,9.07-14.11c2.38-3.91,5.16-8.06,6.86-12.41,2.17-1.25,4.34-2.5,6.5-3.77-.48,1.06-.94,2.12-1.45,3.1-1.45,2.82-3,5.59-4.52,8.36-3.08,5.51-6.42,10.88-9.69,16.28-.3.5.43.89.76.45a137.35,137.35,0,0,0,10.53-16.27c1.55-2.76,3-5.6,4.35-8.46.72-1.51,1.61-3.15,2.32-4.81q3.48-2.06,7-4.14c-1.51,2.66-2.89,5.44-4.37,8-2.56,4.46-5.22,8.87-7.86,13.3-5.28,8.84-11,17.46-15.81,26.58a.31.31,0,0,0,.54.31c6.17-8.43,11.57-17.46,17-26.38,2.68-4.4,5.24-8.87,7.76-13.36,1.8-3.22,3.9-6.61,5.44-10.1q2.91-1.75,5.8-3.54c-.92,2-1.79,4-2.75,5.93-2.05,4.05-4.25,8-6.46,12-4.45,8-9.32,15.66-14.38,23.25-.21.32.29.72.54.42a180.86,180.86,0,0,0,15.57-22.66c2.29-3.91,4.38-7.95,6.4-12,1.4-2.82,3.06-5.81,4.25-8.87l4.17-2.61-.23.43c-1.58,3.06-3.13,6.13-4.7,9.19a178.93,178.93,0,0,1-10.45,18.18c-.32.47.43,1.07.79.62a99.26,99.26,0,0,0,11-17.56c1.65-3.16,3.21-6.37,4.82-9.56.52-1,1.05-2.07,1.59-3.1q4.06-2.59,8.09-5.23c-.59,1.26-1.18,2.51-1.78,3.76q-3,6.15-6.33,12.09c-4.49,8-9.43,15.81-13.74,23.93a.34.34,0,0,0,.59.35,249.16,249.16,0,0,0,14.86-23.76c2.21-4,4.34-8,6.32-12.09q1.43-3,2.72-6l0,0,3.45-2.29c-.68,2.2-1.33,4.4-2.06,6.52C307,484.36,305,489.2,302.94,494c-4.25,9.61-9.74,18.46-14.77,27.65-.19.34.3.77.56.44,6.67-8.18,11.8-17.81,16.14-27.39,2.06-4.56,3.87-9.24,5.49-14,1-3,2.19-6.26,3-9.51l.17-.12C313.62,472,313.7,473,313.77,474Zm88.41-94.23a33.43,33.43,0,0,1-3.88,9.91c-5.74,10.41-14,19.42-22.4,27.76-13.51,13.45-28.44,25.47-43.8,36.74q-7.71,5.65-15.59,11.06c-.06-.39-.11-.78-.17-1.16a23.4,23.4,0,0,0-1.61-5.4c6.4-4.67,12.83-9.33,19.15-14.12,11.75-8.9,23.56-17.94,33.93-28.47.27-.27-.13-.66-.42-.41-11.42,9.87-23.08,19.41-35.13,28.51-6,4.53-12,9.06-17.89,13.66-.31-.7-.63-1.4-1-2.11a.86.86,0,0,0,.26-.87c-.4-1.77-.85-3.54-1.33-5.3,9.54-7.64,19.09-15.27,29.09-22.29.25-.18,0-.59-.25-.42a335.76,335.76,0,0,0-29.2,21.4c-.2-.72-.41-1.44-.62-2.15,8.07-6.54,16-13.32,23.57-20.38C340,421,345,416.1,349.72,410.92a58.64,58.64,0,0,0,7.85-10.11c1.18-2.1,2.26-4.89-.25-6.51-3.66-2.37-9.85-1.13-13.84-.62-15.2,2-30.27,6-44.92,10.45q-3.33,1-6.63,2.11-2.13-2.83-4.28-5.65c17.5-7,35-13.93,52.87-20,8.76-3,17.61-5.76,26.6-8,7-1.74,14.26-3.29,21.53-3.46,4.27-.09,10.6,0,13,4.33a11.66,11.66,0,0,1,.75,2.6A13.88,13.88,0,0,1,402.18,379.77Z"/><path class="cls-1" d="M377.39,388c-1.89-3-5.66-4.07-9-4.42-7.1-.74-14.49,1-21.38,2.52-6.68,1.47-13.46,3.21-20.22,4.22-.07,0-.05.13,0,.13,5.56.12,10.89-1.41,16.26-2.74a103.3,103.3,0,0,1,19.18-3.29c6.71-.35,17.17,1.2,14.58,10.25-2.11,7.41-8.55,13.77-13.81,19.08a276.89,276.89,0,0,1-21.89,19.47c-5.72,4.66-12,8.88-17.3,14.05-.39.37.13,1.1.59.77,13.72-9.95,27.24-20.73,39.15-32.81,5.49-5.56,12-12.15,14.34-19.86C378.67,393,378.81,390.24,377.39,388Z"/><path class="cls-1" d="M380.27,378.32c-.35-.15-.65.36-.3.51,3.3,1.43,5.11,4.6,6.6,7.71.07.15.32,0,.27-.11C385.67,383,383.71,379.8,380.27,378.32Z"/><path class="cls-1" d="M70.91,145.84a241.63,241.63,0,0,0-8.13,49A286.2,286.2,0,0,0,73.89,295.05c4.88,16.41,11.1,33.21,20.92,47.35a.65.65,0,0,0,1.13-.66c-6.88-13.65-13.3-27.4-18-42a274.85,274.85,0,0,1-10.8-48.24c-4.35-32.81-3.54-66.82,4.29-99q.81-3.35,1.74-6.66C74.92,139.49,73,138.25,70.91,145.84Z"/><path class="cls-1" d="M141,330.21c-9.86-11-19.09-22.43-26.83-35.07a232.49,232.49,0,0,1-20-41.35,230.14,230.14,0,0,1-11.35-43.58c-.26-1.6-.49-3.21-.71-4.82a2.22,2.22,0,0,0,1.71-2.16c0-.24,0-.48,0-.73a4.91,4.91,0,0,0,.08-.67,1.56,1.56,0,0,0,0-.43c0-.05,0-.09,0-.1a2.89,2.89,0,0,0,.15-1.13,1,1,0,0,0-1-.95,3.41,3.41,0,0,0-1.71.42c-1.33-12.06-1.59-24.31.29-36.26,1.49-9.46,3.93-18.73,6-28.07,2-9,3.78-18.38,3.19-27.68a.57.57,0,0,0-1.13,0,170,170,0,0,1-3.77,26c-1.85,8.43-4,16.8-5.57,25.29-2.57,14-2.4,28.17-.81,42.26a5.85,5.85,0,0,0-.27,2.07,2.35,2.35,0,0,0,.71,1.63l.15,1.15a229,229,0,0,0,29.64,85.6c8.4,14.17,18.34,28.08,30.7,39.07A.33.33,0,0,0,141,330.21Z"/><path class="cls-1" d="M93,146.66A271.56,271.56,0,0,0,95,186c3.21,25.77,10.27,51.17,22.63,74.1a155.18,155.18,0,0,0,11.66,18.51c4.2,5.69,8.8,11.45,14.18,16.08a.41.41,0,0,0,.58-.58c-4.06-5.06-8.33-9.89-12.15-15.15A170.11,170.11,0,0,1,121.63,263a186.13,186.13,0,0,1-15.37-35.32,252.08,252.08,0,0,1-11.6-76.39q0-2.34,0-4.68"/><path class="cls-1" d="M102.77,357.42a14.36,14.36,0,0,1,7.22-4.7,25.23,25.23,0,0,1,9.65-1.1c3.25.24,6.19,1.46,9.35,2a.84.84,0,0,0,.81-1.4c-2.28-2.8-6.79-3.56-10.16-3.78a29.14,29.14,0,0,0-4.85.11,11,11,0,0,1,1.58-10.64c2.64-3.58,6.45-5.18,10.37-7,.66-.3.27-1.24-.35-1.27-5.09-.28-10.1,3.78-12.68,7.86-2.24,3.54-2.84,7.78-1,11.32a25.12,25.12,0,0,0-4.78,1.35c-3.12,1.25-6.16,3.29-7.81,6.31-1.41,2.57-2.2,7.07,0,9.43a.54.54,0,0,0,.89-.24c.3-1.45,0-3,.16-4.43A8.74,8.74,0,0,1,102.77,357.42Z"/><path class="cls-1" d="M55.61,422.63a.75.75,0,0,0,1.24-.32c.47-1.95-.37-4.44-.37-6.49a24.81,24.81,0,0,1,1.17-7.19,34.77,34.77,0,0,1,7.86-13.3A31.7,31.7,0,0,1,71.88,390a4.39,4.39,0,0,0,1.87.12.43.43,0,0,0,.19-.71c-.11-.13-.24-.25-.37-.38a22.31,22.31,0,0,1,4.1-1.63c4.83-1.34,8.74,0,13.11,2a.9.9,0,0,0,1.09-1.4c-5.28-5.88-14.4-4.24-20.62-.71a11.87,11.87,0,0,1-2.3-1.8,12.12,12.12,0,0,1-2.8-5.31c-1.1-4.31-.31-8.95,1.12-13.08,3.15-9.1,10.52-18.23,20.23-20.61a16.76,16.76,0,0,1,7.84-.06c3.12.73,5.72,2.42,8.57,3.79a.85.85,0,0,0,1-1.33c-3.65-4.48-10.27-6.2-15.81-5.5S78.77,347,74.85,350.79C67.48,357.87,61.5,369.55,63.77,380a14.73,14.73,0,0,0,3.32,6.69,14,14,0,0,0,2.09,1.92,37.2,37.2,0,0,0-14.53,20.73,25.91,25.91,0,0,0-.86,7.18C53.85,418.34,54.11,421.38,55.61,422.63Z"/><path class="cls-1" d="M139.38,371.15a15.78,15.78,0,0,1,6.27-3.33c2.15-.57,4.48-.24,6.58-.87a.68.68,0,0,0,.16-1.22c-2.17-1.6-5.63-1-8-.25a18.63,18.63,0,0,0-7.05,4c-2.8,2.55-6,7.63-4.64,11.66a12.54,12.54,0,0,0-1.68.45l-.3.11c-1.72-3-6.79-4.52-9.86-4.29-4.07.29-7.52,2.86-10,5.94a32.93,32.93,0,0,0-6,11.91c-1.07,3.79-1.74,8-.2,11.73.18.44.93.44.89-.12A31.7,31.7,0,0,1,112,386.2c2-2.55,4.75-5.11,8-5.71a8.31,8.31,0,0,1,4.77.59,22.63,22.63,0,0,1,3.19,2c-2.42,1.6-4.31,4-4.34,7a.52.52,0,0,0,1,.26c2.12-2.84,4.3-5.36,7.88-6.27a12.35,12.35,0,0,1,5.1-.21c1.38.22,2.74,1,4,.18a.69.69,0,0,0,.3-.74c-.4-2.49-4-2.83-7-2.53a13,13,0,0,1,.59-4.31A13.17,13.17,0,0,1,139.38,371.15Z"/><path class="cls-1" d="M63.3,422.87A16.46,16.46,0,0,1,70,420.35c2.83-.4,5.49.35,8.3.34a.42.42,0,0,0,.2-.77c-4-2.62-10.27-1.76-14.38.07a22.81,22.81,0,0,0-10.19,9.86c-5,8.81-6,20.44-1.93,29.78,2.25,5.12,6.44,9.46,12,10.77a.53.53,0,0,0,.41-1c-8.28-5-12.5-13.29-12.4-22.93C52.08,437.67,55.59,427.83,63.3,422.87Z"/><path class="cls-1" d="M249.78,330.6c2.49-3.52,5.06-7.15,9.54-8.08,3.74-.78,7.56.47,10.73,2.43a26.38,26.38,0,0,1,8.8,9.38c2.39,4.16,2.88,8.42,3.63,13,.11.67,1,.55,1.23,0,1.6-4.82-.33-10.64-2.68-14.89A27.14,27.14,0,0,0,270.48,322c-3.77-2.05-8.44-3.22-12.64-1.86a13.07,13.07,0,0,0-5.42,3.43,12.44,12.44,0,0,0-3.42,6.71A.43.43,0,0,0,249.78,330.6Z"/><path class="cls-1" d="M129.14,19.36c.79,2.45,1.52,4.91,2.23,7.39.52,1.82.66,4.56,2.4,5.63a.65.65,0,0,0,.88-.23c1.22-1.65.09-4.4-.38-6.2-.65-2.49-1.52-4.92-2.37-7.35s-1.73-4.85-2.6-7.27a56,56,0,0,0-2.55-6.95.75.75,0,0,0-1.38.38A26.71,26.71,0,0,0,126.84,12C127.53,14.48,128.35,16.92,129.14,19.36Z"/><path class="cls-1" d="M122.26,37.69c2.36.68,4.74,1.3,7.08,2.05,3,.95,5.35,2.72,4.82,6.16-.48,3.13-1.33,6.3-2,9.38a171.49,171.49,0,0,1-5.94,19.85c-1.16,3.26-2.37,6.5-3.6,9.73-.59,1.55-1.18,3.1-1.72,4.67-.27.78-.57,1.56-.81,2.35a27.25,27.25,0,0,1-.62,2.74c-.23.56.55.84.92.53,2.39-2,3.34-6,4.44-8.82,1.39-3.62,2.77-7.24,4.09-10.89a180.39,180.39,0,0,0,6.75-22.63c1.17-5.38,3.32-11.47-2.71-14.71a32.66,32.66,0,0,0-7.65-2.44c-3.14-.78-6.2-1.6-9.3-2.5a.71.71,0,0,0-.68,1.17C117,36.34,119.86,37,122.26,37.69Z"/><path class="cls-1" d="M57.73,82a1.14,1.14,0,0,0,1.7-1c0-1.38-.84-2.57-.8-4A7.62,7.62,0,0,1,60,73.2c1.84-2.88,4.75-5,7.5-7s5.9-3.83,8.83-5.79a17.34,17.34,0,0,0,5.48-5c.23-.36-.27-.71-.57-.44-2.25,2-5.19,3.53-7.74,5.12a114.66,114.66,0,0,0-9.84,6.51c-2.56,2-5.22,4.31-6.61,7.3C55.93,76.25,55.36,80.2,57.73,82Z"/><path class="cls-1" d="M133,106.74a22.41,22.41,0,0,1-4.81-1.25,7.17,7.17,0,0,1-2.26-1.09c-.78-.76-.38-1.62-.14-2.73a95.83,95.83,0,0,1,3.71-11.55c1-2.94,3.12-7.75,1.92-10.85a.53.53,0,0,0-1-.13c-1.2,1.76-1.45,4.36-2.15,6.37-.78,2.26-1.63,4.5-2.47,6.74s-1.68,4.52-2.33,6.84c-.43,1.54-1.7,4.75-.9,6.27.67,1.27,2.81,2.39,4.05,3a19.87,19.87,0,0,0,5.45,1.6c3.33.53,7.94,1.17,10.74-1.1.59-.48.19-1.37-.42-1.58C139.51,106.29,136.09,107.18,133,106.74Z"/><path class="cls-1" d="M96.62,56.85c3.86-.9,7.23-3.75,10.54-5.79a38.89,38.89,0,0,1,5.72-3c1.28-.52,3.4-.61,4.13-1.9a.39.39,0,0,0-.06-.46c-1.15-1.1-3-.23-4.3.25-.3.11-.61.23-.91.36a14.43,14.43,0,0,0,1.13-.94c.33-.31,0-.77-.42-.71-2.87.44-5.39,2.41-7.83,3.86-2.25,1.33-5.25,2.39-7,4.35a.13.13,0,0,0,.09.21A8.05,8.05,0,0,0,102.15,52a42.9,42.9,0,0,0-5.73,4.55A.21.21,0,0,0,96.62,56.85Z"/></g></g></svg>