<svg xmlns="http://www.w3.org/2000/svg" xmlns:xlink="http://www.w3.org/1999/xlink" viewBox="0 0 457.83 640.77"><defs><style>.cls-1,.cls-11,.cls-14{fill:#5ae4a7;}.cls-1,.cls-16,.cls-2,.cls-6,.cls-9{stroke:#1a2e35;stroke-linecap:round;stroke-linejoin:round;}.cls-17,.cls-2{fill:#757575;}.cls-13,.cls-19,.cls-3{fill:#fff;}.cls-3{opacity:0.7;}.cls-4{opacity:0.42;}.cls-5{fill:#f8be7d;}.cls-6,.cls-8,.cls-9{fill:none;}.cls-7{fill:#2f2f2f;}.cls-8{stroke:#000;stroke-miterlimit:10;}.cls-9{stroke-width:2px;}.cls-10{fill-opacity:0.7;opacity:0.2;}.cls-12{clip-path:url(#clip-path);}.cls-14,.cls-19{opacity:0.4;}.cls-15{clip-path:url(#clip-path-2);}.cls-16{fill:#1a2e35;}.cls-18{clip-path:url(#clip-path-3);}</style><clipPath id="clip-path"><path class="cls-1" d="M329.78,479.34a2.86,2.86,0,0,1-.59,1c-4.24,4-22.35,8.48-37.91,11.69-12.89,2.67-24,4.48-24,4.48s-8.53-70.92-8.53-78.37S245,290,245,290l33-1.43,43.83-1.89s.27,3.22.71,8.86C325.29,331.45,335.28,465.18,329.78,479.34Z"/></clipPath><clipPath id="clip-path-2"><path class="cls-1" d="M309.39,271.49l87.9,23.16S366.38,388.39,360.06,400l-10.47,81.71s-56.14-2.46-81.95-10.27c0,0,16.31-85.11,17.19-96.44S309.39,271.49,309.39,271.49Z"/></clipPath><clipPath id="clip-path-3"><polygon class="cls-2" points="221.73 184.1 210.1 381.56 95.89 377.81 104.91 226.51 107.71 179.53 157.47 181.53 221.73 184.1"/></clipPath></defs><title>MAIN ILLUSTRATION B</title><g id="Layer_2" data-name="Layer 2"><g id="Layer_1-2" data-name="Layer 1"><path class="cls-3" d="M13.25,223.37s-33.42,86.29,13.54,173.2,143.68,132.8,221.09,172.05,157.8,20.13,196-44.15-14.19-110.18-14.26-201.86,13.72-116-35.91-193.4S222.25,34.61,130.15,92.06,13.25,223.37,13.25,223.37Z"/><g class="cls-4"><path class="cls-5" d="M24.19,222.62C58.74,159,145.63,84.78,264.84,115.71S464.6,212,451.4,325.86,368.85,534.24,219.46,537-51.55,362.07,24.19,222.62Z"/></g><polygon class="cls-6" points="25.3 294.51 122.47 275.11 156.4 438.01 53.12 460.17 25.3 294.51"/><path class="cls-7" d="M124.29,519.24l24.73-41,24.75,41c-6.31,3.75-12.69,7.13-18.61,11.2-4.31,2.95-7.67,3.25-12.1.09C137.19,526.36,130.72,523.05,124.29,519.24ZM148,484.83l-.68-.17-19.51,32.4.61.51c6.15-2.59,12.31-5.16,18.42-7.81a2.2,2.2,0,0,0,1.11-1.61C148.06,500.38,148,492.6,148,484.83Zm2.7-.12-.69.12c0,7.84,0,15.68.08,23.52,0,.59,1,1.37,1.78,1.71,3.08,1.4,6.22,2.67,9.34,4,2.83,1.18,5.66,2.34,8.49,3.51l.46-.53Q160.47,500.87,150.73,484.71Zm-.56,26.73v19.33l19.08-11.29Zm-21.34,8,19.07,11.26V511.48Z"/><path class="cls-7" d="M172.57,525.62c-7.75,10.93-15.51,21.85-23.53,33.15l-23.5-33.08.25-.43c.63.32,1.3.6,1.91,1,6.46,3.81,13,7.6,19.36,11.5a3.38,3.38,0,0,0,4,0c6.35-3.84,12.75-7.58,19.13-11.35.67-.4,1.37-.73,2.05-1.09Zm-39.63,5.92-.53.53,15.05,21.18A64.15,64.15,0,0,0,148,542a2.77,2.77,0,0,0-1-2C142.37,537.07,137.65,534.32,132.94,531.54Zm32.68.58-.45-.56c-4.78,2.81-9.56,5.61-14.32,8.44-.3.18-.69.52-.7.79,0,4.1,0,8.2,0,12.3l.58,0Z"/><path class="cls-8" d="M71.17,306.87a21.94,21.94,0,0,1,2.37-.49c2.46-.19,3.89-1,4-3.94a5.17,5.17,0,0,1,4.73-5.31A6.25,6.25,0,0,1,89,300.79c.66,1.28,1.11,2.27,2.9,1.82.52-.13,1.31.83,2,1.29-.52.69-.91,1.79-1.57,2-1.32.39-1.66.94-1.71,2.3a16.23,16.23,0,0,1-1.09,5.14c-.25.67-1.47,1-2.25,1.44-.4-.84-1.19-1.72-1.13-2.53a32.41,32.41,0,0,1,1.28-5.17,52.71,52.71,0,0,0-5.78,1.32c-.45.16-.68,1.31-.78,2-.51,3.77-1.69,5.45-4.46,6.11a6.11,6.11,0,0,1-7.13-3.5c-.65-1.29-1.17-2-2.79-1.65a1.64,1.64,0,0,1-.7-3.2c1.94-.29,1.94-1.54,2-3a7.08,7.08,0,0,1,.68-3c.38-.66,1.37-1,2.09-1.44.47.75,1.28,1.47,1.33,2.24A16,16,0,0,1,71.17,306.87Zm1.07,3.51-.37.8c1,.45,2,1.3,3,1.25,1.56-.07,2-1.43,2-3Zm14.11-6.85c-.76-1.67-1.77-2.76-3.3-2-.91.42-1.44,1.69-2.14,2.58l.55.51Z"/><path class="cls-9" d="M189.21,558,208,563.74,194,547.32c7.67-8.83,12.21-19.63,12.34-30.84"/><path class="cls-9" d="M166.45,565.23A63.25,63.25,0,0,0,184,556.4"/><path class="cls-9" d="M94.07,530.36C99.6,557,129,573.37,159.78,567"/><path class="cls-9" d="M98.56,500.34a48.12,48.12,0,0,0-3,7"/><path class="cls-9" d="M205.48,507.24c-5.52-26.61-34.93-43-65.7-36.63a61.68,61.68,0,0,0-35.61,21.21"/><path class="cls-9" d="M246.5,104.59l-18.12-7.53,12.29,17.68c-8.48,8.05-14,18.36-15.25,29.51"/><path class="cls-9" d="M269.85,99.57a63.56,63.56,0,0,0-18.36,7.09"/><path class="cls-9" d="M338.53,141.25c-2.93-27-30.63-46.18-61.87-42.79"/><path class="cls-9" d="M331.18,170.69a47.3,47.3,0,0,0,3.65-6.65"/><path class="cls-9" d="M225.41,153.53c2.94,27,30.64,46.18,61.87,42.79a61.69,61.69,0,0,0,37.49-17.68"/><path class="cls-7" d="M286.26,156.62c3.27.67,6.58,1.33,9.88,2a3,3,0,0,1,2.48,3.5,72.08,72.08,0,0,1-1.6,7.1,2.9,2.9,0,0,1-3.34,1.83c-5.7-1.23-11.39-2.53-17.1-3.74-4.79-1-9.61-2-14.41-3-2.89-.6-4.35-1.69-3.5-5,.48-1.9.77-3.84,1.34-5.71a2.9,2.9,0,0,1,3.49-1.88c3.08.63,6.14,1.3,9.22,1.94a9.16,9.16,0,0,0,1.24.1c.21-.83.18-1.24-.84-1.53a57.53,57.53,0,0,1-13.54-5.38,14.24,14.24,0,0,1-3.12-2.63c-1.44-1.54-1-2.88.89-3.77a15.52,15.52,0,0,1,6.8-1.2c4,0,8.07.35,12.31.56.3-1.37.65-2.95,1-4.54.87-4,1.68-8,2.62-12a3.07,3.07,0,0,1,3.93-2.53c2.23.39,4.45.92,6.65,1.49a3.21,3.21,0,0,1,2.14,3.39c-.94,4.52-1.94,9-2.91,13.56-.25,1.18-.48,2.37-.68,3.37,3.68,1.45,7.22,2.78,10.69,4.25a16.57,16.57,0,0,1,5.72,3.77c1.53,1.62,1.05,3.25-1.07,4.1a19.84,19.84,0,0,1-7.88,1.14c-3.1-.08-6.2-.42-9.29-.64-.31,0-.62,0-.95,0Zm-11.07-.91a6.3,6.3,0,0,1-1.16,0c-3.49-.76-7-1.55-10.46-2.33a1.79,1.79,0,0,0-2.2,1.09c-.45,2.07-.9,4.14-1.27,6.23a1.38,1.38,0,0,0,1.21,1.79c3.15.63,6.3,1.27,9.44,1.94,7.66,1.65,15.31,3.33,23,5a1.5,1.5,0,0,0,2-1.26c.44-1.91.83-3.83,1.25-5.74.26-1.23,0-1.81-1.22-2.09-3.82-.87-7.66-1.68-11.46-2.51l2.26-10.69-9.12-2Zm11.68-2.17a51.62,51.62,0,0,0,13.11.56,32.1,32.1,0,0,0,4.22-.93c.79-.21.91-.71.31-1.32-.22-.22-.45-.45-.69-.65a30.47,30.47,0,0,0-8.76-4.64,91.56,91.56,0,0,0-13.86-3.88A69.41,69.41,0,0,0,262,141.06a9.61,9.61,0,0,0-4.78,1.37,7.6,7.6,0,0,0,3.75,3.39,61.62,61.62,0,0,0,6.59,3c2.23.87,4.54,1.53,7,2.33.53-2.47,1.05-4.76,1.49-7.06.13-.67.25-.8,1-.63,2.45.58,4.92,1,7.38,1.51,1.4.3,2.78.66,4.13,1ZM291.21,125c-.34-.31-.8-1.08-1.41-1.25-2.08-.57-4.2-.94-6.32-1.36a1.74,1.74,0,0,0-1.93,1.3q-1.65,7.75-3.32,15.5c-.18.84,0,1.22.93,1.38,2.47.46,4.93,1,7.37,1.55.91.23,1.12-.09,1.27-.82.71-3.34,1.45-6.66,2.15-10C290.37,129.38,290.74,127.42,291.21,125Z"/><path class="cls-7" d="M285,136a4.7,4.7,0,0,1-1.21.46c-.14,0-.47-.41-.48-.64s.32-.76.41-.74a6.25,6.25,0,0,1,1.27.51Z"/><path class="cls-10" d="M303.29,454.51s-4.27,51.63,1.9,64.15,9.27,98.1,6.5,108.87c0,0,19.87,5,27.74-2.11s20-.27,39.87-7.24,5.55-160.7,5.55-160.7l.61-55.93L352.6,372.29Z"/><path class="cls-11" d="M329.78,479.34a2.86,2.86,0,0,1-.59,1c-4.24,4-22.35,8.48-37.91,11.69-12.89,2.67-24,4.48-24,4.48s-8.53-70.92-8.53-78.37S245,290,245,290l33-1.43,43.83-1.89s.27,3.22.71,8.86C325.29,331.45,335.28,465.18,329.78,479.34Z"/><g class="cls-12"><path class="cls-10" d="M329.78,479.34l-38.5,7.92-14.54,3c-3.94-3.87-6.95-3.94-6.95-3.94l-1.15-10.85-1.88-17.75L250.19,301.53c3.62-2.48,5.37-7.91,5.37-7.91l22.17-.8,38.42-1.4,6.34,4.1C325.29,331.45,335.28,465.18,329.78,479.34Z"/><path class="cls-6" d="M329.78,479.34l-38.5,7.92-14.54,3c-3.94-3.87-6.95-3.94-6.95-3.94l-1.15-10.85-1.88-17.75L250.19,301.53c3.62-2.48,5.37-7.91,5.37-7.91l22.17-.8,38.42-1.4,6.34,4.1C325.29,331.45,335.28,465.18,329.78,479.34Z"/><polygon class="cls-1" points="271.83 433.36 284.68 433.34 284.69 437.36 281.11 438.62 272.88 439.53 271.83 433.36"/><polygon class="cls-1" points="272.62 441.63 282.06 441.31 284.48 442.46 284.36 447.79 273.34 447.92 272.62 441.63"/><polygon class="cls-1" points="274.13 450.15 284.92 449.38 284.79 453.42 279.58 455.26 274.07 454.95 274.13 450.15"/><polygon class="cls-1" points="274.78 456.96 283.48 457.4 284.27 459.64 283.01 462.1 275.22 462.59 273.88 458.79 274.78 456.96"/><path class="cls-1" d="M284.82,464.76c.41,1.16.83,2.32,1.24,3.49a2.59,2.59,0,0,1,.06,2.36,2,2,0,0,1-1.83.64c-.67-.06-1.33-.28-2-.31-2-.09-3.89,1.57-5.88,1.21-.78-2.15-2.74-5.31-.08-6.28C276.73,465.72,285.1,465.55,284.82,464.76Z"/><path class="cls-1" d="M284.78,474.58a19.46,19.46,0,0,1,.41,2.52c.1,1.09,0,2.38-.89,3a3.4,3.4,0,0,1-1.66.44l-6.93.63a32.76,32.76,0,0,1-.07-3.93c.41-1.55.12-1.43,1.6-2.06C279.58,474.18,282.38,475.77,284.78,474.58Z"/><path class="cls-6" d="M259.59,305.07s2.62,25.26,2.73,30.25"/><line class="cls-6" x1="265.22" y1="305.31" x2="266.45" y2="319.23"/><polygon class="cls-1" points="284.74 300.05 286.33 316.36 288.54 316.57 287.82 300.2 284.74 300.05"/><path class="cls-10" d="M329.78,479.34a2.86,2.86,0,0,1-.59,1c-4.24,4-22.35,8.48-37.91,11.69V481.26l-22.64-5.81-3.42-.87,1.54-16.88,5.86-64.5,5.11-100.38.22-4.27,43.83-1.89s.27,3.22.71,8.86C325.29,331.45,335.28,465.18,329.78,479.34Z"/></g><path class="cls-6" d="M329.78,479.34a2.86,2.86,0,0,1-.59,1c-4.24,4-22.35,8.48-37.91,11.69-12.89,2.67-24,4.48-24,4.48s-8.53-70.92-8.53-78.37S245,290,245,290l33-1.43,43.83-1.89s.27,3.22.71,8.86C325.29,331.45,335.28,465.18,329.78,479.34Z"/><path class="cls-13" d="M353,640.27c.28-2.53-3.7-38.81-3.77-42.75C349,586.7,346,572.57,346,572.57c-4.27-10.9-7.59-36-19-52.16s-11.38-35.08-13.27-51.2-1.43-14.71-1-29a209.43,209.43,0,0,0-1.43-32.17c-.94-9.49-2.84-26.19,0-34s10.28-9.56,18.41-1.8S341.22,412,341.22,416s0,16.26,2.85,21c0,0,16.12-8.25,16.12-10.52s-.47-22.4,1.9-23.48l-9.48-30.69,18-6.38a46.85,46.85,0,0,1,8.68,10.42,56.44,56.44,0,0,1,5.07,10.18c7.59,20.12,19.78,34.16,22.29,39.95s0,51.76,0,60.31-5.51,48-5.37,54.57c.11,4.75,3.35,22.62,6.57,36.3,1.25,5.27,8.47,43.48,9.53,46.52Z"/><path class="cls-14" d="M367.18,401c-.12,2.58,3,23.12,3,23.12,2.14,5.11-9.51,22.56-9.51,22.56-2.52,1.43-3.62,10.2-3.62,10.2-7.88-1.75-25.94-19.91-25.94-19.91s-2.17,7.44-4.54,25.86,12.8,62.18,19.27,92.4,3.42,42.29,3.42,42.29C349,586.7,346,572.57,346,572.57c-4.27-10.9-7.59-36-19-52.16s-11.38-35.08-13.27-51.2-1.43-14.71-1-29a209.43,209.43,0,0,0-1.43-32.17c-.94-9.49-2.84-26.19,0-34s10.28-9.56,18.41-1.8S341.22,412,341.22,416s0,16.26,2.85,21c0,0,16.12-8.25,16.12-10.52s-.47-22.4,1.9-23.48l-9.48-30.69,18-6.38a46.85,46.85,0,0,1,8.68,10.42C373.45,388,367.25,399.39,367.18,401Z"/><path class="cls-14" d="M397.41,544.56c.79-7.18,3.15-24.28,4.65-34.95-1.83,8.33-4.77,12.55-4.77,12.55s5.11-61.16,5.61-64.85,5.66-20.48,3.76-30.86c2.52,5.77,0,51.76,0,60.31s-5.51,48-5.37,54.57c.11,4.75,5.25,35.34,8.47,49C402.81,580.27,396.62,551.79,397.41,544.56Z"/><path class="cls-6" d="M417.39,624.15c-3.79-10.91-15.95-76.23-16.1-82.82s5.37-46,5.37-54.58,2.51-54.53,0-60.31-14.7-19.82-22.29-39.95a52.4,52.4,0,0,0-13.75-20.6l-18,6.4L362.09,403c-2.37,1.08-1.9,21.2-1.9,23.48S344.07,437,344.07,437c-2.85-4.75-2.85-17.07-2.85-21s-3.32-35.89-11.45-43.67-15.57-6-18.42,1.8-1,24.47,0,34a208.48,208.48,0,0,1,1.42,32.17c-.47,14.3-.94,12.88,1,29s1.9,35.08,13.28,51.21,14.7,41.25,19,52.15c0,0,8.06,58.22,7,67.7"/><path class="cls-6" d="M344.07,437s2.84,13.27,9.24,19.91"/><path class="cls-6" d="M345.8,443s12,3.67,17,3.9"/><path class="cls-6" d="M360.19,426.44s8.53-3.94,14-1.57"/><path class="cls-6" d="M362.09,403s6.63-.61,8.06-3.93"/><path class="cls-6" d="M329.19,523.8s12.75,15.82,16.54,23.88"/><path class="cls-6" d="M403.34,454.51c-2.14,12.56-5,46.94-5.93,53.1"/><path class="cls-6" d="M407.42,430.8c.35,11.38-2.42,17.31-2.42,17.31"/><path class="cls-11" d="M309.39,271.49l87.9,23.16S366.38,388.39,360.06,400l-10.47,81.71s-56.14-2.46-81.95-10.27c0,0,16.31-85.11,17.19-96.44S309.39,271.49,309.39,271.49Z"/><g class="cls-15"><path class="cls-10" d="M290.49,370l19.36-82.8s8.34-4.14,11.56-7.91l63,17.9s.19,6.17,3.79,10.13L356.4,398.85l-7.71,67.49s-10.25.83-11.23,8.41c0,0-33.22,1.8-55.5-4.08,0,0-2.63-8.19-6.64-13.36Z"/><path class="cls-6" d="M290.49,370l19.36-82.8s8.34-4.14,11.56-7.91l63,17.9s.19,6.17,3.79,10.13L356.4,398.85l-7.71,67.49s-10.25.83-11.23,8.41c0,0-33.22,1.8-55.5-4.08,0,0-2.63-8.19-6.64-13.36Z"/><path class="cls-1" d="M306.61,374.28s5.71-21.59,25.85-17.69S341.22,387,341.22,387s.13,21.46-16.22,18.5C310.84,403,303.29,395.19,306.61,374.28Z"/><path class="cls-6" d="M317.52,295.05s-6.09,24.66-7.67,29.4"/><line class="cls-6" x1="322.73" y1="297.18" x2="319.18" y2="310.7"/><polygon class="cls-1" points="367.18 306.67 379.3 310.93 377.97 314.73 374.18 314.73 366.12 312.83 367.18 306.67"/><polygon class="cls-1" points="365.17 314.73 374.18 317.57 376.07 319.47 374.18 324.45 363.75 320.89 365.17 314.73"/><polygon class="cls-1" points="363.75 323.26 374.18 326.13 372.71 329.9 367.18 329.9 362.09 327.77 363.75 323.26"/><polygon class="cls-1" points="362.09 329.9 370.15 333.22 370.15 335.59 368.13 337.49 360.63 335.35 360.63 331.32 362.09 329.9"/><path class="cls-1" d="M369,340.6c0,1.24,0,2.47,0,3.7a2.64,2.64,0,0,1-.74,2.25,2,2,0,0,1-1.94,0c-.61-.28-1.15-.72-1.78-1-1.87-.76-4.19.19-5.94-.81,0-2.29-.81-5.93,2-6C361,338.81,369,341.45,369,340.6Z"/><path class="cls-1" d="M365.63,349.85a18.1,18.1,0,0,1-.45,2.51c-.27,1.06-.78,2.25-1.84,2.53a3.38,3.38,0,0,1-1.72-.14L354.89,353a29.56,29.56,0,0,1,1.25-3.72c.9-1.33.59-1.31,2.19-1.41C360.86,347.74,363,350.17,365.63,349.85Z"/><polygon class="cls-1" points="342.88 298.84 338.85 314.73 340.87 315.68 345.73 300.03 342.88 298.84"/><polygon class="cls-1" points="292.27 405.5 304.71 408.72 303.71 412.61 299.93 412.93 291.74 411.73 292.27 405.5"/><polygon class="cls-1" points="290.96 413.7 300.18 415.77 302.23 417.5 300.76 422.62 290.07 419.97 290.96 413.7"/><polygon class="cls-1" points="290.27 422.33 300.91 424.3 299.77 428.18 294.26 428.65 289 426.96 290.27 422.33"/><polygon class="cls-1" points="289.19 429.09 297.5 431.7 297.7 434.06 295.86 436.13 288.2 434.64 287.85 430.63 289.19 429.09"/><path class="cls-1" d="M296.94,439.16c.11,1.23.22,2.46.32,3.69a2.6,2.6,0,0,1-.54,2.3,2,2,0,0,1-1.93.16c-.63-.22-1.21-.61-1.85-.81-1.94-.59-4.16.55-6-.3-.21-2.28-1.31-5.83,1.5-6.11C288.87,438.05,297,440,296.94,439.16Z"/><path class="cls-1" d="M294.43,448.66a17.9,17.9,0,0,1-.24,2.53c-.18,1.09-.59,2.31-1.62,2.69a3.45,3.45,0,0,1-1.72,0L284,452.75a30.69,30.69,0,0,1,.93-3.82c.78-1.4.47-1.35,2.06-1.59C289.49,447,291.81,449.2,294.43,448.66Z"/><path class="cls-6" d="M344.07,460.29s2.84-31.85,2.84-35"/><path class="cls-6" d="M338.38,458.87s1.18-16.55,1.42-19.42"/><polygon class="cls-1" points="316.14 446.92 312.3 465.74 316.14 465.74 318.94 446.92 316.14 446.92"/><path class="cls-10" d="M360.31,399.55c-8.31-1.74-15.73-4.29-21.22-8,0,0,4,11.43,18.08,30.92l-7.58,59.23s-36.64-1.6-64.33-6.34c8.51-24,23.95-69.39,22.14-78.39-2.48-12.36,6.28-26.95,6.28-26.95,27.7-5,54.56-25.92,73-43.62C377.29,354.21,364.47,391.35,360.31,399.55Z"/></g><path class="cls-6" d="M309.39,271.49l87.9,23.16S366.38,388.39,360.06,400l-10.47,81.71s-56.14-2.46-81.95-10.27c0,0,16.31-85.11,17.19-96.44S309.39,271.49,309.39,271.49Z"/><path class="cls-13" d="M358.11,458.08l-12.38,89.6c-2.76-5.86-10.27-15.86-14.16-20.86-1.43-1.87-2.38-3-2.38-3L327,520.41c-11.38-16.12-11.38-35.08-13.27-51.2s-1.43-14.71-1-29a209.43,209.43,0,0,0-1.43-32.17c-.94-9.49-2.84-26.19,0-34,1.39-3.81,3.9-6.18,7-6.69s7.23.94,11.37,4.89c8.14,7.78,11.46,39.74,11.46,43.68s0,16.26,2.85,21C344.07,437,351.71,451.44,358.11,458.08Z"/><path class="cls-14" d="M326.05,514c2.59,3.31,4.35,8.08,5.52,12.8-1.43-1.87-2.38-3-2.38-3L327,520.41c-11.38-16.12-11.38-35.08-13.27-51.2s-1.43-14.71-1-29a209.43,209.43,0,0,0-1.43-32.17c-.94-9.49-2.84-26.19,0-34,1.39-3.81,3.9-6.18,7-6.69,6,1.71,12,7.81,14.07,18.25,3.55,17.52-12.62,3.36-16.37,18.21s1.7,18.86,3.94,22.6-.62,12-3.94,23.06S318.94,504.93,326.05,514Z"/><path class="cls-6" d="M358.11,458.08c-6.4-6.64-14-21.11-14-21.11-2.85-4.75-2.85-17.07-2.85-21s-3.32-35.89-11.45-43.67-15.57-6-18.42,1.8-1,24.47,0,34a208.48,208.48,0,0,1,1.42,32.17c-.47,14.3-.94,12.88,1,29s1.9,35.08,13.28,51.21l2.19,3.38s12.75,15.82,16.54,23.88"/><path class="cls-6" d="M316.15,420.16S327,414.54,332.46,415"/><path class="cls-10" d="M174,189s-27.5-30.27-29.4-32.17-3.32-34.14-8.53-48.36-7.77-97.68-7.77-97.68-5-6.16-19-2.84S81.56,5.09,65.91,14.1s14.7,138,14.7,138l30.79,98.13Z"/><path class="cls-13" d="M192.9,189.21s-12.32,78.71-25.13,89.14c-7.42,6-19,8.75-29.25,8.37-7.43-.26-14.19-2.13-18.17-5.52-9.48-8.07-22.76-12.33-29.38-17.55S84.33,240,80.06,224.29s-10.44-16.12-11.85-31.76S61.09,129,50.78,115.72,40.23,92,36,78.49.5,16.08.5,16.08L76.58.5s7.48,31,15.49,56.21c3.8,12,7.72,22.7,11,28.19a236.47,236.47,0,0,1,16.34,33.19c8.6,9,13.31,29,14.74,46.47h0l20.35,11.36C170.14,180.2,192.9,189.21,192.9,189.21Z"/><path class="cls-14" d="M192.9,189.21s-12.32,78.71-25.13,89.14c-7.42,6-19,8.75-29.25,8.37-24.33-6-30.87-19.56-34.17-22.84-4.38-4.37-10.15-31-7-46.54s.88-21.25-1.73-28.82c-5.78-16.79,11.87-25.82,13.69-32.17s1.17-41.88-6.75-53.44c-4.22-6.14-15.1-37.84-10.51-46.2,3.8,12,7.72,22.7,11,28.19a236.47,236.47,0,0,1,16.34,33.19c8.6,9,13.31,29,14.74,46.47h0l20.35,11.36C170.14,180.2,192.9,189.21,192.9,189.21Z"/><path class="cls-6" d="M100,183.69s-4.29,5.05-8.08,5.05"/><path class="cls-6" d="M109.33,200.74s-4.62,9.81-12,11.94"/><path class="cls-6" d="M101.16,258.2s10.43-4.51,12.09-12.09"/><path class="cls-6" d="M154.5,175.93s-2.61,3.32-2.61,5.93"/><path class="cls-6" d="M76.58.5s16.28,67.32,26.49,84.4a236.47,236.47,0,0,1,16.34,33.19c8.6,9,13.31,29,14.74,46.48h0l20.35,11.36c15.64,4.27,38.4,13.28,38.4,13.28s-12.32,78.71-25.13,89.14-37.92,10.9-47.42,2.85S97.59,268.87,91,263.65,84.33,240,80.06,224.29s-10.44-16.12-11.85-31.76S61.09,129,50.78,115.72,40.23,92,36,78.49.5,16.08.5,16.08"/><polygon class="cls-16" points="221.73 184.11 95.89 377.81 125.6 381.12 215.83 384.87 225.07 212.58 221.73 184.11"/><polygon class="cls-17" points="221.73 184.1 210.1 381.56 95.89 377.81 104.91 226.51 107.71 179.53 157.47 181.53 221.73 184.1"/><g class="cls-18"><path class="cls-19" d="M101.16,376.07a79.68,79.68,0,0,1,19.28-2.59c11.69-.29,19.15,1.93,28.76-2.82s15.81,3.8,25-.94,13.43-12.36,18.72-12.19,13.2-84.73,15.73-99.33,7.94-55.34,9.8-63.6L208,378.65Z"/><path class="cls-19" d="M172.36,258.2l4.38-4.83s-2.72-1.84-4.38,0S172.36,258.2,172.36,258.2Z"/><path class="cls-10" d="M151.18,254.39c-17,8.17-35.4-20.46-41.85-24.4a26.83,26.83,0,0,1-4.42-3.48l2.8-47,49.76,2c-.32,7-.21,14.73,1.35,19.21C162.16,210.4,168.16,246.23,151.18,254.39Z"/><path class="cls-19" d="M171.17,216.33c-2.09-3.73.48,29.78.48,29.78S175.44,223.91,171.17,216.33Z"/></g><polygon class="cls-6" points="221.73 184.1 210.1 381.56 95.89 377.81 104.91 226.51 107.71 179.53 157.47 181.53 221.73 184.1"/><polygon class="cls-19" points="215.96 382.61 211.79 381.56 221.73 200.74 223.49 212.68 215.96 382.61"/><path class="cls-13" d="M148.9,206.18a28.72,28.72,0,0,1,.72-4.06,3.58,3.58,0,0,1,.19-.55c.28-.66.52-1.33.84-2s.85-1.45,1.3-2.17c.18-.28.39-.55.6-.82s.67-.84,1-1.22a14.34,14.34,0,0,1,2.77-2.44c.59-.37,1.14-.81,1.76-1.12a9.66,9.66,0,0,1,2.29-1,1.16,1.16,0,0,0,.37-.13,4.87,4.87,0,0,1,1.9-.57,1,1,0,0,0,.24,0,10.24,10.24,0,0,1,3.65-.45,23.15,23.15,0,0,1,5.44.67,2.94,2.94,0,0,1,.66.19,16.13,16.13,0,0,1,2.45,1,15.3,15.3,0,0,1,2.31,1.43c.44.38.93.7,1.37,1.08a16.8,16.8,0,0,1,3.2,3.64c.41.62.7,1.32,1.1,2s.64,1.73,1.1,2.53a.9.9,0,0,1,.08.23,22.05,22.05,0,0,1,.72,5.43,30.57,30.57,0,0,1-.73,5.15,4.23,4.23,0,0,1-.27.78c-.27.68-.52,1.37-.85,2a19,19,0,0,1-1.27,2.13c-.42.61-.92,1.17-1.39,1.74a14.33,14.33,0,0,1-3.05,2.77,19,19,0,0,1-1.81,1.15,9.72,9.72,0,0,1-2.25,1,.9.9,0,0,0-.23.08,6,6,0,0,1-2.23.64,1.58,1.58,0,0,0-.37.11,5.34,5.34,0,0,1-1.77.33,30.29,30.29,0,0,1-3.16,0c-1.35-.14-2.69-.41-4-.66a5.2,5.2,0,0,1-1-.36l-1.53-.64-.18-.07c-.73-.43-1.47-.82-2.17-1.29a20.36,20.36,0,0,1-1.7-1.37,13.35,13.35,0,0,1-2.83-3.12c-.36-.58-.81-1.11-1.11-1.72a10,10,0,0,1-1-2.34,1.78,1.78,0,0,0-.19-.5,3.46,3.46,0,0,1-.45-1.47,2.21,2.21,0,0,0-.11-.58,9.15,9.15,0,0,1-.42-3.41C148.85,207.48,148.88,206.81,148.9,206.18Zm9.63,3.68a7,7,0,0,0,.36,2.5,1.35,1.35,0,0,0,.24.42,3.8,3.8,0,0,0,1.53,1.39,2.14,2.14,0,0,1,.38.23,3.3,3.3,0,0,0,4.34-.5c.43-.46.74-.41,1.05.16a.75.75,0,0,1,.07.12,2.65,2.65,0,0,0,1.66,1.41l.42.14a3.18,3.18,0,0,0,3.61-1.08,6.23,6.23,0,0,0,1.14-1.68.65.65,0,0,1,.8-.42c.48.1,1,.25,1.45.38.15,0,.29.14.45.18a1.09,1.09,0,0,0,1.29-.9c.15-.54,0-.86-.69-1.07-.37-.12-.76-.2-1.12-.34a2.12,2.12,0,0,1-.66-.4.7.7,0,0,1-.14-.85.67.67,0,0,1,.71-.41c.38.06.76.16,1.14.25a7.79,7.79,0,0,0,.8.2,1.2,1.2,0,0,0,1.25-.92.65.65,0,0,0-.38-.8c-.21-.1-.43-.16-.64-.25-.46-.2-.94-.37-1.38-.61a.85.85,0,0,1-.35-1.25l.16-.3a4.53,4.53,0,0,0,.61-1.88,1.09,1.09,0,0,0-2.07-.57c-.1.18-.18.37-.28.56a1.21,1.21,0,0,1-1.75.7c-.56-.2-1.14-.37-1.71-.56l-1.28-.46a9.83,9.83,0,0,0-1.37-.51,35.86,35.86,0,0,1-3.48-1.22c-.52-.16-.66-.43-.6-1,0-.31.12-.61.17-.91a.75.75,0,0,0-.34-.8c-.23-.15-.47-.3-.71-.43a.8.8,0,0,0-1.28.45c-.14.37-.22.75-.33,1.12a7.91,7.91,0,0,1-.33,1,.9.9,0,0,1-1.14.58c-.23-.06-.45-.2-.68-.27a6.65,6.65,0,0,0-1.17-.28,1,1,0,0,0-.48,1.89l.45.18c.45.18.91.35,1.35.55a.74.74,0,0,1,.51.66.77.77,0,0,1-.49.68,1,1,0,0,1-.56.12,2.7,2.7,0,0,1-.82-.26,3,3,0,0,0-1.24-.39.8.8,0,0,0-.87.62,1.09,1.09,0,0,0,.74,1.51c.41.15.84.25,1.26.38a1,1,0,0,1,.78,1.28c0,.18-.09.35-.13.52C158.7,209.1,158.61,209.48,158.53,209.86Z"/><path class="cls-13" d="M146.47,233c.2-1.22.39-2.54.64-3.84a19.88,19.88,0,0,1,.6-1.95c.17-.51.37-1,.55-1.51a4.32,4.32,0,0,1,.19-.45,1.24,1.24,0,0,1,1.64-.62c.46.16.93.3,1.39.45l1.38.45,2.36.77a7.14,7.14,0,0,1,.92.32,13,13,0,0,0,2.58.85,2.54,2.54,0,0,1,.47.14c1.12.49,2.3.79,3.45,1.17s2.22.83,3.37,1.11c.39.1.75.3,1.14.43s1,.35,1.57.52l1.7.57,1.75.59,2,.67c.6.19,1.21.37,1.81.57a8.89,8.89,0,0,1,1.2.4,13.49,13.49,0,0,0,2.35.78,7.11,7.11,0,0,1,1.1.37,1.24,1.24,0,0,1,.84,1.25,27.75,27.75,0,0,0,.28,3.64c.05.42.06.84.08,1.26a2.82,2.82,0,0,1,0,.58.55.55,0,0,1-.7.5,1.48,1.48,0,0,1-.5-.17,7.77,7.77,0,0,0-2-.75c-.51-.14-1-.32-1.53-.48l-2.07-.71-1.6-.55c-.51-.18-1-.38-1.51-.54a1.93,1.93,0,0,0-.63-.1c-.49,0-.66.22-.59.71s.16,1,.18,1.49a13.22,13.22,0,0,1-.38,3.43,2.64,2.64,0,0,1-.2.6,8.57,8.57,0,0,1-2.43,3.11c-.57.42-1.21.68-1.8,1.06a.48.48,0,0,1-.18.07,12.59,12.59,0,0,1-4.35.65c-1.13-.13-2.26-.23-3.38-.39a6.12,6.12,0,0,1-1.31-.38c-.64-.23-1.27-.5-1.9-.75l0,0a21.85,21.85,0,0,1-2.34-1.47c-.49-.4-1-.8-1.45-1.21a14.22,14.22,0,0,1-2.73-3.4c-.43-.7-.66-1.48-1.08-2.18a.73.73,0,0,1-.09-.22,14.9,14.9,0,0,1-.76-4.19C146.47,234.82,146.45,234,146.47,233Zm14,10c.58,0,1.15,0,1.72.06a4,4,0,0,0,2.2-.8.51.51,0,0,0,.21-.2,4.22,4.22,0,0,0,.77-1.76,8.78,8.78,0,0,0-.36-3,1.39,1.39,0,0,0-.88-.93c-.88-.36-1.78-.69-2.68-1-.65-.23-1.32-.43-2-.65-.51-.17-1-.36-1.52-.52s-1.26-.42-1.89-.62l-2.73-.87a2.17,2.17,0,0,0-.43-.08.71.71,0,0,0-.79.44,1.86,1.86,0,0,0-.15.56,7.67,7.67,0,0,0,.9,4.73,10.34,10.34,0,0,0,3,3.13,1.83,1.83,0,0,0,.34.18c.39.19.77.41,1.18.57a8.17,8.17,0,0,0,1.41.5C159.36,242.89,159.93,242.93,160.48,243Z"/><path class="cls-13" d="M139.65,310.07c.17-.92.32-1.92.55-2.9a7.41,7.41,0,0,1,.52-1.24c.08-.17.19-.31.27-.47a7.61,7.61,0,0,1,2.62-2.73,18.25,18.25,0,0,1,2.48-1.11,1.86,1.86,0,0,1,.52-.11,15.71,15.71,0,0,1,5.8.23c.57.15,1.14.27,1.71.4a5.27,5.27,0,0,1,1.7.7,1.4,1.4,0,0,0,.17.09,11.35,11.35,0,0,1,2.53,1.34A9.34,9.34,0,0,1,160,305.4a17.93,17.93,0,0,1,1.43,1.46,17.14,17.14,0,0,1,1.8,2.7c.46.8.6,1.71,1,2.52a1.75,1.75,0,0,1,.13.61,15.8,15.8,0,0,1-.38,5.89,8.24,8.24,0,0,1-.93,2.18,7.38,7.38,0,0,1-1.78,2,8.74,8.74,0,0,1-2.22,1.28,10.09,10.09,0,0,1-2.54.59,12.61,12.61,0,0,1-4.54-.25l-2.69-.67a3.66,3.66,0,0,1-.68-.25c-.58-.27-1.16-.51-1.7-.83-.71-.42-1.38-.91-2.06-1.38-.14-.1-.27-.23-.42-.33a10,10,0,0,1-2.67-2.86c-.44-.69-.83-1.42-1.24-2.14a.75.75,0,0,1-.08-.18,11.83,11.83,0,0,1-.78-3.58C139.69,311.51,139.65,310.83,139.65,310.07Zm10.91-2a13.13,13.13,0,0,0-3.07.25,3.08,3.08,0,0,0-1,.43,2.73,2.73,0,0,0-1.17,1.9,4.37,4.37,0,0,0,.49,2.88,6.47,6.47,0,0,0,2.78,2.7,1.07,1.07,0,0,1,.25.16,4.38,4.38,0,0,0,1.71.79c.36.1.72.2,1.07.32a8.8,8.8,0,0,0,5.23.1,2.05,2.05,0,0,0,.8-.42,3.09,3.09,0,0,0,1.1-2,4.51,4.51,0,0,0-.63-2.9,6.43,6.43,0,0,0-2.73-2.56,1.38,1.38,0,0,1-.29-.17,4.46,4.46,0,0,0-1.9-.84l-1.13-.32C151.6,308.34,151.08,308.23,150.56,308.11Z"/><path class="cls-13" d="M136.42,352.63c.07-.78.14-1.55.2-2.33s.34-.94,1.06-.82a4.26,4.26,0,0,1,.69.22l2,.69,1.62.53,1.94.65,1.7.58c.5.17,1,.35,1.52.51s1.24.38,1.84.61a12,12,0,0,0,4.13.82,2.13,2.13,0,0,0,2-1.29,5.13,5.13,0,0,0,.43-3.18,1.47,1.47,0,0,0-1.29-1.38,11.43,11.43,0,0,1-2.36-.77,12.35,12.35,0,0,0-1.34-.44,7.66,7.66,0,0,1-.94-.25,32.71,32.71,0,0,0-3.73-1.26c-.77-.23-1.52-.54-2.29-.81l-2.07-.71c-.5-.17-1-.32-1.53-.48s-1.06-.31-1.56-.53a2.57,2.57,0,0,1-.74-.53.88.88,0,0,1-.29-.8c.14-1.55.28-3.1.43-4.65a1.93,1.93,0,0,1,.13-.47.58.58,0,0,1,.62-.37,3.07,3.07,0,0,1,.67.14c.17.05.32.14.49.2,1.54.5,3.09,1,4.63,1.49s2.78,1,4.19,1.41c1,.31,1.93.66,2.9,1l4,1.35c1,.34,1.94.72,2.95,1a4,4,0,0,1,1.49.69,1.82,1.82,0,0,1,.76,1.41,10.65,10.65,0,0,0,.35,2.25,4.55,4.55,0,0,1,.14,1.16c0,1.38,0,2.76-.07,4.14a19,19,0,0,1-.53,3.6,7,7,0,0,1-.51,1.31c-.07.18-.2.34-.28.51a5.72,5.72,0,0,1-2.34,2.41,2.18,2.18,0,0,1-.54.22c-.3.11-.59.25-.9.34a4.77,4.77,0,0,1-1,.25,15.77,15.77,0,0,1-4.49-.35,12,12,0,0,1-2.56-.79c-.41-.18-.87-.26-1.3-.4l-1.83-.63-1.76-.57c-.51-.16-1-.34-1.52-.51s-1.25-.46-1.89-.62a18.8,18.8,0,0,1-2.74-1c-.58-.24-.7-.52-.65-1.15s.14-1.55.21-2.33Z"/><path class="cls-13" d="M161.72,276.77c.08-.94.17-1.88.24-2.81.06-.69-.13-.93-.78-1.14s-1.28-.47-1.93-.68-1.09-.32-1.63-.49l-1.24-.42c-.69-.23-1.38-.48-2.07-.7s-1.33-.33-2-.55a3.11,3.11,0,0,0-2.41.25,1.64,1.64,0,0,0-.58.56,4.58,4.58,0,0,0-.66,2.8l.21,2.23a1.23,1.23,0,0,1,0,.19c.06.72-.2,1-.92,1.08-1.12.06-2.24.09-3.36.11a.76.76,0,0,1-.87-.68,13.78,13.78,0,0,1-.54-5.19c.15-1.16.27-2.32.42-3.48a3.64,3.64,0,0,1,.64-1.71,1.61,1.61,0,0,0,.2-.33,5.24,5.24,0,0,1,2.07-2.13,6.09,6.09,0,0,1,2.75-.69,9.46,9.46,0,0,1,3.47.33c.66.16,1.33.3,2,.47s1.15.36,1.72.54l1.84.62,1.75.59,1.9.61,1.47.49a14.42,14.42,0,0,0,1.52.53,17.48,17.48,0,0,1,2.44.82c.4.17.83.27,1.25.41l1.85.6,1.65.55c.3.1.6.17.89.26A1.27,1.27,0,0,1,174,271c0,.41,0,.82,0,1.22.08,1,.19,2.07.28,3.1a7,7,0,0,1,0,1c0,.66-.46.91-1,.58a8.57,8.57,0,0,0-1.69-.62c-.54-.16-1.07-.35-1.61-.55-.38-.14-.74-.31-1.13-.44a2.47,2.47,0,0,0-.71-.13.69.69,0,0,0-.76.61c0,.24,0,.49-.06.73-.12,1.49-.23,3-.35,4.46a2.82,2.82,0,0,1-.16.71.6.6,0,0,1-.72.44,1,1,0,0,1-.24,0,30.13,30.13,0,0,1-3.68-1.26c-.7-.35-.86-.61-.77-1.38s.17-1.81.25-2.71Z"/><path class="cls-13" d="M166.13,296.74a22.1,22.1,0,0,1-.68,3.64,4.79,4.79,0,0,1-.37.95c-.16.35-.36.69-.54,1a.71.71,0,0,1-1.16.3,5.82,5.82,0,0,0-1.47-.84c-.16-.08-.31-.19-.46-.28l-1.06-.59c-.12-.07-.26-.12-.39-.19a.89.89,0,0,1-.5-1,8,8,0,0,1,.43-1.39,6.77,6.77,0,0,0,.38-4.52.89.89,0,0,1,0-.14,5.91,5.91,0,0,0-1.76-3.23,11.37,11.37,0,0,0-2.25-1.6,2.75,2.75,0,0,0-.82-.29c-.78-.17-1.55-.34-2.34-.48a7.12,7.12,0,0,0-3.28.11,3.26,3.26,0,0,0-2.34,2,7.83,7.83,0,0,0-.44,4.25c.1.56.15,1.13.2,1.69s-.15.86-.74.91a8.42,8.42,0,0,1-.87,0L143,297a.91.91,0,0,1-1.05-.84,2.31,2.31,0,0,0-.12-.52,7.22,7.22,0,0,1-.45-2.91,24.12,24.12,0,0,1,.59-5.36,3.31,3.31,0,0,1,.65-1.5.67.67,0,0,0,.13-.21,5.88,5.88,0,0,1,1.3-1.92,10.33,10.33,0,0,1,1.3-1.17,9.72,9.72,0,0,1,2.64-1.31,1.09,1.09,0,0,1,.24-.07,14.23,14.23,0,0,1,7.07.21c.49.17,1,.3,1.5.43a4.56,4.56,0,0,1,1.55.67,1.2,1.2,0,0,0,.21.13,7.76,7.76,0,0,1,2.17,1.28,16,16,0,0,1,1.66,1.41,13.46,13.46,0,0,1,1.38,1.64,18.1,18.1,0,0,1,1.18,2,27.39,27.39,0,0,1,1,2.88,2.44,2.44,0,0,1,.16.71A21.45,21.45,0,0,1,166.13,296.74Z"/><path class="cls-13" d="M138.66,327.46c.05-.6.1-1.2.16-1.8a3.31,3.31,0,0,1,.06-.53c.11-.69.48-.95,1.14-.71a33.85,33.85,0,0,1,3.68,1.24,10,10,0,0,0,1.35.4l1.48.48,2.17.73,1.65.58,1.53.5,2,.67c.57.19,1.15.36,1.72.54l1.52.51c.66.22,1.33.43,2,.66.92.33,1.84.65,2.73,1,.56.23.68.53.62,1.13l-.42,4.66a1.94,1.94,0,0,1,0,.24c-.08.44-.3.64-.74.59a3.19,3.19,0,0,1-1-.26,12,12,0,0,0-1.93-.68c-.6-.17-1.2-.4-1.79-.6l-1.43-.48c-.69-.24-1.38-.47-2.08-.69l-1.9-.61c-.44-.14-.88-.31-1.33-.46l-1.94-.65-1.42-.47-2.08-.7-1.29-.43-2.12-.71c-.49-.16-1-.31-1.47-.5a1.93,1.93,0,0,1-.57-.37,1.15,1.15,0,0,1-.42-1.08c.08-.74.13-1.49.2-2.23Z"/><path class="cls-13" d="M145.29,252.5c.07-.74.14-1.49.2-2.23s.31-.94,1-.85a4,4,0,0,1,1.12.31,15.46,15.46,0,0,0,2.81.94,3.8,3.8,0,0,1,.78.27,16.3,16.3,0,0,0,2.58.87,11.31,11.31,0,0,1,1.24.42l1.79.61,1.84.62.5.2,4.91,1.57,1.47.5c.66.22,1.31.47,2,.65,1.32.35,1.62.75,1.49,2.11s-.21,2.46-.33,3.69a3.2,3.2,0,0,1-.15.76.59.59,0,0,1-.64.42,3.69,3.69,0,0,1-.58-.09,13.24,13.24,0,0,1-2.45-.8c-.44-.2-.92-.31-1.38-.47l-2.11-.71-1.53-.49a15,15,0,0,1-1.52-.5,13.14,13.14,0,0,0-2.17-.72c-.42-.11-.83-.27-1.25-.41l-2.21-.75-1.37-.47c-.52-.19-1-.38-1.56-.55l-2.12-.71-1.57-.52c-.8-.25-1-.56-1-1.39s.13-1.52.2-2.28Z"/><path class="cls-13" d="M175.74,266.54a8.4,8.4,0,0,1-1-.19,3.25,3.25,0,0,1-.81-.41,8.34,8.34,0,0,1-1-.8,4.91,4.91,0,0,1-1.28-2.42,3.25,3.25,0,0,1,.39-2.62c.09-.15.2-.3.28-.46a2.9,2.9,0,0,1,2.76-1.55,3,3,0,0,1,1.27.26,4.89,4.89,0,0,1,2.41,2,3.86,3.86,0,0,1,.47,1.06,4.55,4.55,0,0,1,.25,1.72,4.68,4.68,0,0,1-.79,2.22,2.58,2.58,0,0,1-2.33,1.25l-.63-.05Z"/><path class="cls-13" d="M168.69,333.11l1.2.26a2.35,2.35,0,0,1,1,.56,6.26,6.26,0,0,1,1.29,1.38,3.07,3.07,0,0,1,.27.46,4.69,4.69,0,0,1-.38,4.46,2.72,2.72,0,0,1-1.32,1,3.1,3.1,0,0,1-1.85.23c-.38-.09-.73-.27-1.1-.38a4.63,4.63,0,0,1-2-1.53l0,0a4.53,4.53,0,0,1-.63-4.07,4.06,4.06,0,0,1,1.64-2.06,1.83,1.83,0,0,1,.72-.26C167.92,333.11,168.31,333.13,168.69,333.11Z"/><path class="cls-13" d="M161.63,208.12c.16-.78.29-1.57.48-2.34s.63-1.05,1.44-.89a2.76,2.76,0,0,1,.55.19l1.9.77a2.72,2.72,0,0,1,.35.16.62.62,0,0,1,.26.88,14,14,0,0,0-.76,1.84,4.59,4.59,0,0,1-1.4,1.78,1.72,1.72,0,0,1-2.22-.21,2,2,0,0,1-.6-1.54l0-.63Z"/><path class="cls-13" d="M168.11,209.2c.1-.36.27-1,.48-1.73a.67.67,0,0,1,.84-.49,7.92,7.92,0,0,1,2.69,1.1.71.71,0,0,1,.25,1c-.22.47-.43.94-.64,1.41a3.1,3.1,0,0,1-1.52,1.45,1.39,1.39,0,0,1-1.62-.46A2.7,2.7,0,0,1,168.11,209.2Z"/><path class="cls-13" d="M151.18,254.39a11.2,11.2,0,0,1-10.23.15c-2.28-1.09-4.44-3.06-6.37-6.54-4.73-8.53-17.55-28-19.91-33.62s-7.58-21.38-12.8-28-8.06-16.6-8.06-16.6l-1.9-96.72c2.84,14,10.67,29.87,10.67,29.87a44.84,44.84,0,0,1,16.83,15.17,28.31,28.31,0,0,1,3.27,4.23c7.74,12,11.49,33.55,11.9,50.29.48,19,6.64,27.51,16.6,44.1S157.65,250.7,151.18,254.39Z"/><path class="cls-14" d="M151.18,254.39a11.49,11.49,0,0,1-10.23.15c5.44-1.48,12.58-4.28,10.94-8.43-2.58-6.57-10.12,3.17-13.91,0s-17.54-21.4-8.8-29.42,5.95-21.46,0-25.25-2.1-12.81-.21-27c1.15-8.59-2.91-28-6.29-42.1,7.74,12,11.49,33.55,11.9,50.29.48,19,6.64,27.51,16.6,44.1S157.65,250.94,151.18,254.39Z"/><path class="cls-6" d="M91.91,73c2.85,14,10.67,29.87,10.67,29.87a44.81,44.81,0,0,1,16.83,15.18c10,10.43,14.7,35.56,15.17,54.52s6.64,27.5,16.6,44.1,7.19,33.76,0,37.68c-5,2.74-11.85,2.15-16.6-6.39S117,220,114.67,214.38s-7.59-21.38-12.8-28-8.06-16.59-8.06-16.59"/><path class="cls-6" d="M122.68,212.68s7.74-.69,11.29-3.62"/><path class="cls-6" d="M91,171.73s-1.5,3.65,6.4,7.17"/></g></g></svg>