<svg xmlns="http://www.w3.org/2000/svg" viewBox="0 0 248.2 239.22"><defs><style>.cls-1{fill:#ffcb97;}.cls-2{fill:#5e5e5e;}.cls-3{fill:#fff;}.cls-4{fill:#fff6ee;}.cls-5{fill:#b5b5b5;}.cls-6{font-size:8.38px;}.cls-6,.cls-9{fill:#191817;font-family:MyriadPro-Regular, Myriad Pro;}.cls-7{letter-spacing:-0.01em;}.cls-8{letter-spacing:0em;}.cls-9{opacity:0.29;font-size:4px;}.cls-10{fill:#3e5bd6;}.cls-11{fill:#b5e29a;}.cls-12{opacity:0.57;}</style></defs><title>step 1</title><g id="Layer_2" data-name="Layer 2"><g id="Layer_1-2" data-name="Layer 1"><path class="cls-1" d="M248.2,131.93a124,124,0,0,1-61.7,107.29H61.7A124.11,124.11,0,1,1,248.2,131.93Z"/><path class="cls-2" d="M224.49,24.54V239.22H23.91V24.54A24.62,24.62,0,0,1,48.46,0H199.94A24.62,24.62,0,0,1,224.49,24.54Z"/><path class="cls-3" d="M216.65,27.63V239.22H31.75V27.63A19.87,19.87,0,0,1,51.55,7.82h145.3A19.87,19.87,0,0,1,216.65,27.63Z"/><rect class="cls-4" x="31.75" y="43.94" width="184.9" height="195.28"/><rect class="cls-2" x="70.87" y="3.45" width="106.97" height="17.86" rx="6.28"/><circle class="cls-5" cx="61.64" cy="32.2" r="7.32"/><text class="cls-6" transform="translate(75.22 34.97)">Bi<tspan class="cls-7" x="6.51" y="0">t</tspan><tspan class="cls-8" x="9.23" y="0">oshi</tspan></text><text class="cls-9" transform="translate(75.4 40.27)">online</text><path class="cls-10" d="M185.37,30.12a.68.68,0,0,0-.67,0l-.41.24-.52.31v-1a1.36,1.36,0,0,0-1.47-1.46c-1.14,0-2.29,0-3.44,0h-2.42A1.4,1.4,0,0,0,175,29.72v5.09a1.39,1.39,0,0,0,1.47,1.48h5.82a1.37,1.37,0,0,0,1.51-1.52v-1l.47.28c.17.09.32.2.48.27a.64.64,0,0,0,.65,0,.62.62,0,0,0,.3-.56c0-1.06,0-2.09,0-3.13A.65.65,0,0,0,185.37,30.12Zm-2.05,4.69a.93.93,0,0,1-1,1h-5.8a1,1,0,0,1-1.07-1.06V29.73a.94.94,0,0,1,1.05-1h5.83a.93.93,0,0,1,1,1Zm1.88-.68L185,34l-.28-.17c-.23-.14-.45-.26-.67-.42a.64.64,0,0,1-.23-.46,10.27,10.27,0,0,1,0-1.36.61.61,0,0,1,.26-.47,5.27,5.27,0,0,1,.64-.4l.28-.16.23-.15Z"/><path class="cls-10" d="M202.3,36.33a3.09,3.09,0,0,1-1.17-.39,10.38,10.38,0,0,1-2.22-1.68,14.81,14.81,0,0,1-2.16-2.45,4.2,4.2,0,0,1-.72-1.63,1.16,1.16,0,0,1,.35-1.12c.2-.19.39-.4.6-.6a.79.79,0,0,1,1.22.08c.29.35.56.7.83,1.06a.8.8,0,0,1,0,1l-.13.17a.51.51,0,0,0,0,.78L200.41,33l.37.37a.52.52,0,0,0,.79.05,1,1,0,0,1,.61-.3.83.83,0,0,1,.57.16l1.08.84a.8.8,0,0,1,.07,1.22c-.2.2-.41.39-.6.6A1.19,1.19,0,0,1,202.3,36.33Zm.24-.29a1.05,1.05,0,0,0,.41-.17,7.81,7.81,0,0,0,.77-.75.48.48,0,0,0-.05-.7c-.37-.3-.75-.59-1.13-.88a.51.51,0,0,0-.6,0c-.09.06-.17.14-.25.2a.82.82,0,0,1-1.07-.07l-1.94-1.95a.81.81,0,0,1-.24-.61,1.07,1.07,0,0,1,.33-.65.52.52,0,0,0,0-.72l-.77-1a.52.52,0,0,0-.85-.05l-.59.59a.87.87,0,0,0-.24.78,3.58,3.58,0,0,0,.58,1.41,12.57,12.57,0,0,0,1.78,2.13,11.53,11.53,0,0,0,2.44,2A3.13,3.13,0,0,0,202.54,36Z"/><rect class="cls-11" x="83.62" y="84" width="160.32" height="16.71" rx="4.1"/><path d="M87.87,89.89v2.16h2.5V89.89H91v5.16h-.67V92.63h-2.5v2.42H87.2V89.89Z"/><path d="M92.55,93.32a1.18,1.18,0,0,0,1.27,1.29,2.62,2.62,0,0,0,1-.19l.11.48a3,3,0,0,1-1.23.23,1.73,1.73,0,0,1-1.83-1.87,1.8,1.8,0,0,1,1.74-2A1.58,1.58,0,0,1,95.18,93a2,2,0,0,1,0,.31Zm2-.48a1,1,0,0,0-.93-1.1,1.11,1.11,0,0,0-1,1.1Z"/><path d="M96,89.61h.67v5.44H96Z"/><path d="M97.81,89.61h.68v5.44h-.68Z"/><path d="M103,93.17a1.81,1.81,0,0,1-1.84,2,1.77,1.77,0,0,1-1.78-1.91,1.81,1.81,0,0,1,1.84-2A1.75,1.75,0,0,1,103,93.17Zm-2.94,0c0,.81.47,1.42,1.13,1.42s1.13-.6,1.13-1.44c0-.63-.32-1.42-1.11-1.42S100,92.5,100,93.21Z"/><path d="M103.48,94.65a.45.45,0,0,1,.46-.48.44.44,0,0,1,.45.48.46.46,0,1,1-.91,0Z"/><path d="M107.54,89.89v5.16h-.67V89.89Z"/><path d="M110.57,91.34l.49,1.89c.1.41.2.8.27,1.18h0c.09-.38.21-.78.33-1.17l.61-1.9h.57l.57,1.86a12.44,12.44,0,0,1,.33,1.21h0a9,9,0,0,1,.29-1.2l.53-1.87h.66l-1.19,3.71h-.62l-.56-1.77a11.47,11.47,0,0,1-.33-1.22h0a8.83,8.83,0,0,1-.34,1.23l-.59,1.76H111l-1.11-3.71Z"/><path d="M116.68,90.3a.4.4,0,0,1-.43.42.41.41,0,0,1-.4-.42.41.41,0,0,1,.42-.42A.4.4,0,0,1,116.68,90.3Zm-.75,4.75V91.34h.68v3.71Z"/><path d="M117.72,89.61h.68v5.44h-.68Z"/><path d="M119.53,89.61h.67v5.44h-.67Z"/><path d="M123,89.61h.67v5.44H123Z"/><path d="M125.52,90.3a.41.41,0,0,1-.43.42.41.41,0,0,1-.41-.42.42.42,0,0,1,.42-.42A.41.41,0,0,1,125.52,90.3Zm-.76,4.75V91.34h.68v3.71Z"/><path d="M127.22,93.05h0a4.46,4.46,0,0,1,.33-.43l1.09-1.28h.81L128,92.87l1.64,2.18h-.82l-1.28-1.78-.35.39v1.39h-.66V89.61h.66Z"/><path d="M130.52,93.32a1.19,1.19,0,0,0,1.27,1.29,2.54,2.54,0,0,0,1-.19l.11.48a2.91,2.91,0,0,1-1.23.23,1.72,1.72,0,0,1-1.82-1.87,1.8,1.8,0,0,1,1.74-2A1.57,1.57,0,0,1,133.15,93c0,.13,0,.24,0,.31Zm2-.48a1,1,0,0,0-.94-1.1,1.11,1.11,0,0,0-1,1.1Z"/><path d="M136.42,90.28v1.06h1v.52h-1v2c0,.46.13.72.5.72a1.54,1.54,0,0,0,.39,0l0,.51a1.72,1.72,0,0,1-.6.09.9.9,0,0,1-.72-.29,1.35,1.35,0,0,1-.26-1v-2h-.58v-.52h.58v-.88Z"/><path d="M141.45,93.17a1.81,1.81,0,0,1-1.85,2,1.77,1.77,0,0,1-1.78-1.91,1.82,1.82,0,0,1,1.84-2A1.76,1.76,0,0,1,141.45,93.17Zm-2.95,0c0,.81.47,1.42,1.13,1.42s1.13-.6,1.13-1.44c0-.63-.32-1.42-1.11-1.42S138.5,92.5,138.5,93.21Z"/><path d="M144.73,90.28v1.06h1v.52h-1v2c0,.46.13.72.5.72a1.54,1.54,0,0,0,.39,0l0,.51a1.76,1.76,0,0,1-.6.09.91.91,0,0,1-.73-.29,1.35,1.35,0,0,1-.26-1v-2h-.58v-.52h.58v-.88Z"/><path d="M146.45,92.5c0-.44,0-.81,0-1.16H147l0,.73h0a1.12,1.12,0,0,1,1-.81l.19,0v.64a.82.82,0,0,0-.23,0,.94.94,0,0,0-.9.86,1.51,1.51,0,0,0,0,.32v2h-.67Z"/><path d="M151,95.05l-.06-.47h0a1.36,1.36,0,0,1-1.13.56,1.06,1.06,0,0,1-1.14-1.07c0-.89.8-1.38,2.23-1.38v-.07a.76.76,0,0,0-.84-.86,2,2,0,0,0-1,.27l-.15-.44a2.3,2.3,0,0,1,1.22-.33c1.13,0,1.41.77,1.41,1.52v1.38a4.85,4.85,0,0,0,.06.89Zm-.1-1.89c-.74,0-1.57.11-1.57.83a.6.6,0,0,0,.63.65.93.93,0,0,0,.9-.62.85.85,0,0,0,0-.22Z"/><path d="M155.81,89.61v4.48a9.44,9.44,0,0,0,0,1h-.61l0-.64h0a1.39,1.39,0,0,1-1.27.73,1.69,1.69,0,0,1-1.58-1.89,1.77,1.77,0,0,1,1.66-2,1.25,1.25,0,0,1,1.12.57h0V89.61Zm-.68,3.24a1.33,1.33,0,0,0,0-.28,1,1,0,0,0-1-.78c-.7,0-1.11.61-1.11,1.43s.37,1.37,1.09,1.37a1,1,0,0,0,1-.8,1.36,1.36,0,0,0,0-.29Z"/><path d="M157.3,93.32a1.18,1.18,0,0,0,1.27,1.29,2.53,2.53,0,0,0,1-.19l.12.48a3,3,0,0,1-1.23.23,1.72,1.72,0,0,1-1.83-1.87,1.8,1.8,0,0,1,1.74-2A1.57,1.57,0,0,1,159.92,93a2.28,2.28,0,0,1,0,.31Zm2-.48a1,1,0,0,0-.93-1.1,1.13,1.13,0,0,0-1,1.1Z"/><path d="M162.38,92.35c0-.39,0-.7,0-1h.59l0,.6h0a1.29,1.29,0,0,1,1.17-.68,1.12,1.12,0,0,1,1.05.74h0a1.79,1.79,0,0,1,.41-.48,1.28,1.28,0,0,1,.82-.26c.49,0,1.22.32,1.22,1.61v2.18H167V93c0-.71-.26-1.14-.8-1.14a.9.9,0,0,0-.8.61,1.21,1.21,0,0,0,0,.34v2.29h-.66V92.83c0-.59-.26-1-.77-1a.92.92,0,0,0-.84.68.88.88,0,0,0-.05.33v2.23h-.66Z"/><path d="M168.91,91.34l.81,2.2c.09.24.18.53.24.75h0c.07-.22.15-.5.24-.77l.74-2.18h.71l-1,2.65a5.75,5.75,0,0,1-1.27,2.32,1.8,1.8,0,0,1-.83.43l-.17-.56a1.87,1.87,0,0,0,.59-.33,2.26,2.26,0,0,0,.57-.75.47.47,0,0,0,.05-.16.41.41,0,0,0-.05-.18l-1.37-3.42Z"/><path d="M177.09,91.34c0,.27,0,.57,0,1v2.16a2.12,2.12,0,0,1-.53,1.69,2,2,0,0,1-1.35.44,2.34,2.34,0,0,1-1.23-.3l.16-.52a2,2,0,0,0,1.09.29c.69,0,1.2-.36,1.2-1.29v-.41h0a1.33,1.33,0,0,1-1.18.62,1.66,1.66,0,0,1-1.58-1.81,1.78,1.78,0,0,1,1.67-2,1.24,1.24,0,0,1,1.16.64h0l0-.56Zm-.7,1.47a1,1,0,0,0-1-1c-.64,0-1.1.54-1.1,1.4s.36,1.33,1.09,1.33a1,1,0,0,0,.94-.69,1.42,1.42,0,0,0,0-.36Z"/><path d="M178.88,90.3a.41.41,0,0,1-.43.42.41.41,0,0,1-.41-.42.42.42,0,0,1,.42-.42A.41.41,0,0,1,178.88,90.3Zm-.76,4.75V91.34h.68v3.71Z"/><path d="M180,95.05V91.86h-.52v-.52H180v-.17a1.78,1.78,0,0,1,.43-1.3,1.33,1.33,0,0,1,.91-.34,1.44,1.44,0,0,1,.57.11l-.09.52a1,1,0,0,0-.43-.09c-.57,0-.72.51-.72,1.08v.19h.9v.52h-.9v3.19Z"/><path d="M183.05,90.28v1.06h1v.52h-1v2c0,.46.13.72.5.72a1.54,1.54,0,0,0,.39,0l0,.51a1.69,1.69,0,0,1-.59.09.91.91,0,0,1-.73-.29,1.35,1.35,0,0,1-.26-1v-2h-.58v-.52h.58v-.88Z"/><path d="M187.36,94.91a2.3,2.3,0,0,1-1.06.22,1.76,1.76,0,0,1-1.85-1.89,1.89,1.89,0,0,1,2-2,2.28,2.28,0,0,1,.93.19l-.15.52a1.59,1.59,0,0,0-.78-.18,1.29,1.29,0,0,0-1.31,1.41,1.27,1.27,0,0,0,1.28,1.38,2,2,0,0,0,.83-.18Z"/><path d="M190.2,95.05l0-.47h0a1.38,1.38,0,0,1-1.14.56,1.06,1.06,0,0,1-1.13-1.07c0-.89.8-1.38,2.23-1.38v-.07a.76.76,0,0,0-.84-.86,1.93,1.93,0,0,0-1,.27l-.15-.44a2.28,2.28,0,0,1,1.22-.33c1.13,0,1.41.77,1.41,1.52v1.38a4.85,4.85,0,0,0,.06.89Zm-.1-1.89c-.73,0-1.57.11-1.57.83a.61.61,0,0,0,.64.65.94.94,0,0,0,.9-.62.83.83,0,0,0,0-.22Z"/><path d="M191.84,92.5c0-.44,0-.81,0-1.16h.59l0,.73h0a1.12,1.12,0,0,1,1-.81l.19,0v.64a.82.82,0,0,0-.23,0,.94.94,0,0,0-.9.86,1.51,1.51,0,0,0,0,.32v2h-.67Z"/><path d="M197.47,89.61v4.48c0,.33,0,.71,0,1h-.61l0-.64h0a1.39,1.39,0,0,1-1.27.73A1.69,1.69,0,0,1,194,93.25a1.77,1.77,0,0,1,1.66-2,1.24,1.24,0,0,1,1.12.57h0V89.61Zm-.67,3.24a.9.9,0,0,0,0-.28,1,1,0,0,0-1-.78c-.7,0-1.11.61-1.11,1.43s.37,1.37,1.1,1.37a1,1,0,0,0,1-.8.92.92,0,0,0,0-.29Z"/><path d="M198.35,94.65a.45.45,0,0,1,.46-.48.44.44,0,0,1,.45.48.46.46,0,1,1-.91,0Z"/><g class="cls-12"><path d="M230,97.64h0l-.34.18-.05-.2.42-.22h.23v1.94H230Z"/><path d="M231,99a.92.92,0,0,0,.43.12.39.39,0,0,0,.44-.38c0-.27-.25-.39-.51-.39h-.14V98.2h.14c.2,0,.44-.1.44-.33s-.1-.3-.34-.3a.69.69,0,0,0-.39.13l-.07-.19a1,1,0,0,1,.51-.15.48.48,0,0,1,.55.47.47.47,0,0,1-.36.45h0a.52.52,0,0,1,.44.5c0,.31-.24.58-.71.58a1,1,0,0,1-.51-.13Z"/><path d="M232.51,98.13a.17.17,0,0,1,.17-.19.19.19,0,0,1,0,.38A.17.17,0,0,1,232.51,98.13Zm0,1.06a.17.17,0,0,1,.17-.19.18.18,0,0,1,.18.19.17.17,0,0,1-.18.18A.17.17,0,0,1,232.51,99.19Z"/><path d="M233.1,99.34v-.16l.21-.2c.5-.48.72-.73.72-1a.34.34,0,0,0-.38-.38.7.7,0,0,0-.42.16l-.08-.18a.87.87,0,0,1,.55-.2.55.55,0,0,1,.6.57c0,.36-.26.65-.67,1l-.16.14h.87v.22Z"/><path d="M235.74,97.58h-.19a.78.78,0,0,0-.68.69h0a.59.59,0,0,1,1.05.41.65.65,0,0,1-.64.68c-.42,0-.69-.32-.69-.83a1.22,1.22,0,0,1,.33-.87,1.06,1.06,0,0,1,.62-.29h.19Zm-.07,1.12a.39.39,0,0,0-.4-.44.44.44,0,0,0-.38.24.18.18,0,0,0,0,.11c0,.32.15.56.43.56S235.67,99,235.67,98.7Z"/></g><path class="cls-10" d="M237.09,98.53c.08-.13.14-.13.25,0l.56.56.07.06.07-.06c.57-.57,1.13-1.14,1.7-1.7a.21.21,0,0,1,.12-.07.11.11,0,0,1,.09.18l0,0-1.85,1.84c-.06.07-.12.07-.19,0l-.68-.68-.1-.12Z"/><path class="cls-10" d="M240.73,97.62l-.11.14L239,99.37a.12.12,0,0,1-.2,0l-.16-.17a.11.11,0,0,1,0-.17.12.12,0,0,1,.17,0c.11.09.11.09.2,0l1.48-1.47a.21.21,0,0,1,.1-.06c.08,0,.11,0,.14.09Z"/></g></g></svg>