<svg width="22" height="23" viewBox="0 0 22 23" fill="none" xmlns="http://www.w3.org/2000/svg">
<g filter="url(#filter0_d)">
<path d="M11 21C16.5228 21 21 16.5228 21 11C21 5.47715 16.5228 1 11 1C5.47715 1 1 5.47715 1 11C1 16.5228 5.47715 21 11 21Z" fill="black"/>
</g>
<path d="M11 21C16.5228 21 21 16.5228 21 11C21 5.47715 16.5228 1 11 1C5.47715 1 1 5.47715 1 11C1 16.5228 5.47715 21 11 21Z" fill="#26A17B"/>
<path style="mix-blend-mode:soft-light" d="M11 21C16.5228 21 21 16.5228 21 11C21 5.47715 16.5228 1 11 1C5.47715 1 1 5.47715 1 11C1 16.5228 5.47715 21 11 21Z" fill="url(#paint0_linear)"/>
<g filter="url(#filter1_d)">
<path d="M12.2813 11.922V11.9207C12.208 11.926 11.83 11.9487 10.9867 11.9487C10.3133 11.9487 9.83932 11.9287 9.67266 11.9207V11.9227C7.08066 11.8087 5.14599 11.3573 5.14599 10.8173C5.14599 10.278 7.08066 9.82666 9.67266 9.71066V11.4733C9.84199 11.4853 10.3273 11.514 10.998 11.514C11.8027 11.514 12.206 11.4807 12.2813 11.474V9.71199C14.868 9.82732 16.798 10.2787 16.798 10.8173C16.798 11.3573 14.868 11.8073 12.2813 11.922V11.922ZM12.2813 9.52866V7.95132H15.8907V5.54599H6.06333V7.95132H9.67266V9.52799C6.73932 9.66266 4.53333 10.244 4.53333 10.94C4.53333 11.636 6.73932 12.2167 9.67266 12.352V17.4067H12.2813V12.3507C15.21 12.216 17.4107 11.6353 17.4107 10.94C17.4107 10.2447 15.21 9.66399 12.2813 9.52866" fill="black"/>
</g>
<path d="M12.2813 11.922V11.9207C12.208 11.926 11.83 11.9487 10.9867 11.9487C10.3133 11.9487 9.83932 11.9287 9.67266 11.9207V11.9227C7.08066 11.8087 5.14599 11.3573 5.14599 10.8173C5.14599 10.278 7.08066 9.82666 9.67266 9.71066V11.4733C9.84199 11.4853 10.3273 11.514 10.998 11.514C11.8027 11.514 12.206 11.4807 12.2813 11.474V9.71199C14.868 9.82732 16.798 10.2787 16.798 10.8173C16.798 11.3573 14.868 11.8073 12.2813 11.922V11.922ZM12.2813 9.52866V7.95132H15.8907V5.54599H6.06333V7.95132H9.67266V9.52799C6.73932 9.66266 4.53333 10.244 4.53333 10.94C4.53333 11.636 6.73932 12.2167 9.67266 12.352V17.4067H12.2813V12.3507C15.21 12.216 17.4107 11.6353 17.4107 10.94C17.4107 10.2447 15.21 9.66399 12.2813 9.52866" fill="white"/>
<defs>
<filter id="filter0_d" x="0" y="0.5" width="22" height="22" filterUnits="userSpaceOnUse" color-interpolation-filters="sRGB">
<feFlood flood-opacity="0" result="BackgroundImageFix"/>
<feColorMatrix in="SourceAlpha" type="matrix" values="0 0 0 0 0 0 0 0 0 0 0 0 0 0 0 0 0 0 127 0" result="hardAlpha"/>
<feOffset dy="0.5"/>
<feGaussianBlur stdDeviation="0.5"/>
<feColorMatrix type="matrix" values="0 0 0 0 0 0 0 0 0 0 0 0 0 0 0 0 0 0 0.199474 0"/>
<feBlend mode="normal" in2="BackgroundImageFix" result="effect1_dropShadow"/>
<feBlend mode="normal" in="SourceGraphic" in2="effect1_dropShadow" result="shape"/>
</filter>
<filter id="filter1_d" x="3.53333" y="5.04599" width="14.8773" height="13.8607" filterUnits="userSpaceOnUse" color-interpolation-filters="sRGB">
<feFlood flood-opacity="0" result="BackgroundImageFix"/>
<feColorMatrix in="SourceAlpha" type="matrix" values="0 0 0 0 0 0 0 0 0 0 0 0 0 0 0 0 0 0 127 0" result="hardAlpha"/>
<feOffset dy="0.5"/>
<feGaussianBlur stdDeviation="0.5"/>
<feColorMatrix type="matrix" values="0 0 0 0 0 0 0 0 0 0 0 0 0 0 0 0 0 0 0.204257 0"/>
<feBlend mode="normal" in2="BackgroundImageFix" result="effect1_dropShadow"/>
<feBlend mode="normal" in="SourceGraphic" in2="effect1_dropShadow" result="shape"/>
</filter>
<linearGradient id="paint0_linear" x1="11" y1="1" x2="11" y2="21" gradientUnits="userSpaceOnUse">
<stop stop-color="white" stop-opacity="0.5"/>
<stop offset="1" stop-opacity="0.5"/>
</linearGradient>
</defs>
</svg>
