<?xml version="1.0"?>
<svg xmlns="http://www.w3.org/2000/svg" xmlns:xlink="http://www.w3.org/1999/xlink" xmlns:svgjs="http://svgjs.com/svgjs" version="1.1" width="512" height="512" x="0" y="0" viewBox="0 0 512 512" style="enable-background:new 0 0 512 512" xml:space="preserve" class=""><g>
<g xmlns="http://www.w3.org/2000/svg">
	<path style="" d="M230.4,366.933c0,75.409,61.124,136.533,136.533,136.533s136.533-61.124,136.533-136.533   S442.342,230.4,366.933,230.4S230.4,291.524,230.4,366.933z M469.333,366.933c0,56.55-45.85,102.4-102.4,102.4   s-102.4-45.85-102.4-102.4s45.85-102.4,102.4-102.4S469.333,310.383,469.333,366.933z" fill="#ffaf46" data-original="#ffaf46"/>
	<path style="" d="M264.533,366.933c0,56.55,45.85,102.4,102.4,102.4s102.4-45.85,102.4-102.4   s-45.85-102.4-102.4-102.4S264.533,310.383,264.533,366.933z M375.467,290.133v25.6h17.067c9.429,0,17.067,7.637,17.067,17.067   v17.067c0,9.429-7.637,17.067-17.067,17.067c9.429,0,17.067,7.637,17.067,17.067v17.067c0,9.429-7.637,17.067-17.067,17.067   h-17.067l0,0h-25.6l0.213,25.6l-0.213-25.6h-8.533v-102.4h8.533l0.213-25.6l-0.213,25.6h25.6V290.133z" fill="#ffaf46" data-original="#ffaf46"/>
	<path style="" d="M341.333,315.733v51.2h51.2c9.429,0,17.067-7.637,17.067-17.067V332.8   c0-9.429-7.637-17.067-17.067-17.067H341.333z" fill="#ffaf46" data-original="#ffaf46"/>
	<path style="" d="M341.333,418.133h51.2c9.429,0,17.067-7.637,17.067-17.067V384c0-9.429-7.637-17.067-17.067-17.067   h-51.2V418.133z" fill="#ffaf46" data-original="#ffaf46"/>
</g>
<g xmlns="http://www.w3.org/2000/svg">
	<path style="" d="M145.067,281.6c75.409,0,136.533-61.124,136.533-136.533S220.476,8.533,145.067,8.533   S8.533,69.658,8.533,145.067S69.658,281.6,145.067,281.6z M145.067,42.667c56.55,0,102.4,45.85,102.4,102.4   s-45.85,102.4-102.4,102.4s-102.4-45.85-102.4-102.4S88.516,42.667,145.067,42.667z" fill="#ff9811" data-original="#ff9811" class=""/>
	<path style="" d="M145.067,247.467c56.55,0,102.4-45.85,102.4-102.4s-45.85-102.4-102.4-102.4   s-102.4,45.85-102.4,102.4S88.516,247.467,145.067,247.467z M145.067,145.067c-18.85,0-34.133-11.46-34.133-25.6   s15.283-25.6,34.133-25.6l0,0c18.85,0,34.133,11.46,34.133,25.6c0-14.14-15.283-25.6-34.133-25.6s-34.133,11.46-34.133,25.6   S126.217,145.067,145.067,145.067s34.133,11.46,34.133,25.6c0,14.14-15.283,25.6-34.133,25.6l0,0   c-18.85,0-34.133-11.46-34.133-25.6c0,14.14,15.283,25.6,34.133,25.6s34.133-11.46,34.133-25.6   C179.2,156.527,163.917,145.067,145.067,145.067z" fill="#ff9811" data-original="#ff9811" class=""/>
</g>
<g xmlns="http://www.w3.org/2000/svg">
	<path style="" d="M366.933,477.867C305.664,477.867,256,428.203,256,366.933S305.664,256,366.933,256   s110.933,49.664,110.933,110.933C477.798,428.169,428.169,477.798,366.933,477.867z M366.933,273.067   c-51.84,0-93.867,42.027-93.867,93.867s42.027,93.867,93.867,93.867s93.867-42.027,93.867-93.867   C460.74,315.119,418.748,273.126,366.933,273.067z" fill="#231f20" data-original="#231f20" class=""/>
	<path style="" d="M418.133,332.8c0-14.14-11.46-25.6-25.6-25.6H384v-17.067h-17.067V307.2h-8.465l-0.068-17.067   h-17.067l0.068,17.067h-25.668v17.067H332.8V409.6h-17.067v17.067h25.668l-0.068,17.067H358.4l0.068-17.067h8.465v17.067H384   v-17.067h8.533c14.14,0,25.6-11.46,25.6-25.6V384c-0.026-6.315-2.398-12.399-6.656-17.067c4.258-4.668,6.63-10.752,6.656-17.067   V332.8z M349.867,324.267h42.667c4.71,0,8.533,3.823,8.533,8.533v17.067c0,4.71-3.823,8.533-8.533,8.533h-42.667V324.267z    M401.067,401.067c0,4.71-3.823,8.533-8.533,8.533h-42.667v-34.133h42.667c4.71,0,8.533,3.823,8.533,8.533V401.067z" fill="#231f20" data-original="#231f20" class=""/>
	<path style="" d="M366.933,512c-80.119,0-145.067-64.947-145.067-145.067s64.947-145.067,145.067-145.067   S512,286.814,512,366.933C511.915,447.019,447.019,511.915,366.933,512z M366.933,238.933c-70.69,0-128,57.31-128,128   s57.31,128,128,128s128-57.31,128-128C494.857,296.277,437.589,239.01,366.933,238.933z" fill="#231f20" data-original="#231f20" class=""/>
	<path style="" d="M145.067,256c-61.269,0-110.933-49.664-110.933-110.933S83.797,34.133,145.067,34.133   S256,83.797,256,145.067C255.932,206.302,206.302,255.932,145.067,256z M145.067,51.2c-51.84,0-93.867,42.027-93.867,93.867   s42.027,93.867,93.867,93.867s93.867-42.027,93.867-93.867C238.874,93.252,196.881,51.26,145.067,51.2z" fill="#231f20" data-original="#231f20" class=""/>
	<path style="" d="M145.067,290.133C64.947,290.133,0,225.186,0,145.067S64.947,0,145.067,0   s145.067,64.947,145.067,145.067C290.048,225.152,225.152,290.048,145.067,290.133z M145.067,17.067c-70.69,0-128,57.31-128,128   s57.31,128,128,128s128-57.31,128-128C272.99,74.411,215.723,17.143,145.067,17.067z" fill="#231f20" data-original="#231f20" class=""/>
	<path style="" d="M366.933,85.333h-39.134l21.632-21.641l-12.066-12.066l-42.231,42.24l42.231,42.24l12.066-12.066   L327.799,102.4h39.134c42.394,0.051,76.749,34.406,76.8,76.8v42.667H460.8V179.2C460.74,127.386,418.748,85.393,366.933,85.333z" fill="#231f20" data-original="#231f20" class=""/>
	<path style="" d="M166.101,375.893l-12.066,12.066l21.632,21.641h-30.601c-42.394-0.051-76.749-34.406-76.8-76.8   v-42.667H51.2V332.8c0.06,51.814,42.052,93.807,93.867,93.867h30.601l-21.632,21.641l12.066,12.066l42.231-42.24L166.101,375.893z" fill="#231f20" data-original="#231f20" class=""/>
	<path style="" d="M145.067,136.533c-13.875,0-25.6-7.817-25.6-17.067s11.725-17.067,25.6-17.067   c13.875,0,25.6,7.817,25.6,17.067c0,4.71,3.823,8.533,8.533,8.533s8.533-3.823,8.533-8.533c0-16.486-14.686-30.268-34.133-33.442   V68.267h-17.067v17.758c-19.447,3.174-34.133,16.956-34.133,33.442c0,18.825,19.14,34.133,42.667,34.133   c13.875,0,25.6,7.817,25.6,17.067c0,9.25-11.725,17.067-25.6,17.067c-13.875,0-25.6-7.817-25.6-17.067   c0-4.71-3.823-8.533-8.533-8.533c-4.71,0-8.533,3.823-8.533,8.533c0,16.486,14.686,30.268,34.133,33.442v17.758H153.6v-17.758   c19.447-3.174,34.133-16.956,34.133-33.442C187.733,151.842,168.593,136.533,145.067,136.533z" fill="#231f20" data-original="#231f20" class=""/>
</g>
<g xmlns="http://www.w3.org/2000/svg">
</g>
<g xmlns="http://www.w3.org/2000/svg">
</g>
<g xmlns="http://www.w3.org/2000/svg">
</g>
<g xmlns="http://www.w3.org/2000/svg">
</g>
<g xmlns="http://www.w3.org/2000/svg">
</g>
<g xmlns="http://www.w3.org/2000/svg">
</g>
<g xmlns="http://www.w3.org/2000/svg">
</g>
<g xmlns="http://www.w3.org/2000/svg">
</g>
<g xmlns="http://www.w3.org/2000/svg">
</g>
<g xmlns="http://www.w3.org/2000/svg">
</g>
<g xmlns="http://www.w3.org/2000/svg">
</g>
<g xmlns="http://www.w3.org/2000/svg">
</g>
<g xmlns="http://www.w3.org/2000/svg">
</g>
<g xmlns="http://www.w3.org/2000/svg">
</g>
<g xmlns="http://www.w3.org/2000/svg">
</g>
</g></svg>
