<svg xmlns="http://www.w3.org/2000/svg" viewBox="0 0 13.97 17.46"><defs><style>.cls-1{fill:#5b5b5b;}</style></defs><title>Balance sheet</title><g id="Layer_2" data-name="Layer 2"><g id="Layer_1-2" data-name="Layer 1"><path class="cls-1" d="M8.15,0V4.56A1.17,1.17,0,0,0,9.41,5.82H14V16.18a1.17,1.17,0,0,1-1.27,1.28H1.29A1.18,1.18,0,0,1,0,16.16V1.27A1.17,1.17,0,0,1,1.27,0H8.15ZM7,8.15H2.91a.55.55,0,0,0-.58.62A.55.55,0,0,0,3,9.31H11a.55.55,0,0,0,.59-.37A.57.57,0,0,0,11,8.15Zm0,4.66H11a.58.58,0,1,0,0-1.16H3a.56.56,0,0,0-.59.37A.57.57,0,0,0,3,12.8Zm-2.31-7H6.42A.55.55,0,0,0,7,5.24a.53.53,0,0,0-.54-.58H2.87a.53.53,0,0,0-.52.4.57.57,0,0,0,.56.76Z"/><path class="cls-1" d="M9.32,4.65V0A.9.9,0,0,1,10,.24c.18.16.35.34.52.51l3,3a1.32,1.32,0,0,1,.43.7c0,.06,0,.12,0,.2Z"/></g></g></svg>