<svg xmlns="http://www.w3.org/2000/svg" viewBox="0 0 17.2 17.18"><defs><style>.cls-1{fill:#5b5b5b;}</style></defs><title>Bank</title><g id="Layer_2" data-name="Layer 2"><g id="Layer_1-2" data-name="Layer 1"><path class="cls-1" d="M8.6,5C6,5,3.34,5,.7,4.94a.86.86,0,0,1-.61-.3c-.09-.11,0-.38,0-.57s.2-.2.32-.26C3,2.56,5.62,1.3,8.23.07A1,1,0,0,1,9,.07c2.63,1.24,5.24,2.5,7.85,3.76a.55.55,0,0,1,.37.68.58.58,0,0,1-.65.44Zm0-1.29a.92.92,0,1,0,0-1.84.94.94,0,0,0-.93.9A.92.92,0,0,0,8.58,3.66Z"/><path class="cls-1" d="M.91,17.18H.53A.53.53,0,0,1,0,16.64.56.56,0,0,1,.45,16,1.35,1.35,0,0,1,.8,16H16.43c.5,0,.79.24.76.62s-.26.53-.68.53Z"/><path class="cls-1" d="M2.06,6.83c0-.34.12-.46.45-.45s.73,0,1.09,0,.39.11.39.4v7.58c0,.28-.13.39-.4.38s-.75,0-1.13,0-.4-.12-.4-.42C2.07,13.08,2.07,8.07,2.06,6.83Z"/><path class="cls-1" d="M5.87,6.9c0-.49,0-.51.5-.51h1c.29,0,.42.09.42.4v7.54c0,.3-.11.43-.41.42a9.19,9.19,0,0,0-1,0c-.35,0-.48-.1-.48-.46C5.88,13,5.87,8.12,5.87,6.9Z"/><path class="cls-1" d="M15.38,14.26c0,.37-.11.52-.49.49s-.62,0-.93,0c-.49,0-.52,0-.52-.5,0-2,0-7,0-7.42s.13-.45.44-.44a9.91,9.91,0,0,0,1.09,0c.3,0,.41.12.41.42C15.37,8.06,15.36,13,15.38,14.26Z"/><path class="cls-1" d="M11.55,14.3c0,.34-.13.47-.46.45s-.75,0-1.13,0a.3.3,0,0,1-.35-.35q0-3.84,0-7.66c0-.23.09-.35.32-.35h1.28c.27,0,.34.16.33.41C11.54,8.06,11.53,13.06,11.55,14.3Z"/></g></g></svg>