<svg xmlns="http://www.w3.org/2000/svg" viewBox="0 0 39.06 39.06"><defs><style>.cls-1{fill:#fde8ec;}.cls-2{fill:#fc9518;}.cls-3{fill:#fff;}</style></defs><title>btc</title><g id="Layer_2" data-name="Layer 2"><g id="Layer_1-2" data-name="Layer 1"><rect class="cls-1" width="39.06" height="39.06" rx="3.99"/><circle class="cls-2" cx="19.53" cy="19.53" r="12.09"/><path class="cls-3" d="M18.85,25.43c-.16.68-.35,1.44-1.28,1.23s-.77-1-.61-1.74a15.3,15.3,0,0,1-2-.48,1.45,1.45,0,0,1-.82-.81c-.06-.28.3-.66.49-1s.35-.39.4-.61q.76-3.25,1.47-6.52c.05-.24-.1-.52-.13-.79s-.17-.8,0-1a1.27,1.27,0,0,1,1-.41,15.46,15.46,0,0,1,2.12.45c.19-.74.35-1.48,1.29-1.33.64.09.81.56.67,1.67,3.43,1.47,4,4,1.51,6.25C24,23.88,22.57,25.69,18.85,25.43Zm-1-7.17c1.07.24,2.06.5,3.07.68a1.39,1.39,0,0,0,1.54-1,1.32,1.32,0,0,0-.72-1.67c-1.06-.33-2.18-.52-3.28-.76Zm-1,4.66c1.05.24,2,.49,3,.67a1.42,1.42,0,0,0,.71-2.73c-1-.28-2-.47-3.09-.71Z"/></g></g></svg>