<svg xmlns="http://www.w3.org/2000/svg" viewBox="0 0 15.21 14.63"><defs><style>.cls-1{fill:#5b5b5b;}</style></defs><title>Chart</title><g id="Layer_2" data-name="Layer 2"><g id="Layer_1-2" data-name="Layer 1"><path class="cls-1" d="M8.37,6.22c0-.49.12-.6.61-.6h1.53c.37,0,.53.15.53.51v8c0,.35-.15.5-.5.51H8.87c-.37,0-.5-.15-.5-.53Z"/><path class="cls-1" d="M12.54,1c0-.79.12-1,.61-1h1.53c.37,0,.53.24.53.83V13.76c0,.57-.15.82-.5.83-.55,0-1.11,0-1.67,0-.37,0-.5-.25-.5-.87Z"/><path class="cls-1" d="M4.19,8.9c0-.47.13-.59.59-.59H6.31c.42,0,.55.14.55.55q0,2.6,0,5.19c0,.42-.15.57-.57.57s-1,0-1.54,0-.56-.14-.56-.58Z"/><path class="cls-1" d="M2.68,14.06c0,.4-.14.54-.53.54H.51c-.35,0-.5-.15-.5-.5,0-.87,0-1.75,0-2.63A.44.44,0,0,1,.49,11h1.7c.37,0,.49.14.49.51S2.69,13.64,2.68,14.06Z"/></g></g></svg>