<svg xmlns="http://www.w3.org/2000/svg" viewBox="0 0 16.33 14.63"><defs><style>.cls-1{fill:#5b5b5b;}</style></defs><title>Chatbot</title><g id="Layer_2" data-name="Layer 2"><g id="Layer_1-2" data-name="Layer 1"><path class="cls-1" d="M3.46,11.13c-.55,0-1.08,0-1.6-.1A3.38,3.38,0,0,1,1,10.79,1.66,1.66,0,0,1,.06,9.44C0,9,0,2.12.05,1.7A1.79,1.79,0,0,1,1.85,0c.53,0,12.32,0,12.77,0a1.8,1.8,0,0,1,1.68,1.8c0,.46,0,7.08,0,7.51A1.79,1.79,0,0,1,14.48,11c-.58.05-4.79.08-6.31.08a.81.81,0,0,0-.62.25c-1,1-2,2-3,3a.63.63,0,0,1-.57.22A.59.59,0,0,1,3.46,14V11.13Zm1.18,1.5c.71-.71,1.39-1.38,2.05-2.06a2,2,0,0,1,1.52-.64c1.67,0,5.89-.06,6.32-.1a.56.56,0,0,0,.56-.55c.05-.4.05-7.1,0-7.51a.56.56,0,0,0-.52-.53c-.43-.05-12.4-.05-12.82,0a.56.56,0,0,0-.53.53c0,.4,0,7.09,0,7.5a.57.57,0,0,0,.56.56c.53,0,1.06.08,1.59.1a1.2,1.2,0,0,1,1.27,1.28Z"/><path class="cls-1" d="M5.22,5.53a.88.88,0,1,1-.89-.88A.88.88,0,0,1,5.22,5.53Z"/><path class="cls-1" d="M9.33,5.54a.88.88,0,0,1-1.76,0,.88.88,0,1,1,1.76,0Z"/><path class="cls-1" d="M13.44,5.53a.88.88,0,1,1-.89-.88A.88.88,0,0,1,13.44,5.53Z"/></g></g></svg>