<svg xmlns="http://www.w3.org/2000/svg" viewBox="0 0 17.97 17.93"><defs><style>.cls-1{fill:#5b5b5b;}</style></defs><title>Curl</title><g id="Layer_2" data-name="Layer 2"><g id="Layer_1-2" data-name="Layer 1"><path class="cls-1" d="M1.54,11.26c-.12.62-.66.69-1.09.35A8.82,8.82,0,0,1,3.26,2a9,9,0,0,1,11.58.16V.47a.71.71,0,0,1,1.2,0V3.21a1.16,1.16,0,0,1-1.16,1.16H12.15a.6.6,0,0,1,0-1.17H14A7.57,7.57,0,0,0,6.14,1.73,7.82,7.82,0,0,0,1.54,11.26Z"/><path class="cls-1" d="M16.43,6.67c.11-.62.66-.69,1.09-.35a8.83,8.83,0,0,1-2.81,9.58,9,9,0,0,1-11.58-.16v1.72a.71.71,0,0,1-1.2,0V14.72a1.16,1.16,0,0,1,1.16-1.16H5.82a.61.61,0,0,1,0,1.18H4a7.59,7.59,0,0,0,7.87,1.46A7.82,7.82,0,0,0,16.43,6.67Z"/></g></g></svg>