<svg xmlns="http://www.w3.org/2000/svg" viewBox="0 0 14.06 14.05"><defs><style>.cls-1{fill:#5b5b5b;}</style></defs><title>Dashboard type B</title><g id="Layer_2" data-name="Layer 2"><g id="Layer_1-2" data-name="Layer 1"><path class="cls-1" d="M5.08.05C4.47,0,2.19,0,1.67,0A1.62,1.62,0,0,0,0,1.65Q0,3.23,0,4.8A1.62,1.62,0,0,0,1.65,6.46H4.8A1.63,1.63,0,0,0,6.46,4.78c0-1,0-2.07,0-3.11A1.56,1.56,0,0,0,5.08.05ZM4.79,5.43H1.71c-.47,0-.67-.2-.67-.66V1.69c0-.44.2-.64.64-.64,1,0,2.07,0,3.11,0,.42,0,.63.2.63.61q0,1.58,0,3.15C5.42,5.22,5.21,5.42,4.79,5.43Z"/><path class="cls-1" d="M5.08,7.64c-.61-.08-2.89,0-3.41,0A1.64,1.64,0,0,0,0,9.24c0,1,0,2.1,0,3.14A1.62,1.62,0,0,0,1.65,14q1.58,0,3.15,0a1.62,1.62,0,0,0,1.66-1.67q0-1.56,0-3.12A1.54,1.54,0,0,0,5.08,7.64ZM4.79,13H1.71c-.47,0-.67-.2-.67-.65V9.28c0-.45.2-.65.64-.65H4.79a.55.55,0,0,1,.63.62q0,1.58,0,3.15C5.42,12.81,5.21,13,4.79,13Z"/><path class="cls-1" d="M9.24,6.46h3.14a1.63,1.63,0,0,0,1.67-1.68c0-1,0-2.07,0-3.11A1.57,1.57,0,0,0,12.67.05C12.06,0,9.77,0,9.26,0A1.64,1.64,0,0,0,7.59,1.65q0,1.58,0,3.15A1.62,1.62,0,0,0,9.24,6.46ZM8.63,1.69c0-.44.2-.64.63-.64q1.56,0,3.12,0c.42,0,.63.2.63.61V4.81c0,.41-.21.61-.64.62H9.29c-.46,0-.66-.2-.66-.66Z"/><path class="cls-1" d="M14,9.23A1.6,1.6,0,0,0,12.48,7.6c-1.07,0-2.15,0-3.22,0a.64.64,0,0,0-.45.23.48.48,0,0,0,0,.53.63.63,0,0,0,.45.26c1,0,2.05,0,3.05,0,.52,0,.7.18.7.69v3c0,.49-.19.68-.67.68h-3c-.51,0-.7-.18-.7-.68V9.85a.57.57,0,0,0-.52-.63c-.3,0-.51.26-.52.64,0,.85,0,1.69,0,2.54a1.62,1.62,0,0,0,1.66,1.65h3.11A1.55,1.55,0,0,0,14,12.68C14.07,12.07,14.06,9.76,14,9.23Z"/></g></g></svg>