<svg xmlns="http://www.w3.org/2000/svg" viewBox="0 0 39.06 39.06"><defs><style>.cls-1{fill:#bab7d7;}.cls-2{fill:#766fa2;}.cls-3{fill:#fff;}</style></defs><title>eth</title><g id="Layer_2" data-name="Layer 2"><g id="Layer_1-2" data-name="Layer 1"><rect class="cls-1" width="39.06" height="39.06" rx="3.99"/><circle class="cls-2" cx="19.73" cy="19.53" r="12.09"/><path class="cls-3" d="M19.75,10.68c.57,1,1.15,2,1.73,2.91L25,19.5l.19.33-2.57,1.51c-.89.53-1.78,1.07-2.68,1.58a.47.47,0,0,1-.43,0c-1.74-1-3.48-2-5.21-3.07,0,0-.05,0-.1-.08l.21-.36L19.51,11c.07-.11.11-.23.17-.34Z"/><path class="cls-1" d="M14.27,21l.3.16c1.58.94,3.17,1.87,4.75,2.82a.52.52,0,0,0,.63,0q2.36-1.41,4.73-2.8A.72.72,0,0,1,25,21l-5.38,7.59L14.23,21Z"/></g></g></svg>