<svg width="50" height="50" viewBox="0 0 50 50" fill="none" xmlns="http://www.w3.org/2000/svg">
<path d="M25 50C38.8071 50 50 38.8071 50 25C50 11.1929 38.8071 0 25 0C11.1929 0 0 11.1929 0 25C0 38.8071 11.1929 50 25 50Z" fill="#766FA2"/>
<path d="M25.0414 6.6998C26.22 8.76763 27.4194 10.8355 28.6187 12.7172L35.8974 24.938L36.2903 25.6204L30.976 28.7428C29.1357 29.8388 27.2953 30.9554 25.4343 32.01C25.2967 32.0807 25.1443 32.1176 24.9897 32.1176C24.835 32.1176 24.6826 32.0807 24.5451 32.01C20.9471 29.9422 17.3491 27.8743 13.7717 25.6618C13.7717 25.6618 13.6683 25.6618 13.5649 25.4963L13.9992 24.7519L24.5451 7.36151C24.6898 7.13405 24.7726 6.88591 24.8966 6.65845L25.0414 6.6998Z" fill="white"/>
<path d="M13.7097 28.0398L14.33 28.3706C17.5972 30.3144 20.885 32.2375 24.1522 34.2019C24.3394 34.3445 24.5682 34.4217 24.8035 34.4217C25.0389 34.4217 25.2677 34.3445 25.4549 34.2019C28.7083 32.2582 31.9686 30.3282 35.2357 28.412C35.4204 28.2328 35.6484 28.1046 35.8974 28.0398L24.7725 43.7346L13.627 28.0398H13.7097Z" fill="#BAB7D7"/>
</svg>
