<svg xmlns="http://www.w3.org/2000/svg" viewBox="0 0 18.68 13.56"><defs><style>.cls-1{fill:#5b5b5b;}</style></defs><title>Giftcard</title><g id="Layer_2" data-name="Layer 2"><g id="Layer_1-2" data-name="Layer 1"><path class="cls-1" d="M.54,4C.14,4,0,3.88,0,3.47a8,8,0,0,0,0-.85A2.49,2.49,0,0,1,2.64,0H16a2.45,2.45,0,0,1,2.59,2.54c0,.46,0,1,0,1.44C18.17,4,3.47,4,.54,4Z"/><path class="cls-1" d="M18.68,6.06c0,1.91,0,3.82,0,5.73a1.56,1.56,0,0,1-1.79,1.77H1.74A1.54,1.54,0,0,1,0,11.83S0,5.71,0,5.52H.53q8.82,0,17.6,0C18.58,5.5,18.68,5.64,18.68,6.06Z"/></g></g></svg>