<svg width="20" height="15" viewBox="0 0 20 15" fill="none" xmlns="http://www.w3.org/2000/svg">
<path d="M20 13.9089C20 14.4973 19.554 14.9733 19.005 14.9733H10.995C10.7311 14.9733 10.478 14.8612 10.2914 14.6616C10.1048 14.462 10 14.1912 10 13.9089C10 13.6266 10.1048 13.3559 10.2914 13.1562C10.478 12.9566 10.7311 12.8445 10.995 12.8445H19.005C19.555 12.8445 20 13.3205 20 13.9089Z" fill="#000100"/>
<path d="M20 7.48899C20 8.07738 19.554 8.55343 19.005 8.55343H0.995C0.731109 8.55343 0.478028 8.44128 0.291429 8.24166C0.10483 8.04204 0 7.7713 0 7.48899C0 7.20669 0.10483 6.93595 0.291429 6.73633C0.478028 6.53671 0.731109 6.42456 0.995 6.42456H19.005C19.555 6.42456 20 6.90168 20 7.48899Z" fill="#000100"/>
<path d="M19.005 2.13326C19.2689 2.13326 19.522 2.02111 19.7086 1.82149C19.8952 1.62187 20 1.35113 20 1.06883C20 0.786522 19.8952 0.515779 19.7086 0.316159C19.522 0.11654 19.2689 0.00439454 19.005 0.00439453H6.995C6.86433 0.00439453 6.73495 0.0319269 6.61423 0.0854196C6.49351 0.138912 6.38382 0.217318 6.29143 0.316159C6.19903 0.415001 6.12574 0.532344 6.07574 0.661486C6.02574 0.790629 6 0.929043 6 1.06883C6 1.20861 6.02574 1.34702 6.07574 1.47617C6.12574 1.60531 6.19903 1.72265 6.29143 1.82149C6.38382 1.92034 6.49351 1.99874 6.61423 2.05223C6.73495 2.10573 6.86433 2.13326 6.995 2.13326H19.005Z" fill="#000100"/>
</svg>
