<svg xmlns="http://www.w3.org/2000/svg" viewBox="0 0 18.03 16.14"><defs><style>.cls-1{fill:#5b5b5b;}</style></defs><title>Heart</title><g id="Layer_2" data-name="Layer 2"><g id="Layer_1-2" data-name="Layer 1"><path class="cls-1" d="M9.07,2A5.59,5.59,0,0,1,10.8.57a4.9,4.9,0,0,1,7.09,3.34,6.08,6.08,0,0,1-.65,4.26,15.44,15.44,0,0,1-2.67,3.51,33.17,33.17,0,0,1-5.35,4.39.29.29,0,0,1-.39,0,31.52,31.52,0,0,1-6.1-5.19A11.34,11.34,0,0,1,.39,7.22a5.42,5.42,0,0,1,.73-5.35,4.89,4.89,0,0,1,6.61-1C8.2,1.17,8.61,1.57,9.07,2Z"/></g></g></svg>