<svg xmlns="http://www.w3.org/2000/svg" viewBox="0 0 18.54 18.54"><defs><style>.cls-1{fill:#5b5b5b;}</style></defs><title>Info type A</title><g id="Layer_2" data-name="Layer 2"><g id="Layer_1-2" data-name="Layer 1"><path class="cls-1" d="M9.27,18.54a9.27,9.27,0,1,1,9.27-9.26A9.29,9.29,0,0,1,9.27,18.54Zm7.57-9.27a7.57,7.57,0,1,0-7.57,7.57A7.55,7.55,0,0,0,16.84,9.27Z"/><path class="cls-1" d="M8.21,9.2a1.07,1.07,0,1,1,2.12,0v4a1.06,1.06,0,1,1-2.12,0C8.2,12.48,8.21,9.85,8.21,9.2Z"/><path class="cls-1" d="M10.52,5.49a1.25,1.25,0,1,1-2.5,0,1.25,1.25,0,1,1,2.5,0Z"/></g></g></svg>