<svg xmlns="http://www.w3.org/2000/svg" viewBox="0 0 9.14 18.43"><defs><style>.cls-1{fill:#5b5b5b;}</style></defs><title>Info type B</title><g id="Layer_2" data-name="Layer 2"><g id="Layer_1-2" data-name="Layer 1"><path class="cls-1" d="M4,18.43a9.14,9.14,0,0,1-1.33-.25A3,3,0,0,1,.67,14.42a20.88,20.88,0,0,1,1.15-2.78,16.24,16.24,0,0,0,.81-1.87.63.63,0,0,0-.29-.7c-.55-.26-1.09.09-1.62.08A.91.91,0,0,1,0,8.85a.72.72,0,0,1,.19-.68,5.31,5.31,0,0,1,5.32-.92A3,3,0,0,1,7.21,11.2a23.09,23.09,0,0,1-1.12,2.56c-.24.53-.53,1-.72,1.58a.72.72,0,0,0,.75,1A5,5,0,0,0,7,16.2c.34-.09.69-.15.89.25s0,.64-.35.85A6.12,6.12,0,0,1,4,18.43Z"/><path class="cls-1" d="M9.14,2.86A2.88,2.88,0,1,1,6.25,0,2.87,2.87,0,0,1,9.14,2.86Z"/></g></g></svg>