<svg xmlns="http://www.w3.org/2000/svg" viewBox="0 0 18.48 11.78"><defs><style>.cls-1{fill:#5b5b5b;}</style></defs><title>Instant sell</title><g id="Layer_2" data-name="Layer 2"><g id="Layer_1-2" data-name="Layer 1"><path class="cls-1" d="M15.53,3.25c-.6-.58-1.21-1.16-1.79-1.76A.84.84,0,0,1,13.86.14a.79.79,0,0,1,1.05.15q1.65,1.63,3.3,3.3a.81.81,0,0,1,.18,1,.85.85,0,0,1-.89.5H4.44c-.68,0-1.08-.32-1.08-.86s.38-.82,1.06-.82H15.47Z"/><path class="cls-1" d="M3,8.54c.56.55,1.12,1.09,1.67,1.65s.51.93.13,1.33-.83.34-1.32-.15l-3-3A.92.92,0,0,1,.07,7.27a.92.92,0,0,1,1-.54h13c.66,0,1.06.35,1,.91s-.38.77-1,.77H3Z"/></g></g></svg>