<svg xmlns="http://www.w3.org/2000/svg" viewBox="0 0 30.57 25.14"><defs><style>.cls-1{fill:#fac07f;}</style></defs><title>instant buy n sell</title><g id="Layer_2" data-name="Layer 2"><g id="Layer_1-2" data-name="Layer 1"><path class="cls-1" d="M15.84,3.12,10.3,8.65c-.17.16-.17.23,0,.39,1.92,1.92,3.85,4.05,5.77,6,0,0-4.08,0-4,0l-.27-.46L7.14,9.89A1.44,1.44,0,0,1,6.7,8.62a1.37,1.37,0,0,1,.37-.74l3-3,1.77-1.77s0-.28,0-.33,4.26.11,4.26.11Z"/><path class="cls-1" d="M14.73,10.55l5.54,5.54c.17.16.17.23,0,.39-1.92,1.92-3.85,4-5.77,6,0,0,4.08,0,4,0s.23-.41.27-.46l4.65-4.65a1.42,1.42,0,0,0,.43-1.28,1.33,1.33,0,0,0-.36-.74l-3-3-1.77-1.76s0-.28,0-.33-4.26.11-4.26.11Z"/><path d="M30.2,15.32c-.45-.44-6.54-6.55-7.32-7.34a1.77,1.77,0,0,0-1.33-.54H16.91c-.51,0-1,0-1.53,0a3.76,3.76,0,0,0-.65.09,1.41,1.41,0,0,0-.63,2.34c.15.17.32.32.48.48H21a.51.51,0,0,1,.38.2c1.15,1.16,4.85,4.85,5.55,5.55.16.16.16.23,0,.39l-5.56,5.58a.56.56,0,0,1-.42.18h0c-.31,0-6.36,0-6.36,0l-.41.42a1.42,1.42,0,0,0-.08,2,1.47,1.47,0,0,0,1.11.49c.33,0,4.57,0,6.34,0a1.78,1.78,0,0,0,1-.22,3.31,3.31,0,0,0,.45-.39c.76-.76,6.62-6.65,7.22-7.24A1.46,1.46,0,0,0,30.2,15.32Z"/><path d="M.37,7.88C.82,7.44,6.91,1.33,7.69.55A1.78,1.78,0,0,1,9,0c1,0,5.66,0,6.17,0a3.72,3.72,0,0,1,.65.08,1.42,1.42,0,0,1,.63,2.35c-.15.16-.32.31-.48.47H9.58a.52.52,0,0,0-.38.21L3.65,8.66c-.16.17-.16.24,0,.4l5.56,5.57a.54.54,0,0,0,.42.19H16l.42.41a1.42,1.42,0,0,1,.08,2,1.52,1.52,0,0,1-1.11.5c-.33,0-4.57,0-6.34,0a1.78,1.78,0,0,1-1-.22C7.9,17.37,1,10.45.39,9.85A1.46,1.46,0,0,1,.37,7.88Z"/></g></g></svg>