<svg width="50" height="51" viewBox="0 0 50 51" fill="none" xmlns="http://www.w3.org/2000/svg">
<path d="M25 50.4399C38.8071 50.4399 50 39.2471 50 25.4399C50 11.6328 38.8071 0.439941 25 0.439941C11.1929 0.439941 0 11.6328 0 25.4399C0 39.2471 11.1929 50.4399 25 50.4399Z" fill="#FC9518"/>
<path d="M23.594 37.64C23.2632 39.0462 22.8703 40.6177 20.9472 40.1835C19.0242 39.7492 19.355 38.1156 19.6859 36.5855C18.2866 36.3477 16.9049 36.0161 15.5502 35.5929C15.1681 35.4445 14.8205 35.2192 14.5288 34.9312C14.2372 34.6431 14.0077 34.2982 13.8546 33.918C13.7305 33.339 14.4749 32.5532 14.8678 31.8501C15.2607 31.1471 15.5916 31.0437 15.695 30.5888C16.7427 26.1085 17.7559 21.6144 18.7347 17.1065C18.8381 16.6103 18.5279 16.0313 18.4658 15.473C18.4038 14.9147 18.1143 13.8187 18.4658 13.4051C18.7269 13.1204 19.0476 12.8968 19.4051 12.7503C19.7625 12.6038 20.1479 12.5379 20.5337 12.5573C22.0149 12.7646 23.4798 13.0755 24.9175 13.4879C25.3103 11.9577 25.6412 10.4275 27.585 10.7377C28.9084 10.9238 29.2599 11.8956 28.9704 14.1909C36.063 17.2306 37.2417 22.4622 32.0928 27.1148C34.2433 34.4349 31.2864 38.1777 23.594 37.64ZM21.5262 22.8137C23.7388 23.31 25.7859 23.8477 27.8744 24.2199C28.5659 24.3212 29.2706 24.1672 29.8567 23.7866C30.4428 23.406 30.8702 22.8249 31.0589 22.152C31.3007 21.4953 31.2811 20.7708 31.004 20.1281C30.727 19.4854 30.2136 18.9738 29.5701 18.6988C27.3782 18.0164 25.0622 17.6235 22.7876 17.1272L21.5262 22.8137ZM19.4584 32.4498C21.6296 32.9461 23.594 33.463 25.6619 33.8353C26.3748 33.9344 27.0992 33.7682 27.6977 33.3683C28.2961 32.9683 28.7268 32.3626 28.908 31.666C29.0891 30.9694 29.0081 30.2305 28.6804 29.5897C28.3526 28.9489 27.8009 28.4509 27.13 28.1901C25.0622 27.6111 22.9944 27.2182 20.7404 26.7219L19.4584 32.4498Z" fill="white"/>
</svg>
