<svg width="50" height="51" viewBox="0 0 50 51" fill="none" xmlns="http://www.w3.org/2000/svg">
<path d="M35.8763 7.21021C35.8763 7.21021 13.2859 7.73102 12.6256 8.65247C11.9652 9.57392 8.96386 16.3646 8.96386 16.3646L6.10254 30.7472C6.10254 30.7472 13.4059 42.5057 13.8061 42.6459C14.2063 42.7861 24.9913 47.4134 24.9913 47.4134L34.5557 42.9063L42.9195 31.9291L45.4007 25.6592L35.8763 7.21021Z" fill="white"/>
<path d="M23.0506 0.659912H26.9524L28.4731 0.900291C32.8756 1.51413 37.0347 3.29328 40.5208 6.05403C44.007 8.81477 46.6938 12.457 48.304 16.6048C49.9142 20.7525 50.3893 25.2553 49.6803 29.6482C48.9712 34.0412 47.1038 38.1651 44.2708 41.5941C41.4377 45.023 37.7418 47.6328 33.5645 49.154C29.3873 50.6751 24.8802 51.0524 20.5086 50.247C16.1371 49.4416 12.0595 47.4826 8.6969 44.5723C5.33431 41.662 2.80863 37.9059 1.38064 33.6918C0.740342 31.6887 0.460212 29.6855 0 27.6824V23.7162C0.0855403 23.4406 0.15239 23.1595 0.200092 22.8748C0.679869 18.1299 2.53373 13.6287 5.5339 9.92411C8.53407 6.21955 12.5499 3.47304 17.0879 2.02205C19.0431 1.43615 21.0351 0.981093 23.0506 0.659912ZM36.737 12.6788H13.006V19.129H21.59V22.0736C20.0693 22.2539 18.6486 22.3741 17.248 22.5944C15.0007 22.8235 12.8228 23.5049 10.845 24.5975C9.3243 25.519 9.3243 26.6007 10.845 27.5822C11.3245 27.9174 11.8503 28.1806 12.4057 28.3635C13.9064 28.7841 15.4071 29.2048 16.9478 29.4852C18.4885 29.7657 20.0893 29.9059 21.73 30.1062V40.9833H28.173V29.966C28.8933 29.966 29.5136 29.966 30.1739 29.7857C32.575 29.345 34.9561 28.9244 37.3372 28.3835C38.057 28.1679 38.734 27.829 39.3382 27.3819C40.6388 26.5206 40.6187 25.3788 39.3382 24.5975C38.9471 24.3087 38.5156 24.0792 38.0576 23.9165C36.6756 23.4367 35.2657 23.042 33.8356 22.7346C31.9548 22.3941 30.0539 22.2138 28.173 21.9734V19.0088H36.7169L36.737 12.6788Z" fill="#33A583"/>
<path d="M21.65 22.7346V26.5206H28.093V22.8147C29.4936 22.9149 30.8142 22.9349 32.0948 23.1553C33.8756 23.4558 35.6564 23.8764 37.3973 24.3371C37.8174 24.4573 38.1176 24.9781 38.4777 25.3187C38.1176 25.6592 37.8174 26.18 37.3973 26.3002C35.5953 26.8318 33.7559 27.2268 31.8947 27.4821C26.2405 28.1841 20.5125 28.022 14.9069 27.0013C13.9495 26.8188 13.0208 26.5089 12.1456 26.0799C11.2252 25.6592 11.2052 24.9381 12.1456 24.5575C13.2405 24.0748 14.3892 23.7251 15.5672 23.5158C17.5681 23.1753 19.569 22.995 21.65 22.7346Z" fill="#33A583"/>
</svg>
