<svg xmlns="http://www.w3.org/2000/svg" viewBox="0 0 17.97 17.99"><defs><style>.cls-1{fill:#5b5b5b;}</style></defs><title>Logout</title><g id="Layer_2" data-name="Layer 2"><g id="Layer_1-2" data-name="Layer 1"><path class="cls-1" d="M18,9.25A9,9,0,0,1,.14,10.59,8.88,8.88,0,0,1,2.28,3a2.61,2.61,0,0,1,1-.64,1.21,1.21,0,0,1,1.41.46,1.23,1.23,0,0,1,.09,1.46,3.42,3.42,0,0,1-.43.51A6,6,0,0,0,3,11.2a5.88,5.88,0,0,0,5.15,4,6.15,6.15,0,0,0,6.92-5.16,6,6,0,0,0-1.53-5.3,1.57,1.57,0,0,1-.48-1.46,1.39,1.39,0,0,1,2.33-.65A9.09,9.09,0,0,1,18,9.25Z"/><path class="cls-1" d="M10.77,5.39a1.79,1.79,0,1,1-3.57,0q0-1.77,0-3.54a1.79,1.79,0,1,1,3.57,0C10.78,2.44,10.78,4.8,10.77,5.39Z"/></g></g></svg>