<svg xmlns="http://www.w3.org/2000/svg" viewBox="0 0 39.06 39.06"><defs><style>.cls-1{fill:#d1d1d1;}.cls-2{fill:#fff;}.cls-3{fill:#231f20;}</style></defs><title>naira</title><g id="Layer_2" data-name="Layer 2"><g id="Layer_1-2" data-name="Layer 1"><rect class="cls-1" width="39.06" height="39.06" rx="3.99"/><polygon class="cls-2" points="23.4 10.35 14.68 11.71 12.01 15.36 11.68 20.1 13.14 25.25 15.2 27.86 23.12 28.96 26.45 27.79 28.34 23.95 28.34 20.51 27.11 13.86 23.4 10.35"/><path class="cls-3" d="M32.32,20.12A12.52,12.52,0,1,1,19.83,7.6,12.53,12.53,0,0,1,32.32,20.12Zm-9.18-1.68c-1,0-1.94,0-2.88,0a1,1,0,0,1-1-.5c-.94-1.37-1.93-2.71-2.9-4.07a.84.84,0,0,0-1-.4.85.85,0,0,0-.61.92c0,.21,0,.42,0,.63v3.39c-.68.07-1.59-.19-1.63.8s.95.83,1.59.92v.79c-1.26.06-1.65.24-1.61.83.07,1.08,1,.81,1.65.88,0,1.07,0,2.11,0,3.15,0,.62.31,1,.82,1s.84-.37.85-1c0-.39,0-.77,0-1.15V22.62c1.25,0,2.42,0,3.6,0a.8.8,0,0,1,.77.39c.79,1.12,1.59,2.24,2.4,3.35.37.51,1,.61,1.32.17a1.33,1.33,0,0,0,.25-.76c0-1,0-2.07,0-3.11.69-.08,1.6.17,1.63-.82s-.95-.82-1.61-.9v-.8c.67-.06,1.6.2,1.61-.84s-1-.78-1.63-.89V14.63c0-.12,0-.24,0-.36a.83.83,0,0,0-.83-.83.81.81,0,0,0-.83.87C23.13,15.67,23.14,17,23.14,18.44Z"/><path class="cls-3" d="M19.24,20.93H16.51v-.81a16.33,16.33,0,0,1,2.1,0c.26,0,.48.42.71.65Z"/><path class="cls-3" d="M20.93,20.14h2.19v.74C21.79,21.16,21.38,21,20.93,20.14Z"/><path class="cls-3" d="M16.5,16.93l1.05,1.48H16.5Z"/></g></g></svg>