<svg xmlns="http://www.w3.org/2000/svg" viewBox="0 0 17.82 17.82"><defs><style>.cls-1{fill:#5b5b5b;}</style></defs><title>Next</title><g id="Layer_2" data-name="Layer 2"><g id="Layer_1-2" data-name="Layer 1"><path class="cls-1" d="M14.8,8.85,8.68,15,8,15.62a1.27,1.27,0,0,0,0,1.82,1.26,1.26,0,0,0,1.84,0q3.5-3.48,7-7l.62-.62a1.23,1.23,0,0,0,0-1.78Q13.63,4.19,9.8.38A1.24,1.24,0,0,0,8,.38a1.26,1.26,0,0,0,.05,1.84c2.1,2.12,4.21,4.22,6.32,6.33A3.82,3.82,0,0,0,14.8,8.85Z"/><path class="cls-1" d="M7.16,8.87l-2.9,2.89L.41,15.61A1.27,1.27,0,0,0,1,17.78a1.31,1.31,0,0,0,1.29-.42l5.93-5.94c.52-.51,1-1,1.55-1.55a1.26,1.26,0,0,0,0-1.93L2.26.47A1.28,1.28,0,1,0,.47,2.27Q3.6,5.42,6.74,8.54A4.43,4.43,0,0,0,7.16,8.87Z"/></g></g></svg>