<svg xmlns="http://www.w3.org/2000/svg" viewBox="0 0 30.9 29.47"><defs><style>.cls-1{fill:#fac07f;}</style></defs><title>no hidden charges</title><g id="Layer_2" data-name="Layer 2"><g id="Layer_1-2" data-name="Layer 1"><path class="cls-1" d="M20.42,0c.95.2,1.89.41,2.84.59,1.89.36,3.77.69,5.66,1,.88.17,1.09.49.95,1.35-.51,3.27-1,6.55-1.51,9.82-.07.4-.05.68.42.9a1.84,1.84,0,0,1,1,2.07c0,.24-.09.48-.13.72,1.41.65,1.51,2.22.67,3.42a2.18,2.18,0,0,1-.26,3.21.65.65,0,0,0-.12.53,1.83,1.83,0,0,1-1.43,2.49c-2.29.54-4.58,1.12-6.9,1.49a15.63,15.63,0,0,1-3.54-.14c-.88-.07-1.75-.22-2.63-.3-.31,0-.47-.08-.53-.43-.64-3.27-1.3-6.54-1.93-9.81a1.4,1.4,0,0,1,.16-.84c.25-.47.58-.9.86-1.36a2.68,2.68,0,0,1,1.68-1.3c.39-.1.49-.3.51-.68a31.06,31.06,0,0,0-.63-6.23C15.39,5.45,15.2,4.38,15,3.3c-.13-.9.22-1.3,1.13-1.31s1.65,0,2.48,0c.4,0,.53-.12.54-.52A1.45,1.45,0,0,1,20,0Zm-1,15,.29.09a10.08,10.08,0,0,0,4.94-.28c2-.54,1.64-.21,1.94-2.08,0,0,0,0,0,0,.37-2.35.73-4.69,1.1-7a1,1,0,0,0-.37-1,9.24,9.24,0,0,1-1-1.42c-.13-.18-.3-.4-.48-.44C24.91,2.65,24,2.48,23,2.33a1,1,0,0,0-.57.22,10.89,10.89,0,0,1-1.31,1,.84.84,0,0,0-.53.77c-.2,1.91-.43,3.81-.64,5.71C19.79,11.68,19.6,13.35,19.42,15ZM18.94,3.69c-.21.12-.31.15-.32.2a3.27,3.27,0,0,1-1.27,1.66c-.09.07-.11.3-.09.45.16,1.2.36,2.39.52,3.58.08.68.1,1.36.15,2H18Z"/><path class="cls-1" d="M2.61,17.78l3.83-.7c1.45-.26,2.91-.5,4.36-.77.34-.07.53,0,.61.36.83,4.14,1.68,8.29,2.52,12.43a1.34,1.34,0,0,1,0,.31,4.57,4.57,0,0,1-.52.05c-2.61,0-5.22,0-7.83,0-.41,0-.54-.13-.62-.53C4.2,25.31,3.4,21.69,2.62,18.06A1.16,1.16,0,0,1,2.61,17.78ZM9.1,27.56a1.41,1.41,0,0,0,1.41-1.37A1.48,1.48,0,0,0,9,24.74a1.4,1.4,0,0,0-1.37,1.4A1.45,1.45,0,0,0,9.1,27.56Z"/><path class="cls-1" d="M23.28,7.84a2,2,0,0,1,2.19,1.89,1.94,1.94,0,0,1-2.1,1.89A2,2,0,0,1,21.23,9.7,1.9,1.9,0,0,1,23.28,7.84Z"/><path d="M13.54,8.38v.74l-.06.52a6.71,6.71,0,0,1-1.86,3.81,6.66,6.66,0,0,1-3.87,2l-.61.08H6.4l-.14,0a8.89,8.89,0,0,1-.88-.13,6.6,6.6,0,0,1-4.19-2.8A6.53,6.53,0,0,1,.13,7.48,6.49,6.49,0,0,1,2.4,3.59,6.61,6.61,0,0,1,7.86,2.07a6.56,6.56,0,0,1,3.65,1.85,6.67,6.67,0,0,1,2,3.84C13.49,8,13.51,8.17,13.54,8.38ZM3.62,4.52,11,11.9A5.27,5.27,0,0,0,3.62,4.52Zm-1.1,1.1A5.27,5.27,0,0,0,9.89,13Z"/></g></g></svg>