<svg xmlns="http://www.w3.org/2000/svg" viewBox="0 0 14.92 17.93"><defs><style>.cls-1{fill:#5b5b5b;}</style></defs><title>Notification</title><g id="Layer_2" data-name="Layer 2"><g id="Layer_1-2" data-name="Layer 1"><path class="cls-1" d="M7.46,14.42H1.25a1.11,1.11,0,0,1-1.19-.76,1,1,0,0,1,.27-1.09,1.43,1.43,0,0,1,.31-.24A2.1,2.1,0,0,0,1.86,9.94a16,16,0,0,1,.06-3.32A5.34,5.34,0,0,1,5.26,2.29a.48.48,0,0,0,.35-.5A1.84,1.84,0,0,1,7.41,0,1.82,1.82,0,0,1,9.29,1.69a.7.7,0,0,0,.48.66,5.42,5.42,0,0,1,3.29,4.92c0,1.25,0,2.51,0,3.76a.7.7,0,0,0,.36.68c.33.21.64.46,1,.69a1.1,1.1,0,0,1,.48,1.3,1.12,1.12,0,0,1-1.14.72Z"/><path class="cls-1" d="M8.86,15.83c.56,0,.75.32.53.84a2.11,2.11,0,0,1-3.88-.05c-.19-.48,0-.78.51-.79Z"/></g></g></svg>