<svg xmlns="http://www.w3.org/2000/svg" viewBox="0 0 17.82 17.82"><defs><style>.cls-1{fill:#5b5b5b;}</style></defs><title>Previous</title><g id="Layer_2" data-name="Layer 2"><g id="Layer_1-2" data-name="Layer 1"><path class="cls-1" d="M3,8.85,9.14,15l.64.65A1.27,1.27,0,1,1,8,17.4l-7-7C.8,10.22.58,10,.39,9.81A1.22,1.22,0,0,1,.38,8Q4.19,4.19,8,.38a1.23,1.23,0,0,1,1.78,0,1.25,1.25,0,0,1-.05,1.84C7.66,4.34,5.55,6.44,3.44,8.55A3.05,3.05,0,0,1,3,8.85Z"/><path class="cls-1" d="M10.67,8.87l2.89,2.89c1.29,1.28,2.58,2.56,3.85,3.85a1.27,1.27,0,0,1-.56,2.17,1.31,1.31,0,0,1-1.29-.42L9.63,11.42c-.52-.51-1-1-1.55-1.55a1.27,1.27,0,0,1,0-1.93L15.57.47a1.27,1.27,0,1,1,1.78,1.8q-3.14,3.15-6.27,6.27C11,8.65,10.83,8.74,10.67,8.87Z"/></g></g></svg>