<svg xmlns="http://www.w3.org/2000/svg" viewBox="0 0 15.29 18.55"><defs><style>.cls-1{fill:#5b5b5b;}</style></defs><title>Secure</title><g id="Layer_2" data-name="Layer 2"><g id="Layer_1-2" data-name="Layer 1"><path class="cls-1" d="M15,10.59A10.12,10.12,0,0,1,8,18.5a1.18,1.18,0,0,1-.72,0,10.24,10.24,0,0,1-7-7.78A32.24,32.24,0,0,1,0,6.53C0,5,0,5.26,0,3.71a.52.52,0,0,1,.37-.55c2.31-1,4.62-2,6.92-3.07a.75.75,0,0,1,.7,0c2.25,1,4.49,2,6.75,3a.77.77,0,0,1,.54.85c0,.83,0,1.67,0,2.5A20.55,20.55,0,0,1,15,10.59Zm-8.52,3L12.25,7.8a1,1,0,0,0-.07-1.29.94.94,0,0,0-1.29,0L6.44,10.91c-.09-.13-1.41-1.52-2-2.09a1,1,0,0,0-1.34,0,.92.92,0,0,0,0,1.32C4.19,11.28,5.33,12.4,6.49,13.56Z"/></g></g></svg>