<svg width="19" height="12" viewBox="0 0 19 12" fill="none" xmlns="http://www.w3.org/2000/svg">
<path d="M15.5294 3.24999C14.9294 2.66999 14.3194 2.08999 13.7394 1.48999C13.6402 1.40286 13.563 1.29358 13.5139 1.17102C13.4649 1.04846 13.4454 0.91606 13.4571 0.784566C13.4688 0.653072 13.5113 0.526185 13.5812 0.414194C13.6511 0.302203 13.7464 0.208263 13.8594 0.139992C14.0218 0.0302712 14.2192 -0.0151408 14.4133 0.0125808C14.6073 0.0403024 14.7842 0.139178 14.9094 0.289992C16.0094 1.37666 17.1094 2.47666 18.2094 3.58999C18.349 3.71113 18.4429 3.87636 18.4757 4.05826C18.5084 4.24016 18.478 4.42778 18.3894 4.58999C18.3152 4.75847 18.1883 4.89831 18.0278 4.98848C17.8673 5.07864 17.6819 5.11427 17.4994 5.08999H4.43938C3.75938 5.08999 3.35938 4.76999 3.35938 4.22999C3.35938 3.68999 3.73938 3.40999 4.41938 3.40999H15.4694L15.5294 3.24999Z" fill="#008000"/>
<path d="M2.99974 8.54004C3.55974 9.09004 4.11973 9.63004 4.66973 10.19C5.21973 10.75 5.17974 11.12 4.79974 11.52C4.41974 11.92 3.96974 11.86 3.47974 11.37L0.479735 8.37004C0.293966 8.26315 0.151344 8.09476 0.0764894 7.89393C0.00163519 7.6931 -0.000753731 7.47244 0.0697351 7.27004C0.151859 7.08103 0.29506 6.92508 0.476384 6.82716C0.657708 6.72925 0.866655 6.69504 1.06974 6.73004H14.0697C14.7297 6.73004 15.1297 7.08004 15.0697 7.64004C15.0097 8.20004 14.6897 8.41004 14.0697 8.41004H2.99974V8.54004Z" fill="#FF0000"/>
</svg>
