<svg xmlns="http://www.w3.org/2000/svg" viewBox="0 0 18.41 18.41"><defs><style>.cls-1{fill:#5b5b5b;}</style></defs><title>Settings</title><g id="Layer_2" data-name="Layer 2"><g id="Layer_1-2" data-name="Layer 1"><path class="cls-1" d="M10,18.41H8.32a1.45,1.45,0,0,1-.9-1.15,1.37,1.37,0,0,0-.87-1.05,1.81,1.81,0,0,0-2,0A1.06,1.06,0,0,1,3,16.07l-.53-.53c-.69-.7-.75-1-.24-1.89a1.34,1.34,0,0,0,.12-1.3c-.07-.17-.14-.35-.22-.52a1.25,1.25,0,0,0-1-.85A1.39,1.39,0,0,1,0,10.09V8.36a1.44,1.44,0,0,1,1.19-.9A1.08,1.08,0,0,0,2,6.93a2,2,0,0,0,.13-2.39,1,1,0,0,1,.18-1.43L3,2.48a1.18,1.18,0,0,1,1.72-.22,2,2,0,0,0,.72.28A2.07,2.07,0,0,0,7.46,1.08,1.83,1.83,0,0,1,7.83.36a2.69,2.69,0,0,1,2.69,0,2,2,0,0,1,.39.78,1.42,1.42,0,0,0,.58.91,1.94,1.94,0,0,0,2.35.14,1.05,1.05,0,0,1,1.47.18l.61.6a1.22,1.22,0,0,1,.22,1.76,1.93,1.93,0,0,0-.28.72,2.08,2.08,0,0,0,1.48,2.06,1.73,1.73,0,0,1,.71.37,2.67,2.67,0,0,1,0,2.69,2.17,2.17,0,0,1-.79.39,1.37,1.37,0,0,0-.86.51c-.46.78-.81,1.54-.17,2.42A1.06,1.06,0,0,1,16,15.36l-.58.58a1.21,1.21,0,0,1-1.81.22A1.88,1.88,0,0,0,11,17.26,1.54,1.54,0,0,1,10,18.41ZM6.31,9.2A2.87,2.87,0,1,0,9.18,6.36,2.88,2.88,0,0,0,6.31,9.2Z"/></g></g></svg>