<svg xmlns="http://www.w3.org/2000/svg" viewBox="0 0 12.91 18.43"><defs><style>.cls-1{fill:#5b5b5b;}</style></defs><title>Transactions type B</title><g id="Layer_2" data-name="Layer 2"><g id="Layer_1-2" data-name="Layer 1"><path class="cls-1" d="M7.37,17.56a.92.92,0,0,1-1.83,0c0-.15,0-16.48,0-16.58A.93.93,0,1,1,7.38,1C7.38,1.12,7.39,17.41,7.37,17.56Z"/><path class="cls-1" d="M1.84,17.33c0,.69-.34,1.09-.9,1.1S0,18,0,17.31V9.43C0,8.71.36,8.29.93,8.3s.91.42.91,1.15C1.85,10.75,1.85,16,1.84,17.33Z"/><path class="cls-1" d="M12.91,17.33c0,.69-.34,1.09-.9,1.1s-.94-.41-.94-1.12c0-2.63,0-9.86,0-12.49,0-.72.35-1.14.93-1.13s.91.42.91,1.15Z"/></g></g></svg>