<svg xmlns="http://www.w3.org/2000/svg" viewBox="0 0 18.66 15.5"><defs><style>.cls-1{fill:#5b5b5b;}</style></defs><title>Transactions Type A</title><g id="Layer_2" data-name="Layer 2"><g id="Layer_1-2" data-name="Layer 1"><path class="cls-1" d="M9.27,9,15,2.21c-.57.06-1,.12-1.4.15a1,1,0,0,1-1.16-.83,1,1,0,0,1,1-1.11C14.6.27,15.83.13,17.07,0c.78-.07,1.1.2,1.18,1,.14,1.19.27,2.39.4,3.58.07.73-.24,1.2-.82,1.28s-1-.33-1.13-1.08c-.05-.39-.09-.77-.14-1.3-.2.22-4.22,5-6.11,7.24-.7.83-1.08.87-1.95.19L6.62,9.44C6.47,9.61,3.39,13.28,2,15c-.21.24-.54.54-.82.54A1.29,1.29,0,0,1,.19,15c-.35-.48-.16-.81.14-1.17l5.18-6.2c.6-.72,1-.78,1.76-.18S8.61,8.42,9.27,9Z"/></g></g></svg>