<svg xmlns="http://www.w3.org/2000/svg" viewBox="0 0 29.64 29.64"><defs><style>.cls-1{fill:#fac07f;}</style></defs><title>unique wallet</title><g id="Layer_2" data-name="Layer 2"><g id="Layer_1-2" data-name="Layer 1"><path d="M19,10.71h2.52c1,0,1,0,1.05,1v.44h2a3,3,0,0,1,0-.85,2.57,2.57,0,0,1,.48-.63c.18.2.5.39.51.6q0,3.5,0,7c0,.21-.33.41-.5.61a2.39,2.39,0,0,1-.49-.63,3,3,0,0,1,0-.86h-2c0,.05-.06.09-.06.12,0,1.37.1,1.4-1.44,1.38H19l0,.3c0,1.26,0,1.27-1.31,1.25-.37,0-.73-.07-.72-.52s.35-.53.73-.52l.2,0c0-.05.07-.11.06-.17-.06-1.61.27-1.33,1.4-1.35h2a.7.7,0,0,0,.14,0c0-.05.07-.11.07-.16-.08-1.64.32-1.33,1.4-1.35h1.65v-1H20.47a3.46,3.46,0,0,1,0,1c-.07.21-.34.35-.52.53-.16-.18-.41-.32-.46-.52a3.76,3.76,0,0,1,0-1l-.16.13-.87-.71.82-.68.21.14a3.21,3.21,0,0,1,0-.93c.06-.22.3-.39.46-.58.18.2.44.37.52.6a3,3,0,0,1,0,.9h4.07v-1h-2c-.94,0-1-.06-1-1v-.57H19c-1,0-1.06,0-1.07-1v-.44a.87.87,0,0,0-.21-.06c-.38,0-.79,0-.79-.52s.4-.51.79-.52c1.21,0,1.21,0,1.24,1.19C18.93,10.45,19,10.55,19,10.71Z"/><path d="M10.68,10.71a1.49,1.49,0,0,0,0-.23c-.06-1.48.17-1.33,1.44-1.29.21,0,.41.32.62.49-.21.17-.4.36-.62.51s-.21,0-.33,0a.7.7,0,0,0-.06.17c.05,1.6-.24,1.35-1.47,1.36h-2c0,.08-.08.13-.08.19.07,1.63-.29,1.33-1.47,1.35H5.1v1H9.17a5.37,5.37,0,0,1,0-.9.8.8,0,0,1,.34-.54c.15-.06.4.12.59.2s.3.22.46.24c.37,0,.69.16.61.55,0,.19-.39.34-.61.48s-.21,0-.34,0V15.8l.14-.14c.28.24.8.48.8.72,0,.66-.62.48-1,.49-.89,0-1-.06-1-.94v-.55H5.1v1H7.15c.92,0,1,.06,1,1v.56c.78,0,1.5,0,2.22,0,.4,0,.85,0,.84.53s-.48.5-.87.5H8.08c-.9,0-1-.07-1-.94v-.55H5.06a2.6,2.6,0,0,1,0,.79,3,3,0,0,1-.5.69c-.17-.22-.48-.45-.49-.67,0-1.78,0-3.56,0-5.33V11.57c0-.4,0-.84.53-.84s.51.43.5.81c0,.21,0,.42,0,.67H7a.3.3,0,0,0,.06-.13c0-1.38-.08-1.39,1.44-1.37Z"/><path d="M14.82,21.47H19.9C20.09,20,20.09,20,21.66,20h2.69c.38,0,.73.07.73.52s-.36.51-.74.51H21.13l-.06,0s-.06.07-.07.1c0,1.48.06,1.42-1.54,1.41-.66,0-1.32,0-2,0v2a3.2,3.2,0,0,1,.88,0c.23.08.41.33.61.51-.19.16-.37.47-.56.48-2.35,0-4.71,0-7.06,0-.2,0-.39-.3-.58-.46a7.41,7.41,0,0,1,.58-.54c.09-.06.25,0,.44,0v-3.4a1.54,1.54,0,0,1,0-.57,3.67,3.67,0,0,1,.5-.62c.17.2.48.4.49.61,0,1,0,2,0,3v1h3.56v-2h-.9s-.06.06-.07.09c0,.38,0,.85-.51.88s-.55-.37-.54-.76c0-.07,0-.16,0-.18-.87-.55-.35-1.4-.44-2.11,0-.15.34-.34.52-.51.16.17.4.32.46.52A4.5,4.5,0,0,1,14.82,21.47Z"/><path d="M9.68,6.08c0,.94,0,1.88,0,2.82,0,.54-.2.79-.75.79-1.91,0-3.81,0-5.71,0-.56,0-.75-.25-.75-.79q0-2.82,0-5.64c0-.59.25-.78.82-.78,1.86,0,3.71,0,5.57,0,.63,0,.84.26.82.85C9.66,4.25,9.68,5.17,9.68,6.08ZM3.54,8.61H8.6V3.55H3.54Z"/><path d="M23.49,9.68c-.92,0-1.84,0-2.76,0-.53,0-.78-.2-.78-.75C20,7,20,5.13,20,3.23c0-.56.25-.75.79-.75q2.82,0,5.64,0c.59,0,.78.25.78.82,0,1.85,0,3.71,0,5.57,0,.62-.26.84-.85.82C25.37,9.66,24.43,9.68,23.49,9.68ZM21,3.54V8.6h5.06V3.54Z"/><path d="M2.49,23.52c0-.91,0-1.83,0-2.75,0-.57.19-.82.78-.82q2.82,0,5.64,0c.59,0,.79.25.79.81q0,2.79,0,5.58c0,.62-.25.83-.85.82-1.84,0-3.67,0-5.51,0-.73,0-.84-.11-.84-.87C2.48,25.36,2.49,24.44,2.49,23.52ZM3.55,21v5.08H8.61V21Z"/><path d="M13.79,7.16v.76c0,.38-.09.76-.52.69-.2,0-.4-.41-.49-.67a2.18,2.18,0,0,1,0-.72c-.07,0-.11-.09-.14-.09-1.43,0-1.41.09-1.41-1.49A2,2,0,0,0,11,5c-.08-.21-.29-.47-.22-.59a.78.78,0,0,1,.59-.35c1.05,0,2.1,0,3.15,0H18c.39,0,.85,0,.87.5s-.45.53-.84.54a.49.49,0,0,0-.17.06V7.35c0,.39,0,.78-.53.77s-.5-.38-.5-.75c0-.75,0-1.49,0-2.27h-4.6v1c.91,0,1.82,0,2.73,0,.6,0,.88.2.84.82s0,1,0,1.54-.1.75-.53.68c-.2,0-.43-.41-.48-.66a7,7,0,0,1,0-1.3Z"/><path d="M26.12,26.12V21a1.18,1.18,0,0,1,0-.5,3.28,3.28,0,0,1,.49-.56c.18.18.47.34.5.54a16.61,16.61,0,0,1,0,1.73c0,1.37,0,2.74,0,4.1,0,.57-.2.82-.79.82-1.88,0-3.76,0-5.64,0-.36,0-.74,0-.75-.49s.37-.54.76-.54Z"/><path d="M6.15,4.54c1.48,0,1.47,0,1.48,1.51,0,1.69.09,1.58-1.61,1.58-1.48,0-1.47,0-1.48-1.51C4.53,4.43,4.44,4.53,6.15,4.54Zm-.53,1v1h.93v-1Z"/><path d="M14.89,13.28c1.48,0,1.48,0,1.48,1.51,0,1.69.1,1.58-1.6,1.58-1.48,0-1.48,0-1.48-1.51C13.28,13.16,13.19,13.27,14.89,13.28Zm-.52,1v1h.93v-1Z"/><path d="M23.5,7.63C22,7.63,22,7.63,22,6.12c0-1.69-.1-1.58,1.6-1.58S25.1,4.47,25.1,6,25.2,7.64,23.5,7.63Zm-.42-2v1H24v-1Z"/><path d="M23.49,25.09c-1.48,0-1.48,0-1.48-1.5,0-1.69-.1-1.58,1.6-1.59s1.49-.07,1.48,1.51S25.19,25.1,23.49,25.09Zm-.42-2v1H24v-1Z"/><path d="M7.63,23.59c0,1.51,0,1.5-1.49,1.51-1.72,0-1.6.1-1.6-1.58C4.54,22,4.54,22,6,22,7.72,22,7.64,21.88,7.63,23.59Zm-2-.52v1h1v-1Z"/><path class="cls-1" d="M5.92,0V1H1V5.91H0V.67C0,.16.16,0,.66,0H5.92Z"/><path class="cls-1" d="M29.64,5.92h-1V1H23.73V0H29c.49,0,.66.16.66.64Z"/><path class="cls-1" d="M5.91,28.64v1H.67C.16,29.64,0,29.48,0,29V23.73H1v4.91Z"/><path class="cls-1" d="M28.66,28.66V23.73h1a2.11,2.11,0,0,1,0,.26v5c0,.49-.16.66-.64.66H23.73v-1Z"/></g></g></svg>