<svg xmlns="http://www.w3.org/2000/svg" viewBox="0 0 39.06 39.06"><defs><style>.cls-1{fill:#dffcf4;}.cls-2{fill:#fff;}.cls-3{fill:#33a583;}</style></defs><title>usdt</title><g id="Layer_2" data-name="Layer 2"><g id="Layer_1-2" data-name="Layer 1"><rect class="cls-1" width="39.06" height="39.06" rx="3.99"/><path class="cls-2" d="M25.66,10.93s-11.29.26-11.62.72-1.83,3.85-1.83,3.85l-1.43,7.18s3.65,5.87,3.85,5.94S20.22,31,20.22,31L25,28.75l4.18-5.48,1.24-3.13Z"/><path class="cls-3" d="M19.25,7.66H21.2l.76.12A12.48,12.48,0,1,1,8.42,24.15c-.32-1-.46-2-.69-3V19.17a3.2,3.2,0,0,0,.1-.42A12.22,12.22,0,0,1,16.27,8.34,23,23,0,0,1,19.25,7.66Zm6.84,6H14.23v3.22h4.29v1.47c-.76.09-1.47.15-2.17.26a8.38,8.38,0,0,0-3.2,1c-.76.46-.76,1,0,1.49a3,3,0,0,0,.78.39c.75.21,1.5.42,2.27.56s1.57.21,2.39.31v5.43h3.22V22.29c.36,0,.67,0,1-.09,1.2-.22,2.39-.43,3.58-.7A3.25,3.25,0,0,0,27.39,21c.65-.43.64-1,0-1.39a2.47,2.47,0,0,0-.64-.34,17.92,17.92,0,0,0-2.11-.59c-.94-.17-1.89-.26-2.83-.38V16.82h4.27Z"/><path class="cls-3" d="M18.55,18.68v1.89h3.22V18.72c.7.05,1.36.06,2,.17.89.15,1.78.36,2.65.59.21.06.36.32.54.49-.18.17-.33.43-.54.49a18.72,18.72,0,0,1-2.75.59,28.11,28.11,0,0,1-8.49-.24,5.46,5.46,0,0,1-1.38-.46c-.46-.21-.47-.57,0-.76a7.49,7.49,0,0,1,1.71-.52C16.51,18.9,17.51,18.81,18.55,18.68Z"/></g></g></svg>