<svg width="16" height="16" viewBox="0 0 16 16" fill="none" xmlns="http://www.w3.org/2000/svg">
<path d="M16.0684 8.18632C16.0684 7.09614 13.3232 6.18658 9.6751 5.97674L9.67482 4.23973H14.2298V0.624756H1.7745V4.23973H6.32918V5.98523C2.74755 6.20947 0.0683594 7.10954 0.0683594 8.18632C0.0683594 9.26325 2.74755 10.1634 6.32918 10.3872V16.6248H9.67482V10.3957C13.3232 10.1864 16.0684 9.27649 16.0684 8.18632ZM8.06832 9.26026C4.15262 9.26026 0.978232 8.60539 0.978232 7.79708C0.978232 7.11267 3.25444 6.53809 6.32918 6.37821V6.79018H6.32953V8.47835C6.88387 8.51195 7.46646 8.52955 8.06832 8.52955C8.62252 8.52955 9.16071 8.51432 9.67517 8.48647V6.37194C12.8166 6.52201 15.1586 7.10265 15.1586 7.79708C15.1585 8.60539 11.984 9.26026 8.06832 9.26026Z" fill="white"/>
</svg>
