<svg xmlns="http://www.w3.org/2000/svg" viewBox="0 0 18.56 16.19"><defs><style>.cls-1{fill:#5b5b5b;}</style></defs><title>Wallet Type B</title><g id="Layer_2" data-name="Layer 2"><g id="Layer_1-2" data-name="Layer 1"><path class="cls-1" d="M17.44,7.1h-.7V4.28a1.83,1.83,0,0,0-1.35-1.85.31.31,0,0,1-.16-.18c0-.21-.06-.43-.09-.65A1.78,1.78,0,0,0,13.09,0C10,.65,7,1.3,3.9,1.93c-.72.15-1.43.34-2.16.43A1.86,1.86,0,0,0,0,4.25v10a1.82,1.82,0,0,0,1.91,1.9H14.83a1.83,1.83,0,0,0,1.91-1.91V11.46h.71a1.1,1.1,0,0,0,1.11-1.11V8.23A1.1,1.1,0,0,0,17.44,7.1ZM7.67,1.87,13.09.74a1.1,1.1,0,0,1,1.35,1c0,.22.05.43.08.66h-9v0ZM16,14.3a1.1,1.1,0,0,1-1.18,1.18H1.9A1.11,1.11,0,0,1,.71,14.3V4.24A1.1,1.1,0,0,1,1.87,3.08h13A1.09,1.09,0,0,1,16,4.23V7.1H13.1A1.09,1.09,0,0,0,12,8.17c0,.74,0,1.47,0,2.21a1.08,1.08,0,0,0,1.12,1.07H16Zm1.38-3.56H13.17c-.31,0-.44-.13-.44-.44v-2c0-.32.13-.45.45-.46h4.21c.32,0,.45.14.45.46v2C17.84,10.61,17.71,10.74,17.4,10.74Z"/><path class="cls-1" d="M14.19,10a.72.72,0,1,1,.72-.71A.72.72,0,0,1,14.19,10Z"/></g></g></svg>