<svg xmlns="http://www.w3.org/2000/svg" viewBox="0 0 17.84 15.32"><defs><style>.cls-1{fill:#5b5b5b;}</style></defs><title>Walletb ype A</title><g id="Layer_2" data-name="Layer 2"><g id="Layer_1-2" data-name="Layer 1"><path class="cls-1" d="M0,2A2.06,2.06,0,0,1,.39.89a2,2,0,0,1,1-.78A2.39,2.39,0,0,1,2,0C2.13,0,15.81,0,15.9,0a.62.62,0,0,1,.66.57.63.63,0,0,1-.23.58.6.6,0,0,1-.32.1c-.36,0-12.79,0-12.91,0a.69.69,0,0,0-.57.58.65.65,0,0,0,.65.69H15.94a1.87,1.87,0,0,1,1.58.81,1.58,1.58,0,0,1,.32.93c0,.34,0,8.62-.07,8.84a2.68,2.68,0,0,1-.45.95,2.84,2.84,0,0,1-1.17,1,2.79,2.79,0,0,1-1.24.26H2.85A3,3,0,0,1,2,15.15a2.68,2.68,0,0,1-.75-.39,2.81,2.81,0,0,1-1-1.36A2.24,2.24,0,0,1,0,12.59m14-2.38a1.28,1.28,0,1,0-1.28-1.28A1.29,1.29,0,0,0,14,10.21Z"/></g></g></svg>